<svg version="1.0" xmlns="http://www.w3.org/2000/svg" width="484" height="484" viewBox="0 0 363 363"><path d="M175.9 12.5c-.3.2-2.9 1.1-5.9 1.9-3 .8-7.7 2.2-10.5 3-2.7.8-9.7 2.8-15.5 4.4-13.4 3.8-27.1 7.8-33.5 9.7-2.7.8-7.5 2.2-10.5 3-3 .9-8 2.3-11 3.2-3 .8-7.7 2.1-10.5 2.9C56.7 46.7 49.7 51.2 45 61.9c-1.9 4.2-2 7.2-2 82.8 0 67.7.2 79.4 1.6 85.6 3.2 14.8 7.1 23.7 16 37.2 7 10.4 21.1 25.1 29.3 30.5 1.3.8 2.9 2 3.5 2.5 2.8 2.6 15.6 9.6 24.8 13.5 13.9 6 24.2 8.8 41.8 11.6 23.3 3.7 61.2-.8 80.5-9.6 14.8-6.7 19.2-9 27.4-14.4 8.6-5.6 24.4-19.8 29.6-26.6 9.6-12.5 15.7-24.5 19.6-38.5 3.2-11.3 4.1-41.4 3.4-110-.6-58.5-.7-61.2-2.6-65.2-2.5-5.1-8.4-11.4-13-13.7-4.8-2.4-15.4-5.8-40.9-13-10.5-2.9-16.5-4.6-21.5-6.1-7.9-2.4-22.8-6.6-25-7.2-1.9-.5-15.3-4.3-27.1-7.8-4.8-1.4-13.5-2-14.5-1zM274 65c5 1.3 10.7 7.1 12 12.1 1.8 6.5.4 22.7-2.2 26.5-4.3 6.3-8 7.9-19.8 8.2-8.6.3-10.9.1-11.9-1.2-.9-1.1-1.4-7.7-1.8-22.8-.5-17.8-.4-21.5.8-22.5 2.7-2.2 15.2-2.4 22.9-.3zm-80.6.1c5.2 1.4 10.2 6.2 12.3 11.7 1.5 3.9 1.5 5.7.6 14.4-1.2 10.6-3.2 14.7-9.1 18.6-3.5 2.3-23.2 3.1-25 1-.7-.9-1.3-8.9-1.7-23.1l-.6-21.7 2.3-.9c3.2-1.3 16.5-1.3 21.2 0zm-101 1.5c.9.8 1.6 2.4 1.6 3.5 0 1 .6 3.6 1.4 5.6.7 2.1 2.2 6.6 3.1 10 1 3.5 2.3 6.3 2.9 6.3.6 0 1.7-2.5 2.4-5.6 1.9-7.9 5.7-19.3 6.9-20.5.6-.6 3.7-.9 6.9-.7l5.9.3.3 20c.1 11 0 21-.3 22.2-.7 3.1-3.7 4.5-6.9 3.3-2.5-.9-2.6-1.2-2.6-10.5 0-5.2-.4-9.5-.9-9.5-1.5 0-2.9 2.3-4.1 7-1.9 7.2-3.4 9-8 9-3.4 0-4.2-.4-5.5-3-.8-1.6-1.5-3.4-1.5-4 0-2.3-4.1-10-5-9.5-.6.4-1 4.9-1 10 0 8.4-.2 9.5-2 10.5-1.1.6-3.1.8-4.5.4-2.5-.6-2.5-.7-2.6-12.3-.1-6.4-.3-15.9-.5-21.1-.5-13-.5-13 6.6-13 4 0 6.4.5 7.4 1.6zm60.5.2c2.2 4.1 14.2 41.6 13.7 42.9-1.7 4.4-8.8 1.9-10.5-3.7-.6-2.1-1.7-4-2.4-4.2-.6-.2-4.3-.2-8 0l-6.8.4-1.6 4c-1 2.4-2.5 4.3-4.1 4.9-3 1.2-6.2.3-6.2-1.7 0-1.5 5.7-19.7 7-22.4.4-.9 1.1-3 1.5-4.9.4-1.8 1.3-4.4 2.1-5.9s1.4-3.5 1.4-4.5.7-2.9 1.6-4.2c1.4-2.1 2.4-2.5 6.5-2.5 3.6 0 5.1.4 5.8 1.8zm80.3.4c.7 1.3 2.9 7 4.7 12.8 1.9 5.8 4.5 13.6 5.9 17.5 1.3 3.8 2.6 8.4 2.9 10.2.4 2.8.2 3.3-2.1 3.9-3.6.9-7.1-1.7-8.6-6.1l-1.2-3.5h-7.7c-8.3 0-8.8.3-10.6 6.7-.4 1.6-1.7 2.4-4.1 2.9-6 1.1-6.2-.2-2-13.3 6.4-19.6 6.7-20.7 7.6-22.3.4-.9 1.1-3.1 1.5-5 1.1-5.1 2.2-6 7.5-6 3.9 0 5 .4 6.2 2.2zm-52.5 61c.4.7.8 5.6.8 10.8v9.5l65 .2c76.5.3 68.5-1.3 68.5 14.2-.1 6.5-.5 10.2-1.4 11.4-1.3 1.7-5.1 1.8-66.7 1.8-57.2 0-65.5-.2-66.8-1.6-1.2-1.1-1.5-3.9-1.6-11.3v-9.7l-63.7-.5c-40.5-.3-64-.9-64.7-1.5-.8-.8-1.7-17.3-1.2-22.8.1-1.6 3.9-1.7 65.5-1.7 51.3 0 65.7.3 66.3 1.2zm63.7 79.4c.8.3 1.9 2.2 2.2 4.2.8 4.3 4.5 12.8 14.5 33.8 4.1 8.5 4.2 11.3.5 11.6-6.8.5-10.4-1.5-12.7-6.9-2.1-4.9-4.1-5.4-12-2.9-2.4.8-5.7 1.7-7.3 2.1-2.6.5-2.8.8-2.1 4.1.7 4.2-1.4 7.4-5.2 7.4-2.1 0-2.3.5-2.3 4.4 0 5-1.3 6-6.6 5-2.7-.5-3.4-.3-3.4.9 0 .9-.5 2.8-1.2 4.2-.9 2-1.8 2.5-4.5 2.5-2.9 0-3.6.5-4.4 3-1.2 3.4-3.5 4.4-8.2 3.5-2.4-.5-4.8-.1-8 1.4-5.7 2.6-7.2 2.6-10.4.1-1.4-1.1-3.3-2-4.2-2-.9 0-3.5-1.1-5.8-2.4-2.3-1.3-5.7-2.7-7.5-3.1-4.9-.9-7.8-2.6-7.8-4.6 0-4.1-1-4.9-5.6-4.2-3.9.5-4.7.2-7.9-2.5-2.2-2-4.1-2.9-5.1-2.5-2.3.9-15.2-1.8-16.6-3.4-.9-1.1-.7-2.2.5-4.9 1-1.9 1.7-4.2 1.7-5.1 0-1 2.7-7.2 6.1-14 6.9-14 8.5-15.2 14.9-11.5 9.2 5.3 14.3 3.8 22.5-6.5 2.8-3.5 4-3.7 26.4-4.9 8.6-.5 14.6-.2 19.4.7 6 1.1 8.1 1 16.5-.5 6-1.1 11.8-2.9 15.2-4.7 6-3.1 6.1-3.2 8.4-2.3z"/><path d="M261.5 73c-.4.7-.8 7.6-.7 15.3.1 16.2.5 17.3 6.7 16.1 4.5-.8 8.2-4.4 8.7-8.2.2-1.5.1-6.5-.2-11.1-.4-7.5-.8-8.6-3-10.2-3.3-2.4-10.5-3.6-11.5-1.9zm-80.2.2c-.5.7-.7 7.9-.5 16 .4 13.5.5 14.8 2.3 15.3 3 1 7.2-.3 10.2-3.1 2.6-2.4 2.7-2.9 2.7-12.5 0-5.5-.5-10.9-1.1-12.1-2-3.7-11.6-6.3-13.6-3.6zm-35.8 8c-2.6 7.3-3.4 10.2-2.9 10.9.3.5 2.3.9 4.5.9 4.5 0 4.8-1 2.3-8.3-1.6-4.6-3-5.9-3.9-3.5zm79.9.5c-.3 1-1 2.8-1.5 4.1-.5 1.3-.9 3.4-.9 4.7 0 2.3.4 2.5 4.1 2.5 4.6 0 4.5.3 2.2-8.9-1-3.9-3-5.2-3.9-2.4z"/></svg>