<?xml version="1.0" standalone="no"?>
<!DOCTYPE svg PUBLIC "-//W3C//DTD SVG 1.1//EN" "http://www.w3.org/Graphics/SVG/1.1/DTD/svg11.dtd" >
<svg>
<metadata>
Created by FontForge 20120731 at Wed Jul 15 19:26:58 2020
 By www
(c) 2014, Copyright by Botio Nikoltchev. All rights reserved.
</metadata>
<defs>
<font id="RopaSansSCPro-ExtraLight" horiz-adv-x="560" >
  <font-face 
    font-family="Ropa Sans SC Pro ExtraLight"
    font-weight="300"
    font-stretch="normal"
    units-per-em="1000"
    panose-1="2 11 4 4 2 1 1 1 1 2"
    ascent="800"
    descent="-200"
    x-height="511"
    cap-height="655"
    bbox="-25 -325 1219 840"
    underline-thickness="50"
    underline-position="-100"
    unicode-range="U+000D-FEFF"
  />
<missing-glyph horiz-adv-x="494" 
d="M86 0v655h322v-655h-322zM121 35h252v585h-252v-585z" />
    <glyph glyph-name="f_f" unicode="ff" horiz-adv-x="806" 
d="M351 511v-37h-225v-197h171v-35h-171v-242h-39v511h264zM754 511v-37h-225v-197h171v-35h-171v-242h-39v511h264z" />
    <glyph glyph-name="f_f_i" unicode="ffi" horiz-adv-x="1018" 
d="M351 511v-37h-225v-197h171v-35h-171v-242h-39v511h264zM754 511v-37h-225v-197h171v-35h-171v-242h-39v511h264zM932 511v-511h-39v511h39z" />
    <glyph glyph-name="f_f_j" unicode="ffj" horiz-adv-x="1019" 
d="M351 511v-37h-225v-197h171v-35h-171v-242h-39v511h264zM754 511v-37h-225v-197h171v-35h-171v-242h-39v511h264zM933 511v-419q0 -55 -24 -79.5t-77 -24.5q-35 0 -53 4v35q28 -4 55 -4q60 0 60 67v421h39z" />
    <glyph glyph-name="f_f_l" unicode="ffl" horiz-adv-x="1196" 
d="M351 511v-37h-225v-197h171v-35h-171v-242h-39v511h264zM754 511v-37h-225v-197h171v-35h-171v-242h-39v511h264zM932 511v-474h227v-37h-266v511h39z" />
    <glyph glyph-name="f_i" unicode="fi" horiz-adv-x="615" 
d="M351 511v-37h-225v-197h171v-35h-171v-242h-39v511h264zM529 511v-511h-39v511h39z" />
    <glyph glyph-name="f_j" unicode="fj" horiz-adv-x="616" 
d="M351 511v-37h-225v-197h171v-35h-171v-242h-39v511h264zM530 511v-419q0 -55 -24 -79.5t-77 -24.5q-35 0 -53 4v35q28 -4 55 -4q60 0 60 67v421h39z" />
    <glyph glyph-name="f_l" unicode="fl" horiz-adv-x="793" 
d="M351 511v-37h-225v-197h171v-35h-171v-242h-39v511h264zM529 511v-474h227v-37h-266v511h39z" />
    <glyph glyph-name=".notdef" horiz-adv-x="494" 
d="M86 0v655h322v-655h-322zM121 35h252v585h-252v-585z" />
    <glyph glyph-name=".null" horiz-adv-x="0" 
 />
    <glyph glyph-name=".null" horiz-adv-x="0" 
 />
    <glyph glyph-name="uni000D" unicode="&#xd;" horiz-adv-x="242" 
 />
    <glyph glyph-name="space" unicode=" " horiz-adv-x="242" 
 />
    <glyph glyph-name="exclam" unicode="!" horiz-adv-x="192" 
d="M119 695l-4 -495h-37l-4 495h45zM96 58q32 0 32 -29v-14q0 -27 -32 -27t-32 27v14q0 29 32 29z" />
    <glyph glyph-name="quotedbl" unicode="&#x22;" horiz-adv-x="290" 
d="M98 683v-254h-41v254h41zM234 683v-254h-41v254h41z" />
    <glyph glyph-name="numbersign" unicode="#" horiz-adv-x="532" 
d="M419 613v-125h89v-34h-89v-295h89v-34h-89v-125h-41v125h-225v-125h-41v125h-89v34h89v295h-89v34h89v125h41v-125h225v125h41zM378 454h-225v-295h225v295z" />
    <glyph glyph-name="dollar" unicode="$" horiz-adv-x="445" 
d="M245 695v-81q48 -3 110 -13v-37q-82 14 -120 14q-143 0 -143 -105v-18q0 -45 21.5 -72t80.5 -46l91 -30q63 -20 91 -57.5t28 -102.5v-9q0 -69 -36.5 -105t-122.5 -43v-84h-38v82q-59 0 -132 15l1 39q81 -17 127 -17q86 0 123.5 26t37.5 79v24q0 44 -22 71.5t-74 44.5
l-100 34q-63 20 -89.5 56t-26.5 101v4q0 138 155 147v83h38z" />
    <glyph glyph-name="percent" unicode="%" horiz-adv-x="865" 
d="M205 625q145 0 145 -152v-45q0 -74 -37.5 -113.5t-110.5 -39.5q-145 0 -145 153v45q0 73 37.5 112.5t110.5 39.5zM626 613l-334 -613h-42l333 613h43zM203 588q-107 0 -107 -115v-45q0 -116 107 -116q106 0 106 116v45q0 115 -106 115zM675 338q145 0 145 -152v-45
q0 -74 -37.5 -113.5t-110.5 -39.5q-145 0 -145 153v45q0 73 37.5 112.5t110.5 39.5zM673 301q-107 0 -107 -115v-45q0 -116 107 -116q106 0 106 116v45q0 115 -106 115z" />
    <glyph glyph-name="ampersand" unicode="&#x26;" horiz-adv-x="532" 
d="M238 667q57 0 115 -9l-2 -35q-51 9 -113 9q-68 0 -96.5 -32t-28.5 -99v-22q0 -52 36 -90t99 -38h157v89h37v-89h73v-35h-73v-305q-110 -23 -173 -23q-221 0 -221 174v22q0 55 32 96t94 58q-101 36 -101 148v22q0 75 40.5 117t124.5 42zM405 316h-169q-73 0 -110.5 -38.5
t-37.5 -89.5v-27q0 -137 181 -137q66 0 136 17v275z" />
    <glyph glyph-name="quotesingle" unicode="'" horiz-adv-x="154" 
d="M98 683v-254h-41v254h41z" />
    <glyph glyph-name="parenleft" unicode="(" horiz-adv-x="218" 
d="M244 711v-34q-79 -4 -102.5 -26t-23.5 -97v-453q0 -75 23.5 -97t102.5 -26v-34q-96 0 -131 33.5t-35 132.5v435q0 99 35 132.5t131 33.5z" />
    <glyph glyph-name="parenright" unicode=")" horiz-adv-x="218" 
d="M-25 677v34q96 0 131 -33.5t35 -132.5v-435q0 -99 -35 -132.5t-131 -33.5v34q79 4 102.5 26t23.5 97v453q0 74 -24 96.5t-102 26.5z" />
    <glyph glyph-name="asterisk" unicode="*" horiz-adv-x="421" 
d="M231 695l-7 -129l117 51l14 -38l-122 -39l81 -95l-33 -26l-70 106l-70 -106l-33 26l82 95l-123 39l14 38l117 -52l-7 130h40z" />
    <glyph glyph-name="plus" unicode="+" horiz-adv-x="398" 
d="M217 488v-164h148v-36h-148v-165h-36v165h-149v36h149v164h36z" />
    <glyph glyph-name="comma" unicode="," horiz-adv-x="198" 
d="M100 59q32 0 32 -27v-18q0 -15 -5 -30l-24 -84h-36l21 90q-20 3 -20 25v17q0 27 32 27z" />
    <glyph glyph-name="hyphen" unicode="-" horiz-adv-x="350" 
d="M274 313v-34h-197v34h197z" />
    <glyph glyph-name="period" unicode="." horiz-adv-x="198" 
d="M99 59q33 0 33 -29v-15q0 -27 -33 -27q-32 0 -32 27v15q0 29 32 29z" />
    <glyph glyph-name="slash" unicode="/" horiz-adv-x="255" 
d="M248 683l-205 -683h-38l205 683h38z" />
    <glyph glyph-name="zero" unicode="0" horiz-adv-x="502" 
d="M251 613q175 0 175 -200v-226q0 -100 -46 -149.5t-128 -49.5q-175 0 -175 197v227q0 201 174 201zM251 577q-134 0 -134 -156v-239q0 -158 135 -158q134 0 134 158v239q0 156 -135 156z" />
    <glyph glyph-name="one" unicode="1" horiz-adv-x="276" 
d="M191 601v-601h-40v560h-2l-140 -65l-12 37l157 69h37z" />
    <glyph glyph-name="two" unicode="2" horiz-adv-x="395" 
d="M160 613q89 0 131 -35.5t42 -111.5v-17q0 -41 -19 -83t-72 -107l-180 -222h277v-37h-329v31l217 271q66 83 66 147v15q0 60 -31.5 86.5t-101.5 26.5q-56 0 -130 -19v36q76 19 130 19z" />
    <glyph glyph-name="three" unicode="3" horiz-adv-x="381" 
d="M162 613q75 0 114.5 -39t39.5 -115v-10q0 -102 -76 -137q41 -14 65 -51t24 -88v-10q0 -175 -166 -175q-43 0 -125 13v36q82 -14 125 -14q126 0 126 131v21q0 55 -30.5 86.5t-79.5 31.5h-114v34h114q44 0 70.5 30.5t26.5 87.5v22q0 54 -29.5 82.5t-84.5 28.5
q-42 0 -124 -14v36q82 13 124 13z" />
    <glyph glyph-name="four" unicode="4" horiz-adv-x="405" 
d="M325 601v-436h60v-36h-60v-129h-40v129h-293v30l293 442h40zM285 543l-249 -378h249v378z" />
    <glyph glyph-name="five" unicode="5" horiz-adv-x="441" 
d="M349 604v-37h-244v-266q63 81 161 81q67 0 100 -39.5t33 -130.5v-36q0 -91 -46.5 -139.5t-137.5 -48.5q-75 0 -139 18v36q72 -18 137 -18q73 0 109.5 39t36.5 113v39q0 72 -24.5 101.5t-78.5 29.5q-87 0 -162 -100h-28v358h283z" />
    <glyph glyph-name="six" unicode="6" horiz-adv-x="479" 
d="M367 606v-37q-138 -6 -194.5 -49.5t-56.5 -130.5v-75q35 33 81 54t83 21q67 0 105 -44t38 -133v-39q0 -90 -45 -137.5t-130 -47.5q-172 0 -172 185v212q0 107 68.5 161.5t222.5 59.5zM275 352q-34 0 -79 -21t-80 -53v-106q0 -148 132 -148q135 0 135 144v47
q0 67 -28.5 102t-79.5 35z" />
    <glyph glyph-name="seven" unicode="7" horiz-adv-x="373" 
d="M351 600v-31l-224 -569h-45l226 561v2h-291v37h334z" />
    <glyph glyph-name="eight" unicode="8" horiz-adv-x="460" 
d="M230 613q75 0 116.5 -39t41.5 -113v-9q0 -41 -22.5 -77t-59.5 -52q51 -15 79.5 -56t28.5 -93v-15q0 -83 -46.5 -127t-137.5 -44q-183 0 -183 171v15q0 53 27.5 93t79.5 56q-36 16 -58.5 51.5t-22.5 77.5v9q0 74 41.5 113t115.5 39zM230 579q-118 0 -118 -116v-15
q0 -47 30.5 -79.5t87.5 -32.5q58 0 88.5 32.5t30.5 79.5v15q0 116 -119 116zM230 304q-67 0 -105 -33.5t-38 -94.5v-26q0 -61 37.5 -93.5t105.5 -32.5q69 0 106.5 32.5t37.5 93.5v26q0 60 -38.5 94t-105.5 34z" />
    <glyph glyph-name="nine" unicode="9" horiz-adv-x="475" 
d="M231 612q84 0 128.5 -49t44.5 -141v-214q0 -115 -45 -167.5t-148 -52.5q-52 0 -129 16v36q86 -16 129 -16q81 0 117 42.5t36 134.5v83q-34 -33 -78.5 -53t-82.5 -20q-68 0 -107 45t-39 132v39q0 91 44.5 138t129.5 47zM231 576q-134 0 -134 -144v-47q0 -137 114 -137
q33 0 77.5 23t75.5 51v105q0 149 -133 149z" />
    <glyph glyph-name="colon" unicode=":" horiz-adv-x="198" 
d="M99 59q33 0 33 -29v-15q0 -27 -33 -27q-32 0 -32 27v15q0 29 32 29zM99 453q33 0 33 -29v-15q0 -27 -33 -27q-32 0 -32 27v15q0 29 32 29z" />
    <glyph glyph-name="semicolon" unicode=";" horiz-adv-x="199" 
d="M100 59q32 0 32 -27v-18q0 -15 -5 -30l-24 -84h-36l21 90q-20 3 -20 25v17q0 27 32 27zM99 453q33 0 33 -29v-15q0 -27 -33 -27q-32 0 -32 27v15q0 29 32 29z" />
    <glyph glyph-name="less" unicode="&#x3c;" horiz-adv-x="398" 
d="M369 481v-43l-302 -136l302 -137v-42l-341 159v39z" />
    <glyph glyph-name="equal" unicode="=" horiz-adv-x="404" 
d="M368 412v-35h-332v35h332zM368 227v-35h-332v35h332z" />
    <glyph glyph-name="greater" unicode="&#x3e;" horiz-adv-x="398" 
d="M28 481l341 -160v-39l-341 -159v42l302 137l-302 136v43z" />
    <glyph glyph-name="question" unicode="?" horiz-adv-x="395" 
d="M156 695q92 0 132.5 -34.5t40.5 -104.5v-24q0 -71 -66 -146l-54 -62q-27 -33 -27 -79v-45h-39v32q0 47 8 68.5t35 53.5l58 68q27 33 36 55t9 57v21q0 55 -30.5 80t-107.5 25q-35 0 -114 -18v38q73 15 119 15zM164 58q32 0 32 -29v-14q0 -27 -32 -27t-32 27v14q0 29 32 29
z" />
    <glyph glyph-name="at" unicode="@" horiz-adv-x="953" 
d="M471 695q398 0 398 -377v-50q0 -118 -42 -185.5t-129 -67.5q-45 0 -80.5 27.5t-42.5 74.5q-34 -47 -80.5 -74.5t-93.5 -27.5q-65 0 -94 44t-19 123l18 138q11 81 50 124t105 43q42 0 81.5 -24.5t62.5 -54.5l8 67h35l-42 -326q0 -37 24 -67.5t68 -30.5q67 0 99.5 58
t32.5 159v50q0 340 -359 340q-75 0 -135 -20.5t-99.5 -55t-65.5 -82.5t-37.5 -100.5t-11.5 -111.5v-100q0 -73 17.5 -131t56.5 -105.5t107.5 -73.5t162.5 -26h135v-37h-135q-192 0 -287.5 95.5t-95.5 277.5v100q0 186 99 296.5t289 110.5zM464 450q-100 0 -119 -142
l-15 -115q-18 -141 81 -141q37 0 81 25t75 68l29 231q-21 29 -59.5 51.5t-72.5 22.5z" />
    <glyph glyph-name="A" unicode="A" horiz-adv-x="512" 
d="M279 655l219 -655h-45l-56 171h-285l-53 -171h-44l210 655h54zM251 617l-128 -408h262z" />
    <glyph glyph-name="B" unicode="B" horiz-adv-x="527" 
d="M245 667q209 0 209 -159v-15q0 -118 -104 -157q61 -10 96 -51.5t35 -102.5v-21q0 -173 -223 -173q-74 0 -171 6v667q141 6 158 6zM234 630q-58 0 -107 -3v-278h155q57 0 95 40t38 96v14q0 68 -42.5 99.5t-138.5 31.5zM288 315h-161v-284q65 -6 131 -6q184 0 184 137v22
q0 58 -41 94.5t-113 36.5z" />
    <glyph glyph-name="C" unicode="C" horiz-adv-x="476" 
d="M282 667q46 0 128 -13l-2 -38q-77 14 -127 14q-86 0 -122.5 -36.5t-36.5 -124.5v-284q0 -82 37.5 -120.5t123.5 -38.5q54 0 125 15l2 -39q-77 -14 -129 -14q-107 0 -153 48.5t-46 151.5v278q0 107 45.5 154t154.5 47z" />
    <glyph glyph-name="D" unicode="D" horiz-adv-x="570" 
d="M247 667q247 0 247 -251v-184q0 -118 -61.5 -181t-182.5 -63q-76 0 -163 5v669q107 5 160 5zM243 631q-52 0 -116 -4v-596q64 -6 123 -6q99 0 151.5 52t52.5 151v190q0 108 -52 160.5t-159 52.5z" />
    <glyph glyph-name="E" unicode="E" horiz-adv-x="477" 
d="M401 655v-37h-274v-266h254v-38h-254v-277h274v-37h-314v655h314z" />
    <glyph glyph-name="F" unicode="F" horiz-adv-x="452" 
d="M401 655v-37h-274v-266h208v-38h-208v-314h-40v655h314z" />
    <glyph glyph-name="G" unicode="G" horiz-adv-x="557" 
d="M283 667q66 0 158 -16l-1 -37q-91 16 -157 16q-88 0 -124.5 -34.5t-36.5 -112.5v-308q0 -79 38 -114.5t123 -35.5q61 0 149 22v277h-133v38h173v-341q-113 -33 -189 -33q-108 0 -154.5 47t-46.5 147v291q0 104 46 149t155 45z" />
    <glyph glyph-name="H" unicode="H" horiz-adv-x="579" 
d="M493 655v-655h-40v320h-326v-320h-40v655h40v-298h326v298h40z" />
    <glyph glyph-name="I" unicode="I" horiz-adv-x="213" 
d="M127 655v-655h-40v655h40z" />
    <glyph glyph-name="J" unicode="J" horiz-adv-x="269" 
d="M183 655v-541q0 -66 -28 -96t-90 -30q-36 0 -61 5l-1 37q33 -5 66 -5q74 0 74 88v542h40z" />
    <glyph glyph-name="K" unicode="K" horiz-adv-x="498" 
d="M478 655l-305 -318l329 -337h-55l-320 330v-330h-40v655h40v-316l302 316h49z" />
    <glyph glyph-name="L" unicode="L" horiz-adv-x="440" 
d="M127 655v-618h276v-37h-316v655h40z" />
    <glyph glyph-name="M" unicode="M" horiz-adv-x="698" 
d="M577 0l-5 599l-196 -531h-53l-196 531l-5 -599h-40l5 655h63l200 -547l200 547h62l5 -655h-40z" />
    <glyph glyph-name="N" unicode="N" horiz-adv-x="582" 
d="M438 0l-311 606v-606h-40v655h62l307 -602v602h40v-655h-58z" />
    <glyph glyph-name="O" unicode="O" horiz-adv-x="576" 
d="M288 667q109 0 158 -54.5t49 -161.5v-247q0 -216 -207 -216q-107 0 -156.5 53.5t-49.5 162.5v247q0 107 48.5 161.5t157.5 54.5zM288 631q-166 0 -166 -170v-266q0 -171 166 -171q167 0 167 171v265q0 171 -167 171z" />
    <glyph glyph-name="P" unicode="P" horiz-adv-x="506" 
d="M248 667q220 0 220 -181v-20q0 -97 -53.5 -148t-160.5 -51q-42 0 -127 12v-279h-40v662q95 5 161 5zM246 631q-11 0 -119 -4v-312q71 -11 125 -11q176 0 176 163v16q0 75 -44 111.5t-138 36.5z" />
    <glyph glyph-name="Q" unicode="Q" horiz-adv-x="576" 
d="M288 667q109 0 158 -54.5t49 -161.5v-247q0 -144 -98 -192l127 -42l1 -36h-13l-160 61q-25 -7 -63 -7q-107 0 -157 53.5t-50 162.5v247q0 107 48.5 161.5t157.5 54.5zM288 631q-166 0 -166 -170v-266q0 -171 167 -171q166 0 166 171v265q0 171 -167 171z" />
    <glyph glyph-name="R" unicode="R" horiz-adv-x="538" 
d="M249 667q109 0 163 -46t54 -131v-23q0 -137 -122 -174l168 -293h-45l-162 286q-64 -9 -178 0v-286h-40v663q122 4 162 4zM247 631q-12 0 -120 -4v-305q75 -5 123 -5q91 0 133.5 37.5t42.5 114.5v17q0 145 -179 145z" />
    <glyph glyph-name="S" unicode="S" horiz-adv-x="453" 
d="M238 667q54 0 122 -13v-38q-76 14 -122 14q-77 0 -109 -29.5t-32 -91.5v-27q0 -45 22 -71t82 -46l97 -32q61 -20 87 -56t26 -102v-19q0 -87 -46.5 -127.5t-155.5 -40.5q-54 0 -132 16l2 39q74 -17 129 -17q88 0 125.5 29.5t37.5 92.5v34q0 45 -21.5 72t-70.5 44l-108 36
q-61 21 -87.5 55t-26.5 96v18q0 84 43 124t138 40z" />
    <glyph glyph-name="T" unicode="T" horiz-adv-x="519" 
d="M481 655v-37h-201v-618h-40v618h-202v37h443z" />
    <glyph glyph-name="U" unicode="U" horiz-adv-x="578" 
d="M491 655v-451q0 -106 -51.5 -161t-150.5 -55q-202 0 -202 214v453h41v-461q0 -168 161 -168q162 0 162 168v461h40z" />
    <glyph glyph-name="V" unicode="V" horiz-adv-x="514" 
d="M495 655l-211 -655h-56l-210 655h45l193 -614l195 614h44z" />
    <glyph glyph-name="W" unicode="W" horiz-adv-x="832" 
d="M804 655l-163 -655h-60l-165 609l-164 -609h-59l-164 655h44l151 -611l163 611h59l164 -611l150 611h44z" />
    <glyph glyph-name="X" unicode="X" horiz-adv-x="491" 
d="M462 655l-190 -318l200 -337h-49l-179 302l-177 -302h-49l202 336l-191 319h49l169 -285l168 285h47z" />
    <glyph glyph-name="Y" unicode="Y" horiz-adv-x="463" 
d="M444 655l-193 -430v-225h-40v225l-193 430h47l167 -385l166 385h46z" />
    <glyph glyph-name="Z" unicode="Z" horiz-adv-x="472" 
d="M420 655v-32l-323 -586h323v-37h-372v32l324 586h-318v37h366z" />
    <glyph glyph-name="bracketleft" unicode="[" horiz-adv-x="229" 
d="M252 712v-35h-130v-699h130v-35h-170v769h170z" />
    <glyph glyph-name="backslash" unicode="\" horiz-adv-x="255" 
d="M43 683l205 -683h-38l-205 683h38z" />
    <glyph glyph-name="bracketright" unicode="]" horiz-adv-x="229" 
d="M148 712v-769h-170v35h130v699h-130v35h170z" />
    <glyph glyph-name="asciicircum" unicode="^" horiz-adv-x="471" 
d="M253 683l142 -279h-39l-121 243l-120 -243h-38l140 279h36z" />
    <glyph glyph-name="underscore" unicode="_" horiz-adv-x="610" 
d="M534 -150v-35h-457v35h457z" />
    <glyph glyph-name="grave" unicode="`" horiz-adv-x="171" 
d="M76 679l65 -115h-35l-76 115h46z" />
    <glyph glyph-name="a" unicode="a" horiz-adv-x="431" 
d="M238 511l179 -511h-43l-44 130h-231l-43 -130h-41l173 511h50zM212 474l-103 -310h209z" />
    <glyph glyph-name="b" unicode="b" horiz-adv-x="474" 
d="M222 523q172 0 172 -125v-13q0 -95 -85 -122q108 -22 108 -122v-16q0 -137 -186 -137q-63 0 -144 4v527l54 2q54 2 81 2zM212 488q-7 0 -21 -0.5t-34 -1.5t-31 -1v-209h123q48 0 77.5 29.5t29.5 71.5v14q0 50 -34 73.5t-110 23.5zM246 242h-120v-215q57 -4 106 -4
q146 0 146 103v17q0 46 -33.5 72.5t-98.5 26.5z" />
    <glyph glyph-name="c" unicode="c" horiz-adv-x="424" 
d="M248 523q49 0 109 -13l-1 -35q-61 13 -108 13q-69 0 -98 -27.5t-29 -93.5v-224q0 -62 30 -90t99 -28q45 0 106 13l1 -37q-69 -13 -108 -13q-89 0 -128 38.5t-39 119.5v219q0 83 38 120.5t128 37.5z" />
    <glyph glyph-name="d" unicode="d" horiz-adv-x="504" 
d="M223 523q204 0 204 -198v-145q0 -93 -50.5 -142.5t-152.5 -49.5q-78 0 -137 4v527q72 4 136 4zM219 488q-15 0 -93 -3v-458q56 -4 98 -4q79 0 121.5 39.5t42.5 113.5v150q0 162 -169 162z" />
    <glyph glyph-name="e" unicode="e" horiz-adv-x="428" 
d="M351 511v-37h-225v-197h209v-35h-209v-205h225v-37h-264v511h264z" />
    <glyph glyph-name="f" unicode="f" horiz-adv-x="403" 
d="M351 511v-37h-225v-197h171v-35h-171v-242h-39v511h264z" />
    <glyph glyph-name="g" unicode="g" horiz-adv-x="494" 
d="M250 523q48 0 133 -13v-35q-88 13 -133 13q-70 0 -99.5 -25.5t-29.5 -84.5v-243q0 -59 30.5 -85.5t98.5 -26.5q49 0 119 16v210h-107v36h147v-271q-100 -26 -159 -26q-90 0 -129 36.5t-39 115.5v230q0 81 38.5 117t129.5 36z" />
    <glyph glyph-name="h" unicode="h" horiz-adv-x="514" 
d="M427 511v-511h-39v246h-262v-246h-39v511h39v-229h262v229h39z" />
    <glyph glyph-name="i" unicode="i" horiz-adv-x="212" 
d="M126 511v-511h-39v511h39z" />
    <glyph glyph-name="j" unicode="j" horiz-adv-x="243" 
d="M157 511v-419q0 -55 -24 -79.5t-77 -24.5q-35 0 -53 4v35q28 -4 55 -4q60 0 60 67v421h39z" />
    <glyph glyph-name="k" unicode="k" horiz-adv-x="429" 
d="M414 511l-248 -247l268 -264h-54l-254 253v-253h-39v511h39v-241l240 241h48z" />
    <glyph glyph-name="l" unicode="l" horiz-adv-x="390" 
d="M126 511v-474h227v-37h-266v511h39z" />
    <glyph glyph-name="m" unicode="m" horiz-adv-x="611" 
d="M524 511l6 -511h-39l-4 457l-158 -404h-46l-159 404l-4 -457h-38l5 511h56l163 -420l161 420h57z" />
    <glyph glyph-name="n" unicode="n" horiz-adv-x="515" 
d="M429 511v-511h-52l-252 463v-463h-38v511h56l248 -459v459h38z" />
    <glyph glyph-name="o" unicode="o" horiz-adv-x="508" 
d="M255 523q172 0 172 -173v-189q0 -173 -172 -173q-173 0 -173 173v189q0 85 41.5 129t131.5 44zM255 488q-134 0 -134 -130v-203q0 -132 134 -132q133 0 133 131v202q0 132 -133 132z" />
    <glyph glyph-name="p" unicode="p" horiz-adv-x="441" 
d="M221 523q183 0 183 -143v-24q0 -154 -177 -154q-39 0 -101 7v-209h-39v519q58 4 134 4zM219 488q-47 0 -93 -2v-242q43 -7 99 -7q74 0 107 31t33 93v14q0 58 -34.5 85.5t-111.5 27.5z" />
    <glyph glyph-name="q" unicode="q" horiz-adv-x="508" 
d="M255 523q172 0 172 -173v-188q0 -112 -79 -151l101 -34l2 -34h-13l-129 51q-23 -6 -54 -6q-173 0 -173 173v189q0 85 41.5 129t131.5 44zM255 488q-134 0 -134 -130v-203q0 -132 134 -132q133 0 133 131v202q0 132 -133 132z" />
    <glyph glyph-name="r" unicode="r" horiz-adv-x="468" 
d="M222 523q181 0 181 -141v-18q0 -52 -26 -88t-74 -51l138 -225h-45l-131 217q-56 -5 -139 0v-217h-39v520q16 0 42.5 1t49 1.5t43.5 0.5zM220 488q-28 0 -94 -3v-233q70 -4 96 -4q75 0 108.5 29t33.5 89v12q0 55 -34.5 82.5t-109.5 27.5z" />
    <glyph glyph-name="s" unicode="s" horiz-adv-x="389" 
d="M201 523q48 0 103 -11v-35q-70 11 -103 11q-113 0 -113 -90v-23q0 -33 17.5 -52.5t65.5 -34.5l80 -25q51 -16 73 -44.5t22 -80.5v-18q0 -68 -39 -100t-130 -32q-42 0 -111 13l1 37q71 -13 108 -13q72 0 102 21t30 68v30q0 63 -73 85l-90 28q-52 16 -73.5 44.5t-21.5 78.5
v12q0 66 36.5 98.5t115.5 32.5z" />
    <glyph glyph-name="t" unicode="t" horiz-adv-x="446" 
d="M409 511v-37h-166v-474h-39v474h-166v37h371z" />
    <glyph glyph-name="u" unicode="u" horiz-adv-x="512" 
d="M426 511v-355q0 -82 -43.5 -125t-126.5 -43q-169 0 -169 168v355h39v-361q0 -126 130 -126q131 0 131 126v361h39z" />
    <glyph glyph-name="v" unicode="v" horiz-adv-x="436" 
d="M417 511l-173 -511h-53l-173 511h43l156 -473l157 473h43z" />
    <glyph glyph-name="w" unicode="w" horiz-adv-x="703" 
d="M674 511l-132 -511h-56l-134 473l-133 -473h-56l-134 511h43l120 -469l133 469h54l132 -469l121 469h42z" />
    <glyph glyph-name="x" unicode="x" horiz-adv-x="414" 
d="M386 511l-156 -248l165 -263h-46l-143 231l-143 -231h-45l166 261l-157 250h45l135 -218l136 218h43z" />
    <glyph glyph-name="y" unicode="y" horiz-adv-x="397" 
d="M378 511l-160 -335v-176h-39v176l-161 335h45l136 -295l134 295h45z" />
    <glyph glyph-name="z" unicode="z" horiz-adv-x="412" 
d="M359 511v-31l-263 -443h263v-37h-311v30l264 444h-259v37h306z" />
    <glyph glyph-name="braceleft" unicode="{" horiz-adv-x="239" 
d="M265 711v-34q-80 -2 -103 -24t-23 -97v-113q0 -96 -58 -115q31 -11 44.5 -37.5t13.5 -77.5v-114q0 -75 23.5 -97t102.5 -24v-34q-99 0 -132.5 32.5t-33.5 133.5v103q0 97 -65 97h-25v36h25q65 0 65 97v102q0 101 34 133.5t132 32.5z" />
    <glyph glyph-name="bar" unicode="|" horiz-adv-x="204" 
d="M123 722v-789h-41v789h41z" />
    <glyph glyph-name="braceright" unicode="}" horiz-adv-x="239" 
d="M-25 677v34q98 0 132 -32.5t34 -133.5v-102q0 -97 65 -97h25v-36h-25q-65 0 -65 -97v-103q0 -101 -34 -133.5t-132 -32.5v34q79 2 102.5 24t23.5 97v114q0 51 13.5 77.5t44.5 37.5q-58 18 -58 115v113q0 75 -23 97t-103 24z" />
    <glyph glyph-name="asciitilde" unicode="~" horiz-adv-x="398" 
d="M130 338q34 0 72 -16.5t69 -16.5q16 0 39.5 6t39.5 12l15 6v-38q-44 -25 -96 -25q-35 0 -72 16t-69 16q-16 0 -39.5 -6t-38.5 -12l-16 -5v38q44 25 96 25z" />
    <glyph glyph-name="uni00A0" unicode="&#xa0;" horiz-adv-x="242" 
 />
    <glyph glyph-name="exclamdown" unicode="&#xa1;" horiz-adv-x="192" 
d="M96 452q-32 0 -32 29v14q0 27 32 27t32 -27v-14q0 -29 -32 -29zM119 -185h-45l4 495h37z" />
    <glyph glyph-name="cent" unicode="&#xa2;" horiz-adv-x="385" 
d="M242 576v-76q35 -1 82 -9l-2 -37q-46 9 -94 9q-121 0 -121 -136v-163q0 -72 31.5 -105.5t95.5 -33.5q43 0 88 9l2 -37q-52 -9 -82 -9v-76h-37v78q-138 13 -138 175v158q0 163 138 175v78h37z" />
    <glyph glyph-name="sterling" unicode="&#xa3;" horiz-adv-x="381" 
d="M237 613q40 0 85 -10v-36q-38 10 -76 10q-63 0 -89.5 -26.5t-26.5 -90.5v-102h118v-36h-118v-161q0 -81 -39 -124h282v-37h-324v31q40 48 40 119v172h-70v36h70v100q0 80 36.5 117.5t111.5 37.5z" />
    <glyph glyph-name="currency" unicode="&#xa4;" horiz-adv-x="478" 
d="M414 506l26 -27l-65 -63q17 -39 17 -88v-30q0 -60 -23 -101l67 -64l-26 -26l-64 64q-38 -40 -111 -40q-71 0 -109 39l-63 -62l-26 26l66 64q-23 41 -23 100v30q0 52 18 90l-62 63l26 26l58 -60q38 47 118 47q77 0 115 -47zM237 458q-118 0 -118 -130v-30q0 -131 117 -131
t117 131v30q0 130 -116 130z" />
    <glyph glyph-name="yen" unicode="&#xa5;" horiz-adv-x="396" 
d="M394 601l-164 -353h94v-34h-106v-66h106v-35h-106v-113h-40v113h-105v35h105v66h-105v34h93l-163 353h47l149 -340l148 340h47z" />
    <glyph glyph-name="brokenbar" unicode="&#xa6;" horiz-adv-x="204" 
d="M123 722v-331h-41v331h41zM123 264v-331h-41v331h41z" />
    <glyph glyph-name="section" unicode="&#xa7;" horiz-adv-x="466" 
d="M246 695q38 0 93 -10l-2 -37q-48 11 -87 11q-65 0 -92 -23t-27 -72v-31q0 -25 14.5 -40t61.5 -34l107 -43q97 -38 97 -111v-34q0 -41 -32 -73t-92 -42q52 -17 73 -41.5t21 -60.5v-41q0 -68 -36 -100t-128 -32q-47 0 -111 13l2 40q57 -13 109 -13q68 0 95.5 21.5
t27.5 70.5v31q0 34 -17.5 52.5t-58.5 32.5l-107 37q-53 19 -74.5 43.5t-21.5 64.5v41q0 50 33 79.5t97 33.5q-57 18 -78.5 42.5t-21.5 59.5v34q0 66 36 98.5t119 32.5zM275 392l-31 11q-79 -1 -110.5 -22.5t-31.5 -67.5v-41q0 -27 24 -45t72 -35l41 -14q60 4 96 30.5
t36 61.5v26q0 34 -21.5 55t-74.5 41z" />
    <glyph glyph-name="dieresis" unicode="&#xa8;" horiz-adv-x="241" 
d="M57 663q29 0 29 -23v-17q0 -23 -29 -23q-27 0 -27 23v17q0 23 27 23zM182 663q29 0 29 -23v-17q0 -23 -29 -23q-27 0 -27 23v17q0 23 27 23z" />
    <glyph glyph-name="copyright" unicode="&#xa9;" horiz-adv-x="646" 
d="M323 616q242 0 242 -212v-207q0 -212 -242 -212q-241 0 -241 212v207q0 212 241 212zM323 581q-103 0 -154 -43.5t-51 -122.5v-229q0 -79 51 -122.5t154 -43.5t153.5 43.5t50.5 122.5v230q0 79 -50.5 122t-153.5 43zM334 481q29 0 74 -9l-2 -33q-38 6 -72 6
q-87 0 -87 -118v-52q0 -60 21.5 -85.5t65.5 -25.5q29 0 72 8l2 -35q-40 -9 -74 -9q-127 0 -127 151v42q0 160 127 160z" />
    <glyph glyph-name="ordfeminine" unicode="&#xaa;" horiz-adv-x="461" 
d="M230 667q83 0 118.5 -34t35.5 -115v-292h-37v101q-70 -113 -155 -113q-59 0 -91.5 35t-32.5 101v21q0 58 40 95t108 37q54 0 128 -14v32q0 60 -25.5 84.5t-88.5 24.5q-54 0 -124 -12v36q82 13 124 13zM224 468q-56 0 -85 -27t-29 -77v-11q0 -101 91 -101q36 0 76.5 32
t66.5 81v91q-74 12 -120 12zM384 35v-35h-316v35h316z" />
    <glyph glyph-name="guillemotleft" unicode="&#xab;" horiz-adv-x="414" 
d="M216 438l-93 -170l92 -170h-40l-98 170l99 170h40zM337 438l-93 -170l92 -170h-40l-98 170l99 170h40z" />
    <glyph glyph-name="logicalnot" unicode="&#xac;" horiz-adv-x="398" 
d="M369 323v-200h-36v165h-304v35h340z" />
    <glyph glyph-name="uni00AD" unicode="&#xad;" horiz-adv-x="350" 
d="M274 313v-34h-197v34h197z" />
    <glyph glyph-name="registered" unicode="&#xae;" horiz-adv-x="534" 
d="M267 695q96 0 139.5 -45.5t43.5 -134.5v-34q0 -89 -43.5 -134.5t-139.5 -45.5q-183 0 -183 180v34q0 180 183 180zM268 665q-152 0 -152 -142v-51q0 -72 37.5 -106.5t114.5 -34.5q151 0 151 141v52q0 73 -37 107t-114 34zM264 611q85 0 85 -65v-11q0 -17 -11 -33t-31 -24
l50 -92h-34l-46 85q-33 0 -47 1v-86h-31v223q54 2 65 2zM267 583q-21 0 -37 -2v-82q14 -1 38 -1q50 0 50 38v9q0 38 -51 38z" />
    <glyph glyph-name="macron" unicode="&#xaf;" horiz-adv-x="261" 
d="M231 619v-37h-201v37h201z" />
    <glyph glyph-name="degree" unicode="&#xb0;" horiz-adv-x="399" 
d="M200 695q75 0 113.5 -42.5t38.5 -122.5v-35q0 -80 -38.5 -122.5t-113.5 -42.5t-114 42.5t-39 122.5v35q0 80 39 122.5t114 42.5zM200 660q-115 0 -115 -130v-35q0 -130 115 -130q114 0 114 130v35q0 130 -114 130z" />
    <glyph glyph-name="plusminus" unicode="&#xb1;" horiz-adv-x="398" 
d="M217 488v-164h148v-36h-148v-165h-36v165h-149v36h149v164h36zM366 36v-36h-334v36h334z" />
    <glyph glyph-name="twosuperior" unicode="&#xb2;" horiz-adv-x="400" 
d="M189 760q125 0 125 -104v-14q0 -34 -12.5 -63t-47.5 -69l-122 -146h181v-33h-229v30l153 185q39 48 39 96v11q0 38 -21 56t-66 18t-91 -12v34q52 11 91 11z" />
    <glyph glyph-name="threesuperior" unicode="&#xb3;" horiz-adv-x="400" 
d="M182 760q120 0 120 -107v-7q0 -70 -58 -96q67 -24 67 -98v-7q0 -122 -127 -122q-36 0 -95 9v32q59 -9 95 -9q88 0 88 84v15q0 37 -22 58t-58 21h-81v30h81q34 0 52.5 20.5t18.5 57.5v16q0 71 -81 71q-41 0 -93 -10v33q59 9 93 9z" />
    <glyph glyph-name="acute" unicode="&#xb4;" horiz-adv-x="171" 
d="M141 679l-76 -115h-35l66 115h45z" />
    <glyph glyph-name="mu" unicode="&#xb5;" horiz-adv-x="611" 
d="M524 511l6 -511h-39l-4 457l-158 -404h-46l-159 404l-4 -457h-38l5 511h56l163 -420l161 420h57z" />
    <glyph glyph-name="paragraph" unicode="&#xb6;" horiz-adv-x="546" 
d="M249 683v-868h-41v494h-61q-115 0 -115 122v129q0 123 116 123h101zM459 683v-868h-40v868h40zM208 646h-56q-46 0 -63.5 -20.5t-17.5 -76.5v-100q0 -57 17 -80t64 -23h56v300z" />
    <glyph glyph-name="periodcentered" unicode="&#xb7;" horiz-adv-x="198" 
d="M99 260q33 0 33 -29v-15q0 -27 -33 -27q-32 0 -32 27v15q0 29 32 29z" />
    <glyph glyph-name="cedilla" unicode="&#xb8;" horiz-adv-x="194" 
d="M97 9l-16 -52h14q29 0 49 -19t20 -48v-12q0 -75 -86 -75q-18 0 -48 5v30q23 -5 41 -5q32 0 45 11t13 35v10q-1 43 -51 43h-33v14l19 63h33z" />
    <glyph glyph-name="onesuperior" unicode="&#xb9;" horiz-adv-x="400" 
d="M231 752v-388h91v-33h-231v33h102v349h-1l-104 -44l-10 34l120 49h33z" />
    <glyph glyph-name="ordmasculine" unicode="&#xba;" horiz-adv-x="485" 
d="M242 667q166 0 166 -183v-86q0 -183 -166 -183q-83 0 -123.5 45t-40.5 138v86q0 183 164 183zM242 631q-124 0 -124 -140v-100q0 -140 124 -140q125 0 125 140v101q0 139 -125 139zM406 35v-35h-327v35h327z" />
    <glyph glyph-name="guillemotright" unicode="&#xbb;" horiz-adv-x="414" 
d="M117 438l99 -170l-98 -170h-40l92 170l-93 170h40zM238 438l99 -170l-98 -170h-40l92 170l-93 170h40z" />
    <glyph glyph-name="onequarter" unicode="&#xbc;" horiz-adv-x="1000" 
d="M237 602v-388h91v-33h-231v33h102v349h-1l-104 -44l-10 34l120 49h33zM644 601l-305 -601h-37l305 601h37zM756 421l-95 -298h165v163h37v-163h56v-33h-56v-90h-38v90h-193l-11 22l100 309h35z" />
    <glyph glyph-name="onehalf" unicode="&#xbd;" horiz-adv-x="1000" 
d="M271 602v-388h91v-33h-231v33h102v349h-1l-104 -44l-10 34l120 49h33zM679 601l-305 -601h-37l305 601h37zM757 429q125 0 125 -104v-14q0 -34 -12.5 -63t-47.5 -69l-122 -146h181v-33h-229v30l153 185q39 48 39 96v11q0 38 -21 56t-66 18t-91 -12v34q52 11 91 11z" />
    <glyph glyph-name="threequarters" unicode="&#xbe;" horiz-adv-x="1000" 
d="M175 610q120 0 120 -107v-7q0 -70 -58 -96q67 -24 67 -98v-7q0 -122 -127 -122q-36 0 -95 9v32q58 -9 95 -9q88 0 88 84v15q0 37 -22 58t-58 21h-81v30h81q34 0 52.5 20.5t18.5 57.5v16q0 71 -81 71q-41 0 -93 -10v33q59 9 93 9zM638 601l-305 -601h-37l305 601h37z
M753 421l-95 -298h165v163h37v-163h56v-33h-56v-90h-38v90h-193l-11 22l100 309h35z" />
    <glyph glyph-name="questiondown" unicode="&#xbf;" horiz-adv-x="395" 
d="M231 440q-32 0 -32 29v14q0 27 32 27t32 -27v-14q0 -29 -32 -29zM239 -197q-92 0 -132.5 34.5t-40.5 104.5v24q0 71 66 146l54 62q27 33 27 79v45h39v-32q0 -47 -8 -68.5t-35 -53.5l-58 -68q-27 -33 -36 -55t-9 -57v-21q0 -55 30.5 -80t107.5 -25q35 0 114 18v-38
q-73 -15 -119 -15z" />
    <glyph glyph-name="Agrave" unicode="&#xc0;" horiz-adv-x="512" 
d="M279 655l219 -655h-45l-56 171h-285l-53 -171h-44l210 655h54zM251 617l-128 -408h262zM209 825l66 -119h-35l-77 119h46z" />
    <glyph glyph-name="Aacute" unicode="&#xc1;" horiz-adv-x="512" 
d="M279 655l219 -655h-45l-56 171h-285l-53 -171h-44l210 655h54zM251 617l-128 -408h262zM338 825l-77 -119h-35l66 119h46z" />
    <glyph glyph-name="Acircumflex" unicode="&#xc2;" horiz-adv-x="512" 
d="M279 655l219 -655h-45l-56 171h-285l-53 -171h-44l210 655h54zM251 617l-128 -408h262zM251 814l120 -58v-36l-120 52l-120 -52v36z" />
    <glyph glyph-name="Atilde" unicode="&#xc3;" horiz-adv-x="512" 
d="M279 655l219 -655h-45l-56 171h-285l-53 -171h-44l210 655h54zM251 617l-128 -408h262zM381 784v-35q-37 -25 -78 -25q-17 0 -53 12.5t-51 12.5t-33.5 -5.5t-29.5 -10.5l-12 -5v36q35 24 77 24q23 0 58 -12.5t46 -12.5q15 0 34 5.5t31 10.5z" />
    <glyph glyph-name="Adieresis" unicode="&#xc4;" horiz-adv-x="512" 
d="M279 655l219 -655h-45l-56 171h-285l-53 -171h-44l210 655h54zM251 617l-128 -408h262zM188 795q29 0 29 -24v-17q0 -24 -29 -24q-27 0 -27 24v17q0 11 7.5 17.5t19.5 6.5zM313 795q29 0 29 -24v-17q0 -24 -29 -24q-27 0 -27 24v17q0 11 7.5 17.5t19.5 6.5z" />
    <glyph glyph-name="Aring" unicode="&#xc5;" horiz-adv-x="512" 
d="M250 798q44 0 69 -22t25 -64q0 -64 -58 -80l212 -632h-45l-56 171h-285l-53 -171h-44l203 632q-62 12 -62 80q0 42 25 64t69 22zM250 770q-61 0 -61 -58q0 -57 61 -57t61 57q0 58 -61 58zM251 618l-128 -409h262z" />
    <glyph glyph-name="AE" unicode="&#xc6;" horiz-adv-x="788" 
d="M711 655v-37h-274v-266h254v-38h-254v-277h274v-37h-314v172h-245l-93 -172h-44l357 655h339zM397 626l-226 -417h226v417z" />
    <glyph glyph-name="Ccedilla" unicode="&#xc7;" horiz-adv-x="476" 
d="M282 667q46 0 128 -13l-2 -38q-77 14 -127 14q-86 0 -122.5 -36.5t-36.5 -124.5v-284q0 -82 37.5 -120.5t123.5 -38.5q54 0 125 15l2 -39q-77 -14 -133 -14l-9 -31h14q29 0 49 -19t20 -48v-12q0 -75 -86 -75q-18 0 -48 5v30q23 -5 41 -5q32 0 45 11t13 35v10
q-1 43 -51 43h-34v14l13 43q-87 8 -124.5 56.5t-37.5 142.5v278q0 107 45.5 154t154.5 47z" />
    <glyph glyph-name="Egrave" unicode="&#xc8;" horiz-adv-x="477" 
d="M401 655v-37h-274v-266h254v-38h-254v-277h274v-37h-314v655h314zM208 825l66 -119h-35l-77 119h46z" />
    <glyph glyph-name="Eacute" unicode="&#xc9;" horiz-adv-x="477" 
d="M401 655v-37h-274v-266h254v-38h-254v-277h274v-37h-314v655h314zM337 825l-77 -119h-35l66 119h46z" />
    <glyph glyph-name="Ecircumflex" unicode="&#xca;" horiz-adv-x="477" 
d="M401 655v-37h-274v-266h254v-38h-254v-277h274v-37h-314v655h314zM250 814l120 -58v-36l-120 52l-120 -52v36z" />
    <glyph glyph-name="Edieresis" unicode="&#xcb;" horiz-adv-x="477" 
d="M401 655v-37h-274v-266h254v-38h-254v-277h274v-37h-314v655h314zM187 795q29 0 29 -24v-17q0 -24 -29 -24q-27 0 -27 24v17q0 11 7.5 17.5t19.5 6.5zM312 795q29 0 29 -24v-17q0 -24 -29 -24q-27 0 -27 24v17q0 11 7.5 17.5t19.5 6.5z" />
    <glyph glyph-name="Igrave" unicode="&#xcc;" horiz-adv-x="213" 
d="M127 655v-655h-40v655h40zM64 825l66 -119h-35l-77 119h46z" />
    <glyph glyph-name="Iacute" unicode="&#xcd;" horiz-adv-x="213" 
d="M127 655v-655h-40v655h40zM193 825l-77 -119h-35l66 119h46z" />
    <glyph glyph-name="Icircumflex" unicode="&#xce;" horiz-adv-x="213" 
d="M127 655v-655h-40v655h40zM106 814l120 -58v-36l-120 52l-120 -52v36z" />
    <glyph glyph-name="Idieresis" unicode="&#xcf;" horiz-adv-x="213" 
d="M127 655v-655h-40v655h40zM43 795q29 0 29 -24v-17q0 -24 -29 -24q-27 0 -27 24v17q0 11 7.5 17.5t19.5 6.5zM168 795q29 0 29 -24v-17q0 -24 -29 -24q-27 0 -27 24v17q0 11 7.5 17.5t19.5 6.5z" />
    <glyph glyph-name="Eth" unicode="&#xd0;" horiz-adv-x="571" 
d="M247 658q247 0 247 -251v-184q0 -118 -61 -181t-182 -63q-77 0 -164 5v337h-79v36h79v297q86 4 160 4zM244 621q-50 0 -116 -2v-262h147v-36h-147v-300q64 -6 123 -6q98 0 151 52.5t53 150.5v191q0 108 -52 160t-159 52z" />
    <glyph glyph-name="Ntilde" unicode="&#xd1;" horiz-adv-x="582" 
d="M438 0l-311 606v-606h-40v655h62l307 -602v602h40v-655h-58zM427 784v-35q-37 -25 -78 -25q-17 0 -53 12.5t-51 12.5t-33.5 -5.5t-29.5 -10.5l-12 -5v36q35 24 77 24q23 0 58 -12.5t46 -12.5q15 0 34 5.5t31 10.5z" />
    <glyph glyph-name="Ograve" unicode="&#xd2;" horiz-adv-x="576" 
d="M288 667q109 0 158 -54.5t49 -161.5v-247q0 -216 -207 -216q-107 0 -156.5 53.5t-49.5 162.5v247q0 107 48.5 161.5t157.5 54.5zM288 631q-166 0 -166 -170v-266q0 -171 166 -171q167 0 167 171v265q0 171 -167 171zM245 825l66 -119h-35l-77 119h46z" />
    <glyph glyph-name="Oacute" unicode="&#xd3;" horiz-adv-x="576" 
d="M288 667q109 0 158 -54.5t49 -161.5v-247q0 -216 -207 -216q-107 0 -156.5 53.5t-49.5 162.5v247q0 107 48.5 161.5t157.5 54.5zM288 631q-166 0 -166 -170v-266q0 -171 166 -171q167 0 167 171v265q0 171 -167 171zM374 825l-77 -119h-35l66 119h46z" />
    <glyph glyph-name="Ocircumflex" unicode="&#xd4;" horiz-adv-x="576" 
d="M288 667q109 0 158 -54.5t49 -161.5v-247q0 -216 -207 -216q-107 0 -156.5 53.5t-49.5 162.5v247q0 107 48.5 161.5t157.5 54.5zM288 631q-166 0 -166 -170v-266q0 -171 166 -171q167 0 167 171v265q0 171 -167 171zM287 814l120 -58v-36l-120 52l-120 -52v36z" />
    <glyph glyph-name="Otilde" unicode="&#xd5;" horiz-adv-x="576" 
d="M288 667q109 0 158 -54.5t49 -161.5v-247q0 -216 -207 -216q-107 0 -156.5 53.5t-49.5 162.5v247q0 107 48.5 161.5t157.5 54.5zM288 631q-166 0 -166 -170v-266q0 -171 166 -171q167 0 167 171v265q0 171 -167 171zM417 784v-35q-37 -25 -78 -25q-17 0 -53 12.5
t-51 12.5t-33.5 -5.5t-29.5 -10.5l-12 -5v36q35 24 77 24q23 0 58 -12.5t46 -12.5q15 0 34 5.5t31 10.5z" />
    <glyph glyph-name="Odieresis" unicode="&#xd6;" horiz-adv-x="576" 
d="M288 667q109 0 158 -54.5t49 -161.5v-247q0 -216 -207 -216q-107 0 -156.5 53.5t-49.5 162.5v247q0 107 48.5 161.5t157.5 54.5zM288 631q-166 0 -166 -170v-266q0 -171 166 -171q167 0 167 171v265q0 171 -167 171zM224 795q29 0 29 -24v-17q0 -24 -29 -24q-27 0 -27 24
v17q0 11 7.5 17.5t19.5 6.5zM349 795q29 0 29 -24v-17q0 -24 -29 -24q-27 0 -27 24v17q0 11 7.5 17.5t19.5 6.5z" />
    <glyph glyph-name="multiply" unicode="&#xd7;" horiz-adv-x="398" 
d="M315 448l25 -25l-116 -118l115 -116l-25 -25l-117 116l-115 -116l-26 25l116 116l-116 117l25 25l117 -116z" />
    <glyph glyph-name="Oslash" unicode="&#xd8;" horiz-adv-x="576" 
d="M520 705l-61 -109q36 -54 36 -145v-247q0 -216 -207 -216q-94 0 -143 42l-47 -80h-41l62 106q-37 51 -37 148v247q0 107 48.5 161.5t157.5 54.5q94 0 144 -44l47 82h41zM288 631q-166 0 -166 -170v-266q0 -65 21 -100l272 493q-40 43 -127 43zM434 558l-272 -493
q40 -41 126 -41q166 0 166 171v265q0 64 -20 98z" />
    <glyph glyph-name="Ugrave" unicode="&#xd9;" horiz-adv-x="578" 
d="M491 655v-451q0 -106 -51.5 -161t-150.5 -55q-202 0 -202 214v453h41v-461q0 -168 161 -168q162 0 162 168v461h40zM246 825l66 -119h-35l-77 119h46z" />
    <glyph glyph-name="Uacute" unicode="&#xda;" horiz-adv-x="578" 
d="M491 655v-451q0 -106 -51.5 -161t-150.5 -55q-202 0 -202 214v453h41v-461q0 -168 161 -168q162 0 162 168v461h40zM375 825l-77 -119h-35l66 119h46z" />
    <glyph glyph-name="Ucircumflex" unicode="&#xdb;" horiz-adv-x="578" 
d="M491 655v-451q0 -106 -51.5 -161t-150.5 -55q-202 0 -202 214v453h41v-461q0 -168 161 -168q162 0 162 168v461h40zM288 814l120 -58v-36l-120 52l-120 -52v36z" />
    <glyph glyph-name="Udieresis" unicode="&#xdc;" horiz-adv-x="578" 
d="M491 655v-451q0 -106 -51.5 -161t-150.5 -55q-202 0 -202 214v453h41v-461q0 -168 161 -168q162 0 162 168v461h40zM225 795q29 0 29 -24v-17q0 -24 -29 -24q-27 0 -27 24v17q0 11 7.5 17.5t19.5 6.5zM350 795q29 0 29 -24v-17q0 -24 -29 -24q-27 0 -27 24v17
q0 11 7.5 17.5t19.5 6.5z" />
    <glyph glyph-name="Yacute" unicode="&#xdd;" horiz-adv-x="463" 
d="M444 655l-193 -430v-225h-40v225l-193 430h47l167 -385l166 385h46zM318 825l-77 -119h-35l66 119h46z" />
    <glyph glyph-name="Thorn" unicode="&#xde;" horiz-adv-x="495" 
d="M127 655v-120q68 4 121 4q220 0 220 -181v-20q0 -96 -53.5 -147t-160.5 -51q-49 0 -127 11v-151h-40v655h40zM246 503q-67 0 -119 -4v-312q71 -11 125 -11q176 0 176 163v16q0 75 -43.5 111.5t-138.5 36.5z" />
    <glyph glyph-name="germandbls" unicode="&#xdf;" horiz-adv-x="764" 
d="M201 523q48 0 103 -11v-35q-70 11 -103 11q-113 0 -113 -90v-23q0 -33 17.5 -52.5t65.5 -34.5l80 -25q51 -16 73 -44.5t22 -80.5v-18q0 -68 -39 -100t-130 -32q-42 0 -111 13l1 37q71 -13 108 -13q72 0 102 21t30 68v30q0 63 -73 85l-90 28q-52 16 -73.5 44.5t-21.5 78.5
v12q0 66 36.5 98.5t115.5 32.5zM576 523q48 0 103 -11v-35q-70 11 -103 11q-113 0 -113 -90v-23q0 -33 17.5 -52.5t65.5 -34.5l80 -25q51 -16 73 -44.5t22 -80.5v-18q0 -68 -39 -100t-130 -32q-42 0 -111 13l1 37q72 -13 108 -13q72 0 102 21t30 68v30q0 63 -73 85l-90 28
q-52 16 -73.5 44.5t-21.5 78.5v12q0 66 36.5 98.5t115.5 32.5z" />
    <glyph glyph-name="agrave" unicode="&#xe0;" horiz-adv-x="431" 
d="M238 511l179 -511h-43l-44 130h-231l-43 -130h-41l173 511h50zM212 474l-103 -310h209zM171 679l65 -115h-35l-76 115h46z" />
    <glyph glyph-name="aacute" unicode="&#xe1;" horiz-adv-x="431" 
d="M238 511l179 -511h-43l-44 130h-231l-43 -130h-41l173 511h50zM212 474l-103 -310h209zM300 679l-76 -115h-35l66 115h45z" />
    <glyph glyph-name="acircumflex" unicode="&#xe2;" horiz-adv-x="431" 
d="M238 511l179 -511h-43l-44 130h-231l-43 -130h-41l173 511h50zM212 474l-103 -310h209zM213 662l117 -55v-33l-117 49l-116 -49v33z" />
    <glyph glyph-name="atilde" unicode="&#xe3;" horiz-adv-x="431" 
d="M238 511l179 -511h-43l-44 130h-231l-43 -130h-41l173 511h50zM212 474l-103 -310h209zM325 639v-35q-34 -18 -68 -18q-15 0 -45 10.5t-44 10.5q-11 0 -27.5 -4t-26.5 -8l-11 -4v35q33 18 67 18q21 0 49 -10.5t39 -10.5q12 0 28.5 4t27.5 8z" />
    <glyph glyph-name="adieresis" unicode="&#xe4;" horiz-adv-x="431" 
d="M238 511l179 -511h-43l-44 130h-231l-43 -130h-41l173 511h50zM212 474l-103 -310h209zM149 663q29 0 29 -23v-17q0 -23 -29 -23q-27 0 -27 23v17q0 23 27 23zM274 663q29 0 29 -23v-17q0 -23 -29 -23q-27 0 -27 23v17q0 23 27 23z" />
    <glyph glyph-name="aring" unicode="&#xe5;" horiz-adv-x="431" 
d="M211 639q40 0 62.5 -18.5t22.5 -53.5q0 -55 -54 -68l175 -499h-43l-44 130h-231l-43 -130h-41l168 497q-56 11 -56 70q0 72 84 72zM210 613q-51 0 -51 -46q0 -45 51 -45q52 0 52 45q0 46 -52 46zM212 474l-103 -310h209z" />
    <glyph glyph-name="ae" unicode="&#xe6;" horiz-adv-x="651" 
d="M574 511v-37h-225v-197h209v-35h-209v-205h225v-37h-264v130h-185l-68 -130h-42l270 511h289zM309 484l-168 -320h168v320z" />
    <glyph glyph-name="ccedilla" unicode="&#xe7;" horiz-adv-x="424" 
d="M249 523q50 0 108 -11l-1 -34q-70 10 -107 10q-70 0 -99 -27.5t-29 -93.5v-224q0 -62 30.5 -90t100.5 -28q42 0 104 11l1 -37q-66 -11 -106 -11l-9 -31h14q29 0 49 -19t20 -48v-12q0 -75 -86 -75q-18 0 -48 5v30q23 -5 41 -5q31 0 44 11t13 35v10q-1 43 -51 43h-33v14
l14 43q-73 7 -105 45t-32 112v219q0 83 38 120.5t129 37.5z" />
    <glyph glyph-name="egrave" unicode="&#xe8;" horiz-adv-x="428" 
d="M351 511v-37h-225v-197h209v-35h-209v-205h225v-37h-264v511h264zM177 679l65 -115h-35l-76 115h46z" />
    <glyph glyph-name="eacute" unicode="&#xe9;" horiz-adv-x="428" 
d="M351 511v-37h-225v-197h209v-35h-209v-205h225v-37h-264v511h264zM306 679l-76 -115h-35l66 115h45z" />
    <glyph glyph-name="ecircumflex" unicode="&#xea;" horiz-adv-x="428" 
d="M351 511v-37h-225v-197h209v-35h-209v-205h225v-37h-264v511h264zM219 662l117 -55v-33l-117 49l-116 -49v33z" />
    <glyph glyph-name="edieresis" unicode="&#xeb;" horiz-adv-x="428" 
d="M351 511v-37h-225v-197h209v-35h-209v-205h225v-37h-264v511h264zM155 663q29 0 29 -23v-17q0 -23 -29 -23q-27 0 -27 23v17q0 23 27 23zM280 663q29 0 29 -23v-17q0 -23 -29 -23q-27 0 -27 23v17q0 23 27 23z" />
    <glyph glyph-name="igrave" unicode="&#xec;" horiz-adv-x="212" 
d="M126 511v-511h-39v511h39zM65 679l65 -115h-35l-76 115h46z" />
    <glyph glyph-name="iacute" unicode="&#xed;" horiz-adv-x="212" 
d="M126 511v-511h-39v511h39zM194 679l-76 -115h-35l66 115h45z" />
    <glyph glyph-name="icircumflex" unicode="&#xee;" horiz-adv-x="212" 
d="M126 511v-511h-39v511h39zM107 662l117 -55v-33l-117 49l-116 -49v33z" />
    <glyph glyph-name="idieresis" unicode="&#xef;" horiz-adv-x="212" 
d="M126 511v-511h-39v511h39zM43 663q29 0 29 -23v-17q0 -23 -29 -23q-27 0 -27 23v17q0 23 27 23zM168 663q29 0 29 -23v-17q0 -23 -29 -23q-27 0 -27 23v17q0 23 27 23z" />
    <glyph glyph-name="eth" unicode="&#xf0;" horiz-adv-x="505" 
d="M223 523q205 0 205 -198v-145q0 -92 -51 -142t-153 -50q-78 0 -137 4v254h-66v35h66v239q54 3 136 3zM220 488q-43 0 -93 -2v-205h119v-35h-119v-219q56 -4 98 -4q79 0 121.5 39.5t42.5 113.5v150q0 162 -169 162z" />
    <glyph glyph-name="ntilde" unicode="&#xf1;" horiz-adv-x="515" 
d="M429 511v-511h-52l-252 463v-463h-38v511h56l248 -459v459h38zM372 639v-35q-34 -18 -68 -18q-15 0 -45 10.5t-44 10.5q-11 0 -27.5 -4t-27.5 -8l-10 -4v35q33 18 67 18q21 0 49 -10.5t39 -10.5q12 0 28.5 4t27.5 8z" />
    <glyph glyph-name="ograve" unicode="&#xf2;" horiz-adv-x="508" 
d="M255 523q172 0 172 -173v-189q0 -173 -172 -173q-173 0 -173 173v189q0 85 41.5 129t131.5 44zM255 488q-134 0 -134 -130v-203q0 -132 134 -132q133 0 133 131v202q0 132 -133 132zM213 679l65 -115h-35l-76 115h46z" />
    <glyph glyph-name="oacute" unicode="&#xf3;" horiz-adv-x="508" 
d="M255 523q172 0 172 -173v-189q0 -173 -172 -173q-173 0 -173 173v189q0 85 41.5 129t131.5 44zM255 488q-134 0 -134 -130v-203q0 -132 134 -132q133 0 133 131v202q0 132 -133 132zM342 679l-76 -115h-35l66 115h45z" />
    <glyph glyph-name="ocircumflex" unicode="&#xf4;" horiz-adv-x="508" 
d="M255 523q172 0 172 -173v-189q0 -173 -172 -173q-173 0 -173 173v189q0 85 41.5 129t131.5 44zM255 488q-134 0 -134 -130v-203q0 -132 134 -132q133 0 133 131v202q0 132 -133 132zM255 662l117 -55v-33l-117 49l-116 -49v33z" />
    <glyph glyph-name="otilde" unicode="&#xf5;" horiz-adv-x="508" 
d="M255 523q172 0 172 -173v-189q0 -173 -172 -173q-173 0 -173 173v189q0 85 41.5 129t131.5 44zM255 488q-134 0 -134 -130v-203q0 -132 134 -132q133 0 133 131v202q0 132 -133 132zM367 639v-35q-34 -18 -68 -18q-15 0 -45 10.5t-44 10.5q-11 0 -27.5 -4t-26.5 -8
l-11 -4v35q33 18 67 18q21 0 49 -10.5t39 -10.5q12 0 28.5 4t27.5 8z" />
    <glyph glyph-name="odieresis" unicode="&#xf6;" horiz-adv-x="508" 
d="M255 523q172 0 172 -173v-189q0 -173 -172 -173q-173 0 -173 173v189q0 85 41.5 129t131.5 44zM255 488q-134 0 -134 -130v-203q0 -132 134 -132q133 0 133 131v202q0 132 -133 132zM191 663q29 0 29 -23v-17q0 -23 -29 -23q-27 0 -27 23v17q0 23 27 23zM316 663
q29 0 29 -23v-17q0 -23 -29 -23q-27 0 -27 23v17q0 23 27 23z" />
    <glyph glyph-name="divide" unicode="&#xf7;" horiz-adv-x="398" 
d="M197 489q31 0 31 -28v-12q0 -27 -31 -27q-30 0 -30 27v12q0 28 30 28zM365 323v-35h-333v35h333zM197 189q31 0 31 -29v-11q0 -27 -31 -27q-30 0 -30 27v11q0 29 30 29z" />
    <glyph glyph-name="oslash" unicode="&#xf8;" horiz-adv-x="508" 
d="M454 559l-57 -96q29 -41 29 -113v-189q0 -173 -172 -173q-76 0 -118 33l-42 -69h-40l56 95q-29 43 -29 114v189q0 173 173 173q75 0 117 -33l43 69h40zM255 488q-134 0 -134 -130v-203q0 -44 15 -71l219 370q-34 34 -100 34zM372 425l-218 -369q33 -33 100 -33
q133 0 133 131v202q0 40 -15 69z" />
    <glyph glyph-name="ugrave" unicode="&#xf9;" horiz-adv-x="512" 
d="M426 511v-355q0 -82 -43.5 -125t-126.5 -43q-169 0 -169 168v355h39v-361q0 -126 130 -126q131 0 131 126v361h39zM214 679l65 -115h-35l-76 115h46z" />
    <glyph glyph-name="uacute" unicode="&#xfa;" horiz-adv-x="512" 
d="M426 511v-355q0 -82 -43.5 -125t-126.5 -43q-169 0 -169 168v355h39v-361q0 -126 130 -126q131 0 131 126v361h39zM343 679l-76 -115h-35l66 115h45z" />
    <glyph glyph-name="ucircumflex" unicode="&#xfb;" horiz-adv-x="512" 
d="M426 511v-355q0 -82 -43.5 -125t-126.5 -43q-169 0 -169 168v355h39v-361q0 -126 130 -126q131 0 131 126v361h39zM256 662l117 -55v-33l-117 49l-116 -49v33z" />
    <glyph glyph-name="udieresis" unicode="&#xfc;" horiz-adv-x="512" 
d="M426 511v-355q0 -82 -43.5 -125t-126.5 -43q-169 0 -169 168v355h39v-361q0 -126 130 -126q131 0 131 126v361h39zM192 663q29 0 29 -23v-17q0 -23 -29 -23q-27 0 -27 23v17q0 23 27 23zM317 663q29 0 29 -23v-17q0 -23 -29 -23q-27 0 -27 23v17q0 23 27 23z" />
    <glyph glyph-name="yacute" unicode="&#xfd;" horiz-adv-x="397" 
d="M378 511l-160 -335v-176h-39v176l-161 335h45l136 -295l134 295h45zM285 679l-76 -115h-35l66 115h45z" />
    <glyph glyph-name="thorn" unicode="&#xfe;" horiz-adv-x="436" 
d="M126 511v-91q26 1 95 1q183 0 183 -142v-24q0 -154 -177 -154q-48 0 -101 6v-107h-39v511h39zM219 387q-47 0 -93 -2v-243q44 -6 99 -6q74 0 107 31t33 93v14q0 58 -34.5 85.5t-111.5 27.5z" />
    <glyph glyph-name="ydieresis" unicode="&#xff;" horiz-adv-x="397" 
d="M378 511l-160 -335v-176h-39v176l-161 335h45l136 -295l134 295h45zM134 663q29 0 29 -23v-17q0 -23 -29 -23q-27 0 -27 23v17q0 23 27 23zM259 663q29 0 29 -23v-17q0 -23 -29 -23q-27 0 -27 23v17q0 23 27 23z" />
    <glyph glyph-name="Amacron" unicode="&#x100;" horiz-adv-x="512" 
d="M279 655l219 -655h-45l-56 171h-285l-53 -171h-44l210 655h54zM251 617l-128 -408h262zM358 765v-39h-212v39h212z" />
    <glyph glyph-name="amacron" unicode="&#x101;" horiz-adv-x="431" 
d="M238 511l179 -511h-43l-44 130h-231l-43 -130h-41l173 511h50zM212 474l-103 -310h209zM313 619v-37h-201v37h201z" />
    <glyph glyph-name="Abreve" unicode="&#x102;" horiz-adv-x="512" 
d="M279 655l219 -655h-45l-56 171h-285l-53 -171h-44l210 655h54zM251 617l-128 -408h262zM372 799v-44q-5 -5 -14.5 -11.5t-40.5 -18t-65 -11.5t-64.5 10t-43.5 20l-13 11v44q6 -5 16.5 -13t42 -21t62.5 -13t61 12t45 24z" />
    <glyph glyph-name="abreve" unicode="&#x103;" horiz-adv-x="431" 
d="M238 511l179 -511h-43l-44 130h-231l-43 -130h-41l173 511h50zM212 474l-103 -310h209zM332 650v-41q-6 -5 -16 -13t-41 -21.5t-63 -13.5q-31 0 -61 12t-44 24l-14 12v41q6 -6 17 -15t42.5 -24t59.5 -15q29 0 59 13.5t45 26.5z" />
    <glyph glyph-name="Aogonek" unicode="&#x104;" horiz-adv-x="512" 
d="M279 655l219 -655h-10q-33 -16 -55 -45.5t-22 -58.5v-8q0 -51 54 -51q17 0 37 5v-34q-21 -5 -44 -5q-40 0 -62 21t-22 57v9q0 34 22.5 66t55.5 46l-55 169h-285l-53 -171h-44l210 655h54zM251 617l-128 -408h262z" />
    <glyph glyph-name="aogonek" unicode="&#x105;" horiz-adv-x="440" 
d="M238 511l179 -511h-6q-32 -13 -53.5 -43.5t-21.5 -59.5v-8q0 -51 53 -51q17 0 37 5v-34q-21 -5 -44 -5q-39 0 -61 21t-22 57v9q0 33 21.5 64.5t53.5 45.5l-44 129h-231l-43 -130h-41l173 511h50zM212 474l-103 -310h209z" />
    <glyph glyph-name="Cacute" unicode="&#x106;" horiz-adv-x="476" 
d="M282 667q46 0 128 -13l-2 -38q-77 14 -127 14q-86 0 -122.5 -36.5t-36.5 -124.5v-284q0 -82 37.5 -120.5t123.5 -38.5q54 0 125 15l2 -39q-77 -14 -129 -14q-107 0 -153 48.5t-46 151.5v278q0 107 45.5 154t154.5 47zM355 825l-77 -119h-35l66 119h46z" />
    <glyph glyph-name="cacute" unicode="&#x107;" horiz-adv-x="424" 
d="M248 523q49 0 109 -13l-1 -35q-61 13 -108 13q-69 0 -98 -27.5t-29 -93.5v-224q0 -62 30 -90t99 -28q45 0 106 13l1 -37q-69 -13 -108 -13q-89 0 -128 38.5t-39 119.5v219q0 83 38 120.5t128 37.5zM335 679l-76 -115h-35l66 115h45z" />
    <glyph glyph-name="Ccircumflex" unicode="&#x108;" horiz-adv-x="476" 
d="M282 667q46 0 128 -13l-2 -38q-77 14 -127 14q-86 0 -122.5 -36.5t-36.5 -124.5v-284q0 -82 37.5 -120.5t123.5 -38.5q54 0 125 15l2 -39q-77 -14 -129 -14q-107 0 -153 48.5t-46 151.5v278q0 107 45.5 154t154.5 47zM268 814l120 -58v-36l-120 52l-120 -52v36z" />
    <glyph glyph-name="ccircumflex" unicode="&#x109;" horiz-adv-x="424" 
d="M248 523q49 0 109 -13l-1 -35q-61 13 -108 13q-69 0 -98 -27.5t-29 -93.5v-224q0 -62 30 -90t99 -28q45 0 106 13l1 -37q-69 -13 -108 -13q-89 0 -128 38.5t-39 119.5v219q0 83 38 120.5t128 37.5zM248 662l117 -55v-33l-117 49l-116 -49v33z" />
    <glyph glyph-name="Cdotaccent" unicode="&#x10a;" horiz-adv-x="476" 
d="M282 667q46 0 128 -13l-2 -38q-77 14 -127 14q-86 0 -122.5 -36.5t-36.5 -124.5v-284q0 -82 37.5 -120.5t123.5 -38.5q54 0 125 15l2 -39q-77 -14 -129 -14q-107 0 -153 48.5t-46 151.5v278q0 107 45.5 154t154.5 47zM268 801q32 0 32 -27v-17q0 -27 -32 -27
q-30 0 -30 27v17q0 27 30 27z" />
    <glyph glyph-name="cdotaccent" unicode="&#x10b;" horiz-adv-x="424" 
d="M248 523q49 0 109 -13l-1 -35q-61 13 -108 13q-69 0 -98 -27.5t-29 -93.5v-224q0 -62 30 -90t99 -28q45 0 106 13l1 -37q-69 -13 -108 -13q-89 0 -128 38.5t-39 119.5v219q0 83 38 120.5t128 37.5zM247 669q32 0 32 -26v-18q0 -26 -32 -26q-30 0 -30 26v18q0 26 30 26z
" />
    <glyph glyph-name="Ccaron" unicode="&#x10c;" horiz-adv-x="476" 
d="M282 667q46 0 128 -13l-2 -38q-77 14 -127 14q-86 0 -122.5 -36.5t-36.5 -124.5v-284q0 -82 37.5 -120.5t123.5 -38.5q54 0 125 15l2 -39q-77 -14 -129 -14q-107 0 -153 48.5t-46 151.5v278q0 107 45.5 154t154.5 47zM388 816v-35l-120 -59l-120 59v35l120 -51z" />
    <glyph glyph-name="ccaron" unicode="&#x10d;" horiz-adv-x="424" 
d="M248 523q49 0 109 -13l-1 -35q-61 13 -108 13q-69 0 -98 -27.5t-29 -93.5v-224q0 -62 30 -90t99 -28q45 0 106 13l1 -37q-69 -13 -108 -13q-89 0 -128 38.5t-39 119.5v219q0 83 38 120.5t128 37.5zM365 682v-33l-117 -56l-116 56v33l116 -49z" />
    <glyph glyph-name="Dcaron" unicode="&#x10e;" horiz-adv-x="570" 
d="M247 667q247 0 247 -251v-184q0 -118 -61.5 -181t-182.5 -63q-76 0 -163 5v669q107 5 160 5zM243 631q-52 0 -116 -4v-596q64 -6 123 -6q99 0 151.5 52t52.5 151v190q0 108 -52 160.5t-159 52.5zM382 816v-35l-120 -59l-120 59v35l120 -51z" />
    <glyph glyph-name="dcaron" unicode="&#x10f;" horiz-adv-x="504" 
d="M223 523q204 0 204 -198v-145q0 -93 -50.5 -142.5t-152.5 -49.5q-78 0 -137 4v527q72 4 136 4zM219 488q-15 0 -93 -3v-458q56 -4 98 -4q79 0 121.5 39.5t42.5 113.5v150q0 162 -169 162zM355 682v-33l-117 -56l-116 56v33l116 -49z" />
    <glyph glyph-name="Dcroat" unicode="&#x110;" horiz-adv-x="571" 
d="M247 658q247 0 247 -251v-184q0 -118 -61 -181t-182 -63q-77 0 -164 5v337h-79v36h79v297q86 4 160 4zM244 621q-50 0 -116 -2v-262h147v-36h-147v-300q64 -6 123 -6q98 0 151 52.5t53 150.5v191q0 108 -52 160t-159 52z" />
    <glyph glyph-name="dcroat" unicode="&#x111;" horiz-adv-x="505" 
d="M223 523q205 0 205 -198v-145q0 -92 -51 -142t-153 -50q-78 0 -137 4v254h-66v35h66v239q54 3 136 3zM220 488q-43 0 -93 -2v-205h119v-35h-119v-219q56 -4 98 -4q79 0 121.5 39.5t42.5 113.5v150q0 162 -169 162z" />
    <glyph glyph-name="Emacron" unicode="&#x112;" horiz-adv-x="477" 
d="M401 655v-37h-274v-266h254v-38h-254v-277h274v-37h-314v655h314zM357 765v-39h-212v39h212z" />
    <glyph glyph-name="emacron" unicode="&#x113;" horiz-adv-x="428" 
d="M351 511v-37h-225v-197h209v-35h-209v-205h225v-37h-264v511h264zM319 619v-37h-201v37h201z" />
    <glyph glyph-name="Ebreve" unicode="&#x114;" horiz-adv-x="477" 
d="M401 655v-37h-274v-266h254v-38h-254v-277h274v-37h-314v655h314zM371 799v-44q-5 -5 -14.5 -11.5t-40.5 -18t-65 -11.5t-64.5 10t-43.5 20l-13 11v44q6 -5 16.5 -13t42 -21t62.5 -13t61 12t44 24z" />
    <glyph glyph-name="ebreve" unicode="&#x115;" horiz-adv-x="428" 
d="M351 511v-37h-225v-197h209v-35h-209v-205h225v-37h-264v511h264zM338 650v-41q-6 -5 -16 -13t-41 -21.5t-63 -13.5q-31 0 -61 12t-44 24l-14 12v41q6 -6 17 -15t42.5 -24t59.5 -15q29 0 59 13.5t45 26.5z" />
    <glyph glyph-name="Edotaccent" unicode="&#x116;" horiz-adv-x="477" 
d="M401 655v-37h-274v-266h254v-38h-254v-277h274v-37h-314v655h314zM250 801q32 0 32 -27v-17q0 -27 -32 -27q-30 0 -30 27v17q0 27 30 27z" />
    <glyph glyph-name="edotaccent" unicode="&#x117;" horiz-adv-x="428" 
d="M351 511v-37h-225v-197h209v-35h-209v-205h225v-37h-264v511h264zM218 669q32 0 32 -26v-18q0 -26 -32 -26q-30 0 -30 26v18q0 26 30 26z" />
    <glyph glyph-name="Eogonek" unicode="&#x118;" horiz-adv-x="477" 
d="M401 655v-37h-274v-266h254v-38h-254v-277h274v-37h-61q-33 -16 -55 -45.5t-22 -58.5v-8q0 -51 54 -51q17 0 37 5v-34q-21 -5 -44 -5q-39 0 -61.5 21t-22.5 57v9q0 33 21 64t53 46h-213v655h314z" />
    <glyph glyph-name="eogonek" unicode="&#x119;" horiz-adv-x="428" 
d="M351 511v-37h-225v-197h209v-35h-209v-205h225v-37h-43q-35 -15 -57 -45t-22 -60v-8q0 -50 53 -50q21 0 37 4v-34q-21 -5 -44 -5q-39 0 -61.5 21t-22.5 57v9q0 33 21.5 64.5t53.5 46.5h-179v511h264z" />
    <glyph glyph-name="Ecaron" unicode="&#x11a;" horiz-adv-x="477" 
d="M401 655v-37h-274v-266h254v-38h-254v-277h274v-37h-314v655h314zM370 816v-35l-120 -59l-120 59v35l120 -51z" />
    <glyph glyph-name="ecaron" unicode="&#x11b;" horiz-adv-x="428" 
d="M351 511v-37h-225v-197h209v-35h-209v-205h225v-37h-264v511h264zM336 682v-33l-117 -56l-116 56v33l116 -49z" />
    <glyph glyph-name="Gcircumflex" unicode="&#x11c;" horiz-adv-x="557" 
d="M283 667q66 0 158 -16l-1 -37q-91 16 -157 16q-88 0 -124.5 -34.5t-36.5 -112.5v-308q0 -79 38 -114.5t123 -35.5q61 0 149 22v277h-133v38h173v-341q-113 -33 -189 -33q-108 0 -154.5 47t-46.5 147v291q0 104 46 149t155 45zM275 814l120 -58v-36l-120 52l-120 -52v36z
" />
    <glyph glyph-name="gcircumflex" unicode="&#x11d;" horiz-adv-x="494" 
d="M250 523q48 0 133 -13v-35q-88 13 -133 13q-70 0 -99.5 -25.5t-29.5 -84.5v-243q0 -59 30.5 -85.5t98.5 -26.5q49 0 119 16v210h-107v36h147v-271q-100 -26 -159 -26q-90 0 -129 36.5t-39 115.5v230q0 81 38.5 117t129.5 36zM247 662l117 -55v-33l-117 49l-116 -49v33z
" />
    <glyph glyph-name="Gbreve" unicode="&#x11e;" horiz-adv-x="557" 
d="M283 667q66 0 158 -16l-1 -37q-91 16 -157 16q-88 0 -124.5 -34.5t-36.5 -112.5v-308q0 -79 38 -114.5t123 -35.5q61 0 149 22v277h-133v38h173v-341q-113 -33 -189 -33q-108 0 -154.5 47t-46.5 147v291q0 104 46 149t155 45zM396 799v-44q-5 -5 -14.5 -11.5t-40.5 -18
t-65 -11.5t-64.5 10t-43.5 20l-13 11v44q6 -5 16.5 -13t42 -21t62.5 -13t61 12t45 24z" />
    <glyph glyph-name="gbreve" unicode="&#x11f;" horiz-adv-x="494" 
d="M250 523q48 0 133 -13v-35q-88 13 -133 13q-70 0 -99.5 -25.5t-29.5 -84.5v-243q0 -59 30.5 -85.5t98.5 -26.5q49 0 119 16v210h-107v36h147v-271q-100 -26 -159 -26q-90 0 -129 36.5t-39 115.5v230q0 81 38.5 117t129.5 36zM366 650v-41q-6 -5 -16 -13t-41 -21.5
t-63 -13.5q-31 0 -61 12t-44 24l-14 12v41q6 -6 17 -15t42.5 -24t59.5 -15q29 0 59 13.5t45 26.5z" />
    <glyph glyph-name="Gdotaccent" unicode="&#x120;" horiz-adv-x="557" 
d="M283 667q66 0 158 -16l-1 -37q-91 16 -157 16q-88 0 -124.5 -34.5t-36.5 -112.5v-308q0 -79 38 -114.5t123 -35.5q61 0 149 22v277h-133v38h173v-341q-113 -33 -189 -33q-108 0 -154.5 47t-46.5 147v291q0 104 46 149t155 45zM275 801q32 0 32 -27v-17q0 -27 -32 -27
q-30 0 -30 27v17q0 27 30 27z" />
    <glyph glyph-name="gdotaccent" unicode="&#x121;" horiz-adv-x="494" 
d="M250 523q48 0 133 -13v-35q-88 13 -133 13q-70 0 -99.5 -25.5t-29.5 -84.5v-243q0 -59 30.5 -85.5t98.5 -26.5q49 0 119 16v210h-107v36h147v-271q-100 -26 -159 -26q-90 0 -129 36.5t-39 115.5v230q0 81 38.5 117t129.5 36zM246 669q32 0 32 -26v-18q0 -26 -32 -26
q-30 0 -30 26v18q0 26 30 26z" />
    <glyph glyph-name="Gcommaaccent" unicode="&#x122;" horiz-adv-x="557" 
d="M283 667q66 0 158 -16l-1 -37q-91 16 -157 16q-88 0 -124.5 -34.5t-36.5 -112.5v-308q0 -79 38 -114.5t123 -35.5q61 0 149 22v277h-133v38h173v-341q-113 -33 -189 -33q-108 0 -154.5 47t-46.5 147v291q0 104 46 149t155 45zM280 -56q30 0 30 -28v-12q0 -20 -8 -47
l-13 -45h-28l14 66q-23 4 -23 27v12q0 27 28 27z" />
    <glyph glyph-name="gcommaaccent" unicode="&#x123;" horiz-adv-x="494" 
d="M250 523q48 0 133 -13v-35q-88 13 -133 13q-70 0 -99.5 -25.5t-29.5 -84.5v-243q0 -59 30.5 -85.5t98.5 -26.5q49 0 119 16v210h-107v36h147v-271q-100 -26 -159 -26q-90 0 -129 36.5t-39 115.5v230q0 81 38.5 117t129.5 36zM260 -56q30 0 30 -28v-12q0 -20 -8 -47
l-13 -45h-28l14 66q-23 4 -23 27v12q0 27 28 27z" />
    <glyph glyph-name="Hcircumflex" unicode="&#x124;" horiz-adv-x="579" 
d="M493 655v-655h-40v320h-326v-320h-40v655h40v-298h326v298h40zM289 814l120 -58v-36l-120 52l-120 -52v36z" />
    <glyph glyph-name="hcircumflex" unicode="&#x125;" horiz-adv-x="514" 
d="M427 511v-511h-39v246h-262v-246h-39v511h39v-229h262v229h39zM257 662l117 -55v-33l-117 49l-116 -49v33z" />
    <glyph glyph-name="Hbar" unicode="&#x126;" horiz-adv-x="581" 
d="M494 646v-78h50v-35h-50v-542h-40v320h-326v-320h-40v542h-50v35h50v78h40v-78h326v78h40zM454 533h-326v-185h326v185z" />
    <glyph glyph-name="hbar" unicode="&#x127;" horiz-adv-x="516" 
d="M428 511v-66h41v-34h-41v-411h-39v246h-262v-246h-39v411h-42v34h42v66h39v-66h262v66h39zM389 411h-262v-129h262v129z" />
    <glyph glyph-name="Itilde" unicode="&#x128;" horiz-adv-x="213" 
d="M127 655v-655h-40v655h40zM236 784v-35q-37 -25 -78 -25q-17 0 -53 12.5t-51 12.5t-33.5 -5.5t-30.5 -10.5l-11 -5v36q35 24 77 24q24 0 58 -12.5t46 -12.5q15 0 34 5.5t30 10.5z" />
    <glyph glyph-name="itilde" unicode="&#x129;" horiz-adv-x="212" 
d="M126 511v-511h-39v511h39zM219 639v-35q-34 -18 -68 -18q-15 0 -45 10.5t-44 10.5q-11 0 -27.5 -4t-26.5 -8l-11 -4v35q33 18 67 18q21 0 49 -10.5t39 -10.5q12 0 28.5 4t27.5 8z" />
    <glyph glyph-name="Imacron" unicode="&#x12a;" horiz-adv-x="213" 
d="M127 655v-655h-40v655h40zM213 765v-39h-212v39h212z" />
    <glyph glyph-name="imacron" unicode="&#x12b;" horiz-adv-x="212" 
d="M126 511v-511h-39v511h39zM207 619v-37h-201v37h201z" />
    <glyph glyph-name="Ibreve" unicode="&#x12c;" horiz-adv-x="213" 
d="M127 655v-655h-40v655h40zM227 799v-44q-5 -5 -14.5 -11.5t-40.5 -18t-65 -11.5t-64.5 10t-43.5 20l-13 11v44q6 -5 16.5 -13t42 -21t62.5 -13t61 12t44 24z" />
    <glyph glyph-name="ibreve" unicode="&#x12d;" horiz-adv-x="212" 
d="M126 511v-511h-39v511h39zM226 650v-41q-6 -5 -16 -13t-41 -21.5t-63 -13.5q-31 0 -61 12t-44 24l-14 12v41q6 -6 17 -15t42.5 -24t59.5 -15q29 0 59 13.5t45 26.5z" />
    <glyph glyph-name="Iogonek" unicode="&#x12e;" horiz-adv-x="213" 
d="M127 655v-655h-5q-30 -13 -51 -44t-21 -60v-8q0 -51 54 -51q17 0 37 5v-34q-21 -5 -45 -5q-39 0 -61 21t-22 57v9q0 33 21 64.5t53 46.5v654h40z" />
    <glyph glyph-name="iogonek" unicode="&#x12f;" horiz-adv-x="212" 
d="M125 511v-511h-3q-30 -14 -51.5 -44.5t-21.5 -59.5v-8q0 -51 54 -51q17 0 37 5v-34q-21 -5 -45 -5q-39 0 -61 21t-22 57v9q0 33 21 64.5t53 46.5v510h39z" />
    <glyph glyph-name="Idotaccent" unicode="&#x130;" horiz-adv-x="212" 
d="M126 511v-511h-39v511h39zM106 669q32 0 32 -26v-18q0 -26 -32 -26q-30 0 -30 26v18q0 26 30 26z" />
    <glyph glyph-name="dotlessi" unicode="&#x131;" horiz-adv-x="212" 
d="M126 511v-511h-39v511h39z" />
    <glyph glyph-name="IJ" unicode="&#x132;" horiz-adv-x="482" 
d="M127 655v-655h-40v655h40zM396 655v-541q0 -66 -28 -96t-90 -30q-36 0 -61 5l-1 37q32 -5 66 -5q74 0 74 88v542h40z" />
    <glyph glyph-name="ij" unicode="&#x133;" horiz-adv-x="455" 
d="M126 511v-511h-39v511h39zM369 511v-419q0 -55 -24 -79.5t-77 -24.5q-35 0 -53 4v35q28 -4 55 -4q60 0 60 67v421h39z" />
    <glyph glyph-name="Jcircumflex" unicode="&#x134;" horiz-adv-x="269" 
d="M183 655v-541q0 -66 -28 -96t-90 -30q-36 0 -61 5l-1 37q33 -5 66 -5q74 0 74 88v542h40zM161 814l120 -58v-36l-120 52l-120 -52v36z" />
    <glyph glyph-name="jcircumflex" unicode="&#x135;" horiz-adv-x="243" 
d="M157 511v-419q0 -55 -24 -79.5t-77 -24.5q-35 0 -53 4v35q28 -4 55 -4q60 0 60 67v421h39zM137 662l117 -55v-33l-117 49l-116 -49v33z" />
    <glyph glyph-name="Kcommaaccent" unicode="&#x136;" horiz-adv-x="498" 
d="M478 655l-305 -318l329 -337h-55l-320 330v-330h-40v655h40v-316l302 316h49zM269 -56q30 0 30 -28v-12q0 -20 -8 -47l-13 -45h-28l14 66q-23 4 -23 27v12q0 27 28 27z" />
    <glyph glyph-name="kcommaaccent" unicode="&#x137;" horiz-adv-x="429" 
d="M414 511l-248 -247l268 -264h-54l-254 253v-253h-39v511h39v-241l240 241h48zM241 -56q30 0 30 -28v-12q0 -20 -8 -47l-13 -45h-28l14 66q-23 4 -23 27v12q0 27 28 27z" />
    <glyph glyph-name="kgreenlandic" unicode="&#x138;" horiz-adv-x="429" 
d="M414 511l-248 -247l268 -264h-54l-254 253v-253h-39v511h39v-241l240 241h48z" />
    <glyph glyph-name="Lacute" unicode="&#x139;" horiz-adv-x="440" 
d="M127 655v-618h276v-37h-316v655h40zM202 825l-77 -119h-35l66 119h46z" />
    <glyph glyph-name="lacute" unicode="&#x13a;" horiz-adv-x="390" 
d="M126 511v-474h227v-37h-266v511h39zM204 679l-76 -115h-35l66 115h45z" />
    <glyph glyph-name="Lcommaaccent" unicode="&#x13b;" horiz-adv-x="440" 
d="M127 655v-618h276v-37h-316v655h40zM251 -56q30 0 30 -28v-12q0 -20 -8 -47l-13 -45h-28l14 66q-23 4 -23 27v12q0 27 28 27z" />
    <glyph glyph-name="lcommaaccent" unicode="&#x13c;" horiz-adv-x="390" 
d="M126 511v-474h227v-37h-266v511h39zM224 -56q30 0 30 -28v-12q0 -20 -8 -47l-13 -45h-28l14 66q-23 4 -23 27v12q0 27 28 27z" />
    <glyph glyph-name="Lcaron" unicode="&#x13d;" horiz-adv-x="440" 
d="M127 655v-618h276v-37h-316v655h40zM248 667q30 0 30 -28v-12q0 -20 -8 -46l-13 -46h-28l14 66q-23 4 -23 27v12q0 27 28 27z" />
    <glyph glyph-name="lcaron" unicode="&#x13e;" horiz-adv-x="390" 
d="M126 511v-474h227v-37h-266v511h39zM228 523q30 0 30 -28v-12q0 -20 -8 -46l-13 -46h-28l14 66q-23 4 -23 27v12q0 27 28 27z" />
    <glyph glyph-name="Ldot" unicode="&#x13f;" horiz-adv-x="440" 
d="M127 655v-618h276v-37h-316v655h40zM310 382q32 0 32 -27v-17q0 -27 -32 -27q-30 0 -30 27v17q0 27 30 27z" />
    <glyph glyph-name="ldot" unicode="&#x140;" horiz-adv-x="390" 
d="M126 511v-474h227v-37h-266v511h39zM284 315q32 0 32 -26v-18q0 -26 -32 -26q-30 0 -30 26v18q0 26 30 26z" />
    <glyph glyph-name="Lslash" unicode="&#x141;" horiz-adv-x="445" 
d="M132 646v-287l156 44v-37l-156 -44v-294h276v-37h-316v320l-70 -20v37l70 20v298h40z" />
    <glyph glyph-name="lslash" unicode="&#x142;" horiz-adv-x="395" 
d="M131 511v-227l126 34v-35l-126 -34v-212h227v-37h-266v238l-58 -15v36l58 15v237h39z" />
    <glyph glyph-name="Nacute" unicode="&#x143;" horiz-adv-x="582" 
d="M438 0l-311 606v-606h-40v655h62l307 -602v602h40v-655h-58zM384 825l-77 -119h-35l66 119h46z" />
    <glyph glyph-name="nacute" unicode="&#x144;" horiz-adv-x="515" 
d="M429 511v-511h-52l-252 463v-463h-38v511h56l248 -459v459h38zM347 679l-76 -115h-35l66 115h45z" />
    <glyph glyph-name="Ncommaaccent" unicode="&#x145;" horiz-adv-x="582" 
d="M438 0l-311 606v-606h-40v655h62l307 -602v602h40v-655h-58zM300 -56q30 0 30 -28v-12q0 -20 -8 -47l-13 -45h-28l14 66q-23 4 -23 27v12q0 27 28 27z" />
    <glyph glyph-name="ncommaaccent" unicode="&#x146;" horiz-adv-x="515" 
d="M429 511v-511h-52l-252 463v-463h-38v511h56l248 -459v459h38zM264 -56q30 0 30 -28v-12q0 -20 -8 -47l-13 -45h-28l14 66q-23 4 -23 27v12q0 27 28 27z" />
    <glyph glyph-name="Ncaron" unicode="&#x147;" horiz-adv-x="582" 
d="M438 0l-311 606v-606h-40v655h62l307 -602v602h40v-655h-58zM417 816v-35l-120 -59l-120 59v35l120 -51z" />
    <glyph glyph-name="ncaron" unicode="&#x148;" horiz-adv-x="515" 
d="M429 511v-511h-52l-252 463v-463h-38v511h56l248 -459v459h38zM377 682v-33l-117 -56l-116 56v33l116 -49z" />
    <glyph glyph-name="napostrophe" unicode="&#x149;" horiz-adv-x="515" 
d="M429 511v-511h-52l-252 463v-463h-38v511h56l248 -459v459h38z" />
    <glyph glyph-name="Eng" unicode="&#x14a;" horiz-adv-x="582" 
d="M496 655v-683q0 -68 -28 -98t-90 -30q-36 0 -61 5l-1 37q32 -5 66 -5q74 0 74 86v31h-12l-317 605v-603h-40v655h62l307 -594v594h40z" />
    <glyph glyph-name="eng" unicode="&#x14b;" horiz-adv-x="515" 
d="M429 511v-538q0 -55 -24 -79.5t-77 -24.5q-35 0 -53 4v35q44 -4 55 -4q60 0 60 67v29h-13l-252 463v-463h-38v511h56l248 -460v460h38z" />
    <glyph glyph-name="Omacron" unicode="&#x14c;" horiz-adv-x="576" 
d="M288 667q109 0 158 -54.5t49 -161.5v-247q0 -216 -207 -216q-107 0 -156.5 53.5t-49.5 162.5v247q0 107 48.5 161.5t157.5 54.5zM288 631q-166 0 -166 -170v-266q0 -171 166 -171q167 0 167 171v265q0 171 -167 171zM394 765v-39h-212v39h212z" />
    <glyph glyph-name="omacron" unicode="&#x14d;" horiz-adv-x="508" 
d="M255 523q172 0 172 -173v-189q0 -173 -172 -173q-173 0 -173 173v189q0 85 41.5 129t131.5 44zM255 488q-134 0 -134 -130v-203q0 -132 134 -132q133 0 133 131v202q0 132 -133 132zM355 619v-37h-201v37h201z" />
    <glyph glyph-name="Obreve" unicode="&#x14e;" horiz-adv-x="576" 
d="M288 667q109 0 158 -54.5t49 -161.5v-247q0 -216 -207 -216q-107 0 -156.5 53.5t-49.5 162.5v247q0 107 48.5 161.5t157.5 54.5zM288 631q-166 0 -166 -170v-266q0 -171 166 -171q167 0 167 171v265q0 171 -167 171zM408 799v-44q-5 -5 -14.5 -11.5t-40.5 -18t-65 -11.5
t-64.5 10t-43.5 20l-13 11v44q6 -5 16.5 -13t42 -21t62.5 -13t61 12t45 24z" />
    <glyph glyph-name="obreve" unicode="&#x14f;" horiz-adv-x="508" 
d="M255 523q172 0 172 -173v-189q0 -173 -172 -173q-173 0 -173 173v189q0 85 41.5 129t131.5 44zM255 488q-134 0 -134 -130v-203q0 -132 134 -132q133 0 133 131v202q0 132 -133 132zM374 650v-41q-6 -5 -16 -13t-41 -21.5t-63 -13.5q-31 0 -61 12t-44 24l-14 12v41
q6 -6 17 -15t42.5 -24t59.5 -15q29 0 59 13.5t45 26.5z" />
    <glyph glyph-name="Ohungarumlaut" unicode="&#x150;" horiz-adv-x="576" 
d="M288 667q109 0 158 -54.5t49 -161.5v-247q0 -216 -207 -216q-107 0 -156.5 53.5t-49.5 162.5v247q0 107 48.5 161.5t157.5 54.5zM288 631q-166 0 -166 -170v-266q0 -171 166 -171q167 0 167 171v265q0 171 -167 171zM297 825l-64 -119h-33l58 119h39zM408 825l-64 -119
h-33l58 119h39z" />
    <glyph glyph-name="ohungarumlaut" unicode="&#x151;" horiz-adv-x="508" 
d="M255 523q172 0 172 -173v-189q0 -173 -172 -173q-173 0 -173 173v189q0 85 41.5 129t131.5 44zM255 488q-134 0 -134 -130v-203q0 -132 134 -132q133 0 133 131v202q0 132 -133 132zM270 679l-62 -115h-32l57 115h37zM364 679l-62 -115h-32l57 115h37z" />
    <glyph glyph-name="OE" unicode="&#x152;" horiz-adv-x="763" 
d="M285 667q57 0 94 -12h308v-37h-271v-266h251v-38h-251v-277h271v-37h-308q-42 -12 -93 -12q-105 0 -154.5 53t-49.5 163v247q0 108 48.5 162t154.5 54zM287 631q-165 0 -165 -170v-266q0 -171 165 -171q51 0 89 11v584q-31 12 -89 12z" />
    <glyph glyph-name="oe" unicode="&#x153;" horiz-adv-x="662" 
d="M253 523q43 0 81 -12h252v-37h-225v-197h209v-35h-209v-205h225v-37h-249q-35 -12 -83 -12q-89 0 -130.5 43t-41.5 130v189q0 85 40.5 129t130.5 44zM253 488q-132 0 -132 -130v-203q0 -132 133 -132q42 0 68 9v445q-31 11 -69 11z" />
    <glyph glyph-name="Racute" unicode="&#x154;" horiz-adv-x="538" 
d="M249 667q109 0 163 -46t54 -131v-23q0 -137 -122 -174l168 -293h-45l-162 286q-64 -9 -178 0v-286h-40v663q122 4 162 4zM247 631q-12 0 -120 -4v-305q75 -5 123 -5q91 0 133.5 37.5t42.5 114.5v17q0 145 -179 145zM344 825l-77 -119h-35l66 119h46z" />
    <glyph glyph-name="racute" unicode="&#x155;" horiz-adv-x="468" 
d="M222 523q181 0 181 -141v-18q0 -52 -26 -88t-74 -51l138 -225h-45l-131 217q-56 -5 -139 0v-217h-39v520q16 0 42.5 1t49 1.5t43.5 0.5zM220 488q-28 0 -94 -3v-233q70 -4 96 -4q75 0 108.5 29t33.5 89v12q0 55 -34.5 82.5t-109.5 27.5zM314 679l-76 -115h-35l66 115h45z
" />
    <glyph glyph-name="Rcommaaccent" unicode="&#x156;" horiz-adv-x="538" 
d="M249 667q109 0 163 -46t54 -131v-23q0 -137 -122 -174l168 -293h-45l-162 286q-64 -9 -178 0v-286h-40v663q122 4 162 4zM247 631q-12 0 -120 -4v-305q75 -5 123 -5q91 0 133.5 37.5t42.5 114.5v17q0 145 -179 145zM272 -56q30 0 30 -28v-12q0 -20 -8 -47l-13 -45h-28
l14 66q-23 4 -23 27v12q0 27 28 27z" />
    <glyph glyph-name="rcommaaccent" unicode="&#x157;" horiz-adv-x="468" 
d="M222 523q181 0 181 -141v-18q0 -52 -26 -88t-74 -51l138 -225h-45l-131 217q-56 -5 -139 0v-217h-39v520q16 0 42.5 1t49 1.5t43.5 0.5zM220 488q-28 0 -94 -3v-233q70 -4 96 -4q75 0 108.5 29t33.5 89v12q0 55 -34.5 82.5t-109.5 27.5zM247 -56q30 0 30 -28v-12
q0 -20 -8 -47l-13 -45h-28l14 66q-23 4 -23 27v12q0 27 28 27z" />
    <glyph glyph-name="Rcaron" unicode="&#x158;" horiz-adv-x="538" 
d="M249 667q109 0 163 -46t54 -131v-23q0 -137 -122 -174l168 -293h-45l-162 286q-64 -9 -178 0v-286h-40v663q122 4 162 4zM247 631q-12 0 -120 -4v-305q75 -5 123 -5q91 0 133.5 37.5t42.5 114.5v17q0 145 -179 145zM377 816v-35l-120 -59l-120 59v35l120 -51z" />
    <glyph glyph-name="rcaron" unicode="&#x159;" horiz-adv-x="468" 
d="M222 523q181 0 181 -141v-18q0 -52 -26 -88t-74 -51l138 -225h-45l-131 217q-56 -5 -139 0v-217h-39v520q16 0 42.5 1t49 1.5t43.5 0.5zM220 488q-28 0 -94 -3v-233q70 -4 96 -4q75 0 108.5 29t33.5 89v12q0 55 -34.5 82.5t-109.5 27.5zM344 682v-33l-117 -56l-116 56v33
l116 -49z" />
    <glyph glyph-name="Sacute" unicode="&#x15a;" horiz-adv-x="453" 
d="M238 667q54 0 122 -13v-38q-76 14 -122 14q-77 0 -109 -29.5t-32 -91.5v-27q0 -45 22 -71t82 -46l97 -32q61 -20 87 -56t26 -102v-19q0 -87 -46.5 -127.5t-155.5 -40.5q-54 0 -132 16l2 39q74 -17 129 -17q88 0 125.5 29.5t37.5 92.5v34q0 45 -21.5 72t-70.5 44l-108 36
q-61 21 -87.5 55t-26.5 96v18q0 84 43 124t138 40zM313 825l-77 -119h-35l66 119h46z" />
    <glyph glyph-name="sacute" unicode="&#x15b;" horiz-adv-x="389" 
d="M201 523q48 0 103 -11v-35q-70 11 -103 11q-113 0 -113 -90v-23q0 -33 17.5 -52.5t65.5 -34.5l80 -25q51 -16 73 -44.5t22 -80.5v-18q0 -68 -39 -100t-130 -32q-42 0 -111 13l1 37q71 -13 108 -13q72 0 102 21t30 68v30q0 63 -73 85l-90 28q-52 16 -73.5 44.5t-21.5 78.5
v12q0 66 36.5 98.5t115.5 32.5zM276 679l-76 -115h-35l66 115h45z" />
    <glyph glyph-name="Scircumflex" unicode="&#x15c;" horiz-adv-x="453" 
d="M238 667q54 0 122 -13v-38q-76 14 -122 14q-77 0 -109 -29.5t-32 -91.5v-27q0 -45 22 -71t82 -46l97 -32q61 -20 87 -56t26 -102v-19q0 -87 -46.5 -127.5t-155.5 -40.5q-54 0 -132 16l2 39q74 -17 129 -17q88 0 125.5 29.5t37.5 92.5v34q0 45 -21.5 72t-70.5 44l-108 36
q-61 21 -87.5 55t-26.5 96v18q0 84 43 124t138 40zM226 814l120 -58v-36l-120 52l-120 -52v36z" />
    <glyph glyph-name="scircumflex" unicode="&#x15d;" horiz-adv-x="389" 
d="M201 523q48 0 103 -11v-35q-70 11 -103 11q-113 0 -113 -90v-23q0 -33 17.5 -52.5t65.5 -34.5l80 -25q51 -16 73 -44.5t22 -80.5v-18q0 -68 -39 -100t-130 -32q-42 0 -111 13l1 37q71 -13 108 -13q72 0 102 21t30 68v30q0 63 -73 85l-90 28q-52 16 -73.5 44.5t-21.5 78.5
v12q0 66 36.5 98.5t115.5 32.5zM189 662l117 -55v-33l-117 49l-116 -49v33z" />
    <glyph glyph-name="Scedilla" unicode="&#x15e;" horiz-adv-x="453" 
d="M238 667q54 0 122 -13v-38q-76 14 -122 14q-77 0 -109 -29.5t-32 -91.5v-27q0 -45 22 -71t82 -46l97 -32q61 -20 87 -56t26 -102v-19q0 -79 -38 -119t-125 -47l-10 -33h13q30 0 49.5 -19t19.5 -48v-12q0 -75 -85 -75q-18 0 -48 5v30q23 -5 41 -5q31 0 44 11t13 35v10
q-1 43 -51 43h-33v14l13 42q-61 0 -137 16l2 39q74 -17 129 -17q88 0 125.5 29.5t37.5 92.5v34q0 45 -21.5 72t-70.5 44l-108 36q-61 21 -87.5 55t-26.5 96v18q0 84 43 124t138 40z" />
    <glyph glyph-name="scedilla" unicode="&#x15f;" horiz-adv-x="389" 
d="M201 523q48 0 103 -11v-35q-70 11 -103 11q-113 0 -113 -90v-23q0 -33 17.5 -52.5t65.5 -34.5l80 -25q51 -16 73 -44.5t22 -80.5v-18q0 -60 -31 -92t-101 -39l-10 -32h14q30 0 49.5 -19t19.5 -48v-12q0 -75 -85 -75q-19 0 -49 5v30q23 -5 42 -5q31 0 44 11t13 35v10
q-1 43 -51 43h-33v14l13 42q-52 1 -115 13l1 37q71 -13 108 -13q72 0 102 21t30 68v30q0 63 -73 85l-90 28q-52 16 -73.5 44.5t-21.5 78.5v12q0 66 36.5 98.5t115.5 32.5z" />
    <glyph glyph-name="Scaron" unicode="&#x160;" horiz-adv-x="453" 
d="M238 667q54 0 122 -13v-38q-76 14 -122 14q-77 0 -109 -29.5t-32 -91.5v-27q0 -45 22 -71t82 -46l97 -32q61 -20 87 -56t26 -102v-19q0 -87 -46.5 -127.5t-155.5 -40.5q-54 0 -132 16l2 39q74 -17 129 -17q88 0 125.5 29.5t37.5 92.5v34q0 45 -21.5 72t-70.5 44l-108 36
q-61 21 -87.5 55t-26.5 96v18q0 84 43 124t138 40zM346 816v-35l-120 -59l-120 59v35l120 -51z" />
    <glyph glyph-name="scaron" unicode="&#x161;" horiz-adv-x="389" 
d="M201 523q48 0 103 -11v-35q-70 11 -103 11q-113 0 -113 -90v-23q0 -33 17.5 -52.5t65.5 -34.5l80 -25q51 -16 73 -44.5t22 -80.5v-18q0 -68 -39 -100t-130 -32q-42 0 -111 13l1 37q71 -13 108 -13q72 0 102 21t30 68v30q0 63 -73 85l-90 28q-52 16 -73.5 44.5t-21.5 78.5
v12q0 66 36.5 98.5t115.5 32.5zM306 682v-33l-117 -56l-116 56v33l116 -49z" />
    <glyph glyph-name="Tcedilla" unicode="&#x162;" horiz-adv-x="519" 
d="M481 655v-37h-201v-618h-11l-13 -43h14q30 0 49.5 -19t19.5 -48v-12q0 -75 -85 -75q-19 0 -49 5v30q23 -5 42 -5q31 0 44 11t13 35v10q-1 43 -51 43h-33v14l20 64v608h-202v37h443z" />
    <glyph glyph-name="tcedilla" unicode="&#x163;" horiz-adv-x="446" 
d="M409 511v-37h-166v-474h-11l-13 -43h14q30 0 49.5 -19t19.5 -48v-12q0 -75 -86 -75q-18 0 -48 5v30q23 -5 42 -5q31 0 44 11t13 35v10q-1 43 -51 43h-33v14l21 69v459h-166v37h371z" />
    <glyph glyph-name="Tcaron" unicode="&#x164;" horiz-adv-x="519" 
d="M481 655v-37h-201v-618h-40v618h-202v37h443zM379 816v-35l-120 -59l-120 59v35l120 -51z" />
    <glyph glyph-name="tcaron" unicode="&#x165;" horiz-adv-x="446" 
d="M409 511v-37h-166v-474h-39v474h-166v37h371zM348 700v-33l-117 -56l-116 56v33l116 -49z" />
    <glyph glyph-name="Tbar" unicode="&#x166;" horiz-adv-x="519" 
d="M481 646v-38h-201v-252h111v-37h-111v-328h-40v328h-111v37h111v252h-202v38h443z" />
    <glyph glyph-name="tbar" unicode="&#x167;" horiz-adv-x="446" 
d="M409 511v-37h-166v-193h90v-35h-90v-246h-39v246h-91v35h91v193h-166v37h371z" />
    <glyph glyph-name="Utilde" unicode="&#x168;" horiz-adv-x="578" 
d="M491 655v-451q0 -106 -51.5 -161t-150.5 -55q-202 0 -202 214v453h41v-461q0 -168 161 -168q162 0 162 168v461h40zM418 784v-35q-37 -25 -78 -25q-17 0 -53 12.5t-51 12.5t-33.5 -5.5t-30.5 -10.5l-11 -5v36q35 24 77 24q24 0 58 -12.5t46 -12.5q15 0 34 5.5t30 10.5z
" />
    <glyph glyph-name="utilde" unicode="&#x169;" horiz-adv-x="512" 
d="M426 511v-355q0 -82 -43.5 -125t-126.5 -43q-169 0 -169 168v355h39v-361q0 -126 130 -126q131 0 131 126v361h39zM368 639v-35q-34 -18 -68 -18q-15 0 -45 10.5t-44 10.5q-11 0 -27.5 -4t-27.5 -8l-10 -4v35q33 18 67 18q21 0 49 -10.5t39 -10.5q12 0 28.5 4t27.5 8z
" />
    <glyph glyph-name="Umacron" unicode="&#x16a;" horiz-adv-x="578" 
d="M491 655v-451q0 -106 -51.5 -161t-150.5 -55q-202 0 -202 214v453h41v-461q0 -168 161 -168q162 0 162 168v461h40zM395 765v-39h-212v39h212z" />
    <glyph glyph-name="umacron" unicode="&#x16b;" horiz-adv-x="512" 
d="M426 511v-355q0 -82 -43.5 -125t-126.5 -43q-169 0 -169 168v355h39v-361q0 -126 130 -126q131 0 131 126v361h39zM356 619v-37h-201v37h201z" />
    <glyph glyph-name="Ubreve" unicode="&#x16c;" horiz-adv-x="578" 
d="M491 655v-451q0 -106 -51.5 -161t-150.5 -55q-202 0 -202 214v453h41v-461q0 -168 161 -168q162 0 162 168v461h40zM409 799v-44q-5 -5 -14.5 -11.5t-40.5 -18t-65 -11.5t-64.5 10t-43.5 20l-13 11v44q6 -5 16.5 -13t42 -21t62.5 -13t61 12t44 24z" />
    <glyph glyph-name="ubreve" unicode="&#x16d;" horiz-adv-x="512" 
d="M426 511v-355q0 -82 -43.5 -125t-126.5 -43q-169 0 -169 168v355h39v-361q0 -126 130 -126q131 0 131 126v361h39zM375 650v-41q-6 -5 -16 -13t-41 -21.5t-63 -13.5q-31 0 -61 12t-44 24l-14 12v41q6 -6 17 -15t42.5 -24t59.5 -15q29 0 59 13.5t46 26.5z" />
    <glyph glyph-name="Uring" unicode="&#x16e;" horiz-adv-x="578" 
d="M491 655v-451q0 -106 -51.5 -161t-150.5 -55q-202 0 -202 214v453h41v-461q0 -168 161 -168q162 0 162 168v461h40zM289 840q44 0 69 -22t25 -63t-25 -63t-69 -22q-45 0 -69.5 21.5t-24.5 63.5q0 41 25 63t69 22zM289 812q-61 0 -61 -57t61 -57t61 57t-61 57z" />
    <glyph glyph-name="uring" unicode="&#x16f;" horiz-adv-x="512" 
d="M426 511v-355q0 -82 -43.5 -125t-126.5 -43q-169 0 -169 168v355h39v-361q0 -126 130 -126q131 0 131 126v361h39zM255 683q40 0 62.5 -18.5t22.5 -53.5q0 -34 -22.5 -53t-62.5 -19t-62 18.5t-22 53.5t22.5 53.5t61.5 18.5zM255 657q-51 0 -51 -46q0 -45 51 -45
q52 0 52 45q0 46 -52 46z" />
    <glyph glyph-name="Uhungarumlaut" unicode="&#x170;" horiz-adv-x="578" 
d="M491 655v-451q0 -106 -51.5 -161t-150.5 -55q-202 0 -202 214v453h41v-461q0 -168 161 -168q162 0 162 168v461h40zM298 825l-64 -119h-33l58 119h39zM409 825l-64 -119h-33l58 119h39z" />
    <glyph glyph-name="uhungarumlaut" unicode="&#x171;" horiz-adv-x="512" 
d="M426 511v-355q0 -82 -43.5 -125t-126.5 -43q-169 0 -169 168v355h39v-361q0 -126 130 -126q131 0 131 126v361h39zM271 679l-62 -115h-32l57 115h37zM365 679l-62 -115h-32l57 115h37z" />
    <glyph glyph-name="Uogonek" unicode="&#x172;" horiz-adv-x="578" 
d="M491 655v-451q0 -158 -109 -200q-36 -14 -61 -46t-25 -62v-8q0 -51 54 -51q17 0 37 5v-34q-21 -5 -44 -5q-40 0 -62 21t-22 57v9q0 27 15.5 54.5t39.5 45.5q-227 -16 -227 212v453h41v-461q0 -168 161 -168q162 0 162 168v461h40z" />
    <glyph glyph-name="uogonek" unicode="&#x173;" horiz-adv-x="512" 
d="M426 511v-355q0 -119 -92 -155q-35 -14 -57 -44.5t-22 -60.5v-8q0 -51 54 -51q17 0 37 5v-34q-21 -5 -45 -5q-39 0 -61 21t-22 57v9q0 58 55 99q-90 -2 -138 36t-48 131v355h39v-361q0 -126 130 -126q131 0 131 126v361h39z" />
    <glyph glyph-name="Wcircumflex" unicode="&#x174;" horiz-adv-x="832" 
d="M804 655l-163 -655h-60l-165 609l-164 -609h-59l-164 655h44l151 -611l163 611h59l164 -611l150 611h44zM415 814l120 -58v-36l-120 52l-120 -52v36z" />
    <glyph glyph-name="wcircumflex" unicode="&#x175;" horiz-adv-x="703" 
d="M674 511l-132 -511h-56l-134 473l-133 -473h-56l-134 511h43l120 -469l133 469h54l132 -469l121 469h42zM352 662l117 -55v-33l-117 49l-116 -49v33z" />
    <glyph glyph-name="Ycircumflex" unicode="&#x176;" horiz-adv-x="463" 
d="M444 655l-193 -430v-225h-40v225l-193 430h47l167 -385l166 385h46zM231 814l120 -58v-36l-120 52l-120 -52v36z" />
    <glyph glyph-name="ycircumflex" unicode="&#x177;" horiz-adv-x="397" 
d="M378 511l-160 -335v-176h-39v176l-161 335h45l136 -295l134 295h45zM198 662l117 -55v-33l-117 49l-116 -49v33z" />
    <glyph glyph-name="Ydieresis" unicode="&#x178;" horiz-adv-x="463" 
d="M444 655l-193 -430v-225h-40v225l-193 430h47l167 -385l166 385h46zM168 795q29 0 29 -24v-17q0 -24 -29 -24q-27 0 -27 24v17q0 11 7.5 17.5t19.5 6.5zM293 795q29 0 29 -24v-17q0 -24 -29 -24q-27 0 -27 24v17q0 11 7.5 17.5t19.5 6.5z" />
    <glyph glyph-name="Zacute" unicode="&#x179;" horiz-adv-x="472" 
d="M420 655v-32l-323 -586h323v-37h-372v32l324 586h-318v37h366zM318 825l-77 -119h-35l66 119h46z" />
    <glyph glyph-name="zacute" unicode="&#x17a;" horiz-adv-x="412" 
d="M359 511v-31l-263 -443h263v-37h-311v30l264 444h-259v37h306zM288 679l-76 -115h-35l66 115h45z" />
    <glyph glyph-name="Zdotaccent" unicode="&#x17b;" horiz-adv-x="472" 
d="M420 655v-32l-323 -586h323v-37h-372v32l324 586h-318v37h366zM231 801q32 0 32 -27v-17q0 -27 -32 -27q-30 0 -30 27v17q0 27 30 27z" />
    <glyph glyph-name="zdotaccent" unicode="&#x17c;" horiz-adv-x="412" 
d="M359 511v-31l-263 -443h263v-37h-311v30l264 444h-259v37h306zM200 669q32 0 32 -26v-18q0 -26 -32 -26q-30 0 -30 26v18q0 26 30 26z" />
    <glyph glyph-name="Zcaron" unicode="&#x17d;" horiz-adv-x="472" 
d="M420 655v-32l-323 -586h323v-37h-372v32l324 586h-318v37h366zM351 816v-35l-120 -59l-120 59v35l120 -51z" />
    <glyph glyph-name="zcaron" unicode="&#x17e;" horiz-adv-x="412" 
d="M359 511v-31l-263 -443h263v-37h-311v30l264 444h-259v37h306zM318 682v-33l-117 -56l-116 56v33l116 -49z" />
    <glyph glyph-name="longs" unicode="&#x17f;" horiz-adv-x="389" 
d="M201 523q48 0 103 -11v-35q-70 11 -103 11q-113 0 -113 -90v-23q0 -33 17.5 -52.5t65.5 -34.5l80 -25q51 -16 73 -44.5t22 -80.5v-18q0 -68 -39 -100t-130 -32q-42 0 -111 13l1 37q71 -13 108 -13q72 0 102 21t30 68v30q0 63 -73 85l-90 28q-52 16 -73.5 44.5t-21.5 78.5
v12q0 66 36.5 98.5t115.5 32.5z" />
    <glyph glyph-name="florin" unicode="&#x192;" horiz-adv-x="292" 
d="M219 613q30 0 56 -6v-34q-30 5 -58 5q-74 0 -74 -99v-73h92v-34h-92v-557h-41v557h-70v34h70v70q0 71 29 104t88 33z" />
    <glyph glyph-name="AEacute" unicode="&#x1fc;" horiz-adv-x="788" 
d="M711 655v-37h-274v-266h254v-38h-254v-277h274v-37h-314v172h-245l-93 -172h-44l357 655h339zM397 626l-226 -417h226v417zM622 825l-77 -119h-35l66 119h46z" />
    <glyph glyph-name="aeacute" unicode="&#x1fd;" horiz-adv-x="651" 
d="M574 511v-37h-225v-197h209v-35h-209v-205h225v-37h-264v130h-185l-68 -130h-42l270 511h289zM309 484l-168 -320h168v320zM510 697l-76 -115h-35l66 115h45z" />
    <glyph glyph-name="Oslashacute" unicode="&#x1fe;" horiz-adv-x="576" 
d="M520 705l-61 -109q36 -54 36 -145v-247q0 -216 -207 -216q-94 0 -143 42l-47 -80h-41l62 106q-37 51 -37 148v247q0 107 48.5 161.5t157.5 54.5q94 0 144 -44l47 82h41zM288 631q-166 0 -166 -170v-266q0 -65 21 -100l272 493q-40 43 -127 43zM434 558l-272 -493
q40 -41 126 -41q166 0 166 171v265q0 64 -20 98zM373 825l-77 -119h-35l66 119h46z" />
    <glyph glyph-name="oslashacute" unicode="&#x1ff;" horiz-adv-x="508" 
d="M454 559l-57 -96q29 -41 29 -113v-189q0 -173 -172 -173q-76 0 -118 33l-42 -69h-40l56 95q-29 43 -29 114v189q0 173 173 173q75 0 117 -33l43 69h40zM255 488q-134 0 -134 -130v-203q0 -44 15 -71l219 370q-34 34 -100 34zM372 425l-218 -369q33 -33 100 -33
q133 0 133 131v202q0 40 -15 69zM336 697l-76 -115h-35l66 115h45z" />
    <glyph glyph-name="Scommaaccent" unicode="&#x218;" horiz-adv-x="453" 
d="M238 667q54 0 122 -13v-38q-76 14 -122 14q-77 0 -109 -29.5t-32 -91.5v-27q0 -45 22 -71t82 -46l97 -32q61 -20 87 -56t26 -102v-19q0 -87 -46.5 -127.5t-155.5 -40.5q-54 0 -132 16l2 39q74 -17 129 -17q88 0 125.5 29.5t37.5 92.5v34q0 45 -21.5 72t-70.5 44l-108 36
q-61 21 -87.5 55t-26.5 96v18q0 84 43 124t138 40zM239 -56q30 0 30 -28v-12q0 -20 -8 -47l-13 -45h-28l14 66q-23 4 -23 27v12q0 27 28 27z" />
    <glyph glyph-name="scommaaccent" unicode="&#x219;" horiz-adv-x="389" 
d="M201 523q48 0 103 -11v-35q-70 11 -103 11q-113 0 -113 -90v-23q0 -33 17.5 -52.5t65.5 -34.5l80 -25q51 -16 73 -44.5t22 -80.5v-18q0 -68 -39 -100t-130 -32q-42 0 -111 13l1 37q71 -13 108 -13q72 0 102 21t30 68v30q0 63 -73 85l-90 28q-52 16 -73.5 44.5t-21.5 78.5
v12q0 66 36.5 98.5t115.5 32.5zM202 -56q30 0 30 -28v-12q0 -20 -8 -47l-13 -45h-28l14 66q-23 4 -23 27v12q0 27 28 27z" />
    <glyph glyph-name="uni021A" unicode="&#x21a;" horiz-adv-x="519" 
d="M481 655v-37h-201v-618h-40v618h-202v37h443zM259 -56q30 0 30 -28v-12q0 -20 -8 -47l-13 -45h-28l14 66q-23 4 -23 27v12q0 27 28 27z" />
    <glyph glyph-name="uni021B" unicode="&#x21b;" horiz-adv-x="446" 
d="M409 511v-37h-166v-474h-39v474h-166v37h371zM222 -56q30 0 30 -28v-12q0 -20 -8 -47l-13 -45h-28l14 66q-23 4 -23 27v12q0 27 28 27z" />
    <glyph glyph-name="dotlessj" unicode="&#x237;" horiz-adv-x="243" 
d="M157 511v-419q0 -55 -24 -79.5t-77 -24.5q-35 0 -53 4v35q28 -4 55 -4q60 0 60 67v421h39z" />
    <glyph glyph-name="uni02BC" unicode="&#x2bc;" horiz-adv-x="125" 
d="M65 695q30 0 30 -28v-12q0 -20 -8 -46l-13 -46h-28l14 66q-23 4 -23 27v12q0 27 28 27z" />
    <glyph glyph-name="circumflex" unicode="&#x2c6;" horiz-adv-x="293" 
d="M146 662l117 -55v-33l-117 49l-116 -49v33z" />
    <glyph glyph-name="caron" unicode="&#x2c7;" horiz-adv-x="293" 
d="M263 682v-33l-117 -56l-116 56v33l116 -49z" />
    <glyph glyph-name="uni02C9" unicode="&#x2c9;" horiz-adv-x="252" 
d="M222 634v-39h-192v39h192z" />
    <glyph glyph-name="breve" unicode="&#x2d8;" horiz-adv-x="299" 
d="M269 650v-41q-6 -5 -16 -13t-41 -21.5t-63 -13.5q-31 0 -61 12t-44 24l-14 12v41q6 -6 17 -15t42.5 -24t59.5 -15q29 0 59 13.5t46 26.5z" />
    <glyph glyph-name="dotaccent" unicode="&#x2d9;" horiz-adv-x="122" 
d="M60 669q32 0 32 -26v-18q0 -26 -32 -26q-30 0 -30 26v18q0 26 30 26z" />
    <glyph glyph-name="ring" unicode="&#x2da;" horiz-adv-x="229" 
d="M114 683q40 0 62.5 -18.5t22.5 -53.5q0 -34 -22.5 -53t-62.5 -19t-62 18.5t-22 53.5t22.5 53.5t61.5 18.5zM114 657q-51 0 -51 -46q0 -45 51 -45q52 0 52 45q0 46 -52 46z" />
    <glyph glyph-name="ogonek" unicode="&#x2db;" horiz-adv-x="188" 
d="M132 10l22 -6q-37 -14 -62 -45.5t-25 -62.5v-8q0 -51 54 -51q17 0 37 5v-34q-21 -5 -45 -5q-39 0 -61 21t-22 57v9q0 40 30.5 76.5t71.5 43.5z" />
    <glyph glyph-name="tilde" unicode="&#x2dc;" horiz-adv-x="282" 
d="M252 639v-35q-34 -18 -68 -18q-15 0 -45 10.5t-44 10.5q-11 0 -27.5 -4t-27.5 -8l-10 -4v35q33 18 67 18q21 0 49 -10.5t39 -10.5q12 0 28.5 4t27.5 8z" />
    <glyph glyph-name="hungarumlaut" unicode="&#x2dd;" horiz-adv-x="242" 
d="M119 679l-62 -115h-32l57 115h37zM213 679l-62 -115h-32l57 115h37z" />
    <glyph glyph-name="uni0312" unicode="&#x312;" horiz-adv-x="0" 
d="M79 691l-14 -66q23 -4 23 -27v-12q0 -27 -28 -27q-30 0 -30 28v12q0 20 8 47l13 45h28z" />
    <glyph glyph-name="uni0313" unicode="&#x313;" horiz-adv-x="0" 
d="M58 695q30 0 30 -28v-12q0 -20 -8 -46l-13 -46h-28l14 66q-23 4 -23 27v12q0 27 28 27z" />
    <glyph glyph-name="uni0326" unicode="&#x326;" horiz-adv-x="118" 
d="M58 -56q30 0 30 -28v-12q0 -20 -8 -47l-13 -45h-28l14 66q-23 4 -23 27v12q0 27 28 27z" />
    <glyph glyph-name="uni037E" unicode="&#x37e;" horiz-adv-x="199" 
d="M99 453q33 0 33 -29v-15q0 -27 -33 -27q-32 0 -32 27v15q0 29 32 29zM100 59q32 0 32 -27v-18q0 -15 -5 -30l-24 -84h-36l21 90q-20 3 -20 25v17q0 27 32 27z" />
    <glyph glyph-name="tonos" unicode="&#x384;" horiz-adv-x="132" 
d="M102 683l-39 -139h-33l26 139h46z" />
    <glyph glyph-name="dieresistonos" unicode="&#x385;" horiz-adv-x="238" 
d="M133 688h-33l24 129h46zM56 662q12 0 20 -6.5t8 -16.5v-16q0 -24 -28 -24q-26 0 -26 24v16q0 10 7.5 16.5t18.5 6.5zM180 662q12 0 20 -6.5t8 -16.5v-16q0 -24 -28 -24q-26 0 -26 24v16q0 10 7.5 16.5t18.5 6.5z" />
    <glyph glyph-name="Alphatonos" unicode="&#x386;" horiz-adv-x="512" 
d="M279 655l219 -655h-45l-56 171h-285l-53 -171h-44l210 655h54zM251 617l-128 -408h262zM150 516h-33l26 139h46z" />
    <glyph glyph-name="anoteleia" unicode="&#x387;" horiz-adv-x="198" 
d="M99 260q33 0 33 -29v-15q0 -27 -33 -27q-32 0 -32 27v15q0 29 32 29z" />
    <glyph glyph-name="Epsilontonos" unicode="&#x388;" horiz-adv-x="477" 
d="M401 655v-37h-274v-266h254v-38h-254v-277h274v-37h-314v655h314zM15 516h-33l26 139h46z" />
    <glyph glyph-name="Etatonos" unicode="&#x389;" horiz-adv-x="579" 
d="M493 655v-655h-40v320h-326v-320h-40v655h40v-298h326v298h40zM15 516h-33l26 139h46z" />
    <glyph glyph-name="Iotatonos" unicode="&#x38a;" horiz-adv-x="213" 
d="M127 655v-655h-40v655h40zM15 516h-33l26 139h46z" />
    <glyph glyph-name="Omicrontonos" unicode="&#x38c;" horiz-adv-x="576" 
d="M288 667q109 0 158 -54.5t49 -161.5v-247q0 -216 -207 -216q-107 0 -156.5 53.5t-49.5 162.5v247q0 107 48.5 161.5t157.5 54.5zM288 631q-166 0 -166 -170v-266q0 -171 166 -171q167 0 167 171v265q0 171 -167 171zM50 516h-33l26 139h46z" />
    <glyph glyph-name="Upsilontonos" unicode="&#x38e;" horiz-adv-x="534" 
d="M515 655l-193 -430v-225h-40v225l-193 430h47l167 -385l166 385h46zM33 516h-33l26 139h46z" />
    <glyph glyph-name="Omegatonos" unicode="&#x38f;" horiz-adv-x="576" 
d="M289 667q108 0 157 -54.5t49 -160.5v-235q0 -129 -88 -179h98v-38h-188v35h9q55 0 92 51t37 123v252q0 170 -166 170q-167 0 -167 -169v-253q0 -72 37 -123t92 -51h9v-35h-188v38h98q-88 50 -88 179v235q0 107 49 161t158 54zM47 516h-33l26 139h46z" />
    <glyph glyph-name="iotadieresistonos" unicode="&#x390;" horiz-adv-x="212" 
d="M126 511v-511h-39v511h39zM121 688h-33l24 129h46zM44 662q12 0 20 -6.5t8 -16.5v-16q0 -24 -28 -24q-26 0 -26 24v16q0 10 7.5 16.5t18.5 6.5zM168 662q12 0 20 -6.5t8 -16.5v-16q0 -24 -28 -24q-26 0 -26 24v16q0 10 7.5 16.5t18.5 6.5z" />
    <glyph glyph-name="Alpha" unicode="&#x391;" horiz-adv-x="512" 
d="M279 655l219 -655h-45l-56 171h-285l-53 -171h-44l210 655h54zM251 617l-128 -408h262z" />
    <glyph glyph-name="Beta" unicode="&#x392;" horiz-adv-x="527" 
d="M245 667q209 0 209 -159v-15q0 -118 -104 -157q61 -10 96 -51.5t35 -102.5v-21q0 -173 -223 -173q-74 0 -171 6v667q141 6 158 6zM234 630q-58 0 -107 -3v-278h155q57 0 95 40t38 96v14q0 68 -42.5 99.5t-138.5 31.5zM288 315h-161v-284q65 -6 131 -6q184 0 184 137v22
q0 58 -41 94.5t-113 36.5z" />
    <glyph glyph-name="Gamma" unicode="&#x393;" horiz-adv-x="434" 
d="M397 655v-37h-270v-618h-40v655h310z" />
    <glyph glyph-name="uni0394" unicode="&#x394;" horiz-adv-x="501" 
d="M275 655l205 -626v-29h-460v28l205 627h50zM250 616l-186 -579h372z" />
    <glyph glyph-name="Epsilon" unicode="&#x395;" horiz-adv-x="477" 
d="M401 655v-37h-274v-266h254v-38h-254v-277h274v-37h-314v655h314z" />
    <glyph glyph-name="Zeta" unicode="&#x396;" horiz-adv-x="472" 
d="M420 655v-32l-323 -586h323v-37h-372v32l324 586h-318v37h366z" />
    <glyph glyph-name="Eta" unicode="&#x397;" horiz-adv-x="579" 
d="M493 655v-655h-40v320h-326v-320h-40v655h40v-298h326v298h40z" />
    <glyph glyph-name="Theta" unicode="&#x398;" horiz-adv-x="576" 
d="M288 667q109 0 158 -54.5t49 -161.5v-247q0 -216 -207 -216q-107 0 -156.5 53.5t-49.5 162.5v247q0 107 48.5 161.5t157.5 54.5zM288 631q-166 0 -166 -170v-266q0 -171 166 -171q167 0 167 171v265q0 171 -167 171zM372 357v-38h-167v38h167z" />
    <glyph glyph-name="Iota" unicode="&#x399;" horiz-adv-x="213" 
d="M127 655v-655h-40v655h40z" />
    <glyph glyph-name="Kappa" unicode="&#x39a;" horiz-adv-x="498" 
d="M478 655l-305 -318l329 -337h-55l-320 330v-330h-40v655h40v-316l302 316h49z" />
    <glyph glyph-name="Lambda" unicode="&#x39b;" horiz-adv-x="511" 
d="M284 655l213 -655h-45l-199 617l-193 -617h-45l210 655h59z" />
    <glyph glyph-name="Mu" unicode="&#x39c;" horiz-adv-x="698" 
d="M577 0l-5 599l-196 -531h-53l-196 531l-5 -599h-40l5 655h63l200 -547l200 547h62l5 -655h-40z" />
    <glyph glyph-name="Nu" unicode="&#x39d;" horiz-adv-x="582" 
d="M438 0l-311 606v-606h-40v655h62l307 -602v602h40v-655h-58z" />
    <glyph glyph-name="Xi" unicode="&#x39e;" horiz-adv-x="476" 
d="M420 655v-42h-363v42h363zM352 354v-42h-228v42h228zM420 42v-42h-363v42h363z" />
    <glyph glyph-name="Omicron" unicode="&#x39f;" horiz-adv-x="576" 
d="M288 667q109 0 158 -54.5t49 -161.5v-247q0 -216 -207 -216q-107 0 -156.5 53.5t-49.5 162.5v247q0 107 48.5 161.5t157.5 54.5zM288 631q-166 0 -166 -170v-266q0 -171 166 -171q167 0 167 171v265q0 171 -167 171z" />
    <glyph glyph-name="Pi" unicode="&#x3a0;" horiz-adv-x="579" 
d="M493 655v-655h-40v618h-326v-618h-40v655h406z" />
    <glyph glyph-name="Rho" unicode="&#x3a1;" horiz-adv-x="506" 
d="M248 667q220 0 220 -181v-20q0 -97 -53.5 -148t-160.5 -51q-42 0 -127 12v-279h-40v662q95 5 161 5zM246 631q-11 0 -119 -4v-312q71 -11 125 -11q176 0 176 163v16q0 75 -44 111.5t-138 36.5z" />
    <glyph glyph-name="Sigma" unicode="&#x3a3;" horiz-adv-x="457" 
d="M412 655v-37h-314l185 -275v-25l-185 -281h314v-37h-361v31l196 300l-196 292v32h361z" />
    <glyph glyph-name="Tau" unicode="&#x3a4;" horiz-adv-x="519" 
d="M481 655v-37h-201v-618h-40v618h-202v37h443z" />
    <glyph glyph-name="Upsilon" unicode="&#x3a5;" horiz-adv-x="463" 
d="M444 655l-193 -430v-225h-40v225l-193 430h47l167 -385l166 385h46z" />
    <glyph glyph-name="Phi" unicode="&#x3a6;" horiz-adv-x="756" 
d="M397 695v-84q52 6 78 6q109 0 155 -49t46 -153v-145q0 -104 -45.5 -153t-155.5 -49q-42 0 -78 7v-87h-40v86q-39 -6 -77 -6q-109 0 -155 49t-46 153v145q0 103 45.5 152.5t155.5 49.5q32 0 77 -7v85h40zM280 582q-86 0 -123.5 -37t-37.5 -119v-167q0 -82 37.5 -120
t123.5 -38q40 0 77 6v469q-50 6 -77 6zM475 582q-41 0 -78 -6v-469q50 -6 78 -6q86 0 123.5 38t37.5 120v167q0 82 -37.5 119t-123.5 37z" />
    <glyph glyph-name="Chi" unicode="&#x3a7;" horiz-adv-x="491" 
d="M462 655l-190 -318l200 -337h-49l-179 302l-177 -302h-49l202 336l-191 319h49l169 -285l168 285h47z" />
    <glyph glyph-name="Psi" unicode="&#x3a8;" horiz-adv-x="726" 
d="M641 655v-300q0 -83 -40.5 -128t-118.5 -45h-99v-182h-40v182h-101q-158 0 -158 173v300h40v-312q3 -60 33.5 -92.5t84.5 -32.5h101v437h40v-437h99q57 0 88 32.5t31 93.5v311h40z" />
    <glyph glyph-name="uni03A9" unicode="&#x3a9;" horiz-adv-x="576" 
d="M289 667q108 0 157 -54.5t49 -160.5v-235q0 -129 -88 -179h98v-38h-188v35h9q55 0 92 51t37 123v252q0 170 -166 170q-167 0 -167 -169v-253q0 -72 37 -123t92 -51h9v-35h-188v38h98q-88 50 -88 179v235q0 107 49 161t158 54z" />
    <glyph glyph-name="Iotadieresis" unicode="&#x3aa;" horiz-adv-x="213" 
d="M127 655v-655h-40v655h40zM43 795q29 0 29 -24v-17q0 -24 -29 -24q-27 0 -27 24v17q0 11 7.5 17.5t19.5 6.5zM168 795q29 0 29 -24v-17q0 -24 -29 -24q-27 0 -27 24v17q0 11 7.5 17.5t19.5 6.5z" />
    <glyph glyph-name="Upsilondieresis" unicode="&#x3ab;" horiz-adv-x="463" 
d="M444 655l-193 -430v-225h-40v225l-193 430h47l167 -385l166 385h46zM168 795q29 0 29 -24v-17q0 -24 -29 -24q-27 0 -27 24v17q0 11 7.5 17.5t19.5 6.5zM293 795q29 0 29 -24v-17q0 -24 -29 -24q-27 0 -27 24v17q0 11 7.5 17.5t19.5 6.5z" />
    <glyph glyph-name="alphatonos" unicode="&#x3ac;" horiz-adv-x="431" 
d="M238 511l179 -511h-43l-44 130h-231l-43 -130h-41l173 511h50zM212 474l-103 -310h209z" />
    <glyph glyph-name="epsilontonos" unicode="&#x3ad;" horiz-adv-x="428" 
d="M351 511v-37h-225v-197h209v-35h-209v-205h225v-37h-264v511h264z" />
    <glyph glyph-name="etatonos" unicode="&#x3ae;" horiz-adv-x="514" 
d="M427 511v-511h-39v246h-262v-246h-39v511h39v-229h262v229h39z" />
    <glyph glyph-name="iotatonos" unicode="&#x3af;" horiz-adv-x="212" 
d="M126 511v-511h-39v511h39z" />
    <glyph glyph-name="upsilondieresistonos" unicode="&#x3b0;" horiz-adv-x="397" 
d="M249 817l-37 -129h-33l24 129h46zM135 662q12 0 20 -6.5t8 -16.5v-16q0 -24 -28 -24q-26 0 -26 24v16q0 10 7.5 16.5t18.5 6.5zM259 662q12 0 20 -6.5t8 -16.5v-16q0 -24 -28 -24q-26 0 -26 24v16q0 10 7.5 16.5t18.5 6.5zM378 511l-160 -335v-176h-39v176l-161 335h45
l136 -295l134 295h45z" />
    <glyph glyph-name="alpha" unicode="&#x3b1;" horiz-adv-x="431" 
d="M238 511l179 -511h-43l-44 130h-231l-43 -130h-41l173 511h50zM212 474l-103 -310h209z" />
    <glyph glyph-name="beta" unicode="&#x3b2;" horiz-adv-x="474" 
d="M222 523q172 0 172 -125v-13q0 -95 -85 -122q108 -22 108 -122v-16q0 -137 -186 -137q-63 0 -144 4v527l54 2q54 2 81 2zM212 488q-7 0 -21 -0.5t-34 -1.5t-31 -1v-209h123q48 0 77.5 29.5t29.5 71.5v14q0 50 -34 73.5t-110 23.5zM246 242h-120v-215q57 -4 106 -4
q146 0 146 103v17q0 46 -33.5 72.5t-98.5 26.5z" />
    <glyph glyph-name="gamma" unicode="&#x3b3;" horiz-adv-x="384" 
d="M347 511v-37h-221v-474h-39v511h260z" />
    <glyph glyph-name="delta" unicode="&#x3b4;" horiz-adv-x="414" 
d="M231 511l168 -484v-27h-383v25l167 486h48zM207 474l-149 -438h296z" />
    <glyph glyph-name="epsilon" unicode="&#x3b5;" horiz-adv-x="428" 
d="M351 511v-37h-225v-197h209v-35h-209v-205h225v-37h-264v511h264z" />
    <glyph glyph-name="zeta" unicode="&#x3b6;" horiz-adv-x="412" 
d="M359 511v-31l-263 -443h263v-37h-311v30l264 444h-259v37h306z" />
    <glyph glyph-name="eta" unicode="&#x3b7;" horiz-adv-x="514" 
d="M427 511v-511h-39v246h-262v-246h-39v511h39v-229h262v229h39z" />
    <glyph glyph-name="theta" unicode="&#x3b8;" horiz-adv-x="508" 
d="M255 523q172 0 172 -173v-189q0 -173 -172 -173q-173 0 -173 173v189q0 85 41.5 129t131.5 44zM255 488q-134 0 -134 -130v-203q0 -132 134 -132q133 0 133 131v202q0 132 -133 132zM324 281v-36h-142v36h142z" />
    <glyph glyph-name="iota" unicode="&#x3b9;" horiz-adv-x="212" 
d="M126 511v-511h-39v511h39z" />
    <glyph glyph-name="kappa" unicode="&#x3ba;" horiz-adv-x="429" 
d="M414 511l-248 -247l268 -264h-54l-254 253v-253h-39v511h39v-241l240 241h48z" />
    <glyph glyph-name="lambda" unicode="&#x3bb;" horiz-adv-x="432" 
d="M243 511l175 -511h-43l-160 476l-157 -476h-43l174 511h54z" />
    <glyph glyph-name="uni03BC" unicode="&#x3bc;" horiz-adv-x="611" 
d="M524 511l6 -511h-39l-4 457l-158 -404h-46l-159 404l-4 -457h-38l5 511h56l163 -420l161 420h57z" />
    <glyph glyph-name="nu" unicode="&#x3bd;" horiz-adv-x="515" 
d="M429 511v-511h-52l-252 463v-463h-38v511h56l248 -459v459h38z" />
    <glyph glyph-name="xi" unicode="&#x3be;" horiz-adv-x="417" 
d="M361 511v-40h-304v40h304zM304 280v-40h-192v40h192zM361 39v-39h-304v39h304z" />
    <glyph glyph-name="omicron" unicode="&#x3bf;" horiz-adv-x="508" 
d="M255 523q172 0 172 -173v-189q0 -173 -172 -173q-173 0 -173 173v189q0 85 41.5 129t131.5 44zM255 488q-134 0 -134 -130v-203q0 -132 134 -132q133 0 133 131v202q0 132 -133 132z" />
    <glyph glyph-name="pi" unicode="&#x3c0;" horiz-adv-x="514" 
d="M427 511v-511h-39v474h-262v-474h-39v511h340z" />
    <glyph glyph-name="rho" unicode="&#x3c1;" horiz-adv-x="441" 
d="M221 523q183 0 183 -143v-24q0 -154 -177 -154q-39 0 -101 7v-209h-39v519q58 4 134 4zM219 488q-47 0 -93 -2v-242q43 -7 99 -7q74 0 107 31t33 93v14q0 58 -34.5 85.5t-111.5 27.5z" />
    <glyph glyph-name="sigma1" unicode="&#x3c2;" horiz-adv-x="393" 
d="M348 511v-37h-249l141 -204v-24l-144 -209h252v-37h-297v30l152 228l-152 222v31h297z" />
    <glyph glyph-name="sigma" unicode="&#x3c3;" horiz-adv-x="393" 
d="M348 511v-37h-249l141 -204v-24l-144 -209h252v-37h-297v30l152 228l-152 222v31h297z" />
    <glyph glyph-name="tau" unicode="&#x3c4;" horiz-adv-x="446" 
d="M409 511v-37h-166v-474h-39v474h-166v37h371z" />
    <glyph glyph-name="upsilon" unicode="&#x3c5;" horiz-adv-x="397" 
d="M378 511l-160 -335v-176h-39v176l-161 335h45l136 -295l134 295h45z" />
    <glyph glyph-name="phi" unicode="&#x3c6;" horiz-adv-x="658" 
d="M347 538v-64q35 5 62 5q92 0 130.5 -38.5t38.5 -119.5v-113q0 -81 -38.5 -119.5t-130.5 -38.5q-34 0 -62 4v-66h-39v65q-42 -4 -60 -4q-92 0 -130.5 38.5t-38.5 120.5v113q0 81 38.5 119.5t130.5 38.5q20 0 60 -4v63h39zM249 446q-70 0 -100.5 -27.5t-30.5 -89.5v-130
q0 -62 30 -89.5t101 -27.5q21 0 59 4v355q-32 5 -59 5zM409 446q-23 0 -61 -6v-354q38 -4 61 -4q70 0 100.5 27.5t30.5 89.5v130q0 62 -30.5 89.5t-100.5 27.5z" />
    <glyph glyph-name="chi" unicode="&#x3c7;" horiz-adv-x="414" 
d="M386 511l-156 -248l165 -263h-46l-143 231l-143 -231h-45l166 261l-157 250h45l135 -218l136 218h43z" />
    <glyph glyph-name="psi" unicode="&#x3c8;" horiz-adv-x="634" 
d="M549 511v-234q0 -136 -133 -136h-80v-141h-39v141h-80q-133 0 -133 138v232h39v-242q5 -92 94 -92h80v334h39v-334h80q94 0 94 92v242h39z" />
    <glyph glyph-name="omega" unicode="&#x3c9;" horiz-adv-x="509" 
d="M255 523q173 0 173 -172v-177q0 -98 -68 -137h76v-37h-158v34h8q44 0 73.5 37.5t29.5 91.5v195q0 130 -134 130t-134 -129v-196q0 -54 29.5 -91.5t73.5 -37.5h8v-34h-158v37h76q-68 39 -68 137v177q0 172 173 172z" />
    <glyph glyph-name="iotadieresis" unicode="&#x3ca;" horiz-adv-x="212" 
d="M126 511v-511h-39v511h39zM43 663q29 0 29 -23v-17q0 -23 -29 -23q-27 0 -27 23v17q0 23 27 23zM168 663q29 0 29 -23v-17q0 -23 -29 -23q-27 0 -27 23v17q0 23 27 23z" />
    <glyph glyph-name="upsilondieresis" unicode="&#x3cb;" horiz-adv-x="397" 
d="M134 663q29 0 29 -23v-17q0 -23 -29 -23q-27 0 -27 23v17q0 23 27 23zM259 663q29 0 29 -23v-17q0 -23 -29 -23q-27 0 -27 23v17q0 23 27 23zM378 511l-160 -335v-176h-39v176l-161 335h45l136 -295l134 295h45z" />
    <glyph glyph-name="omicrontonos" unicode="&#x3cc;" horiz-adv-x="508" 
d="M255 523q172 0 172 -173v-189q0 -173 -172 -173q-173 0 -173 173v189q0 85 41.5 129t131.5 44zM255 488q-134 0 -134 -130v-203q0 -132 134 -132q133 0 133 131v202q0 132 -133 132z" />
    <glyph glyph-name="upsilontonos" unicode="&#x3cd;" horiz-adv-x="397" 
d="M378 511l-160 -335v-176h-39v176l-161 335h45l136 -295l134 295h45z" />
    <glyph glyph-name="omegatonos" unicode="&#x3ce;" horiz-adv-x="509" 
d="M255 523q173 0 173 -172v-177q0 -98 -68 -137h76v-37h-158v34h8q44 0 73.5 37.5t29.5 91.5v195q0 130 -134 130t-134 -129v-196q0 -54 29.5 -91.5t73.5 -37.5h8v-34h-158v37h76q-68 39 -68 137v177q0 172 173 172z" />
    <glyph glyph-name="uni0401" unicode="&#x401;" horiz-adv-x="477" 
d="M401 655v-37h-274v-266h254v-38h-254v-277h274v-37h-314v655h314zM187 795q29 0 29 -24v-17q0 -24 -29 -24q-27 0 -27 24v17q0 11 7.5 17.5t19.5 6.5zM312 795q29 0 29 -24v-17q0 -24 -29 -24q-27 0 -27 24v17q0 11 7.5 17.5t19.5 6.5z" />
    <glyph glyph-name="uni0402" unicode="&#x402;" horiz-adv-x="701" 
d="M481 655v-37h-201v-211q92 20 163 20q200 0 200 -207v-106q0 -66 -28 -96t-89 -30q-36 0 -63 5v37q33 -5 67 -5q73 0 73 88v112q0 166 -161 166q-80 0 -162 -18v-373h-40v618h-202v37h443z" />
    <glyph glyph-name="uni0403" unicode="&#x403;" horiz-adv-x="434" 
d="M397 655v-37h-270v-618h-40v655h310zM310 825l-77 -119h-35l66 119h46z" />
    <glyph glyph-name="uni0404" unicode="&#x404;" horiz-adv-x="481" 
d="M282 667q46 0 128 -13l-2 -38q-77 14 -127 14q-86 0 -122.5 -36.5t-36.5 -124.5v-113h258v-37h-258v-134q0 -82 37.5 -120.5t123.5 -38.5q54 0 125 15l2 -39q-77 -14 -129 -14q-107 0 -153 48.5t-46 151.5v278q0 107 45.5 154t154.5 47z" />
    <glyph glyph-name="uni0405" unicode="&#x405;" horiz-adv-x="453" 
d="M238 667q54 0 122 -13v-38q-76 14 -122 14q-77 0 -109 -29.5t-32 -91.5v-27q0 -45 22 -71t82 -46l97 -32q61 -20 87 -56t26 -102v-19q0 -87 -46.5 -127.5t-155.5 -40.5q-54 0 -132 16l2 39q74 -17 129 -17q88 0 125.5 29.5t37.5 92.5v34q0 45 -21.5 72t-70.5 44l-108 36
q-61 21 -87.5 55t-26.5 96v18q0 84 43 124t138 40z" />
    <glyph glyph-name="uni0406" unicode="&#x406;" horiz-adv-x="213" 
d="M127 655v-655h-40v655h40z" />
    <glyph glyph-name="uni0407" unicode="&#x407;" horiz-adv-x="213" 
d="M127 655v-655h-40v655h40zM43 795q29 0 29 -24v-17q0 -24 -29 -24q-27 0 -27 24v17q0 11 7.5 17.5t19.5 6.5zM168 795q29 0 29 -24v-17q0 -24 -29 -24q-27 0 -27 24v17q0 11 7.5 17.5t19.5 6.5z" />
    <glyph glyph-name="uni0408" unicode="&#x408;" horiz-adv-x="269" 
d="M183 655v-541q0 -66 -28 -96t-90 -30q-36 0 -61 5l-1 37q33 -5 66 -5q74 0 74 88v542h40z" />
    <glyph glyph-name="uni0409" unicode="&#x409;" horiz-adv-x="857" 
d="M299 667q81 0 170 -7v-298q70 10 116 10q116 0 173 -45.5t57 -130.5v-22q0 -88 -54 -137t-164 -49q-86 0 -168 7v631q-60 5 -127 5q-85 0 -125.5 -38.5t-41.5 -127.5l-4 -286q-1 -105 -25 -148t-73 -43q-20 0 -35 5v35q33 -3 36 -3q26 0 41 32.5t16 115.5l4 282
q2 109 49 160.5t155 51.5zM580 335q-45 0 -112 -8v-295q63 -7 125 -7q181 0 181 150v18q0 142 -194 142z" />
    <glyph glyph-name="uni040A" unicode="&#x40a;" horiz-adv-x="882" 
d="M493 655v-293q70 10 116 10q116 0 173 -45.5t57 -130.5v-22q0 -88 -54 -137t-163 -49q-86 0 -169 7v325h-326v-320h-40v655h40v-298h326v298h40zM605 335q-45 0 -112 -8v-295q63 -7 125 -7q181 0 181 150v18q0 142 -194 142z" />
    <glyph glyph-name="uni040B" unicode="&#x40b;" horiz-adv-x="698" 
d="M481 655v-37h-201v-211q88 20 161 20q200 0 200 -207v-220h-40v225q0 82 -41 124t-121 42q-77 0 -159 -18v-373h-40v618h-202v37h443z" />
    <glyph glyph-name="uni040C" unicode="&#x40c;" horiz-adv-x="499" 
d="M467 655l-195 -311l226 -344h-49l-207 319h-115v-319h-40v655h40v-299h111l187 299h42zM334 825l-77 -119h-35l66 119h46z" />
    <glyph glyph-name="uni040E" unicode="&#x40e;" horiz-adv-x="475" 
d="M458 655l-290 -655h-42l96 215l-203 440h48l176 -396l173 396h42zM358 799v-44q-5 -5 -14.5 -11.5t-40.5 -18t-65 -11.5t-64.5 10t-43.5 20l-13 11v44q6 -5 16.5 -13t42 -21t62.5 -13t61 12t45 24z" />
    <glyph glyph-name="uni040F" unicode="&#x40f;" horiz-adv-x="579" 
d="M493 655v-655h-182v-130h-39v130h-185v655h40v-618h326v618h40z" />
    <glyph glyph-name="uni0410" unicode="&#x410;" horiz-adv-x="512" 
d="M279 655l219 -655h-45l-56 171h-285l-53 -171h-44l210 655h54zM251 617l-128 -408h262z" />
    <glyph glyph-name="uni0411" unicode="&#x411;" horiz-adv-x="516" 
d="M397 655v-37h-270v-256q70 10 117 10q115 0 172 -45.5t57 -130.5v-22q0 -88 -54 -137t-163 -49q-86 0 -169 7v660h310zM239 335q-45 0 -112 -8v-295q63 -7 125 -7q181 0 181 150v18q0 142 -194 142z" />
    <glyph glyph-name="uni0412" unicode="&#x412;" horiz-adv-x="527" 
d="M245 667q209 0 209 -159v-15q0 -118 -104 -157q61 -10 96 -51.5t35 -102.5v-21q0 -173 -223 -173q-74 0 -171 6v667q141 6 158 6zM234 630q-58 0 -107 -3v-278h155q57 0 95 40t38 96v14q0 68 -42.5 99.5t-138.5 31.5zM288 315h-161v-284q65 -6 131 -6q184 0 184 137v22
q0 58 -41 94.5t-113 36.5z" />
    <glyph glyph-name="uni0413" unicode="&#x413;" horiz-adv-x="434" 
d="M397 655v-37h-270v-618h-40v655h310z" />
    <glyph glyph-name="uni0414" unicode="&#x414;" horiz-adv-x="576" 
d="M308 667q92 0 177 -10v-620h60v-167h-40v130h-437v-130h-40v167h60v414q0 111 50 163.5t170 52.5zM302 631q-92 0 -133 -40.5t-41 -125.5v-428h317v587q-64 7 -143 7z" />
    <glyph glyph-name="uni0415" unicode="&#x415;" horiz-adv-x="477" 
d="M401 655v-37h-274v-266h254v-38h-254v-277h274v-37h-314v655h314z" />
    <glyph glyph-name="uni0416" unicode="&#x416;" horiz-adv-x="781" 
d="M744 655l-159 -317l168 -338h-47l-156 319h-139v-319h-40v319h-140l-156 -319h-46l168 338l-159 317h43l150 -299h140v299h40v-299h141l150 299h42z" />
    <glyph glyph-name="uni0417" unicode="&#x417;" horiz-adv-x="467" 
d="M179 667q111 0 161.5 -42.5t50.5 -125.5v-21q0 -49 -25 -86t-71 -52q52 -9 83 -48.5t31 -100.5v-28q0 -85 -53.5 -130t-175.5 -45q-52 0 -127 14l2 38q66 -15 124 -15q102 0 146 34t44 102v36q0 123 -164 123h-82v36h82q146 0 146 120v25q0 129 -172 129q-54 0 -124 -14
l-2 37q79 14 126 14z" />
    <glyph glyph-name="uni0418" unicode="&#x418;" horiz-adv-x="580" 
d="M494 655v-655h-40v592l-320 -592h-47v655h40v-592l320 592h47z" />
    <glyph glyph-name="uni0419" unicode="&#x419;" horiz-adv-x="580" 
d="M494 655v-655h-40v592l-320 -592h-47v655h40v-592l320 592h47zM410 799v-44q-5 -5 -14.5 -11.5t-40.5 -18t-65 -11.5t-64.5 10t-43.5 20l-13 11v44q6 -5 16.5 -13t42 -21t62.5 -13t61 12t45 24z" />
    <glyph glyph-name="uni041A" unicode="&#x41a;" horiz-adv-x="499" 
d="M467 655l-195 -311l226 -344h-49l-207 319h-115v-319h-40v655h40v-299h111l187 299h42z" />
    <glyph glyph-name="uni041B" unicode="&#x41b;" horiz-adv-x="555" 
d="M299 667q81 0 170 -7v-660h-40v626q-60 5 -127 5q-85 0 -125.5 -38.5t-41.5 -127.5l-4 -286q-1 -105 -25 -148t-73 -43q-20 0 -35 5v35q33 -3 36 -3q26 0 41 32.5t16 115.5l4 282q2 109 49 160.5t155 51.5z" />
    <glyph glyph-name="uni041C" unicode="&#x41c;" horiz-adv-x="698" 
d="M577 0l-5 599l-196 -531h-53l-196 531l-5 -599h-40l5 655h63l200 -547l200 547h62l5 -655h-40z" />
    <glyph glyph-name="uni041D" unicode="&#x41d;" horiz-adv-x="579" 
d="M493 655v-655h-40v320h-326v-320h-40v655h40v-298h326v298h40z" />
    <glyph glyph-name="uni041E" unicode="&#x41e;" horiz-adv-x="576" 
d="M288 667q109 0 158 -54.5t49 -161.5v-247q0 -216 -207 -216q-107 0 -156.5 53.5t-49.5 162.5v247q0 107 48.5 161.5t157.5 54.5zM288 631q-166 0 -166 -170v-266q0 -171 166 -171q167 0 167 171v265q0 171 -167 171z" />
    <glyph glyph-name="uni041F" unicode="&#x41f;" horiz-adv-x="579" 
d="M493 655v-655h-40v618h-326v-618h-40v655h406z" />
    <glyph glyph-name="uni0420" unicode="&#x420;" horiz-adv-x="506" 
d="M248 667q220 0 220 -181v-20q0 -97 -53.5 -148t-160.5 -51q-42 0 -127 12v-279h-40v662q95 5 161 5zM246 631q-11 0 -119 -4v-312q71 -11 125 -11q176 0 176 163v16q0 75 -44 111.5t-138 36.5z" />
    <glyph glyph-name="uni0421" unicode="&#x421;" horiz-adv-x="476" 
d="M282 667q46 0 128 -13l-2 -38q-77 14 -127 14q-86 0 -122.5 -36.5t-36.5 -124.5v-284q0 -82 37.5 -120.5t123.5 -38.5q54 0 125 15l2 -39q-77 -14 -129 -14q-107 0 -153 48.5t-46 151.5v278q0 107 45.5 154t154.5 47z" />
    <glyph glyph-name="uni0422" unicode="&#x422;" horiz-adv-x="519" 
d="M481 655v-37h-201v-618h-40v618h-202v37h443z" />
    <glyph glyph-name="uni0423" unicode="&#x423;" horiz-adv-x="475" 
d="M458 655l-290 -655h-42l96 215l-203 440h48l176 -396l173 396h42z" />
    <glyph glyph-name="uni0424" unicode="&#x424;" horiz-adv-x="762" 
d="M401 695v-56q37 6 77 6q110 0 156.5 -50.5t46.5 -161.5v-211q0 -110 -46 -161t-157 -51q-42 0 -77 7v-59h-40v58q-39 -6 -76 -6q-111 0 -157 51t-46 161v211q0 111 46 161.5t157 50.5q37 0 76 -6v56h40zM285 610q-87 0 -125 -39t-38 -127v-233q0 -88 37.5 -127t125.5 -39
q34 0 76 5v554q-50 6 -76 6zM477 610q-27 0 -77 -6v-553q38 -6 77 -6q88 0 125.5 39t37.5 127v233q0 88 -38 127t-125 39z" />
    <glyph glyph-name="uni0425" unicode="&#x425;" horiz-adv-x="491" 
d="M462 655l-190 -318l200 -337h-49l-179 302l-177 -302h-49l202 336l-191 319h49l169 -285l168 285h47z" />
    <glyph glyph-name="uni0426" unicode="&#x426;" horiz-adv-x="576" 
d="M485 655v-618h60v-167h-39v130h-419v655h40v-618h318v618h40z" />
    <glyph glyph-name="uni0427" unicode="&#x427;" 
d="M473 655v-655h-40v248q-93 -20 -161 -20q-195 0 -195 203v224h40v-227q0 -163 157 -163q77 0 159 18v372h40z" />
    <glyph glyph-name="uni0428" unicode="&#x428;" horiz-adv-x="755" 
d="M669 655v-655h-582v655h40v-618h231v618h40v-618h231v618h40z" />
    <glyph glyph-name="uni0429" unicode="&#x429;" horiz-adv-x="760" 
d="M669 655v-618h60v-167h-39v130h-603v655h40v-618h231v618h40v-618h231v618h40z" />
    <glyph glyph-name="uni042A" unicode="&#x42a;" horiz-adv-x="637" 
d="M248 655v-293q70 10 117 10q115 0 172 -45.5t57 -130.5v-22q0 -88 -54 -137t-163 -49q-86 0 -169 7v622h-180v38h220zM360 335q-45 0 -112 -8v-295q63 -7 125 -7q181 0 181 150v18q0 142 -194 142z" />
    <glyph glyph-name="uni042B" unicode="&#x42b;" horiz-adv-x="706" 
d="M127 655v-293q70 10 117 10q115 0 172 -45.5t57 -130.5v-22q0 -88 -54 -137t-163 -49q-86 0 -169 7v660h40zM619 655v-655h-40v655h40zM239 335q-45 0 -112 -8v-295q63 -7 125 -7q181 0 181 150v18q0 142 -194 142z" />
    <glyph glyph-name="uni042C" unicode="&#x42c;" horiz-adv-x="516" 
d="M127 655v-293q70 10 117 10q115 0 172 -45.5t57 -130.5v-22q0 -88 -54 -137t-163 -49q-86 0 -169 7v660h40zM239 335q-45 0 -112 -8v-295q63 -7 125 -7q181 0 181 150v18q0 142 -194 142z" />
    <glyph glyph-name="uni042D" unicode="&#x42d;" horiz-adv-x="486" 
d="M205 667q110 0 155 -48.5t45 -153.5v-275q0 -105 -46 -153.5t-156 -48.5q-49 0 -126 14l2 37q71 -15 124 -15q88 0 125 38.5t37 121.5v136h-258v36h258v116q0 86 -37 122.5t-125 36.5q-53 0 -124 -13l-2 36q82 13 128 13z" />
    <glyph glyph-name="uni042E" unicode="&#x42e;" horiz-adv-x="771" 
d="M498 667q98 0 145 -52.5t47 -161.5v-251q0 -214 -192 -214q-96 0 -143 51.5t-47 162.5v118h-181v-320h-40v655h40v-298h181v96q0 109 46.5 161.5t143.5 52.5zM498 631q-151 0 -151 -168v-270q0 -169 151 -169t151 169v269q0 169 -151 169z" />
    <glyph glyph-name="uni042F" unicode="&#x42f;" horiz-adv-x="535" 
d="M273 667q47 0 176 -6v-661h-40v284q-116 -12 -191 -3l-136 -281h-45l141 289q-117 37 -117 177v15q0 186 212 186zM272 631q-172 0 -172 -144v-25q0 -150 171 -150q68 0 137 7v307q-70 5 -136 5z" />
    <glyph glyph-name="uni0430" unicode="&#x430;" horiz-adv-x="431" 
d="M238 511l179 -511h-43l-44 130h-231l-43 -130h-41l173 511h50zM212 474l-103 -310h209z" />
    <glyph glyph-name="uni0431" unicode="&#x431;" horiz-adv-x="453" 
d="M347 511v-37h-221v-185q60 8 94 8q95 0 143 -38t48 -106v-17q0 -69 -46 -108.5t-137 -39.5q-69 0 -141 6v517h260zM216 263q-20 0 -90 -7v-228q45 -5 99 -5q74 0 110 30.5t36 83.5v14q0 112 -155 112z" />
    <glyph glyph-name="uni0432" unicode="&#x432;" horiz-adv-x="474" 
d="M222 523q172 0 172 -125v-13q0 -95 -85 -122q108 -22 108 -122v-16q0 -137 -186 -137q-63 0 -144 4v527l54 2q54 2 81 2zM212 488q-7 0 -21 -0.5t-34 -1.5t-31 -1v-209h123q48 0 77.5 29.5t29.5 71.5v14q0 50 -34 73.5t-110 23.5zM246 242h-120v-215q57 -4 106 -4
q146 0 146 103v17q0 46 -33.5 72.5t-98.5 26.5z" />
    <glyph glyph-name="uni0433" unicode="&#x433;" horiz-adv-x="384" 
d="M347 511v-37h-221v-474h-39v511h260z" />
    <glyph glyph-name="uni0434" unicode="&#x434;" horiz-adv-x="516" 
d="M275 523q80 0 149 -8v-478h49v-167h-39v130h-353v-130h-39v167h49v314q0 88 42 130t142 42zM271 489q-73 0 -106.5 -31.5t-33.5 -95.5v-325h254v447q-46 5 -114 5z" />
    <glyph glyph-name="uni0435" unicode="&#x435;" horiz-adv-x="428" 
d="M351 511v-37h-225v-197h209v-35h-209v-205h225v-37h-264v511h264z" />
    <glyph glyph-name="uni0436" unicode="&#x436;" horiz-adv-x="668" 
d="M627 511l-130 -246l139 -265h-45l-128 247h-109v-247h-39v247h-111l-127 -247h-44l139 265l-130 246h41l121 -229h111v229h39v-229h111l121 229h41z" />
    <glyph glyph-name="uni0437" unicode="&#x437;" horiz-adv-x="422" 
d="M165 523q172 0 172 -133v-16q0 -38 -21.5 -67t-58.5 -41q43 -8 69 -40t26 -78v-19q0 -68 -44 -104.5t-146 -36.5q-46 0 -109 13l2 35q56 -13 107 -13q151 0 151 105v26q0 92 -134 92h-68v35h69q118 0 118 90v20q0 97 -133 97q-54 0 -110 -13l-2 35q62 13 112 13z" />
    <glyph glyph-name="uni0438" unicode="&#x438;" horiz-adv-x="514" 
d="M427 511v-511h-39v447l-257 -447h-44v511h39v-449l258 449h43z" />
    <glyph glyph-name="uni0439" unicode="&#x439;" horiz-adv-x="514" 
d="M427 511v-511h-39v447l-257 -447h-44v511h39v-449l258 449h43zM376 650v-41q-6 -5 -16 -13t-41 -21.5t-63 -13.5q-31 0 -61 12t-44 24l-14 12v41q6 -6 17 -15t42.5 -24t59.5 -15q29 0 59 13.5t45 26.5z" />
    <glyph glyph-name="uni043A" unicode="&#x43a;" horiz-adv-x="436" 
d="M410 511l-162 -243l187 -268h-47l-171 247h-91v-247h-39v511h39v-230h88l153 230h43z" />
    <glyph glyph-name="uni043B" unicode="&#x43b;" horiz-adv-x="493" 
d="M264 523q70 0 142 -5v-518h-39v485q-43 3 -101 3q-67 0 -99.5 -29.5t-33.5 -95.5l-6 -229q-1 -80 -21.5 -113t-63.5 -33q-17 0 -29 3v34q16 -2 30 -2q44 0 47 104l5 229q2 85 40.5 126t128.5 41z" />
    <glyph glyph-name="uni043C" unicode="&#x43c;" horiz-adv-x="611" 
d="M524 511l6 -511h-39l-4 457l-158 -404h-46l-159 404l-4 -457h-38l5 511h56l163 -420l161 420h57z" />
    <glyph glyph-name="uni043D" unicode="&#x43d;" horiz-adv-x="514" 
d="M427 511v-511h-39v246h-262v-246h-39v511h39v-229h262v229h39z" />
    <glyph glyph-name="uni043E" unicode="&#x43e;" horiz-adv-x="508" 
d="M255 523q172 0 172 -173v-189q0 -173 -172 -173q-173 0 -173 173v189q0 85 41.5 129t131.5 44zM255 488q-134 0 -134 -130v-203q0 -132 134 -132q133 0 133 131v202q0 132 -133 132z" />
    <glyph glyph-name="uni043F" unicode="&#x43f;" horiz-adv-x="514" 
d="M427 511v-511h-39v474h-262v-474h-39v511h340z" />
    <glyph glyph-name="uni0440" unicode="&#x440;" horiz-adv-x="441" 
d="M221 523q183 0 183 -143v-24q0 -154 -177 -154q-39 0 -101 7v-209h-39v519q58 4 134 4zM219 488q-47 0 -93 -2v-242q43 -7 99 -7q74 0 107 31t33 93v14q0 58 -34.5 85.5t-111.5 27.5z" />
    <glyph glyph-name="uni0441" unicode="&#x441;" horiz-adv-x="424" 
d="M248 523q49 0 109 -13l-1 -35q-61 13 -108 13q-69 0 -98 -27.5t-29 -93.5v-224q0 -62 30 -90t99 -28q45 0 106 13l1 -37q-69 -13 -108 -13q-89 0 -128 38.5t-39 119.5v219q0 83 38 120.5t128 37.5z" />
    <glyph glyph-name="uni0442" unicode="&#x442;" horiz-adv-x="446" 
d="M409 511v-37h-166v-474h-39v474h-166v37h371z" />
    <glyph glyph-name="uni0443" unicode="&#x443;" horiz-adv-x="398" 
d="M389 511l-241 -511h-41l78 168l-166 343h45l142 -300l140 300h43z" />
    <glyph glyph-name="uni0444" unicode="&#x444;" horiz-adv-x="663" 
d="M352 543v-45q38 6 60 6q100 0 135 -45t35 -150v-108q0 -104 -35 -149t-135 -45q-28 0 -60 5v-45h-39v45q-35 -5 -61 -5q-101 0 -135.5 45t-34.5 150v107q0 105 34.5 150t135.5 45q21 0 61 -6v45h39zM254 470q-81 0 -107 -34t-26 -120v-144q0 -71 30.5 -101.5t102.5 -30.5
q21 0 59 4v422q-38 4 -59 4zM410 470q-21 0 -59 -4v-422q38 -4 59 -4q80 0 106 34.5t26 121.5v147q0 68 -30 97.5t-102 29.5z" />
    <glyph glyph-name="uni0445" unicode="&#x445;" horiz-adv-x="414" 
d="M386 511l-156 -248l165 -263h-46l-143 231l-143 -231h-45l166 261l-157 250h45l135 -218l136 218h43z" />
    <glyph glyph-name="uni0446" unicode="&#x446;" horiz-adv-x="514" 
d="M423 511v-474h49v-167h-39v130h-346v511h39v-474h258v474h39z" />
    <glyph glyph-name="uni0447" unicode="&#x447;" horiz-adv-x="494" 
d="M408 511v-511h-39v192q-75 -15 -129 -15q-164 0 -164 161v173h39v-176q0 -124 128 -124q58 0 126 13v287h39z" />
    <glyph glyph-name="uni0448" unicode="&#x448;" horiz-adv-x="659" 
d="M573 511v-511h-486v511h39v-474h184v474h39v-474h185v474h39z" />
    <glyph glyph-name="uni0449" unicode="&#x449;" horiz-adv-x="664" 
d="M573 511v-474h49v-167h-39v130h-496v511h39v-474h184v474h39v-474h185v474h39z" />
    <glyph glyph-name="uni044A" unicode="&#x44a;" horiz-adv-x="543" 
d="M216 511v-222q62 8 94 8q95 0 143 -38t48 -106v-17q0 -69 -45.5 -108.5t-136.5 -39.5q-69 0 -142 6v480h-149v37h188zM306 263q-20 0 -90 -7v-228q45 -5 99 -5q74 0 110 30.5t36 83.5v14q0 112 -155 112z" />
    <glyph glyph-name="uni044B" unicode="&#x44b;" horiz-adv-x="620" 
d="M126 511v-222q60 8 94 8q95 0 143 -38t48 -106v-17q0 -69 -46 -108.5t-137 -39.5q-69 0 -141 6v517h39zM533 511v-511h-39v511h39zM216 263q-20 0 -90 -7v-228q45 -5 99 -5q74 0 110 30.5t36 83.5v14q0 112 -155 112z" />
    <glyph glyph-name="uni044C" unicode="&#x44c;" horiz-adv-x="453" 
d="M126 511v-222q60 8 94 8q95 0 143 -38t48 -106v-17q0 -69 -46 -108.5t-137 -39.5q-69 0 -141 6v517h39zM216 263q-20 0 -90 -7v-228q45 -5 99 -5q74 0 110 30.5t36 83.5v14q0 112 -155 112z" />
    <glyph glyph-name="uni044D" unicode="&#x44d;" horiz-adv-x="434" 
d="M185 523q91 0 129 -39t38 -122v-213q0 -83 -38.5 -122t-130.5 -39q-48 0 -106 11l2 35q60 -12 103 -12q71 0 101 30t30 93v101h-211v35h211v86q0 65 -30 93t-101 28q-40 0 -103 -9l-2 33q60 11 108 11z" />
    <glyph glyph-name="uni044E" unicode="&#x44e;" horiz-adv-x="671" 
d="M430 523q160 0 160 -170v-195q0 -170 -160 -170t-160 170v87h-144v-245h-39v511h39v-229h144v71q0 170 160 170zM430 488q-121 0 -121 -127v-210q0 -128 121 -128t121 128v209q0 128 -121 128z" />
    <glyph glyph-name="uni044F" unicode="&#x44f;" horiz-adv-x="464" 
d="M228 523q49 0 150 -5v-518h-39v220q-49 -5 -111 -5q-15 0 -39 2l-108 -217h-44l114 224q-100 30 -100 139v11q0 149 177 149zM227 489q-138 0 -138 -110v-18q0 -54 35 -83.5t103 -29.5q59 0 111 5v232q-52 4 -111 4z" />
    <glyph glyph-name="uni0451" unicode="&#x451;" horiz-adv-x="428" 
d="M351 511v-37h-225v-197h209v-35h-209v-205h225v-37h-264v511h264zM155 663q29 0 29 -23v-17q0 -23 -29 -23q-27 0 -27 23v17q0 23 27 23zM280 663q29 0 29 -23v-17q0 -23 -29 -23q-27 0 -27 23v17q0 23 27 23z" />
    <glyph glyph-name="uni0452" unicode="&#x452;" horiz-adv-x="597" 
d="M409 511v-37h-166v-155q72 15 131 15q167 0 167 -162v-63q0 -64 -26.5 -92.5t-85.5 -28.5q-35 0 -62 5v36q26 -4 64 -4q36 0 53.5 19.5t17.5 63.5v68q0 123 -129 123q-71 0 -130 -13v-286h-39v474h-166v37h371z" />
    <glyph glyph-name="uni0453" unicode="&#x453;" horiz-adv-x="384" 
d="M347 511v-37h-221v-474h-39v511h260zM281 679l-76 -115h-35l66 115h45z" />
    <glyph glyph-name="uni0454" unicode="&#x454;" horiz-adv-x="429" 
d="M249 522q46 0 108 -10l-1 -36q-59 11 -107 11q-69 0 -98.5 -28.5t-29.5 -94.5v-83h211v-36h-211v-99q0 -62 30.5 -91.5t100.5 -29.5q42 0 104 11l1 -37q-58 -11 -106 -11q-92 0 -130.5 39.5t-38.5 121.5v213q0 83 38 121.5t129 38.5z" />
    <glyph glyph-name="uni0455" unicode="&#x455;" horiz-adv-x="389" 
d="M201 523q48 0 103 -11v-35q-70 11 -103 11q-113 0 -113 -90v-23q0 -33 17.5 -52.5t65.5 -34.5l80 -25q51 -16 73 -44.5t22 -80.5v-18q0 -68 -39 -100t-130 -32q-42 0 -111 13l1 37q71 -13 108 -13q72 0 102 21t30 68v30q0 63 -73 85l-90 28q-52 16 -73.5 44.5t-21.5 78.5
v12q0 66 36.5 98.5t115.5 32.5z" />
    <glyph glyph-name="uni0456" unicode="&#x456;" horiz-adv-x="212" 
d="M126 511v-511h-39v511h39z" />
    <glyph glyph-name="uni0457" unicode="&#x457;" horiz-adv-x="212" 
d="M126 511v-511h-39v511h39zM43 663q29 0 29 -23v-17q0 -23 -29 -23q-27 0 -27 23v17q0 23 27 23zM168 663q29 0 29 -23v-17q0 -23 -29 -23q-27 0 -27 23v17q0 23 27 23z" />
    <glyph glyph-name="uni0458" unicode="&#x458;" horiz-adv-x="243" 
d="M157 511v-419q0 -55 -24 -79.5t-77 -24.5q-35 0 -53 4v35q28 -4 55 -4q60 0 60 67v421h39z" />
    <glyph glyph-name="uni0459" unicode="&#x459;" horiz-adv-x="733" 
d="M264 523q70 0 142 -5v-229q60 8 94 8q95 0 142.5 -37.5t47.5 -106.5v-17q0 -69 -45.5 -108.5t-136.5 -39.5q-69 0 -141 6v491q-42 3 -101 3q-67 0 -99.5 -29.5t-33.5 -95.5l-6 -229q-1 -80 -21.5 -113t-63.5 -33q-17 0 -29 3v34q16 -2 30 -2q44 0 47 104l5 229
q2 85 41 126t128 41zM496 263q-20 0 -90 -7v-228q45 -5 99 -5q74 0 110 30.5t36 83.5v14q0 112 -155 112z" />
    <glyph glyph-name="uni045A" unicode="&#x45a;" horiz-adv-x="754" 
d="M427 511v-222q62 8 94 8q95 0 143 -38t48 -106v-17q0 -69 -45.5 -108.5t-136.5 -39.5q-70 0 -142 6v252h-262v-246h-39v511h39v-229h262v229h39zM517 263q-20 0 -90 -7v-228q45 -5 99 -5q74 0 110 30.5t36 83.5v14q0 112 -155 112z" />
    <glyph glyph-name="uni045B" unicode="&#x45b;" horiz-adv-x="597" 
d="M409 511v-37h-166v-155q73 15 130 15q167 0 167 -162v-172h-39v176q0 123 -129 123q-70 0 -129 -13v-286h-39v474h-166v37h371z" />
    <glyph glyph-name="uni045C" unicode="&#x45c;" horiz-adv-x="436" 
d="M410 511l-162 -243l187 -268h-47l-171 247h-91v-247h-39v511h39v-230h88l153 230h43zM308 679l-76 -115h-35l66 115h45z" />
    <glyph glyph-name="uni045E" unicode="&#x45e;" horiz-adv-x="398" 
d="M389 511l-241 -511h-41l78 168l-166 343h45l142 -300l140 300h43zM320 650v-41q-6 -5 -16 -13t-41 -21.5t-63 -13.5q-31 0 -61 12t-44 24l-14 12v41q6 -6 17 -15t42.5 -24t59.5 -15q29 0 59 13.5t45 26.5z" />
    <glyph glyph-name="uni045F" unicode="&#x45f;" horiz-adv-x="509" 
d="M423 511v-511h-149v-130h-38v130h-149v511h39v-474h258v474h39z" />
    <glyph glyph-name="uni0462" unicode="&#x462;" horiz-adv-x="668" 
d="M481 655v-37h-201v-256q70 10 116 10q116 0 173 -45.5t57 -130.5v-22q0 -88 -54 -137t-164 -49q-86 0 -168 7v623h-202v37h443zM391 335q-45 0 -112 -8v-295q63 -7 125 -7q181 0 181 150v18q0 142 -194 142z" />
    <glyph glyph-name="uni0463" unicode="&#x463;" horiz-adv-x="570" 
d="M409 511v-37h-166v-185q60 8 94 8q95 0 142.5 -37.5t47.5 -106.5v-17q0 -69 -45.5 -108.5t-136.5 -39.5q-66 0 -141 5v481h-166v37h371zM333 263q-20 0 -90 -7v-228q45 -5 99 -5q74 0 110 30.5t36 83.5v14q0 112 -155 112z" />
    <glyph glyph-name="uni0472" unicode="&#x472;" horiz-adv-x="576" 
d="M288 667q109 0 158 -54.5t49 -161.5v-247q0 -216 -207 -216q-107 0 -156.5 53.5t-49.5 162.5v247q0 107 48.5 161.5t157.5 54.5zM288 631q-166 0 -166 -170v-105h333v104q0 171 -167 171zM455 319h-333v-124q0 -171 166 -171q167 0 167 171v124z" />
    <glyph glyph-name="uni0473" unicode="&#x473;" horiz-adv-x="508" 
d="M255 523q172 0 172 -173v-189q0 -173 -172 -173q-173 0 -173 173v189q0 85 41.5 129t131.5 44zM255 488q-134 0 -134 -130v-77h267v75q0 132 -133 132zM388 245h-267v-90q0 -132 134 -132q133 0 133 131v91z" />
    <glyph glyph-name="uni0474" unicode="&#x474;" horiz-adv-x="533" 
d="M521 667q33 0 57 -7v-35q-26 6 -50 6q-26 0 -40 -20.5t-38 -94.5l-166 -516h-56l-210 655h45l193 -613l149 474q29 92 51.5 121.5t64.5 29.5z" />
    <glyph glyph-name="uni0475" unicode="&#x475;" horiz-adv-x="439" 
d="M440 523q21 0 45 -4v-35q-20 4 -41 4t-33.5 -17t-30.5 -70l-136 -401h-54l-172 511h43l156 -472l120 362q24 72 45 97t58 25z" />
    <glyph glyph-name="uni0490" unicode="&#x490;" horiz-adv-x="434" 
d="M397 785v-167h-270v-618h-40v655h271v130h39z" />
    <glyph glyph-name="uni0491" unicode="&#x491;" horiz-adv-x="384" 
d="M347 641v-167h-221v-474h-39v511h221v130h39z" />
    <glyph glyph-name="uni0492" unicode="&#x492;" horiz-adv-x="439" 
d="M402 655v-37h-270v-266h156v-37h-156v-315h-40v315h-66v37h66v303h310z" />
    <glyph glyph-name="uni0493" unicode="&#x493;" horiz-adv-x="389" 
d="M351 511v-37h-220v-196h126v-35h-126v-243h-39v243h-56v35h56v233h259z" />
    <glyph glyph-name="uni0496" unicode="&#x496;" horiz-adv-x="781" 
d="M744 655l-159 -317l149 -301h54v-167h-39v130h-43l-156 319h-139v-319h-40v319h-140l-156 -319h-46l168 338l-159 317h42l150 -299h141v299h40v-299h141l150 299h42z" />
    <glyph glyph-name="uni0497" unicode="&#x497;" horiz-adv-x="668" 
d="M627 511l-130 -246l119 -228h54v-167h-39v130h-40l-128 247h-109v-247h-39v247h-111l-127 -247h-44l139 265l-130 246h41l121 -229h111v229h39v-229h111l121 229h41z" />
    <glyph glyph-name="uni0498" unicode="&#x498;" horiz-adv-x="467" 
d="M179 667q111 0 161.5 -42.5t50.5 -125.5v-21q0 -49 -25 -86t-71 -52q52 -9 83 -48.5t31 -100.5v-28q0 -157 -180 -173l-10 -33h14q29 0 49 -19t20 -48v-12q0 -75 -86 -75q-18 0 -48 5v30q23 -5 41 -5q32 0 45 11t13 35v10q-1 43 -51 43h-34v14l14 43q-62 -3 -143 13l2 38
q66 -15 124 -15q102 0 146 34t44 102v36q0 123 -164 123h-82v36h82q146 0 146 120v25q0 129 -172 129q-54 0 -124 -14l-2 37q79 14 126 14z" />
    <glyph glyph-name="uni0499" unicode="&#x499;" horiz-adv-x="422" 
d="M160 523q177 0 177 -133v-16q0 -37 -21 -66.5t-59 -41.5q43 -8 69 -40t26 -78v-21q0 -59 -34 -94t-113 -43l-10 -33h14q30 0 49.5 -19t19.5 -48v-12q0 -75 -85 -75q-19 0 -49 5v30q23 -5 42 -5q31 0 44 11t13 35v10q-1 43 -51 43h-33v14l13 43q-49 -1 -119 9l2 35
q58 -10 104 -10q82 0 118 26.5t36 77.5v27q0 92 -134 92h-68v35h69q118 0 118 90v20q0 97 -139 97q-46 0 -104 -10l-2 34q58 11 107 11z" />
    <glyph glyph-name="uni049A" unicode="&#x49a;" horiz-adv-x="499" 
d="M467 655l-195 -311l202 -307h55v-167h-39v130h-41l-207 319h-115v-319h-40v655h40v-299h111l187 299h42z" />
    <glyph glyph-name="uni049B" unicode="&#x49b;" horiz-adv-x="436" 
d="M410 511l-162 -243l162 -231h49v-167h-38v130h-33l-171 247h-91v-247h-39v511h39v-230h88l153 230h43z" />
    <glyph glyph-name="uni049C" unicode="&#x49c;" horiz-adv-x="505" 
d="M473 655l-191 -311l222 -344h-49l-203 319h-36v-219h-34v219h-55v-319h-40v655h40v-299h55v144h34v-144h31l183 299h43z" />
    <glyph glyph-name="uni049D" unicode="&#x49d;" horiz-adv-x="441" 
d="M416 511l-160 -243l185 -268h-48l-167 246h-26v-186h-32v186h-42v-246h-39v511h39v-230h42v160h32v-160h23l150 230h43z" />
    <glyph glyph-name="uni04A0" unicode="&#x4a0;" horiz-adv-x="620" 
d="M588 655l-195 -311l226 -344h-49l-207 319h-115v-319h-40v617h-180v38h220v-299h111l187 299h42z" />
    <glyph glyph-name="uni04A1" unicode="&#x4a1;" horiz-adv-x="527" 
d="M501 511l-162 -243l187 -268h-47l-171 247h-91v-247h-39v474h-150v37h189v-230h88l153 230h43z" />
    <glyph glyph-name="uni04A2" unicode="&#x4a2;" horiz-adv-x="584" 
d="M493 655v-618h60v-167h-39v130h-61v320h-326v-320h-40v655h40v-298h326v298h40z" />
    <glyph glyph-name="uni04A3" unicode="&#x4a3;" horiz-adv-x="519" 
d="M427 511v-474h50v-167h-39v130h-50v246h-262v-246h-39v511h39v-229h262v229h39z" />
    <glyph glyph-name="uni04AA" unicode="&#x4aa;" horiz-adv-x="477" 
d="M282 667q46 0 128 -13l-2 -38q-77 14 -127 14q-86 0 -122.5 -36.5t-36.5 -124.5v-284q0 -82 37.5 -120.5t123.5 -38.5q54 0 125 15l2 -39q-43 -14 -66.5 -44.5t-23.5 -61.5v-8q0 -51 54 -51q16 0 36 5v-34q-21 -5 -44 -5q-39 0 -61 21t-22 57v9q0 28 16 56t42 46
q-25 -4 -60 -4q-107 0 -153 48.5t-46 151.5v278q0 107 45.5 154t154.5 47z" />
    <glyph glyph-name="uni04AB" unicode="&#x4ab;" horiz-adv-x="426" 
d="M249 523q50 0 108 -11l-1 -34q-70 10 -107 10q-70 0 -99 -27.5t-29 -93.5v-224q0 -62 30.5 -90t100.5 -28q42 0 104 11l1 -36q-7 -2 -19 -4q-30 -17 -49 -45t-19 -55v-8q0 -51 53 -51q17 0 37 5v-34q-21 -5 -44 -5q-39 0 -61.5 21t-22.5 57v9q0 59 56 100
q-112 -5 -159 30t-47 126v219q0 83 38 120.5t129 37.5z" />
    <glyph glyph-name="uni04AE" unicode="&#x4ae;" horiz-adv-x="463" 
d="M444 655l-193 -430v-225h-40v225l-193 430h47l167 -385l166 385h46z" />
    <glyph glyph-name="uni04AF" unicode="&#x4af;" horiz-adv-x="397" 
d="M378 511l-160 -335v-176h-39v176l-161 335h45l136 -295l134 295h45z" />
    <glyph glyph-name="uni04B0" unicode="&#x4b0;" horiz-adv-x="463" 
d="M444 655l-182 -404h100v-37h-111v-214h-40v214h-111v37h100l-182 404h47l167 -385l166 385h46z" />
    <glyph glyph-name="uni04B1" unicode="&#x4b1;" horiz-adv-x="397" 
d="M378 511l-152 -313h83v-37h-91v-161h-39v161h-90v37h80l-151 313h45l136 -295l134 295h45z" />
    <glyph glyph-name="uni04B2" unicode="&#x4b2;" horiz-adv-x="491" 
d="M462 655l-190 -318l178 -300h56v-167h-39v130h-44l-179 302l-177 -302h-49l202 336l-191 319h49l169 -285l168 285h47z" />
    <glyph glyph-name="uni04B3" unicode="&#x4b3;" horiz-adv-x="414" 
d="M386 511l-156 -248l142 -226h50v-167h-39v130h-34l-143 231l-143 -231h-45l166 261l-157 250h45l135 -218l136 218h43z" />
    <glyph glyph-name="uni04B8" unicode="&#x4b8;" 
d="M473 655v-655h-40v248q-73 -17 -137 -20v-128h-34v128q-185 5 -185 203v224h40v-227q0 -155 145 -163v235h34v-235q80 3 137 18v372h40z" />
    <glyph glyph-name="uni04B9" unicode="&#x4b9;" horiz-adv-x="494" 
d="M408 511v-511h-39v192q-66 -13 -102 -15v-119h-32v119q-159 3 -159 161v173h39v-176q0 -120 120 -123v238h32v-239q42 2 102 13v287h39z" />
    <glyph glyph-name="uni04BA" unicode="&#x4ba;" horiz-adv-x="545" 
d="M127 655v-248q92 20 161 20q199 0 199 -207v-220h-40v225q0 166 -161 166q-77 0 -159 -18v-373h-40v655h40z" />
    <glyph glyph-name="uni04BB" unicode="&#x4bb;" horiz-adv-x="480" 
d="M126 511v-192q73 15 130 15q167 0 167 -162v-172h-39v176q0 123 -129 123q-71 0 -129 -13v-286h-39v511h39z" />
    <glyph glyph-name="uni04C0" unicode="&#x4c0;" horiz-adv-x="213" 
d="M127 655v-655h-40v655h40z" />
    <glyph glyph-name="uni04CB" unicode="&#x4cb;" horiz-adv-x="565" 
d="M473 655v-618h60v-167h-39v130h-61v248q-93 -20 -161 -20q-195 0 -195 203v224h40v-227q0 -163 157 -163q77 0 159 18v372h40z" />
    <glyph glyph-name="uni04CC" unicode="&#x4cc;" horiz-adv-x="491" 
d="M408 511v-474h51v-167h-39v130h-51v192q-75 -15 -129 -15q-164 0 -164 161v173h39v-176q0 -124 128 -124q58 0 126 13v287h39z" />
    <glyph glyph-name="uni04CF" unicode="&#x4cf;" horiz-adv-x="212" 
d="M126 511v-511h-39v511h39z" />
    <glyph glyph-name="uni04D8" unicode="&#x4d8;" horiz-adv-x="566" 
d="M263 667q123 0 172.5 -47.5t49.5 -154.5v-260q0 -217 -202 -217q-201 0 -201 215v153h363v120q0 86 -39.5 120.5t-142.5 34.5q-51 0 -128 -15l-2 36q77 15 130 15zM445 319h-323v-125q0 -169 161 -169q162 0 162 169v125z" />
    <glyph glyph-name="uni04D9" unicode="&#x4d9;" horiz-adv-x="500" 
d="M234 523q103 0 144 -37.5t41 -122.5v-202q0 -173 -168 -173q-169 0 -169 169v124h298v89q0 65 -32 91.5t-114 26.5q-54 0 -109 -11l-2 34q69 12 111 12zM380 245h-259v-93q0 -129 130 -129q129 0 129 129v93z" />
    <glyph glyph-name="uni04E2" unicode="&#x4e2;" horiz-adv-x="580" 
d="M494 655v-655h-40v592l-320 -592h-47v655h40v-592l320 592h47zM396 765v-39h-212v39h212z" />
    <glyph glyph-name="uni04E3" unicode="&#x4e3;" horiz-adv-x="514" 
d="M427 511v-511h-39v447l-257 -447h-44v511h39v-449l258 449h43zM357 619v-37h-201v37h201z" />
    <glyph glyph-name="uni04E8" unicode="&#x4e8;" horiz-adv-x="576" 
d="M288 667q109 0 158 -54.5t49 -161.5v-247q0 -216 -207 -216q-107 0 -156.5 53.5t-49.5 162.5v247q0 107 48.5 161.5t157.5 54.5zM288 631q-166 0 -166 -170v-105h333v104q0 171 -167 171zM455 319h-333v-124q0 -171 166 -171q167 0 167 171v124z" />
    <glyph glyph-name="uni04E9" unicode="&#x4e9;" horiz-adv-x="508" 
d="M255 523q172 0 172 -173v-189q0 -173 -172 -173q-173 0 -173 173v189q0 85 41.5 129t131.5 44zM255 488q-134 0 -134 -130v-77h267v75q0 132 -133 132zM388 245h-267v-90q0 -132 134 -132q133 0 133 131v91z" />
    <glyph glyph-name="uni04EE" unicode="&#x4ee;" horiz-adv-x="475" 
d="M458 655l-290 -655h-42l96 215l-203 440h48l176 -396l173 396h42zM344 765v-39h-212v39h212z" />
    <glyph glyph-name="uni04EF" unicode="&#x4ef;" horiz-adv-x="398" 
d="M389 511l-241 -511h-41l78 168l-166 343h45l142 -300l140 300h43zM301 619v-37h-201v37h201z" />
    <glyph glyph-name="Wgrave" unicode="&#x1e80;" horiz-adv-x="832" 
d="M804 655l-163 -655h-60l-165 609l-164 -609h-59l-164 655h44l151 -611l163 611h59l164 -611l150 611h44zM373 825l66 -119h-35l-77 119h46z" />
    <glyph glyph-name="wgrave" unicode="&#x1e81;" horiz-adv-x="703" 
d="M674 511l-132 -511h-56l-134 473l-133 -473h-56l-134 511h43l120 -469l133 469h54l132 -469l121 469h42zM310 679l65 -115h-35l-76 115h46z" />
    <glyph glyph-name="Wacute" unicode="&#x1e82;" horiz-adv-x="832" 
d="M804 655l-163 -655h-60l-165 609l-164 -609h-59l-164 655h44l151 -611l163 611h59l164 -611l150 611h44zM502 825l-77 -119h-35l66 119h46z" />
    <glyph glyph-name="wacute" unicode="&#x1e83;" horiz-adv-x="703" 
d="M674 511l-132 -511h-56l-134 473l-133 -473h-56l-134 511h43l120 -469l133 469h54l132 -469l121 469h42zM439 679l-76 -115h-35l66 115h45z" />
    <glyph glyph-name="Wdieresis" unicode="&#x1e84;" horiz-adv-x="832" 
d="M804 655l-163 -655h-60l-165 609l-164 -609h-59l-164 655h44l151 -611l163 611h59l164 -611l150 611h44zM352 795q29 0 29 -24v-17q0 -24 -29 -24q-27 0 -27 24v17q0 11 7.5 17.5t19.5 6.5zM477 795q29 0 29 -24v-17q0 -24 -29 -24q-27 0 -27 24v17q0 11 7.5 17.5
t19.5 6.5z" />
    <glyph glyph-name="wdieresis" unicode="&#x1e85;" horiz-adv-x="703" 
d="M674 511l-132 -511h-56l-134 473l-133 -473h-56l-134 511h43l120 -469l133 469h54l132 -469l121 469h42zM288 663q29 0 29 -23v-17q0 -23 -29 -23q-27 0 -27 23v17q0 23 27 23zM413 663q29 0 29 -23v-17q0 -23 -29 -23q-27 0 -27 23v17q0 23 27 23z" />
    <glyph glyph-name="Ygrave" unicode="&#x1ef2;" horiz-adv-x="463" 
d="M444 655l-193 -430v-225h-40v225l-193 430h47l167 -385l166 385h46zM189 825l66 -119h-35l-77 119h46z" />
    <glyph glyph-name="ygrave" unicode="&#x1ef3;" horiz-adv-x="397" 
d="M378 511l-160 -335v-176h-39v176l-161 335h45l136 -295l134 295h45zM156 679l65 -115h-35l-76 115h46z" />
    <glyph glyph-name="uni2007" unicode="&#x2007;" horiz-adv-x="510" 
 />
    <glyph glyph-name="uni2008" unicode="&#x2008;" horiz-adv-x="223" 
 />
    <glyph glyph-name="uni200B" unicode="&#x200b;" horiz-adv-x="0" 
 />
    <glyph glyph-name="endash" unicode="&#x2013;" horiz-adv-x="610" 
d="M534 313v-34h-457v34h457z" />
    <glyph glyph-name="emdash" unicode="&#x2014;" horiz-adv-x="710" 
d="M634 313v-34h-557v34h557z" />
    <glyph glyph-name="afii00208" unicode="&#x2015;" horiz-adv-x="610" 
d="M534 313v-34h-457v34h457z" />
    <glyph glyph-name="quoteleft" unicode="&#x2018;" horiz-adv-x="197" 
d="M125 690l-14 -59q20 -4 20 -24v-17q0 -26 -32 -26t-32 26v18q0 16 5 29l17 53h36z" />
    <glyph glyph-name="quoteright" unicode="&#x2019;" horiz-adv-x="197" 
d="M98 690q33 0 33 -27v-18q0 -12 -5 -29l-18 -53h-35l13 59q-19 6 -19 24v17q0 27 31 27z" />
    <glyph glyph-name="quotesinglbase" unicode="&#x201a;" horiz-adv-x="197" 
d="M98 58q33 0 33 -26v-19q0 -12 -5 -29l-18 -52h-35l13 58q-19 6 -19 24v18q0 26 31 26z" />
    <glyph glyph-name="quotedblleft" unicode="&#x201c;" horiz-adv-x="299" 
d="M125 690l-14 -59q20 -6 20 -24v-17q0 -27 -32 -27t-32 27v18q0 16 5 29l17 53h36zM227 690l-14 -59q20 -6 20 -24v-17q0 -27 -32 -27t-32 27v18q0 16 5 29l17 53h36z" />
    <glyph glyph-name="quotedblright" unicode="&#x201d;" horiz-adv-x="299" 
d="M98 690q33 0 33 -27v-18q0 -12 -5 -29l-18 -53h-35l13 59q-19 6 -19 24v17q0 27 31 27zM200 690q33 0 33 -27v-18q0 -12 -5 -29l-18 -53h-35l13 59q-19 6 -19 24v17q0 27 31 27z" />
    <glyph glyph-name="quotedblbase" unicode="&#x201e;" horiz-adv-x="299" 
d="M98 58q33 0 33 -26v-19q0 -12 -5 -29l-18 -52h-35l13 58q-19 6 -19 24v18q0 26 31 26zM200 58q33 0 33 -26v-19q0 -12 -5 -29l-18 -52h-35l13 58q-19 6 -19 24v18q0 26 31 26z" />
    <glyph glyph-name="dagger" unicode="&#x2020;" horiz-adv-x="420" 
d="M231 655v-167h163v-39h-163v-449h-41v449h-163v39h163v167h41z" />
    <glyph glyph-name="daggerdbl" unicode="&#x2021;" horiz-adv-x="440" 
d="M241 655v-167h163v-39h-163v-184h163v-39h-163v-226h-41v226h-163v39h163v184h-163v39h163v167h41z" />
    <glyph glyph-name="bullet" unicode="&#x2022;" horiz-adv-x="217" 
d="M108 316q43 0 43 -34v-29q0 -34 -43 -34q-41 0 -41 34v29q0 34 41 34z" />
    <glyph glyph-name="ellipsis" unicode="&#x2026;" horiz-adv-x="460" 
d="M230 59q33 0 33 -29v-15q0 -27 -33 -27q-32 0 -32 27v15q0 29 32 29zM99 59q33 0 33 -29v-15q0 -27 -33 -27q-32 0 -32 27v15q0 29 32 29zM361 59q33 0 33 -29v-15q0 -27 -33 -27q-32 0 -32 27v15q0 29 32 29z" />
    <glyph glyph-name="perthousand" unicode="&#x2030;" horiz-adv-x="1249" 
d="M205 625q145 0 145 -152v-45q0 -74 -37.5 -113.5t-110.5 -39.5q-145 0 -145 153v45q0 73 37.5 112.5t110.5 39.5zM626 613l-334 -613h-42l333 613h43zM203 588q-107 0 -107 -115v-45q0 -116 107 -116q106 0 106 116v45q0 115 -106 115zM675 338q145 0 145 -152v-45
q0 -74 -37.5 -113.5t-110.5 -39.5q-145 0 -145 153v45q0 73 37.5 112.5t110.5 39.5zM1059 338q145 0 145 -152v-45q0 -74 -37.5 -113.5t-110.5 -39.5q-145 0 -145 153v45q0 73 37.5 112.5t110.5 39.5zM673 301q-107 0 -107 -115v-45q0 -116 107 -116q106 0 106 116v45
q0 115 -106 115zM1058 301q-107 0 -107 -115v-45q0 -116 107 -116q106 0 106 116v45q0 115 -106 115z" />
    <glyph glyph-name="guilsinglleft" unicode="&#x2039;" horiz-adv-x="292" 
d="M216 438l-93 -170l92 -170h-40l-98 170l99 170h40z" />
    <glyph glyph-name="guilsinglright" unicode="&#x203a;" horiz-adv-x="292" 
d="M117 438l99 -170l-98 -170h-40l92 170l-93 170h40z" />
    <glyph glyph-name="fraction" unicode="&#x2044;" horiz-adv-x="380" 
d="M360 601l-305 -601h-37l305 601h37z" />
    <glyph glyph-name="uni2070" unicode="&#x2070;" horiz-adv-x="400" 
d="M200 760q133 0 133 -142v-154q0 -68 -34 -104.5t-99 -36.5q-133 0 -133 141v154q0 142 133 142zM201 726q-95 0 -95 -102v-166q0 -102 95 -102q46 0 69.5 27t23.5 75v166q0 102 -93 102z" />
    <glyph glyph-name="uni2074" unicode="&#x2074;" horiz-adv-x="400" 
d="M185 752l-95 -298h165v163h37v-163h56v-33h-56v-90h-38v90h-193l-11 22l100 309h35z" />
    <glyph glyph-name="uni2075" unicode="&#x2075;" horiz-adv-x="400" 
d="M289 754v-34h-179v-171q46 49 117 49q50 0 75 -28t25 -91v-25q0 -131 -140 -131q-59 0 -106 13v33q56 -13 105 -13q102 0 102 98v28q0 45 -17 64t-55 19q-63 0 -116 -63h-27v252h216z" />
    <glyph glyph-name="uni2076" unicode="&#x2076;" horiz-adv-x="400" 
d="M307 753v-34q-107 -5 -153.5 -45.5t-46.5 -115.5v-5q55 50 119 50q50 0 78 -31t28 -93v-27q0 -129 -134 -129q-130 0 -130 133v92q0 199 239 205zM217 569q-52 0 -110 -50v-67q0 -96 92 -96q95 0 95 93v33q0 42 -20.5 64.5t-56.5 22.5z" />
    <glyph glyph-name="uni2077" unicode="&#x2077;" horiz-adv-x="400" 
d="M327 751v-28l-169 -392h-40l167 387h-214v33h256z" />
    <glyph glyph-name="uni2078" unicode="&#x2078;" horiz-adv-x="400" 
d="M200 760q56 0 87.5 -27.5t31.5 -80.5v-5q0 -30 -15 -54.5t-40 -35.5q37 -12 56 -39.5t19 -63.5v-11q0 -120 -139 -120q-141 0 -141 120v11q0 78 76 103q-26 11 -41 35.5t-15 54.5v5q0 52 32 80t89 28zM200 729q-84 0 -84 -75v-11q0 -32 21 -52.5t63 -20.5q41 0 62 20.5
t21 52.5v11q0 75 -83 75zM200 540q-49 0 -76 -22.5t-27 -62.5v-19q0 -39 27 -60t76 -21q48 0 75 21t27 60v19q0 40 -27 62.5t-75 22.5z" />
    <glyph glyph-name="uni2079" unicode="&#x2079;" horiz-adv-x="400" 
d="M201 759q64 0 97.5 -34.5t33.5 -99.5v-147q0 -81 -34 -118t-112 -37q-38 0 -98 11v33q73 -11 98 -11q56 0 81.5 28t25.5 88v57q-55 -50 -117 -50q-51 0 -79.5 32t-28.5 92v27q0 62 34.5 95.5t98.5 33.5zM201 726q-94 0 -94 -93v-32q0 -88 79 -88q50 0 108 50v67
q0 96 -93 96z" />
    <glyph glyph-name="uni207A" unicode="&#x207a;" horiz-adv-x="400" 
d="M217 673v-113h110v-33h-110v-112h-35v112h-110v33h110v113h35z" />
    <glyph glyph-name="uni207B" unicode="&#x207b;" horiz-adv-x="400" 
d="M327 560v-33h-254v33h254z" />
    <glyph glyph-name="uni207C" unicode="&#x207c;" horiz-adv-x="400" 
d="M326 623v-32h-253v32h253zM326 497v-33h-253v33h253z" />
    <glyph glyph-name="uni207D" unicode="&#x207d;" horiz-adv-x="400" 
d="M264 802v-32q-56 -4 -73 -23.5t-17 -82.5v-221q0 -71 16 -91.5t74 -24.5v-32q-72 0 -100.5 30.5t-28.5 116.5v216q0 84 28.5 114t100.5 30z" />
    <glyph glyph-name="uni207E" unicode="&#x207e;" horiz-adv-x="400" 
d="M136 770v32q72 0 100.5 -30t28.5 -114v-216q0 -86 -28.5 -116.5t-100.5 -30.5v32q57 4 73.5 25t16.5 91v221q0 62 -17.5 82t-72.5 24z" />
    <glyph glyph-name="uni2080" unicode="&#x2080;" horiz-adv-x="400" 
d="M200 279q133 0 133 -142v-154q0 -68 -34 -104.5t-99 -36.5q-133 0 -133 141v154q0 142 133 142zM201 245q-95 0 -95 -102v-166q0 -102 95 -102q46 0 69.5 27t23.5 75v166q0 102 -93 102z" />
    <glyph glyph-name="uni2081" unicode="&#x2081;" horiz-adv-x="400" 
d="M231 271v-388h91v-33h-231v33h102v349h-1l-104 -44l-10 34l120 49h33z" />
    <glyph glyph-name="uni2082" unicode="&#x2082;" horiz-adv-x="400" 
d="M189 279q125 0 125 -104v-14q0 -34 -12.5 -63t-47.5 -69l-122 -146h181v-33h-229v30l153 185q39 48 39 96v11q0 38 -21 56t-66 18t-91 -12v34q52 11 91 11z" />
    <glyph glyph-name="uni2083" unicode="&#x2083;" horiz-adv-x="400" 
d="M182 279q120 0 120 -107v-7q0 -70 -58 -96q67 -24 67 -98v-7q0 -122 -127 -122q-36 0 -95 9v32q59 -9 95 -9q88 0 88 84v15q0 37 -22 58t-58 21h-81v30h81q34 0 52.5 20.5t18.5 57.5v16q0 71 -81 71q-41 0 -93 -10v33q59 9 93 9z" />
    <glyph glyph-name="uni2084" unicode="&#x2084;" horiz-adv-x="400" 
d="M185 271l-95 -298h165v163h37v-163h56v-33h-56v-90h-38v90h-193l-11 22l100 309h35z" />
    <glyph glyph-name="uni2085" unicode="&#x2085;" horiz-adv-x="400" 
d="M289 273v-34h-179v-171q46 49 117 49q50 0 75 -28t25 -91v-25q0 -131 -140 -131q-59 0 -106 13v33q56 -13 105 -13q102 0 102 98v28q0 45 -17 64t-55 19q-63 0 -116 -63h-27v252h216z" />
    <glyph glyph-name="uni2086" unicode="&#x2086;" horiz-adv-x="400" 
d="M307 272v-34q-107 -5 -153.5 -45.5t-46.5 -115.5v-5q55 50 119 50q50 0 78 -31t28 -93v-27q0 -129 -134 -129q-130 0 -130 133v92q0 199 239 205zM217 88q-52 0 -110 -50v-67q0 -96 92 -96q95 0 95 93v33q0 42 -20.5 64.5t-56.5 22.5z" />
    <glyph glyph-name="uni2087" unicode="&#x2087;" horiz-adv-x="400" 
d="M327 270v-28l-169 -392h-40l167 387h-214v33h256z" />
    <glyph glyph-name="uni2088" unicode="&#x2088;" horiz-adv-x="400" 
d="M200 279q56 0 87.5 -27.5t31.5 -80.5v-5q0 -30 -15 -54.5t-40 -35.5q37 -12 56 -39.5t19 -63.5v-11q0 -120 -139 -120q-141 0 -141 120v11q0 78 76 103q-26 11 -41 35.5t-15 54.5v5q0 52 32 80t89 28zM200 248q-84 0 -84 -75v-11q0 -32 21 -52.5t63 -20.5q41 0 62 20.5
t21 52.5v11q0 75 -83 75zM200 59q-49 0 -76 -22.5t-27 -62.5v-19q0 -39 27 -60t76 -21q48 0 75 21t27 60v19q0 40 -27 62.5t-75 22.5z" />
    <glyph glyph-name="uni2089" unicode="&#x2089;" horiz-adv-x="400" 
d="M201 278q64 0 97.5 -34.5t33.5 -99.5v-147q0 -81 -34 -118t-112 -37q-38 0 -98 11v33q73 -11 98 -11q56 0 81.5 28t25.5 88v57q-55 -50 -117 -50q-51 0 -79.5 32t-28.5 92v27q0 62 34.5 95.5t98.5 33.5zM201 245q-94 0 -94 -93v-32q0 -88 79 -88q50 0 108 50v67
q0 96 -93 96z" />
    <glyph glyph-name="uni208A" unicode="&#x208a;" horiz-adv-x="400" 
d="M217 192v-113h110v-33h-110v-112h-35v112h-110v33h110v113h35z" />
    <glyph glyph-name="uni208B" unicode="&#x208b;" horiz-adv-x="400" 
d="M327 79v-33h-254v33h254z" />
    <glyph glyph-name="uni208C" unicode="&#x208c;" horiz-adv-x="400" 
d="M326 142v-32h-253v32h253zM326 16v-33h-253v33h253z" />
    <glyph glyph-name="uni208D" unicode="&#x208d;" horiz-adv-x="400" 
d="M264 321v-32q-56 -4 -73 -23.5t-17 -82.5v-221q0 -71 16 -91.5t74 -24.5v-32q-72 0 -100.5 30.5t-28.5 116.5v216q0 84 28.5 114t100.5 30z" />
    <glyph glyph-name="uni208E" unicode="&#x208e;" horiz-adv-x="400" 
d="M136 289v32q72 0 100.5 -30t28.5 -114v-216q0 -86 -28.5 -116.5t-100.5 -30.5v32q57 4 73.5 25t16.5 91v221q0 62 -17.5 82t-72.5 24z" />
    <glyph glyph-name="Euro" unicode="&#x20ac;" horiz-adv-x="436" 
d="M272 613q51 0 128 -14l-2 -36q-74 13 -127 13q-78 0 -109 -36t-31 -124v-36h214l-10 -35h-204v-97h208l-10 -35h-198v-28q0 -84 32.5 -122t110.5 -38q56 0 124 14l2 -37q-77 -14 -126 -14q-102 0 -142.5 48.5t-40.5 153.5v23h-69l10 35h59v97h-68l10 35h58v32
q0 107 40.5 154t140.5 47z" />
    <glyph glyph-name="uni2116" unicode="&#x2116;" horiz-adv-x="1014" 
d="M438 0l-311 606v-606h-40v655h62l307 -602v602h40v-655h-58zM778 667q166 0 166 -183v-86q0 -183 -166 -183q-83 0 -123.5 45t-40.5 138v86q0 183 164 183zM778 631q-124 0 -124 -140v-100q0 -140 124 -140q125 0 125 140v101q0 139 -125 139zM942 35v-35h-327v35h327z
" />
    <glyph glyph-name="trademark" unicode="&#x2122;" horiz-adv-x="781" 
d="M331 683v-33h-116v-300h-37v300h-117v33h270zM716 683l4 -333h-38l-1 277l-103 -246h-34l-102 246l-6 -277h-38l9 333h48l107 -259l106 259h48z" />
    <glyph glyph-name="Omega" unicode="&#x2126;" horiz-adv-x="576" 
d="M289 667q108 0 157 -54.5t49 -160.5v-235q0 -129 -88 -179h98v-38h-188v35h9q55 0 92 51t37 123v252q0 170 -166 170q-167 0 -167 -169v-253q0 -72 37 -123t92 -51h9v-35h-188v38h98q-88 50 -88 179v235q0 107 49 161t158 54z" />
    <glyph glyph-name="estimated" unicode="&#x212e;" horiz-adv-x="955" 
d="M477 703q165 0 284 -106.5t119 -269.5h-657v-218q30 -45 104.5 -71t150.5 -26q75 0 147.5 25.5t112.5 72.5h58q-118 -137 -319 -137q-172 0 -287 102.5t-115 259.5q0 156 117.5 262t284.5 106zM478 664q-172 0 -255 -101v-196h509v195q-94 102 -254 102z" />
    <glyph glyph-name="onethird" unicode="&#x2153;" horiz-adv-x="1000" 
d="M263 602v-388h91v-33h-231v33h102v349h-1l-104 -44l-10 34l120 49h33zM671 601l-305 -601h-37l305 601h37zM760 429q120 0 120 -107v-7q0 -70 -58 -96q67 -24 67 -98v-7q0 -122 -127 -122q-36 0 -95 9v32q59 -9 95 -9q88 0 88 84v15q0 37 -22 58t-58 21h-81v30h81
q34 0 52.5 20.5t18.5 57.5v16q0 71 -81 71q-41 0 -93 -10v33q59 9 93 9z" />
    <glyph glyph-name="twothirds" unicode="&#x2154;" horiz-adv-x="1000" 
d="M220 610q125 0 125 -104v-14q0 -34 -12.5 -63t-47.5 -69l-122 -146h181v-33h-229v30l153 185q39 48 39 96v11q0 38 -21 56t-66 18t-91 -12v34q52 11 91 11zM670 601l-305 -601h-37l305 601h37zM755 429q120 0 120 -107v-7q0 -70 -58 -96q67 -24 67 -98v-7
q0 -122 -127 -122q-36 0 -95 9v32q58 -9 95 -9q88 0 88 84v15q0 37 -22 58t-58 21h-81v30h81q34 0 52.5 20.5t18.5 57.5v16q0 71 -81 71q-41 0 -93 -10v33q59 9 93 9z" />
    <glyph glyph-name="arrowleft" unicode="&#x2190;" horiz-adv-x="900" 
d="M387 649l29 -29l-271 -278h353v-40h-353l271 -278l-29 -29l-317 327zM679 342v-40h-127v40h127zM830 342v-40h-97v40h97z" />
    <glyph glyph-name="arrowup" unicode="&#x2191;" horiz-adv-x="900" 
d="M450 695l326 -316l-28 -29l-277 270v-353h-42v353l-277 -270l-28 29zM471 213v-128h-42v128h42zM471 31v-97h-42v97h42z" />
    <glyph glyph-name="arrowright" unicode="&#x2192;" horiz-adv-x="900" 
d="M514 649l316 -327l-316 -327l-29 29l270 278h-353v40h353l-270 278zM167 342v-40h-97v40h97zM348 342v-40h-127v40h127z" />
    <glyph glyph-name="arrowdown" unicode="&#x2193;" horiz-adv-x="900" 
d="M471 703v-97h-42v97h42zM471 552v-128h-42v128h42zM471 370v-353l277 270l28 -29l-326 -316l-326 316l28 29l277 -270v353h42z" />
    <glyph glyph-name="arrowboth" unicode="&#x2194;" horiz-adv-x="1289" 
d="M387 649l29 -29l-271 -278h283v-40h-283l271 -278l-29 -29l-317 327zM903 649l316 -327l-316 -327l-29 29l270 278h-283v40h283l-270 278zM563 342v-40h-81v40h81zM672 342v-40h-55v40h55zM807 342v-40h-81v40h81z" />
    <glyph glyph-name="arrowupdn" unicode="&#x2195;" horiz-adv-x="1202" 
d="M601 824l326 -315l-28 -30l-277 271v-284h-42v284l-277 -271l-28 30zM622 412v-81h-42v81h42zM622 277v-55h-42v55h42zM622 168v-81h-42v81h42zM899 20l28 -30l-326 -315l-326 315l28 30l277 -271v284h42v-284z" />
    <glyph glyph-name="uni2196" unicode="&#x2196;" horiz-adv-x="900" 
d="M632 613v-42l-388 -5l250 -249l-28 -28l-250 250l-5 -389h-41l7 456zM532 279l91 -91l-28 -28l-91 91zM661 150l69 -68l-28 -28l-69 68z" />
    <glyph glyph-name="uni2197" unicode="&#x2197;" horiz-adv-x="900" 
d="M267 613l455 -7l7 -456h-41l-5 389l-250 -250l-27 28l249 249l-388 5v42zM368 279l28 -28l-91 -91l-28 28zM239 150l28 -28l-69 -68l-28 28z" />
    <glyph glyph-name="uni2198" unicode="&#x2198;" horiz-adv-x="900" 
d="M338 425l-69 69l-74 73l28 28l57 -56l86 -86zM688 524h41l-7 -456l-455 -7v42l388 5l-249 249l27 28l250 -250z" />
    <glyph glyph-name="uni2199" unicode="&#x2199;" horiz-adv-x="900" 
d="M702 620l28 -28l-69 -68l-28 28zM211 524l5 -389l250 250l28 -28l-250 -249l388 -5v-42l-455 7l-7 456h41zM595 514l28 -28l-91 -91l-28 28z" />
    <glyph glyph-name="partialdiff" unicode="&#x2202;" horiz-adv-x="461" 
d="M107 662v33q136 0 209.5 -92.5t73.5 -274.5v-162q0 -88 -39 -133t-123 -45q-86 0 -123.5 39.5t-37.5 129.5v115q0 167 121 167q90 0 162 -114v35q0 140 -64 221t-179 81zM196 402q-47 0 -68 -32t-21 -110v-112q0 -66 29.5 -95t91.5 -29q122 0 122 124v133
q-27 46 -70.5 83.5t-83.5 37.5z" />
    <glyph glyph-name="Delta" unicode="&#x2206;" horiz-adv-x="501" 
d="M275 655l205 -626v-29h-460v28l205 627h50zM250 616l-186 -579h372z" />
    <glyph glyph-name="product" unicode="&#x220f;" horiz-adv-x="559" 
d="M561 655v-38h-90v-802h-40v802h-302v-802h-40v802h-90v38h562z" />
    <glyph glyph-name="summation" unicode="&#x2211;" horiz-adv-x="399" 
d="M383 655v-38h-318l194 -366v-29l-194 -369h318v-38h-366v33l203 388l-203 386v33h366z" />
    <glyph glyph-name="minus" unicode="&#x2212;" horiz-adv-x="398" 
d="M365 323v-35h-333v35h333z" />
    <glyph glyph-name="uni2219" unicode="&#x2219;" horiz-adv-x="198" 
d="M99 260q33 0 33 -29v-15q0 -27 -33 -27q-32 0 -32 27v15q0 29 32 29z" />
    <glyph glyph-name="radical" unicode="&#x221a;" horiz-adv-x="476" 
d="M556 683v-39h-89l-225 -644h-51l-163 488h46l143 -449l221 644h118z" />
    <glyph glyph-name="infinity" unicode="&#x221e;" horiz-adv-x="517" 
d="M364 432q70 0 101 -33t31 -97v-11q0 -130 -132 -130q-73 0 -105 54q-32 -54 -106 -54q-70 0 -100.5 33t-30.5 97v11q0 63 30.5 96.5t100.5 33.5q74 0 106 -54q32 54 105 54zM150 396q-89 0 -89 -91v-16q0 -92 89 -92q91 0 91 92v16q0 91 -91 91zM367 396q-90 0 -90 -91
v-16q0 -92 90 -92t90 92v16q0 91 -90 91z" />
    <glyph glyph-name="integral" unicode="&#x222b;" horiz-adv-x="300" 
d="M247 695q29 0 55 -6v-34q-30 5 -57 5q-75 0 -75 -99v-617q0 -74 -29 -107.5t-89 -33.5q-29 0 -55 6v34q30 -5 57 -5q76 0 76 98v619q0 73 29 106.5t88 33.5z" />
    <glyph glyph-name="approxequal" unicode="&#x2248;" horiz-adv-x="398" 
d="M130 418q34 0 72 -16t69 -16q16 0 39.5 6t39.5 12l15 5v-38q-44 -25 -96 -25q-35 0 -72 16.5t-69 16.5q-16 0 -39.5 -6t-38.5 -12l-16 -6v39q44 24 96 24zM130 271q34 0 72 -16.5t69 -16.5q16 0 39.5 6t39.5 12l15 6v-39q-44 -24 -96 -24q-35 0 -72 16t-69 16
q-16 0 -39.5 -5.5t-38.5 -11.5l-16 -6v38q44 25 96 25z" />
    <glyph glyph-name="notequal" unicode="&#x2260;" horiz-adv-x="398" 
d="M333 489l-49 -77h81v-35h-102l-94 -150h196v-35h-218l-44 -72h-37l43 72h-76v35h99l94 150h-193v35h214l49 77h37z" />
    <glyph glyph-name="lessequal" unicode="&#x2264;" horiz-adv-x="398" 
d="M369 472v-43l-302 -137l302 -136v-42l-341 159v39zM369 34v-34h-341v34h341z" />
    <glyph glyph-name="greaterequal" unicode="&#x2265;" horiz-adv-x="398" 
d="M28 472l341 -160v-39l-341 -159v42l302 136l-302 137v43zM369 34v-34h-341v34h341z" />
    <glyph glyph-name="dotmath" unicode="&#x22c5;" horiz-adv-x="198" 
d="M99 260q33 0 33 -29v-15q0 -27 -33 -27q-32 0 -32 27v15q0 29 32 29z" />
    <glyph glyph-name="uni25AF" unicode="&#x25af;" horiz-adv-x="494" 
d="M86 0v655h322v-655h-322zM121 35h252v585h-252v-585z" />
    <glyph glyph-name="lozenge" unicode="&#x25ca;" horiz-adv-x="522" 
d="M281 683l232 -341l-232 -342h-40l-232 342l232 341h40zM261 647l-203 -305l203 -302l203 302z" />
    <glyph glyph-name="uniFB00" unicode="&#xfb00;" horiz-adv-x="806" 
d="M351 511v-37h-225v-197h171v-35h-171v-242h-39v511h264zM754 511v-37h-225v-197h171v-35h-171v-242h-39v511h264z" />
    <glyph glyph-name="fi" unicode="&#xfb01;" horiz-adv-x="615" 
d="M351 511v-37h-225v-197h171v-35h-171v-242h-39v511h264zM529 511v-511h-39v511h39z" />
    <glyph glyph-name="fl" unicode="&#xfb02;" horiz-adv-x="793" 
d="M351 511v-37h-225v-197h171v-35h-171v-242h-39v511h264zM529 511v-474h227v-37h-266v511h39z" />
    <glyph glyph-name="uniFB03" unicode="&#xfb03;" horiz-adv-x="1018" 
d="M351 511v-37h-225v-197h171v-35h-171v-242h-39v511h264zM754 511v-37h-225v-197h171v-35h-171v-242h-39v511h264zM932 511v-511h-39v511h39z" />
    <glyph glyph-name="uniFB04" unicode="&#xfb04;" horiz-adv-x="1196" 
d="M351 511v-37h-225v-197h171v-35h-171v-242h-39v511h264zM754 511v-37h-225v-197h171v-35h-171v-242h-39v511h264zM932 511v-474h227v-37h-266v511h39z" />
    <glyph glyph-name="uniFB06" unicode="&#xfb06;" horiz-adv-x="828" 
d="M201 523q48 0 103 -11v-35q-70 11 -103 11q-113 0 -113 -90v-23q0 -33 17.5 -52.5t65.5 -34.5l80 -25q51 -16 73 -44.5t22 -80.5v-18q0 -68 -39 -100t-130 -32q-42 0 -111 13l1 37q71 -13 108 -13q72 0 102 21t30 68v30q0 63 -73 85l-90 28q-52 16 -73.5 44.5t-21.5 78.5
v12q0 66 36.5 98.5t115.5 32.5zM791 511v-37h-166v-474h-39v474h-166v37h371z" />
    <glyph glyph-name="uniFEFF" unicode="&#xfeff;" horiz-adv-x="0" 
 />
    <glyph glyph-name="Ldot.latn_CAT" horiz-adv-x="440" 
d="M127 655v-618h276v-37h-316v655h40zM310 382q32 0 32 -27v-17q0 -27 -32 -27q-30 0 -30 27v17q0 27 30 27z" />
    <glyph glyph-name="parenleft.numr" horiz-adv-x="400" 
d="M264 652v-32q-56 -4 -73 -23.5t-17 -82.5v-221q0 -71 16 -91.5t74 -24.5v-32q-72 0 -100.5 30.5t-28.5 116.5v216q0 84 28.5 114t100.5 30z" />
    <glyph glyph-name="parenright.numr" horiz-adv-x="400" 
d="M136 620v32q72 0 100.5 -30t28.5 -114v-216q0 -86 -28.5 -116.5t-100.5 -30.5v32q57 4 73.5 25t16.5 91v221q0 62 -17.5 82t-72.5 24z" />
    <glyph glyph-name="plus.numr" horiz-adv-x="400" 
d="M217 523v-113h110v-33h-110v-112h-35v112h-110v33h110v113h35z" />
    <glyph glyph-name="zero.numr" horiz-adv-x="400" 
d="M200 610q133 0 133 -142v-154q0 -68 -34 -104.5t-99 -36.5q-133 0 -133 141v154q0 142 133 142zM201 576q-95 0 -95 -102v-166q0 -102 95 -102q46 0 69.5 27t23.5 75v166q0 102 -93 102z" />
    <glyph glyph-name="one.numr" horiz-adv-x="400" 
d="M231 602v-388h91v-33h-231v33h102v349h-1l-104 -44l-10 34l120 49h33z" />
    <glyph glyph-name="two.numr" horiz-adv-x="400" 
d="M189 610q125 0 125 -104v-14q0 -34 -12.5 -63t-47.5 -69l-122 -146h181v-33h-229v30l153 185q39 48 39 96v11q0 38 -21 56t-66 18t-91 -12v34q52 11 91 11z" />
    <glyph glyph-name="three.numr" horiz-adv-x="400" 
d="M182 610q120 0 120 -107v-7q0 -70 -58 -96q67 -24 67 -98v-7q0 -122 -127 -122q-36 0 -95 9v32q59 -9 95 -9q88 0 88 84v15q0 37 -22 58t-58 21h-81v30h81q34 0 52.5 20.5t18.5 57.5v16q0 71 -81 71q-41 0 -93 -10v33q59 9 93 9z" />
    <glyph glyph-name="four.numr" horiz-adv-x="400" 
d="M185 602l-95 -298h165v163h37v-163h56v-33h-56v-90h-38v90h-193l-11 22l100 309h35z" />
    <glyph glyph-name="five.numr" horiz-adv-x="400" 
d="M289 604v-34h-179v-171q46 49 117 49q50 0 75 -28t25 -91v-25q0 -131 -140 -131q-59 0 -106 13v33q56 -13 105 -13q102 0 102 98v28q0 45 -17 64t-55 19q-63 0 -116 -63h-27v252h216z" />
    <glyph glyph-name="six.numr" horiz-adv-x="400" 
d="M307 603v-34q-107 -5 -153.5 -45.5t-46.5 -115.5v-5q55 50 119 50q50 0 78 -31t28 -93v-27q0 -129 -134 -129q-130 0 -130 133v92q0 199 239 205zM217 419q-52 0 -110 -50v-67q0 -96 92 -96q95 0 95 93v33q0 42 -20.5 64.5t-56.5 22.5z" />
    <glyph glyph-name="seven.numr" horiz-adv-x="400" 
d="M327 601v-28l-169 -392h-40l167 387h-214v33h256z" />
    <glyph glyph-name="eight.numr" horiz-adv-x="400" 
d="M200 610q56 0 87.5 -27.5t31.5 -80.5v-5q0 -30 -15 -54.5t-40 -35.5q37 -12 56 -39.5t19 -63.5v-11q0 -120 -139 -120q-141 0 -141 120v11q0 78 76 103q-26 11 -41 35.5t-15 54.5v5q0 52 32 80t89 28zM200 579q-84 0 -84 -75v-11q0 -32 21 -52.5t63 -20.5q41 0 62 20.5
t21 52.5v11q0 75 -83 75zM200 390q-49 0 -76 -22.5t-27 -62.5v-19q0 -39 27 -60t76 -21q48 0 75 21t27 60v19q0 40 -27 62.5t-75 22.5z" />
    <glyph glyph-name="nine.numr" horiz-adv-x="400" 
d="M201 609q64 0 97.5 -34.5t33.5 -99.5v-147q0 -81 -34 -118t-112 -37q-38 0 -98 11v33q73 -11 98 -11q56 0 81.5 28t25.5 88v57q-55 -50 -117 -50q-51 0 -79.5 32t-28.5 92v27q0 62 34.5 95.5t98.5 33.5zM201 576q-94 0 -94 -93v-32q0 -88 79 -88q50 0 108 50v67
q0 96 -93 96z" />
    <glyph glyph-name="equal.numr" horiz-adv-x="400" 
d="M326 473v-32h-253v32h253zM326 347v-33h-253v33h253z" />
    <glyph glyph-name="minus.numr" horiz-adv-x="400" 
d="M327 410v-33h-254v33h254z" />
    <glyph glyph-name="parenleft.dnom" horiz-adv-x="400" 
d="M264 471v-32q-56 -4 -73 -23.5t-17 -82.5v-221q0 -71 16 -91.5t74 -24.5v-32q-72 0 -100.5 30.5t-28.5 116.5v216q0 84 28.5 114t100.5 30z" />
    <glyph glyph-name="parenright.dnom" horiz-adv-x="400" 
d="M136 439v32q72 0 100.5 -30t28.5 -114v-216q0 -86 -28.5 -116.5t-100.5 -30.5v32q57 4 73.5 25t16.5 91v221q0 62 -17.5 82t-72.5 24z" />
    <glyph glyph-name="plus.dnom" horiz-adv-x="400" 
d="M217 342v-113h110v-33h-110v-112h-35v112h-110v33h110v113h35z" />
    <glyph glyph-name="zero.dnom" horiz-adv-x="400" 
d="M200 429q133 0 133 -142v-154q0 -68 -34 -104.5t-99 -36.5q-133 0 -133 141v154q0 142 133 142zM201 395q-95 0 -95 -102v-166q0 -102 95 -102q46 0 69.5 27t23.5 75v166q0 102 -93 102z" />
    <glyph glyph-name="one.dnom" horiz-adv-x="400" 
d="M231 421v-388h91v-33h-231v33h102v349h-1l-104 -44l-10 34l120 49h33z" />
    <glyph glyph-name="two.dnom" horiz-adv-x="400" 
d="M189 429q125 0 125 -104v-14q0 -34 -12.5 -63t-47.5 -69l-122 -146h181v-33h-229v30l153 185q39 48 39 96v11q0 38 -21 56t-66 18t-91 -12v34q52 11 91 11z" />
    <glyph glyph-name="three.dnom" horiz-adv-x="400" 
d="M182 429q120 0 120 -107v-7q0 -70 -58 -96q67 -24 67 -98v-7q0 -122 -127 -122q-36 0 -95 9v32q59 -9 95 -9q88 0 88 84v15q0 37 -22 58t-58 21h-81v30h81q34 0 52.5 20.5t18.5 57.5v16q0 71 -81 71q-41 0 -93 -10v33q59 9 93 9z" />
    <glyph glyph-name="four.dnom" horiz-adv-x="400" 
d="M185 421l-95 -298h165v163h37v-163h56v-33h-56v-90h-38v90h-193l-11 22l100 309h35z" />
    <glyph glyph-name="five.dnom" horiz-adv-x="400" 
d="M289 423v-34h-179v-171q46 49 117 49q50 0 75 -28t25 -91v-25q0 -131 -140 -131q-59 0 -106 13v33q56 -13 105 -13q102 0 102 98v28q0 45 -17 64t-55 19q-63 0 -116 -63h-27v252h216z" />
    <glyph glyph-name="six.dnom" horiz-adv-x="400" 
d="M307 422v-34q-107 -5 -153.5 -45.5t-46.5 -115.5v-5q55 50 119 50q50 0 78 -31t28 -93v-27q0 -129 -134 -129q-130 0 -130 133v92q0 199 239 205zM217 238q-52 0 -110 -50v-67q0 -96 92 -96q95 0 95 93v33q0 42 -20.5 64.5t-56.5 22.5z" />
    <glyph glyph-name="seven.dnom" horiz-adv-x="400" 
d="M327 420v-28l-169 -392h-40l167 387h-214v33h256z" />
    <glyph glyph-name="eight.dnom" horiz-adv-x="400" 
d="M200 429q56 0 87.5 -27.5t31.5 -80.5v-5q0 -30 -15 -54.5t-40 -35.5q37 -12 56 -39.5t19 -63.5v-11q0 -120 -139 -120q-141 0 -141 120v11q0 78 76 103q-26 11 -41 35.5t-15 54.5v5q0 52 32 80t89 28zM200 398q-84 0 -84 -75v-11q0 -32 21 -52.5t63 -20.5q41 0 62 20.5
t21 52.5v11q0 75 -83 75zM200 209q-49 0 -76 -22.5t-27 -62.5v-19q0 -39 27 -60t76 -21q48 0 75 21t27 60v19q0 40 -27 62.5t-75 22.5z" />
    <glyph glyph-name="nine.dnom" horiz-adv-x="400" 
d="M201 428q64 0 97.5 -34.5t33.5 -99.5v-147q0 -81 -34 -118t-112 -37q-38 0 -98 11v33q73 -11 98 -11q56 0 81.5 28t25.5 88v57q-55 -50 -117 -50q-51 0 -79.5 32t-28.5 92v27q0 62 34.5 95.5t98.5 33.5zM201 395q-94 0 -94 -93v-32q0 -88 79 -88q50 0 108 50v67
q0 96 -93 96z" />
    <glyph glyph-name="equal.dnom" horiz-adv-x="400" 
d="M326 292v-32h-253v32h253zM326 166v-33h-253v33h253z" />
    <glyph glyph-name="minus.dnom" horiz-adv-x="400" 
d="M327 229v-33h-254v33h254z" />
    <glyph glyph-name="space.frac" horiz-adv-x="60" 
 />
    <glyph glyph-name="quotedbl.osf" horiz-adv-x="290" 
d="M98 683v-254h-41v254h41zM234 683v-254h-41v254h41z" />
    <glyph glyph-name="numbersign.osf" horiz-adv-x="530" 
d="M417 523v-114h89v-34h-89v-227h89v-34h-89v-114h-41v114h-223v-114h-41v114h-89v34h89v227h-89v34h89v114h41v-114h223v114h41zM376 375h-223v-227h223v227z" />
    <glyph glyph-name="dollar.osf" horiz-adv-x="386" 
d="M219 605v-82q28 -2 94 -13v-35q-83 13 -112 13q-64 0 -92.5 -22.5t-28.5 -67.5v-23q0 -33 19 -51.5t73 -35.5l79 -25q57 -17 80.5 -45t23.5 -80v-18q0 -60 -31.5 -91.5t-104.5 -38.5v-84h-38v82q-46 0 -123 15l1 37q83 -15 117 -15q76 0 108 21t32 68v30q0 33 -18.5 52
t-63.5 33l-90 28q-57 18 -80 45.5t-23 77.5v12q0 62 33.5 94.5t106.5 36.5v82h38z" />
    <glyph glyph-name="percent.osf" horiz-adv-x="865" 
d="M205 625q145 0 145 -152v-45q0 -74 -37.5 -113.5t-110.5 -39.5q-145 0 -145 153v45q0 73 37.5 112.5t110.5 39.5zM626 613l-334 -613h-42l333 613h43zM203 588q-107 0 -107 -115v-45q0 -116 107 -116q106 0 106 116v45q0 115 -106 115zM675 338q145 0 145 -152v-45
q0 -74 -37.5 -113.5t-110.5 -39.5q-145 0 -145 153v45q0 73 37.5 112.5t110.5 39.5zM673 301q-107 0 -107 -115v-45q0 -116 107 -116q106 0 106 116v45q0 115 -106 115z" />
    <glyph glyph-name="quotesingle.osf" horiz-adv-x="154" 
d="M98 683v-254h-41v254h41z" />
    <glyph glyph-name="plus.osf" horiz-adv-x="398" 
d="M217 448v-164h148v-36h-148v-165h-36v165h-149v36h149v164h36z" />
    <glyph glyph-name="zero.osf" horiz-adv-x="492" 
d="M247 523q85 0 130 -50.5t45 -150.5v-133q0 -97 -45 -149t-130 -52q-86 0 -131 51t-45 150v133q0 201 176 201zM247 487q-136 0 -136 -156v-151q0 -75 34.5 -115.5t101.5 -40.5t101 40.5t34 115.5v151q0 156 -135 156z" />
    <glyph glyph-name="one.osf" horiz-adv-x="287" 
d="M203 511v-511h-40v470h-2l-140 -65l-12 37l157 69h37z" />
    <glyph glyph-name="two.osf" horiz-adv-x="399" 
d="M161 523q172 0 172 -132v-16q0 -49 -15.5 -84t-64.5 -85l-181 -170h270v-36h-328v31l225 217q54 58 54 126v14q0 99 -132 99q-61 0 -127 -17v36q75 17 127 17z" />
    <glyph glyph-name="three.osf" horiz-adv-x="377" 
d="M160 523q76 0 115 -39.5t39 -113.5v-11q0 -102 -76 -138q40 -14 64.5 -51t24.5 -87v-14q0 -95 -67.5 -147t-223.5 -56v37q139 5 195 47t56 112v23q0 54 -31 86t-79 32h-114v33h114q45 0 71 31t26 87v24q0 53 -29 82t-85 29q-42 0 -124 -14v35q82 13 124 13z" />
    <glyph glyph-name="four.osf" horiz-adv-x="411" 
d="M330 511v-475h70v-36h-70v-115h-40v115h-307v30l307 481h40zM291 448l-261 -412h261v412z" />
    <glyph glyph-name="five.osf" horiz-adv-x="429" 
d="M344 511v-37h-244v-267q64 81 162 81q67 0 99.5 -40t32.5 -130v-22q0 -115 -69 -170.5t-243 -59.5v37q82 3 137 17t84 39.5t40 55.5t11 73v33q0 72 -25 101.5t-80 29.5q-87 0 -158 -100h-30v359h283z" />
    <glyph glyph-name="six.osf" horiz-adv-x="478" 
d="M365 606v-37q-138 -6 -194.5 -49.5t-56.5 -130.5v-75q35 33 81 54t83 21q67 0 105 -44t38 -133v-39q0 -90 -45 -137.5t-130 -47.5q-172 0 -172 185v212q0 107 68.5 161.5t222.5 59.5zM273 352q-34 0 -79 -21t-80 -53v-106q0 -148 132 -148q135 0 135 144v47
q0 67 -28.5 102t-79.5 35z" />
    <glyph glyph-name="seven.osf" horiz-adv-x="396" 
d="M371 511v-31l-250 -593h-44l251 587v1h-317v36h360z" />
    <glyph glyph-name="eight.osf" horiz-adv-x="468" 
d="M234 613q75 0 116.5 -39t41.5 -113v-9q0 -41 -22.5 -77t-59.5 -52q51 -15 79.5 -56t28.5 -93v-15q0 -83 -46.5 -127t-137.5 -44q-183 0 -183 171v15q0 53 27.5 93t79.5 56q-36 16 -58.5 51.5t-22.5 77.5v9q0 74 41.5 113t115.5 39zM234 579q-118 0 -118 -116v-15
q0 -47 30.5 -79.5t87.5 -32.5q58 0 88.5 32.5t30.5 79.5v15q0 116 -119 116zM234 304q-67 0 -105 -33.5t-38 -94.5v-26q0 -61 37.5 -93.5t105.5 -32.5q69 0 106.5 32.5t37.5 93.5v26q0 60 -38.5 94t-105.5 34z" />
    <glyph glyph-name="nine.osf" horiz-adv-x="482" 
d="M235 523q173 0 173 -188v-238q0 -115 -46 -169.5t-147 -54.5q-53 0 -118 14v36q63 -14 118 -14q80 0 116.5 44t36.5 137v87q-34 -33 -81.5 -54t-85.5 -21q-66 0 -103 45t-37 132v59q0 185 174 185zM235 487q-134 0 -134 -144v-67q0 -66 29 -101.5t81 -35.5q36 0 81 22.5
t76 51.5v125q0 149 -133 149z" />
    <glyph glyph-name="less.osf" horiz-adv-x="398" 
d="M369 441v-43l-302 -136l302 -137v-42l-341 159v39z" />
    <glyph glyph-name="equal.osf" horiz-adv-x="399" 
d="M365 372v-35h-332v35h332zM365 187v-35h-332v35h332z" />
    <glyph glyph-name="greater.osf" horiz-adv-x="398" 
d="M28 441l341 -160v-39l-341 -159v42l302 137l-302 136v43z" />
    <glyph glyph-name="asciitilde.osf" horiz-adv-x="399" 
d="M130 298q34 0 72 -16.5t69 -16.5q16 0 39.5 6t39.5 12l15 6v-38q-44 -25 -96 -25q-35 0 -72 16t-69 16q-16 0 -39.5 -6t-38.5 -12l-16 -5v38q44 25 96 25z" />
    <glyph glyph-name="cent.osf" horiz-adv-x="385" 
d="M242 576v-76q35 -1 82 -9l-2 -37q-46 9 -94 9q-121 0 -121 -136v-163q0 -72 31.5 -105.5t95.5 -33.5q43 0 88 9l2 -37q-52 -9 -82 -9v-76h-37v78q-138 13 -138 175v158q0 163 138 175v78h37z" />
    <glyph glyph-name="sterling.osf" horiz-adv-x="387" 
d="M249 523q40 0 85 -10v-36q-32 10 -76 10q-63 0 -89.5 -26.5t-26.5 -90.5v-67h118v-36h-118v-106q0 -81 -39 -124h282v-37h-324v31q40 48 40 119v117h-70v36h70v65q0 80 36.5 117.5t111.5 37.5z" />
    <glyph glyph-name="currency.osf" horiz-adv-x="478" 
d="M414 466l26 -27l-65 -63q17 -39 17 -88v-30q0 -60 -23 -101l67 -64l-26 -26l-64 64q-38 -40 -111 -40q-71 0 -109 39l-63 -62l-26 26l66 64q-23 41 -23 100v30q0 52 18 90l-62 63l26 26l58 -60q38 47 118 47q77 0 115 -47zM237 418q-118 0 -118 -130v-30q0 -131 117 -131
t117 131v30q0 130 -116 130z" />
    <glyph glyph-name="yen.osf" horiz-adv-x="393" 
d="M377 511l-147 -302h93v-35h-106v-56h106v-36h-106v-82h-39v82h-106v36h106v56h-106v35h91l-146 302h45l136 -296l134 296h45z" />
    <glyph glyph-name="section.osf" horiz-adv-x="466" 
d="M246 695q38 0 93 -10l-2 -37q-48 11 -87 11q-65 0 -92 -23t-27 -72v-31q0 -25 14.5 -40t61.5 -34l107 -43q97 -38 97 -111v-34q0 -41 -32 -73t-92 -42q52 -17 73 -41.5t21 -60.5v-41q0 -68 -36 -100t-128 -32q-47 0 -111 13l2 40q57 -13 109 -13q68 0 95.5 21.5
t27.5 70.5v31q0 34 -17.5 52.5t-58.5 32.5l-107 37q-53 19 -74.5 43.5t-21.5 64.5v41q0 50 33 79.5t97 33.5q-57 18 -78.5 42.5t-21.5 59.5v34q0 66 36 98.5t119 32.5zM275 392l-31 11q-79 -1 -110.5 -22.5t-31.5 -67.5v-41q0 -27 24 -45t72 -35l41 -14q60 4 96 30.5
t36 61.5v26q0 34 -21.5 55t-74.5 41z" />
    <glyph glyph-name="logicalnot.osf" horiz-adv-x="398" 
d="M369 283v-200h-36v165h-304v35h340z" />
    <glyph glyph-name="degree.osf" horiz-adv-x="399" 
d="M200 695q75 0 113.5 -42.5t38.5 -122.5v-35q0 -80 -38.5 -122.5t-113.5 -42.5t-114 42.5t-39 122.5v35q0 80 39 122.5t114 42.5zM200 660q-115 0 -115 -130v-35q0 -130 115 -130q114 0 114 130v35q0 130 -114 130z" />
    <glyph glyph-name="plusminus.osf" horiz-adv-x="399" 
d="M218 448v-164h149v-36h-149v-156h-36v156h-149v36h149v164h36zM366 36v-36h-334v36h334z" />
    <glyph glyph-name="mu.osf" horiz-adv-x="488" 
d="M403 488v-488h-37v103q-66 -115 -157 -115q-62 0 -85 46v-219h-38v673h40v-325q0 -76 21.5 -106.5t66.5 -30.5q41 0 81 32t68 87v343h40z" />
    <glyph glyph-name="multiply.osf" horiz-adv-x="398" 
d="M315 408l25 -25l-116 -118l115 -116l-25 -25l-117 116l-115 -116l-26 25l116 116l-116 117l25 25l117 -116z" />
    <glyph glyph-name="divide.osf" horiz-adv-x="399" 
d="M197 449q31 0 31 -28v-12q0 -27 -31 -27q-30 0 -30 27v12q0 28 30 28zM365 283v-35h-333v35h333zM197 149q31 0 31 -29v-11q0 -27 -31 -27q-30 0 -30 27v11q0 29 30 29z" />
    <glyph glyph-name="florin.osf" horiz-adv-x="311" 
d="M231 613q30 0 56 -6v-34q-30 5 -58 5q-74 0 -74 -99v-73h92v-34h-92v-557h-41v557h-70v34h70v70q0 71 29 104t88 33z" />
    <glyph glyph-name="dagger.osf" horiz-adv-x="409" 
d="M226 524v-163h153v-38h-153v-323h-41v323h-154v38h154v163h41z" />
    <glyph glyph-name="daggerdbl.osf" horiz-adv-x="429" 
d="M236 524v-143h153v-38h-153v-112h153v-38h-153v-193h-41v193h-154v38h154v112h-154v38h154v143h41z" />
    <glyph glyph-name="perthousand.osf" horiz-adv-x="1249" 
d="M205 625q145 0 145 -152v-45q0 -74 -37.5 -113.5t-110.5 -39.5q-145 0 -145 153v45q0 73 37.5 112.5t110.5 39.5zM626 613l-334 -613h-42l333 613h43zM203 588q-107 0 -107 -115v-45q0 -116 107 -116q106 0 106 116v45q0 115 -106 115zM675 338q145 0 145 -152v-45
q0 -74 -37.5 -113.5t-110.5 -39.5q-145 0 -145 153v45q0 73 37.5 112.5t110.5 39.5zM1059 338q145 0 145 -152v-45q0 -74 -37.5 -113.5t-110.5 -39.5q-145 0 -145 153v45q0 73 37.5 112.5t110.5 39.5zM673 301q-107 0 -107 -115v-45q0 -116 107 -116q106 0 106 116v45
q0 115 -106 115zM1058 301q-107 0 -107 -115v-45q0 -116 107 -116q106 0 106 116v45q0 115 -106 115z" />
    <glyph glyph-name="Euro.osf" horiz-adv-x="378" 
d="M242 523q49 0 109 -11l-2 -34q-70 10 -107 10q-70 0 -99 -27.5t-29 -93.5v-40h208l-10 -36h-198v-73h202l-10 -36h-192v-39q0 -62 30.5 -90t100.5 -28q43 0 105 11l1 -37q-68 -11 -107 -11q-90 0 -129.5 38.5t-39.5 119.5v36h-67l10 36h57v73h-66l10 36h56v38
q0 82 38.5 120t128.5 38z" />
    <glyph glyph-name="Omega.osf" horiz-adv-x="576" 
d="M289 667q108 0 157 -54.5t49 -160.5v-235q0 -129 -88 -179h98v-38h-188v35h9q55 0 92 51t37 123v252q0 170 -166 170q-167 0 -167 -169v-253q0 -72 37 -123t92 -51h9v-35h-188v38h98q-88 50 -88 179v235q0 107 49 161t158 54z" />
    <glyph glyph-name="partialdiff.osf" horiz-adv-x="461" 
d="M107 662v33q136 0 209.5 -92.5t73.5 -274.5v-162q0 -88 -39 -133t-123 -45q-86 0 -123.5 39.5t-37.5 129.5v115q0 167 121 167q90 0 162 -114v35q0 140 -64 221t-179 81zM196 402q-47 0 -68 -32t-21 -110v-112q0 -66 29.5 -95t91.5 -29q122 0 122 124v133
q-27 46 -70.5 83.5t-83.5 37.5z" />
    <glyph glyph-name="Delta.osf" horiz-adv-x="501" 
d="M275 655l205 -626v-29h-460v28l205 627h50zM250 616l-186 -579h372z" />
    <glyph glyph-name="product.osf" horiz-adv-x="559" 
d="M561 655v-38h-90v-802h-40v802h-302v-802h-40v802h-90v38h562z" />
    <glyph glyph-name="summation.osf" horiz-adv-x="399" 
d="M383 655v-38h-318l194 -366v-29l-194 -369h318v-38h-366v33l203 388l-203 386v33h366z" />
    <glyph glyph-name="minus.osf" horiz-adv-x="399" 
d="M365 283v-35h-333v35h333z" />
    <glyph glyph-name="radical.osf" horiz-adv-x="476" 
d="M556 683v-39h-89l-225 -644h-51l-163 488h46l143 -449l221 644h118z" />
    <glyph glyph-name="infinity.osf" horiz-adv-x="517" 
d="M364 392q70 0 101 -33t31 -97v-11q0 -130 -132 -130q-73 0 -105 54q-32 -54 -106 -54q-70 0 -100.5 33t-30.5 97v11q0 63 30.5 96.5t100.5 33.5q74 0 106 -54q32 54 105 54zM150 356q-89 0 -89 -91v-16q0 -92 89 -92q91 0 91 92v16q0 91 -91 91zM367 356q-90 0 -90 -91
v-16q0 -92 90 -92t90 92v16q0 91 -90 91z" />
    <glyph glyph-name="integral.osf" horiz-adv-x="300" 
d="M247 695q29 0 55 -6v-34q-30 5 -57 5q-75 0 -75 -99v-617q0 -74 -29 -107.5t-89 -33.5q-29 0 -55 6v34q30 -5 57 -5q76 0 76 98v619q0 73 29 106.5t88 33.5z" />
    <glyph glyph-name="approxequal.osf" horiz-adv-x="399" 
d="M130 378q34 0 72 -16t69 -16q16 0 39.5 6t39.5 12l15 5v-38q-44 -25 -96 -25q-35 0 -72 16.5t-69 16.5q-16 0 -39.5 -6t-38.5 -12l-16 -6v39q44 24 96 24zM130 231q34 0 72 -16.5t69 -16.5q16 0 39.5 6t39.5 12l15 6v-39q-44 -24 -96 -24q-35 0 -72 16t-69 16
q-16 0 -39.5 -5.5t-38.5 -11.5l-16 -6v38q44 25 96 25z" />
    <glyph glyph-name="notequal.osf" horiz-adv-x="399" 
d="M333 449l-49 -77h81v-35h-102l-94 -150h196v-35h-218l-44 -72h-37l43 72h-76v35h99l94 150h-193v35h214l49 77h37z" />
    <glyph glyph-name="lessequal.osf" horiz-adv-x="398" 
d="M369 432v-43l-302 -132l302 -132v-42l-341 154v39zM369 34v-34h-341v34h341z" />
    <glyph glyph-name="greaterequal.osf" horiz-adv-x="398" 
d="M28 432l341 -156v-39l-341 -154v42l302 132l-302 132v43zM369 34v-34h-341v34h341z" />
    <glyph glyph-name="lozenge.osf" horiz-adv-x="522" 
d="M281 683l232 -341l-232 -342h-40l-232 342l232 341h40zM261 647l-203 -305l203 -302l203 302z" />
    <glyph glyph-name="quotedbl.tf" 
d="M99 683v-254h-41v254h41zM235 683v-254h-41v254h41z" />
    <glyph glyph-name="numbersign.tf" 
d="M433 664v-125h89v-34h-89v-346h89v-34h-89v-125h-41v125h-225v-125h-41v125h-89v34h89v346h-89v34h89v125h41v-125h225v125h41zM392 505h-225v-346h225v346z" />
    <glyph glyph-name="dollar.tf" 
d="M299 748v-82q48 -2 107 -13v-37q-76 14 -121 14q-76 0 -108 -29.5t-32 -91.5v-27q0 -45 21.5 -71t80.5 -46l98 -32q60 -20 86 -56.5t26 -101.5v-19q0 -78 -37 -118.5t-121 -47.5v-84h-38v82q-60 0 -136 16l2 39q74 -17 128 -17q87 0 124.5 29.5t37.5 92.5v34
q0 45 -21.5 72t-69.5 44l-108 36q-60 21 -86.5 55t-26.5 96v18q0 78 37 118t119 45v82h38z" />
    <glyph glyph-name="percent.tf" horiz-adv-x="844" 
d="M206 667q145 0 145 -152v-45q0 -74 -37.5 -113.5t-110.5 -39.5q-145 0 -145 153v45q0 73 37.5 112.5t110.5 39.5zM627 655l-357 -655h-42l356 655h43zM204 630q-107 0 -107 -115v-45q0 -116 107 -116q106 0 106 116v45q0 115 -106 115zM653 338q145 0 145 -152v-45
q0 -74 -37.5 -113.5t-110.5 -39.5q-145 0 -145 153v45q0 73 37.5 112.5t110.5 39.5zM651 301q-107 0 -107 -115v-45q0 -116 107 -116q106 0 106 116v45q0 115 -106 115z" />
    <glyph glyph-name="quotesingle.tf" 
d="M99 683v-254h-41v254h41z" />
    <glyph glyph-name="plus.tf" 
d="M298 508v-164h148v-36h-148v-165h-36v165h-149v36h149v164h36z" />
    <glyph glyph-name="zero.tf" 
d="M279 667q183 0 183 -200v-280q0 -100 -48 -149.5t-134 -49.5q-183 0 -183 197v281q0 201 182 201zM279 631q-142 0 -142 -156v-293q0 -158 143 -158q142 0 142 158v293q0 156 -143 156z" />
    <glyph glyph-name="one.tf" 
d="M340 655v-618h131v-37h-318v37h147v577h-2l-148 -65l-12 36l165 70h37z" />
    <glyph glyph-name="two.tf" 
d="M254 667q180 0 180 -147v-18q0 -40 -20.5 -85t-72.5 -115l-195 -265h304v-37h-355v31l231 314q68 94 68 157v16q0 60 -34.5 86.5t-105.5 26.5q-62 0 -139 -22v36q81 22 139 22z" />
    <glyph glyph-name="three.tf" 
d="M256 667q77 0 119 -40t42 -118v-27q0 -50 -23 -87.5t-61 -55.5q44 -14 70.5 -51.5t26.5 -90.5v-28q0 -89 -44.5 -135t-129.5 -46q-51 0 -133 13v37q87 -15 133 -15q65 0 99.5 34.5t34.5 102.5v38q0 57 -35 90t-89 33h-116v34h123q45 0 74.5 33t29.5 89v40
q0 56 -32.5 85.5t-88.5 29.5q-53 0 -133 -16v36q83 15 133 15z" />
    <glyph glyph-name="four.tf" 
d="M261 655l-142 -490h250v290h39v-290h74v-36h-74v-129h-40v129h-281l-11 23l148 503h37z" />
    <glyph glyph-name="five.tf" 
d="M416 655v-37h-260v-289q63 81 169 81q71 0 106 -42t35 -134v-52q0 -93 -49 -143.5t-143 -50.5q-80 0 -147 19v35q72 -18 145 -18q76 0 115 41t39 117v55q0 73 -27 105t-84 32q-95 0 -170 -100h-28v381h299z" />
    <glyph glyph-name="six.tf" 
d="M407 663v-37q-267 -11 -267 -206v-78q35 34 83.5 55t89.5 21q149 0 149 -180v-64q0 -90 -46 -138t-136 -48q-180 0 -180 186v239q0 240 307 250zM306 380q-38 0 -84 -21t-82 -53v-133q0 -149 139 -149q143 0 143 145v72q0 139 -116 139z" />
    <glyph glyph-name="seven.tf" 
d="M454 655v-31l-240 -624h-45l242 617v1h-306v37h349z" />
    <glyph glyph-name="eight.tf" 
d="M280 667q80 0 123 -39.5t43 -117.5v-24q0 -46 -23.5 -82.5t-60.5 -53.5q52 -15 81 -57.5t29 -96.5v-32q0 -86 -48.5 -131t-143.5 -45q-191 0 -191 176v32q0 55 28.5 97t80.5 57q-37 16 -60 53t-23 83v24q0 77 43 117t122 40zM280 633q-126 0 -126 -122v-30q0 -50 32 -84
t94 -34q63 0 95 34.5t32 83.5v30q0 122 -127 122zM280 332q-72 0 -111.5 -35.5t-39.5 -98.5v-43q0 -64 39 -97.5t112 -33.5q74 0 113 33.5t39 97.5v43q0 63 -40 98.5t-112 35.5z" />
    <glyph glyph-name="nine.tf" 
d="M272 667q180 0 180 -186v-273q0 -116 -45.5 -168t-154.5 -52q-47 0 -136 19v36q99 -19 136 -19q86 0 123 42t37 135v112q-35 -34 -83.5 -55t-89.5 -21q-149 0 -149 180v64q0 90 46 138t136 48zM273 631q-143 0 -143 -145v-72q0 -68 30 -103.5t86 -35.5q39 0 85 21t81 53
v133q0 149 -139 149z" />
    <glyph glyph-name="less.tf" 
d="M450 481v-43l-302 -136l302 -137v-42l-341 159v39z" />
    <glyph glyph-name="equal.tf" 
d="M446 432v-35h-332v35h332zM446 247v-35h-332v35h332z" />
    <glyph glyph-name="greater.tf" 
d="M109 501l341 -160v-39l-341 -159v42l302 137l-302 136v43z" />
    <glyph glyph-name="asciitilde.tf" 
d="M211 378q34 0 72 -16.5t69 -16.5q16 0 39.5 6t38.5 12l16 6v-38q-44 -25 -96 -25q-34 0 -72 16t-69 16q-16 0 -39.5 -6t-39.5 -12l-15 -5v38q44 25 96 25z" />
    <glyph glyph-name="cent.tf" 
d="M327 576v-76q35 -1 82 -9l-2 -37q-46 9 -94 9q-121 0 -121 -136v-163q0 -72 31.5 -105.5t95.5 -33.5q43 0 88 9l2 -37q-53 -9 -82 -9v-76h-37v78q-138 13 -138 175v158q0 163 138 175v78h37z" />
    <glyph glyph-name="sterling.tf" 
d="M330 667q44 0 94 -13v-35q-46 12 -85 12q-64 0 -92.5 -27.5t-28.5 -92.5v-119h136v-35h-136v-194q0 -83 -39 -126h297v-37h-339v31q40 48 40 122v204h-70v35h70v118q0 157 153 157z" />
    <glyph glyph-name="currency.tf" 
d="M454 536l26 -27l-65 -63q17 -39 17 -88v-30q0 -60 -23 -101l67 -64l-26 -26l-64 64q-38 -40 -111 -40q-71 0 -109 39l-63 -62l-26 26l66 64q-23 41 -23 100v30q0 52 18 90l-62 63l26 26l58 -60q38 47 118 47q77 0 115 -47zM277 488q-118 0 -118 -130v-30q0 -131 117 -131
t117 131v30q0 130 -116 130z" />
    <glyph glyph-name="yen.tf" 
d="M492 655l-180 -399h94v-35h-107v-65h107v-36h-107v-120h-40v120h-106v36h106v65h-106v35h93l-180 399h47l167 -387l166 387h46z" />
    <glyph glyph-name="section.tf" 
d="M289 695q38 0 93 -10l-2 -37q-48 11 -87 11q-65 0 -92 -23t-27 -72v-31q0 -25 14.5 -40t61.5 -34l107 -43q97 -38 97 -111v-34q0 -41 -32 -73t-92 -42q52 -17 73 -41.5t21 -60.5v-41q0 -68 -36 -100t-128 -32q-47 0 -111 13l2 40q57 -13 109 -13q68 0 95.5 21.5
t27.5 70.5v31q0 34 -17.5 52.5t-58.5 32.5l-107 37q-53 19 -74.5 43.5t-21.5 64.5v41q0 50 33 79.5t97 33.5q-57 18 -78.5 42.5t-21.5 59.5v34q0 66 36 98.5t119 32.5zM318 392l-31 11q-79 -1 -110.5 -22.5t-31.5 -67.5v-41q0 -27 24 -45t72 -35l41 -14q60 4 96 30.5
t36 61.5v26q0 34 -21.5 55t-74.5 41z" />
    <glyph glyph-name="logicalnot.tf" 
d="M450 343v-200h-36v165h-304v35h340z" />
    <glyph glyph-name="degree.tf" 
d="M200 695q75 0 113.5 -42.5t38.5 -122.5v-35q0 -80 -38.5 -122.5t-113.5 -42.5t-114 42.5t-39 122.5v35q0 80 39 122.5t114 42.5zM200 660q-115 0 -115 -130v-35q0 -130 115 -130q114 0 114 130v35q0 130 -114 130z" />
    <glyph glyph-name="plusminus.tf" 
d="M298 508v-164h149v-36h-149v-165h-36v165h-149v36h149v164h36zM447 36v-36h-334v36h334z" />
    <glyph glyph-name="mu.tf" 
d="M439 488v-488h-37v103q-66 -115 -157 -115q-62 0 -85 46v-219h-38v673h40v-325q0 -76 21.5 -106.5t66.5 -30.5q41 0 81 32t68 87v343h40z" />
    <glyph glyph-name="multiply.tf" 
d="M396 468l25 -25l-116 -118l115 -116l-25 -25l-117 116l-115 -116l-26 25l116 116l-116 117l25 25l117 -116z" />
    <glyph glyph-name="divide.tf" 
d="M278 509q31 0 31 -28v-12q0 -27 -31 -27q-30 0 -30 27v12q0 28 30 28zM446 343v-35h-333v35h333zM278 209q31 0 31 -29v-11q0 -27 -31 -27q-30 0 -30 27v11q0 29 30 29z" />
    <glyph glyph-name="florin.tf" 
d="M353 667q30 0 56 -6v-34q-30 5 -58 5q-74 0 -74 -99v-73h92v-34h-92v-611h-41v611h-70v34h70v70q0 71 29 104t88 33z" />
    <glyph glyph-name="uni2007.tf" 
 />
    <glyph glyph-name="dagger.tf" 
d="M301 655v-167h163v-39h-163v-449h-41v449h-163v39h163v167h41z" />
    <glyph glyph-name="daggerdbl.tf" 
d="M301 655v-167h163v-39h-163v-184h163v-39h-163v-226h-41v226h-163v39h163v184h-163v39h163v167h41z" />
    <glyph glyph-name="perthousand.tf" horiz-adv-x="1228" 
d="M206 667q145 0 145 -152v-45q0 -74 -37.5 -113.5t-110.5 -39.5q-145 0 -145 153v45q0 73 37.5 112.5t110.5 39.5zM627 655l-357 -655h-42l356 655h43zM204 630q-107 0 -107 -115v-45q0 -116 107 -116q106 0 106 116v45q0 115 -106 115zM653 338q145 0 145 -152v-45
q0 -74 -37.5 -113.5t-110.5 -39.5q-145 0 -145 153v45q0 73 37.5 112.5t110.5 39.5zM1037 338q145 0 145 -152v-45q0 -74 -37.5 -113.5t-110.5 -39.5q-145 0 -145 153v45q0 73 37.5 112.5t110.5 39.5zM651 301q-107 0 -107 -115v-45q0 -116 107 -116q106 0 106 116v45
q0 115 -106 115zM1035 301q-107 0 -107 -115v-45q0 -116 107 -116q106 0 106 116v45q0 115 -106 115z" />
    <glyph glyph-name="Euro.tf" 
d="M349 667q46 0 128 -13l-2 -38q-77 14 -127 14q-85 0 -121.5 -36.5t-36.5 -124.5v-60h218l-10 -36h-208v-97h212l-10 -36h-202v-55q0 -82 37.5 -120.5t122.5 -38.5q54 0 125 15l2 -39q-77 -14 -129 -14q-106 0 -152 48.5t-46 151.5v52h-69l10 36h59v97h-68l10 36h58v57
q0 106 45.5 153.5t153.5 47.5z" />
    <glyph glyph-name="partialdiff.tf" 
d="M159 662v33q136 0 209.5 -92.5t73.5 -274.5v-162q0 -88 -39 -133t-123 -45q-86 0 -123.5 39.5t-37.5 129.5v115q0 167 121 167q90 0 162 -114v35q0 140 -64 221t-179 81zM248 402q-47 0 -68 -32t-21 -110v-112q0 -66 29.5 -95t91.5 -29q122 0 122 124v133
q-27 46 -70.5 83.5t-83.5 37.5z" />
    <glyph glyph-name="product.tf" 
d="M561 655v-38h-90v-802h-40v802h-302v-802h-40v802h-90v38h562z" />
    <glyph glyph-name="summation.tf" 
d="M463 655v-38h-318l194 -366v-29l-194 -369h318v-38h-366v33l203 388l-203 386v33h366z" />
    <glyph glyph-name="minus.tf" 
d="M446 343v-35h-333v35h333z" />
    <glyph glyph-name="radical.tf" 
d="M640 742v-38h-89l-246 -704h-51l-181 543h46l161 -504l242 703h118z" />
    <glyph glyph-name="infinity.tf" 
d="M385 452q70 0 101 -33t31 -97v-11q0 -130 -132 -130q-73 0 -105 54q-32 -54 -106 -54q-70 0 -100.5 33t-30.5 97v11q0 63 30.5 96.5t100.5 33.5q74 0 106 -54q32 54 105 54zM171 416q-89 0 -89 -91v-16q0 -92 89 -92q91 0 91 92v16q0 91 -91 91zM388 416q-90 0 -90 -91
v-16q0 -92 90 -92t90 92v16q0 91 -90 91z" />
    <glyph glyph-name="integral.tf" 
d="M378 750q29 0 55 -6v-34q-30 5 -57 5q-75 0 -75 -99v-672q0 -74 -29 -107.5t-89 -33.5q-29 0 -55 6v34q30 -5 57 -5q76 0 76 98v674q0 73 29 106.5t88 33.5z" />
    <glyph glyph-name="approxequal.tf" 
d="M211 438q34 0 72 -16t69 -16q16 0 39.5 6t38.5 12l16 5v-38q-44 -25 -96 -25q-34 0 -72 16.5t-69 16.5q-16 0 -39.5 -6t-39.5 -12l-15 -6v39q44 24 96 24zM211 291q34 0 72 -16.5t69 -16.5q16 0 39.5 6t38.5 12l16 6v-39q-44 -24 -96 -24q-34 0 -72 16t-69 16
q-16 0 -39.5 -5.5t-39.5 -11.5l-15 -6v38q44 25 96 25z" />
    <glyph glyph-name="notequal.tf" 
d="M414 509l-49 -77h81v-35h-102l-94 -150h196v-35h-218l-44 -72h-37l43 72h-76v35h99l94 150h-193v35h214l49 77h37z" />
    <glyph glyph-name="lessequal.tf" 
d="M450 492v-43l-302 -137l302 -136v-42l-341 159v39zM450 34v-34h-341v34h341z" />
    <glyph glyph-name="greaterequal.tf" 
d="M109 492l341 -160v-39l-341 -159v42l302 136l-302 137v43zM450 34v-34h-341v34h341z" />
    <glyph glyph-name="lozenge.tf" 
d="M300 683l232 -341l-232 -342h-40l-232 342l232 341h40zM280 647l-203 -305l203 -302l203 302z" />
    <glyph glyph-name="quotedbl.tosf" 
d="M99 683v-254h-41v254h41zM235 683v-254h-41v254h41z" />
    <glyph glyph-name="numbersign.tosf" 
d="M432 523v-114h89v-34h-89v-227h89v-34h-89v-114h-41v114h-223v-114h-41v114h-89v34h89v227h-89v34h89v114h41v-114h223v114h41zM391 375h-223v-227h223v227z" />
    <glyph glyph-name="dollar.tosf" 
d="M302 605v-82q28 -2 94 -13v-35q-83 13 -112 13q-64 0 -92.5 -22.5t-28.5 -67.5v-23q0 -33 19 -51t73 -36l79 -25q57 -17 80.5 -45t23.5 -80v-18q0 -60 -31.5 -91.5t-104.5 -38.5v-84h-38v82q-42 0 -123 15l1 37q82 -15 117 -15q76 0 108 21t32 68v30q0 33 -18.5 52
t-63.5 33l-90 28q-57 18 -80 45.5t-23 77.5v12q0 62 33.5 94.5t106.5 36.5v82h38z" />
    <glyph glyph-name="percent.tosf" horiz-adv-x="867" 
d="M201 625q145 0 145 -152v-45q0 -74 -37.5 -113.5t-110.5 -39.5q-145 0 -145 153v45q0 73 37.5 112.5t110.5 39.5zM622 613l-334 -613h-42l333 613h43zM199 588q-107 0 -107 -115v-45q0 -116 107 -116q106 0 106 116v45q0 115 -106 115zM671 338q145 0 145 -152v-45
q0 -74 -37.5 -113.5t-110.5 -39.5q-145 0 -145 153v45q0 73 37.5 112.5t110.5 39.5zM669 301q-107 0 -107 -115v-45q0 -116 107 -116q106 0 106 116v45q0 115 -106 115z" />
    <glyph glyph-name="quotesingle.tosf" 
d="M103 683v-254h-41v254h41z" />
    <glyph glyph-name="plus.tosf" 
d="M298 448v-164h148v-36h-148v-165h-36v165h-149v36h149v164h36z" />
    <glyph glyph-name="zero.tosf" 
d="M281 523q85 0 130 -50.5t45 -150.5v-133q0 -97 -45 -149t-130 -52q-86 0 -131 51t-45 150v133q0 201 176 201zM281 487q-136 0 -136 -156v-151q0 -75 34.5 -115.5t101.5 -40.5t101 40.5t34 115.5v151q0 156 -135 156z" />
    <glyph glyph-name="one.tosf" 
d="M324 511v-475h123v-36h-302v36h139v434h-2l-140 -65l-12 36l157 70h37z" />
    <glyph glyph-name="two.tosf" 
d="M255 523q172 0 172 -132v-16q0 -49 -15.5 -84t-64.5 -85l-181 -170h270v-36h-328v31l225 217q54 58 54 126v14q0 99 -132 99q-61 0 -127 -17v36q75 17 127 17z" />
    <glyph glyph-name="three.tosf" 
d="M253 523q76 0 115 -39.5t39 -113.5v-11q0 -102 -76 -138q40 -14 64.5 -51t24.5 -87v-14q0 -95 -67.5 -147t-223.5 -56v37q139 5 195 47t56 112v23q0 54 -31 86t-79 32h-114v33h114q45 0 71 31t26 87v24q0 53 -29 82t-85 29q-42 0 -124 -14v35q82 13 124 13z" />
    <glyph glyph-name="four.tosf" 
d="M240 523l35 -9l-142 -479h237v195h39v-195h74v-35h-74v-115h-40v115h-268l-11 23z" />
    <glyph glyph-name="five.tosf" 
d="M398 511v-37h-244v-267q64 81 162 81q67 0 99.5 -40t32.5 -130v-22q0 -115 -69 -170.5t-243 -59.5v37q82 3 137 17t84 39.5t40 55.5t11 73v33q0 72 -25 101.5t-80 29.5q-87 0 -158 -100h-30v359h283z" />
    <glyph glyph-name="six.tosf" 
d="M399 606v-37q-138 -6 -194.5 -49.5t-56.5 -130.5v-75q35 33 81 54t83 21q67 0 105 -44t38 -133v-39q0 -90 -45 -137.5t-130 -47.5q-172 0 -172 185v212q0 107 68.5 161.5t222.5 59.5zM307 352q-34 0 -79 -21t-80 -53v-106q0 -148 132 -148q135 0 135 144v47
q0 67 -28.5 102t-79.5 35z" />
    <glyph glyph-name="seven.tosf" 
d="M451 511v-31l-250 -593h-44l251 587v1h-317v36h360z" />
    <glyph glyph-name="eight.tosf" 
d="M280 613q75 0 116.5 -39t41.5 -113v-9q0 -41 -22.5 -77t-59.5 -52q51 -15 79.5 -56t28.5 -93v-15q0 -83 -46.5 -127t-137.5 -44q-183 0 -183 171v15q0 53 27.5 93t79.5 56q-36 16 -58.5 51.5t-22.5 77.5v9q0 74 41.5 113t115.5 39zM280 579q-118 0 -118 -116v-15
q0 -47 30.5 -79.5t87.5 -32.5q58 0 88.5 32.5t30.5 79.5v15q0 116 -119 116zM280 304q-67 0 -105 -33.5t-38 -94.5v-26q0 -61 37.5 -93.5t105.5 -32.5q69 0 106.5 32.5t37.5 93.5v26q0 60 -38.5 94t-105.5 34z" />
    <glyph glyph-name="nine.tosf" 
d="M276 523q173 0 173 -188v-238q0 -115 -46 -169.5t-147 -54.5q-53 0 -118 14v36q63 -14 118 -14q80 0 116.5 44t36.5 137v87q-34 -33 -81.5 -54t-85.5 -21q-66 0 -103 45t-37 132v59q0 185 174 185zM276 487q-134 0 -134 -144v-67q0 -66 29 -101.5t81 -35.5q36 0 81 22.5
t76 51.5v125q0 149 -133 149z" />
    <glyph glyph-name="less.tosf" 
d="M450 441v-43l-302 -136l302 -137v-42l-341 159v39z" />
    <glyph glyph-name="equal.tosf" 
d="M446 372v-35h-332v35h332zM446 187v-35h-332v35h332z" />
    <glyph glyph-name="greater.tosf" 
d="M109 441l341 -160v-39l-341 -159v42l302 137l-302 136v43z" />
    <glyph glyph-name="asciitilde.tosf" 
d="M211 298q34 0 72 -16.5t69 -16.5q16 0 39.5 6t38.5 12l16 6v-38q-44 -25 -96 -25q-34 0 -72 16t-69 16q-16 0 -39.5 -6t-39.5 -12l-15 -5v38q44 25 96 25z" />
    <glyph glyph-name="cent.tosf" 
d="M327 576v-76q35 -1 82 -9l-2 -37q-46 9 -94 9q-121 0 -121 -136v-163q0 -72 31.5 -105.5t95.5 -33.5q43 0 88 9l2 -37q-53 -9 -82 -9v-76h-37v78q-138 13 -138 175v158q0 163 138 175v78h37z" />
    <glyph glyph-name="sterling.tosf" 
d="M328 523q40 0 85 -10v-36q-32 10 -76 10q-63 0 -89.5 -26.5t-26.5 -90.5v-67h118v-36h-118v-106q0 -81 -39 -124h282v-37h-324v31q40 48 40 119v117h-70v36h70v65q0 80 36.5 117.5t111.5 37.5z" />
    <glyph glyph-name="currency.tosf" 
d="M454 466l26 -27l-65 -63q17 -39 17 -88v-30q0 -60 -23 -101l67 -64l-26 -26l-64 64q-38 -40 -111 -40q-71 0 -109 39l-63 -62l-26 26l66 64q-23 41 -23 100v30q0 52 18 90l-62 63l26 26l58 -60q38 47 118 47q77 0 115 -47zM277 418q-118 0 -118 -130v-30q0 -131 117 -131
t117 131v30q0 130 -116 130z" />
    <glyph glyph-name="yen.tosf" 
d="M460 511l-147 -302h93v-35h-106v-56h106v-36h-106v-82h-39v82h-106v36h106v56h-106v35h91l-146 302h45l136 -296l134 296h45z" />
    <glyph glyph-name="section.tosf" 
d="M289 695q38 0 93 -10l-2 -37q-48 11 -87 11q-65 0 -92 -23t-27 -72v-31q0 -25 14.5 -40t61.5 -34l107 -43q97 -38 97 -111v-34q0 -41 -32 -73t-92 -42q52 -17 73 -41.5t21 -60.5v-41q0 -68 -36 -100t-128 -32q-47 0 -111 13l2 40q57 -13 109 -13q68 0 95.5 21.5
t27.5 70.5v31q0 34 -17.5 52.5t-58.5 32.5l-107 37q-53 19 -74.5 43.5t-21.5 64.5v41q0 50 33 79.5t97 33.5q-57 18 -78.5 42.5t-21.5 59.5v34q0 66 36 98.5t119 32.5zM318 392l-31 11q-79 -1 -110.5 -22.5t-31.5 -67.5v-41q0 -27 24 -45t72 -35l41 -14q60 4 96 30.5
t36 61.5v26q0 34 -21.5 55t-74.5 41z" />
    <glyph glyph-name="logicalnot.tosf" 
d="M450 283v-200h-36v165h-304v35h340z" />
    <glyph glyph-name="degree.tosf" 
d="M200 695q75 0 113.5 -42.5t38.5 -122.5v-35q0 -80 -38.5 -122.5t-113.5 -42.5t-114 42.5t-39 122.5v35q0 80 39 122.5t114 42.5zM200 660q-115 0 -115 -130v-35q0 -130 115 -130q114 0 114 130v35q0 130 -114 130z" />
    <glyph glyph-name="plusminus.tosf" 
d="M298 448v-164h149v-36h-149v-156h-36v156h-149v36h149v164h36zM446 36v-36h-334v36h334z" />
    <glyph glyph-name="mu.tosf" 
d="M439 488v-488h-37v103q-66 -115 -157 -115q-62 0 -85 46v-219h-38v673h40v-325q0 -76 21.5 -106.5t66.5 -30.5q41 0 81 32t68 87v343h40z" />
    <glyph glyph-name="multiply.tosf" 
d="M396 408l25 -25l-116 -118l115 -116l-25 -25l-117 116l-115 -116l-26 25l116 116l-116 117l25 25l117 -116z" />
    <glyph glyph-name="divide.tosf" horiz-adv-x="569" 
d="M282 449q31 0 31 -28v-12q0 -27 -31 -27q-30 0 -30 27v12q0 28 30 28zM450 283v-35h-333v35h333zM282 149q31 0 31 -29v-11q0 -27 -31 -27q-30 0 -30 27v11q0 29 30 29z" />
    <glyph glyph-name="florin.tosf" 
d="M354 613q30 0 56 -6v-34q-30 5 -58 5q-74 0 -74 -99v-73h92v-34h-92v-557h-41v557h-70v34h70v70q0 71 29 104t88 33z" />
    <glyph glyph-name="uni2007.tosf" 
 />
    <glyph glyph-name="dagger.tosf" 
d="M301 524v-163h153v-38h-153v-323h-41v323h-154v38h154v163h41z" />
    <glyph glyph-name="daggerdbl.tosf" 
d="M301 524v-143h153v-38h-153v-112h153v-38h-153v-193h-41v193h-154v38h154v112h-154v38h154v143h41z" />
    <glyph glyph-name="perthousand.tosf" horiz-adv-x="1252" 
d="M201 625q145 0 145 -152v-45q0 -74 -37.5 -113.5t-110.5 -39.5q-145 0 -145 153v45q0 73 37.5 112.5t110.5 39.5zM622 613l-334 -613h-42l333 613h43zM199 588q-107 0 -107 -115v-45q0 -116 107 -116q106 0 106 116v45q0 115 -106 115zM671 338q145 0 145 -152v-45
q0 -74 -37.5 -113.5t-110.5 -39.5q-145 0 -145 153v45q0 73 37.5 112.5t110.5 39.5zM1055 338q145 0 145 -152v-45q0 -74 -37.5 -113.5t-110.5 -39.5q-145 0 -145 153v45q0 73 37.5 112.5t110.5 39.5zM669 301q-107 0 -107 -115v-45q0 -116 107 -116q106 0 106 116v45
q0 115 -106 115zM1054 301q-107 0 -107 -115v-45q0 -116 107 -116q106 0 106 116v45q0 115 -106 115z" />
    <glyph glyph-name="Euro.tosf" 
d="M340 523q49 0 109 -11l-2 -34q-70 10 -107 10q-70 0 -99 -27.5t-29 -93.5v-40h208l-10 -36h-198v-73h202l-10 -36h-192v-39q0 -62 30.5 -90t100.5 -28q43 0 105 11l1 -37q-68 -11 -107 -11q-90 0 -129.5 38.5t-39.5 119.5v36h-67l10 36h57v73h-66l10 36h56v38
q0 82 38.5 120t128.5 38z" />
    <glyph glyph-name="partialdiff.tosf" 
d="M159 662v33q136 0 209.5 -92.5t73.5 -274.5v-162q0 -88 -39 -133t-123 -45q-86 0 -123.5 39.5t-37.5 129.5v115q0 167 121 167q90 0 162 -114v35q0 140 -64 221t-179 81zM248 402q-47 0 -68 -32t-21 -110v-112q0 -66 29.5 -95t91.5 -29q122 0 122 124v133
q-27 46 -70.5 83.5t-83.5 37.5z" />
    <glyph glyph-name="product.tosf" 
d="M561 655v-38h-90v-802h-40v802h-302v-802h-40v802h-90v38h562z" />
    <glyph glyph-name="summation.tosf" 
d="M463 655v-38h-318l194 -366v-29l-194 -369h318v-38h-366v33l203 388l-203 386v33h366z" />
    <glyph glyph-name="minus.tosf" 
d="M446 283v-35h-333v35h333z" />
    <glyph glyph-name="radical.tosf" 
d="M544 683v-39h-89l-225 -644h-51l-163 488h46l143 -449l221 644h118z" />
    <glyph glyph-name="infinity.tosf" 
d="M385 392q70 0 101 -33t31 -97v-11q0 -130 -132 -130q-73 0 -105 54q-32 -54 -106 -54q-70 0 -100.5 33t-30.5 97v11q0 63 30.5 96.5t100.5 33.5q74 0 106 -54q32 54 105 54zM171 356q-89 0 -89 -91v-16q0 -92 89 -92q91 0 91 92v16q0 91 -91 91zM388 356q-90 0 -90 -91
v-16q0 -92 90 -92t90 92v16q0 91 -90 91z" />
    <glyph glyph-name="integral.tosf" horiz-adv-x="492" 
d="M343 695q29 0 55 -6v-34q-30 5 -57 5q-75 0 -75 -99v-617q0 -74 -29 -107.5t-89 -33.5q-29 0 -55 6v34q30 -5 57 -5q76 0 76 98v619q0 73 29 106.5t88 33.5z" />
    <glyph glyph-name="approxequal.tosf" 
d="M211 378q34 0 72 -16t69 -16q16 0 39.5 6t38.5 12l16 5v-38q-44 -25 -96 -25q-34 0 -72 16.5t-69 16.5q-16 0 -39.5 -6t-39.5 -12l-15 -6v39q44 24 96 24zM211 231q34 0 72 -16.5t69 -16.5q16 0 39.5 6t38.5 12l16 6v-39q-44 -24 -96 -24q-34 0 -72 16t-69 16
q-16 0 -39.5 -5.5t-39.5 -11.5l-15 -6v38q44 25 96 25z" />
    <glyph glyph-name="notequal.tosf" 
d="M414 449l-49 -77h81v-35h-102l-94 -150h196v-35h-218l-44 -72h-37l43 72h-76v35h99l94 150h-193v35h214l49 77h37z" />
    <glyph glyph-name="lessequal.tosf" 
d="M450 432v-43l-302 -132l302 -132v-42l-341 154v39zM450 34v-34h-341v34h341z" />
    <glyph glyph-name="greaterequal.tosf" 
d="M109 432l341 -156v-39l-341 -154v42l302 132l-302 132v43zM450 34v-34h-341v34h341z" />
    <glyph glyph-name="lozenge.tosf" 
d="M300 683l232 -341l-232 -342h-40l-232 342l232 341h40zM280 647l-203 -305l203 -302l203 302z" />
    <glyph glyph-name="c_h" horiz-adv-x="938" 
d="M248 523q49 0 109 -13l-1 -35q-61 13 -108 13q-69 0 -98 -27.5t-29 -93.5v-224q0 -62 30 -90t99 -28q45 0 106 13l1 -37q-69 -13 -108 -13q-89 0 -128 38.5t-39 119.5v219q0 83 38 120.5t128 37.5zM851 511v-511h-39v246h-262v-246h-39v511h39v-229h262v229h39z" />
    <glyph glyph-name="c_k" horiz-adv-x="853" 
d="M248 523q49 0 109 -13l-1 -35q-61 13 -108 13q-69 0 -98 -27.5t-29 -93.5v-224q0 -62 30 -90t99 -28q45 0 106 13l1 -37q-69 -13 -108 -13q-89 0 -128 38.5t-39 119.5v219q0 83 38 120.5t128 37.5zM838 511l-248 -247l268 -264h-54l-254 253v-253h-39v511h39v-241
l240 241h48z" />
    <glyph glyph-name="s_t" horiz-adv-x="828" 
d="M201 523q48 0 103 -11v-35q-70 11 -103 11q-113 0 -113 -90v-23q0 -33 17.5 -52.5t65.5 -34.5l80 -25q51 -16 73 -44.5t22 -80.5v-18q0 -68 -39 -100t-130 -32q-42 0 -111 13l1 37q71 -13 108 -13q72 0 102 21t30 68v30q0 63 -73 85l-90 28q-52 16 -73.5 44.5t-21.5 78.5
v12q0 66 36.5 98.5t115.5 32.5zM791 511v-37h-166v-474h-39v474h-166v37h371z" />
    <glyph glyph-name="i.latn_TRK" horiz-adv-x="212" 
d="M106 669q32 0 32 -26v-18q0 -26 -32 -26q-30 0 -30 26v18q0 26 30 26zM126 511v-511h-39v511h39z" />
    <glyph glyph-name="ldot.latn_CAT" horiz-adv-x="390" 
d="M126 511v-474h227v-37h-266v511h39zM284 315q32 0 32 -26v-18q0 -26 -32 -26q-30 0 -30 26v18q0 26 30 26z" />
    <glyph glyph-name="parenleft.case" horiz-adv-x="218" 
d="M244 709v-34q-79 -4 -102.5 -26t-23.5 -97v-453q0 -75 23.5 -97t102.5 -26v-34q-96 0 -131 33.5t-35 132.5v435q0 99 35 132.5t131 33.5z" />
    <glyph glyph-name="parenright.case" horiz-adv-x="218" 
d="M-25 675v34q96 0 131 -33.5t35 -132.5v-435q0 -99 -35 -132.5t-131 -33.5v34q79 4 102.5 26t23.5 97v453q0 74 -24 96.5t-102 26.5z" />
    <glyph glyph-name="plus.case" horiz-adv-x="400" 
d="M218 518v-164h148v-36h-148v-165h-36v165h-149v36h149v164h36z" />
    <glyph glyph-name="hyphen.case" horiz-adv-x="350" 
d="M274 344v-34h-197v34h197z" />
    <glyph glyph-name="slash.case" horiz-adv-x="255" 
d="M248 683l-205 -683h-38l205 683h38z" />
    <glyph glyph-name="less.case" horiz-adv-x="400" 
d="M370 511v-43l-302 -136l302 -137v-42l-341 159v39z" />
    <glyph glyph-name="equal.case" horiz-adv-x="404" 
d="M368 442v-35h-332v35h332zM368 257v-35h-332v35h332z" />
    <glyph glyph-name="greater.case" horiz-adv-x="400" 
d="M29 511l341 -160v-39l-341 -159v42l302 137l-302 136v43z" />
    <glyph glyph-name="bracketleft.case" horiz-adv-x="229" 
d="M252 710v-35h-130v-699h130v-35h-170v769h170z" />
    <glyph glyph-name="backslash.case" horiz-adv-x="255" 
d="M43 683l205 -683h-38l-205 683h38z" />
    <glyph glyph-name="bracketright.case" horiz-adv-x="229" 
d="M148 710v-769h-170v35h130v699h-130v35h170z" />
    <glyph glyph-name="grave.case" horiz-adv-x="172" 
d="M76 825l66 -119h-35l-77 119h46z" />
    <glyph glyph-name="braceleft.case" horiz-adv-x="239" 
d="M265 709v-34q-80 -2 -103 -24t-23 -97v-113q0 -96 -58 -115q31 -11 44.5 -37.5t13.5 -77.5v-114q0 -75 23.5 -97t102.5 -24v-34q-99 0 -132.5 32.5t-33.5 133.5v103q0 97 -65 97h-25v36h25q65 0 65 97v102q0 101 34 133.5t132 32.5z" />
    <glyph glyph-name="braceright.case" horiz-adv-x="239" 
d="M-25 675v34q98 0 132 -32.5t34 -133.5v-102q0 -97 65 -97h25v-36h-25q-65 0 -65 -97v-103q0 -101 -34 -133.5t-132 -32.5v34q79 2 102.5 24t23.5 97v114q0 51 13.5 77.5t44.5 37.5q-58 18 -58 115v113q0 75 -23 97t-103 24z" />
    <glyph glyph-name="asciitilde.case" horiz-adv-x="398" 
d="M130 368q34 0 72 -16.5t69 -16.5q16 0 39.5 6t39.5 12l15 6v-38q-44 -25 -96 -25q-35 0 -72 16t-69 16q-16 0 -39.5 -6t-38.5 -12l-16 -5v38q44 25 96 25z" />
    <glyph glyph-name="dieresis.case" horiz-adv-x="241" 
d="M57 795q29 0 29 -24v-17q0 -24 -29 -24q-27 0 -27 24v17q0 11 7.5 17.5t19.5 6.5zM182 795q29 0 29 -24v-17q0 -24 -29 -24q-27 0 -27 24v17q0 11 7.5 17.5t19.5 6.5z" />
    <glyph glyph-name="guillemotleft.case" horiz-adv-x="488" 
d="M216 468l-93 -170l92 -170h-40l-98 170l99 170h40zM337 468l-93 -170l92 -170h-40l-98 170l99 170h40z" />
    <glyph glyph-name="uni00AD.case" horiz-adv-x="350" 
d="M274 343v-34h-197v34h197z" />
    <glyph glyph-name="macron.case" horiz-adv-x="272" 
d="M242 765v-39h-212v39h212z" />
    <glyph glyph-name="acute.case" horiz-adv-x="172" 
d="M142 825l-77 -119h-35l66 119h46z" />
    <glyph glyph-name="periodcentered.case" horiz-adv-x="198" 
d="M99 290q33 0 33 -29v-15q0 -27 -33 -27q-32 0 -32 27v15q0 29 32 29z" />
    <glyph glyph-name="guillemotright.case" horiz-adv-x="488" 
d="M117 468l99 -170l-98 -170h-40l92 170l-93 170h40zM238 468l99 -170l-98 -170h-40l92 170l-93 170h40z" />
    <glyph glyph-name="multiply.case" horiz-adv-x="400" 
d="M316 478l25 -25l-116 -118l115 -116l-25 -25l-117 116l-115 -116l-26 25l116 116l-116 117l25 25l117 -116z" />
    <glyph glyph-name="circumflex.case" horiz-adv-x="300" 
d="M150 814l120 -58v-36l-120 52l-120 -52v36z" />
    <glyph glyph-name="caron.case" horiz-adv-x="300" 
d="M270 816v-35l-120 -59l-120 59v35l120 -51z" />
    <glyph glyph-name="breve.case" horiz-adv-x="301" 
d="M271 799v-44q-5 -5 -14.5 -11.5t-40.5 -18t-65 -11.5t-64.5 10t-43.5 20l-13 11v44q6 -5 16.5 -13t42 -21t62.5 -13t61 12t44 24z" />
    <glyph glyph-name="dotaccent.case" horiz-adv-x="122" 
d="M60 801q32 0 32 -27v-17q0 -27 -32 -27q-30 0 -30 27v17q0 27 30 27z" />
    <glyph glyph-name="ring.case" horiz-adv-x="248" 
d="M124 840q44 0 69 -22t25 -63t-25 -63t-69 -22q-45 0 -69.5 21.5t-24.5 63.5q0 41 25 63t69 22zM124 812q-61 0 -61 -57t61 -57t61 57t-61 57z" />
    <glyph glyph-name="tilde.case" horiz-adv-x="317" 
d="M287 784v-35q-37 -25 -78 -25q-17 0 -53 12.5t-51 12.5t-33.5 -5.5t-29.5 -10.5l-12 -5v36q35 24 77 24q23 0 58 -12.5t46 -12.5q15 0 34 5.5t31 10.5z" />
    <glyph glyph-name="hungarumlaut.case" horiz-adv-x="268" 
d="M127 825l-64 -119h-33l58 119h39zM238 825l-64 -119h-33l58 119h39z" />
    <glyph glyph-name="uni0326.case" horiz-adv-x="0" 
d="M58 -56q30 0 30 -28v-12q0 -20 -8 -47l-13 -45h-28l14 66q-23 4 -23 27v12q0 27 28 27z" />
    <glyph glyph-name="tonos.case" horiz-adv-x="132" 
d="M63 516h-33l26 139h46z" />
    <glyph glyph-name="endash.case" horiz-adv-x="610" 
d="M534 344v-34h-457v34h457z" />
    <glyph glyph-name="emdash.case" horiz-adv-x="710" 
d="M634 344v-34h-557v34h557z" />
    <glyph glyph-name="bullet.case" horiz-adv-x="217" 
d="M108 346q43 0 43 -34v-29q0 -34 -43 -34q-41 0 -41 34v29q0 34 41 34z" />
    <glyph glyph-name="guilsinglleft.case" horiz-adv-x="318" 
d="M216 468l-93 -170l92 -170h-40l-98 170l99 170h40z" />
    <glyph glyph-name="guilsinglright.case" horiz-adv-x="318" 
d="M117 468l99 -170l-98 -170h-40l92 170l-93 170h40z" />
    <glyph glyph-name="minus.case" horiz-adv-x="400" 
d="M366 323v-35h-333v35h333z" />
    <glyph glyph-name="infinity.case" horiz-adv-x="519" 
d="M365 462q70 0 101 -33t31 -97v-11q0 -130 -132 -130q-73 0 -105 54q-32 -54 -106 -54q-70 0 -100.5 33t-30.5 97v11q0 63 30.5 96.5t100.5 33.5q74 0 106 -54q32 54 105 54zM151 426q-89 0 -89 -91v-16q0 -92 89 -92q91 0 91 92v16q0 91 -91 91zM368 426q-90 0 -90 -91
v-16q0 -92 90 -92t90 92v16q0 91 -90 91z" />
    <glyph glyph-name="approxequal.case" horiz-adv-x="398" 
d="M130 448q34 0 72 -16t69 -16q16 0 39.5 6t39.5 12l15 5v-38q-44 -25 -96 -25q-35 0 -72 16.5t-69 16.5q-16 0 -39.5 -6t-38.5 -12l-16 -6v39q44 24 96 24zM130 301q34 0 72 -16.5t69 -16.5q16 0 39.5 6t39.5 12l15 6v-39q-44 -24 -96 -24q-35 0 -72 16t-69 16
q-16 0 -39.5 -5.5t-38.5 -11.5l-16 -6v38q44 25 96 25z" />
    <glyph glyph-name="notequal.case" horiz-adv-x="400" 
d="M334 519l-49 -77h81v-35h-102l-94 -150h196v-35h-218l-44 -72h-37l43 72h-76v35h99l94 150h-193v35h214l49 77h37z" />
    <glyph glyph-name="zero.zero" horiz-adv-x="502" 
d="M251 613q175 0 175 -200v-226q0 -100 -46 -149.5t-128 -49.5q-175 0 -175 197v227q0 201 174 201zM251 577q-134 0 -134 -156v-239q0 -83 40 -121l154 505q-27 11 -60 11zM340 545l-154 -507q30 -14 66 -14q134 0 134 158v239q0 87 -46 124z" />
    <glyph glyph-name="zero.osf.zero" horiz-adv-x="492" 
d="M247 523q85 0 130 -50.5t45 -150.5v-133q0 -97 -45 -149t-130 -52q-86 0 -131 51t-45 150v133q0 201 176 201zM247 487q-136 0 -136 -156v-151q0 -92 52 -131l132 430q-22 8 -48 8zM326 464l-132 -431q22 -9 53 -9q67 0 101 40.5t34 115.5v151q0 96 -56 133z" />
    <glyph glyph-name="zero.tf.zero" 
d="M279 667q183 0 183 -200v-280q0 -100 -48 -149.5t-134 -49.5q-183 0 -183 197v281q0 201 182 201zM279 631q-142 0 -142 -156v-293q0 -84 42 -121l169 556q-30 14 -69 14zM379 596l-170 -558q31 -14 71 -14q143 0 143 158v293q0 83 -44 121z" />
    <glyph glyph-name="zero.tosf.zero" 
d="M281 523q85 0 130 -50.5t45 -150.5v-133q0 -97 -45 -149t-130 -52q-86 0 -131 51t-45 150v133q0 201 176 201zM281 487q-136 0 -136 -156v-151q0 -92 52 -131l132 430q-22 8 -48 8zM360 464l-132 -431q22 -9 53 -9q67 0 101 40.5t34 115.5v151q0 96 -56 133z" />
    <glyph glyph-name="uni0432.ss01" horiz-adv-x="451" 
d="M220 500q165 0 165 -124v-6q0 -91 -85 -121q106 -20 106 -121v-5q0 -135 -176 -135q-63 0 -144 4v505q108 3 134 3zM211 465q-56 0 -86 -2v-201h116q47 0 76.5 29.5t29.5 71.5v7q0 49 -31.5 72t-104.5 23zM239 229h-114v-202q57 -4 105 -4q137 0 137 101v6
q0 46 -33.5 72.5t-94.5 26.5z" />
    <glyph glyph-name="uni0433.ss01" horiz-adv-x="361" 
d="M329 488v-34h-202v-454h-41v488h243z" />
    <glyph glyph-name="uni0434.ss01" horiz-adv-x="495" 
d="M269 500q71 0 138 -8v-457h43v-155h-39v120h-330v-120h-39v155h43v293q0 88 42 130t142 42zM263 466q-73 0 -106 -31.5t-33 -95.5v-304h243v426q-46 5 -104 5z" />
    <glyph glyph-name="uni0436.ss01" horiz-adv-x="602" 
d="M569 488l-132 -225l148 -263h-46l-137 244h-82v-244h-40v244h-81l-136 -244h-45l148 263l-133 225h44l123 -210h80v210h40v-210h83l123 210h43z" />
    <glyph glyph-name="uni043A.ss01" horiz-adv-x="418" 
d="M384 488l-143 -225l159 -263h-48l-146 243h-80v-243h-40v488h40v-210h81l133 210h44z" />
    <glyph glyph-name="uni044E.ss01" horiz-adv-x="651" 
d="M421 500q155 0 155 -177v-158q0 -177 -155 -177t-155 177v69h-139v-234h-41v488h41v-220h139v55q0 177 155 177zM420 464q-115 0 -115 -133v-174q0 -133 115 -133t115 133v174q0 133 -115 133z" />
    <glyph glyph-name="z.ss02" horiz-adv-x="375" 
d="M317 488v-32l-174 -255h51q79 -1 112.5 -41.5t33.5 -127.5v-73q0 -85 -33.5 -120.5t-116.5 -35.5q-55 0 -149 15v38q80 -16 149 -16q60 0 85 24.5t25 85.5v90q0 69 -25.5 96.5t-84.5 27.5h-95v29l172 258h-231v37h281z" />
    <glyph glyph-name="germandbls.ss02" horiz-adv-x="472" 
d="M232 695q30 0 56 -6v-34q-28 5 -58 5q-73 0 -73 -97v-75h266v-31l-127 -256q86 -2 120.5 -38t34.5 -128v-76q0 -85 -33.5 -120.5t-114.5 -35.5q-58 0 -121 11v38q60 -12 120 -12t84.5 25t24.5 85v90q0 71 -25 97.5t-89 26.5h-46v28l126 262h-220v-454h-41v454h-70v34h70
v67q0 74 28.5 107t87.5 33z" />
    <glyph glyph-name="ampersand.ss03" horiz-adv-x="592" 
d="M236 667q57 0 115 -9l-2 -35q-51 9 -113 9q-68 0 -96.5 -32t-28.5 -99v-22q0 -51 35.5 -89.5t94.5 -38.5h29v-35h-40q-69 0 -106.5 -38.5t-37.5 -89.5v-27q0 -66 36.5 -101.5t110.5 -35.5q49 0 86 33t45 78v216l10 121h30v-121h136v-35h-136v-193q0 -58 17.5 -78.5
t57.5 -20.5q37 0 82 9v-35q-44 -10 -75 -10q-56 1 -82 18.5t-34 62.5q-49 -81 -138 -81q-186 0 -186 174v22q0 55 32 96t94 58q-101 36 -101 148v22q0 75 40.5 117t124.5 42z" />
    <glyph glyph-name="caron.alt" horiz-adv-x="89" 
d="M58 695q30 0 30 -28v-12q0 -20 -8 -46l-13 -46h-28l14 66q-23 4 -23 27v12q0 27 28 27z" />
    </font>
</defs>
</svg>
