<?xml version="1.0" standalone="no"?>
<!DOCTYPE svg PUBLIC "-//W3C//DTD SVG 1.1//EN" "http://www.w3.org/Graphics/SVG/1.1/DTD/svg11.dtd" >
<svg>
<metadata>
Created by FontForge 20120731 at Sun Aug  4 10:25:30 2019
 By www
(c) 2014, Copyright by Botio Nikoltchev. All rights reserved.
</metadata>
<defs>
<font id="RopaSansSCPro-Black" horiz-adv-x="560" >
  <font-face 
    font-family="Ropa Sans SC Pro Black"
    font-weight="900"
    font-stretch="normal"
    units-per-em="1000"
    panose-1="2 11 10 4 2 1 1 1 1 2"
    ascent="800"
    descent="-200"
    x-height="511"
    cap-height="655"
    bbox="-238 -366 1266 953"
    underline-thickness="50"
    underline-position="-100"
    unicode-range="U+000D-FEFF"
  />
<missing-glyph horiz-adv-x="437" 
d="M30 0v655h377v-655h-377zM167 137h103v381h-103v-381z" />
    <glyph glyph-name="f_f" unicode="ff" horiz-adv-x="756" 
d="M363 376h-183v-54h128v-130h-128v-192h-150v511h333v-135zM741 376h-183v-54h128v-130h-128v-192h-150v511h333v-135z" />
    <glyph glyph-name="f_f_i" unicode="ffi" horiz-adv-x="966" 
d="M363 376h-183v-54h128v-130h-128v-192h-150v511h333v-135zM741 376h-183v-54h128v-130h-128v-192h-150v511h333v-135zM936 0h-150v511h150v-511z" />
    <glyph glyph-name="f_f_j" unicode="ffj" horiz-adv-x="983" 
d="M363 376h-183v-54h128v-130h-128v-192h-150v511h333v-135zM741 376h-183v-54h128v-130h-128v-192h-150v511h333v-135zM953 511v-343q0 -180 -155 -180q-57 0 -92 11v127q31 -6 60 -6q21 0 29 10t8 37v344h150z" />
    <glyph glyph-name="f_f_l" unicode="ffl" horiz-adv-x="1124" 
d="M363 376h-183v-54h128v-130h-128v-192h-150v511h333v-135zM741 376h-183v-54h128v-130h-128v-192h-150v511h333v-135zM936 135h183v-135h-333v511h150v-376z" />
    <glyph glyph-name="f_i" unicode="fi" horiz-adv-x="588" 
d="M363 376h-183v-54h128v-130h-128v-192h-150v511h333v-135zM558 0h-150v511h150v-511z" />
    <glyph glyph-name="f_j" unicode="fj" horiz-adv-x="605" 
d="M363 376h-183v-54h128v-130h-128v-192h-150v511h333v-135zM575 511v-343q0 -180 -155 -180q-57 0 -92 11v127q31 -6 60 -6q21 0 29 10t8 37v344h150z" />
    <glyph glyph-name="f_l" unicode="fl" horiz-adv-x="746" 
d="M363 376h-183v-54h128v-130h-128v-192h-150v511h333v-135zM558 135h183v-135h-333v511h150v-376z" />
    <glyph glyph-name=".notdef" horiz-adv-x="437" 
d="M30 0v655h377v-655h-377zM167 137h103v381h-103v-381z" />
    <glyph glyph-name=".null" horiz-adv-x="0" 
 />
    <glyph glyph-name=".null" horiz-adv-x="0" 
 />
    <glyph glyph-name="uni000D" unicode="&#xd;" horiz-adv-x="80" 
 />
    <glyph glyph-name="space" unicode=" " horiz-adv-x="105" 
 />
    <glyph glyph-name="exclam" unicode="!" horiz-adv-x="211" 
d="M183 200h-155l-7 495h169zM105 171q91 0 91 -80v-24q0 -38 -23.5 -58.5t-67.5 -20.5t-67 20.5t-23 58.5v24q0 80 90 80z" />
    <glyph glyph-name="quotedbl" unicode="&#x22;" horiz-adv-x="403" 
d="M184 388h-159v295h159v-295zM378 388h-159v295h159v-295z" />
    <glyph glyph-name="numbersign" unicode="#" horiz-adv-x="587" 
d="M483 510h64v-142h-64v-123h64v-142h-64v-103h-157v103h-65v-103h-157v103h-64v142h64v123h-64v142h64v103h157v-103h65v103h157v-103zM261 368v-123h65v123h-65z" />
    <glyph glyph-name="dollar" unicode="$" horiz-adv-x="426" 
d="M300 695v-87q28 -2 83 -10l-1 -146q-88 16 -148 16t-60 -38v-8q0 -27 32 -37l52 -15q90 -26 122.5 -65t32.5 -117v-19q0 -133 -113 -168v-94h-151v83q-56 7 -113 18l2 148q104 -24 153 -24q35 0 48.5 9t13.5 29v16q0 24 -40 36l-53 16q-82 25 -113.5 65.5t-31.5 121.5v9
q0 142 134 170v91h151z" />
    <glyph glyph-name="percent" unicode="%" horiz-adv-x="893" 
d="M196 625q86 0 130.5 -44.5t44.5 -130.5v-25q0 -85 -44 -130t-131 -45q-85 0 -130.5 44t-45.5 131v25q0 86 45.5 130.5t130.5 44.5zM369 0h-179l335 613h180zM196 489q-23 0 -23 -32v-39q0 -32 23 -32t23 32v39q0 32 -23 32zM698 363q86 0 130.5 -44.5t44.5 -130.5v-25
q0 -85 -44 -130t-131 -45q-85 0 -130.5 44t-45.5 131v25q0 86 45.5 130.5t130.5 44.5zM698 227q-23 0 -23 -32v-39q0 -32 23 -32t23 32v39q0 32 -23 32z" />
    <glyph glyph-name="ampersand" unicode="&#x26;" horiz-adv-x="496" 
d="M223 667q66 0 133 -9l-2 -139q-58 9 -103 9q-68 0 -68 -55v-13q0 -57 60 -57h53v46h151v-46h44v-141h-44v-245q-116 -29 -209 -29q-122 0 -178 46t-56 136v23q0 50 32.5 92t87.5 59q-99 38 -99 136v15q0 76 53 124t145 48zM296 262h-52q-81 0 -81 -58v-17q0 -56 80 -56
q30 0 53 5v126z" />
    <glyph glyph-name="quotesingle" unicode="'" horiz-adv-x="209" 
d="M184 388h-159v295h159v-295z" />
    <glyph glyph-name="parenleft" unicode="(" horiz-adv-x="254" 
d="M279 809v-132q-53 -1 -71.5 -16.5t-18.5 -52.5v-563q0 -36 19 -51t71 -16v-132q-137 0 -193 52.5t-56 169.5v519q0 117 56 169.5t193 52.5z" />
    <glyph glyph-name="parenright" unicode=")" horiz-adv-x="254" 
d="M-25 677v132q137 0 193 -52.5t56 -169.5v-519q0 -117 -56 -169.5t-193 -52.5v132q52 1 71 16t19 51v563q0 37 -18.5 52.5t-71.5 16.5z" />
    <glyph glyph-name="asterisk" unicode="*" horiz-adv-x="382" 
d="M244 599l81 54l47 -141l-97 -11l73 -58l-123 -87l-34 81l-35 -86l-122 94l72 57l-96 9l47 143l81 -54l-24 95h154z" />
    <glyph glyph-name="plus" unicode="+" horiz-adv-x="400" 
d="M276 361h116v-142h-116v-127h-152v127h-117v142h117v127h152v-127z" />
    <glyph glyph-name="comma" unicode="," horiz-adv-x="209" 
d="M104 171q90 0 90 -79v-26q0 -30 -7 -54l-58 -173h-113l43 157q-44 17 -44 72v24q0 37 22.5 58t66.5 21z" />
    <glyph glyph-name="hyphen" unicode="-" horiz-adv-x="290" 
d="M270 226h-250v138h250v-138z" />
    <glyph glyph-name="period" unicode="." horiz-adv-x="211" 
d="M105 171q91 0 91 -80v-24q0 -38 -23.5 -58.5t-67.5 -20.5t-67 20.5t-23 58.5v24q0 80 90 80z" />
    <glyph glyph-name="slash" unicode="/" horiz-adv-x="337" 
d="M147 0h-162l205 683h162z" />
    <glyph glyph-name="zero" unicode="0" horiz-adv-x="441" 
d="M221 613q198 0 198 -207v-209q0 -209 -198 -209q-199 0 -199 209v209q0 207 199 207zM221 470q-21 0 -30 -11.5t-9 -40.5v-233q0 -29 9 -41.5t30 -12.5q39 0 39 54v233q0 29 -9 40.5t-30 11.5z" />
    <glyph glyph-name="one" unicode="1" horiz-adv-x="316" 
d="M286 0h-159v431h-2l-99 -47l-31 145l176 72h115v-601z" />
    <glyph glyph-name="two" unicode="2" horiz-adv-x="394" 
d="M164 613q102 0 157 -46.5t55 -135.5v-19q0 -100 -89 -189l-81 -81h164v-142h-372v110l184 220q31 38 31 77v9q0 24 -19 39.5t-53 15.5q-48 0 -126 -22v142q98 22 149 22z" />
    <glyph glyph-name="three" unicode="3" horiz-adv-x="374" 
d="M162 613q85 0 137.5 -43t52.5 -113v-18q0 -40 -24 -77t-61 -51q40 -13 68 -51.5t28 -84.5v-12q0 -76 -54 -125.5t-145 -49.5q-59 0 -151 14v139q79 -14 131 -14q60 0 60 54v8q0 27 -13 39t-41 12h-108v138h103q48 0 48 48v9q0 39 -51 39q-35 0 -129 -15v139q98 15 149 15
z" />
    <glyph glyph-name="four" unicode="4" horiz-adv-x="450" 
d="M390 247h55v-142h-55v-105h-158v105h-227v103l175 393h210v-354zM180 247h53v34l14 169z" />
    <glyph glyph-name="five" unicode="5" horiz-adv-x="420" 
d="M367 462h-184v-102q14 17 42 28.5t56 11.5q127 0 127 -184v-22q0 -104 -49.5 -155t-156.5 -51q-81 0 -170 24v140q110 -21 162 -21q55 0 55 55v28q0 43 -37 43q-35 0 -69 -38h-120v385h344v-142z" />
    <glyph glyph-name="six" unicode="6" horiz-adv-x="432" 
d="M370 606v-136q-113 -5 -152 -25t-39 -64v-21q45 45 102 45q64 0 99.5 -46.5t35.5 -142.5v-32q0 -97 -51 -146.5t-148 -49.5q-96 0 -147 52t-51 148v181q0 236 351 237zM230 260q-24 0 -51 -30v-50q0 -49 38 -49q40 0 40 45v43q0 23 -6 32t-21 9z" />
    <glyph glyph-name="seven" unicode="7" horiz-adv-x="392" 
d="M392 503l-201 -503h-171l187 458v1h-204v141h389v-97z" />
    <glyph glyph-name="eight" unicode="8" horiz-adv-x="429" 
d="M215 613q89 0 136.5 -39t47.5 -115v-14q0 -34 -19 -68t-49 -48q40 -15 65 -52.5t25 -78.5v-23q0 -90 -53 -138.5t-153 -48.5t-153.5 48t-53.5 139v23q0 40 26 77.5t65 53.5q-31 14 -49.5 48t-18.5 68v14q0 75 47.5 114.5t136.5 39.5zM215 484q-30 0 -30 -31v-28
q0 -32 30 -32q29 0 29 32v28q0 31 -29 31zM215 259q-48 0 -48 -47v-51q0 -18 12.5 -29t35.5 -11t35 11t12 29v51q0 22 -12.5 34.5t-34.5 12.5z" />
    <glyph glyph-name="nine" unicode="9" horiz-adv-x="434" 
d="M215 612q94 0 146 -50.5t52 -149.5v-199q0 -115 -52.5 -170t-162.5 -55q-80 0 -147 13v142q72 -14 127 -14q36 0 55.5 17.5t19.5 47.5v46q-45 -45 -102 -45q-63 0 -99 46.5t-36 142.5v32q0 97 51.5 146.5t147.5 49.5zM215 469q-40 0 -40 -45v-43q0 -23 6 -32t21 -9
q24 0 51 30v50q0 49 -38 49z" />
    <glyph glyph-name="colon" unicode=":" horiz-adv-x="211" 
d="M105 171q91 0 91 -80v-24q0 -38 -23.5 -58.5t-67.5 -20.5t-67 20.5t-23 58.5v24q0 80 90 80zM105 482q91 0 91 -80v-24q0 -38 -23.5 -58.5t-67.5 -20.5t-67 20.5t-23 58.5v24q0 80 90 80z" />
    <glyph glyph-name="semicolon" unicode=";" horiz-adv-x="211" 
d="M104 171q90 0 90 -79v-26q0 -30 -7 -54l-58 -173h-113l43 157q-44 17 -44 72v24q0 37 22.5 58t66.5 21zM105 482q91 0 91 -80v-24q0 -38 -23.5 -58.5t-67.5 -20.5t-67 20.5t-23 58.5v24q0 80 90 80z" />
    <glyph glyph-name="less" unicode="&#x3c;" horiz-adv-x="430" 
d="M409 355l-165 -68l165 -69v-162l-389 173v116l389 172v-162z" />
    <glyph glyph-name="equal" unicode="=" horiz-adv-x="430" 
d="M406 320h-383v142h383v-142zM406 139h-383v142h383v-142z" />
    <glyph glyph-name="greater" unicode="&#x3e;" horiz-adv-x="430" 
d="M409 345v-116l-389 -173v162l165 69l-165 68v162z" />
    <glyph glyph-name="question" unicode="?" horiz-adv-x="371" 
d="M164 695q101 0 147.5 -39t46.5 -122v-11q0 -88 -68 -161l-33 -36q-22 -23 -22 -54v-62h-156v58q0 51 8 74t36 55l49 56q16 18 21 30t5 31v4q0 37 -58 37q-51 0 -133 -21v143q87 18 157 18zM158 171q91 0 91 -80v-24q0 -38 -23.5 -58.5t-67.5 -20.5t-67 20.5t-23 58.5v24
q0 80 90 80z" />
    <glyph glyph-name="at" unicode="@" horiz-adv-x="899" 
d="M444 695q218 0 324 -88.5t106 -266.5v-57q0 -130 -66.5 -201.5t-182.5 -71.5q-105 0 -148 71q-69 -71 -123 -71q-61 0 -94.5 49.5t-22.5 136.5l14 115q11 88 48 132t93 44q57 0 106 -47l4 34h148l-34 -244q-5 -43 1 -58.5t22 -15.5q30 0 52.5 37.5t22.5 99.5v47
q0 113 -60.5 161t-209.5 48q-127 0 -193.5 -62t-66.5 -172v-149q0 -114 46.5 -159.5t168.5 -45.5h196v-146h-196q-195 0 -284.5 83.5t-89.5 267.5v149q0 181 108 280.5t311 99.5zM439 340q-24 0 -31 -50l-13 -93q-6 -40 17 -40q16 0 38 22l19 145q-15 16 -30 16z" />
    <glyph glyph-name="A" unicode="A" horiz-adv-x="542" 
d="M552 0h-177l-24 118h-165l-24 -118h-172l185 655h192zM213 254h111l-55 271z" />
    <glyph glyph-name="B" unicode="B" horiz-adv-x="492" 
d="M226 666q113 0 174.5 -47t61.5 -118v-13q0 -50 -27.5 -87.5t-80.5 -55.5q61 -11 96 -51.5t35 -98.5v-16q0 -89 -61.5 -140t-193.5 -51q-116 0 -200 4v668q165 6 196 6zM225 522q-16 0 -29 -1v-119h39q30 0 45.5 15.5t15.5 41.5v13q0 50 -71 50zM196 261v-125q15 -1 39 -1
q84 0 84 57v14q0 55 -79 55h-44z" />
    <glyph glyph-name="C" unicode="C" horiz-adv-x="439" 
d="M256 667q53 0 166 -19l-2 -149q-94 16 -134 16q-58 0 -76.5 -18t-18.5 -73v-191q0 -55 19 -73t76 -18q40 0 134 20l2 -154q-109 -20 -166 -20q-125 0 -178 53t-53 166v241q0 114 53 166.5t178 52.5z" />
    <glyph glyph-name="D" unicode="D" horiz-adv-x="517" 
d="M235 665q128 0 195 -70.5t67 -198.5v-145q0 -126 -67.5 -194.5t-208.5 -68.5q-97 0 -191 7v665q148 5 205 5zM231 516q-23 0 -35 -1v-376q14 -1 35 -1q100 0 100 107v156q0 60 -24.5 87.5t-75.5 27.5z" />
    <glyph glyph-name="E" unicode="E" horiz-adv-x="442" 
d="M422 501h-226v-92h206v-153h-206v-102h226v-154h-392v655h392v-154z" />
    <glyph glyph-name="F" unicode="F" horiz-adv-x="437" 
d="M422 501h-226v-92h162v-153h-162v-256h-166v655h392v-154z" />
    <glyph glyph-name="G" unicode="G" horiz-adv-x="508" 
d="M256 667q95 0 197 -20l-2 -149q-99 19 -185 19q-42 0 -58.5 -16t-16.5 -55v-234q0 -39 16 -55.5t53 -16.5q24 0 52 3v115h-59v146h225v-371q-124 -45 -227 -45q-122 0 -174 53.5t-52 165.5v241q0 114 53 166.5t178 52.5z" />
    <glyph glyph-name="H" unicode="H" horiz-adv-x="526" 
d="M496 0h-166v259h-134v-259h-166v655h166v-243h134v243h166v-655z" />
    <glyph glyph-name="I" unicode="I" horiz-adv-x="226" 
d="M196 0h-166v655h166v-655z" />
    <glyph glyph-name="J" unicode="J" horiz-adv-x="315" 
d="M285 655v-452q0 -215 -184 -215q-62 0 -101 13v144q39 -7 75 -7q24 0 34 13t10 46v458h166z" />
    <glyph glyph-name="K" unicode="K" horiz-adv-x="544" 
d="M317 332l235 -332h-194l-162 247v-247h-166v655h166v-266l170 266h170z" />
    <glyph glyph-name="L" unicode="L" horiz-adv-x="427" 
d="M196 153h226v-153h-392v655h166v-502z" />
    <glyph glyph-name="M" unicode="M" horiz-adv-x="654" 
d="M465 345l-57 -267h-163l-57 267l-6 -345h-155l6 655h194l102 -404l101 404h190l7 -655h-155z" />
    <glyph glyph-name="N" unicode="N" horiz-adv-x="528" 
d="M188 343v-343h-158v655h200l110 -343v343h158v-655h-195z" />
    <glyph glyph-name="O" unicode="O" horiz-adv-x="521" 
d="M260 667q236 0 236 -230v-219q0 -230 -236 -230q-235 0 -235 230v219q0 230 235 230zM260 515q-69 0 -69 -69v-235q0 -71 69 -71q70 0 70 71v234q0 70 -70 70z" />
    <glyph glyph-name="P" unicode="P" horiz-adv-x="484" 
d="M225 666q124 0 186.5 -53.5t62.5 -147.5v-20q0 -100 -59.5 -156.5t-170.5 -56.5q-19 0 -48 4v-236h-166v660q147 6 195 6zM227 520q-20 0 -31 -1v-135q24 -2 34 -2q78 0 78 67v13q0 58 -81 58z" />
    <glyph glyph-name="Q" unicode="Q" horiz-adv-x="521" 
d="M260 667q236 0 236 -230v-219q0 -125 -88 -172l112 -21l1 -130h-62l-227 95h-2q-107 10 -156 66.5t-49 161.5v219q0 230 235 230zM260 515q-69 0 -69 -69v-238q0 -71 69 -71q70 0 70 71v237q0 70 -70 70z" />
    <glyph glyph-name="R" unicode="R" horiz-adv-x="515" 
d="M226 666q245 0 245 -195v-22q0 -104 -93 -163l152 -286h-182l-120 236q-21 0 -32 1v-237h-166v660q180 6 196 6zM230 518q-16 0 -34 -2v-132q11 -1 31 -1q78 0 78 65v10q0 60 -75 60z" />
    <glyph glyph-name="S" unicode="S" horiz-adv-x="457" 
d="M234 667q66 0 166 -17l-2 -154q-104 19 -159 19t-55 -40v-13q0 -15 8 -24.5t31 -17.5l81 -26q75 -24 106.5 -67t31.5 -123v-19q0 -99 -57 -148t-182 -49q-53 0 -166 23l1 156q112 -25 159 -25q79 0 79 44v16q0 31 -29 41l-89 30q-79 26 -109.5 66.5t-30.5 121.5v10
q0 196 216 196z" />
    <glyph glyph-name="T" unicode="T" horiz-adv-x="518" 
d="M508 501h-166v-501h-166v501h-166v154h498v-154z" />
    <glyph glyph-name="U" unicode="U" horiz-adv-x="523" 
d="M493 655v-438q0 -229 -232 -229q-231 0 -231 229v438h166v-444q0 -71 65 -71t65 71v444h167z" />
    <glyph glyph-name="V" unicode="V" horiz-adv-x="551" 
d="M369 0h-187l-182 655h175l101 -516l100 516h175z" />
    <glyph glyph-name="W" unicode="W" horiz-adv-x="811" 
d="M678 0h-191l-81 484l-80 -484h-193l-130 655h174l58 -492l83 492h174l84 -489l58 489h174z" />
    <glyph glyph-name="X" unicode="X" horiz-adv-x="548" 
d="M366 334l192 -334h-194l-91 200l-93 -200h-190l192 334l-183 321h192l84 -187l85 187h190z" />
    <glyph glyph-name="Y" unicode="Y" horiz-adv-x="542" 
d="M354 228v-228h-166v228l-188 427h185l87 -277l88 277h182z" />
    <glyph glyph-name="Z" unicode="Z" horiz-adv-x="471" 
d="M451 530l-236 -378h236v-152h-438v124l237 379h-229v152h430v-125z" />
    <glyph glyph-name="bracketleft" unicode="[" horiz-adv-x="264" 
d="M289 677h-100v-699h100v-132h-259v961h259v-130z" />
    <glyph glyph-name="backslash" unicode="\" horiz-adv-x="337" 
d="M352 0h-162l-205 683h162z" />
    <glyph glyph-name="bracketright" unicode="]" horiz-adv-x="264" 
d="M234 -154h-259v132h100v699h-100v132h259v-963z" />
    <glyph glyph-name="asciicircum" unicode="^" horiz-adv-x="486" 
d="M466 367h-169l-55 160l-54 -160h-168l154 316h138z" />
    <glyph glyph-name="underscore" unicode="_" horiz-adv-x="551" 
d="M531 -185h-511v137h511v-137z" />
    <glyph glyph-name="grave" unicode="`" horiz-adv-x="289" 
d="M259 550h-113l-116 145h149z" />
    <glyph glyph-name="a" unicode="a" horiz-adv-x="455" 
d="M465 0h-160l-17 85h-125l-17 -85h-156l151 511h173zM186 203h78l-38 196z" />
    <glyph glyph-name="b" unicode="b" horiz-adv-x="419" 
d="M199 521q93 0 144.5 -35.5t51.5 -89.5v-14q0 -90 -86 -112q50 -10 77 -41t27 -79v-11q0 -151 -214 -151q-84 0 -169 5v524q94 4 169 4zM200 396q-11 0 -20 -1v-78h24q41 0 41 34v13q0 32 -45 32zM180 200v-83q12 -2 24 -2q59 0 59 38v10q0 37 -52 37h-31z" />
    <glyph glyph-name="c" unicode="c" horiz-adv-x="379" 
d="M220 523q42 0 142 -16l-2 -130q-76 13 -112 13q-45 0 -59 -14t-14 -56v-128q0 -41 15 -55t59 -14q38 0 111 16l2 -135q-94 -16 -142 -16q-104 0 -149.5 44t-45.5 136v175q0 94 46.5 137t148.5 43z" />
    <glyph glyph-name="d" unicode="d" horiz-adv-x="444" 
d="M201 521q106 0 164.5 -56.5t58.5 -162.5v-97q0 -106 -60 -161.5t-173 -55.5q-88 0 -161 5v524q102 4 171 4zM200 390q-14 0 -21 -1v-268q7 -1 21 -1q74 0 74 75v104q0 53 -16 72t-58 19z" />
    <glyph glyph-name="e" unicode="e" horiz-adv-x="383" 
d="M363 376h-183v-54h166v-131h-166v-56h183v-135h-333v511h333v-135z" />
    <glyph glyph-name="f" unicode="f" horiz-adv-x="378" 
d="M363 376h-183v-54h128v-130h-128v-192h-150v511h333v-135z" />
    <glyph glyph-name="g" unicode="g" horiz-adv-x="437" 
d="M220 523q74 0 167 -17l-2 -130q-94 16 -157 16q-29 0 -41 -10t-12 -32v-188q0 -41 45 -41q21 0 37 2v79h-34v112h184v-298q-91 -28 -187 -28q-104 0 -149.5 42.5t-45.5 133.5v185q0 91 45 132.5t150 41.5z" />
    <glyph glyph-name="h" unicode="h" horiz-adv-x="452" 
d="M422 0h-150v194h-92v-194h-150v511h150v-183h92v183h150v-511z" />
    <glyph glyph-name="i" unicode="i" horiz-adv-x="210" 
d="M180 0h-150v511h150v-511z" />
    <glyph glyph-name="j" unicode="j" horiz-adv-x="277" 
d="M247 511v-343q0 -180 -155 -180q-57 0 -92 11v127q31 -6 60 -6q21 0 29 10t8 37v344h150z" />
    <glyph glyph-name="k" unicode="k" horiz-adv-x="466" 
d="M297 263l179 -263h-176l-120 184v-184h-150v511h150v-199l128 199h155z" />
    <glyph glyph-name="l" unicode="l" horiz-adv-x="368" 
d="M180 135h183v-135h-333v511h150v-376z" />
    <glyph glyph-name="m" unicode="m" horiz-adv-x="562" 
d="M535 0h-146l-5 256l-41 -193h-126l-42 192l-5 -255h-143l3 511h172l79 -308l79 308h171z" />
    <glyph glyph-name="n" unicode="n" horiz-adv-x="454" 
d="M424 0h-157l-93 238v-238h-144v511h163l87 -235v235h144v-511z" />
    <glyph glyph-name="o" unicode="o" horiz-adv-x="446" 
d="M223 523q198 0 198 -189v-157q0 -189 -198 -189t-198 189v157q0 189 198 189zM223 390q-48 0 -48 -47v-173q0 -23 12.5 -36t35.5 -13t35.5 13t12.5 36v171q0 23 -12.5 36t-35.5 13z" />
    <glyph glyph-name="p" unicode="p" horiz-adv-x="415" 
d="M195 521q104 0 157 -42.5t53 -119.5v-18q0 -81 -47 -125t-131 -44q-26 0 -47 4v-176h-150v516q100 5 165 5zM200 393q-12 0 -20 -1v-91q5 -1 21 -1q53 0 53 44v10q0 39 -54 39z" />
    <glyph glyph-name="q" unicode="q" horiz-adv-x="446" 
d="M223 523q198 0 198 -189v-159q0 -106 -81 -149l72 -13l1 -97h-35l-176 72h-2q-92 10 -133.5 57t-41.5 132v157q0 189 198 189zM223 390q-48 0 -48 -47v-176q0 -23 12.5 -36t35.5 -13t35.5 13t12.5 36v174q0 23 -12.5 36t-35.5 13z" />
    <glyph glyph-name="r" unicode="r" horiz-adv-x="442" 
d="M196 521q206 0 206 -155v-9q0 -43 -20 -79t-55 -56l130 -222h-167l-98 184h-12v-184h-150v517q86 4 166 4zM204 393q-14 0 -24 -2v-84q8 -1 22 -1q50 0 50 40v10q0 17 -12.5 27t-35.5 10z" />
    <glyph glyph-name="s" unicode="s" horiz-adv-x="384" 
d="M198 523q60 0 141 -13l-1 -136q-84 16 -134 16q-39 0 -39 -23v-7q0 -18 26 -26l66 -21q65 -20 91 -53.5t26 -96.5v-18q0 -157 -187 -157q-56 0 -156 18l1 137q90 -20 135 -20q56 0 56 26v9q0 19 -23 27l-66 21q-66 21 -92.5 54.5t-26.5 95.5v10q0 157 183 157z" />
    <glyph glyph-name="t" unicode="t" horiz-adv-x="437" 
d="M427 376h-133v-376h-150v376h-134v135h417v-135z" />
    <glyph glyph-name="u" unicode="u" horiz-adv-x="450" 
d="M420 511v-337q0 -89 -49 -137.5t-146 -48.5t-146 48.5t-49 137.5v337h150v-341q0 -49 45 -49q20 0 32 13t12 36v341h151z" />
    <glyph glyph-name="v" unicode="v" horiz-adv-x="471" 
d="M319 0h-167l-152 511h158l77 -391l78 391h158z" />
    <glyph glyph-name="w" unicode="w" horiz-adv-x="679" 
d="M571 0h-170l-61 363l-60 -363h-172l-105 511h157l39 -370l63 370h154l64 -367l39 367h157z" />
    <glyph glyph-name="x" unicode="x" horiz-adv-x="458" 
d="M311 260l157 -260h-174l-64 143l-66 -143h-174l157 260l-150 251h174l58 -134l59 134h173z" />
    <glyph glyph-name="y" unicode="y" horiz-adv-x="462" 
d="M306 178v-178h-150v178l-156 333h167l65 -204l65 204h165z" />
    <glyph glyph-name="z" unicode="z" horiz-adv-x="403" 
d="M383 400l-184 -265h184v-135h-370v110l185 266h-178v135h363v-111z" />
    <glyph glyph-name="braceleft" unicode="{" horiz-adv-x="305" 
d="M330 809v-132q-53 1 -71.5 -13t-18.5 -51v-182q0 -40 -22 -68t-60 -35q38 -7 60 -35t22 -68v-183q0 -37 18.5 -51t71.5 -13v-132q-134 -2 -191.5 47.5t-57.5 169.5v168q0 26 -25 26h-51v142h51q25 0 25 26v167q0 120 57.5 169.5t191.5 47.5z" />
    <glyph glyph-name="bar" unicode="|" horiz-adv-x="219" 
d="M189 -174h-159v1003h159v-1003z" />
    <glyph glyph-name="braceright" unicode="}" horiz-adv-x="305" 
d="M-25 677v132q134 2 191.5 -47.5t57.5 -169.5v-167q0 -26 25 -26h51v-142h-51q-25 0 -25 -26v-168q0 -120 -57.5 -169.5t-191.5 -47.5v132q53 -1 71.5 13t18.5 51v183q0 40 22 68t60 35q-38 7 -60 35t-22 68v182q0 37 -18.5 51t-71.5 13z" />
    <glyph glyph-name="asciitilde" unicode="~" horiz-adv-x="430" 
d="M151 375q29 0 67.5 -12t65.5 -12q20 0 51 8.5t51 16.5l21 8v-143q-63 -34 -126 -34q-30 0 -69 12t-66 12q-20 0 -50.5 -8t-51.5 -17l-21 -8v143q65 34 128 34z" />
    <glyph glyph-name="uni00A0" unicode="&#xa0;" horiz-adv-x="105" 
 />
    <glyph glyph-name="exclamdown" unicode="&#xa1;" horiz-adv-x="211" 
d="M105 339q-90 0 -90 80v24q0 38 23 58.5t67 20.5t67.5 -20.5t23.5 -58.5v-24q0 -80 -91 -80zM21 -185l7 495h155l7 -495h-169z" />
    <glyph glyph-name="cent" unicode="&#xa2;" horiz-adv-x="352" 
d="M282 576v-81q43 -5 58 -8l-2 -142q-66 11 -90 11q-41 0 -55 -14t-14 -54v-89q0 -39 14.5 -52.5t54.5 -13.5q28 0 89 12l4 -144q-3 -1 -59 -9v-80h-151v88q-111 36 -111 181v126q0 145 111 181v88h151z" />
    <glyph glyph-name="sterling" unicode="&#xa3;" horiz-adv-x="418" 
d="M246 613q63 0 133 -17v-138q-60 13 -93 13q-36 0 -50 -12.5t-14 -42.5v-26h74v-134h-74v-23q0 -56 -35 -88h229v-145h-386v109q19 21 26 42t7 59v46h-53v134h53v45q0 87 47 132.5t136 45.5z" />
    <glyph glyph-name="currency" unicode="&#xa4;" horiz-adv-x="498" 
d="M488 429l-60 -59q7 -25 7 -61v-17q0 -42 -10 -67l63 -61l-108 -109l-60 64q-30 -11 -73 -11t-71 10l-60 -61l-106 107l60 59q-12 28 -12 69v17q0 37 9 63l-57 57l106 106l54 -54q34 12 77 12q42 0 78 -13l55 56zM247 349q-32 0 -32 -37v-23q0 -38 32 -38t32 38v23
q0 37 -32 37z" />
    <glyph glyph-name="yen" unicode="&#xa5;" horiz-adv-x="472" 
d="M351 299h53v-102h-85v-28h85v-102h-85v-67h-166v67h-85v102h85v28h-85v102h52l-155 302h185l87 -283l88 283h182z" />
    <glyph glyph-name="brokenbar" unicode="&#xa6;" horiz-adv-x="219" 
d="M189 398h-159v430h159v-430zM189 -173h-159v430h159v-430z" />
    <glyph glyph-name="section" unicode="&#xa7;" horiz-adv-x="421" 
d="M227 695q55 0 127 -14l-2 -141q-77 17 -113 17q-42 0 -42 -24v-16q0 -19 21 -29l108 -57q49 -26 69.5 -55.5t20.5 -70.5v-32q0 -75 -85 -117q24 -14 38 -41t13 -54v-32q-3 -148 -194 -148q-50 0 -128 17l3 142q79 -19 113 -19q48 0 48 24v13q0 20 -20 30l-109 54
q-90 45 -90 130v31q0 36 22 67t63 49q-24 16 -37.5 43t-13.5 53v32q0 69 46 108.5t142 39.5zM239 322l-21 8q-55 -3 -55 -35v-15q0 -19 19 -26l21 -8q55 1 55 35v15q0 19 -19 26z" />
    <glyph glyph-name="dieresis" unicode="&#xa8;" horiz-adv-x="451" 
d="M114 739q85 0 85 -75v-22q0 -36 -22 -55.5t-63 -19.5q-39 0 -61.5 20t-22.5 55v22q0 36 22 55.5t62 19.5zM336 739q85 0 85 -75v-22q0 -36 -22 -55.5t-63 -19.5q-39 0 -61.5 20t-22.5 55v22q0 36 22 55.5t62 19.5z" />
    <glyph glyph-name="copyright" unicode="&#xa9;" horiz-adv-x="586" 
d="M293 616q273 0 273 -219v-190q0 -219 -273 -219q-138 0 -205.5 56.5t-67.5 162.5v190q0 219 273 219zM293 506q-157 0 -157 -110v-187q0 -111 157 -111t157 111v188q0 109 -157 109zM301 467q35 0 81 -7l-2 -115q-18 2 -43 2q-27 0 -27 -29v-28q0 -31 27 -31q20 0 44 3
l2 -114q-49 -9 -83 -9q-120 0 -120 144v41q0 143 121 143z" />
    <glyph glyph-name="ordfeminine" unicode="&#xaa;" horiz-adv-x="426" 
d="M209 667q110 0 148.5 -39t38.5 -153v-249h-146v49q-45 -61 -114 -61q-51 0 -81 35.5t-30 104.5v9q0 64 38.5 98.5t114.5 34.5q20 0 59 -7v15q0 20 -9.5 26.5t-42.5 6.5q-48 0 -127 -18v130q99 18 151 18zM213 410q-28 0 -28 -35v-13q0 -31 16 -31q17 0 36 29v47
q-13 3 -24 3zM396 0h-371v144h371v-144z" />
    <glyph glyph-name="guillemotleft" unicode="&#xab;" horiz-adv-x="542" 
d="M199 265l101 -184h-172l-108 184l108 183h173zM421 265l100 -184h-171l-109 184l109 183h172z" />
    <glyph glyph-name="logicalnot" unicode="&#xac;" horiz-adv-x="430" 
d="M410 92h-152v127h-238v141h390v-268z" />
    <glyph glyph-name="uni00AD" unicode="&#xad;" horiz-adv-x="290" 
d="M270 226h-250v138h250v-138z" />
    <glyph glyph-name="registered" unicode="&#xae;" horiz-adv-x="474" 
d="M237 695q103 0 152.5 -48t49.5 -145v-28q0 -194 -202 -194q-103 0 -152.5 48t-49.5 146v28q0 96 48.5 144.5t153.5 48.5zM237 620q-119 0 -119 -97v-70q0 -97 119 -97q62 0 90.5 24t28.5 73v70q0 49 -28.5 73t-90.5 24zM233 579q39 0 57 -13.5t18 -43.5v-6q0 -33 -25 -48
l38 -61h-143v171q32 1 55 1z" />
    <glyph glyph-name="macron" unicode="&#xaf;" horiz-adv-x="311" 
d="M281 570h-251v117h251v-117z" />
    <glyph glyph-name="degree" unicode="&#xb0;" horiz-adv-x="404" 
d="M203 695q90 0 135.5 -47.5t45.5 -137.5v-19q0 -91 -46 -138.5t-135 -47.5q-90 0 -136.5 47.5t-46.5 138.5v19q0 90 46.5 137.5t136.5 47.5zM203 561q-32 0 -32 -45v-32q0 -44 32 -44q30 0 30 44v32q0 45 -30 45z" />
    <glyph glyph-name="plusminus" unicode="&#xb1;" horiz-adv-x="400" 
d="M276 403h116v-142h-116v-77h-152v77h-117v142h117v127h152v-127zM392 0h-385v142h385v-142z" />
    <glyph glyph-name="twosuperior" unicode="&#xb2;" horiz-adv-x="400" 
d="M189 760q155 0 155 -138v-12q0 -65 -60 -119l-37 -33h96v-127h-287v97l128 139q17 19 17 36v6q0 27 -37 27q-38 0 -95 -13v123q69 14 120 14z" />
    <glyph glyph-name="threesuperior" unicode="&#xb3;" horiz-adv-x="400" 
d="M195 760q68 0 108 -30.5t40 -78.5v-15q0 -27 -20.5 -53t-52.5 -34q35 -7 57.5 -34t22.5 -60v-11q0 -53 -41.5 -87t-111.5 -34q-58 0 -122 9v121q59 -8 99 -8q18 0 24.5 5t6.5 17v5q0 20 -24 20h-86v108h82q20 0 20 19v4q0 17 -24 17q-33 0 -98 -9v120q64 9 120 9z" />
    <glyph glyph-name="acute" unicode="&#xb4;" horiz-adv-x="295" 
d="M147 550h-117l80 145h155z" />
    <glyph glyph-name="mu" unicode="&#xb5;" horiz-adv-x="562" 
d="M535 0h-146l-5 256l-41 -193h-126l-42 192l-5 -255h-143l3 511h172l79 -308l79 308h171z" />
    <glyph glyph-name="paragraph" unicode="&#xb6;" horiz-adv-x="581" 
d="M322 -185h-158v473h-11q-71 0 -109.5 37t-38.5 107v107q0 69 38 106.5t110 37.5h169v-868zM551 -185h-158v868h158v-868z" />
    <glyph glyph-name="periodcentered" unicode="&#xb7;" horiz-adv-x="211" 
d="M105 370q91 0 91 -80v-24q0 -38 -23.5 -58.5t-67.5 -20.5t-67 20.5t-23 58.5v24q0 80 90 80z" />
    <glyph glyph-name="cedilla" unicode="&#xb8;" horiz-adv-x="268" 
d="M164 -26h10q27 0 45.5 -18t18.5 -43v-19q0 -91 -139 -91q-33 0 -69 6v87q21 -3 36 -3q41 0 41 20v4q0 20 -34 20h-26v17l35 105h112z" />
    <glyph glyph-name="onesuperior" unicode="&#xb9;" horiz-adv-x="397" 
d="M278 458h70v-127h-283v127h79v153h-2l-67 -28l-29 116l143 53h89v-294z" />
    <glyph glyph-name="ordmasculine" unicode="&#xba;" horiz-adv-x="442" 
d="M221 667q95 0 143 -49.5t48 -143.5v-74q0 -94 -48 -143.5t-143 -49.5t-143 49.5t-48 143.5v74q0 94 48 143.5t143 49.5zM221 525q-32 0 -32 -41v-93q0 -41 32 -41t32 41v93q0 41 -32 41zM408 0h-374v144h374v-144z" />
    <glyph glyph-name="guillemotright" unicode="&#xbb;" horiz-adv-x="542" 
d="M301 265l-109 -184h-171l100 184l-101 183h172zM522 265l-108 -184h-172l101 184l-102 183h173z" />
    <glyph glyph-name="onequarter" unicode="&#xbc;" horiz-adv-x="1000" 
d="M256 308h70v-127h-283v127h79v153h-2l-67 -28l-29 116l143 53h89v-294zM413 0h-161l305 601h161zM756 184h58v44l10 58h120v-102h32v-120h-32v-64h-130v64h-165l-32 66l94 291h118z" />
    <glyph glyph-name="onehalf" unicode="&#xbd;" horiz-adv-x="1000" 
d="M273 308h70v-127h-283v127h79v153h-2l-67 -28l-29 116l143 53h89v-294zM430 0h-161l305 601h161zM805 429q155 0 155 -138v-12q0 -65 -60 -119l-37 -33h96v-127h-287v97l128 139q17 19 17 36v6q0 27 -37 27q-38 0 -95 -13v123q69 14 120 14z" />
    <glyph glyph-name="threequarters" unicode="&#xbe;" horiz-adv-x="1000" 
d="M160 610q68 0 108 -30.5t40 -78.5v-15q0 -27 -20.5 -53t-52.5 -34q35 -7 57.5 -34t22.5 -60v-11q0 -53 -41.5 -87t-111.5 -34q-58 0 -122 9v121q59 -8 99 -8q18 0 24.5 5t6.5 17v5q0 20 -24 20h-86v108h82q20 0 20 19v4q0 17 -24 17q-34 0 -98 -9v120q64 9 120 9zM396 0
h-161l305 601h161zM740 184h58v44l10 58h120v-102h32v-120h-32v-64h-130v64h-165l-32 66l94 291h118z" />
    <glyph glyph-name="questiondown" unicode="&#xbf;" horiz-adv-x="371" 
d="M213 327q-91 0 -91 80v24q0 38 23.5 58.5t67.5 20.5t67 -20.5t23 -58.5v-24q0 -80 -90 -80zM207 -197q-101 0 -147.5 39t-46.5 122v11q0 88 68 161l33 36q22 23 22 54v62h156v-58q0 -51 -8 -74t-36 -55l-49 -56q-16 -18 -21 -30t-5 -31v-4q0 -37 58 -37q51 0 133 21v-143
q-87 -18 -157 -18z" />
    <glyph glyph-name="Agrave" unicode="&#xc0;" horiz-adv-x="542" 
d="M552 0h-177l-24 118h-165l-24 -118h-172l185 655h192zM213 254h111l-55 271zM334 706h-124l-123 159h160z" />
    <glyph glyph-name="Aacute" unicode="&#xc1;" horiz-adv-x="542" 
d="M552 0h-177l-24 118h-165l-24 -118h-172l185 655h192zM213 254h111l-55 271zM306 706h-124l87 159h160z" />
    <glyph glyph-name="Acircumflex" unicode="&#xc2;" horiz-adv-x="542" 
d="M552 0h-177l-24 118h-165l-24 -118h-172l185 655h192zM213 254h111l-55 271zM424 830v-114l-153 59l-153 -59v114l153 73z" />
    <glyph glyph-name="Atilde" unicode="&#xc3;" horiz-adv-x="542" 
d="M552 0h-177l-24 118h-165l-24 -118h-172l185 655h192zM213 254h111l-55 271zM424 869v-111q-42 -39 -93 -39q-23 0 -63 16t-59 16q-16 0 -39 -8t-38 -16l-14 -8v111q42 39 93 39q30 0 68 -16.5t54 -16.5t38.5 8t37.5 16z" />
    <glyph glyph-name="Adieresis" unicode="&#xc4;" horiz-adv-x="542" 
d="M552 0h-177l-24 118h-165l-24 -118h-172l185 655h192zM213 254h111l-55 271zM159 878q85 0 85 -75v-22q0 -36 -22 -55.5t-63 -19.5q-39 0 -61.5 20t-22.5 55v22q0 36 22 55.5t62 19.5zM381 878q85 0 85 -75v-22q0 -36 -22 -55.5t-63 -19.5q-39 0 -61.5 20t-22.5 55v22
q0 36 22 55.5t62 19.5z" />
    <glyph glyph-name="Aring" unicode="&#xc5;" horiz-adv-x="542" 
d="M272 850q67 0 103.5 -32.5t36.5 -92.5q0 -63 -38 -95l178 -630h-177l-24 118h-165l-24 -118h-172l178 632q-36 32 -36 93t36 93t104 32zM272 758q-23 0 -23 -30t23 -30t23 30t-23 30zM213 254h110l-54 271z" />
    <glyph glyph-name="AE" unicode="&#xc6;" horiz-adv-x="749" 
d="M729 501h-226v-92h206v-153h-206v-102h226v-154h-392v131h-126l-42 -131h-179l241 655h498v-154zM261 284h76v233z" />
    <glyph glyph-name="Ccedilla" unicode="&#xc7;" horiz-adv-x="439" 
d="M256 667q53 0 166 -19l-2 -149q-94 16 -134 16q-58 0 -76.5 -18t-18.5 -73v-191q0 -55 19 -73t76 -18q40 0 134 20l2 -154q-79 -14 -126 -18l-5 -16h10q27 0 45.5 -18t18.5 -43v-19q0 -91 -139 -91q-33 0 -69 6v87q21 -3 36 -3q41 0 41 20v4q0 20 -34 20h-26v17l14 39
q-87 13 -125 65.5t-38 148.5v241q0 114 53 166.5t178 52.5z" />
    <glyph glyph-name="Egrave" unicode="&#xc8;" horiz-adv-x="442" 
d="M422 501h-226v-92h206v-153h-206v-102h226v-154h-392v655h392v-154zM284 706h-124l-123 159h160z" />
    <glyph glyph-name="Eacute" unicode="&#xc9;" horiz-adv-x="442" 
d="M422 501h-226v-92h206v-153h-206v-102h226v-154h-392v655h392v-154zM256 706h-124l87 159h160z" />
    <glyph glyph-name="Ecircumflex" unicode="&#xca;" horiz-adv-x="442" 
d="M422 501h-226v-92h206v-153h-206v-102h226v-154h-392v655h392v-154zM374 830v-114l-153 59l-153 -59v114l153 73z" />
    <glyph glyph-name="Edieresis" unicode="&#xcb;" horiz-adv-x="442" 
d="M422 501h-226v-92h206v-153h-206v-102h226v-154h-392v655h392v-154zM109 878q85 0 85 -75v-22q0 -36 -22 -55.5t-63 -19.5q-39 0 -61.5 20t-22.5 55v22q0 36 22 55.5t62 19.5zM331 878q85 0 85 -75v-22q0 -36 -22 -55.5t-63 -19.5q-39 0 -61.5 20t-22.5 55v22
q0 36 22 55.5t62 19.5z" />
    <glyph glyph-name="Igrave" unicode="&#xcc;" horiz-adv-x="226" 
d="M196 0h-166v655h166v-655zM176 706h-124l-123 159h160z" />
    <glyph glyph-name="Iacute" unicode="&#xcd;" horiz-adv-x="226" 
d="M196 0h-166v655h166v-655zM148 706h-124l87 159h160z" />
    <glyph glyph-name="Icircumflex" unicode="&#xce;" horiz-adv-x="226" 
d="M196 0h-166v655h166v-655zM266 830v-114l-153 59l-153 -59v114l153 73z" />
    <glyph glyph-name="Idieresis" unicode="&#xcf;" horiz-adv-x="226" 
d="M196 0h-166v655h166v-655zM1 878q85 0 85 -75v-22q0 -36 -22 -55.5t-63 -19.5q-39 0 -61.5 20t-22.5 55v22q0 36 22 55.5t62 19.5zM223 878q85 0 85 -75v-22q0 -36 -22 -55.5t-63 -19.5q-39 0 -61.5 20t-22.5 55v22q0 36 22 55.5t62 19.5z" />
    <glyph glyph-name="Eth" unicode="&#xd0;" horiz-adv-x="547" 
d="M265 667q128 0 195 -71t67 -200v-145q0 -126 -67.5 -194.5t-208.5 -68.5q-97 0 -191 7v281h-65v133h65v254q118 4 205 4zM261 518q-23 0 -35 -1v-108h91v-133h-91v-137q14 -1 35 -1q100 0 100 107v156q0 62 -24.5 89.5t-75.5 27.5z" />
    <glyph glyph-name="Ntilde" unicode="&#xd1;" horiz-adv-x="528" 
d="M188 343v-343h-158v655h200l110 -343v343h158v-655h-195zM417 869v-111q-42 -39 -93 -39q-22 0 -62 16t-60 16q-16 0 -39 -8t-37 -16l-15 -8v111q42 39 93 39q30 0 68 -16.5t54 -16.5t39 8t37 16z" />
    <glyph glyph-name="Ograve" unicode="&#xd2;" horiz-adv-x="521" 
d="M260 667q236 0 236 -230v-219q0 -230 -236 -230q-235 0 -235 230v219q0 230 235 230zM260 515q-69 0 -69 -69v-235q0 -71 69 -71q70 0 70 71v234q0 70 -70 70zM324 706h-124l-123 159h160z" />
    <glyph glyph-name="Oacute" unicode="&#xd3;" horiz-adv-x="521" 
d="M260 667q236 0 236 -230v-219q0 -230 -236 -230q-235 0 -235 230v219q0 230 235 230zM260 515q-69 0 -69 -69v-235q0 -71 69 -71q70 0 70 71v234q0 70 -70 70zM296 706h-124l87 159h160z" />
    <glyph glyph-name="Ocircumflex" unicode="&#xd4;" horiz-adv-x="521" 
d="M260 667q236 0 236 -230v-219q0 -230 -236 -230q-235 0 -235 230v219q0 230 235 230zM260 515q-69 0 -69 -69v-235q0 -71 69 -71q70 0 70 71v234q0 70 -70 70zM414 830v-114l-153 59l-153 -59v114l153 73z" />
    <glyph glyph-name="Otilde" unicode="&#xd5;" horiz-adv-x="521" 
d="M260 667q236 0 236 -230v-219q0 -230 -236 -230q-235 0 -235 230v219q0 230 235 230zM260 515q-69 0 -69 -69v-235q0 -71 69 -71q70 0 70 71v234q0 70 -70 70zM414 869v-111q-42 -39 -93 -39q-23 0 -63 16t-59 16q-16 0 -39 -8t-38 -16l-14 -8v111q42 39 93 39
q30 0 68 -16.5t54 -16.5t38.5 8t37.5 16z" />
    <glyph glyph-name="Odieresis" unicode="&#xd6;" horiz-adv-x="521" 
d="M260 667q236 0 236 -230v-219q0 -230 -236 -230q-235 0 -235 230v219q0 230 235 230zM260 515q-69 0 -69 -69v-235q0 -71 69 -71q70 0 70 71v234q0 70 -70 70zM149 878q85 0 85 -75v-22q0 -36 -22 -55.5t-63 -19.5q-39 0 -61.5 20t-22.5 55v22q0 36 22 55.5t62 19.5z
M371 878q85 0 85 -75v-22q0 -36 -22 -55.5t-63 -19.5q-39 0 -61.5 20t-22.5 55v22q0 36 22 55.5t62 19.5z" />
    <glyph glyph-name="multiply" unicode="&#xd7;" horiz-adv-x="430" 
d="M406 380l-89 -89l91 -91l-106 -102l-90 88l-87 -87l-102 101l88 88l-89 90l102 107l92 -92l88 88z" />
    <glyph glyph-name="Oslash" unicode="&#xd8;" horiz-adv-x="521" 
d="M541 705l-74 -136q29 -53 29 -132v-219q0 -230 -236 -230q-60 0 -104 15l-30 -53h-152l78 139q-27 53 -27 129v219q0 230 235 230q57 0 102 -14l28 52h151zM260 515q-69 0 -69 -69v-128v-16l111 203q-18 10 -42 10zM330 354l-113 -204q16 -10 43 -10q70 0 70 71v127v16z
" />
    <glyph glyph-name="Ugrave" unicode="&#xd9;" horiz-adv-x="523" 
d="M493 655v-438q0 -229 -232 -229q-231 0 -231 229v438h166v-444q0 -71 65 -71t65 71v444h167zM325 706h-124l-123 159h160z" />
    <glyph glyph-name="Uacute" unicode="&#xda;" horiz-adv-x="523" 
d="M493 655v-438q0 -229 -232 -229q-231 0 -231 229v438h166v-444q0 -71 65 -71t65 71v444h167zM297 706h-124l87 159h160z" />
    <glyph glyph-name="Ucircumflex" unicode="&#xdb;" horiz-adv-x="523" 
d="M493 655v-438q0 -229 -232 -229q-231 0 -231 229v438h166v-444q0 -71 65 -71t65 71v444h167zM415 830v-114l-153 59l-153 -59v114l153 73z" />
    <glyph glyph-name="Udieresis" unicode="&#xdc;" horiz-adv-x="523" 
d="M493 655v-438q0 -229 -232 -229q-231 0 -231 229v438h166v-444q0 -71 65 -71t65 71v444h167zM150 878q85 0 85 -75v-22q0 -36 -22 -55.5t-63 -19.5q-39 0 -61.5 20t-22.5 55v22q0 36 22 55.5t62 19.5zM372 878q85 0 85 -75v-22q0 -36 -22 -55.5t-63 -19.5q-39 0 -61.5 20
t-22.5 55v22q0 36 22 55.5t62 19.5z" />
    <glyph glyph-name="Yacute" unicode="&#xdd;" horiz-adv-x="542" 
d="M354 228v-228h-166v228l-188 427h185l87 -277l88 277h182zM306 706h-124l87 159h160z" />
    <glyph glyph-name="Thorn" unicode="&#xde;" horiz-adv-x="484" 
d="M196 655v-102q19 1 29 1q123 0 186 -54t63 -149v-20q0 -100 -59.5 -156.5t-170.5 -56.5q-19 0 -48 4v-122h-166v655h166zM227 407q-11 0 -31 -1v-136q24 -2 34 -2q78 0 78 67v13q0 59 -81 59z" />
    <glyph glyph-name="germandbls" unicode="&#xdf;" horiz-adv-x="763" 
d="M198 523q60 0 141 -13l-1 -136q-84 16 -134 16q-39 0 -39 -23v-7q0 -18 26 -26l66 -21q65 -20 91 -53.5t26 -96.5v-18q0 -157 -187 -157q-56 0 -156 18l1 137q90 -20 135 -20q56 0 56 26v9q0 19 -23 27l-66 21q-66 21 -92.5 54.5t-26.5 95.5v10q0 157 183 157zM577 523
q60 0 141 -13l-1 -136q-84 16 -134 16q-39 0 -39 -23v-7q0 -18 26 -26l66 -21q65 -20 91 -53.5t26 -96.5v-18q0 -157 -187 -157q-56 0 -156 18l1 137q90 -20 135 -20q56 0 56 26v9q0 19 -23 27l-66 21q-66 21 -92.5 54.5t-26.5 95.5v10q0 157 183 157z" />
    <glyph glyph-name="agrave" unicode="&#xe0;" horiz-adv-x="455" 
d="M465 0h-160l-17 85h-125l-17 -85h-156l151 511h173zM186 203h78l-38 196zM298 550h-113l-116 145h149z" />
    <glyph glyph-name="aacute" unicode="&#xe1;" horiz-adv-x="455" 
d="M465 0h-160l-17 85h-125l-17 -85h-156l151 511h173zM186 203h78l-38 196zM267 550h-117l80 145h155z" />
    <glyph glyph-name="acircumflex" unicode="&#xe2;" horiz-adv-x="455" 
d="M465 0h-160l-17 85h-125l-17 -85h-156l151 511h173zM186 203h78l-38 196zM361 665v-109l-133 51l-133 -51v109l133 65z" />
    <glyph glyph-name="atilde" unicode="&#xe3;" horiz-adv-x="455" 
d="M465 0h-160l-17 85h-125l-17 -85h-156l151 511h173zM186 203h78l-38 196zM371 715v-105q-32 -33 -83 -33q-21 0 -53 13t-49 13q-16 0 -36.5 -6.5t-32.5 -12.5l-12 -7v105q32 33 83 33q27 0 57.5 -13.5t44.5 -13.5q16 0 36 7t32 13z" />
    <glyph glyph-name="adieresis" unicode="&#xe4;" horiz-adv-x="455" 
d="M465 0h-160l-17 85h-125l-17 -85h-156l151 511h173zM186 203h78l-38 196zM116 739q85 0 85 -75v-22q0 -36 -22 -55.5t-63 -19.5q-39 0 -61.5 20t-22.5 55v22q0 36 22 55.5t62 19.5zM338 739q85 0 85 -75v-22q0 -36 -22 -55.5t-63 -19.5q-39 0 -61.5 20t-22.5 55v22
q0 36 22 55.5t62 19.5z" />
    <glyph glyph-name="aring" unicode="&#xe5;" horiz-adv-x="455" 
d="M228 724q65 0 102.5 -31.5t37.5 -93.5q0 -72 -50 -103l147 -496h-160l-17 85h-125l-17 -85h-156l147 497q-49 32 -49 102q0 62 37 93.5t103 31.5zM228 632q-23 0 -23 -30t23 -30t23 30t-23 30zM186 203h78l-38 196z" />
    <glyph glyph-name="ae" unicode="&#xe6;" horiz-adv-x="634" 
d="M614 376h-183v-54h166v-131h-166v-56h183v-135h-333v85h-101l-28 -85h-162l197 511h427v-135zM219 203h62v189z" />
    <glyph glyph-name="ccedilla" unicode="&#xe7;" horiz-adv-x="379" 
d="M220 523q42 0 142 -16l-2 -130q-76 13 -112 13q-45 0 -59 -14t-14 -56v-128q0 -41 15 -55t59 -14q38 0 111 16l2 -135q-60 -10 -101 -14l-6 -16h10q27 0 45.5 -18t18.5 -43v-19q0 -91 -139 -91q-33 0 -69 6v87q21 -3 36 -3q41 0 41 20v4q0 20 -34 20h-26v17l14 40
q-67 13 -97 56t-30 118v175q0 94 46.5 137t148.5 43z" />
    <glyph glyph-name="egrave" unicode="&#xe8;" horiz-adv-x="383" 
d="M363 376h-183v-54h166v-131h-166v-56h183v-135h-333v511h333v-135zM262 550h-113l-116 145h149z" />
    <glyph glyph-name="eacute" unicode="&#xe9;" horiz-adv-x="383" 
d="M363 376h-183v-54h166v-131h-166v-56h183v-135h-333v511h333v-135zM231 550h-117l80 145h155z" />
    <glyph glyph-name="ecircumflex" unicode="&#xea;" horiz-adv-x="383" 
d="M363 376h-183v-54h166v-131h-166v-56h183v-135h-333v511h333v-135zM325 665v-109l-133 51l-133 -51v109l133 65z" />
    <glyph glyph-name="edieresis" unicode="&#xeb;" horiz-adv-x="383" 
d="M363 376h-183v-54h166v-131h-166v-56h183v-135h-333v511h333v-135zM80 739q85 0 85 -75v-22q0 -36 -22 -55.5t-63 -19.5q-39 0 -61.5 20t-22.5 55v22q0 36 22 55.5t62 19.5zM302 739q85 0 85 -75v-22q0 -36 -22 -55.5t-63 -19.5q-39 0 -61.5 20t-22.5 55v22q0 36 22 55.5
t62 19.5z" />
    <glyph glyph-name="igrave" unicode="&#xec;" horiz-adv-x="210" 
d="M180 0h-150v511h150v-511zM175 550h-113l-116 145h149z" />
    <glyph glyph-name="iacute" unicode="&#xed;" horiz-adv-x="210" 
d="M180 0h-150v511h150v-511zM144 550h-117l80 145h155z" />
    <glyph glyph-name="icircumflex" unicode="&#xee;" horiz-adv-x="210" 
d="M180 0h-150v511h150v-511zM238 665v-109l-133 51l-133 -51v109l133 65z" />
    <glyph glyph-name="idieresis" unicode="&#xef;" horiz-adv-x="210" 
d="M180 0h-150v511h150v-511zM-7 739q85 0 85 -75v-22q0 -36 -22 -55.5t-63 -19.5q-39 0 -61.5 20t-22.5 55v22q0 36 22 55.5t62 19.5zM215 739q85 0 85 -75v-22q0 -36 -22 -55.5t-63 -19.5q-39 0 -61.5 20t-22.5 55v22q0 36 22 55.5t62 19.5z" />
    <glyph glyph-name="eth" unicode="&#xf0;" horiz-adv-x="449" 
d="M206 523q107 0 165 -57t58 -164v-97q0 -106 -60 -161.5t-173 -55.5q-88 0 -161 5v204h-40v106h40v217q77 3 171 3zM205 392q-14 0 -21 -1v-88h42v-106h-42v-76q7 -1 21 -1q74 0 74 75v104q0 55 -16 74t-58 19z" />
    <glyph glyph-name="ntilde" unicode="&#xf1;" horiz-adv-x="454" 
d="M424 0h-157l-93 238v-238h-144v511h163l87 -235v235h144v-511zM370 715v-105q-32 -33 -83 -33q-21 0 -53 13t-49 13q-16 0 -36.5 -6.5t-32.5 -12.5l-12 -7v105q32 33 83 33q27 0 57.5 -13.5t44.5 -13.5q16 0 36.5 7t32.5 13z" />
    <glyph glyph-name="ograve" unicode="&#xf2;" horiz-adv-x="446" 
d="M223 523q198 0 198 -189v-157q0 -189 -198 -189t-198 189v157q0 189 198 189zM223 390q-48 0 -48 -47v-173q0 -23 12.5 -36t35.5 -13t35.5 13t12.5 36v171q0 23 -12.5 36t-35.5 13zM293 550h-113l-116 145h149z" />
    <glyph glyph-name="oacute" unicode="&#xf3;" horiz-adv-x="446" 
d="M223 523q198 0 198 -189v-157q0 -189 -198 -189t-198 189v157q0 189 198 189zM223 390q-48 0 -48 -47v-173q0 -23 12.5 -36t35.5 -13t35.5 13t12.5 36v171q0 23 -12.5 36t-35.5 13zM262 550h-117l80 145h155z" />
    <glyph glyph-name="ocircumflex" unicode="&#xf4;" horiz-adv-x="446" 
d="M223 523q198 0 198 -189v-157q0 -189 -198 -189t-198 189v157q0 189 198 189zM223 390q-48 0 -48 -47v-173q0 -23 12.5 -36t35.5 -13t35.5 13t12.5 36v171q0 23 -12.5 36t-35.5 13zM356 665v-109l-133 51l-133 -51v109l133 65z" />
    <glyph glyph-name="otilde" unicode="&#xf5;" horiz-adv-x="446" 
d="M223 523q198 0 198 -189v-157q0 -189 -198 -189t-198 189v157q0 189 198 189zM223 390q-48 0 -48 -47v-173q0 -23 12.5 -36t35.5 -13t35.5 13t12.5 36v171q0 23 -12.5 36t-35.5 13zM366 715v-105q-32 -33 -83 -33q-21 0 -53 13t-49 13q-16 0 -36.5 -6.5t-32.5 -12.5
l-12 -7v105q32 33 83 33q27 0 57.5 -13.5t44.5 -13.5q16 0 36.5 7t32.5 13z" />
    <glyph glyph-name="odieresis" unicode="&#xf6;" horiz-adv-x="446" 
d="M223 523q198 0 198 -189v-157q0 -189 -198 -189t-198 189v157q0 189 198 189zM223 390q-48 0 -48 -47v-173q0 -23 12.5 -36t35.5 -13t35.5 13t12.5 36v171q0 23 -12.5 36t-35.5 13zM111 739q85 0 85 -75v-22q0 -36 -22 -55.5t-63 -19.5q-39 0 -61.5 20t-22.5 55v22
q0 36 22 55.5t62 19.5zM333 739q85 0 85 -75v-22q0 -36 -22 -55.5t-63 -19.5q-39 0 -61.5 20t-22.5 55v22q0 36 22 55.5t62 19.5z" />
    <glyph glyph-name="divide" unicode="&#xf7;" horiz-adv-x="430" 
d="M215 549q85 0 85 -79v-14q0 -36 -21.5 -56.5t-63.5 -20.5q-41 0 -62.5 20.5t-21.5 56.5v14q0 37 21.5 58t62.5 21zM406 219h-383v141h383v-141zM215 200q42 0 63.5 -20.5t21.5 -57.5v-14q0 -36 -21.5 -57t-63.5 -21q-41 0 -62.5 21t-21.5 57v14q0 37 21.5 57.5t62.5 20.5
z" />
    <glyph glyph-name="oslash" unicode="&#xf8;" horiz-adv-x="446" 
d="M495 562l-90 -137q16 -42 16 -91v-157q0 -189 -198 -189q-45 0 -81 11l-32 -50h-158l89 136q-16 38 -16 92v157q0 189 198 189q45 0 81 -11l32 50h159zM223 390q-48 0 -48 -47v-95v-10l81 141q-13 11 -33 11zM271 272l-81 -140q13 -11 33 -11q23 0 35.5 13t12.5 36v92v10
z" />
    <glyph glyph-name="ugrave" unicode="&#xf9;" horiz-adv-x="450" 
d="M420 511v-337q0 -89 -49 -137.5t-146 -48.5t-146 48.5t-49 137.5v337h150v-341q0 -49 45 -49q20 0 32 13t12 36v341h151zM295 550h-113l-116 145h149z" />
    <glyph glyph-name="uacute" unicode="&#xfa;" horiz-adv-x="450" 
d="M420 511v-337q0 -89 -49 -137.5t-146 -48.5t-146 48.5t-49 137.5v337h150v-341q0 -49 45 -49q20 0 32 13t12 36v341h151zM264 550h-117l80 145h155z" />
    <glyph glyph-name="ucircumflex" unicode="&#xfb;" horiz-adv-x="450" 
d="M420 511v-337q0 -89 -49 -137.5t-146 -48.5t-146 48.5t-49 137.5v337h150v-341q0 -49 45 -49q20 0 32 13t12 36v341h151zM358 665v-109l-133 51l-133 -51v109l133 65z" />
    <glyph glyph-name="udieresis" unicode="&#xfc;" horiz-adv-x="450" 
d="M420 511v-337q0 -89 -49 -137.5t-146 -48.5t-146 48.5t-49 137.5v337h150v-341q0 -49 45 -49q20 0 32 13t12 36v341h151zM113 739q85 0 85 -75v-22q0 -36 -22 -55.5t-63 -19.5q-39 0 -61.5 20t-22.5 55v22q0 36 22 55.5t62 19.5zM335 739q85 0 85 -75v-22
q0 -36 -22 -55.5t-63 -19.5q-39 0 -61.5 20t-22.5 55v22q0 36 22 55.5t62 19.5z" />
    <glyph glyph-name="yacute" unicode="&#xfd;" horiz-adv-x="462" 
d="M306 178v-178h-150v178l-156 333h167l65 -204l65 204h165zM270 550h-117l80 145h155z" />
    <glyph glyph-name="thorn" unicode="&#xfe;" horiz-adv-x="413" 
d="M180 443h15q104 0 157 -43t53 -121v-18q0 -81 -47 -125t-131 -44q-26 0 -47 4v-96h-150v511h150v-68zM200 315q-12 0 -20 -1v-93q5 -1 21 -1q53 0 53 44v10q0 41 -54 41z" />
    <glyph glyph-name="ydieresis" unicode="&#xff;" horiz-adv-x="462" 
d="M306 178v-178h-150v178l-156 333h167l65 -204l65 204h165zM119 739q85 0 85 -75v-22q0 -36 -22 -55.5t-63 -19.5q-39 0 -61.5 20t-22.5 55v22q0 36 22 55.5t62 19.5zM341 739q85 0 85 -75v-22q0 -36 -22 -55.5t-63 -19.5q-39 0 -61.5 20t-22.5 55v22q0 36 22 55.5
t62 19.5z" />
    <glyph glyph-name="Amacron" unicode="&#x100;" horiz-adv-x="542" 
d="M552 0h-177l-24 118h-165l-24 -118h-172l185 655h192zM213 254h111l-55 271zM414 706h-287v122h287v-122z" />
    <glyph glyph-name="amacron" unicode="&#x101;" horiz-adv-x="455" 
d="M465 0h-160l-17 85h-125l-17 -85h-156l151 511h173zM186 203h78l-38 196zM353 570h-251v117h251v-117z" />
    <glyph glyph-name="Abreve" unicode="&#x102;" horiz-adv-x="542" 
d="M552 0h-177l-24 118h-165l-24 -118h-172l185 655h192zM213 254h111l-55 271zM424 895v-126q-7 -7 -19 -18t-52 -29.5t-82 -18.5q-41 0 -79.5 16.5t-55.5 32.5l-18 17v126q7 -8 20.5 -20.5t53.5 -33.5t79 -21t77 19t57 37z" />
    <glyph glyph-name="abreve" unicode="&#x103;" horiz-adv-x="455" 
d="M465 0h-160l-17 85h-125l-17 -85h-156l151 511h173zM186 203h78l-38 196zM360 729v-121q-6 -6 -17.5 -14.5t-46 -22.5t-68.5 -14t-67 12.5t-49 25.5l-17 13v121q8 -7 21.5 -16.5t48.5 -26t63 -16.5t61 15t52 29z" />
    <glyph glyph-name="Aogonek" unicode="&#x104;" horiz-adv-x="542" 
d="M552 0h-80q-42 -14 -42 -40v-4q0 -23 30 -23q15 0 42 7v-124q-54 -13 -81 -13q-58 0 -90 25t-32 65v9q0 59 76 99l-24 117h-165l-24 -118h-172l185 655h192zM213 254h111l-55 271z" />
    <glyph glyph-name="aogonek" unicode="&#x105;" horiz-adv-x="455" 
d="M465 0h-63q-42 -14 -42 -40v-4q0 -23 30 -23q15 0 42 7l1 -124q-54 -13 -82 -13q-58 0 -90 25t-32 65v9q0 59 76 99l-17 84h-125l-17 -85h-156l151 511h173zM186 203h78l-38 196z" />
    <glyph glyph-name="Cacute" unicode="&#x106;" horiz-adv-x="439" 
d="M256 667q53 0 166 -19l-2 -149q-94 16 -134 16q-58 0 -76.5 -18t-18.5 -73v-191q0 -55 19 -73t76 -18q40 0 134 20l2 -154q-109 -20 -166 -20q-125 0 -178 53t-53 166v241q0 114 53 166.5t178 52.5zM282 706h-124l87 159h160z" />
    <glyph glyph-name="cacute" unicode="&#x107;" horiz-adv-x="379" 
d="M220 523q42 0 142 -16l-2 -130q-76 13 -112 13q-45 0 -59 -14t-14 -56v-128q0 -41 15 -55t59 -14q38 0 111 16l2 -135q-94 -16 -142 -16q-104 0 -149.5 44t-45.5 136v175q0 94 46.5 137t148.5 43zM249 550h-117l80 145h155z" />
    <glyph glyph-name="Ccircumflex" unicode="&#x108;" horiz-adv-x="439" 
d="M256 667q53 0 166 -19l-2 -149q-94 16 -134 16q-58 0 -76.5 -18t-18.5 -73v-191q0 -55 19 -73t76 -18q40 0 134 20l2 -154q-109 -20 -166 -20q-125 0 -178 53t-53 166v241q0 114 53 166.5t178 52.5zM400 830v-114l-153 59l-153 -59v114l153 73z" />
    <glyph glyph-name="ccircumflex" unicode="&#x109;" horiz-adv-x="379" 
d="M220 523q42 0 142 -16l-2 -130q-76 13 -112 13q-45 0 -59 -14t-14 -56v-128q0 -41 15 -55t59 -14q38 0 111 16l2 -135q-94 -16 -142 -16q-104 0 -149.5 44t-45.5 136v175q0 94 46.5 137t148.5 43zM343 665v-109l-133 51l-133 -51v109l133 65z" />
    <glyph glyph-name="Cdotaccent" unicode="&#x10a;" horiz-adv-x="439" 
d="M256 667q53 0 166 -19l-2 -149q-94 16 -134 16q-58 0 -76.5 -18t-18.5 -73v-191q0 -55 19 -73t76 -18q40 0 134 20l2 -154q-109 -20 -166 -20q-125 0 -178 53t-53 166v241q0 114 53 166.5t178 52.5zM247 885q89 0 89 -79v-23q0 -38 -23 -58.5t-66 -20.5q-42 0 -65.5 21
t-23.5 58v23q0 39 23.5 59t65.5 20z" />
    <glyph glyph-name="cdotaccent" unicode="&#x10b;" horiz-adv-x="379" 
d="M220 523q42 0 142 -16l-2 -130q-76 13 -112 13q-45 0 -59 -14t-14 -56v-128q0 -41 15 -55t59 -14q38 0 111 16l2 -135q-94 -16 -142 -16q-104 0 -149.5 44t-45.5 136v175q0 94 46.5 137t148.5 43zM210 744q89 0 89 -79v-23q0 -38 -23 -58.5t-66 -20.5q-42 0 -65.5 21
t-23.5 58v23q0 39 23.5 59t65.5 20z" />
    <glyph glyph-name="Ccaron" unicode="&#x10c;" horiz-adv-x="439" 
d="M256 667q53 0 166 -19l-2 -149q-94 16 -134 16q-58 0 -76.5 -18t-18.5 -73v-191q0 -55 19 -73t76 -18q40 0 134 20l2 -154q-109 -20 -166 -20q-125 0 -178 53t-53 166v241q0 114 53 166.5t178 52.5zM400 783l-153 -73l-153 73v114l153 -59l153 59v-114z" />
    <glyph glyph-name="ccaron" unicode="&#x10d;" horiz-adv-x="379" 
d="M220 523q42 0 142 -16l-2 -130q-76 13 -112 13q-45 0 -59 -14t-14 -56v-128q0 -41 15 -55t59 -14q38 0 111 16l2 -135q-94 -16 -142 -16q-104 0 -149.5 44t-45.5 136v175q0 94 46.5 137t148.5 43zM343 614l-133 -65l-133 65v109l133 -51l133 51v-109z" />
    <glyph glyph-name="Dcaron" unicode="&#x10e;" horiz-adv-x="517" 
d="M235 665q128 0 195 -70.5t67 -198.5v-145q0 -126 -67.5 -194.5t-208.5 -68.5q-97 0 -191 7v665q148 5 205 5zM231 516q-23 0 -35 -1v-376q14 -1 35 -1q100 0 100 107v156q0 60 -24.5 87.5t-75.5 27.5zM385 783l-153 -73l-153 73v114l153 -59l153 59v-114z" />
    <glyph glyph-name="dcaron" unicode="&#x10f;" horiz-adv-x="444" 
d="M201 521q106 0 164.5 -56.5t58.5 -162.5v-97q0 -106 -60 -161.5t-173 -55.5q-88 0 -161 5v524q102 4 171 4zM200 390q-14 0 -21 -1v-268q7 -1 21 -1q74 0 74 75v104q0 53 -16 72t-58 19zM341 614l-133 -65l-133 65v109l133 -51l133 51v-109z" />
    <glyph glyph-name="Dcroat" unicode="&#x110;" horiz-adv-x="547" 
d="M265 667q128 0 195 -71t67 -200v-145q0 -126 -67.5 -194.5t-208.5 -68.5q-97 0 -191 7v281h-65v133h65v254q118 4 205 4zM261 518q-23 0 -35 -1v-108h91v-133h-91v-137q14 -1 35 -1q100 0 100 107v156q0 62 -24.5 89.5t-75.5 27.5z" />
    <glyph glyph-name="dcroat" unicode="&#x111;" horiz-adv-x="449" 
d="M206 523q107 0 165 -57t58 -164v-97q0 -106 -60 -161.5t-173 -55.5q-88 0 -161 5v204h-40v106h40v217q77 3 171 3zM205 392q-14 0 -21 -1v-88h42v-106h-42v-76q7 -1 21 -1q74 0 74 75v104q0 55 -16 74t-58 19z" />
    <glyph glyph-name="Emacron" unicode="&#x112;" horiz-adv-x="442" 
d="M422 501h-226v-92h206v-153h-206v-102h226v-154h-392v655h392v-154zM364 706h-287v122h287v-122z" />
    <glyph glyph-name="emacron" unicode="&#x113;" horiz-adv-x="383" 
d="M363 376h-183v-54h166v-131h-166v-56h183v-135h-333v511h333v-135zM317 570h-251v117h251v-117z" />
    <glyph glyph-name="Ebreve" unicode="&#x114;" horiz-adv-x="442" 
d="M422 501h-226v-92h206v-153h-206v-102h226v-154h-392v655h392v-154zM374 895v-126q-7 -7 -19 -18t-52 -29.5t-82 -18.5q-41 0 -79.5 16.5t-55.5 32.5l-18 17v126q7 -8 20.5 -20.5t53.5 -33.5t79 -21t77 19t57 37z" />
    <glyph glyph-name="ebreve" unicode="&#x115;" horiz-adv-x="383" 
d="M363 376h-183v-54h166v-131h-166v-56h183v-135h-333v511h333v-135zM324 729v-121q-6 -6 -17.5 -14.5t-46 -22.5t-68.5 -14t-67 12.5t-49 25.5l-17 13v121q8 -7 21.5 -16.5t48.5 -26t63 -16.5t61 15t52 29z" />
    <glyph glyph-name="Edotaccent" unicode="&#x116;" horiz-adv-x="442" 
d="M422 501h-226v-92h206v-153h-206v-102h226v-154h-392v655h392v-154zM221 885q89 0 89 -79v-23q0 -38 -23 -58.5t-66 -20.5q-42 0 -65.5 21t-23.5 58v23q0 39 23.5 59t65.5 20z" />
    <glyph glyph-name="edotaccent" unicode="&#x117;" horiz-adv-x="383" 
d="M363 376h-183v-54h166v-131h-166v-56h183v-135h-333v511h333v-135zM192 744q89 0 89 -79v-23q0 -38 -23 -58.5t-66 -20.5q-42 0 -65.5 21t-23.5 58v23q0 39 23.5 59t65.5 20z" />
    <glyph glyph-name="Eogonek" unicode="&#x118;" horiz-adv-x="442" 
d="M422 501h-226v-92h206v-153h-206v-102h226v-154h-82q-42 -14 -42 -40v-4q0 -23 30 -23q15 0 42 7v-124q-54 -13 -81 -13q-58 0 -90 25t-32 65v9q0 59 74 98h-211v655h392v-154z" />
    <glyph glyph-name="eogonek" unicode="&#x119;" horiz-adv-x="383" 
d="M363 376h-183v-54h166v-131h-166v-56h183v-135h-73q-42 -14 -42 -40v-4q0 -23 30 -23q16 0 43 7v-124q-54 -13 -82 -13q-58 0 -90 25t-32 65v9q0 59 75 98h-162v511h333v-135z" />
    <glyph glyph-name="Ecaron" unicode="&#x11a;" horiz-adv-x="442" 
d="M422 501h-226v-92h206v-153h-206v-102h226v-154h-392v655h392v-154zM374 783l-153 -73l-153 73v114l153 -59l153 59v-114z" />
    <glyph glyph-name="ecaron" unicode="&#x11b;" horiz-adv-x="383" 
d="M363 376h-183v-54h166v-131h-166v-56h183v-135h-333v511h333v-135zM325 614l-133 -65l-133 65v109l133 -51l133 51v-109z" />
    <glyph glyph-name="Gcircumflex" unicode="&#x11c;" horiz-adv-x="508" 
d="M256 667q95 0 197 -20l-2 -149q-99 19 -185 19q-42 0 -58.5 -16t-16.5 -55v-234q0 -39 16 -55.5t53 -16.5q24 0 52 3v115h-59v146h225v-371q-124 -45 -227 -45q-122 0 -174 53.5t-52 165.5v241q0 114 53 166.5t178 52.5zM407 830v-114l-153 59l-153 -59v114l153 73z" />
    <glyph glyph-name="gcircumflex" unicode="&#x11d;" horiz-adv-x="437" 
d="M220 523q74 0 167 -17l-2 -130q-94 16 -157 16q-29 0 -41 -10t-12 -32v-188q0 -41 45 -41q21 0 37 2v79h-34v112h184v-298q-91 -28 -187 -28q-104 0 -149.5 42.5t-45.5 133.5v185q0 91 45 132.5t150 41.5zM352 665v-109l-133 51l-133 -51v109l133 65z" />
    <glyph glyph-name="Gbreve" unicode="&#x11e;" horiz-adv-x="508" 
d="M256 667q95 0 197 -20l-2 -149q-99 19 -185 19q-42 0 -58.5 -16t-16.5 -55v-234q0 -39 16 -55.5t53 -16.5q24 0 52 3v115h-59v146h225v-371q-124 -45 -227 -45q-122 0 -174 53.5t-52 165.5v241q0 114 53 166.5t178 52.5zM407 895v-126q-7 -7 -19 -18t-52 -29.5t-82 -18.5
q-41 0 -79.5 16.5t-56.5 32.5l-17 17v126q7 -8 20.5 -20.5t53.5 -33.5t79 -21t77 19t57 37z" />
    <glyph glyph-name="gbreve" unicode="&#x11f;" horiz-adv-x="437" 
d="M220 523q74 0 167 -17l-2 -130q-94 16 -157 16q-29 0 -41 -10t-12 -32v-188q0 -41 45 -41q21 0 37 2v79h-34v112h184v-298q-91 -28 -187 -28q-104 0 -149.5 42.5t-45.5 133.5v185q0 91 45 132.5t150 41.5zM351 729v-121q-6 -6 -17.5 -14.5t-46 -22.5t-68.5 -14t-67 12.5
t-50 25.5l-16 13v121q8 -7 21.5 -16.5t48.5 -26t63 -16.5t61 15t52 29z" />
    <glyph glyph-name="Gdotaccent" unicode="&#x120;" horiz-adv-x="508" 
d="M256 667q95 0 197 -20l-2 -149q-99 19 -185 19q-42 0 -58.5 -16t-16.5 -55v-234q0 -39 16 -55.5t53 -16.5q24 0 52 3v115h-59v146h225v-371q-124 -45 -227 -45q-122 0 -174 53.5t-52 165.5v241q0 114 53 166.5t178 52.5zM254 885q89 0 89 -79v-23q0 -38 -23 -58.5
t-66 -20.5q-42 0 -65.5 21t-23.5 58v23q0 39 23.5 59t65.5 20z" />
    <glyph glyph-name="gdotaccent" unicode="&#x121;" horiz-adv-x="437" 
d="M220 523q74 0 167 -17l-2 -130q-94 16 -157 16q-29 0 -41 -10t-12 -32v-188q0 -41 45 -41q21 0 37 2v79h-34v112h184v-298q-91 -28 -187 -28q-104 0 -149.5 42.5t-45.5 133.5v185q0 91 45 132.5t150 41.5zM219 744q89 0 89 -79v-23q0 -38 -23 -58.5t-66 -20.5
q-42 0 -65.5 21t-23.5 58v23q0 39 23.5 59t65.5 20z" />
    <glyph glyph-name="Gcommaaccent" unicode="&#x122;" horiz-adv-x="508" 
d="M256 667q95 0 197 -20l-2 -149q-99 19 -185 19q-42 0 -58.5 -16t-16.5 -55v-234q0 -39 16 -55.5t53 -16.5q24 0 52 3v115h-59v146h225v-371q-124 -45 -227 -45q-122 0 -174 53.5t-52 165.5v241q0 114 53 166.5t178 52.5zM253 -56q78 0 78 -69v-21q0 -23 -10 -56l-29 -86
h-97l13 85q-32 14 -32 59v19q0 69 77 69z" />
    <glyph glyph-name="gcommaaccent" unicode="&#x123;" horiz-adv-x="437" 
d="M220 523q74 0 167 -17l-2 -130q-94 16 -157 16q-29 0 -41 -10t-12 -32v-188q0 -41 45 -41q21 0 37 2v79h-34v112h184v-298q-91 -28 -187 -28q-104 0 -149.5 42.5t-45.5 133.5v185q0 91 45 132.5t150 41.5zM219 -56q78 0 78 -69v-21q0 -23 -10 -56l-29 -86h-97l13 85
q-32 14 -32 59v19q0 69 77 69z" />
    <glyph glyph-name="Hcircumflex" unicode="&#x124;" horiz-adv-x="526" 
d="M496 0h-166v259h-134v-259h-166v655h166v-243h134v243h166v-655zM416 830v-114l-153 59l-153 -59v114l153 73z" />
    <glyph glyph-name="hcircumflex" unicode="&#x125;" horiz-adv-x="452" 
d="M422 0h-150v194h-92v-194h-150v511h150v-183h92v183h150v-511zM359 665v-109l-133 51l-133 -51v109l133 65z" />
    <glyph glyph-name="Hbar" unicode="&#x126;" horiz-adv-x="536" 
d="M501 605h42v-133h-42v-472h-166v259h-134v-259h-166v472h-42v133h42v50h166v-50h134v50h166v-50zM201 472v-60h134v60h-134z" />
    <glyph glyph-name="hbar" unicode="&#x127;" horiz-adv-x="452" 
d="M422 479h40v-106h-40v-373h-150v194h-92v-194h-150v373h-40v106h40v32h150v-32h92v32h150v-32zM180 373v-45h92v45h-92z" />
    <glyph glyph-name="Itilde" unicode="&#x128;" horiz-adv-x="226" 
d="M196 0h-166v655h166v-655zM266 869v-111q-42 -39 -93 -39q-23 0 -63 16t-59 16q-16 0 -39 -8t-38 -16l-14 -8v111q42 39 93 39q30 0 68 -16.5t54 -16.5t38.5 8t37.5 16z" />
    <glyph glyph-name="itilde" unicode="&#x129;" horiz-adv-x="210" 
d="M180 0h-150v511h150v-511zM248 715v-105q-32 -33 -83 -33q-21 0 -53 13t-49 13q-16 0 -36.5 -6.5t-32.5 -12.5l-12 -7v105q32 33 83 33q27 0 57.5 -13.5t44.5 -13.5q16 0 36.5 7t32.5 13z" />
    <glyph glyph-name="Imacron" unicode="&#x12a;" horiz-adv-x="226" 
d="M196 0h-166v655h166v-655zM256 706h-287v122h287v-122z" />
    <glyph glyph-name="imacron" unicode="&#x12b;" horiz-adv-x="210" 
d="M180 0h-150v511h150v-511zM230 570h-251v117h251v-117z" />
    <glyph glyph-name="Ibreve" unicode="&#x12c;" horiz-adv-x="226" 
d="M196 0h-166v655h166v-655zM266 895v-126q-7 -7 -19 -18t-52 -29.5t-82 -18.5q-41 0 -79.5 16.5t-55.5 32.5l-18 17v126q7 -8 20.5 -20.5t53.5 -33.5t79 -21t77 19t57 37z" />
    <glyph glyph-name="ibreve" unicode="&#x12d;" horiz-adv-x="210" 
d="M180 0h-150v511h150v-511zM237 729v-121q-6 -6 -17.5 -14.5t-46 -22.5t-68.5 -14t-67 12.5t-50 25.5l-16 13v121q8 -7 21.5 -16.5t48.5 -26t63 -16.5t61 15t52 29z" />
    <glyph glyph-name="Iogonek" unicode="&#x12e;" horiz-adv-x="226" 
d="M196 0h-72q-42 -14 -42 -40v-4q0 -23 30 -23q16 0 43 7v-124q-54 -13 -82 -13q-58 0 -90 25t-32 65v9q0 62 79 100v653h166v-655z" />
    <glyph glyph-name="iogonek" unicode="&#x12f;" horiz-adv-x="210" 
d="M180 0h-55q-42 -14 -42 -40v-4q0 -23 30 -23q16 0 43 7v-124q-54 -13 -82 -13q-58 0 -90 25t-32 65v9q0 61 78 100v509h150v-511z" />
    <glyph glyph-name="Idotaccent" unicode="&#x130;" horiz-adv-x="210" 
d="M180 0h-150v511h150v-511zM105 744q89 0 89 -79v-23q0 -38 -23 -58.5t-66 -20.5q-42 0 -65.5 21t-23.5 58v23q0 39 23.5 59t65.5 20z" />
    <glyph glyph-name="dotlessi" unicode="&#x131;" horiz-adv-x="210" 
d="M180 0h-150v511h150v-511z" />
    <glyph glyph-name="IJ" unicode="&#x132;" horiz-adv-x="541" 
d="M196 0h-166v655h166v-655zM511 655v-452q0 -215 -184 -215q-62 0 -101 13v144q39 -7 75 -7q24 0 34 13t10 46v458h166z" />
    <glyph glyph-name="ij" unicode="&#x133;" horiz-adv-x="487" 
d="M180 0h-150v511h150v-511zM457 511v-343q0 -180 -155 -180q-57 0 -92 11v127q31 -6 60 -6q21 0 29 10t8 37v344h150z" />
    <glyph glyph-name="Jcircumflex" unicode="&#x134;" horiz-adv-x="315" 
d="M285 655v-452q0 -215 -184 -215q-62 0 -101 13v144q39 -7 75 -7q24 0 34 13t10 46v458h166zM354 830v-114l-153 59l-153 -59v114l153 73z" />
    <glyph glyph-name="jcircumflex" unicode="&#x135;" horiz-adv-x="277" 
d="M247 511v-343q0 -180 -155 -180q-57 0 -92 11v127q31 -6 60 -6q21 0 29 10t8 37v344h150zM305 665v-109l-133 51l-133 -51v109l133 65z" />
    <glyph glyph-name="Kcommaaccent" unicode="&#x136;" horiz-adv-x="544" 
d="M317 332l235 -332h-194l-162 247v-247h-166v655h166v-266l170 266h170zM271 -56q78 0 78 -69v-21q0 -23 -10 -56l-29 -86h-97l13 85q-32 14 -32 59v19q0 69 77 69z" />
    <glyph glyph-name="kcommaaccent" unicode="&#x137;" horiz-adv-x="466" 
d="M297 263l179 -263h-176l-120 184v-184h-150v511h150v-199l128 199h155zM232 -56q78 0 78 -69v-21q0 -23 -10 -56l-29 -86h-97l13 85q-32 14 -32 59v19q0 69 77 69z" />
    <glyph glyph-name="kgreenlandic" unicode="&#x138;" horiz-adv-x="466" 
d="M297 263l179 -263h-176l-120 184v-184h-150v511h150v-199l128 199h155z" />
    <glyph glyph-name="Lacute" unicode="&#x139;" horiz-adv-x="427" 
d="M196 153h226v-153h-392v655h166v-502zM154 706h-124l87 159h160z" />
    <glyph glyph-name="lacute" unicode="&#x13a;" horiz-adv-x="368" 
d="M180 135h183v-135h-333v511h150v-376zM165 550h-117l80 145h155z" />
    <glyph glyph-name="Lcommaaccent" unicode="&#x13b;" horiz-adv-x="427" 
d="M196 153h226v-153h-392v655h166v-502zM213 -56q78 0 78 -69v-21q0 -23 -10 -56l-29 -86h-97l13 85q-32 14 -32 59v19q0 69 77 69z" />
    <glyph glyph-name="lcommaaccent" unicode="&#x13c;" horiz-adv-x="368" 
d="M180 135h183v-135h-333v511h150v-376zM183 -56q78 0 78 -69v-21q0 -23 -10 -56l-29 -86h-97l13 85q-32 14 -32 59v19q0 69 77 69z" />
    <glyph glyph-name="Lcaron" unicode="&#x13d;" horiz-adv-x="427" 
d="M196 153h226v-153h-392v655h166v-502zM308 667q78 0 78 -69v-21q0 -23 -10 -56l-29 -86h-97l13 85q-32 14 -32 59v19q0 69 77 69z" />
    <glyph glyph-name="lcaron" unicode="&#x13e;" horiz-adv-x="376" 
d="M180 135h183v-135h-333v511h150v-376zM282 523q78 0 78 -69v-21q0 -23 -10 -56l-29 -86h-97l13 85q-32 14 -32 59v19q0 69 77 69z" />
    <glyph glyph-name="Ldot" unicode="&#x13f;" horiz-adv-x="427" 
d="M196 153h226v-153h-392v655h166v-502zM325 481q89 0 89 -79v-23q0 -38 -23 -58.5t-66 -20.5q-42 0 -65.5 21t-23.5 58v23q0 39 23.5 59t65.5 20z" />
    <glyph glyph-name="ldot" unicode="&#x140;" horiz-adv-x="392" 
d="M180 135h183v-135h-333v511h150v-376zM301 404q89 0 89 -79v-23q0 -38 -23 -58.5t-66 -20.5q-42 0 -65.5 21t-23.5 58v23q0 39 23.5 59t65.5 20z" />
    <glyph glyph-name="Lslash" unicode="&#x141;" horiz-adv-x="457" 
d="M226 429l102 29v-136l-102 -28v-141h226v-153h-392v248l-62 -17v135l62 17v272h166v-226z" />
    <glyph glyph-name="lslash" unicode="&#x142;" horiz-adv-x="373" 
d="M185 349l45 12v-94l-45 -12v-120h183v-135h-333v215l-37 -9v94l37 9v202h150v-162z" />
    <glyph glyph-name="Nacute" unicode="&#x143;" horiz-adv-x="528" 
d="M188 343v-343h-158v655h200l110 -343v343h158v-655h-195zM299 706h-124l87 159h160z" />
    <glyph glyph-name="nacute" unicode="&#x144;" horiz-adv-x="454" 
d="M424 0h-157l-93 238v-238h-144v511h163l87 -235v235h144v-511zM266 550h-117l80 145h155z" />
    <glyph glyph-name="Ncommaaccent" unicode="&#x145;" horiz-adv-x="528" 
d="M188 343v-343h-158v655h200l110 -343v343h158v-655h-195zM263 -56q78 0 78 -69v-21q0 -23 -10 -56l-29 -86h-97l13 85q-32 14 -32 59v19q0 69 77 69z" />
    <glyph glyph-name="ncommaaccent" unicode="&#x146;" horiz-adv-x="454" 
d="M424 0h-157l-93 238v-238h-144v511h163l87 -235v235h144v-511zM226 -56q78 0 78 -69v-21q0 -23 -10 -56l-29 -86h-97l13 85q-32 14 -32 59v19q0 69 77 69z" />
    <glyph glyph-name="Ncaron" unicode="&#x147;" horiz-adv-x="528" 
d="M188 343v-343h-158v655h200l110 -343v343h158v-655h-195zM417 783l-153 -73l-153 73v114l153 -59l153 59v-114z" />
    <glyph glyph-name="ncaron" unicode="&#x148;" horiz-adv-x="454" 
d="M424 0h-157l-93 238v-238h-144v511h163l87 -235v235h144v-511zM360 614l-133 -65l-133 65v109l133 -51l133 51v-109z" />
    <glyph glyph-name="napostrophe" unicode="&#x149;" horiz-adv-x="454" 
d="M424 0h-157l-93 238v-238h-144v511h163l87 -235v235h144v-511z" />
    <glyph glyph-name="Eng" unicode="&#x14a;" horiz-adv-x="528" 
d="M498 655v-641q0 -104 -47 -157.5t-134 -53.5q-65 0 -104 13v144q39 -7 79 -7q48 0 48 44v3h-37l-115 343v-343h-158v655h200l110 -343v343h158z" />
    <glyph glyph-name="eng" unicode="&#x14b;" horiz-adv-x="454" 
d="M424 511v-528q0 -180 -150 -180q-57 0 -92 11v127q31 -6 60 -6q23 0 32.5 10t9.5 37v18h-17l-93 238v-238h-144v511h163l87 -235v235h144z" />
    <glyph glyph-name="Omacron" unicode="&#x14c;" horiz-adv-x="521" 
d="M260 667q236 0 236 -230v-219q0 -230 -236 -230q-235 0 -235 230v219q0 230 235 230zM260 515q-69 0 -69 -69v-235q0 -71 69 -71q70 0 70 71v234q0 70 -70 70zM404 706h-287v122h287v-122z" />
    <glyph glyph-name="omacron" unicode="&#x14d;" horiz-adv-x="446" 
d="M223 523q198 0 198 -189v-157q0 -189 -198 -189t-198 189v157q0 189 198 189zM223 390q-48 0 -48 -47v-173q0 -23 12.5 -36t35.5 -13t35.5 13t12.5 36v171q0 23 -12.5 36t-35.5 13zM348 570h-251v117h251v-117z" />
    <glyph glyph-name="Obreve" unicode="&#x14e;" horiz-adv-x="521" 
d="M260 667q236 0 236 -230v-219q0 -230 -236 -230q-235 0 -235 230v219q0 230 235 230zM260 515q-69 0 -69 -69v-235q0 -71 69 -71q70 0 70 71v234q0 70 -70 70zM414 895v-126q-7 -7 -19 -18t-52 -29.5t-82 -18.5q-41 0 -79.5 16.5t-55.5 32.5l-18 17v126q7 -8 20.5 -20.5
t53.5 -33.5t79 -21t77 19t57 37z" />
    <glyph glyph-name="obreve" unicode="&#x14f;" horiz-adv-x="446" 
d="M223 523q198 0 198 -189v-157q0 -189 -198 -189t-198 189v157q0 189 198 189zM223 390q-48 0 -48 -47v-173q0 -23 12.5 -36t35.5 -13t35.5 13t12.5 36v171q0 23 -12.5 36t-35.5 13zM355 729v-121q-6 -6 -17.5 -14.5t-46 -22.5t-68.5 -14t-67 12.5t-50 25.5l-16 13v121
q8 -7 21.5 -16.5t48.5 -26t63 -16.5t61 15t52 29z" />
    <glyph glyph-name="Ohungarumlaut" unicode="&#x150;" horiz-adv-x="521" 
d="M260 667q236 0 236 -230v-219q0 -230 -236 -230q-235 0 -235 230v219q0 230 235 230zM260 515q-69 0 -69 -69v-235q0 -71 69 -71q70 0 70 71v234q0 70 -70 70zM227 706h-130l77 176h153zM425 706h-131l78 176h153z" />
    <glyph glyph-name="ohungarumlaut" unicode="&#x151;" horiz-adv-x="446" 
d="M223 523q198 0 198 -189v-157q0 -189 -198 -189t-198 189v157q0 189 198 189zM223 390q-48 0 -48 -47v-173q0 -23 12.5 -36t35.5 -13t35.5 13t12.5 36v171q0 23 -12.5 36t-35.5 13zM182 550h-117l77 155h140zM367 550h-118l78 155h140z" />
    <glyph glyph-name="OE" unicode="&#x152;" horiz-adv-x="734" 
d="M246 667q41 0 89 -12h379v-154h-226v-92h206v-153h-206v-102h226v-154h-388q-38 -12 -74 -12q-112 0 -169.5 58.5t-57.5 171.5v219q0 112 57 171t164 59zM261 518q-70 0 -70 -69v-241q0 -71 65 -71q39 0 68 14v353q-30 14 -63 14z" />
    <glyph glyph-name="oe" unicode="&#x153;" horiz-adv-x="614" 
d="M218 523q39 0 89 -12h287v-135h-183v-54h166v-131h-166v-56h183v-135h-308q-36 -12 -63 -12q-198 0 -198 189v157q0 93 49 141t144 48zM221 390q-46 0 -46 -47v-173q0 -23 12.5 -36t35.5 -13q27 0 38 6v252q-16 11 -40 11z" />
    <glyph glyph-name="Racute" unicode="&#x154;" horiz-adv-x="515" 
d="M226 666q245 0 245 -195v-22q0 -104 -93 -163l152 -286h-182l-120 236q-21 0 -32 1v-237h-166v660q180 6 196 6zM230 518q-16 0 -34 -2v-132q11 -1 31 -1q78 0 78 65v10q0 60 -75 60zM270 706h-124l87 159h160z" />
    <glyph glyph-name="racute" unicode="&#x155;" horiz-adv-x="442" 
d="M196 521q206 0 206 -155v-9q0 -43 -20 -79t-55 -56l130 -222h-167l-98 184h-12v-184h-150v517q86 4 166 4zM204 393q-14 0 -24 -2v-84q8 -1 22 -1q50 0 50 40v10q0 17 -12.5 27t-35.5 10zM234 550h-117l80 145h155z" />
    <glyph glyph-name="Rcommaaccent" unicode="&#x156;" horiz-adv-x="515" 
d="M226 666q245 0 245 -195v-22q0 -104 -93 -163l152 -286h-182l-120 236q-21 0 -32 1v-237h-166v660q180 6 196 6zM230 518q-16 0 -34 -2v-132q11 -1 31 -1q78 0 78 65v10q0 60 -75 60zM257 -56q78 0 78 -69v-21q0 -23 -10 -56l-29 -86h-97l13 85q-32 14 -32 59v19
q0 69 77 69z" />
    <glyph glyph-name="rcommaaccent" unicode="&#x157;" horiz-adv-x="442" 
d="M196 521q206 0 206 -155v-9q0 -43 -20 -79t-55 -56l130 -222h-167l-98 184h-12v-184h-150v517q86 4 166 4zM204 393q-14 0 -24 -2v-84q8 -1 22 -1q50 0 50 40v10q0 17 -12.5 27t-35.5 10zM236 -56q78 0 78 -69v-21q0 -23 -10 -56l-29 -86h-97l13 85q-32 14 -32 59v19
q0 69 77 69z" />
    <glyph glyph-name="Rcaron" unicode="&#x158;" horiz-adv-x="515" 
d="M226 666q245 0 245 -195v-22q0 -104 -93 -163l152 -286h-182l-120 236q-21 0 -32 1v-237h-166v660q180 6 196 6zM230 518q-16 0 -34 -2v-132q11 -1 31 -1q78 0 78 65v10q0 60 -75 60zM388 783l-153 -73l-153 73v114l153 -59l153 59v-114z" />
    <glyph glyph-name="rcaron" unicode="&#x159;" horiz-adv-x="442" 
d="M196 521q206 0 206 -155v-9q0 -43 -20 -79t-55 -56l130 -222h-167l-98 184h-12v-184h-150v517q86 4 166 4zM204 393q-14 0 -24 -2v-84q8 -1 22 -1q50 0 50 40v10q0 17 -12.5 27t-35.5 10zM328 614l-133 -65l-133 65v109l133 -51l133 51v-109z" />
    <glyph glyph-name="Sacute" unicode="&#x15a;" horiz-adv-x="457" 
d="M234 667q66 0 166 -17l-2 -154q-104 19 -159 19t-55 -40v-13q0 -15 8 -24.5t31 -17.5l81 -26q75 -24 106.5 -67t31.5 -123v-19q0 -99 -57 -148t-182 -49q-53 0 -166 23l1 156q112 -25 159 -25q79 0 79 44v16q0 31 -29 41l-89 30q-79 26 -109.5 66.5t-30.5 121.5v10
q0 196 216 196zM264 706h-124l87 159h160z" />
    <glyph glyph-name="sacute" unicode="&#x15b;" horiz-adv-x="384" 
d="M198 523q60 0 141 -13l-1 -136q-84 16 -134 16q-39 0 -39 -23v-7q0 -18 26 -26l66 -21q65 -20 91 -53.5t26 -96.5v-18q0 -157 -187 -157q-56 0 -156 18l1 137q90 -20 135 -20q56 0 56 26v9q0 19 -23 27l-66 21q-66 21 -92.5 54.5t-26.5 95.5v10q0 157 183 157zM221 550
h-117l80 145h155z" />
    <glyph glyph-name="Scircumflex" unicode="&#x15c;" horiz-adv-x="457" 
d="M234 667q66 0 166 -17l-2 -154q-104 19 -159 19t-55 -40v-13q0 -15 8 -24.5t31 -17.5l81 -26q75 -24 106.5 -67t31.5 -123v-19q0 -99 -57 -148t-182 -49q-53 0 -166 23l1 156q112 -25 159 -25q79 0 79 44v16q0 31 -29 41l-89 30q-79 26 -109.5 66.5t-30.5 121.5v10
q0 196 216 196zM382 830v-114l-153 59l-153 -59v114l153 73z" />
    <glyph glyph-name="scircumflex" unicode="&#x15d;" horiz-adv-x="384" 
d="M198 523q60 0 141 -13l-1 -136q-84 16 -134 16q-39 0 -39 -23v-7q0 -18 26 -26l66 -21q65 -20 91 -53.5t26 -96.5v-18q0 -157 -187 -157q-56 0 -156 18l1 137q90 -20 135 -20q56 0 56 26v9q0 19 -23 27l-66 21q-66 21 -92.5 54.5t-26.5 95.5v10q0 157 183 157zM315 665
v-109l-133 51l-133 -51v109l133 65z" />
    <glyph glyph-name="Scedilla" unicode="&#x15e;" horiz-adv-x="457" 
d="M234 667q66 0 166 -17l-2 -154q-104 19 -159 19t-55 -40v-13q0 -16 8.5 -25.5t30.5 -16.5l81 -26q75 -24 106.5 -67t31.5 -123v-19q0 -163 -158 -190l-7 -21h10q27 0 45.5 -18t18.5 -43v-19q0 -91 -139 -91q-33 0 -69 6v87q21 -3 36 -3q41 0 41 20v4q0 20 -34 20h-26v17
l13 36q-60 5 -136 21l1 156q112 -25 159 -25q79 0 79 44v16q0 31 -29 41l-89 30q-79 26 -109.5 66.5t-30.5 121.5v10q0 196 216 196z" />
    <glyph glyph-name="scedilla" unicode="&#x15f;" horiz-adv-x="384" 
d="M198 523q60 0 140 -13v-136q-84 16 -134 16q-39 0 -39 -23v-7q0 -18 26 -26l66 -21q65 -20 91 -53.5t26 -96.5v-18q0 -135 -136 -154l-6 -17h10q27 0 45.5 -18t18.5 -43v-19q0 -91 -139 -91q-33 0 -69 6v87q21 -3 36 -3q41 0 41 20v4q0 20 -34 20h-26v17l13 38
q-55 7 -96 14v137q90 -20 135 -20q56 0 56 26v9q0 19 -23 27l-66 21q-66 21 -92.5 54.5t-26.5 95.5v10q0 157 183 157z" />
    <glyph glyph-name="Scaron" unicode="&#x160;" horiz-adv-x="457" 
d="M234 667q66 0 166 -17l-2 -154q-104 19 -159 19t-55 -40v-13q0 -15 8 -24.5t31 -17.5l81 -26q75 -24 106.5 -67t31.5 -123v-19q0 -99 -57 -148t-182 -49q-53 0 -166 23l1 156q112 -25 159 -25q79 0 79 44v16q0 31 -29 41l-89 30q-79 26 -109.5 66.5t-30.5 121.5v10
q0 196 216 196zM382 783l-153 -73l-153 73v114l153 -59l153 59v-114z" />
    <glyph glyph-name="scaron" unicode="&#x161;" horiz-adv-x="384" 
d="M198 523q60 0 141 -13l-1 -136q-84 16 -134 16q-39 0 -39 -23v-7q0 -18 26 -26l66 -21q65 -20 91 -53.5t26 -96.5v-18q0 -157 -187 -157q-56 0 -156 18l1 137q90 -20 135 -20q56 0 56 26v9q0 19 -23 27l-66 21q-66 21 -92.5 54.5t-26.5 95.5v10q0 157 183 157zM315 614
l-133 -65l-133 65v109l133 -51l133 51v-109z" />
    <glyph glyph-name="Tcedilla" unicode="&#x162;" horiz-adv-x="518" 
d="M508 501h-166v-501h-68l-9 -26h10q27 0 45.5 -18t18.5 -43v-19q0 -91 -139 -91q-33 0 -69 6v87q21 -3 36 -3q41 0 41 20v4q0 20 -34 20h-26v17l28 84v463h-166v154h498v-154z" />
    <glyph glyph-name="tcedilla" unicode="&#x163;" horiz-adv-x="437" 
d="M427 376h-133v-376h-52l-9 -26h10q27 0 45.5 -18t18.5 -43v-19q0 -91 -139 -91q-33 0 -69 6v87q21 -3 36 -3q41 0 41 20v4q0 20 -34 20h-26v17l28 84v338h-134v135h417v-135z" />
    <glyph glyph-name="Tcaron" unicode="&#x164;" horiz-adv-x="518" 
d="M508 501h-166v-501h-166v501h-166v154h498v-154zM412 783l-153 -73l-153 73v114l153 -59l153 59v-114z" />
    <glyph glyph-name="tcaron" unicode="&#x165;" horiz-adv-x="437" 
d="M427 376h-133v-376h-150v376h-134v135h417v-135zM350 614l-133 -65l-133 65v109l133 -51l133 51v-109z" />
    <glyph glyph-name="Tbar" unicode="&#x166;" horiz-adv-x="517" 
d="M507 501h-165v-92h87v-133h-87v-276h-166v276h-87v133h87v92h-166v154h497v-154z" />
    <glyph glyph-name="tbar" unicode="&#x167;" horiz-adv-x="437" 
d="M427 376h-133v-73h60v-106h-60v-197h-150v197h-60v106h60v73h-134v135h417v-135z" />
    <glyph glyph-name="Utilde" unicode="&#x168;" horiz-adv-x="523" 
d="M493 655v-438q0 -229 -232 -229q-231 0 -231 229v438h166v-444q0 -71 65 -71t65 71v444h167zM415 869v-111q-42 -39 -93 -39q-22 0 -62 16t-60 16q-16 0 -39 -8t-37 -16l-15 -8v111q42 39 93 39q30 0 68 -16.5t54 -16.5t39 8t37 16z" />
    <glyph glyph-name="utilde" unicode="&#x169;" horiz-adv-x="450" 
d="M420 511v-337q0 -89 -49 -137.5t-146 -48.5t-146 48.5t-49 137.5v337h150v-341q0 -49 45 -49q20 0 32 13t12 36v341h151zM368 715v-105q-32 -33 -83 -33q-21 0 -53 13t-49 13q-16 0 -36.5 -6.5t-32.5 -12.5l-12 -7v105q32 33 83 33q27 0 57.5 -13.5t44.5 -13.5
q16 0 36.5 7t32.5 13z" />
    <glyph glyph-name="Umacron" unicode="&#x16a;" horiz-adv-x="523" 
d="M493 655v-438q0 -229 -232 -229q-231 0 -231 229v438h166v-444q0 -71 65 -71t65 71v444h167zM405 706h-287v122h287v-122z" />
    <glyph glyph-name="umacron" unicode="&#x16b;" horiz-adv-x="450" 
d="M420 511v-337q0 -89 -49 -137.5t-146 -48.5t-146 48.5t-49 137.5v337h150v-341q0 -49 45 -49q20 0 32 13t12 36v341h151zM350 570h-251v117h251v-117z" />
    <glyph glyph-name="Ubreve" unicode="&#x16c;" horiz-adv-x="523" 
d="M493 655v-438q0 -229 -232 -229q-231 0 -231 229v438h166v-444q0 -71 65 -71t65 71v444h167zM415 895v-126q-7 -7 -19 -18t-52 -29.5t-82 -18.5q-41 0 -79.5 16.5t-56.5 32.5l-17 17v126q7 -8 20.5 -20.5t53.5 -33.5t79 -21t77 19t57 37z" />
    <glyph glyph-name="ubreve" unicode="&#x16d;" horiz-adv-x="450" 
d="M420 511v-337q0 -89 -49 -137.5t-146 -48.5t-146 48.5t-49 137.5v337h150v-341q0 -49 45 -49q20 0 32 13t12 36v341h151zM357 729v-121q-6 -6 -17.5 -14.5t-46 -22.5t-68.5 -14t-67 12.5t-50 25.5l-16 13v121q8 -7 21.5 -16.5t48.5 -26t63 -16.5t61 15t52 29z" />
    <glyph glyph-name="Uring" unicode="&#x16e;" horiz-adv-x="523" 
d="M493 655v-438q0 -229 -232 -229q-231 0 -231 229v438h166v-444q0 -71 65 -71t65 71v444h167zM262 930q67 0 103.5 -32.5t36.5 -92.5q0 -61 -36 -93t-104 -32q-67 0 -103.5 32.5t-36.5 92.5q0 61 36 93t104 32zM262 838q-23 0 -23 -30t23 -30t23 30t-23 30z" />
    <glyph glyph-name="uring" unicode="&#x16f;" horiz-adv-x="450" 
d="M420 511v-337q0 -89 -49 -137.5t-146 -48.5t-146 48.5t-49 137.5v337h150v-341q0 -49 45 -49q20 0 32 13t12 36v341h151zM225 789q65 0 102.5 -31.5t37.5 -93.5t-37 -93.5t-103 -31.5q-65 0 -102.5 31.5t-37.5 93.5t37 93.5t103 31.5zM225 697q-23 0 -23 -30t23 -30
t23 30t-23 30z" />
    <glyph glyph-name="Uhungarumlaut" unicode="&#x170;" horiz-adv-x="523" 
d="M493 655v-438q0 -229 -232 -229q-231 0 -231 229v438h166v-444q0 -71 65 -71t65 71v444h167zM228 706h-130l77 176h153zM426 706h-131l78 176h153z" />
    <glyph glyph-name="uhungarumlaut" unicode="&#x171;" horiz-adv-x="450" 
d="M420 511v-337q0 -89 -49 -137.5t-146 -48.5t-146 48.5t-49 137.5v337h150v-341q0 -49 45 -49q20 0 32 13t12 36v341h151zM184 550h-117l77 155h140zM369 550h-118l78 155h140z" />
    <glyph glyph-name="Uogonek" unicode="&#x172;" horiz-adv-x="523" 
d="M493 655v-438q0 -76 -28 -130.5t-82 -74.5q-43 -16 -56 -27.5t-13 -24.5v-4q0 -23 30 -23q16 0 43 7v-124q-54 -13 -82 -13q-58 0 -90 25t-32 65v9q0 50 56 87q-209 12 -209 228v438h166v-444q0 -71 65 -71t65 71v444h167z" />
    <glyph glyph-name="uogonek" unicode="&#x173;" horiz-adv-x="450" 
d="M420 511v-337q0 -65 -26 -109.5t-73 -58.5q-61 -18 -61 -46v-4q0 -23 30 -23q16 0 43 7v-124q-54 -13 -82 -13q-58 0 -90 25t-32 65v9q0 51 56 88q-155 19 -155 184v337h150v-341q0 -49 45 -49q20 0 32 13t12 36v341h151z" />
    <glyph glyph-name="Wcircumflex" unicode="&#x174;" horiz-adv-x="811" 
d="M678 0h-191l-81 484l-80 -484h-193l-130 655h174l58 -492l83 492h174l84 -489l58 489h174zM559 830v-114l-153 59l-153 -59v114l153 73z" />
    <glyph glyph-name="wcircumflex" unicode="&#x175;" horiz-adv-x="679" 
d="M571 0h-170l-61 363l-60 -363h-172l-105 511h157l39 -370l63 370h154l64 -367l39 367h157zM473 665v-109l-133 51l-133 -51v109l133 65z" />
    <glyph glyph-name="Ycircumflex" unicode="&#x176;" horiz-adv-x="542" 
d="M354 228v-228h-166v228l-188 427h185l87 -277l88 277h182zM424 830v-114l-153 59l-153 -59v114l153 73z" />
    <glyph glyph-name="ycircumflex" unicode="&#x177;" horiz-adv-x="462" 
d="M306 178v-178h-150v178l-156 333h167l65 -204l65 204h165zM364 665v-109l-133 51l-133 -51v109l133 65z" />
    <glyph glyph-name="Ydieresis" unicode="&#x178;" horiz-adv-x="542" 
d="M354 228v-228h-166v228l-188 427h185l87 -277l88 277h182zM159 878q85 0 85 -75v-22q0 -36 -22 -55.5t-63 -19.5q-39 0 -61.5 20t-22.5 55v22q0 36 22 55.5t62 19.5zM381 878q85 0 85 -75v-22q0 -36 -22 -55.5t-63 -19.5q-39 0 -61.5 20t-22.5 55v22q0 36 22 55.5
t62 19.5z" />
    <glyph glyph-name="Zacute" unicode="&#x179;" horiz-adv-x="471" 
d="M451 530l-236 -378h236v-152h-438v124l237 379h-229v152h430v-125zM271 706h-124l87 159h160z" />
    <glyph glyph-name="zacute" unicode="&#x17a;" horiz-adv-x="403" 
d="M383 400l-184 -265h184v-135h-370v110l185 266h-178v135h363v-111zM241 550h-117l80 145h155z" />
    <glyph glyph-name="Zdotaccent" unicode="&#x17b;" horiz-adv-x="471" 
d="M451 530l-236 -378h236v-152h-438v124l237 379h-229v152h430v-125zM236 885q89 0 89 -79v-23q0 -38 -23 -58.5t-66 -20.5q-42 0 -65.5 21t-23.5 58v23q0 39 23.5 59t65.5 20z" />
    <glyph glyph-name="zdotaccent" unicode="&#x17c;" horiz-adv-x="403" 
d="M383 400l-184 -265h184v-135h-370v110l185 266h-178v135h363v-111zM202 744q89 0 89 -79v-23q0 -38 -23 -58.5t-66 -20.5q-42 0 -65.5 21t-23.5 58v23q0 39 23.5 59t65.5 20z" />
    <glyph glyph-name="Zcaron" unicode="&#x17d;" horiz-adv-x="471" 
d="M451 530l-236 -378h236v-152h-438v124l237 379h-229v152h430v-125zM389 783l-153 -73l-153 73v114l153 -59l153 59v-114z" />
    <glyph glyph-name="zcaron" unicode="&#x17e;" horiz-adv-x="403" 
d="M383 400l-184 -265h184v-135h-370v110l185 266h-178v135h363v-111zM335 614l-133 -65l-133 65v109l133 -51l133 51v-109z" />
    <glyph glyph-name="longs" unicode="&#x17f;" horiz-adv-x="384" 
d="M198 523q60 0 141 -13l-1 -136q-84 16 -134 16q-39 0 -39 -23v-7q0 -18 26 -26l66 -21q65 -20 91 -53.5t26 -96.5v-18q0 -157 -187 -157q-56 0 -156 18l1 137q90 -20 135 -20q56 0 56 26v9q0 19 -23 27l-66 21q-66 21 -92.5 54.5t-26.5 95.5v10q0 157 183 157z" />
    <glyph glyph-name="florin" unicode="&#x192;" horiz-adv-x="337" 
d="M235 612q51 0 97 -10v-137q-45 6 -66 6q-26 0 -36.5 -11.5t-10.5 -42.5v-12h80v-142h-80v-448h-159v448h-55v142h55v29q0 86 45 132t130 46z" />
    <glyph glyph-name="AEacute" unicode="&#x1fc;" horiz-adv-x="749" 
d="M729 501h-226v-92h206v-153h-206v-102h226v-154h-392v131h-126l-42 -131h-179l241 655h498v-154zM261 284h76v233zM548 706h-124l87 159h160z" />
    <glyph glyph-name="aeacute" unicode="&#x1fd;" horiz-adv-x="634" 
d="M614 376h-183v-54h166v-131h-166v-56h183v-135h-333v85h-101l-28 -85h-162l197 511h427v-135zM219 203h62v189zM456 550h-117l80 145h155z" />
    <glyph glyph-name="Oslashacute" unicode="&#x1fe;" horiz-adv-x="521" 
d="M541 705l-74 -136q29 -53 29 -132v-219q0 -230 -236 -230q-60 0 -104 15l-30 -53h-152l78 139q-27 53 -27 129v219q0 230 235 230q57 0 102 -14l28 52h151zM296 706h-124l87 159h160zM330 354l-113 -204q16 -10 43 -10q70 0 70 71v143zM260 515q-69 0 -69 -69v-144
l111 203q-18 10 -42 10z" />
    <glyph glyph-name="oslashacute" unicode="&#x1ff;" horiz-adv-x="446" 
d="M495 562l-90 -137q16 -42 16 -91v-157q0 -189 -198 -189q-45 0 -81 11l-32 -50h-158l89 136q-16 38 -16 92v157q0 189 198 189q45 0 81 -11l32 50h159zM262 550h-117l80 145h155zM223 390q-48 0 -48 -47v-105l81 141q-13 11 -33 11zM271 272l-81 -140q13 -11 33 -11
q23 0 35.5 13t12.5 36v102z" />
    <glyph glyph-name="Scommaaccent" unicode="&#x218;" horiz-adv-x="457" 
d="M234 667q66 0 166 -17l-2 -154q-104 19 -159 19t-55 -40v-13q0 -15 8 -24.5t31 -17.5l81 -26q75 -24 106.5 -67t31.5 -123v-19q0 -99 -57 -148t-182 -49q-53 0 -166 23l1 156q112 -25 159 -25q79 0 79 44v16q0 31 -29 41l-89 30q-79 26 -109.5 66.5t-30.5 121.5v10
q0 196 216 196zM228 -56q78 0 78 -69v-21q0 -23 -10 -56l-29 -86h-97l13 85q-32 14 -32 59v19q0 69 77 69z" />
    <glyph glyph-name="scommaaccent" unicode="&#x219;" horiz-adv-x="384" 
d="M198 523q60 0 141 -13l-1 -136q-84 16 -134 16q-39 0 -39 -23v-7q0 -18 26 -26l66 -21q65 -20 91 -53.5t26 -96.5v-18q0 -157 -187 -157q-56 0 -156 18l1 137q90 -20 135 -20q56 0 56 26v9q0 19 -23 27l-66 21q-66 21 -92.5 54.5t-26.5 95.5v10q0 157 183 157zM213 -56
q78 0 78 -69v-21q0 -23 -10 -56l-29 -86h-97l13 85q-32 14 -32 59v19q0 69 77 69z" />
    <glyph glyph-name="uni021A" unicode="&#x21a;" horiz-adv-x="518" 
d="M508 501h-166v-501h-166v501h-166v154h498v-154zM258 -56q78 0 78 -69v-21q0 -23 -10 -56l-29 -86h-97l13 85q-32 14 -32 59v19q0 69 77 69z" />
    <glyph glyph-name="uni021B" unicode="&#x21b;" horiz-adv-x="437" 
d="M427 376h-133v-376h-150v376h-134v135h417v-135zM218 -56q78 0 78 -69v-21q0 -23 -10 -56l-29 -86h-97l13 85q-32 14 -32 59v19q0 69 77 69z" />
    <glyph glyph-name="dotlessj" unicode="&#x237;" horiz-adv-x="277" 
d="M247 511v-343q0 -180 -155 -180q-57 0 -92 11v127q31 -6 60 -6q21 0 29 10t8 37v344h150z" />
    <glyph glyph-name="uni02BC" unicode="&#x2bc;" horiz-adv-x="215" 
d="M107 695q78 0 78 -69v-21q0 -23 -10 -56l-29 -86h-97l13 85q-32 14 -32 59v19q0 69 77 69z" />
    <glyph glyph-name="circumflex" unicode="&#x2c6;" horiz-adv-x="326" 
d="M296 665v-109l-133 51l-133 -51v109l133 65z" />
    <glyph glyph-name="caron" unicode="&#x2c7;" horiz-adv-x="326" 
d="M296 614l-133 -65l-133 65v109l133 -51l133 51v-109z" />
    <glyph glyph-name="uni02C9" unicode="&#x2c9;" horiz-adv-x="327" 
d="M297 573h-267v122h267v-122z" />
    <glyph glyph-name="breve" unicode="&#x2d8;" horiz-adv-x="325" 
d="M295 729v-121q-6 -6 -17.5 -14.5t-46 -22.5t-68.5 -14t-67 12.5t-50 25.5l-16 13v121q8 -7 21.5 -16.5t48.5 -26t63 -16.5t61 15t52 29z" />
    <glyph glyph-name="dotaccent" unicode="&#x2d9;" horiz-adv-x="238" 
d="M119 744q89 0 89 -79v-23q0 -38 -23 -58.5t-66 -20.5q-42 0 -65.5 21t-23.5 58v23q0 39 23.5 59t65.5 20z" />
    <glyph glyph-name="ring" unicode="&#x2da;" horiz-adv-x="340" 
d="M170 789q65 0 102.5 -31.5t37.5 -93.5t-37 -93.5t-103 -31.5q-65 0 -102.5 31.5t-37.5 93.5t37 93.5t103 31.5zM170 697q-23 0 -23 -30t23 -30t23 30t-23 30z" />
    <glyph glyph-name="ogonek" unicode="&#x2db;" horiz-adv-x="265" 
d="M206 31l29 -23q-74 -13 -74 -48v-4q0 -23 30 -23q16 0 43 7v-124q-54 -13 -82 -13q-58 0 -90 25t-32 65v9q0 48 50 83.5t126 45.5z" />
    <glyph glyph-name="tilde" unicode="&#x2dc;" horiz-adv-x="326" 
d="M296 715v-105q-32 -33 -83 -33q-21 0 -53 13t-49 13q-16 0 -36.5 -6.5t-32.5 -12.5l-12 -7v105q32 33 83 33q27 0 57.5 -13.5t44.5 -13.5q16 0 36.5 7t32.5 13z" />
    <glyph glyph-name="hungarumlaut" unicode="&#x2dd;" horiz-adv-x="456" 
d="M147 550h-117l77 155h140zM332 550h-118l78 155h140z" />
    <glyph glyph-name="uni0312" unicode="&#x312;" horiz-adv-x="0" 
d="M166 787l-13 -85q32 -14 32 -59v-19q0 -69 -77 -69q-78 0 -78 69v21q0 23 10 56l29 86h97z" />
    <glyph glyph-name="uni0313" unicode="&#x313;" horiz-adv-x="0" 
d="M107 695q78 0 78 -69v-21q0 -23 -10 -56l-29 -86h-97l13 85q-32 14 -32 59v19q0 69 77 69z" />
    <glyph glyph-name="uni0326" unicode="&#x326;" horiz-adv-x="215" 
d="M107 -56q78 0 78 -69v-21q0 -23 -10 -56l-29 -86h-97l13 85q-32 14 -32 59v19q0 69 77 69z" />
    <glyph glyph-name="uni037E" unicode="&#x37e;" horiz-adv-x="211" 
d="M105 482q91 0 91 -80v-24q0 -38 -23.5 -58.5t-67.5 -20.5t-67 20.5t-23 58.5v24q0 80 90 80zM104 171q90 0 90 -79v-26q0 -30 -7 -54l-58 -173h-113l43 157q-44 17 -44 72v24q0 37 22.5 58t66.5 21z" />
    <glyph glyph-name="tonos" unicode="&#x384;" horiz-adv-x="303" 
d="M167 544h-137l58 189h185z" />
    <glyph glyph-name="dieresistonos" unicode="&#x385;" horiz-adv-x="483" 
d="M308 774h-137l56 179h185zM114 742q36 0 60.5 -21.5t24.5 -56.5v-19q0 -35 -24.5 -56.5t-60.5 -21.5q-35 0 -59.5 22t-24.5 56v19q0 35 24.5 56.5t59.5 21.5zM368 742q36 0 60.5 -21.5t24.5 -56.5v-19q0 -34 -25 -56t-60 -22t-59.5 21.5t-24.5 56.5v19q0 35 24 56.5
t60 21.5z" />
    <glyph glyph-name="Alphatonos" unicode="&#x386;" horiz-adv-x="650" 
d="M660 0h-177l-24 118h-165l-24 -118h-172l185 655h192zM321 254h111l-55 271zM137 466h-137l58 189h185z" />
    <glyph glyph-name="anoteleia" unicode="&#x387;" horiz-adv-x="211" 
d="M105 370q91 0 91 -80v-24q0 -38 -23.5 -58.5t-67.5 -20.5t-67 20.5t-23 58.5v24q0 80 90 80z" />
    <glyph glyph-name="Epsilontonos" unicode="&#x388;" horiz-adv-x="675" 
d="M655 501h-226v-92h206v-153h-206v-102h226v-154h-392v655h392v-154zM137 466h-137l58 189h185z" />
    <glyph glyph-name="Etatonos" unicode="&#x389;" horiz-adv-x="526" 
d="M496 0h-166v259h-134v-259h-166v655h166v-243h134v243h166v-655zM-101 466h-137l58 189h185z" />
    <glyph glyph-name="Iotatonos" unicode="&#x38a;" horiz-adv-x="459" 
d="M429 0h-166v655h166v-655zM137 466h-137l58 189h185z" />
    <glyph glyph-name="Omicrontonos" unicode="&#x38c;" horiz-adv-x="700" 
d="M439 667q236 0 236 -230v-219q0 -230 -236 -230q-235 0 -235 230v219q0 230 235 230zM439 515q-69 0 -69 -69v-235q0 -71 69 -71q70 0 70 71v234q0 70 -70 70zM137 466h-137l58 189h185z" />
    <glyph glyph-name="Upsilontonos" unicode="&#x38e;" horiz-adv-x="815" 
d="M137 466h-137l58 189h185zM627 228v-228h-166v228l-188 427h185l87 -277l88 277h182z" />
    <glyph glyph-name="Omegatonos" unicode="&#x38f;" horiz-adv-x="696" 
d="M435 667q117 0 176.5 -58.5t59.5 -168.5v-151q0 -37 -17.5 -77.5t-44.5 -61.5h71v-150h-214v142h1q38 0 38 66v240q0 68 -70 68q-69 0 -69 -68v-240q0 -66 37 -66h3v-142h-215v150h71q-27 21 -44.5 61.5t-17.5 77.5v151q0 111 59 169t176 58zM137 466h-137l58 189h185z
" />
    <glyph glyph-name="iotadieresistonos" unicode="&#x390;" horiz-adv-x="210" 
d="M180 0h-150v511h150v-511zM171 774h-137l56 179h185zM-23 742q36 0 60.5 -21.5t24.5 -56.5v-19q0 -35 -24.5 -56.5t-60.5 -21.5q-35 0 -59.5 22t-24.5 56v19q0 35 24.5 56.5t59.5 21.5zM231 742q36 0 60.5 -21.5t24.5 -56.5v-19q0 -34 -25 -56t-60 -22t-59.5 21.5
t-24.5 56.5v19q0 35 24 56.5t60 21.5z" />
    <glyph glyph-name="Alpha" unicode="&#x391;" horiz-adv-x="542" 
d="M552 0h-177l-24 118h-165l-24 -118h-172l185 655h192zM213 254h111l-55 271z" />
    <glyph glyph-name="Beta" unicode="&#x392;" horiz-adv-x="492" 
d="M226 666q113 0 174.5 -47t61.5 -118v-13q0 -50 -27.5 -87.5t-80.5 -55.5q61 -11 96 -51.5t35 -98.5v-16q0 -89 -61.5 -140t-193.5 -51q-116 0 -200 4v668q165 6 196 6zM225 522q-16 0 -29 -1v-119h39q30 0 45.5 15.5t15.5 41.5v13q0 50 -71 50zM196 261v-125q15 -1 39 -1
q84 0 84 57v14q0 55 -79 55h-44z" />
    <glyph glyph-name="Gamma" unicode="&#x393;" horiz-adv-x="428" 
d="M418 501h-222v-501h-166v655h388v-154z" />
    <glyph glyph-name="uni0394" unicode="&#x394;" horiz-adv-x="524" 
d="M517 98v-98h-510v98l159 557h190zM178 147h160l-78 379z" />
    <glyph glyph-name="Epsilon" unicode="&#x395;" horiz-adv-x="442" 
d="M422 501h-226v-92h206v-153h-206v-102h226v-154h-392v655h392v-154z" />
    <glyph glyph-name="Zeta" unicode="&#x396;" horiz-adv-x="471" 
d="M451 530l-236 -378h236v-152h-438v124l237 379h-229v152h430v-125z" />
    <glyph glyph-name="Eta" unicode="&#x397;" horiz-adv-x="526" 
d="M496 0h-166v259h-134v-259h-166v655h166v-243h134v243h166v-655z" />
    <glyph glyph-name="Theta" unicode="&#x398;" horiz-adv-x="521" 
d="M260 667q236 0 236 -230v-219q0 -230 -236 -230q-235 0 -235 230v219q0 230 235 230zM260 515q-69 0 -69 -69v-235q0 -71 69 -71q70 0 70 71v234q0 70 -70 70zM303 273h-85v117h85v-117z" />
    <glyph glyph-name="Iota" unicode="&#x399;" horiz-adv-x="226" 
d="M196 0h-166v655h166v-655z" />
    <glyph glyph-name="Kappa" unicode="&#x39a;" horiz-adv-x="544" 
d="M317 332l235 -332h-194l-162 247v-247h-166v655h166v-266l170 266h170z" />
    <glyph glyph-name="Lambda" unicode="&#x39b;" horiz-adv-x="534" 
d="M544 0h-177l-102 525l-103 -525h-172l181 655h191z" />
    <glyph glyph-name="Mu" unicode="&#x39c;" horiz-adv-x="654" 
d="M465 345l-57 -267h-163l-57 267l-6 -345h-155l6 655h194l102 -404l101 404h190l7 -655h-155z" />
    <glyph glyph-name="Nu" unicode="&#x39d;" horiz-adv-x="528" 
d="M188 343v-343h-158v655h200l110 -343v343h158v-655h-195z" />
    <glyph glyph-name="Xi" unicode="&#x39e;" horiz-adv-x="467" 
d="M447 498h-427v157h427v-157zM388 255h-309v153h309v-153zM447 0h-427v157h427v-157z" />
    <glyph glyph-name="Omicron" unicode="&#x39f;" horiz-adv-x="521" 
d="M260 667q236 0 236 -230v-219q0 -230 -236 -230q-235 0 -235 230v219q0 230 235 230zM260 515q-69 0 -69 -69v-235q0 -71 69 -71q70 0 70 71v234q0 70 -70 70z" />
    <glyph glyph-name="Pi" unicode="&#x3a0;" horiz-adv-x="526" 
d="M496 0h-166v501h-134v-501h-166v655h466v-655z" />
    <glyph glyph-name="Rho" unicode="&#x3a1;" horiz-adv-x="484" 
d="M225 666q124 0 186.5 -53.5t62.5 -147.5v-20q0 -100 -59.5 -156.5t-170.5 -56.5q-19 0 -48 4v-236h-166v660q147 6 195 6zM227 520q-20 0 -31 -1v-135q24 -2 34 -2q78 0 78 67v13q0 58 -81 58z" />
    <glyph glyph-name="Sigma" unicode="&#x3a3;" horiz-adv-x="459" 
d="M445 501h-227l111 -143v-54l-116 -150h232v-154h-429v126l146 204l-146 199v126h429v-154z" />
    <glyph glyph-name="Tau" unicode="&#x3a4;" horiz-adv-x="518" 
d="M508 501h-166v-501h-166v501h-166v154h498v-154z" />
    <glyph glyph-name="Upsilon" unicode="&#x3a5;" horiz-adv-x="542" 
d="M354 228v-228h-166v228l-188 427h185l87 -277l88 277h182z" />
    <glyph glyph-name="Phi" unicode="&#x3a6;" horiz-adv-x="696" 
d="M431 695v-72q6 1 18 1q124 0 177.5 -53t53.5 -166v-126q0 -115 -54 -167t-174 -52q-10 0 -21 1v-73h-166v73q-11 -1 -21 -1q-119 0 -173.5 51t-54.5 168v126q0 113 53.5 166t177.5 53q12 0 18 -1v72h166zM247 475q-35 0 -50 -14.5t-15 -46.5v-145q0 -33 15.5 -47.5
t49.5 -14.5h18v267q-6 1 -18 1zM449 475q-12 0 -18 -1v-267h18q34 0 49.5 14.5t15.5 47.5v145q0 32 -15 46.5t-50 14.5z" />
    <glyph glyph-name="Chi" unicode="&#x3a7;" horiz-adv-x="548" 
d="M366 334l192 -334h-194l-91 200l-93 -200h-190l192 334l-183 321h192l84 -187l85 187h190z" />
    <glyph glyph-name="Psi" unicode="&#x3a8;" horiz-adv-x="676" 
d="M646 655v-307q0 -200 -196 -200h-28v-148h-166v148h-30q-196 0 -196 200v307h166v-317q0 -41 30 -41h30v358h166v-358h28q30 0 30 41v317h166z" />
    <glyph glyph-name="uni03A9" unicode="&#x3a9;" horiz-adv-x="521" 
d="M260 667q117 0 176.5 -58.5t59.5 -168.5v-151q0 -37 -17.5 -77.5t-44.5 -61.5h71v-150h-214v142h1q38 0 38 66v240q0 68 -70 68q-69 0 -69 -68v-240q0 -66 37 -66h3v-142h-215v150h71q-27 21 -44.5 61.5t-17.5 77.5v151q0 111 59 169t176 58z" />
    <glyph glyph-name="Iotadieresis" unicode="&#x3aa;" horiz-adv-x="226" 
d="M196 0h-166v655h166v-655zM1 878q85 0 85 -75v-22q0 -36 -22 -55.5t-63 -19.5q-39 0 -61.5 20t-22.5 55v22q0 36 22 55.5t62 19.5zM223 878q85 0 85 -75v-22q0 -36 -22 -55.5t-63 -19.5q-39 0 -61.5 20t-22.5 55v22q0 36 22 55.5t62 19.5z" />
    <glyph glyph-name="Upsilondieresis" unicode="&#x3ab;" horiz-adv-x="542" 
d="M159 878q85 0 85 -75v-22q0 -36 -22 -55.5t-63 -19.5q-39 0 -61.5 20t-22.5 55v22q0 36 22 55.5t62 19.5zM381 878q85 0 85 -75v-22q0 -36 -22 -55.5t-63 -19.5q-39 0 -61.5 20t-22.5 55v22q0 36 22 55.5t62 19.5zM354 228v-228h-166v228l-188 427h185l87 -277l88 277
h182z" />
    <glyph glyph-name="alphatonos" unicode="&#x3ac;" horiz-adv-x="455" 
d="M465 0h-160l-17 85h-125l-17 -85h-156l151 511h173zM186 203h78l-38 196z" />
    <glyph glyph-name="epsilontonos" unicode="&#x3ad;" horiz-adv-x="383" 
d="M363 376h-183v-54h166v-131h-166v-56h183v-135h-333v511h333v-135z" />
    <glyph glyph-name="etatonos" unicode="&#x3ae;" horiz-adv-x="452" 
d="M422 0h-150v194h-92v-194h-150v511h150v-183h92v183h150v-511z" />
    <glyph glyph-name="iotatonos" unicode="&#x3af;" horiz-adv-x="210" 
d="M180 0h-150v511h150v-511z" />
    <glyph glyph-name="upsilondieresistonos" unicode="&#x3b0;" horiz-adv-x="462" 
d="M297 774h-137l56 179h185zM103 742q36 0 60.5 -21.5t24.5 -56.5v-19q0 -35 -24.5 -56.5t-60.5 -21.5q-35 0 -59.5 22t-24.5 56v19q0 35 24.5 56.5t59.5 21.5zM357 742q36 0 60.5 -21.5t24.5 -56.5v-19q0 -34 -25 -56t-60 -22t-59.5 21.5t-24.5 56.5v19q0 35 24 56.5
t60 21.5zM306 178v-178h-150v178l-156 333h167l65 -204l65 204h165z" />
    <glyph glyph-name="alpha" unicode="&#x3b1;" horiz-adv-x="455" 
d="M465 0h-160l-17 85h-125l-17 -85h-156l151 511h173zM186 203h78l-38 196z" />
    <glyph glyph-name="beta" unicode="&#x3b2;" horiz-adv-x="419" 
d="M199 521q93 0 144.5 -35.5t51.5 -89.5v-14q0 -90 -86 -112q50 -10 77 -41t27 -79v-11q0 -151 -214 -151q-84 0 -169 5v524q94 4 169 4zM200 396q-11 0 -20 -1v-78h24q41 0 41 34v13q0 32 -45 32zM180 200v-83q12 -2 24 -2q59 0 59 38v10q0 37 -52 37h-31z" />
    <glyph glyph-name="gamma" unicode="&#x3b3;" horiz-adv-x="369" 
d="M359 376h-179v-376h-150v511h329v-135z" />
    <glyph glyph-name="delta" unicode="&#x3b4;" horiz-adv-x="448" 
d="M443 84v-84h-438v84l133 427h171zM158 129h125l-61 271z" />
    <glyph glyph-name="epsilon" unicode="&#x3b5;" horiz-adv-x="383" 
d="M363 376h-183v-54h166v-131h-166v-56h183v-135h-333v511h333v-135z" />
    <glyph glyph-name="zeta" unicode="&#x3b6;" horiz-adv-x="403" 
d="M383 400l-184 -265h184v-135h-370v110l185 266h-178v135h363v-111z" />
    <glyph glyph-name="eta" unicode="&#x3b7;" horiz-adv-x="452" 
d="M422 0h-150v194h-92v-194h-150v511h150v-183h92v183h150v-511z" />
    <glyph glyph-name="theta" unicode="&#x3b8;" horiz-adv-x="446" 
d="M223 523q198 0 198 -189v-157q0 -189 -198 -189t-198 189v157q0 189 198 189zM223 390q-48 0 -48 -47v-173q0 -23 12.5 -36t35.5 -13t35.5 13t12.5 36v171q0 23 -12.5 36t-35.5 13zM251 225h-56v69h56v-69z" />
    <glyph glyph-name="iota" unicode="&#x3b9;" horiz-adv-x="210" 
d="M180 0h-150v511h150v-511z" />
    <glyph glyph-name="kappa" unicode="&#x3ba;" horiz-adv-x="466" 
d="M297 263l179 -263h-176l-120 184v-184h-150v511h150v-199l128 199h155z" />
    <glyph glyph-name="lambda" unicode="&#x3bb;" horiz-adv-x="455" 
d="M465 0h-160l-79 399l-80 -399h-156l151 511h172z" />
    <glyph glyph-name="uni03BC" unicode="&#x3bc;" horiz-adv-x="562" 
d="M535 0h-146l-5 256l-41 -193h-126l-42 192l-5 -255h-143l3 511h172l79 -308l79 308h171z" />
    <glyph glyph-name="nu" unicode="&#x3bd;" horiz-adv-x="454" 
d="M424 0h-157l-93 238v-238h-144v511h163l87 -235v235h144v-511z" />
    <glyph glyph-name="xi" unicode="&#x3be;" horiz-adv-x="401" 
d="M381 373h-361v138h361v-138zM333 189h-265v138h265v-138zM381 0h-361v138h361v-138z" />
    <glyph glyph-name="omicron" unicode="&#x3bf;" horiz-adv-x="446" 
d="M223 523q198 0 198 -189v-157q0 -189 -198 -189t-198 189v157q0 189 198 189zM223 390q-48 0 -48 -47v-173q0 -23 12.5 -36t35.5 -13t35.5 13t12.5 36v171q0 23 -12.5 36t-35.5 13z" />
    <glyph glyph-name="pi" unicode="&#x3c0;" horiz-adv-x="452" 
d="M422 0h-150v376h-92v-376h-150v511h392v-511z" />
    <glyph glyph-name="rho" unicode="&#x3c1;" horiz-adv-x="415" 
d="M195 521q104 0 157 -42.5t53 -119.5v-18q0 -81 -47 -125t-131 -44q-26 0 -47 4v-176h-150v516q100 5 165 5zM200 393q-12 0 -20 -1v-91q5 -1 21 -1q53 0 53 44v10q0 39 -54 39z" />
    <glyph glyph-name="sigma1" unicode="&#x3c2;" horiz-adv-x="392" 
d="M378 376h-179l84 -95v-45l-88 -101h183v-135h-362v110l113 147l-113 144v110h362v-135z" />
    <glyph glyph-name="sigma" unicode="&#x3c3;" horiz-adv-x="392" 
d="M378 376h-179l84 -95v-45l-88 -101h183v-135h-362v110l113 147l-113 144v110h362v-135z" />
    <glyph glyph-name="tau" unicode="&#x3c4;" horiz-adv-x="437" 
d="M427 376h-133v-376h-150v376h-134v135h417v-135z" />
    <glyph glyph-name="upsilon" unicode="&#x3c5;" horiz-adv-x="462" 
d="M306 178v-178h-150v178l-156 333h167l65 -204l65 204h165z" />
    <glyph glyph-name="phi" unicode="&#x3c6;" horiz-adv-x="590" 
d="M370 486h9q104 0 149.5 -41.5t45.5 -132.5v-95q0 -92 -46 -133t-149 -41h-9v-55h-150v55h-9q-103 0 -149 41t-46 133v95q0 91 45.5 132.5t149.5 41.5h9v55h150v-55zM225 355h-17q-23 0 -32.5 -8.5t-9.5 -27.5v-109q0 -20 11.5 -29t39.5 -9h8v183zM382 355h-17v-183h8
q28 0 39.5 9t11.5 29v109q0 19 -9.5 27.5t-32.5 8.5z" />
    <glyph glyph-name="chi" unicode="&#x3c7;" horiz-adv-x="458" 
d="M311 260l157 -260h-174l-64 143l-66 -143h-174l157 260l-150 251h174l58 -134l59 134h173z" />
    <glyph glyph-name="psi" unicode="&#x3c8;" horiz-adv-x="577" 
d="M547 511v-241q0 -159 -166 -159h-18v-111h-148v111h-19q-166 0 -166 159v241h148v-249q0 -20 16 -20h21v269h148v-269h20q16 0 16 20v249h148z" />
    <glyph glyph-name="omega" unicode="&#x3c9;" horiz-adv-x="447" 
d="M223 523q98 0 148.5 -48t50.5 -135v-89q0 -37 -15.5 -70.5t-37.5 -48.5h60v-132h-180v124h1q21 0 21 39v179q0 22 -13 35t-35 13t-34.5 -13t-12.5 -35v-179q0 -39 21 -39h2v-124h-181v132h60q-22 15 -37.5 48.5t-15.5 70.5v89q0 88 50 135.5t148 47.5z" />
    <glyph glyph-name="iotadieresis" unicode="&#x3ca;" horiz-adv-x="210" 
d="M180 0h-150v511h150v-511zM-7 739q85 0 85 -75v-22q0 -36 -22 -55.5t-63 -19.5q-39 0 -61.5 20t-22.5 55v22q0 36 22 55.5t62 19.5zM215 739q85 0 85 -75v-22q0 -36 -22 -55.5t-63 -19.5q-39 0 -61.5 20t-22.5 55v22q0 36 22 55.5t62 19.5z" />
    <glyph glyph-name="upsilondieresis" unicode="&#x3cb;" horiz-adv-x="462" 
d="M119 739q85 0 85 -75v-22q0 -36 -22 -55.5t-63 -19.5q-39 0 -61.5 20t-22.5 55v22q0 36 22 55.5t62 19.5zM341 739q85 0 85 -75v-22q0 -36 -22 -55.5t-63 -19.5q-39 0 -61.5 20t-22.5 55v22q0 36 22 55.5t62 19.5zM306 178v-178h-150v178l-156 333h167l65 -204l65 204
h165z" />
    <glyph glyph-name="omicrontonos" unicode="&#x3cc;" horiz-adv-x="446" 
d="M223 523q198 0 198 -189v-157q0 -189 -198 -189t-198 189v157q0 189 198 189zM223 390q-48 0 -48 -47v-173q0 -23 12.5 -36t35.5 -13t35.5 13t12.5 36v171q0 23 -12.5 36t-35.5 13z" />
    <glyph glyph-name="upsilontonos" unicode="&#x3cd;" horiz-adv-x="462" 
d="M306 178v-178h-150v178l-156 333h167l65 -204l65 204h165z" />
    <glyph glyph-name="omegatonos" unicode="&#x3ce;" horiz-adv-x="447" 
d="M223 523q98 0 148.5 -48t50.5 -135v-89q0 -37 -15.5 -70.5t-37.5 -48.5h60v-132h-180v124h1q21 0 21 39v179q0 22 -13 35t-35 13t-34.5 -13t-12.5 -35v-179q0 -39 21 -39h2v-124h-181v132h60q-22 15 -37.5 48.5t-15.5 70.5v89q0 88 50 135.5t148 47.5z" />
    <glyph glyph-name="uni0401" unicode="&#x401;" horiz-adv-x="442" 
d="M422 501h-226v-92h206v-153h-206v-102h226v-154h-392v655h392v-154zM109 878q85 0 85 -75v-22q0 -36 -22 -55.5t-63 -19.5q-39 0 -61.5 20t-22.5 55v22q0 36 22 55.5t62 19.5zM331 878q85 0 85 -75v-22q0 -36 -22 -55.5t-63 -19.5q-39 0 -61.5 20t-22.5 55v22
q0 36 22 55.5t62 19.5z" />
    <glyph glyph-name="uni0402" unicode="&#x402;" horiz-adv-x="659" 
d="M507 501h-165v-58q44 4 68 4q229 0 229 -228v-16q0 -215 -184 -215q-44 0 -81 8v146q24 -4 55 -4q23 0 33.5 11.5t10.5 40.5v38q0 70 -66 70q-35 0 -65 -3v-295h-166v501h-166v154h497v-154z" />
    <glyph glyph-name="uni0403" unicode="&#x403;" horiz-adv-x="428" 
d="M418 501h-222v-501h-166v655h388v-154zM249 706h-124l87 159h160z" />
    <glyph glyph-name="uni0404" unicode="&#x404;" horiz-adv-x="442" 
d="M256 667q53 0 166 -19l-2 -149q-94 16 -134 16q-58 0 -76.5 -18t-18.5 -73v-16h181v-153h-181v-22q0 -55 19 -73t76 -18q40 0 134 20l2 -154q-109 -20 -166 -20q-125 0 -178 53t-53 166v241q0 114 53 166.5t178 52.5z" />
    <glyph glyph-name="uni0405" unicode="&#x405;" horiz-adv-x="457" 
d="M234 667q66 0 166 -17l-2 -154q-104 19 -159 19t-55 -40v-13q0 -15 8 -24.5t31 -17.5l81 -26q75 -24 106.5 -67t31.5 -123v-19q0 -99 -57 -148t-182 -49q-53 0 -166 23l1 156q112 -25 159 -25q79 0 79 44v16q0 31 -29 41l-89 30q-79 26 -109.5 66.5t-30.5 121.5v10
q0 196 216 196z" />
    <glyph glyph-name="uni0406" unicode="&#x406;" horiz-adv-x="226" 
d="M196 0h-166v655h166v-655z" />
    <glyph glyph-name="uni0407" unicode="&#x407;" horiz-adv-x="226" 
d="M196 0h-166v655h166v-655zM1 878q85 0 85 -75v-22q0 -36 -22 -55.5t-63 -19.5q-39 0 -61.5 20t-22.5 55v22q0 36 22 55.5t62 19.5zM223 878q85 0 85 -75v-22q0 -36 -22 -55.5t-63 -19.5q-39 0 -61.5 20t-22.5 55v22q0 36 22 55.5t62 19.5z" />
    <glyph glyph-name="uni0408" unicode="&#x408;" horiz-adv-x="315" 
d="M285 655v-452q0 -215 -184 -215q-62 0 -101 13v144q39 -7 75 -7q24 0 34 13t10 46v458h166z" />
    <glyph glyph-name="uni0409" unicode="&#x409;" horiz-adv-x="810" 
d="M309 667q94 0 207 -11v-238q40 5 60 5q105 0 164.5 -52.5t59.5 -152.5v-23q0 -99 -62 -153t-184 -54q-66 0 -204 10v519q-24 2 -39 2q-65 0 -66 -72l-3 -231q-3 -228 -168 -228q-38 0 -79 12v141q31 -3 44 -3q20 0 28 12t9 45l3 245q3 227 230 227zM554 273q-18 0 -38 -2
v-133q11 -1 34 -1q84 0 84 61v19q0 56 -80 56z" />
    <glyph glyph-name="uni040A" unicode="&#x40a;" horiz-adv-x="790" 
d="M496 655v-237q40 5 60 5q105 0 164.5 -52.5t59.5 -152.5v-23q0 -99 -62 -153t-184 -54q-66 0 -204 10v261h-134v-259h-166v655h166v-243h134v243h166zM534 273q-18 0 -38 -2v-133q11 -1 34 -1q84 0 84 61v19q0 56 -80 56z" />
    <glyph glyph-name="uni040B" unicode="&#x40b;" horiz-adv-x="659" 
d="M508 501h-166v-48q44 4 68 4q229 0 229 -228v-229h-167v238q0 70 -65 70q-35 0 -65 -3v-305h-166v501h-166v154h498v-154z" />
    <glyph glyph-name="uni040C" unicode="&#x40c;" horiz-adv-x="566" 
d="M357 353l224 -353h-195l-162 267h-28v-267h-166v655h166v-255h26l156 255h175zM318 706h-124l87 159h160z" />
    <glyph glyph-name="uni040E" unicode="&#x40e;" horiz-adv-x="527" 
d="M248 0h-175l106 238l-184 417h187l80 -260l96 260h179zM417 895v-126q-7 -7 -19 -18t-52 -29.5t-82 -18.5q-41 0 -79.5 16.5t-56.5 32.5l-17 17v126q7 -8 20.5 -20.5t53.5 -33.5t79 -21t77 19t57 37z" />
    <glyph glyph-name="uni040F" unicode="&#x40f;" horiz-adv-x="526" 
d="M496 0h-158v-130h-151v130h-157v655h166v-502h134v502h166v-655z" />
    <glyph glyph-name="uni0410" unicode="&#x410;" horiz-adv-x="542" 
d="M552 0h-177l-24 118h-165l-24 -118h-172l185 655h192zM213 254h111l-55 271z" />
    <glyph glyph-name="uni0411" unicode="&#x411;" horiz-adv-x="490" 
d="M418 501h-222v-83q40 5 60 5q105 0 164.5 -52.5t59.5 -152.5v-23q0 -99 -62 -153t-184 -54q-66 0 -204 10v657h388v-154zM234 273q-18 0 -38 -2v-133q11 -1 34 -1q84 0 84 61v19q0 56 -80 56z" />
    <glyph glyph-name="uni0412" unicode="&#x412;" horiz-adv-x="492" 
d="M226 666q113 0 174.5 -47t61.5 -118v-13q0 -50 -27.5 -87.5t-80.5 -55.5q61 -11 96 -51.5t35 -98.5v-16q0 -89 -61.5 -140t-193.5 -51q-116 0 -200 4v668q165 6 196 6zM225 522q-16 0 -29 -1v-119h39q30 0 45.5 15.5t15.5 41.5v13q0 50 -71 50zM196 261v-125q15 -1 39 -1
q84 0 84 57v14q0 55 -79 55h-44z" />
    <glyph glyph-name="uni0413" unicode="&#x413;" horiz-adv-x="428" 
d="M418 501h-222v-501h-166v655h388v-154z" />
    <glyph glyph-name="uni0414" unicode="&#x414;" horiz-adv-x="573" 
d="M306 667q118 0 210 -10v-504h62v-283h-151v130h-281v-130h-151v283h63v283q0 120 59.5 175.5t188.5 55.5zM301 520q-77 0 -77 -72v-295h125v365q-30 2 -48 2z" />
    <glyph glyph-name="uni0415" unicode="&#x415;" horiz-adv-x="442" 
d="M422 501h-226v-92h206v-153h-206v-102h226v-154h-392v655h392v-154z" />
    <glyph glyph-name="uni0416" unicode="&#x416;" horiz-adv-x="804" 
d="M651 342l158 -342h-183l-111 267h-30v-267h-166v266l-30 1l-111 -267h-183l159 341l-152 314h174l114 -255h29v255h166v-255h29l115 255h173z" />
    <glyph glyph-name="uni0417" unicode="&#x417;" horiz-adv-x="439" 
d="M179 667q236 0 236 -168v-15q0 -94 -104 -139q120 -37 120 -152v-19q0 -186 -255 -186q-70 0 -166 17l2 148q95 -18 164 -18q49 0 69 13t20 39v20q0 55 -80 55h-115v148h115q64 0 64 51v14q0 45 -76 45q-73 0 -161 -15l-2 146q98 16 169 16z" />
    <glyph glyph-name="uni0418" unicode="&#x418;" horiz-adv-x="526" 
d="M496 0h-166v338l-151 -338h-149v655h166v-341l151 341h149v-655z" />
    <glyph glyph-name="uni0419" unicode="&#x419;" horiz-adv-x="526" 
d="M496 0h-166v338l-151 -338h-149v655h166v-341l151 341h149v-655zM416 895v-126q-7 -7 -19 -18t-52 -29.5t-82 -18.5q-41 0 -79.5 16.5t-55.5 32.5l-18 17v126q7 -8 20.5 -20.5t53.5 -33.5t79 -21t77 19t57 37z" />
    <glyph glyph-name="uni041A" unicode="&#x41a;" horiz-adv-x="566" 
d="M357 353l224 -353h-195l-162 267h-28v-267h-166v655h166v-255h26l156 255h175z" />
    <glyph glyph-name="uni041B" unicode="&#x41b;" horiz-adv-x="546" 
d="M309 667q94 0 207 -11v-656h-166v517q-24 2 -39 2q-65 0 -66 -72l-3 -231q-3 -228 -168 -228q-38 0 -79 12v141q31 -3 44 -3q20 0 28 12t9 45l3 245q3 227 230 227z" />
    <glyph glyph-name="uni041C" unicode="&#x41c;" horiz-adv-x="654" 
d="M465 345l-57 -267h-163l-57 267l-6 -345h-155l6 655h194l102 -404l101 404h190l7 -655h-155z" />
    <glyph glyph-name="uni041D" unicode="&#x41d;" horiz-adv-x="526" 
d="M496 0h-166v259h-134v-259h-166v655h166v-243h134v243h166v-655z" />
    <glyph glyph-name="uni041E" unicode="&#x41e;" horiz-adv-x="521" 
d="M260 667q236 0 236 -230v-219q0 -230 -236 -230q-235 0 -235 230v219q0 230 235 230zM260 515q-69 0 -69 -69v-235q0 -71 69 -71q70 0 70 71v234q0 70 -70 70z" />
    <glyph glyph-name="uni041F" unicode="&#x41f;" horiz-adv-x="526" 
d="M496 0h-166v501h-134v-501h-166v655h466v-655z" />
    <glyph glyph-name="uni0420" unicode="&#x420;" horiz-adv-x="484" 
d="M225 666q124 0 186.5 -53.5t62.5 -147.5v-20q0 -100 -59.5 -156.5t-170.5 -56.5q-19 0 -48 4v-236h-166v660q147 6 195 6zM227 520q-20 0 -31 -1v-135q24 -2 34 -2q78 0 78 67v13q0 58 -81 58z" />
    <glyph glyph-name="uni0421" unicode="&#x421;" horiz-adv-x="439" 
d="M256 667q53 0 166 -19l-2 -149q-94 16 -134 16q-58 0 -76.5 -18t-18.5 -73v-191q0 -55 19 -73t76 -18q40 0 134 20l2 -154q-109 -20 -166 -20q-125 0 -178 53t-53 166v241q0 114 53 166.5t178 52.5z" />
    <glyph glyph-name="uni0422" unicode="&#x422;" horiz-adv-x="518" 
d="M508 501h-166v-501h-166v501h-166v154h498v-154z" />
    <glyph glyph-name="uni0423" unicode="&#x423;" horiz-adv-x="527" 
d="M248 0h-175l106 238l-184 417h187l80 -260l96 260h179z" />
    <glyph glyph-name="uni0424" unicode="&#x424;" horiz-adv-x="704" 
d="M436 648h12q124 0 177.5 -53t53.5 -166v-204q0 -114 -53.5 -167t-177.5 -53h-12v-47h-166v47h-13q-125 0 -178.5 53t-53.5 167v204q0 113 54 166t178 53h13v47h166v-47zM270 499h-13q-35 0 -50 -14t-15 -47v-223q0 -33 15 -47.5t50 -14.5h13v346zM448 499h-12v-346h12
q35 0 50 14.5t15 47.5v223q0 33 -15 47t-50 14z" />
    <glyph glyph-name="uni0425" unicode="&#x425;" horiz-adv-x="548" 
d="M366 334l192 -334h-194l-91 200l-93 -200h-190l192 334l-183 321h192l84 -187l85 187h190z" />
    <glyph glyph-name="uni0426" unicode="&#x426;" horiz-adv-x="545" 
d="M488 153h62v-283h-151v130h-369v655h166v-502h126v502h166v-502z" />
    <glyph glyph-name="uni0427" unicode="&#x427;" horiz-adv-x="502" 
d="M472 0h-166v201q-32 -4 -63 -4q-225 0 -225 221v237h166v-239q0 -37 16.5 -54t53.5 -17q24 0 52 3v307h166v-655z" />
    <glyph glyph-name="uni0428" unicode="&#x428;" horiz-adv-x="700" 
d="M670 0h-640v655h165v-502h72v502h166v-502h72v502h165v-655z" />
    <glyph glyph-name="uni0429" unicode="&#x429;" horiz-adv-x="727" 
d="M670 153h62v-283h-150v130h-552v655h165v-502h72v502h166v-502h72v502h165v-502z" />
    <glyph glyph-name="uni042A" unicode="&#x42a;" horiz-adv-x="650" 
d="M356 655v-237q40 5 60 5q105 0 164.5 -52.5t59.5 -152.5v-23q0 -99 -62 -153t-184 -54q-66 0 -204 10v503h-180v154h346zM394 273q-18 0 -38 -2v-133q11 -1 34 -1q84 0 84 61v19q0 56 -80 56z" />
    <glyph glyph-name="uni042B" unicode="&#x42b;" horiz-adv-x="709" 
d="M196 655v-237q40 5 60 5q105 0 164.5 -52.5t59.5 -152.5v-23q0 -99 -62 -153t-184 -54q-66 0 -204 10v657h166zM679 0h-166v655h166v-655zM234 273q-18 0 -38 -2v-133q11 -1 34 -1q84 0 84 61v19q0 56 -80 56z" />
    <glyph glyph-name="uni042C" unicode="&#x42c;" horiz-adv-x="490" 
d="M196 655v-237q40 5 60 5q105 0 164.5 -52.5t59.5 -152.5v-23q0 -99 -62 -153t-184 -54q-66 0 -204 10v657h166zM234 273q-18 0 -38 -2v-133q11 -1 34 -1q84 0 84 61v19q0 56 -80 56z" />
    <glyph glyph-name="uni042D" unicode="&#x42d;" horiz-adv-x="440" 
d="M184 667q122 0 176.5 -51.5t54.5 -167.5v-241q0 -113 -53.5 -166t-177.5 -53q-57 0 -166 20l2 154q94 -20 134 -20q57 0 76 18.5t19 72.5v22h-205v153h205v16q0 55 -18.5 73t-76.5 18q-40 0 -134 -16l-2 149q113 19 166 19z" />
    <glyph glyph-name="uni042E" unicode="&#x42e;" horiz-adv-x="717" 
d="M470 667q222 0 222 -227v-224q0 -112 -56 -170t-166 -58q-221 0 -221 228v43h-54v-259h-165v655h165v-243h54v28q0 112 55.5 169.5t165.5 57.5zM470 519q-55 0 -55 -65v-252q0 -65 55 -65q56 0 56 65v251q0 66 -56 66z" />
    <glyph glyph-name="uni042F" unicode="&#x42f;" horiz-adv-x="503" 
d="M263 667q100 0 210 -8v-659h-166v240q-20 -1 -43 -1l-102 -239h-177l129 270q-91 51 -91 176v15q0 206 240 206zM263 519q-74 0 -74 -56v-16q0 -59 74 -59q29 0 44 1v129q-13 1 -44 1z" />
    <glyph glyph-name="uni0430" unicode="&#x430;" horiz-adv-x="455" 
d="M465 0h-160l-17 85h-125l-17 -85h-156l151 511h173zM186 203h78l-38 196z" />
    <glyph glyph-name="uni0431" unicode="&#x431;" horiz-adv-x="420" 
d="M359 376h-179v-41q32 2 39 2q191 0 191 -161v-23q0 -78 -52 -121.5t-155 -43.5q-85 0 -173 8v515h329v-135zM204 209q-15 0 -24 -1v-91q9 -1 20 -1q59 0 59 39v12q0 42 -55 42z" />
    <glyph glyph-name="uni0432" unicode="&#x432;" horiz-adv-x="419" 
d="M199 521q93 0 144.5 -35.5t51.5 -89.5v-14q0 -90 -86 -112q50 -10 77 -41t27 -79v-11q0 -151 -214 -151q-84 0 -169 5v524q94 4 169 4zM200 396q-11 0 -20 -1v-78h24q41 0 41 34v13q0 32 -45 32zM180 200v-83q12 -2 24 -2q59 0 59 38v10q0 37 -52 37h-31z" />
    <glyph glyph-name="uni0433" unicode="&#x433;" horiz-adv-x="369" 
d="M359 376h-179v-376h-150v511h329v-135z" />
    <glyph glyph-name="uni0434" unicode="&#x434;" horiz-adv-x="482" 
d="M256 523q81 0 178 -10v-379h52v-264h-136v130h-219v-130h-136v264h53v201q0 97 49.5 142.5t158.5 45.5zM253 393q-54 0 -54 -49v-210h84v258q-11 1 -30 1z" />
    <glyph glyph-name="uni0435" unicode="&#x435;" horiz-adv-x="383" 
d="M363 376h-183v-54h166v-131h-166v-56h183v-135h-333v511h333v-135z" />
    <glyph glyph-name="uni0436" unicode="&#x436;" horiz-adv-x="666" 
d="M543 268l128 -268h-153l-96 208h-20v-208h-138v208h-21l-96 -208h-152l130 266l-124 245h144l100 -199h19v199h138v-199h18l101 199h144z" />
    <glyph glyph-name="uni0437" unicode="&#x437;" horiz-adv-x="372" 
d="M155 523q198 0 198 -131v-12q0 -77 -87 -111q49 -13 74.5 -45.5t25.5 -76.5v-12q0 -147 -214 -147q-56 0 -142 14l2 130q77 -15 140 -15q64 0 64 33v9q0 37 -57 37h-101v129h101q44 0 44 32v8q0 29 -56 29q-63 0 -135 -12l-2 129q74 12 145 12z" />
    <glyph glyph-name="uni0438" unicode="&#x438;" horiz-adv-x="452" 
d="M422 0h-150v231l-108 -231h-134v511h150v-236l109 236h133v-511z" />
    <glyph glyph-name="uni0439" unicode="&#x439;" horiz-adv-x="452" 
d="M422 0h-150v231l-108 -231h-134v511h150v-236l109 236h133v-511zM358 729v-121q-6 -6 -17.5 -14.5t-46 -22.5t-68.5 -14t-67 12.5t-49 25.5l-17 13v121q8 -7 21.5 -16.5t48.5 -26t63 -16.5t61 15t52 29z" />
    <glyph glyph-name="uni043A" unicode="&#x43a;" horiz-adv-x="488" 
d="M323 275l180 -275h-175l-130 203h-18v-203h-150v511h150v-193h17l123 193h159z" />
    <glyph glyph-name="uni043B" unicode="&#x43b;" horiz-adv-x="462" 
d="M257 523q59 0 175 -11v-512h-151v391q-12 2 -24 2q-20 0 -32 -12.5t-13 -34.5l-4 -178q-4 -180 -140 -180q-39 0 -73 10v124q19 -2 36 -2q15 0 21 8t7 30l4 182q4 183 194 183z" />
    <glyph glyph-name="uni043C" unicode="&#x43c;" horiz-adv-x="562" 
d="M535 0h-146l-5 256l-41 -193h-126l-42 192l-5 -255h-143l3 511h172l79 -308l79 308h171z" />
    <glyph glyph-name="uni043D" unicode="&#x43d;" horiz-adv-x="452" 
d="M422 0h-150v194h-92v-194h-150v511h150v-183h92v183h150v-511z" />
    <glyph glyph-name="uni043E" unicode="&#x43e;" horiz-adv-x="446" 
d="M223 523q198 0 198 -189v-157q0 -189 -198 -189t-198 189v157q0 189 198 189zM223 390q-48 0 -48 -47v-173q0 -23 12.5 -36t35.5 -13t35.5 13t12.5 36v171q0 23 -12.5 36t-35.5 13z" />
    <glyph glyph-name="uni043F" unicode="&#x43f;" horiz-adv-x="452" 
d="M422 0h-150v376h-92v-376h-150v511h392v-511z" />
    <glyph glyph-name="uni0440" unicode="&#x440;" horiz-adv-x="415" 
d="M195 521q104 0 157 -42.5t53 -119.5v-18q0 -81 -47 -125t-131 -44q-26 0 -47 4v-176h-150v516q100 5 165 5zM200 393q-12 0 -20 -1v-91q5 -1 21 -1q53 0 53 44v10q0 39 -54 39z" />
    <glyph glyph-name="uni0441" unicode="&#x441;" horiz-adv-x="379" 
d="M220 523q42 0 142 -16l-2 -130q-76 13 -112 13q-45 0 -59 -14t-14 -56v-128q0 -41 15 -55t59 -14q38 0 111 16l2 -135q-94 -16 -142 -16q-104 0 -149.5 44t-45.5 136v175q0 94 46.5 137t148.5 43z" />
    <glyph glyph-name="uni0442" unicode="&#x442;" horiz-adv-x="437" 
d="M427 376h-133v-376h-150v376h-134v135h417v-135z" />
    <glyph glyph-name="uni0443" unicode="&#x443;" horiz-adv-x="447" 
d="M217 0h-159l89 186l-152 325h169l57 -189l74 189h162z" />
    <glyph glyph-name="uni0444" unicode="&#x444;" horiz-adv-x="598" 
d="M374 507h5q111 0 152.5 -46.5t41.5 -161.5v-91q0 -115 -41.5 -161.5t-152.5 -46.5h-5v-35h-150v35h-5q-111 0 -152.5 46.5t-41.5 161.5v91q0 115 41.5 161.5t152.5 46.5h5v35h150v-35zM229 376h-8q-45 0 -45 -33v-179q0 -33 45 -33h8v245zM377 376h-8v-245h8q45 0 45 33
v179q0 33 -45 33z" />
    <glyph glyph-name="uni0445" unicode="&#x445;" horiz-adv-x="458" 
d="M311 260l157 -260h-174l-64 143l-66 -143h-174l157 260l-150 251h174l58 -134l59 134h173z" />
    <glyph glyph-name="uni0446" unicode="&#x446;" horiz-adv-x="462" 
d="M414 134h52v-264h-135v130h-301v511h150v-377h84v377h150v-377z" />
    <glyph glyph-name="uni0447" unicode="&#x447;" horiz-adv-x="429" 
d="M399 0h-150v151q-25 -3 -46 -3q-185 0 -185 184v179h150v-185q0 -48 44 -48q21 0 37 2v231h150v-511z" />
    <glyph glyph-name="uni0448" unicode="&#x448;" horiz-adv-x="597" 
d="M567 0h-537v511h149v-377h44v377h150v-377h44v377h150v-511z" />
    <glyph glyph-name="uni0449" unicode="&#x449;" horiz-adv-x="615" 
d="M567 134h52v-264h-135v130h-454v511h149v-377h44v377h150v-377h44v377h150v-377z" />
    <glyph glyph-name="uni044A" unicode="&#x44a;" horiz-adv-x="551" 
d="M311 511v-176q32 2 39 2q191 0 191 -161v-23q0 -78 -52 -121.5t-155 -43.5q-85 0 -173 8v377h-151v138h301zM335 209q-15 0 -24 -1v-91q9 -1 20 -1q59 0 59 39v12q0 42 -55 42z" />
    <glyph glyph-name="uni044B" unicode="&#x44b;" horiz-adv-x="612" 
d="M180 511v-176q32 2 39 2q191 0 191 -161v-23q0 -78 -52 -121.5t-155 -43.5q-85 0 -173 8v515h150zM582 0h-151v511h151v-511zM204 209q-15 0 -24 -1v-91q9 -1 20 -1q59 0 59 39v12q0 42 -55 42z" />
    <glyph glyph-name="uni044C" unicode="&#x44c;" horiz-adv-x="420" 
d="M180 511v-176q32 2 39 2q191 0 191 -161v-23q0 -78 -52 -121.5t-155 -43.5q-85 0 -173 8v515h150zM204 209q-15 0 -24 -1v-91q9 -1 20 -1q59 0 59 39v12q0 42 -55 42z" />
    <glyph glyph-name="uni044D" unicode="&#x44d;" horiz-adv-x="380" 
d="M160 523q103 0 149 -43.5t46 -136.5v-175q0 -93 -46 -136.5t-149 -43.5q-50 0 -142 16l2 136q73 -16 111 -16q42 0 57.5 13t15.5 49v5h-165v131h165v5q0 36 -15.5 49t-57.5 13q-41 0 -111 -12l-2 131q94 15 142 15z" />
    <glyph glyph-name="uni044E" unicode="&#x44e;" horiz-adv-x="610" 
d="M398 523q91 0 139 -47t48 -138v-164q0 -91 -48 -138.5t-139 -47.5t-138.5 47.5t-47.5 138.5v20h-33v-194h-149v511h149v-182h33v9q0 91 47.5 138t138.5 47zM398 393q-36 0 -36 -41v-192q0 -41 36 -41q37 0 37 41v191q0 42 -37 42z" />
    <glyph glyph-name="uni044F" unicode="&#x44f;" horiz-adv-x="444" 
d="M230 521q54 0 184 -6v-515h-148v184q-7 -1 -21 -1h-10l-87 -183h-163l111 211q-75 41 -75 134v15q0 161 209 161zM230 406q-30 0 -46 -12.5t-16 -32.5v-12q0 -49 62 -49q20 0 36 1v104q-13 1 -36 1z" />
    <glyph glyph-name="uni0451" unicode="&#x451;" horiz-adv-x="383" 
d="M363 376h-183v-54h166v-131h-166v-56h183v-135h-333v511h333v-135zM80 739q85 0 85 -75v-22q0 -36 -22 -55.5t-63 -19.5q-39 0 -61.5 20t-22.5 55v22q0 36 22 55.5t62 19.5zM302 739q85 0 85 -75v-22q0 -36 -22 -55.5t-63 -19.5q-39 0 -61.5 20t-22.5 55v22q0 36 22 55.5
t62 19.5z" />
    <glyph glyph-name="uni0452" unicode="&#x452;" horiz-adv-x="554" 
d="M427 376h-133v-57q30 2 47 2q93 0 142.5 -43.5t50.5 -126.5v-4q0 -76 -39 -117.5t-112 -41.5q-25 0 -56 7v127q11 -2 24 -2q32 0 32 30v2q0 39 -41 39q-20 0 -48 -2v-189h-150v376h-134v135h417v-135z" />
    <glyph glyph-name="uni0453" unicode="&#x453;" horiz-adv-x="369" 
d="M359 376h-179v-376h-150v511h329v-135zM224 550h-117l80 145h155z" />
    <glyph glyph-name="uni0454" unicode="&#x454;" horiz-adv-x="382" 
d="M220 523q42 0 142 -16l-2 -130q-76 13 -112 13q-44 0 -58.5 -13t-14.5 -52v-3h142v-131h-142v-2q0 -39 15 -52.5t59 -13.5q38 0 111 16l2 -135q-94 -16 -142 -16q-104 0 -149.5 44t-45.5 136v175q0 94 46.5 137t148.5 43z" />
    <glyph glyph-name="uni0455" unicode="&#x455;" horiz-adv-x="384" 
d="M198 523q60 0 141 -13l-1 -136q-84 16 -134 16q-39 0 -39 -23v-7q0 -18 26 -26l66 -21q65 -20 91 -53.5t26 -96.5v-18q0 -157 -187 -157q-56 0 -156 18l1 137q90 -20 135 -20q56 0 56 26v9q0 19 -23 27l-66 21q-66 21 -92.5 54.5t-26.5 95.5v10q0 157 183 157z" />
    <glyph glyph-name="uni0456" unicode="&#x456;" horiz-adv-x="210" 
d="M180 0h-150v511h150v-511z" />
    <glyph glyph-name="uni0457" unicode="&#x457;" horiz-adv-x="210" 
d="M180 0h-150v511h150v-511zM-7 739q85 0 85 -75v-22q0 -36 -22 -55.5t-63 -19.5q-39 0 -61.5 20t-22.5 55v22q0 36 22 55.5t62 19.5zM215 739q85 0 85 -75v-22q0 -36 -22 -55.5t-63 -19.5q-39 0 -61.5 20t-22.5 55v22q0 36 22 55.5t62 19.5z" />
    <glyph glyph-name="uni0458" unicode="&#x458;" horiz-adv-x="277" 
d="M247 511v-343q0 -180 -155 -180q-57 0 -92 11v127q31 -6 60 -6q21 0 29 10t8 37v344h150z" />
    <glyph glyph-name="uni0459" unicode="&#x459;" horiz-adv-x="671" 
d="M257 523q59 0 175 -11v-177q20 2 38 2q191 0 191 -161v-23q0 -78 -52 -121.5t-155 -43.5q-85 0 -173 8v395q-12 2 -24 2q-20 0 -32 -12.5t-13 -34.5l-4 -178q-4 -180 -140 -180q-39 0 -73 10v124q19 -2 36 -2q15 0 21 8t7 30l4 182q4 183 194 183zM455 209q-15 0 -23 -1
v-91q8 -1 19 -1q59 0 59 39v12q0 42 -55 42z" />
    <glyph glyph-name="uni045A" unicode="&#x45a;" horiz-adv-x="662" 
d="M422 511v-176q32 2 39 2q191 0 191 -161v-23q0 -78 -52 -121.5t-155 -43.5q-85 0 -173 8v198h-92v-194h-150v511h150v-183h92v183h150zM446 209q-15 0 -24 -1v-91q9 -1 20 -1q59 0 59 39v12q0 42 -55 42z" />
    <glyph glyph-name="uni045B" unicode="&#x45b;" horiz-adv-x="554" 
d="M427 376h-133v-57q27 3 54 3q89 0 137.5 -46t48.5 -135v-141h-149v148q0 43 -46 43q-24 0 -45 -3v-188h-150v376h-134v135h417v-135z" />
    <glyph glyph-name="uni045C" unicode="&#x45c;" horiz-adv-x="488" 
d="M323 275l180 -275h-175l-130 203h-18v-203h-150v511h150v-193h17l123 193h159zM283 550h-117l80 145h155z" />
    <glyph glyph-name="uni045E" unicode="&#x45e;" horiz-adv-x="447" 
d="M217 0h-159l89 186l-152 325h169l57 -189l74 189h162zM356 729v-121q-6 -6 -17.5 -14.5t-46 -22.5t-68.5 -14t-67 12.5t-49 25.5l-17 13v121q8 -7 21.5 -16.5t48.5 -26t63 -16.5t61 15t52 29z" />
    <glyph glyph-name="uni045F" unicode="&#x45f;" horiz-adv-x="444" 
d="M414 0h-124v-130h-136v130h-124v511h150v-377h84v377h150v-511z" />
    <glyph glyph-name="uni0462" unicode="&#x462;" horiz-adv-x="636" 
d="M508 501h-166v-83q40 5 60 5q105 0 164.5 -52.5t59.5 -152.5v-23q0 -99 -62 -153t-184 -54q-66 0 -204 10v503h-166v154h498v-154zM380 273q-18 0 -38 -2v-133q11 -1 34 -1q84 0 84 61v19q0 56 -80 56z" />
    <glyph glyph-name="uni0463" unicode="&#x463;" horiz-adv-x="534" 
d="M427 376h-133v-41q32 2 39 2q191 0 191 -161v-23q0 -78 -52 -121.5t-155 -43.5q-85 0 -173 8v380h-134v135h417v-135zM318 209q-15 0 -24 -1v-91q9 -1 20 -1q59 0 59 39v12q0 42 -55 42z" />
    <glyph glyph-name="uni0472" unicode="&#x472;" horiz-adv-x="521" 
d="M260 667q236 0 236 -230v-219q0 -230 -236 -230q-235 0 -235 230v219q0 230 235 230zM260 515q-69 0 -69 -69v-46h139v45q0 70 -70 70zM191 267v-56q0 -71 69 -71q70 0 70 71v56h-139z" />
    <glyph glyph-name="uni0473" unicode="&#x473;" horiz-adv-x="446" 
d="M223 523q198 0 198 -189v-157q0 -189 -198 -189t-198 189v157q0 189 198 189zM223 390q-48 0 -48 -47v-25h96v23q0 23 -12.5 36t-35.5 13zM175 203v-33q0 -23 12.5 -36t35.5 -13t35.5 13t12.5 36v33h-96z" />
    <glyph glyph-name="uni0474" unicode="&#x474;" horiz-adv-x="605" 
d="M509 667q45 0 96 -12v-135q-48 4 -60 4q-19 0 -27.5 -7.5t-15.5 -31.5l-130 -485h-187l-185 655h175l103 -517l62 329q22 116 59 158t110 42z" />
    <glyph glyph-name="uni0475" unicode="&#x475;" horiz-adv-x="507" 
d="M422 523q41 0 85 -10v-126q-34 6 -51 6q-27 0 -36 -29l-101 -364h-167l-152 511h158l77 -392l43 239q16 93 48.5 129t95.5 36z" />
    <glyph glyph-name="uni0490" unicode="&#x490;" horiz-adv-x="428" 
d="M418 501h-222v-501h-166v655h237v130h151v-284z" />
    <glyph glyph-name="uni0491" unicode="&#x491;" horiz-adv-x="369" 
d="M359 376h-179v-376h-150v511h194v129h135v-264z" />
    <glyph glyph-name="uni0492" unicode="&#x492;" horiz-adv-x="458" 
d="M448 501h-222v-93h109v-133h-109v-275h-166v275h-65v133h65v247h388v-154z" />
    <glyph glyph-name="uni0493" unicode="&#x493;" horiz-adv-x="384" 
d="M374 376h-179v-60h81v-115h-81v-201h-150v201h-50v115h50v195h329v-135z" />
    <glyph glyph-name="uni0496" unicode="&#x496;" horiz-adv-x="819" 
d="M651 342l83 -189h90v-283h-151v130h-47l-111 267h-30v-267h-166v266l-30 1l-111 -267h-183l159 341l-152 314h174l114 -255h29v255h166v-255h29l115 255h173z" />
    <glyph glyph-name="uni0497" unicode="&#x497;" horiz-adv-x="662" 
d="M543 268l64 -134h60v-264h-135v130h-14l-96 208h-20v-208h-138v208h-21l-96 -208h-152l130 266l-124 245h144l100 -199h19v199h138v-199h18l101 199h144z" />
    <glyph glyph-name="uni0498" unicode="&#x498;" horiz-adv-x="439" 
d="M179 667q236 0 236 -168v-15q0 -94 -104 -139q120 -37 120 -152v-19q0 -153 -173 -180l-7 -20h10q27 0 45.5 -18t18.5 -43v-19q0 -91 -139 -91q-33 0 -69 6v87q21 -3 36 -3q41 0 41 20v4q0 20 -34 20h-26v17l12 35q-55 3 -136 16l2 148q95 -18 164 -18q49 0 69 13t20 39
v20q0 55 -80 55h-115v148h115q64 0 64 51v14q0 45 -76 45q-73 0 -161 -15l-2 146q98 16 169 16z" />
    <glyph glyph-name="uni0499" unicode="&#x499;" horiz-adv-x="372" 
d="M155 523q198 0 198 -131v-12q0 -77 -87 -111q49 -13 74.5 -45.5t25.5 -76.5v-12q0 -123 -148 -142l-6 -19h10q27 0 45.5 -18t18.5 -43v-19q0 -91 -139 -91q-33 0 -69 6v87q21 -3 36 -3q41 0 41 20v4q0 20 -34 20h-26v17l13 36q-31 1 -98 12l2 130q77 -15 140 -15
q64 0 64 33v9q0 37 -57 37h-101v129h101q44 0 44 32v8q0 29 -56 29q-63 0 -135 -12l-2 129q74 12 145 12z" />
    <glyph glyph-name="uni049A" unicode="&#x49a;" horiz-adv-x="575" 
d="M357 353l127 -200h96v-283h-151v130h-43l-162 267h-28v-267h-166v655h166v-255h26l156 255h175z" />
    <glyph glyph-name="uni049B" unicode="&#x49b;" horiz-adv-x="498" 
d="M323 275l92 -141h88v-264h-135v130h-40l-130 203h-18v-203h-150v511h150v-193h17l123 193h159z" />
    <glyph glyph-name="uni049C" unicode="&#x49c;" horiz-adv-x="620" 
d="M430 341l205 -341h-193l-149 255h-11v-131h-73v131h-13v-255h-166v655h166v-247h13v133h73v-133h6l144 247h183z" />
    <glyph glyph-name="uni049D" unicode="&#x49d;" horiz-adv-x="538" 
d="M371 276l182 -276h-176l-128 203h-9v-138h-40v138h-20v-203h-150v511h150v-193h20v114h40v-114h8l122 193h159z" />
    <glyph glyph-name="uni04A0" unicode="&#x4a0;" horiz-adv-x="726" 
d="M517 353l224 -353h-195l-162 267h-28v-267h-166v501h-180v154h346v-255h26l156 255h175z" />
    <glyph glyph-name="uni04A1" unicode="&#x4a1;" horiz-adv-x="618" 
d="M453 275l180 -275h-175l-130 203h-18v-203h-150v373h-150v138h300v-193h17l123 193h159z" />
    <glyph glyph-name="uni04A2" unicode="&#x4a2;" horiz-adv-x="553" 
d="M496 153h62v-283h-151v130h-77v259h-134v-259h-166v655h166v-243h134v243h166v-502z" />
    <glyph glyph-name="uni04A3" unicode="&#x4a3;" horiz-adv-x="470" 
d="M422 134h52v-264h-135v130h-67v194h-92v-194h-150v511h150v-183h92v183h150v-377z" />
    <glyph glyph-name="uni04AA" unicode="&#x4aa;" horiz-adv-x="439" 
d="M256 667q53 0 166 -19l-2 -149q-94 16 -134 16q-58 0 -76.5 -18t-18.5 -73v-191q0 -55 19 -73t76 -18q40 0 134 20l2 -154q-74 -14 -74 -48v-4q0 -23 30 -23q16 0 43 7v-124q-54 -13 -82 -13q-58 0 -90 25t-32 65v9q0 49 53 86h-14q-125 0 -178 53t-53 166v241
q0 114 53 166.5t178 52.5z" />
    <glyph glyph-name="uni04AB" unicode="&#x4ab;" horiz-adv-x="379" 
d="M220 523q42 0 142 -16l-2 -130q-76 13 -112 13q-45 0 -59 -14t-14 -56v-128q0 -41 15 -55t59 -14q38 0 111 16l2 -135q-12 -2 -33.5 -5t-25.5 -4q-29 -13 -29 -35v-4q0 -23 30 -23q16 0 43 7v-124q-54 -13 -82 -13q-58 0 -90 25t-32 65v9q0 50 54 87q-91 4 -131.5 48
t-40.5 131v175q0 94 46.5 137t148.5 43z" />
    <glyph glyph-name="uni04AE" unicode="&#x4ae;" horiz-adv-x="542" 
d="M354 228v-228h-166v228l-188 427h185l87 -277l88 277h182z" />
    <glyph glyph-name="uni04AF" unicode="&#x4af;" horiz-adv-x="462" 
d="M306 178v-178h-150v178l-156 333h167l65 -204l65 204h165z" />
    <glyph glyph-name="uni04B0" unicode="&#x4b0;" horiz-adv-x="542" 
d="M385 304h56v-153h-87v-151h-166v151h-87v153h55l-156 351h185l87 -277l88 277h182z" />
    <glyph glyph-name="uni04B1" unicode="&#x4b1;" horiz-adv-x="462" 
d="M336 248h40v-106h-70v-142h-150v142h-70v106h40l-126 263h167l65 -204l65 204h165z" />
    <glyph glyph-name="uni04B2" unicode="&#x4b2;" horiz-adv-x="579" 
d="M366 334l104 -181h114v-283h-151v130h-69l-91 200l-93 -200h-190l192 334l-183 321h192l84 -187l85 187h190z" />
    <glyph glyph-name="uni04B3" unicode="&#x4b3;" horiz-adv-x="494" 
d="M311 260l76 -126h112v-264h-135v130h-70l-64 143l-66 -143h-174l157 260l-150 251h174l58 -134l59 134h173z" />
    <glyph glyph-name="uni04B8" unicode="&#x4b8;" horiz-adv-x="502" 
d="M472 0h-166v201l-24 -3v-117h-73v117q-191 17 -191 220v237h166v-239q0 -49 25 -61v143h73v-153l24 3v307h166v-655z" />
    <glyph glyph-name="uni04B9" unicode="&#x4b9;" horiz-adv-x="429" 
d="M399 0h-150v151q-14 -2 -19 -2v-84h-40v83q-172 6 -172 184v179h150v-185q0 -35 22 -45v151h40v-154q7 0 19 2v231h150v-511z" />
    <glyph glyph-name="uni04BA" unicode="&#x4ba;" horiz-adv-x="513" 
d="M196 655v-202q44 4 68 4q229 0 229 -228v-229h-167v238q0 70 -65 70q-35 0 -65 -3v-305h-166v655h166z" />
    <glyph glyph-name="uni04BB" unicode="&#x4bb;" horiz-adv-x="440" 
d="M180 511v-152q27 3 54 3q89 0 137.5 -46t48.5 -135v-181h-151v188q0 43 -44 43q-24 0 -45 -3v-228h-150v511h150z" />
    <glyph glyph-name="uni04C0" unicode="&#x4c0;" horiz-adv-x="226" 
d="M196 0h-166v655h166v-655z" />
    <glyph glyph-name="uni04CB" unicode="&#x4cb;" horiz-adv-x="529" 
d="M472 153h62v-283h-151v130h-77v201q-32 -4 -63 -4q-225 0 -225 221v237h166v-239q0 -37 16.5 -54t53.5 -17q24 0 52 3v307h166v-502z" />
    <glyph glyph-name="uni04CC" unicode="&#x4cc;" horiz-adv-x="446" 
d="M399 134h52v-264h-135v130h-67v151q-25 -3 -46 -3q-185 0 -185 184v179h150v-185q0 -48 44 -48q21 0 37 2v231h150v-377z" />
    <glyph glyph-name="uni04CF" unicode="&#x4cf;" horiz-adv-x="210" 
d="M180 0h-150v511h150v-511z" />
    <glyph glyph-name="uni04D8" unicode="&#x4d8;" horiz-adv-x="513" 
d="M241 667q136 0 191.5 -49t55.5 -170v-230q0 -113 -58.5 -171.5t-172.5 -58.5q-115 0 -173.5 58.5t-58.5 171.5v190h297v44q0 39 -18 53t-68 14q-55 0 -161 -18l-2 149q100 17 168 17zM191 255v-44q0 -71 66 -71q65 0 65 71v44h-131z" />
    <glyph glyph-name="uni04D9" unicode="&#x4d9;" horiz-adv-x="440" 
d="M209 523q115 0 160.5 -40.5t45.5 -139.5v-173q0 -182 -194 -182q-196 0 -196 182v156h240v19q0 27 -13 37.5t-48 10.5q-52 0 -135 -11l-2 130q90 11 142 11zM175 211v-46q0 -44 46 -44q44 0 44 44v46h-90z" />
    <glyph glyph-name="uni04E2" unicode="&#x4e2;" horiz-adv-x="526" 
d="M496 0h-166v338l-151 -338h-149v655h166v-341l151 341h149v-655zM406 706h-287v122h287v-122z" />
    <glyph glyph-name="uni04E3" unicode="&#x4e3;" horiz-adv-x="452" 
d="M422 0h-150v231l-108 -231h-134v511h150v-236l109 236h133v-511zM351 570h-251v117h251v-117z" />
    <glyph glyph-name="uni04E8" unicode="&#x4e8;" horiz-adv-x="521" 
d="M260 667q236 0 236 -230v-219q0 -230 -236 -230q-235 0 -235 230v219q0 230 235 230zM260 515q-69 0 -69 -69v-46h139v45q0 70 -70 70zM191 267v-56q0 -71 69 -71q70 0 70 71v56h-139z" />
    <glyph glyph-name="uni04E9" unicode="&#x4e9;" horiz-adv-x="446" 
d="M223 523q198 0 198 -189v-157q0 -189 -198 -189t-198 189v157q0 189 198 189zM223 390q-48 0 -48 -47v-25h96v23q0 23 -12.5 36t-35.5 13zM175 203v-33q0 -23 12.5 -36t35.5 -13t35.5 13t12.5 36v33h-96z" />
    <glyph glyph-name="uni04EE" unicode="&#x4ee;" horiz-adv-x="527" 
d="M248 0h-175l106 238l-184 417h187l80 -260l96 260h179zM407 706h-287v122h287v-122z" />
    <glyph glyph-name="uni04EF" unicode="&#x4ef;" horiz-adv-x="447" 
d="M217 0h-159l89 186l-152 325h169l57 -189l74 189h162zM349 570h-251v117h251v-117z" />
    <glyph glyph-name="Wgrave" unicode="&#x1e80;" horiz-adv-x="811" 
d="M678 0h-191l-81 484l-80 -484h-193l-130 655h174l58 -492l83 492h174l84 -489l58 489h174zM469 706h-124l-123 159h160z" />
    <glyph glyph-name="wgrave" unicode="&#x1e81;" horiz-adv-x="679" 
d="M571 0h-170l-61 363l-60 -363h-172l-105 511h157l39 -370l63 370h154l64 -367l39 367h157zM410 550h-113l-116 145h149z" />
    <glyph glyph-name="Wacute" unicode="&#x1e82;" horiz-adv-x="811" 
d="M678 0h-191l-81 484l-80 -484h-193l-130 655h174l58 -492l83 492h174l84 -489l58 489h174zM441 706h-124l87 159h160z" />
    <glyph glyph-name="wacute" unicode="&#x1e83;" horiz-adv-x="679" 
d="M571 0h-170l-61 363l-60 -363h-172l-105 511h157l39 -370l63 370h154l64 -367l39 367h157zM379 550h-117l80 145h155z" />
    <glyph glyph-name="Wdieresis" unicode="&#x1e84;" horiz-adv-x="811" 
d="M678 0h-191l-81 484l-80 -484h-193l-130 655h174l58 -492l83 492h174l84 -489l58 489h174zM294 878q85 0 85 -75v-22q0 -36 -22 -55.5t-63 -19.5q-39 0 -61.5 20t-22.5 55v22q0 36 22 55.5t62 19.5zM516 878q85 0 85 -75v-22q0 -36 -22 -55.5t-63 -19.5q-39 0 -61.5 20
t-22.5 55v22q0 36 22 55.5t62 19.5z" />
    <glyph glyph-name="wdieresis" unicode="&#x1e85;" horiz-adv-x="679" 
d="M571 0h-170l-61 363l-60 -363h-172l-105 511h157l39 -370l63 370h154l64 -367l39 367h157zM228 739q85 0 85 -75v-22q0 -36 -22 -55.5t-63 -19.5q-39 0 -61.5 20t-22.5 55v22q0 36 22 55.5t62 19.5zM450 739q85 0 85 -75v-22q0 -36 -22 -55.5t-63 -19.5q-39 0 -61.5 20
t-22.5 55v22q0 36 22 55.5t62 19.5z" />
    <glyph glyph-name="Ygrave" unicode="&#x1ef2;" horiz-adv-x="542" 
d="M354 228v-228h-166v228l-188 427h185l87 -277l88 277h182zM334 706h-124l-123 159h160z" />
    <glyph glyph-name="ygrave" unicode="&#x1ef3;" horiz-adv-x="462" 
d="M306 178v-178h-150v178l-156 333h167l65 -204l65 204h165zM301 550h-113l-116 145h149z" />
    <glyph glyph-name="uni2007" unicode="&#x2007;" horiz-adv-x="510" 
 />
    <glyph glyph-name="uni2008" unicode="&#x2008;" horiz-adv-x="223" 
 />
    <glyph glyph-name="uni200B" unicode="&#x200b;" horiz-adv-x="0" 
 />
    <glyph glyph-name="endash" unicode="&#x2013;" horiz-adv-x="550" 
d="M530 226h-510v138h510v-138z" />
    <glyph glyph-name="emdash" unicode="&#x2014;" horiz-adv-x="650" 
d="M630 226h-610v138h610v-138z" />
    <glyph glyph-name="afii00208" unicode="&#x2015;" horiz-adv-x="550" 
d="M530 226h-510v138h510v-138z" />
    <glyph glyph-name="quoteleft" unicode="&#x2018;" horiz-adv-x="208" 
d="M178 695l-21 -108q36 -15 36 -67v-23q0 -79 -89 -79t-89 79v25q0 33 11 64l37 109h115z" />
    <glyph glyph-name="quoteright" unicode="&#x2019;" horiz-adv-x="208" 
d="M104 695q89 0 89 -79v-25q0 -33 -11 -64l-37 -109h-115l21 108q-36 15 -36 67v23q0 79 89 79z" />
    <glyph glyph-name="quotesinglbase" unicode="&#x201a;" horiz-adv-x="208" 
d="M104 169q89 0 89 -79v-25q0 -33 -11 -64l-37 -109h-115l21 108q-36 15 -36 67v23q0 79 89 79z" />
    <glyph glyph-name="quotedblleft" unicode="&#x201c;" horiz-adv-x="418" 
d="M178 695l-21 -108q36 -15 36 -67v-23q0 -79 -89 -79t-89 79v25q0 33 11 64l37 109h115zM388 695l-21 -108q36 -15 36 -67v-23q0 -79 -89 -79t-89 79v25q0 33 11 64l37 109h115z" />
    <glyph glyph-name="quotedblright" unicode="&#x201d;" horiz-adv-x="418" 
d="M104 695q89 0 89 -79v-25q0 -30 -11 -64l-37 -109h-115l21 108q-36 15 -36 67v23q0 79 89 79zM314 695q89 0 89 -79v-25q0 -33 -11 -64l-37 -109h-115l21 108q-36 15 -36 67v23q0 79 89 79z" />
    <glyph glyph-name="quotedblbase" unicode="&#x201e;" horiz-adv-x="418" 
d="M104 169q89 0 89 -79v-25q0 -33 -11 -64l-37 -109h-115l21 108q-36 15 -36 67v23q0 79 89 79zM314 169q89 0 89 -79v-25q0 -33 -11 -64l-37 -109h-115l21 108q-36 15 -36 67v23q0 79 89 79z" />
    <glyph glyph-name="dagger" unicode="&#x2020;" horiz-adv-x="451" 
d="M305 488h126v-150h-126v-338h-159v338h-126v150h126v167h159v-167z" />
    <glyph glyph-name="daggerdbl" unicode="&#x2021;" horiz-adv-x="451" 
d="M305 488h126v-150h-126v-61h126v-150h-126v-127h-159v127h-126v150h126v61h-126v150h126v167h159v-167z" />
    <glyph glyph-name="bullet" unicode="&#x2022;" horiz-adv-x="223" 
d="M111 360q47 0 72 -22t25 -62v-27q0 -40 -25 -62t-72 -22q-46 0 -71 22t-25 62v27q0 40 25 62t71 22z" />
    <glyph glyph-name="ellipsis" unicode="&#x2026;" horiz-adv-x="653" 
d="M326 171q91 0 91 -80v-24q0 -38 -23.5 -58.5t-67.5 -20.5t-67 20.5t-23 58.5v24q0 80 90 80zM105 171q91 0 91 -80v-24q0 -38 -23.5 -58.5t-67.5 -20.5t-67 20.5t-23 58.5v24q0 80 90 80zM547 171q91 0 91 -80v-24q0 -38 -23.5 -58.5t-67.5 -20.5t-67 20.5t-23 58.5v24
q0 80 90 80z" />
    <glyph glyph-name="perthousand" unicode="&#x2030;" horiz-adv-x="1271" 
d="M196 625q86 0 130.5 -44.5t44.5 -130.5v-25q0 -85 -44 -130t-131 -45q-85 0 -130.5 44t-45.5 131v25q0 86 45.5 130.5t130.5 44.5zM369 0h-179l335 613h180zM196 489q-23 0 -23 -32v-39q0 -32 23 -32t23 32v39q0 32 -23 32zM698 363q86 0 130.5 -44.5t44.5 -130.5v-25
q0 -85 -44 -130t-131 -45q-85 0 -130.5 44t-45.5 131v25q0 86 45.5 130.5t130.5 44.5zM1076 363q86 0 130.5 -44.5t44.5 -130.5v-25q0 -85 -44 -130t-131 -45q-85 0 -130.5 44t-45.5 131v25q0 86 45.5 130.5t130.5 44.5zM698 227q-23 0 -23 -32v-39q0 -32 23 -32t23 32v39
q0 32 -23 32zM1076 227q-23 0 -23 -32v-39q0 -32 23 -32t23 32v39q0 32 -23 32z" />
    <glyph glyph-name="guilsinglleft" unicode="&#x2039;" horiz-adv-x="320" 
d="M199 265l101 -184h-172l-108 184l108 183h172z" />
    <glyph glyph-name="guilsinglright" unicode="&#x203a;" horiz-adv-x="321" 
d="M301 265l-109 -184h-172l102 184l-101 183h171z" />
    <glyph glyph-name="fraction" unicode="&#x2044;" horiz-adv-x="380" 
d="M118 0h-161l305 601h161z" />
    <glyph glyph-name="uni2070" unicode="&#x2070;" horiz-adv-x="400" 
d="M200 760q156 0 156 -146v-143q0 -73 -39.5 -110.5t-116.5 -37.5q-157 0 -157 148v143q0 146 157 146zM200 633q-21 0 -21 -23v-137q0 -23 21 -23t21 23v137q0 23 -21 23z" />
    <glyph glyph-name="uni2074" unicode="&#x2074;" horiz-adv-x="400" 
d="M159 515h58v44l10 58h120v-102h32v-120h-32v-64h-130v64h-165l-32 66l94 291h118z" />
    <glyph glyph-name="uni2075" unicode="&#x2075;" horiz-adv-x="400" 
d="M319 634h-148v-66q28 39 87 39q91 0 91 -123v-10q0 -76 -37.5 -113.5t-120.5 -37.5q-80 0 -135 12v117q68 -10 113 -10q26 0 35 6.5t9 22.5v5q0 25 -24 25q-26 0 -39 -22h-100v273h269v-118z" />
    <glyph glyph-name="uni2076" unicode="&#x2076;" horiz-adv-x="400" 
d="M320 750v-104q-89 -4 -115.5 -18t-26.5 -48v-15q32 32 80 32q95 0 95 -122v-15q0 -137 -154 -137q-74 0 -113.5 36.5t-39.5 103.5v92q0 99 62.5 147t211.5 48zM207 492q-16 0 -28 -14v-25q0 -18 24 -18q17 0 17 16v26q0 15 -13 15z" />
    <glyph glyph-name="uni2077" unicode="&#x2077;" horiz-adv-x="400" 
d="M351 667l-143 -336h-147l133 304h-145v117h302v-85z" />
    <glyph glyph-name="uni2078" unicode="&#x2078;" horiz-adv-x="400" 
d="M201 760q144 0 144 -106v-12q0 -26 -15 -48t-39 -29q30 -9 49 -35t19 -55v-19q0 -64 -40 -98.5t-118 -34.5q-160 0 -160 133v19q0 27 20 54.5t49 35.5q-23 7 -38.5 29.5t-15.5 47.5v12q0 106 145 106zM200 662q-16 0 -16 -12v-32q0 -11 16 -11t16 11v32q0 12 -16 12z
M200 502q-19 0 -19 -16v-35q0 -16 19 -16t19 16v35q0 16 -19 16z" />
    <glyph glyph-name="uni2079" unicode="&#x2079;" horiz-adv-x="400" 
d="M200 760q74 0 113.5 -37t39.5 -107v-130q0 -163 -165 -163q-70 0 -117 8v118q44 -7 95 -7q32 0 43.5 8.5t11.5 27.5v26q-32 -32 -80 -32q-44 0 -69.5 31.5t-25.5 95.5v20q0 69 39.5 105t114.5 36zM197 643q-18 0 -18 -18v-27q0 -16 13 -16q16 0 28 14v29q0 18 -23 18z
" />
    <glyph glyph-name="uni207A" unicode="&#x207a;" horiz-adv-x="400" 
d="M266 589h83v-119h-83v-78h-131v78h-85v119h85v89h131v-89z" />
    <glyph glyph-name="uni207B" unicode="&#x207b;" horiz-adv-x="400" 
d="M349 470h-299v119h299v-119z" />
    <glyph glyph-name="uni207C" unicode="&#x207c;" horiz-adv-x="400" 
d="M349 554h-298v120h298v-120zM349 409h-298v120h298v-120z" />
    <glyph glyph-name="uni207D" unicode="&#x207d;" horiz-adv-x="400" 
d="M303 891v-121q-61 -3 -61 -57v-330q0 -53 61 -56v-121q-107 0 -157 46.5t-50 155.5v280q0 110 48.5 158t158.5 45z" />
    <glyph glyph-name="uni207E" unicode="&#x207e;" horiz-adv-x="400" 
d="M96 770v121q110 3 158.5 -45t48.5 -158v-280q0 -109 -50 -155.5t-157 -46.5v121q61 3 61 56v330q0 54 -61 57z" />
    <glyph glyph-name="uni2080" unicode="&#x2080;" horiz-adv-x="400" 
d="M200 279q156 0 156 -146v-143q0 -73 -39.5 -110.5t-116.5 -37.5q-157 0 -157 148v143q0 146 157 146zM200 152q-21 0 -21 -23v-137q0 -23 21 -23t21 23v137q0 23 -21 23z" />
    <glyph glyph-name="uni2081" unicode="&#x2081;" horiz-adv-x="397" 
d="M278 -23h70v-127h-283v127h79v153h-2l-67 -28l-29 116l143 53h89v-294z" />
    <glyph glyph-name="uni2082" unicode="&#x2082;" horiz-adv-x="400" 
d="M189 279q155 0 155 -138v-12q0 -65 -60 -119l-37 -33h96v-127h-287v97l128 139q17 19 17 36v6q0 27 -37 27q-38 0 -95 -13v123q69 14 120 14z" />
    <glyph glyph-name="uni2083" unicode="&#x2083;" horiz-adv-x="400" 
d="M195 279q68 0 108 -30.5t40 -78.5v-15q0 -27 -20.5 -53t-52.5 -34q35 -7 57.5 -34t22.5 -60v-11q0 -53 -41.5 -87t-111.5 -34q-58 0 -122 9v121q59 -8 99 -8q18 0 24.5 5t6.5 17v5q0 20 -24 20h-86v108h82q20 0 20 19v4q0 17 -24 17q-33 0 -98 -9v120q64 9 120 9z" />
    <glyph glyph-name="uni2084" unicode="&#x2084;" horiz-adv-x="400" 
d="M159 34h58v44l10 58h120v-102h32v-120h-32v-64h-130v64h-165l-32 66l94 291h118z" />
    <glyph glyph-name="uni2085" unicode="&#x2085;" horiz-adv-x="400" 
d="M319 153h-148v-66q28 39 87 39q91 0 91 -123v-10q0 -76 -37.5 -113.5t-120.5 -37.5q-80 0 -135 12v117q68 -10 113 -10q26 0 35 6.5t9 22.5v5q0 25 -24 25q-26 0 -39 -22h-100v273h269v-118z" />
    <glyph glyph-name="uni2086" unicode="&#x2086;" horiz-adv-x="400" 
d="M320 269v-104q-89 -4 -115.5 -18t-26.5 -48v-15q32 32 80 32q95 0 95 -122v-15q0 -137 -154 -137q-74 0 -113.5 36.5t-39.5 103.5v92q0 99 62.5 147t211.5 48zM207 11q-16 0 -28 -14v-25q0 -18 24 -18q17 0 17 16v26q0 15 -13 15z" />
    <glyph glyph-name="uni2087" unicode="&#x2087;" horiz-adv-x="400" 
d="M351 186l-143 -336h-147l133 304h-145v117h302v-85z" />
    <glyph glyph-name="uni2088" unicode="&#x2088;" horiz-adv-x="400" 
d="M201 279q144 0 144 -106v-12q0 -26 -15 -48t-39 -29q30 -9 49 -35t19 -55v-19q0 -64 -40 -98.5t-118 -34.5q-160 0 -160 133v19q0 27 20 54.5t49 35.5q-23 7 -38.5 29.5t-15.5 47.5v12q0 106 145 106zM200 181q-16 0 -16 -12v-32q0 -11 16 -11t16 11v32q0 12 -16 12z
M200 21q-19 0 -19 -16v-35q0 -16 19 -16t19 16v35q0 16 -19 16z" />
    <glyph glyph-name="uni2089" unicode="&#x2089;" horiz-adv-x="400" 
d="M200 279q74 0 113.5 -37t39.5 -107v-130q0 -163 -165 -163q-70 0 -117 8v118q44 -7 95 -7q32 0 43.5 8.5t11.5 27.5v26q-32 -32 -80 -32q-44 0 -69.5 31.5t-25.5 95.5v20q0 69 39.5 105t114.5 36zM197 162q-18 0 -18 -18v-27q0 -16 13 -16q16 0 28 14v29q0 18 -23 18z
" />
    <glyph glyph-name="uni208A" unicode="&#x208a;" horiz-adv-x="400" 
d="M266 108h83v-119h-83v-78h-131v78h-85v119h85v89h131v-89z" />
    <glyph glyph-name="uni208B" unicode="&#x208b;" horiz-adv-x="400" 
d="M349 -11h-299v119h299v-119z" />
    <glyph glyph-name="uni208C" unicode="&#x208c;" horiz-adv-x="400" 
d="M349 73h-298v120h298v-120zM349 -72h-298v120h298v-120z" />
    <glyph glyph-name="uni208D" unicode="&#x208d;" horiz-adv-x="400" 
d="M303 410v-121q-61 -3 -61 -57v-330q0 -53 61 -56v-121q-107 0 -157 46.5t-50 155.5v280q0 110 48.5 158t158.5 45z" />
    <glyph glyph-name="uni208E" unicode="&#x208e;" horiz-adv-x="400" 
d="M96 289v121q110 3 158.5 -45t48.5 -158v-280q0 -109 -50 -155.5t-157 -46.5v121q61 3 61 56v330q0 54 -61 57z" />
    <glyph glyph-name="Euro" unicode="&#x20ac;" horiz-adv-x="459" 
d="M285 613q79 0 159 -14l-2 -138q-75 16 -128 16q-45 0 -61.5 -12.5t-17.5 -46.5v-3h166l-22 -102h-144v-27h133l-22 -102h-111v-1q0 -54 70 -54q42 0 137 19l2 -143q-88 -17 -159 -17q-103 0 -156 50.5t-53 144.5v1h-76l22 102h54v27h-66l22 102h44v1q0 98 53.5 147.5
t155.5 49.5z" />
    <glyph glyph-name="uni2116" unicode="&#x2116;" horiz-adv-x="1004" 
d="M188 343v-343h-158v655h200l110 -343v343h158v-655h-195zM767 667q95 0 143 -49.5t48 -143.5v-74q0 -94 -48 -143.5t-143 -49.5t-143 49.5t-48 143.5v74q0 94 48 143.5t143 49.5zM767 525q-32 0 -32 -41v-93q0 -41 32 -41t32 41v93q0 41 -32 41zM954 0h-374v144h374v-144
z" />
    <glyph glyph-name="trademark" unicode="&#x2122;" horiz-adv-x="706" 
d="M696 350h-135v28h-96v-28h-135l3 217h-88v-217h-138v217h-97v116h460l46 -98l44 98h134z" />
    <glyph glyph-name="Omega" unicode="&#x2126;" horiz-adv-x="521" 
d="M260 667q117 0 176.5 -58.5t59.5 -168.5v-151q0 -37 -17.5 -77.5t-44.5 -61.5h71v-150h-214v142h1q38 0 38 66v240q0 68 -70 68q-69 0 -69 -68v-240q0 -66 37 -66h3v-142h-215v150h71q-27 21 -44.5 61.5t-17.5 77.5v151q0 111 59 169t176 58z" />
    <glyph glyph-name="estimated" unicode="&#x212e;" horiz-adv-x="955" 
d="M477 703q165 0 284 -106.5t119 -269.5h-657v-218q30 -45 104.5 -71t150.5 -26q75 0 147.5 25.5t112.5 72.5h58q-118 -137 -319 -137q-172 0 -287 102.5t-115 259.5q0 156 117.5 262t284.5 106zM478 664q-172 0 -255 -101v-196h509v195q-94 102 -254 102z" />
    <glyph glyph-name="onethird" unicode="&#x2153;" horiz-adv-x="1000" 
d="M268 308h70v-127h-283v127h79v153h-2l-67 -28l-29 116l143 53h89v-294zM425 0h-161l305 601h161zM809 429q68 0 108 -30.5t40 -78.5v-15q0 -27 -20.5 -53t-52.5 -34q35 -7 57.5 -34t22.5 -60v-11q0 -53 -41.5 -87t-111.5 -34q-58 0 -122 9v121q59 -8 99 -8q18 0 24.5 5
t6.5 17v5q0 20 -24 20h-86v108h82q20 0 20 19v4q0 17 -24 17q-33 0 -98 -9v120q64 9 120 9z" />
    <glyph glyph-name="twothirds" unicode="&#x2154;" horiz-adv-x="1000" 
d="M175 610q155 0 155 -138v-12q0 -65 -60 -119l-37 -33h96v-127h-287v97l128 139q17 19 17 36v6q0 27 -37 27q-38 0 -95 -13v123q69 14 120 14zM419 0h-161l305 601h161zM804 429q68 0 108 -30.5t40 -78.5v-15q0 -27 -20.5 -53t-52.5 -34q35 -7 57.5 -34t22.5 -60v-11
q0 -53 -41.5 -87t-111.5 -34q-58 0 -122 9v121q59 -8 99 -8q18 0 24.5 5t6.5 17v5q0 20 -24 20h-86v108h82q20 0 20 19v4q0 17 -24 17q-34 0 -98 -9v120q64 9 120 9z" />
    <glyph glyph-name="arrowleft" unicode="&#x2190;" horiz-adv-x="900" 
d="M448 548l-168 -154h260v-144h-260l168 -154l-101 -101l-316 327l316 327zM720 250h-135v144h135v-144zM869 250h-105v144h105v-144z" />
    <glyph glyph-name="arrowup" unicode="&#x2191;" horiz-adv-x="900" 
d="M776 380l-100 -102l-151 166v-258h-150v258l-151 -166l-100 102l326 315zM525 6h-150v135h150v-135zM525 -143h-150v105h150v-105z" />
    <glyph glyph-name="arrowright" unicode="&#x2192;" horiz-adv-x="900" 
d="M869 322l-316 -327l-101 101l168 154h-260v144h260l-168 154l101 101zM136 250h-105v144h105v-144zM315 250h-135v144h135v-144z" />
    <glyph glyph-name="arrowdown" unicode="&#x2193;" horiz-adv-x="900" 
d="M525 558h-150v105h150v-105zM525 379h-150v135h150v-135zM525 76l151 166l100 -102l-326 -315l-326 315l100 102l151 -166v258h150v-258z" />
    <glyph glyph-name="arrowboth" unicode="&#x2194;" horiz-adv-x="1293" 
d="M448 548l-168 -154h160v-144h-160l168 -154l-101 -101l-316 327l316 327zM1262 322l-316 -327l-101 101l168 154h-160v144h160l-168 154l101 101zM570 250h-85v144h85v-144zM679 250h-65v144h65v-144zM808 250h-85v144h85v-144z" />
    <glyph glyph-name="arrowupdn" unicode="&#x2195;" horiz-adv-x="900" 
d="M776 550l-100 -102l-151 166v-158h-150v158l-151 -166l-100 102l326 315zM522 326h-144v85h144v-85zM522 217h-144v65h144v-65zM522 88h-144v85h144v-85zM776 -51l-326 -315l-326 315l100 102l151 -166v158h150v-158l151 166z" />
    <glyph glyph-name="uni2196" unicode="&#x2196;" horiz-adv-x="900" 
d="M579 507l-229 8l185 -184l-101 -101l-183 182l12 -226h-146l8 454l454 8v-141zM662 204l-102 -102l-95 96l101 101zM767 99l-102 -102l-74 74l102 102z" />
    <glyph glyph-name="uni2197" unicode="&#x2197;" horiz-adv-x="900" 
d="M759 640l8 -454h-146l12 226l-183 -182l-101 101l185 184l-229 -8v141zM419 198l-95 -96l-102 102l96 95zM293 71l-74 -74l-102 102l74 74z" />
    <glyph glyph-name="uni2198" unicode="&#x2198;" horiz-adv-x="900" 
d="M293 584l-102 -102l-74 74l102 102zM419 457l-101 -101l-96 95l102 102zM759 15l-454 -8v141l229 -8l-185 184l101 101l183 -182l-12 226h146z" />
    <glyph glyph-name="uni2199" unicode="&#x2199;" horiz-adv-x="900" 
d="M767 556l-74 -74l-102 102l74 74zM662 451l-96 -95l-101 101l95 96zM251 243l183 182l101 -101l-185 -184l229 8v-141l-454 8l-8 454h146z" />
    <glyph glyph-name="partialdiff" unicode="&#x2202;" horiz-adv-x="421" 
d="M54 565v130q166 0 255 -92.5t89 -266.5v-155q0 -91 -47 -142t-142 -51q-104 0 -146 42.5t-42 139.5v88q0 85 34.5 133t90.5 48q24 0 52.5 -15t44.5 -39v16q0 164 -189 164zM199 292q-10 0 -14.5 -9t-4.5 -35v-85q0 -33 29 -33q30 0 30 33v97q-20 32 -40 32z" />
    <glyph glyph-name="Delta" unicode="&#x2206;" horiz-adv-x="524" 
d="M517 98v-98h-510v98l159 557h190zM178 147h160l-78 379z" />
    <glyph glyph-name="product" unicode="&#x220f;" horiz-adv-x="595" 
d="M595 505h-85v-690h-159v690h-107v-690h-159v690h-85v150h595v-150z" />
    <glyph glyph-name="summation" unicode="&#x2211;" horiz-adv-x="433" 
d="M423 508h-219l136 -216v-95l-144 -235h227v-147h-413v120l182 302l-182 298v120h413v-147z" />
    <glyph glyph-name="minus" unicode="&#x2212;" horiz-adv-x="430" 
d="M407 219h-384v141h384v-141z" />
    <glyph glyph-name="uni2219" unicode="&#x2219;" horiz-adv-x="211" 
d="M105 370q91 0 91 -80v-24q0 -38 -23.5 -58.5t-67.5 -20.5t-67 20.5t-23 58.5v24q0 80 90 80z" />
    <glyph glyph-name="radical" unicode="&#x221a;" horiz-adv-x="550" 
d="M590 552h-116l-157 -552h-184l-133 488h168l62 -365l118 560h242v-131z" />
    <glyph glyph-name="infinity" unicode="&#x221e;" horiz-adv-x="548" 
d="M379 441q74 0 110.5 -36t36.5 -114v-9q0 -76 -35 -113t-112 -37q-29 0 -58.5 14t-46.5 39q-17 -25 -46.5 -39t-58.5 -14q-76 0 -111.5 37t-35.5 113v9q0 78 36 114t111 36q29 0 58.5 -14.5t46.5 -37.5q17 23 46.5 37.5t58.5 14.5zM183 319q-22 0 -22 -21v-24
q0 -19 22 -19q24 0 24 20v23q0 21 -24 21zM365 319q-24 0 -24 -21v-23q0 -20 24 -20q22 0 22 19v24q0 21 -22 21z" />
    <glyph glyph-name="integral" unicode="&#x222b;" horiz-adv-x="328" 
d="M251 695q52 0 97 -10v-137q-45 6 -66 6q-26 0 -36.5 -11t-10.5 -43v-514q0 -85 -45.5 -134t-129.5 -49q-52 0 -97 10v137q45 -6 66 -6q26 0 36.5 11.5t10.5 42.5v514q0 86 46 134.5t129 48.5z" />
    <glyph glyph-name="approxequal" unicode="&#x2248;" horiz-adv-x="430" 
d="M151 485q29 0 67.5 -12t65.5 -12q20 0 51 8.5t51 16.5l21 8v-143q-63 -34 -126 -34q-30 0 -69 12t-66 12q-20 0 -50.5 -8.5t-51.5 -16.5l-21 -8v143q65 34 128 34zM151 295q29 0 67.5 -12t65.5 -12q20 0 51 8.5t51 16.5l21 8v-143q-63 -34 -126 -34q-30 0 -69.5 12
t-66.5 12q-20 0 -50.5 -8.5t-50.5 -16.5l-21 -8v143q65 34 128 34z" />
    <glyph glyph-name="notequal" unicode="&#x2260;" horiz-adv-x="430" 
d="M374 462h32v-142h-120l-25 -39h145v-142h-233l-21 -34h-119l21 34h-31v142h119l25 39h-144v142h232l21 33h119z" />
    <glyph glyph-name="lessequal" unicode="&#x2264;" horiz-adv-x="430" 
d="M409 457l-165 -68l165 -69v-162l-389 173v116l389 172v-162zM409 0h-389v142h389v-142z" />
    <glyph glyph-name="greaterequal" unicode="&#x2265;" horiz-adv-x="430" 
d="M409 447v-116l-389 -173v162l165 69l-165 68v162zM409 0h-389v142h389v-142z" />
    <glyph glyph-name="dotmath" unicode="&#x22c5;" horiz-adv-x="211" 
d="M105 370q91 0 91 -80v-24q0 -38 -23.5 -58.5t-67.5 -20.5t-67 20.5t-23 58.5v24q0 80 90 80z" />
    <glyph glyph-name="uni25AF" unicode="&#x25af;" horiz-adv-x="437" 
d="M30 0v655h377v-655h-377zM167 137h103v381h-103v-381z" />
    <glyph glyph-name="lozenge" unicode="&#x25ca;" horiz-adv-x="555" 
d="M550 343l-200 -343h-145l-200 343l200 340h145zM174 343l103 -205l104 205l-104 205z" />
    <glyph glyph-name="uniFB00" unicode="&#xfb00;" horiz-adv-x="756" 
d="M363 376h-183v-54h128v-130h-128v-192h-150v511h333v-135zM741 376h-183v-54h128v-130h-128v-192h-150v511h333v-135z" />
    <glyph glyph-name="fi" unicode="&#xfb01;" horiz-adv-x="588" 
d="M363 376h-183v-54h128v-130h-128v-192h-150v511h333v-135zM558 0h-150v511h150v-511z" />
    <glyph glyph-name="fl" unicode="&#xfb02;" horiz-adv-x="746" 
d="M363 376h-183v-54h128v-130h-128v-192h-150v511h333v-135zM558 135h183v-135h-333v511h150v-376z" />
    <glyph glyph-name="uniFB03" unicode="&#xfb03;" horiz-adv-x="966" 
d="M363 376h-183v-54h128v-130h-128v-192h-150v511h333v-135zM741 376h-183v-54h128v-130h-128v-192h-150v511h333v-135zM936 0h-150v511h150v-511z" />
    <glyph glyph-name="uniFB04" unicode="&#xfb04;" horiz-adv-x="1124" 
d="M363 376h-183v-54h128v-130h-128v-192h-150v511h333v-135zM741 376h-183v-54h128v-130h-128v-192h-150v511h333v-135zM936 135h183v-135h-333v511h150v-376z" />
    <glyph glyph-name="uniFB06" unicode="&#xfb06;" horiz-adv-x="801" 
d="M198 523q60 0 141 -13l-1 -136q-84 16 -134 16q-39 0 -39 -23v-7q0 -18 26 -26l66 -21q65 -20 91 -53.5t26 -96.5v-18q0 -157 -187 -157q-56 0 -156 18l1 137q90 -20 135 -20q56 0 56 26v9q0 19 -23 27l-66 21q-66 21 -92.5 54.5t-26.5 95.5v10q0 157 183 157zM791 376
h-133v-376h-150v376h-134v135h417v-135z" />
    <glyph glyph-name="uniFEFF" unicode="&#xfeff;" horiz-adv-x="0" 
 />
    <glyph glyph-name="Ldot.latn_CAT" horiz-adv-x="427" 
d="M196 153h226v-153h-392v655h166v-502zM325 481q89 0 89 -79v-23q0 -38 -23 -58.5t-66 -20.5q-42 0 -65.5 21t-23.5 58v23q0 39 23.5 59t65.5 20z" />
    <glyph glyph-name="parenleft.numr" horiz-adv-x="400" 
d="M303 741v-121q-61 -3 -61 -57v-330q0 -53 61 -56v-121q-107 0 -157 46.5t-50 155.5v280q0 110 48.5 158t158.5 45z" />
    <glyph glyph-name="parenright.numr" horiz-adv-x="400" 
d="M96 620v121q110 3 158.5 -45t48.5 -158v-280q0 -109 -50 -155.5t-157 -46.5v121q61 3 61 56v330q0 54 -61 57z" />
    <glyph glyph-name="plus.numr" horiz-adv-x="400" 
d="M266 439h83v-119h-83v-78h-131v78h-85v119h85v89h131v-89z" />
    <glyph glyph-name="zero.numr" horiz-adv-x="400" 
d="M200 610q156 0 156 -146v-143q0 -73 -39.5 -110.5t-116.5 -37.5q-157 0 -157 148v143q0 146 157 146zM200 483q-21 0 -21 -23v-137q0 -23 21 -23t21 23v137q0 23 -21 23z" />
    <glyph glyph-name="one.numr" horiz-adv-x="400" 
d="M278 308h70v-127h-283v127h79v153h-2l-67 -28l-29 116l143 53h89v-294z" />
    <glyph glyph-name="two.numr" horiz-adv-x="400" 
d="M189 610q155 0 155 -138v-12q0 -65 -60 -119l-37 -33h96v-127h-287v97l128 139q17 19 17 36v6q0 27 -37 27q-38 0 -95 -13v123q69 14 120 14z" />
    <glyph glyph-name="three.numr" horiz-adv-x="400" 
d="M195 610q68 0 108 -30.5t40 -78.5v-15q0 -27 -20.5 -53t-52.5 -34q35 -7 57.5 -34t22.5 -60v-11q0 -53 -41.5 -87t-111.5 -34q-58 0 -122 9v121q59 -8 99 -8q18 0 24.5 5t6.5 17v5q0 20 -24 20h-86v108h82q20 0 20 19v4q0 17 -24 17q-33 0 -98 -9v120q64 9 120 9z" />
    <glyph glyph-name="four.numr" horiz-adv-x="400" 
d="M159 365h58v44l10 58h120v-102h32v-120h-32v-64h-130v64h-165l-32 66l94 291h118z" />
    <glyph glyph-name="five.numr" horiz-adv-x="400" 
d="M319 484h-148v-66q28 39 87 39q91 0 91 -123v-10q0 -76 -37.5 -113.5t-120.5 -37.5q-80 0 -135 12v117q68 -10 113 -10q26 0 35 6.5t9 22.5v5q0 25 -24 25q-26 0 -39 -22h-100v273h269v-118z" />
    <glyph glyph-name="six.numr" horiz-adv-x="400" 
d="M320 600v-104q-89 -4 -115.5 -18t-26.5 -48v-15q32 32 80 32q95 0 95 -122v-15q0 -137 -154 -137q-74 0 -113.5 36.5t-39.5 103.5v92q0 99 62.5 147t211.5 48zM207 342q-16 0 -28 -14v-25q0 -18 24 -18q17 0 17 16v26q0 15 -13 15z" />
    <glyph glyph-name="seven.numr" horiz-adv-x="400" 
d="M351 517l-143 -336h-147l133 304h-145v117h302v-85z" />
    <glyph glyph-name="eight.numr" horiz-adv-x="400" 
d="M201 610q144 0 144 -106v-12q0 -26 -15 -48t-39 -29q30 -9 49 -35t19 -55v-19q0 -64 -40 -98.5t-118 -34.5q-160 0 -160 133v19q0 27 20 54.5t49 35.5q-23 7 -38.5 29.5t-15.5 47.5v12q0 106 145 106zM200 512q-16 0 -16 -12v-32q0 -11 16 -11t16 11v32q0 12 -16 12z
M200 352q-19 0 -19 -16v-35q0 -16 19 -16t19 16v35q0 16 -19 16z" />
    <glyph glyph-name="nine.numr" horiz-adv-x="400" 
d="M200 610q74 0 113.5 -37t39.5 -107v-130q0 -163 -165 -163q-70 0 -117 8v118q44 -7 95 -7q32 0 43.5 8.5t11.5 27.5v26q-32 -32 -80 -32q-44 0 -69.5 31.5t-25.5 95.5v20q0 69 39.5 105t114.5 36zM197 493q-18 0 -18 -18v-27q0 -16 13 -16q16 0 28 14v29q0 18 -23 18z
" />
    <glyph glyph-name="equal.numr" horiz-adv-x="400" 
d="M349 404h-298v120h298v-120zM349 259h-298v120h298v-120z" />
    <glyph glyph-name="minus.numr" horiz-adv-x="400" 
d="M349 320h-299v119h299v-119z" />
    <glyph glyph-name="parenleft.dnom" horiz-adv-x="400" 
d="M303 560v-121q-61 -3 -61 -57v-330q0 -53 61 -56v-121q-107 0 -157 46.5t-50 155.5v280q0 110 48.5 158t158.5 45z" />
    <glyph glyph-name="parenright.dnom" horiz-adv-x="400" 
d="M96 439v121q110 3 158.5 -45t48.5 -158v-280q0 -109 -50 -155.5t-157 -46.5v121q61 3 61 56v330q0 54 -61 57z" />
    <glyph glyph-name="plus.dnom" horiz-adv-x="400" 
d="M266 258h83v-119h-83v-78h-131v78h-85v119h85v89h131v-89z" />
    <glyph glyph-name="zero.dnom" horiz-adv-x="400" 
d="M200 429q156 0 156 -146v-143q0 -73 -39.5 -110.5t-116.5 -37.5q-157 0 -157 148v143q0 146 157 146zM200 302q-21 0 -21 -23v-137q0 -23 21 -23t21 23v137q0 23 -21 23z" />
    <glyph glyph-name="one.dnom" horiz-adv-x="397" 
d="M278 127h70v-127h-283v127h79v153h-2l-67 -28l-29 116l143 53h89v-294z" />
    <glyph glyph-name="two.dnom" horiz-adv-x="400" 
d="M189 429q155 0 155 -138v-12q0 -65 -60 -119l-37 -33h96v-127h-287v97l128 139q17 19 17 36v6q0 27 -37 27q-38 0 -95 -13v123q69 14 120 14z" />
    <glyph glyph-name="three.dnom" horiz-adv-x="400" 
d="M195 429q68 0 108 -30.5t40 -78.5v-15q0 -27 -20.5 -53t-52.5 -34q35 -7 57.5 -34t22.5 -60v-11q0 -53 -41.5 -87t-111.5 -34q-58 0 -122 9v121q59 -8 99 -8q18 0 24.5 5t6.5 17v5q0 20 -24 20h-86v108h82q20 0 20 19v4q0 17 -24 17q-33 0 -98 -9v120q64 9 120 9z" />
    <glyph glyph-name="four.dnom" horiz-adv-x="400" 
d="M159 184h58v44l10 58h120v-102h32v-120h-32v-64h-130v64h-165l-32 66l94 291h118z" />
    <glyph glyph-name="five.dnom" horiz-adv-x="400" 
d="M319 303h-148v-66q28 39 87 39q91 0 91 -123v-10q0 -76 -37.5 -113.5t-120.5 -37.5q-80 0 -135 12v117q68 -10 113 -10q26 0 35 6.5t9 22.5v5q0 25 -24 25q-26 0 -39 -22h-100v273h269v-118z" />
    <glyph glyph-name="six.dnom" horiz-adv-x="400" 
d="M320 419v-104q-89 -4 -115.5 -18t-26.5 -48v-15q32 32 80 32q95 0 95 -122v-15q0 -137 -154 -137q-74 0 -113.5 36.5t-39.5 103.5v92q0 99 62.5 147t211.5 48zM207 161q-16 0 -28 -14v-25q0 -18 24 -18q17 0 17 16v26q0 15 -13 15z" />
    <glyph glyph-name="seven.dnom" horiz-adv-x="400" 
d="M351 336l-143 -336h-147l133 304h-145v117h302v-85z" />
    <glyph glyph-name="eight.dnom" horiz-adv-x="400" 
d="M201 429q144 0 144 -106v-12q0 -26 -15 -48t-39 -29q30 -9 49 -35t19 -55v-19q0 -64 -40 -98.5t-118 -34.5q-160 0 -160 133v19q0 27 20 54.5t49 35.5q-23 7 -38.5 29.5t-15.5 47.5v12q0 106 145 106zM200 331q-16 0 -16 -12v-32q0 -11 16 -11t16 11v32q0 12 -16 12z
M200 171q-19 0 -19 -16v-35q0 -16 19 -16t19 16v35q0 16 -19 16z" />
    <glyph glyph-name="nine.dnom" horiz-adv-x="400" 
d="M200 429q74 0 113.5 -37t39.5 -107v-130q0 -163 -165 -163q-70 0 -117 8v118q44 -7 95 -7q32 0 43.5 8.5t11.5 27.5v26q-32 -32 -80 -32q-44 0 -69.5 31.5t-25.5 95.5v20q0 69 39.5 105t114.5 36zM197 312q-18 0 -18 -18v-27q0 -16 13 -16q16 0 28 14v29q0 18 -23 18z
" />
    <glyph glyph-name="equal.dnom" horiz-adv-x="400" 
d="M349 223h-298v120h298v-120zM349 78h-298v120h298v-120z" />
    <glyph glyph-name="minus.dnom" horiz-adv-x="400" 
d="M349 139h-299v119h299v-119z" />
    <glyph glyph-name="space.frac" horiz-adv-x="60" 
 />
    <glyph glyph-name="quotedbl.osf" horiz-adv-x="403" 
d="M184 388h-159v295h159v-295zM378 388h-159v295h159v-295z" />
    <glyph glyph-name="numbersign.osf" horiz-adv-x="587" 
d="M483 450h64v-142h-64v-93h64v-142h-64v-73h-157v73h-65v-73h-157v73h-64v142h64v93h-64v142h64v73h157v-73h65v73h157v-73zM261 308v-93h65v93h-65z" />
    <glyph glyph-name="dollar.osf" horiz-adv-x="395" 
d="M279 605v-86q6 -1 71 -9l-1 -136q-84 16 -139 16q-44 0 -44 -23v-7q0 -17 31 -26l66 -21q66 -21 94 -54.5t28 -95.5v-18q0 -120 -106 -147v-91h-151v85q-55 7 -96 14l1 137q90 -20 140 -20q61 0 61 26v9q0 18 -28 27l-66 21q-67 21 -95.5 55t-28.5 95v10q0 122 112 149
v90h151z" />
    <glyph glyph-name="percent.osf" horiz-adv-x="893" 
d="M196 625q86 0 130.5 -44.5t44.5 -130.5v-25q0 -85 -44 -130t-131 -45q-85 0 -130.5 44t-45.5 131v25q0 86 45.5 130.5t130.5 44.5zM369 0h-179l335 613h180zM196 489q-23 0 -23 -32v-39q0 -32 23 -32t23 32v39q0 32 -23 32zM698 363q86 0 130.5 -44.5t44.5 -130.5v-25
q0 -85 -44 -130t-131 -45q-85 0 -130.5 44t-45.5 131v25q0 86 45.5 130.5t130.5 44.5zM698 227q-23 0 -23 -32v-39q0 -32 23 -32t23 32v39q0 32 -23 32z" />
    <glyph glyph-name="quotesingle.osf" horiz-adv-x="209" 
d="M184 388h-159v295h159v-295z" />
    <glyph glyph-name="plus.osf" horiz-adv-x="430" 
d="M291 321h116v-142h-116v-127h-152v127h-117v142h117v127h152v-127z" />
    <glyph glyph-name="zero.osf" horiz-adv-x="439" 
d="M220 523q198 0 198 -207v-119q0 -209 -198 -209q-199 0 -199 209v119q0 207 199 207zM220 380q-21 0 -30 -11.5t-9 -40.5v-143q0 -29 9 -41.5t30 -12.5q39 0 39 54v143q0 29 -9.5 40.5t-29.5 11.5z" />
    <glyph glyph-name="one.osf" horiz-adv-x="316" 
d="M286 0h-159v343h-2l-99 -46l-31 142l176 72h115v-511z" />
    <glyph glyph-name="two.osf" horiz-adv-x="387" 
d="M169 523q105 0 153 -41.5t48 -124.5v-17q0 -88 -69 -146l-64 -52h140v-142h-364v112l145 125q31 27 42 45.5t11 41.5v9q0 48 -75 48q-48 0 -126 -23v142q89 23 159 23z" />
    <glyph glyph-name="three.osf" horiz-adv-x="358" 
d="M157 523q88 0 139 -44.5t51 -111.5v-18q0 -39 -23.5 -76t-61.5 -52q41 -13 68.5 -52.5t27.5 -83.5v-12q0 -206 -350 -207v136q113 5 152 25t39 64v8q0 27 -12.5 39t-41.5 12h-108v138h103q48 0 48 48v9q0 39 -51 39q-46 0 -129 -15v139q88 15 149 15z" />
    <glyph glyph-name="four.osf" horiz-adv-x="450" 
d="M395 142h55v-142h-55v-115h-158v115h-242v103l190 408h210v-369zM170 142h68v180z" />
    <glyph glyph-name="five.osf" horiz-adv-x="419" 
d="M369 369h-188v-101q14 17 42.5 28.5t59.5 11.5q127 0 127 -171v-29q0 -116 -85 -178.5t-279 -63.5v135q121 5 163 27.5t42 71.5v22q0 43 -37 43q-35 0 -69 -38h-120v384h344v-142z" />
    <glyph glyph-name="six.osf" horiz-adv-x="429" 
d="M372 606v-136q-113 -5 -152 -25t-39 -64v-21q45 45 102 45q64 0 99.5 -46.5t35.5 -142.5v-32q0 -97 -51 -146.5t-148 -49.5q-96 0 -147 52t-51 148v181q0 236 351 237zM232 260q-24 0 -51 -30v-50q0 -49 38 -49q40 0 40 45v43q0 23 -6 32t-21 9z" />
    <glyph glyph-name="seven.osf" horiz-adv-x="415" 
d="M410 414l-205 -528h-167l187 483v1h-224v141h409v-97z" />
    <glyph glyph-name="eight.osf" horiz-adv-x="429" 
d="M215 613q89 0 136.5 -39t47.5 -115v-14q0 -34 -19 -68t-49 -48q40 -15 65 -52.5t25 -78.5v-23q0 -90 -53 -138.5t-153 -48.5t-153.5 48t-53.5 139v23q0 40 26 77.5t65 53.5q-31 14 -49.5 48t-18.5 68v14q0 75 47.5 114.5t136.5 39.5zM215 484q-30 0 -30 -31v-28
q0 -32 30 -32q29 0 29 32v28q0 31 -29 31zM215 259q-48 0 -48 -47v-51q0 -18 12.5 -29t35.5 -11t35 11t12 29v51q0 22 -12.5 34.5t-34.5 12.5z" />
    <glyph glyph-name="nine.osf" horiz-adv-x="435" 
d="M216 523q96 0 147 -51.5t51 -148.5v-224q0 -116 -53 -170.5t-162 -54.5q-80 0 -147 13v142q72 -14 127 -14q36 0 55.5 17.5t19.5 47.5v52q-45 -45 -102 -45q-64 0 -99.5 46.5t-35.5 142.5v51q0 96 51 146t148 50zM216 380q-40 0 -40 -45v-62q0 -24 6.5 -32.5t20.5 -8.5
q24 0 51 30v69q0 49 -38 49z" />
    <glyph glyph-name="less.osf" horiz-adv-x="430" 
d="M409 315l-165 -68l165 -69v-162l-389 173v116l389 172v-162z" />
    <glyph glyph-name="equal.osf" horiz-adv-x="430" 
d="M406 280h-383v142h383v-142zM406 99h-383v142h383v-142z" />
    <glyph glyph-name="greater.osf" horiz-adv-x="430" 
d="M409 305v-116l-389 -173v162l165 69l-165 68v162z" />
    <glyph glyph-name="asciitilde.osf" horiz-adv-x="430" 
d="M151 335q29 0 67.5 -12t65.5 -12q20 0 51 8.5t51 16.5l21 8v-143q-63 -34 -126 -34q-30 0 -69 12t-66 12q-20 0 -50.5 -8t-51.5 -17l-21 -8v143q65 34 128 34z" />
    <glyph glyph-name="cent.osf" horiz-adv-x="352" 
d="M282 576v-81q43 -5 58 -8l-2 -142q-66 11 -90 11q-41 0 -55 -14t-14 -54v-89q0 -39 14.5 -52.5t54.5 -13.5q28 0 89 12l4 -144q-3 -1 -59 -9v-80h-151v88q-111 36 -111 181v126q0 145 111 181v88h151z" />
    <glyph glyph-name="sterling.osf" horiz-adv-x="416" 
d="M246 523q63 0 133 -17v-130q-60 13 -93 13q-38 0 -51 -9.5t-13 -32.5v-7h74v-124h-74v-5q0 -42 -39 -71h233v-140h-386v101q33 37 33 109v6h-53v124h53v15q0 168 183 168z" />
    <glyph glyph-name="currency.osf" horiz-adv-x="498" 
d="M488 389l-60 -59q7 -25 7 -61v-17q0 -42 -10 -67l63 -61l-108 -109l-60 64q-30 -11 -73 -11t-71 10l-60 -61l-106 107l60 59q-12 28 -12 69v17q0 37 9 63l-57 57l106 106l54 -54q34 12 77 12q42 0 78 -13l55 56zM247 309q-32 0 -32 -37v-23q0 -38 32 -38t32 38v23
q0 37 -32 37z" />
    <glyph glyph-name="yen.osf" horiz-adv-x="402" 
d="M320 295h41v-102h-85v-28h85v-102h-85v-63h-150v63h-85v102h85v28h-85v102h41l-112 216h167l65 -212l65 212h165z" />
    <glyph glyph-name="section.osf" horiz-adv-x="421" 
d="M227 695q55 0 127 -14l-2 -141q-77 17 -113 17q-42 0 -42 -24v-16q0 -19 21 -29l108 -57q49 -26 69.5 -55.5t20.5 -70.5v-32q0 -75 -85 -117q24 -14 38 -41t13 -54v-32q-3 -148 -194 -148q-50 0 -128 17l3 142q79 -19 113 -19q48 0 48 24v13q0 20 -20 30l-109 54
q-90 45 -90 130v31q0 36 22 67t63 49q-24 16 -37.5 43t-13.5 53v32q0 69 46 108.5t142 39.5zM239 322l-21 8q-55 -3 -55 -35v-15q0 -19 19 -26l21 -8q55 1 55 35v15q0 19 -19 26z" />
    <glyph glyph-name="logicalnot.osf" horiz-adv-x="430" 
d="M410 52h-152v127h-238v141h390v-268z" />
    <glyph glyph-name="degree.osf" horiz-adv-x="404" 
d="M203 695q90 0 135.5 -47.5t45.5 -137.5v-19q0 -91 -46 -138.5t-135 -47.5q-90 0 -136.5 47.5t-46.5 138.5v19q0 90 46.5 137.5t136.5 47.5zM203 561q-32 0 -32 -45v-32q0 -44 32 -44q30 0 30 44v32q0 45 -30 45z" />
    <glyph glyph-name="plusminus.osf" horiz-adv-x="430" 
d="M291 373h116v-142h-116v-57h-152v57h-117v142h117v115h152v-115zM407 0h-385v142h385v-142z" />
    <glyph glyph-name="mu.osf" horiz-adv-x="433" 
d="M403 0h-145v60q-22 -31 -41 -45q-15 -11 -30 -15v-185h-157v673h160v-314q0 -37 16 -37q18 0 38 29v322h159v-488z" />
    <glyph glyph-name="multiply.osf" horiz-adv-x="430" 
d="M406 340l-89 -89l91 -91l-106 -102l-90 88l-87 -87l-102 101l88 88l-89 90l102 107l92 -92l88 88z" />
    <glyph glyph-name="divide.osf" horiz-adv-x="430" 
d="M215 509q85 0 85 -79v-14q0 -36 -21.5 -56.5t-63.5 -20.5q-41 0 -62.5 20.5t-21.5 56.5v14q0 37 21.5 58t62.5 21zM406 179h-383v141h383v-141zM215 160q42 0 63.5 -20.5t21.5 -57.5v-14q0 -36 -21.5 -57t-63.5 -21q-41 0 -62.5 21t-21.5 57v14q0 37 21.5 57.5t62.5 20.5
z" />
    <glyph glyph-name="florin.osf" horiz-adv-x="327" 
d="M245 612q51 0 97 -10v-137q-45 6 -66 6q-26 0 -36.5 -11.5t-10.5 -42.5v-12h80v-142h-80v-448h-159v448h-55v142h55v29q0 86 45 132t130 46z" />
    <glyph glyph-name="dagger.osf" horiz-adv-x="431" 
d="M295 407h116v-150h-116v-257h-159v257h-116v150h116v117h159v-117z" />
    <glyph glyph-name="daggerdbl.osf" horiz-adv-x="431" 
d="M295 422h116v-140h-116v-40h96v-140h-96v-102h-159v102h-96v140h96v40h-116v140h116v102h159v-102z" />
    <glyph glyph-name="perthousand.osf" horiz-adv-x="1271" 
d="M196 625q86 0 130.5 -44.5t44.5 -130.5v-25q0 -85 -44 -130t-131 -45q-85 0 -130.5 44t-45.5 131v25q0 86 45.5 130.5t130.5 44.5zM369 0h-179l335 613h180zM196 489q-23 0 -23 -32v-39q0 -32 23 -32t23 32v39q0 32 -23 32zM698 363q86 0 130.5 -44.5t44.5 -130.5v-25
q0 -85 -44 -130t-131 -45q-85 0 -130.5 44t-45.5 131v25q0 86 45.5 130.5t130.5 44.5zM1076 363q86 0 130.5 -44.5t44.5 -130.5v-25q0 -85 -44 -130t-131 -45q-85 0 -130.5 44t-45.5 131v25q0 86 45.5 130.5t130.5 44.5zM698 227q-23 0 -23 -32v-39q0 -32 23 -32t23 32v39
q0 32 -23 32zM1076 227q-23 0 -23 -32v-39q0 -32 23 -32t23 32v39q0 32 -23 32z" />
    <glyph glyph-name="Euro.osf" horiz-adv-x="411" 
d="M259 523q42 0 142 -16l-2 -127q-76 13 -112 13q-40 0 -55 -10t-19 -39v-1h162l-16 -72h-146v-31h134l-16 -72h-117v-1q4 -27 20.5 -37t53.5 -10q38 0 111 16l2 -132q-94 -16 -142 -16q-101 0 -147.5 44.5t-46.5 134.5v1h-65l16 72h49v31h-55l16 72h39v1q0 179 194 179z
" />
    <glyph glyph-name="Omega.osf" horiz-adv-x="521" 
d="M260 667q117 0 176.5 -58.5t59.5 -168.5v-151q0 -37 -17.5 -77.5t-44.5 -61.5h71v-150h-214v142h1q38 0 38 66v240q0 68 -70 68q-69 0 -69 -68v-240q0 -66 37 -66h3v-142h-215v150h71q-27 21 -44.5 61.5t-17.5 77.5v151q0 111 59 169t176 58z" />
    <glyph glyph-name="partialdiff.osf" horiz-adv-x="421" 
d="M54 565v130q166 0 255 -92.5t89 -266.5v-155q0 -91 -47 -142t-142 -51q-104 0 -146 42.5t-42 139.5v88q0 85 34.5 133t90.5 48q24 0 52.5 -15t44.5 -39v16q0 164 -189 164zM199 292q-10 0 -14.5 -9t-4.5 -35v-85q0 -33 29 -33q30 0 30 33v97q-20 32 -40 32z" />
    <glyph glyph-name="Delta.osf" horiz-adv-x="524" 
d="M517 98v-98h-510v98l159 557h190zM178 147h160l-78 379z" />
    <glyph glyph-name="product.osf" horiz-adv-x="595" 
d="M595 505h-85v-690h-159v690h-107v-690h-159v690h-85v150h595v-150z" />
    <glyph glyph-name="summation.osf" horiz-adv-x="433" 
d="M423 508h-219l136 -216v-95l-144 -235h227v-147h-413v120l182 302l-182 298v120h413v-147z" />
    <glyph glyph-name="minus.osf" horiz-adv-x="430" 
d="M407 179h-384v141h384v-141z" />
    <glyph glyph-name="radical.osf" horiz-adv-x="550" 
d="M590 552h-116l-157 -552h-184l-133 488h168l62 -365l118 560h242v-131z" />
    <glyph glyph-name="infinity.osf" horiz-adv-x="548" 
d="M379 401q74 0 110.5 -36t36.5 -114v-9q0 -76 -35 -113t-112 -37q-29 0 -58.5 14t-46.5 39q-17 -25 -46.5 -39t-58.5 -14q-76 0 -111.5 37t-35.5 113v9q0 78 36 114t111 36q29 0 58.5 -14.5t46.5 -37.5q17 23 46.5 37.5t58.5 14.5zM183 279q-22 0 -22 -21v-24
q0 -19 22 -19q24 0 24 20v23q0 21 -24 21zM365 279q-24 0 -24 -21v-23q0 -20 24 -20q22 0 22 19v24q0 21 -22 21z" />
    <glyph glyph-name="integral.osf" horiz-adv-x="328" 
d="M251 695q52 0 97 -10v-137q-45 6 -66 6q-26 0 -36.5 -11t-10.5 -43v-514q0 -85 -45.5 -134t-129.5 -49q-52 0 -97 10v137q45 -6 66 -6q26 0 36.5 11.5t10.5 42.5v514q0 86 46 134.5t129 48.5z" />
    <glyph glyph-name="approxequal.osf" horiz-adv-x="430" 
d="M151 445q29 0 67.5 -12t65.5 -12q20 0 51 8.5t51 16.5l21 8v-143q-63 -34 -126 -34q-30 0 -69 12t-66 12q-20 0 -50.5 -8.5t-51.5 -16.5l-21 -8v143q65 34 128 34zM151 255q29 0 67.5 -12t65.5 -12q20 0 51 8t51 17l21 8v-143q-63 -34 -126 -34q-30 0 -69.5 12t-66.5 12
q-20 0 -50.5 -8.5t-50.5 -16.5l-21 -8v143q65 34 128 34z" />
    <glyph glyph-name="notequal.osf" horiz-adv-x="430" 
d="M374 422h32v-142h-120l-25 -39h145v-142h-233l-21 -34h-119l21 34h-31v142h119l25 39h-144v142h232l21 33h119z" />
    <glyph glyph-name="lessequal.osf" horiz-adv-x="430" 
d="M409 427l-195 -48l195 -49v-162l-389 153v116l389 152v-162zM409 0h-389v142h389v-142z" />
    <glyph glyph-name="greaterequal.osf" horiz-adv-x="430" 
d="M409 437v-116l-389 -153v162l195 49l-195 48v162zM409 0h-389v142h389v-142z" />
    <glyph glyph-name="lozenge.osf" horiz-adv-x="555" 
d="M550 343l-200 -343h-145l-200 343l200 340h145zM174 343l103 -205l104 205l-104 205z" />
    <glyph glyph-name="quotedbl.tf" 
d="M194 388h-159v295h159v-295zM388 388h-159v295h159v-295z" />
    <glyph glyph-name="numbersign.tf" 
d="M470 552h64v-142h-64v-165h64v-142h-64v-103h-157v103h-65v-103h-157v103h-64v142h64v165h-64v142h64v103h157v-103h65v103h157v-103zM248 410v-165h65v165h-65z" />
    <glyph glyph-name="dollar.tf" 
d="M361 750v-88q45 -5 89 -12l-2 -154q-95 19 -159 19q-55 0 -55 -40v-13q0 -15 8 -24.5t31 -17.5l81 -26q75 -24 106.5 -67t31.5 -123v-19q0 -148 -131 -185v-93h-151v84q-42 5 -123 20l1 156q104 -25 159 -25q79 0 79 44v16q0 31 -29 41l-89 30q-79 26 -109.5 66.5
t-30.5 121.5v10q0 160 142 189v90h151z" />
    <glyph glyph-name="percent.tf" horiz-adv-x="899" 
d="M211 667q86 0 130.5 -44.5t44.5 -130.5v-25q0 -85 -44 -130t-131 -45q-85 0 -130.5 44t-45.5 131v25q0 86 45.5 130.5t130.5 44.5zM360 0h-179l359 655h180zM211 531q-23 0 -23 -32v-39q0 -32 23 -32t23 32v39q0 32 -23 32zM689 363q86 0 130.5 -44.5t44.5 -130.5v-25
q0 -85 -44 -130t-131 -45q-85 0 -130.5 44t-45.5 131v25q0 86 45.5 130.5t130.5 44.5zM689 227q-23 0 -23 -32v-39q0 -32 23 -32t23 32v39q0 32 -23 32z" />
    <glyph glyph-name="quotesingle.tf" 
d="M194 388h-159v295h159v-295z" />
    <glyph glyph-name="plus.tf" 
d="M356 381h116v-142h-116v-127h-152v127h-117v142h117v127h152v-127z" />
    <glyph glyph-name="zero.tf" 
d="M281 667q97 0 151.5 -51.5t54.5 -155.5v-263q0 -103 -54 -156t-152 -53q-99 0 -153 53t-54 156v263q0 104 54.5 155.5t152.5 51.5zM281 524q-47 0 -47 -52v-287q0 -54 47 -54t47 54v287q0 52 -47 52z" />
    <glyph glyph-name="one.tf" horiz-adv-x="540" 
d="M386 142h108v-142h-382v142h114v343h-2l-106 -47l-31 145l184 72h115v-513z" />
    <glyph glyph-name="two.tf" 
d="M248 667q213 0 213 -180v-19q0 -94 -79 -191l-111 -135h194v-142h-390v110l192 260q31 43 31 88v12q0 55 -76 55q-49 0 -130 -25v142q104 25 156 25z" />
    <glyph glyph-name="three.tf" 
d="M258 667q93 0 142 -44t49 -116v-25q0 -109 -95 -144q48 -13 77 -52.5t29 -93.5v-29q0 -78 -54 -126.5t-151 -48.5q-63 0 -155 14v139q79 -14 135 -14q30 0 48 16.5t18 47.5v15q0 61 -60 61h-112v138h106q55 0 55 48v26q0 49 -57 49q-39 0 -133 -15v139q98 15 158 15z" />
    <glyph glyph-name="four.tf" 
d="M215 245h78v67l23 143h133v-210h62v-140h-62v-105h-157v105h-212l-36 76l125 474h142z" />
    <glyph glyph-name="five.tf" 
d="M442 513h-192v-123q14 17 42 28.5t56 11.5q135 0 135 -188v-43q0 -106 -52 -158.5t-162 -52.5q-81 0 -170 24v140q110 -21 162 -21q33 0 48 14t15 46v49q0 47 -45 47q-35 0 -69 -38h-120v406h352v-142z" />
    <glyph glyph-name="six.tf" 
d="M437 660v-136q-112 -5 -155.5 -28t-43.5 -68v-38q45 45 111 45q134 0 134 -189v-62q0 -196 -203 -196q-100 0 -151 51.5t-51 148.5v228q0 114 89 178.5t270 65.5zM293 290q-28 0 -55 -30v-80q0 -49 42 -49q44 0 44 45v73q0 41 -31 41z" />
    <glyph glyph-name="seven.tf" 
d="M483 558l-201 -558h-171l187 513v1h-217v141h402v-97z" />
    <glyph glyph-name="eight.tf" 
d="M281 667q188 0 188 -154v-38q0 -36 -18.5 -68.5t-49.5 -47.5q41 -16 65.5 -52t24.5 -79v-53q0 -91 -53.5 -139t-156.5 -48q-104 0 -157.5 48t-53.5 139v53q0 42 25.5 78.5t65.5 52.5q-32 14 -50 47t-18 69v38q0 76 48 115t140 39zM281 538q-34 0 -34 -31v-52
q0 -32 34 -32q33 0 33 32v52q0 31 -33 31zM281 289q-52 0 -52 -45v-83q0 -40 52 -40q51 0 51 40v83q0 45 -51 45z" />
    <glyph glyph-name="nine.tf" 
d="M281 667q100 0 151 -51.5t51 -148.5v-254q0 -116 -52 -170.5t-162 -54.5q-83 0 -155 14v142q77 -15 135 -15q36 0 55.5 17.5t19.5 47.5v72q-45 -45 -112 -45q-134 0 -134 189v61q0 196 203 196zM281 524q-44 0 -44 -45v-72q0 -41 31 -41q28 0 55 30v79q0 49 -42 49z" />
    <glyph glyph-name="less.tf" 
d="M474 355l-165 -68l165 -69v-162l-389 173v116l389 172v-162z" />
    <glyph glyph-name="equal.tf" 
d="M471 340h-383v142h383v-142zM471 159h-383v142h383v-142z" />
    <glyph glyph-name="greater.tf" 
d="M474 365v-116l-389 -173v162l165 69l-165 68v162z" />
    <glyph glyph-name="asciitilde.tf" 
d="M216 415q29 0 67.5 -12t65.5 -12q20 0 50.5 8.5t51.5 16.5l21 8v-143q-63 -34 -126 -34q-30 0 -69 12t-66 12q-20 0 -50.5 -8t-51.5 -17l-21 -8v143q65 34 128 34z" />
    <glyph glyph-name="cent.tf" 
d="M367 576v-81q43 -5 58 -8l-2 -142q-66 11 -90 11q-41 0 -55 -14t-14 -54v-89q0 -39 14.5 -52.5t54.5 -13.5q28 0 89 12l4 -144q-3 -1 -59 -9v-80h-151v88q-111 36 -111 181v126q0 145 111 181v88h151z" />
    <glyph glyph-name="sterling.tf" 
d="M320 667q63 0 133 -17v-138q-60 13 -93 13q-43 0 -57.5 -12t-14.5 -43v-45h82v-134h-82v-58q0 -56 -35 -88h237v-145h-394v109q19 21 26 42t7 59v81h-58v134h58v64q0 178 191 178z" />
    <glyph glyph-name="currency.tf" 
d="M528 459l-60 -59q7 -25 7 -61v-17q0 -42 -10 -67l63 -61l-108 -109l-60 64q-30 -11 -73 -11t-71 10l-60 -61l-106 107l60 59q-12 28 -12 69v17q0 37 9 63l-57 57l106 106l54 -54q34 12 77 12q42 0 78 -13l55 56zM287 379q-32 0 -32 -37v-23q0 -38 32 -38t32 38v23
q0 37 -32 37z" />
    <glyph glyph-name="yen.tf" 
d="M392 299h56v-102h-85v-28h85v-102h-85v-67h-166v67h-85v102h85v28h-85v102h56l-159 356h185l87 -287l88 287h182z" />
    <glyph glyph-name="section.tf" 
d="M295 695q55 0 127 -14l-2 -141q-77 17 -113 17q-42 0 -42 -24v-16q0 -19 21 -29l108 -57q49 -26 69.5 -55.5t20.5 -70.5v-32q0 -75 -85 -117q24 -14 38 -41t13 -54v-32q-3 -148 -194 -148q-50 0 -128 17l3 142q79 -19 113 -19q48 0 48 24v13q0 20 -20 30l-109 54
q-90 45 -90 130v31q0 36 22 67t63 49q-24 16 -37.5 43t-13.5 53v32q0 69 46 108.5t142 39.5zM307 322l-21 8q-55 -3 -55 -35v-15q0 -19 19 -26l21 -8q55 1 55 35v15q0 19 -19 26z" />
    <glyph glyph-name="logicalnot.tf" 
d="M475 112h-152v127h-238v141h390v-268z" />
    <glyph glyph-name="degree.tf" 
d="M203 695q90 0 135.5 -47.5t45.5 -137.5v-19q0 -91 -46 -138.5t-135 -47.5q-90 0 -136.5 47.5t-46.5 138.5v19q0 90 46.5 137.5t136.5 47.5zM203 561q-32 0 -32 -45v-32q0 -44 32 -44q30 0 30 44v32q0 45 -30 45z" />
    <glyph glyph-name="plusminus.tf" 
d="M357 391h116v-142h-116v-65h-152v65h-117v142h117v117h152v-117zM473 0h-385v142h385v-142z" />
    <glyph glyph-name="mu.tf" 
d="M467 0h-145v60q-22 -31 -41 -45q-15 -11 -30 -15v-185h-157v673h160v-314q0 -37 16 -37q18 0 38 29v322h159v-488z" />
    <glyph glyph-name="multiply.tf" 
d="M471 400l-89 -89l91 -91l-106 -102l-90 88l-87 -87l-102 101l88 88l-89 90l102 107l92 -92l88 88z" />
    <glyph glyph-name="divide.tf" 
d="M280 569q85 0 85 -79v-14q0 -36 -21.5 -56.5t-63.5 -20.5q-41 0 -62.5 20.5t-21.5 56.5v14q0 37 21.5 58t62.5 21zM471 239h-383v141h383v-141zM280 220q42 0 63.5 -20.5t21.5 -57.5v-14q0 -36 -21.5 -57t-63.5 -21q-41 0 -62.5 21t-21.5 57v14q0 37 21.5 57.5t62.5 20.5
z" />
    <glyph glyph-name="florin.tf" 
d="M347 667q51 0 97 -10v-137q-45 6 -66 6q-26 0 -36.5 -11.5t-10.5 -42.5v-12h80v-142h-80v-503h-159v503h-55v142h55v29q0 86 45 132t130 46z" />
    <glyph glyph-name="uni2007.tf" 
 />
    <glyph glyph-name="dagger.tf" 
d="M359 488h126v-150h-126v-338h-159v338h-126v150h126v167h159v-167z" />
    <glyph glyph-name="daggerdbl.tf" 
d="M305 488h126v-150h-126v-61h126v-150h-126v-127h-159v127h-126v150h126v61h-126v150h126v167h159v-167z" />
    <glyph glyph-name="perthousand.tf" horiz-adv-x="1277" 
d="M211 667q86 0 130.5 -44.5t44.5 -130.5v-25q0 -85 -44 -130t-131 -45q-85 0 -130.5 44t-45.5 131v25q0 86 45.5 130.5t130.5 44.5zM360 0h-179l359 655h180zM211 531q-23 0 -23 -32v-39q0 -32 23 -32t23 32v39q0 32 -23 32zM689 363q86 0 130.5 -44.5t44.5 -130.5v-25
q0 -85 -44 -130t-131 -45q-85 0 -130.5 44t-45.5 131v25q0 86 45.5 130.5t130.5 44.5zM1067 363q86 0 130.5 -44.5t44.5 -130.5v-25q0 -85 -44 -130t-131 -45q-85 0 -130.5 44t-45.5 131v25q0 86 45.5 130.5t130.5 44.5zM689 227q-23 0 -23 -32v-39q0 -32 23 -32t23 32v39
q0 32 -23 32zM1067 227q-23 0 -23 -32v-39q0 -32 23 -32t23 32v39q0 32 -23 32z" />
    <glyph glyph-name="Euro.tf" 
d="M351 667q61 0 166 -19l-2 -142q-94 16 -134 16q-57 0 -79 -17.5t-22 -68.5v-1h210l-22 -102h-188v-27h177l-22 -102h-154v-1q5 -39 27.5 -52t72.5 -13q40 0 134 20l2 -150q-109 -20 -166 -20q-119 0 -175 52.5t-56 162.5v1h-76l22 102h54v27h-66l22 102h44v1
q0 123 52.5 177t178.5 54z" />
    <glyph glyph-name="partialdiff.tf" 
d="M124 565v130q166 0 255 -92.5t89 -266.5v-155q0 -91 -47 -142t-142 -51q-104 0 -146 42.5t-42 139.5v88q0 85 34.5 133t90.5 48q24 0 52.5 -15t44.5 -39v16q0 164 -189 164zM269 292q-10 0 -14.5 -9t-4.5 -35v-85q0 -33 29 -33q30 0 30 33v97q-20 32 -40 32z" />
    <glyph glyph-name="product.tf" 
d="M577 505h-85v-690h-159v690h-107v-690h-159v690h-85v150h595v-150z" />
    <glyph glyph-name="summation.tf" 
d="M486 508h-219l136 -216v-95l-144 -235h227v-147h-413v120l182 302l-182 298v120h413v-147z" />
    <glyph glyph-name="minus.tf" 
d="M472 239h-384v141h384v-141z" />
    <glyph glyph-name="radical.tf" 
d="M589 606h-116l-171 -606h-184l-147 542h169l75 -419l132 614h242v-131z" />
    <glyph glyph-name="infinity.tf" 
d="M385 461q74 0 110.5 -36t36.5 -114v-9q0 -76 -35 -113t-112 -37q-29 0 -58.5 14t-46.5 39q-17 -25 -46.5 -39t-58.5 -14q-76 0 -111.5 37t-35.5 113v9q0 78 36 114t111 36q29 0 58.5 -14.5t46.5 -37.5q17 23 46.5 37.5t58.5 14.5zM189 339q-22 0 -22 -21v-24
q0 -19 22 -19q24 0 24 20v23q0 21 -24 21zM371 339q-24 0 -24 -21v-23q0 -20 24 -20q22 0 22 19v24q0 21 -22 21z" />
    <glyph glyph-name="integral.tf" 
d="M376 750q52 0 97 -10v-137q-45 6 -66 6q-26 0 -36.5 -11t-10.5 -43v-569q0 -85 -45.5 -134t-129.5 -49q-52 0 -97 10v137q45 -6 66 -6q26 0 36.5 11.5t10.5 42.5v569q0 86 46 134.5t129 48.5z" />
    <glyph glyph-name="approxequal.tf" 
d="M216 505q29 0 67.5 -12t65.5 -12q20 0 50.5 8.5t51.5 16.5l21 8v-143q-63 -34 -126 -34q-30 0 -69 12t-66 12q-20 0 -50.5 -8.5t-51.5 -16.5l-21 -8v143q65 34 128 34zM216 315q29 0 67.5 -12t65.5 -12q20 0 50.5 8.5t51.5 16.5l21 8v-143q-63 -34 -126 -34
q-30 0 -69.5 12t-66.5 12q-20 0 -50.5 -8t-51.5 -17l-20 -8v143q65 34 128 34z" />
    <glyph glyph-name="notequal.tf" 
d="M439 482h32v-142h-120l-25 -39h145v-142h-233l-21 -34h-119l21 34h-31v142h119l25 39h-144v142h232l21 33h119z" />
    <glyph glyph-name="lessequal.tf" 
d="M475 457l-165 -68l165 -69v-162l-389 173v116l389 172v-162zM475 0h-389v142h389v-142z" />
    <glyph glyph-name="greaterequal.tf" 
d="M475 447v-116l-389 -173v162l165 69l-165 68v162zM475 0h-389v142h389v-142z" />
    <glyph glyph-name="lozenge.tf" 
d="M553 343l-200 -343h-145l-200 343l200 340h145zM177 343l103 -205l104 205l-104 205z" />
    <glyph glyph-name="quotedbl.tosf" 
d="M194 388h-159v295h159v-295zM388 388h-159v295h159v-295z" />
    <glyph glyph-name="numbersign.tosf" 
d="M470 450h64v-142h-64v-93h64v-142h-64v-73h-157v73h-65v-73h-157v73h-64v142h64v93h-64v142h64v73h157v-73h65v73h157v-73zM248 308v-93h65v93h-65z" />
    <glyph glyph-name="dollar.tosf" 
d="M359 605v-86q6 -1 71 -9l-1 -136q-84 16 -139 16q-44 0 -44 -23v-7q0 -17 31 -26l66 -21q66 -21 94 -54.5t28 -95.5v-18q0 -120 -106 -147v-91h-151v85q-55 7 -96 14l1 137q90 -20 140 -20q61 0 61 26v9q0 18 -28 27l-66 21q-67 21 -95.5 55t-28.5 95v10q0 122 112 149
v90h151z" />
    <glyph glyph-name="percent.tosf" horiz-adv-x="923" 
d="M211 625q86 0 130.5 -44.5t44.5 -130.5v-25q0 -85 -44 -130t-131 -45q-85 0 -130.5 44t-45.5 131v25q0 86 45.5 130.5t130.5 44.5zM384 0h-179l335 613h180zM211 489q-23 0 -23 -32v-39q0 -32 23 -32t23 32v39q0 32 -23 32zM713 363q86 0 130.5 -44.5t44.5 -130.5v-25
q0 -85 -44 -130t-131 -45q-85 0 -130.5 44t-45.5 131v25q0 86 45.5 130.5t130.5 44.5zM713 227q-23 0 -23 -32v-39q0 -32 23 -32t23 32v39q0 32 -23 32z" />
    <glyph glyph-name="quotesingle.tosf" 
d="M194 388h-159v295h159v-295z" />
    <glyph glyph-name="plus.tosf" 
d="M356 321h116v-142h-116v-127h-152v127h-117v142h117v127h152v-127z" />
    <glyph glyph-name="zero.tosf" 
d="M281 523q198 0 198 -207v-119q0 -209 -198 -209q-199 0 -199 209v119q0 207 199 207zM281 380q-21 0 -30 -11.5t-9 -40.5v-143q0 -29 9 -41.5t30 -12.5q39 0 39 54v143q0 29 -9.5 40.5t-29.5 11.5z" />
    <glyph glyph-name="one.tosf" 
d="M383 142h94v-142h-360v142h106v199h-2l-98 -37l-31 145l176 62h115v-369z" />
    <glyph glyph-name="two.tosf" 
d="M259 523q105 0 153 -41.5t48 -124.5v-17q0 -88 -69 -146l-64 -52h140v-142h-364v112l145 125q31 27 42 45.5t11 41.5v9q0 48 -75 48q-48 0 -126 -23v142q89 23 159 23z" />
    <glyph glyph-name="three.tosf" 
d="M255 523q88 0 139 -44.5t51 -111.5v-18q0 -39 -23.5 -76t-61.5 -52q41 -13 68.5 -52.5t27.5 -83.5v-12q0 -206 -350 -207v136q113 5 152 25t39 64v8q0 27 -12.5 39t-41.5 12h-108v138h103q48 0 48 48v9q0 39 -51 39q-46 0 -129 -15v139q88 15 149 15z" />
    <glyph glyph-name="four.tosf" 
d="M323 488l-96 -348h70v33l13 73h143v-106h62v-140h-62v-115h-157v115h-204l-36 76l137 447z" />
    <glyph glyph-name="five.tosf" 
d="M435 369h-188v-101q14 17 42.5 28.5t59.5 11.5q127 0 127 -171v-29q0 -116 -85 -178.5t-279 -63.5v135q121 5 163 27.5t42 71.5v22q0 43 -37 43q-35 0 -69 -38h-120v384h344v-142z" />
    <glyph glyph-name="six.tosf" 
d="M433 606v-136q-113 -5 -152 -25t-39 -64v-21q45 45 102 45q64 0 99.5 -46.5t35.5 -142.5v-32q0 -97 -51 -146.5t-148 -49.5q-96 0 -147 52t-51 148v181q0 236 351 237zM293 260q-24 0 -51 -30v-50q0 -49 38 -49q40 0 40 45v43q0 23 -6 32t-21 9z" />
    <glyph glyph-name="seven.tosf" 
d="M489 414l-205 -528h-167l187 483v1h-224v141h409v-97z" />
    <glyph glyph-name="eight.tosf" 
d="M281 613q89 0 136.5 -39t47.5 -115v-14q0 -34 -19 -68t-49 -48q40 -15 65 -52.5t25 -78.5v-23q0 -90 -53 -138.5t-153 -48.5t-153.5 48t-53.5 139v23q0 40 26 77.5t65 53.5q-31 14 -49.5 48t-18.5 68v14q0 75 47.5 114.5t136.5 39.5zM281 484q-30 0 -30 -31v-28
q0 -32 30 -32q29 0 29 32v28q0 31 -29 31zM281 259q-48 0 -48 -47v-51q0 -18 12.5 -29t35.5 -11t35 11t12 29v51q0 22 -12.5 34.5t-34.5 12.5z" />
    <glyph glyph-name="nine.tosf" 
d="M276 523q96 0 147 -51.5t51 -148.5v-224q0 -116 -53 -170.5t-162 -54.5q-80 0 -147 13v142q72 -14 127 -14q36 0 55.5 17.5t19.5 47.5v52q-45 -45 -102 -45q-64 0 -99.5 46.5t-35.5 142.5v51q0 96 51 146t148 50zM276 380q-40 0 -40 -45v-62q0 -24 6.5 -32.5t20.5 -8.5
q24 0 51 30v69q0 49 -38 49z" />
    <glyph glyph-name="less.tosf" 
d="M474 315l-165 -68l165 -69v-162l-389 173v116l389 172v-162z" />
    <glyph glyph-name="equal.tosf" 
d="M471 280h-383v142h383v-142zM471 99h-383v142h383v-142z" />
    <glyph glyph-name="greater.tosf" 
d="M474 305v-116l-389 -173v162l165 69l-165 68v162z" />
    <glyph glyph-name="asciitilde.tosf" 
d="M216 335q29 0 67.5 -12t65.5 -12q20 0 50.5 8.5t51.5 16.5l21 8v-143q-63 -34 -126 -34q-30 0 -69 12t-66 12q-20 0 -50.5 -8t-51.5 -17l-21 -8v143q65 34 128 34z" />
    <glyph glyph-name="cent.tosf" 
d="M367 576v-81q43 -5 58 -8l-2 -142q-66 11 -90 11q-41 0 -55 -14t-14 -54v-89q0 -39 14.5 -52.5t54.5 -13.5q28 0 89 12l4 -144q-3 -1 -59 -9v-80h-151v88q-111 36 -111 181v126q0 145 111 181v88h151z" />
    <glyph glyph-name="sterling.tosf" 
d="M313 523q63 0 133 -17v-130q-60 13 -93 13q-38 0 -51 -9.5t-13 -32.5v-7h74v-124h-74v-5q0 -42 -39 -71h233v-140h-386v101q33 37 33 109v6h-53v124h53v15q0 168 183 168z" />
    <glyph glyph-name="currency.tosf" 
d="M528 389l-60 -59q7 -25 7 -61v-17q0 -42 -10 -67l63 -61l-108 -109l-60 64q-30 -11 -73 -11t-71 10l-60 -61l-106 107l60 59q-12 28 -12 69v17q0 37 9 63l-57 57l106 106l54 -54q34 12 77 12q42 0 78 -13l55 56zM287 309q-32 0 -32 -37v-23q0 -38 32 -38t32 38v23
q0 37 -32 37z" />
    <glyph glyph-name="yen.tosf" 
d="M399 295h41v-102h-85v-28h85v-102h-85v-63h-150v63h-85v102h85v28h-85v102h41l-112 216h167l65 -212l65 212h165z" />
    <glyph glyph-name="section.tosf" 
d="M296 695q55 0 127 -14l-2 -141q-77 17 -113 17q-42 0 -42 -24v-16q0 -19 21 -29l108 -57q49 -26 69.5 -55.5t20.5 -70.5v-32q0 -75 -85 -117q24 -14 38 -41t13 -54v-32q-3 -148 -194 -148q-50 0 -128 17l3 142q79 -19 113 -19q48 0 48 24v13q0 20 -20 30l-109 54
q-90 45 -90 130v31q0 36 22 67t63 49q-24 16 -37.5 43t-13.5 53v32q0 69 46 108.5t142 39.5zM308 322l-21 8q-55 -3 -55 -35v-15q0 -19 19 -26l21 -8q55 1 55 35v15q0 19 -19 26z" />
    <glyph glyph-name="logicalnot.tosf" 
d="M475 52h-152v127h-238v141h390v-268z" />
    <glyph glyph-name="degree.tosf" 
d="M203 695q90 0 135.5 -47.5t45.5 -137.5v-19q0 -91 -46 -138.5t-135 -47.5q-90 0 -136.5 47.5t-46.5 138.5v19q0 90 46.5 137.5t136.5 47.5zM203 561q-32 0 -32 -45v-32q0 -44 32 -44q30 0 30 44v32q0 45 -30 45z" />
    <glyph glyph-name="plusminus.tosf" 
d="M356 373h116v-142h-116v-57h-152v57h-117v142h117v115h152v-115zM472 0h-385v142h385v-142z" />
    <glyph glyph-name="mu.tosf" 
d="M467 0h-145v60q-22 -31 -41 -45q-15 -11 -30 -15v-185h-157v673h160v-314q0 -37 16 -37q18 0 38 29v322h159v-488z" />
    <glyph glyph-name="multiply.tosf" 
d="M471 340l-89 -89l91 -91l-106 -102l-90 88l-87 -87l-102 101l88 88l-89 90l102 107l92 -92l88 88z" />
    <glyph glyph-name="divide.tosf" 
d="M280 509q85 0 85 -79v-14q0 -36 -21.5 -56.5t-63.5 -20.5q-41 0 -62.5 20.5t-21.5 56.5v14q0 37 21.5 58t62.5 21zM471 179h-383v141h383v-141zM280 160q42 0 63.5 -20.5t21.5 -57.5v-14q0 -36 -21.5 -57t-63.5 -21q-41 0 -62.5 21t-21.5 57v14q0 37 21.5 57.5t62.5 20.5
z" />
    <glyph glyph-name="florin.tosf" 
d="M312 612q51 0 97 -10v-137q-45 6 -66 6q-26 0 -36.5 -11.5t-10.5 -42.5v-12h80v-142h-80v-448h-159v448h-55v142h55v29q0 86 45 132t130 46z" />
    <glyph glyph-name="uni2007.tosf" 
 />
    <glyph glyph-name="dagger.tosf" 
d="M359 407h116v-150h-116v-257h-159v257h-116v150h116v117h159v-117z" />
    <glyph glyph-name="daggerdbl.tosf" 
d="M359 422h116v-140h-116v-40h96v-140h-96v-102h-159v102h-96v140h96v40h-116v140h116v102h159v-102z" />
    <glyph glyph-name="perthousand.tosf" horiz-adv-x="1301" 
d="M211 625q86 0 130.5 -44.5t44.5 -130.5v-25q0 -85 -44 -130t-131 -45q-85 0 -130.5 44t-45.5 131v25q0 86 45.5 130.5t130.5 44.5zM384 0h-179l335 613h180zM211 489q-23 0 -23 -32v-39q0 -32 23 -32t23 32v39q0 32 -23 32zM713 363q86 0 130.5 -44.5t44.5 -130.5v-25
q0 -85 -44 -130t-131 -45q-85 0 -130.5 44t-45.5 131v25q0 86 45.5 130.5t130.5 44.5zM1091 363q86 0 130.5 -44.5t44.5 -130.5v-25q0 -85 -44 -130t-131 -45q-85 0 -130.5 44t-45.5 131v25q0 86 45.5 130.5t130.5 44.5zM713 227q-23 0 -23 -32v-39q0 -32 23 -32t23 32v39
q0 32 -23 32zM1091 227q-23 0 -23 -32v-39q0 -32 23 -32t23 32v39q0 32 -23 32z" />
    <glyph glyph-name="Euro.tosf" 
d="M339 523q42 0 142 -16l-2 -127q-76 13 -112 13q-40 0 -55 -10t-19 -39v-1h162l-16 -72h-146v-31h134l-16 -72h-117v-1q4 -27 20.5 -37t53.5 -10q38 0 111 16l2 -132q-94 -16 -142 -16q-101 0 -147.5 44.5t-46.5 134.5v1h-65l16 72h49v31h-55l16 72h39v1q0 179 194 179z
" />
    <glyph glyph-name="partialdiff.tosf" 
d="M124 565v130q166 0 255 -92.5t89 -266.5v-155q0 -91 -47 -142t-142 -51q-104 0 -146 42.5t-42 139.5v88q0 85 34.5 133t90.5 48q24 0 52.5 -15t44.5 -39v16q0 164 -189 164zM269 292q-10 0 -14.5 -9t-4.5 -35v-85q0 -33 29 -33q30 0 30 33v97q-20 32 -40 32z" />
    <glyph glyph-name="product.tosf" 
d="M577 505h-85v-690h-159v690h-107v-690h-159v690h-85v150h595v-150z" />
    <glyph glyph-name="summation.tosf" 
d="M486 508h-219l136 -216v-95l-144 -235h227v-147h-413v120l182 302l-182 298v120h413v-147z" />
    <glyph glyph-name="minus.tosf" 
d="M472 179h-384v141h384v-141z" />
    <glyph glyph-name="radical.tosf" 
d="M575 552h-116l-157 -552h-184l-133 488h168l62 -365l118 560h242v-131z" />
    <glyph glyph-name="infinity.tosf" 
d="M385 401q74 0 110.5 -36t36.5 -114v-9q0 -76 -35 -113t-112 -37q-29 0 -58.5 14t-46.5 39q-17 -25 -46.5 -39t-58.5 -14q-76 0 -111.5 37t-35.5 113v9q0 78 36 114t111 36q29 0 58.5 -14.5t46.5 -37.5q17 23 46.5 37.5t58.5 14.5zM189 279q-22 0 -22 -21v-24
q0 -19 22 -19q24 0 24 20v23q0 21 -24 21zM371 279q-24 0 -24 -21v-23q0 -20 24 -20q22 0 22 19v24q0 21 -22 21z" />
    <glyph glyph-name="integral.tosf" 
d="M375 695q52 0 97 -10v-137q-45 6 -66 6q-26 0 -36.5 -11t-10.5 -43v-514q0 -85 -45.5 -134t-129.5 -49q-52 0 -97 10v137q45 -6 66 -6q26 0 36.5 11.5t10.5 42.5v514q0 86 46 134.5t129 48.5z" />
    <glyph glyph-name="approxequal.tosf" 
d="M216 445q29 0 67.5 -12t65.5 -12q20 0 50.5 8.5t51.5 16.5l21 8v-143q-63 -34 -126 -34q-30 0 -69 12t-66 12q-20 0 -50.5 -8.5t-51.5 -16.5l-21 -8v143q65 34 128 34zM216 255q29 0 67.5 -12t65.5 -12q20 0 50.5 8t51.5 17l21 8v-143q-63 -34 -126 -34q-30 0 -69.5 12
t-66.5 12q-20 0 -50.5 -8.5t-51.5 -16.5l-20 -8v143q65 34 128 34z" />
    <glyph glyph-name="notequal.tosf" 
d="M439 422h32v-142h-120l-25 -39h145v-142h-233l-21 -34h-119l21 34h-31v142h119l25 39h-144v142h232l21 33h119z" />
    <glyph glyph-name="lessequal.tosf" 
d="M474 427l-195 -48l195 -49v-162l-389 153v116l389 152v-162zM474 0h-389v142h389v-142z" />
    <glyph glyph-name="greaterequal.tosf" 
d="M474 437v-116l-389 -153v162l195 49l-195 48v162zM474 0h-389v142h389v-142z" />
    <glyph glyph-name="lozenge.tosf" 
d="M553 343l-200 -343h-145l-200 343l200 340h145zM177 343l103 -205l104 205l-104 205z" />
    <glyph glyph-name="c_h" horiz-adv-x="831" 
d="M220 523q42 0 142 -16l-2 -130q-76 13 -112 13q-45 0 -59 -14t-14 -56v-128q0 -41 15 -55t59 -14q38 0 111 16l2 -135q-94 -16 -142 -16q-104 0 -149.5 44t-45.5 136v175q0 94 46.5 137t148.5 43zM801 0h-150v194h-92v-194h-150v511h150v-183h92v183h150v-511z" />
    <glyph glyph-name="c_k" horiz-adv-x="845" 
d="M220 523q42 0 142 -16l-2 -130q-76 13 -112 13q-45 0 -59 -14t-14 -56v-128q0 -41 15 -55t59 -14q38 0 111 16l2 -135q-94 -16 -142 -16q-104 0 -149.5 44t-45.5 136v175q0 94 46.5 137t148.5 43zM676 263l179 -263h-176l-120 184v-184h-150v511h150v-199l128 199h155z
" />
    <glyph glyph-name="s_t" horiz-adv-x="801" 
d="M198 523q60 0 141 -13l-1 -136q-84 16 -134 16q-39 0 -39 -23v-7q0 -18 26 -26l66 -21q65 -20 91 -53.5t26 -96.5v-18q0 -157 -187 -157q-56 0 -156 18l1 137q90 -20 135 -20q56 0 56 26v9q0 19 -23 27l-66 21q-66 21 -92.5 54.5t-26.5 95.5v10q0 157 183 157zM791 376
h-133v-376h-150v376h-134v135h417v-135z" />
    <glyph glyph-name="i.latn_TRK" horiz-adv-x="210" 
d="M105 744q89 0 89 -79v-23q0 -38 -23 -58.5t-66 -20.5q-42 0 -65.5 21t-23.5 58v23q0 39 23.5 59t65.5 20zM180 0h-150v511h150v-511z" />
    <glyph glyph-name="ldot.latn_CAT" horiz-adv-x="392" 
d="M180 135h183v-135h-333v511h150v-376zM301 404q89 0 89 -79v-23q0 -38 -23 -58.5t-66 -20.5q-42 0 -65.5 21t-23.5 58v23q0 39 23.5 59t65.5 20z" />
    <glyph glyph-name="parenleft.case" horiz-adv-x="254" 
d="M279 809v-132q-53 -1 -71.5 -16.5t-18.5 -52.5v-563q0 -36 19 -51t71 -16v-132q-137 0 -193 52.5t-56 169.5v519q0 117 56 169.5t193 52.5z" />
    <glyph glyph-name="parenright.case" horiz-adv-x="254" 
d="M-25 677v132q137 0 193 -52.5t56 -169.5v-519q0 -117 -56 -169.5t-193 -52.5v132q52 1 71 16t19 51v563q0 37 -18.5 52.5t-71.5 16.5z" />
    <glyph glyph-name="plus.case" horiz-adv-x="430" 
d="M291 391h116v-142h-116v-127h-152v127h-117v142h117v127h152v-127z" />
    <glyph glyph-name="hyphen.case" horiz-adv-x="290" 
d="M270 257h-250v138h250v-138z" />
    <glyph glyph-name="slash.case" horiz-adv-x="337" 
d="M147 0h-162l205 683h162z" />
    <glyph glyph-name="less.case" horiz-adv-x="430" 
d="M409 385l-165 -68l165 -69v-162l-389 173v116l389 172v-162z" />
    <glyph glyph-name="equal.case" horiz-adv-x="430" 
d="M406 350h-383v142h383v-142zM406 169h-383v142h383v-142z" />
    <glyph glyph-name="greater.case" horiz-adv-x="430" 
d="M409 375v-116l-389 -173v162l165 69l-165 68v162z" />
    <glyph glyph-name="bracketleft.case" horiz-adv-x="264" 
d="M289 677h-100v-699h100v-132h-259v961h259v-130z" />
    <glyph glyph-name="backslash.case" horiz-adv-x="337" 
d="M352 0h-162l-205 683h162z" />
    <glyph glyph-name="bracketright.case" horiz-adv-x="264" 
d="M234 -154h-259v132h100v699h-100v132h259v-963z" />
    <glyph glyph-name="grave.case" horiz-adv-x="307" 
d="M277 706h-124l-123 159h160z" />
    <glyph glyph-name="braceleft.case" horiz-adv-x="305" 
d="M330 809v-132q-53 1 -71.5 -13t-18.5 -51v-182q0 -40 -22 -68t-60 -35q38 -7 60 -35t22 -68v-183q0 -37 18.5 -51t71.5 -13v-132q-134 -2 -191.5 47.5t-57.5 169.5v168q0 26 -25 26h-51v142h51q25 0 25 26v167q0 120 57.5 169.5t191.5 47.5z" />
    <glyph glyph-name="braceright.case" horiz-adv-x="305" 
d="M-25 677v132q134 2 191.5 -47.5t57.5 -169.5v-167q0 -26 25 -26h51v-142h-51q-25 0 -25 -26v-168q0 -120 -57.5 -169.5t-191.5 -47.5v132q53 -1 71.5 13t18.5 51v183q0 40 22 68t60 35q-38 7 -60 35t-22 68v182q0 37 -18.5 51t-71.5 13z" />
    <glyph glyph-name="asciitilde.case" horiz-adv-x="430" 
d="M151 405q29 0 67.5 -12t65.5 -12q20 0 51 8.5t51 16.5l21 8v-143q-63 -34 -126 -34q-30 0 -69 12t-66 12q-20 0 -50.5 -8t-51.5 -17l-21 -8v143q65 34 128 34z" />
    <glyph glyph-name="dieresis.case" horiz-adv-x="451" 
d="M114 878q85 0 85 -75v-22q0 -36 -22 -55.5t-63 -19.5q-39 0 -61.5 20t-22.5 55v22q0 36 22 55.5t62 19.5zM336 878q85 0 85 -75v-22q0 -36 -22 -55.5t-63 -19.5q-39 0 -61.5 20t-22.5 55v22q0 36 22 55.5t62 19.5z" />
    <glyph glyph-name="guillemotleft.case" horiz-adv-x="542" 
d="M199 295l101 -184h-172l-108 184l108 183h173zM421 295l100 -184h-171l-109 184l109 183h172z" />
    <glyph glyph-name="uni00AD.case" horiz-adv-x="290" 
d="M270 256h-250v138h250v-138z" />
    <glyph glyph-name="macron.case" horiz-adv-x="347" 
d="M317 706h-287v122h287v-122z" />
    <glyph glyph-name="acute.case" horiz-adv-x="307" 
d="M154 706h-124l87 159h160z" />
    <glyph glyph-name="periodcentered.case" horiz-adv-x="211" 
d="M105 400q91 0 91 -80v-24q0 -38 -23.5 -58.5t-67.5 -20.5t-67 20.5t-23 58.5v24q0 80 90 80z" />
    <glyph glyph-name="guillemotright.case" horiz-adv-x="542" 
d="M301 295l-109 -184h-171l100 184l-101 183h172zM522 295l-108 -184h-172l101 184l-102 183h173z" />
    <glyph glyph-name="multiply.case" horiz-adv-x="430" 
d="M406 410l-89 -89l91 -91l-106 -102l-90 88l-87 -87l-102 101l88 88l-89 90l102 107l92 -92l88 88z" />
    <glyph glyph-name="circumflex.case" horiz-adv-x="366" 
d="M336 830v-114l-153 59l-153 -59v114l153 73z" />
    <glyph glyph-name="caron.case" horiz-adv-x="366" 
d="M336 783l-153 -73l-153 73v114l153 -59l153 59v-114z" />
    <glyph glyph-name="breve.case" horiz-adv-x="366" 
d="M336 895v-126q-7 -7 -19 -18t-52 -29.5t-82 -18.5q-41 0 -79.5 16.5t-55.5 32.5l-18 17v126q7 -8 20.5 -20.5t53.5 -33.5t79 -21t77 19t57 37z" />
    <glyph glyph-name="dotaccent.case" horiz-adv-x="238" 
d="M119 885q89 0 89 -79v-23q0 -38 -23 -58.5t-66 -20.5q-42 0 -65.5 21t-23.5 58v23q0 39 23.5 59t65.5 20z" />
    <glyph glyph-name="ring.case" horiz-adv-x="340" 
d="M170 930q67 0 103.5 -32.5t36.5 -92.5q0 -61 -36 -93t-104 -32q-67 0 -103.5 32.5t-36.5 92.5q0 61 36 93t104 32zM170 838q-23 0 -23 -30t23 -30t23 30t-23 30z" />
    <glyph glyph-name="tilde.case" horiz-adv-x="366" 
d="M336 869v-111q-42 -39 -93 -39q-23 0 -63 16t-59 16q-16 0 -39 -8t-38 -16l-14 -8v111q42 39 93 39q30 0 68 -16.5t54 -16.5t38.5 8t37.5 16z" />
    <glyph glyph-name="hungarumlaut.case" horiz-adv-x="488" 
d="M160 706h-130l77 176h153zM358 706h-131l78 176h153z" />
    <glyph glyph-name="uni0326.case" horiz-adv-x="0" 
d="M107 -56q78 0 78 -69v-21q0 -23 -10 -56l-29 -86h-97l13 85q-32 14 -32 59v19q0 69 77 69z" />
    <glyph glyph-name="tonos.case" horiz-adv-x="273" 
d="M137 466h-137l58 189h185z" />
    <glyph glyph-name="endash.case" horiz-adv-x="550" 
d="M530 257h-510v138h510v-138z" />
    <glyph glyph-name="emdash.case" horiz-adv-x="650" 
d="M630 257h-610v138h610v-138z" />
    <glyph glyph-name="bullet.case" horiz-adv-x="223" 
d="M111 390q47 0 72 -22t25 -62v-27q0 -40 -25 -62t-72 -22q-46 0 -71 22t-25 62v27q0 40 25 62t71 22z" />
    <glyph glyph-name="guilsinglleft.case" horiz-adv-x="320" 
d="M199 295l101 -184h-172l-108 184l108 183h172z" />
    <glyph glyph-name="guilsinglright.case" horiz-adv-x="321" 
d="M301 295l-109 -184h-172l102 184l-101 183h171z" />
    <glyph glyph-name="minus.case" horiz-adv-x="430" 
d="M407 219h-384v141h384v-141z" />
    <glyph glyph-name="infinity.case" horiz-adv-x="548" 
d="M379 471q74 0 110.5 -36t36.5 -114v-9q0 -76 -35 -113t-112 -37q-29 0 -58.5 14t-46.5 39q-17 -25 -46.5 -39t-58.5 -14q-76 0 -111.5 37t-35.5 113v9q0 78 36 114t111 36q29 0 58.5 -14.5t46.5 -37.5q17 23 46.5 37.5t58.5 14.5zM183 349q-22 0 -22 -21v-24
q0 -19 22 -19q24 0 24 20v23q0 21 -24 21zM365 349q-24 0 -24 -21v-23q0 -20 24 -20q22 0 22 19v24q0 21 -22 21z" />
    <glyph glyph-name="approxequal.case" horiz-adv-x="430" 
d="M151 515q29 0 67.5 -12t65.5 -12q20 0 51 8.5t51 16.5l21 8v-143q-63 -34 -126 -34q-30 0 -69 12t-66 12q-20 0 -50.5 -8.5t-51.5 -16.5l-21 -8v143q65 34 128 34zM151 325q29 0 67.5 -12t65.5 -12q20 0 51 8.5t51 16.5l21 8v-143q-63 -34 -126 -34q-30 0 -69.5 12
t-66.5 12q-20 0 -50.5 -8t-50.5 -17l-21 -8v143q65 34 128 34z" />
    <glyph glyph-name="notequal.case" horiz-adv-x="430" 
d="M374 492h32v-142h-120l-25 -39h145v-142h-233l-21 -34h-119l21 34h-31v142h119l25 39h-144v142h232l21 33h119z" />
    <glyph glyph-name="zero.zero" horiz-adv-x="441" 
d="M221 613q198 0 198 -207v-209q0 -209 -198 -209q-199 0 -199 209v209q0 207 199 207zM221 470q-21 0 -30 -11.5t-9 -40.5v-109v-33l56 191q-8 3 -17 3zM260 337l-60 -202q7 -4 21 -4q39 0 39 54v119v33z" />
    <glyph glyph-name="zero.osf.zero" horiz-adv-x="439" 
d="M220 523q198 0 198 -207v-119q0 -209 -198 -209q-199 0 -199 209v119q0 207 199 207zM220 380q-21 0 -30 -11.5t-9 -40.5v-116v-10l52 176q-8 2 -13 2zM210 131h10q39 0 39 54v101v10z" />
    <glyph glyph-name="zero.tf.zero" 
d="M281 667q97 0 151.5 -51.5t54.5 -155.5v-263q0 -103 -54 -156t-152 -53q-99 0 -153 53t-54 156v263q0 104 54.5 155.5t152.5 51.5zM281 524q-47 0 -47 -52v-213v-10l79 265q-11 10 -32 10zM328 364l-68 -230q9 -3 21 -3q47 0 47 54v169v10z" />
    <glyph glyph-name="zero.tosf.zero" 
d="M281 523q198 0 198 -207v-119q0 -209 -198 -209q-199 0 -199 209v119q0 207 199 207zM281 380q-21 0 -30 -11.5t-9 -40.5v-116v-10l52 176q-8 2 -13 2zM271 131h10q39 0 39 54v101v10z" />
    <glyph glyph-name="uni0432.ss01" horiz-adv-x="411" 
d="M199 500q92 0 140.5 -35t48.5 -89v-5q0 -91 -86 -112q49 -10 75 -41.5t26 -78.5v-4q0 -147 -204 -147q-78 0 -169 4v505q70 3 169 3zM200 377q-11 0 -20 -1v-75h24q16 0 25 10t9 26v4q0 36 -38 36zM180 194v-79q12 -2 24 -2q49 0 49 39v3q0 39 -42 39h-31z" />
    <glyph glyph-name="uni0433.ss01" horiz-adv-x="355" 
d="M350 346h-161v-346h-159v488h320v-142z" />
    <glyph glyph-name="uni0434.ss01" horiz-adv-x="481" 
d="M251 500q81 0 178 -10v-351h59v-259h-148v120h-199v-120h-148v259h60v173q0 99 45.5 143.5t152.5 44.5zM244 372q-34 0 -34 -49v-184h62v232q-11 1 -28 1z" />
    <glyph glyph-name="uni0436.ss01" horiz-adv-x="655" 
d="M536 261l128 -261h-155l-91 187h-12v-187h-157v187h-13l-90 -187h-155l128 261l-123 227h157l86 -161h10v160h157v-160h10l86 161h157z" />
    <glyph glyph-name="uni043A.ss01" horiz-adv-x="467" 
d="M331 274l148 -274h-181l-92 187h-17v-187h-159v488h159v-161h16l99 161h168z" />
    <glyph glyph-name="uni044E.ss01" horiz-adv-x="599" 
d="M397 500q92 0 137 -46t45 -144v-132q0 -97 -44.5 -143.5t-137.5 -46.5q-92 0 -136 45t-45 142v2h-29v-177h-157v488h157v-169h29v2q0 179 181 179zM397 357q-15 0 -21 -9t-6 -33v-143q0 -42 27 -42q26 0 26 42v144q0 23 -6 32t-20 9z" />
    <glyph glyph-name="z.ss02" horiz-adv-x="379" 
d="M358 374l-110 -135l3 -1q120 -40 120 -167v-47q0 -116 -46.5 -168.5t-147.5 -52.5q-69 0 -157 14v143q71 -13 128 -13q40 0 52 11.5t12 52.5v56q-2 23 -12 32.5t-34 9.5h-102v93l108 140h-160v146h346v-114z" />
    <glyph glyph-name="germandbls.ss02" horiz-adv-x="509" 
d="M235 695q51 0 97 -10v-137q-45 6 -66 6q-26 0 -36.5 -11.5t-10.5 -42.5v-12h269v-114l-80 -134q56 -14 80 -55.5t24 -111.5v-54q0 -216 -164 -216q-46 0 -112 11v143q52 -10 73 -10q24 0 34 13t10 51v56q0 42 -38 42h-65v93l85 144h-116v-346h-159v346h-55v142h55v29
q0 86 45 132t130 46z" />
    <glyph glyph-name="ampersand.ss03" horiz-adv-x="588" 
d="M226 667q66 0 128 -8l-2 -139q-54 8 -98 8q-68 0 -68 -55v-13q0 -57 60 -57h19v-141h-18q-81 0 -81 -58v-17q0 -56 80 -56q84 0 84 78v139l31 114h126v-59h78v-141h-78v-84q0 -26 8.5 -36t30.5 -10q26 0 57 6v-141q-34 -9 -84 -9q-110 0 -145 63q-26 -29 -65.5 -46
t-79.5 -17q-92 0 -147 48t-55 134v23q0 50 32.5 92t87.5 59q-99 38 -99 136v15q0 76 53 124t145 48z" />
    <glyph glyph-name="caron.alt" horiz-adv-x="215" 
d="M107 695q78 0 78 -69v-21q0 -23 -10 -56l-29 -86h-97l13 85q-32 14 -32 59v19q0 69 77 69z" />
    </font>
</defs>
</svg>
