<?xml version="1.0" standalone="no"?>
<!DOCTYPE svg PUBLIC "-//W3C//DTD SVG 1.1//EN" "http://www.w3.org/Graphics/SVG/1.1/DTD/svg11.dtd" >
<svg>
<metadata>
Created by FontForge 20120731 at Sat Nov 16 10:55:35 2019
 By www
(c) 2014, Copyright by Botio Nikoltchev. All rights reserved.
</metadata>
<defs>
<font id="RopaSansSCPro-ExtraBold" horiz-adv-x="560" >
  <font-face 
    font-family="Ropa Sans SC Pro ExtraBold"
    font-weight="800"
    font-stretch="normal"
    units-per-em="1000"
    panose-1="2 11 9 4 2 1 1 1 1 2"
    ascent="800"
    descent="-200"
    x-height="511"
    cap-height="655"
    bbox="-189 -357 1252 920"
    underline-thickness="50"
    underline-position="-100"
    unicode-range="U+000D-FEFF"
  />
<missing-glyph horiz-adv-x="452" 
d="M42 0v655h368v-655h-368zM157 115h138v425h-138v-425z" />
    <glyph glyph-name="f_f" unicode="ff" horiz-adv-x="774" 
d="M365 395h-192v-81h137v-112h-137v-202h-129v511h321v-116zM752 395h-192v-81h137v-112h-137v-202h-129v511h321v-116z" />
    <glyph glyph-name="f_f_i" unicode="ffi" horiz-adv-x="990" 
d="M365 395h-192v-81h137v-112h-137v-202h-129v511h321v-116zM752 395h-192v-81h137v-112h-137v-202h-129v511h321v-116zM947 0h-129v511h129v-511z" />
    <glyph glyph-name="f_f_j" unicode="ffj" horiz-adv-x="1001" 
d="M365 395h-192v-81h137v-112h-137v-202h-129v511h321v-116zM752 395h-192v-81h137v-112h-137v-202h-129v511h321v-116zM958 511v-358q0 -85 -36.5 -125t-110.5 -40q-50 0 -82 9v109q26 -5 58 -5q23 0 32.5 10.5t9.5 38.5v361h129z" />
    <glyph glyph-name="f_f_l" unicode="ffl" horiz-adv-x="1151" 
d="M365 395h-192v-81h137v-112h-137v-202h-129v511h321v-116zM752 395h-192v-81h137v-112h-137v-202h-129v511h321v-116zM947 116h192v-116h-321v511h129v-395z" />
    <glyph glyph-name="f_i" unicode="fi" horiz-adv-x="603" 
d="M365 395h-192v-81h137v-112h-137v-202h-129v511h321v-116zM560 0h-129v511h129v-511z" />
    <glyph glyph-name="f_j" unicode="fj" horiz-adv-x="614" 
d="M365 395h-192v-81h137v-112h-137v-202h-129v511h321v-116zM571 511v-358q0 -85 -36.5 -125t-110.5 -40q-50 0 -82 9v109q26 -5 58 -5q23 0 32.5 10.5t9.5 38.5v361h129z" />
    <glyph glyph-name="f_l" unicode="fl" horiz-adv-x="764" 
d="M365 395h-192v-81h137v-112h-137v-202h-129v511h321v-116zM560 116h192v-116h-321v511h129v-395z" />
    <glyph glyph-name=".notdef" horiz-adv-x="452" 
d="M42 0v655h368v-655h-368zM157 115h138v425h-138v-425z" />
    <glyph glyph-name=".null" horiz-adv-x="0" 
 />
    <glyph glyph-name=".null" horiz-adv-x="0" 
 />
    <glyph glyph-name="uni000D" unicode="&#xd;" horiz-adv-x="111" 
 />
    <glyph glyph-name="space" unicode=" " horiz-adv-x="111" 
 />
    <glyph glyph-name="exclam" unicode="!" horiz-adv-x="211" 
d="M171 200h-132l-7 495h146zM105 152q81 0 81 -70v-25q0 -33 -21 -51t-60 -18q-38 0 -58.5 18t-20.5 51v25q0 70 79 70z" />
    <glyph glyph-name="quotedbl" unicode="&#x22;" horiz-adv-x="376" 
d="M167 401h-136v282h136v-282zM345 401h-136v282h136v-282z" />
    <glyph glyph-name="numbersign" unicode="#" horiz-adv-x="577" 
d="M470 503h69v-120h-69v-153h69v-120h-69v-110h-135v110h-93v-110h-135v110h-69v120h69v153h-69v120h69v110h135v-110h93v110h135v-110zM242 383v-153h93v153h-93z" />
    <glyph glyph-name="dollar" unicode="$" horiz-adv-x="431" 
d="M290 695v-86q43 -3 91 -11l-1 -123q-83 15 -143 15q-78 0 -78 -53v-11q0 -22 9.5 -33t36.5 -19l55 -16q88 -26 120.5 -64t32.5 -115v-14q0 -137 -123 -166v-92h-127v82q-44 4 -118 18l2 125q98 -22 146 -22q46 0 64.5 13t18.5 40v17q0 19 -11.5 30t-43.5 20l-55 17
q-82 25 -112.5 64t-30.5 119v8q0 143 140 168v89h127z" />
    <glyph glyph-name="percent" unicode="%" horiz-adv-x="883" 
d="M198 625q84 0 127 -43.5t43 -126.5v-27q0 -83 -42.5 -126.5t-127.5 -43.5q-82 0 -126 43.5t-44 126.5v27q0 83 43.5 126.5t126.5 43.5zM352 0h-151l335 613h151zM198 508q-38 0 -38 -49v-36q0 -48 38 -48t38 48v36q0 49 -38 49zM690 355q84 0 127 -43.5t43 -126.5v-27
q0 -83 -42.5 -126.5t-127.5 -43.5q-82 0 -126 43.5t-44 126.5v27q0 83 43.5 126.5t126.5 43.5zM690 238q-38 0 -38 -48v-36q0 -49 38 -49t38 49v36q0 48 -38 48z" />
    <glyph glyph-name="ampersand" unicode="&#x26;" horiz-adv-x="509" 
d="M231 667q62 0 129 -10l-2 -118q-63 10 -107 10q-79 0 -79 -68v-15q0 -35 20.5 -54.5t59.5 -19.5h68v54h130v-54h53v-119h-53v-257q-120 -28 -201 -28q-123 0 -178.5 46t-55.5 134v22q0 53 32 94.5t87 58.5q-97 38 -97 139v17q0 74 51.5 121t142.5 47zM320 273h-69
q-100 0 -100 -74v-20q0 -70 101 -70q33 0 68 8v156z" />
    <glyph glyph-name="quotesingle" unicode="'" horiz-adv-x="199" 
d="M167 401h-136v282h136v-282z" />
    <glyph glyph-name="parenleft" unicode="(" horiz-adv-x="247" 
d="M267 791v-113q-54 -2 -71.5 -17.5t-17.5 -58.5v-551q0 -41 17.5 -56.5t71.5 -17.5v-113q-127 0 -176 48t-49 163v505q0 115 49 163t176 48z" />
    <glyph glyph-name="parenright" unicode=")" horiz-adv-x="247" 
d="M-20 678v113q127 0 176 -47.5t49 -163.5v-505q0 -116 -49 -163.5t-176 -47.5v113q54 2 71.5 17.5t17.5 56.5v551q0 43 -17.5 58.5t-71.5 17.5z" />
    <glyph glyph-name="asterisk" unicode="*" horiz-adv-x="391" 
d="M240 594l87 51l40 -118l-101 -15l73 -66l-103 -73l-41 85l-42 -89l-101 78l72 66l-100 13l40 120l87 -51l-20 100h128z" />
    <glyph glyph-name="plus" unicode="+" horiz-adv-x="397" 
d="M263 353h123v-120h-123v-135h-129v135h-124v120h124v135h129v-135z" />
    <glyph glyph-name="comma" unicode="," horiz-adv-x="212" 
d="M106 152q80 0 80 -68v-28q0 -31 -7 -53l-54 -164h-97l41 156q-41 14 -41 63v26q0 68 78 68z" />
    <glyph glyph-name="hyphen" unicode="-" horiz-adv-x="308" 
d="M275 237h-241v116h241v-116z" />
    <glyph glyph-name="period" unicode="." horiz-adv-x="215" 
d="M107 152q80 0 80 -70v-25q0 -69 -80 -69t-80 69v25q0 70 80 70z" />
    <glyph glyph-name="slash" unicode="/" horiz-adv-x="312" 
d="M123 0h-138l205 683h138z" />
    <glyph glyph-name="zero" unicode="0" horiz-adv-x="459" 
d="M230 613q94 0 144 -51.5t50 -154.5v-211q0 -103 -49.5 -155.5t-144.5 -52.5q-195 0 -195 208v211q0 206 195 206zM230 492q-30 0 -44 -17.5t-14 -57.5v-232q0 -76 58 -76q57 0 57 76v232q0 75 -57 75z" />
    <glyph glyph-name="one" unicode="1" horiz-adv-x="315" 
d="M271 0h-136v458h-2l-109 -50l-27 123l172 70h102v-601z" />
    <glyph glyph-name="two" unicode="2" horiz-adv-x="392" 
d="M160 613q101 0 153 -44.5t52 -129.5v-20q0 -96 -87 -188l-101 -110h186v-121h-361v96l189 230q35 42 35 89v12q0 65 -82 65q-50 0 -126 -22v121q91 22 142 22z" />
    <glyph glyph-name="three" unicode="3" horiz-adv-x="379" 
d="M160 613q85 0 135 -42.5t50 -113.5v-16q0 -42 -22.5 -77.5t-59.5 -51.5q40 -14 67 -52.5t27 -85.5v-11q0 -77 -52.5 -126t-142.5 -49q-60 0 -144 14v118q80 -14 130 -14q35 0 54 18t19 50v10q0 67 -70 67h-102v117h99q61 0 61 63v12q0 52 -63 52q-44 0 -128 -15v119
q94 14 142 14z" />
    <glyph glyph-name="four" unicode="4" horiz-adv-x="441" 
d="M378 232h57v-120h-57v-112h-135v112h-241v90l200 399h176v-369zM151 232h93v28l9 207z" />
    <glyph glyph-name="five" unicode="5" horiz-adv-x="426" 
d="M364 483h-197v-130q41 41 110 41q64 0 97 -42.5t33 -136.5v-27q0 -100 -49.5 -150t-153.5 -50q-78 0 -164 23v119q105 -21 158 -21q73 0 73 74v31q0 60 -49 60q-47 0 -88 -47h-103v377h333v-121z" />
    <glyph glyph-name="six" unicode="6" horiz-adv-x="445" 
d="M373 606v-117q-116 -4 -160 -29.5t-44 -79.5v-32q52 52 112 52q66 0 103 -46t37 -139v-34q0 -95 -50 -144t-145 -49t-144.5 51t-49.5 146v182q0 236 341 239zM241 277q-31 0 -72 -41v-58q0 -69 57 -69q58 0 58 65v44q0 59 -43 59z" />
    <glyph glyph-name="seven" unicode="7" horiz-adv-x="388" 
d="M384 515l-208 -515h-146l198 478v2h-224v120h380v-85z" />
    <glyph glyph-name="eight" unicode="8" horiz-adv-x="439" 
d="M219 613q86 0 133 -39.5t47 -115.5v-11q0 -37 -18 -71t-49 -49q42 -17 66 -54t24 -81v-21q0 -88 -52.5 -135.5t-150.5 -47.5t-150.5 47.5t-52.5 135.5v21q0 43 25 80.5t65 54.5q-31 15 -49 49t-18 71v11q0 75 47 115t133 40zM220 503q-48 0 -48 -48v-25q0 -26 11 -37.5
t37 -11.5q25 0 36 11.5t11 37.5v25q0 48 -47 48zM220 268q-32 0 -49.5 -17.5t-17.5 -48.5v-43q0 -26 17.5 -41.5t49.5 -15.5t49 15.5t17 41.5v43q0 31 -17.5 48.5t-48.5 17.5z" />
    <glyph glyph-name="nine" unicode="9" horiz-adv-x="447" 
d="M220 612q92 0 143 -50t51 -147v-204q0 -115 -52 -169t-160 -54q-71 0 -141 14v120q68 -14 127 -14q89 0 89 88v56q-52 -52 -113 -52q-65 0 -102 46t-37 139v34q0 95 50 144t145 49zM220 491q-59 0 -59 -65v-44q0 -59 44 -59q32 0 71 41v58q0 69 -56 69z" />
    <glyph glyph-name="colon" unicode=":" horiz-adv-x="214" 
d="M107 152q80 0 80 -70v-25q0 -69 -80 -69t-80 69v25q0 70 80 70zM107 480q80 0 80 -70v-25q0 -69 -80 -69t-80 69v25q0 70 80 70z" />
    <glyph glyph-name="semicolon" unicode=";" horiz-adv-x="214" 
d="M106 152q80 0 80 -68v-28q0 -31 -7 -53l-54 -164h-97l41 156q-41 14 -41 63v26q0 68 78 68zM107 480q80 0 80 -70v-25q0 -69 -80 -69t-80 69v25q0 70 80 70z" />
    <glyph glyph-name="less" unicode="&#x3c;" horiz-adv-x="418" 
d="M398 372l-199 -82l199 -83v-138l-380 169v104l380 168v-138z" />
    <glyph glyph-name="equal" unicode="=" horiz-adv-x="427" 
d="M400 330h-374v119h374v-119zM400 152h-374v119h374v-119z" />
    <glyph glyph-name="greater" unicode="&#x3e;" horiz-adv-x="418" 
d="M398 342v-104l-380 -169v138l199 83l-199 82v138z" />
    <glyph glyph-name="question" unicode="?" horiz-adv-x="378" 
d="M162 695q100 0 145.5 -38t45.5 -116v-15q0 -87 -74 -166l-33 -36q-14 -14 -18.5 -25.5t-4.5 -34.5v-57h-133v50q0 51 7 73t35 54l52 59q20 23 26 38t6 39v10q0 25 -16 36t-56 11q-53 0 -131 -20v121q83 17 149 17zM157 152q81 0 81 -70v-25q0 -33 -21 -51t-60 -18
q-38 0 -58.5 18t-20.5 51v25q0 70 79 70z" />
    <glyph glyph-name="at" unicode="@" horiz-adv-x="909" 
d="M448 695q215 0 320 -90.5t105 -271.5v-55q0 -124 -63.5 -195t-174.5 -71q-108 0 -141 78q-71 -78 -133 -78t-94 47.5t-21 132.5l15 122q11 85 49.5 129t97.5 44q60 0 111 -49l4 36h127l-36 -267q-4 -40 3 -55.5t28 -15.5q37 0 64 41.5t27 107.5v48q0 124 -67.5 180.5
t-220.5 56.5q-134 0 -205 -69.5t-71 -193.5v-134q0 -124 56.5 -178.5t187.5 -54.5h178v-125h-178q-196 0 -288 87t-92 271v134q0 183 105.5 285.5t306.5 102.5zM444 362q-39 0 -49 -66l-13 -100q-9 -59 27 -59q31 0 64 43l20 156q-23 26 -49 26z" />
    <glyph glyph-name="A" unicode="A" horiz-adv-x="539" 
d="M543 0h-151l-30 128h-188l-30 -128h-146l190 655h165zM198 246h138l-69 295z" />
    <glyph glyph-name="B" unicode="B" horiz-adv-x="503" 
d="M234 666q110 0 169.5 -45.5t59.5 -117.5v-16q0 -106 -103 -144q59 -11 93.5 -51t34.5 -98v-18q0 -87 -60.5 -137.5t-188.5 -50.5q-107 0 -195 5v668q130 5 190 5zM229 544q-26 0 -44 -2v-151h57q39 0 59.5 19.5t20.5 54.5v14q0 65 -93 65zM185 272v-157q27 -2 57 -2
q104 0 104 73v17q0 69 -99 69h-62z" />
    <glyph glyph-name="C" unicode="C" horiz-adv-x="450" 
d="M264 667q48 0 158 -18l-2 -126q-98 16 -135 16q-61 0 -83 -21.5t-22 -79.5v-220q0 -58 22.5 -79t82.5 -21q44 0 135 19l2 -130q-104 -19 -158 -19q-122 0 -173.5 52t-51.5 162v251q0 111 52 162.5t173 51.5z" />
    <glyph glyph-name="D" unicode="D" horiz-adv-x="534" 
d="M242 666q126 0 192 -70t66 -197v-151q0 -125 -66.5 -192.5t-202.5 -67.5q-89 0 -187 7v666q138 5 198 5zM238 540q-35 0 -53 -1v-422q33 -3 53 -3q58 0 89.5 32.5t31.5 95.5v162q0 136 -121 136z" />
    <glyph glyph-name="E" unicode="E" horiz-adv-x="455" 
d="M422 525h-237v-128h217v-129h-217v-138h237v-130h-378v655h378v-130z" />
    <glyph glyph-name="F" unicode="F" horiz-adv-x="444" 
d="M422 525h-237v-128h173v-129h-173v-268h-141v655h378v-130z" />
    <glyph glyph-name="G" unicode="G" horiz-adv-x="522" 
d="M264 667q86 0 190 -20l-2 -127q-98 20 -181 20q-50 0 -70.5 -19.5t-20.5 -65.5v-252q0 -47 20 -67t67 -20q27 0 72 7v147h-79v126h220v-365q-121 -43 -219 -43q-120 0 -171 52t-51 162v251q0 112 52 163t173 51z" />
    <glyph glyph-name="H" unicode="H" horiz-adv-x="543" 
d="M499 0h-141v272h-173v-272h-141v655h141v-254h173v254h141v-655z" />
    <glyph glyph-name="I" unicode="I" horiz-adv-x="229" 
d="M185 0h-141v655h141v-655z" />
    <glyph glyph-name="J" unicode="J" horiz-adv-x="306" 
d="M263 655v-472q0 -195 -174 -195q-59 0 -90 11v122q40 -7 73 -7q26 0 38 14.5t12 48.5v478h141z" />
    <glyph glyph-name="K" unicode="K" horiz-adv-x="538" 
d="M296 334l248 -334h-168l-191 270v-270h-141v655h141v-281l193 281h147z" />
    <glyph glyph-name="L" unicode="L" horiz-adv-x="434" 
d="M185 129h237v-129h-378v655h141v-526z" />
    <glyph glyph-name="M" unicode="M" horiz-adv-x="668" 
d="M488 404l-82 -329h-145l-82 329l-6 -404h-133l6 655h173l116 -437l115 437h171l6 -655h-132z" />
    <glyph glyph-name="N" unicode="N" horiz-adv-x="545" 
d="M179 407v-407h-135v655h180l142 -407v407h135v-655h-176z" />
    <glyph glyph-name="O" unicode="O" horiz-adv-x="538" 
d="M269 667q230 0 230 -225v-229q0 -225 -230 -225t-230 225v229q0 225 230 225zM269 539q-89 0 -89 -88v-245q0 -90 89 -90t89 90v244q0 89 -89 89z" />
    <glyph glyph-name="P" unicode="P" horiz-adv-x="492" 
d="M232 666q122 1 183 -51t61 -144v-21q0 -98 -58.5 -153t-169.5 -55q-29 0 -63 5v-247h-141v660q100 6 188 6zM233 543q-34 0 -48 -2v-169q44 -4 52 -4q98 0 98 86v14q0 75 -102 75z" />
    <glyph glyph-name="Q" unicode="Q" horiz-adv-x="538" 
d="M269 667q230 0 230 -225v-229q0 -125 -90 -174l113 -24l1 -114h-48l-218 89q-3 -1 -9 -1q-209 13 -209 224v229q0 225 230 225zM269 539q-89 0 -89 -88v-247q0 -90 89 -90t89 90v246q0 89 -89 89z" />
    <glyph glyph-name="R" unicode="R" horiz-adv-x="523" 
d="M233 666q241 0 241 -189v-22q0 -52 -27 -95.5t-76 -68.5l158 -291h-156l-132 251q-26 -2 -56 1v-252h-141v661q148 5 189 5zM235 542q-27 0 -50 -3v-163q31 -3 49 -3q98 0 98 81v14q0 74 -97 74z" />
    <glyph glyph-name="S" unicode="S" horiz-adv-x="458" 
d="M235 667q64 0 159 -17l-2 -129q-106 18 -153 18q-72 0 -72 -57v-17q0 -22 10.5 -33.5t41.5 -21.5l85 -28q72 -23 102.5 -64.5t30.5 -119.5v-19q0 -96 -55 -143.5t-178 -47.5q-54 0 -160 22l1 132q108 -24 154 -24q97 0 97 59v22q0 40 -42 54l-93 31q-76 26 -105.5 65.5
t-29.5 117.5v10q0 190 209 190z" />
    <glyph glyph-name="T" unicode="T" horiz-adv-x="520" 
d="M504 525h-173v-525h-142v525h-173v130h488v-130z" />
    <glyph glyph-name="U" unicode="U" horiz-adv-x="539" 
d="M496 655v-441q0 -109 -56 -167.5t-171 -58.5q-113 0 -169 58t-56 167v442h141v-449q0 -44 22 -67t62 -23q85 0 85 90v449h142z" />
    <glyph glyph-name="V" unicode="V" horiz-adv-x="543" 
d="M353 0h-164l-185 655h149l118 -533l119 533h149z" />
    <glyph glyph-name="W" unicode="W" horiz-adv-x="822" 
d="M676 0h-167l-97 507l-96 -507h-169l-137 655h148l78 -513l97 513h156l98 -511l78 511h148z" />
    <glyph glyph-name="X" unicode="X" horiz-adv-x="539" 
d="M352 335l191 -335h-166l-108 221l-109 -221h-162l192 335l-182 320h164l101 -206l101 206h160z" />
    <glyph glyph-name="Y" unicode="Y" horiz-adv-x="526" 
d="M334 227v-227h-141v227l-189 428h158l102 -296l103 296h155z" />
    <glyph glyph-name="Z" unicode="Z" horiz-adv-x="474" 
d="M446 548l-255 -419h255v-129h-425v107l255 419h-248v129h418v-107z" />
    <glyph glyph-name="bracketleft" unicode="[" horiz-adv-x="263" 
d="M284 677h-106v-699h106v-113h-242v924h242v-112z" />
    <glyph glyph-name="backslash" unicode="\" horiz-adv-x="312" 
d="M328 0h-138l-205 683h138z" />
    <glyph glyph-name="bracketright" unicode="]" horiz-adv-x="263" 
d="M221 -135h-242v113h106v699h-106v113h242v-925z" />
    <glyph glyph-name="asciicircum" unicode="^" horiz-adv-x="489" 
d="M455 378h-142l-69 173l-68 -173h-142l151 305h119z" />
    <glyph glyph-name="underscore" unicode="_" horiz-adv-x="569" 
d="M535 -185h-501v115h501v-115z" />
    <glyph glyph-name="grave" unicode="`" horiz-adv-x="265" 
d="M235 554h-99l-106 137h130z" />
    <glyph glyph-name="a" unicode="a" horiz-adv-x="454" 
d="M458 0h-137l-22 94h-145l-22 -94h-134l155 511h150zM174 197h101l-50 215z" />
    <glyph glyph-name="b" unicode="b" horiz-adv-x="436" 
d="M208 522q91 0 140.5 -35.5t49.5 -90.5v-15q0 -87 -84 -112q49 -10 76 -41.5t27 -78.5v-12q0 -149 -208 -149q-76 0 -165 5v524q102 5 164 5zM206 414q-1 0 -33 -2v-103h41q56 0 56 48v13q0 44 -64 44zM173 208v-108q16 -2 41 -2q75 0 75 50v12q0 48 -69 48h-47z" />
    <glyph glyph-name="c" unicode="c" horiz-adv-x="392" 
d="M229 523q45 0 135 -15l-2 -112q-82 13 -112 13q-48 0 -65 -16t-17 -60v-154q0 -43 17.5 -59t64.5 -16q41 0 112 15l2 -116q-92 -15 -135 -15q-101 0 -145.5 42t-44.5 132v187q0 91 45 132.5t145 41.5z" />
    <glyph glyph-name="d" unicode="d" horiz-adv-x="462" 
d="M210 522q104 0 161 -56t57 -160v-106q0 -102 -57.5 -157t-169.5 -55q-80 0 -157 5v524q118 5 166 5zM208 410q-12 0 -36 -2v-305q14 -2 36 -2q44 0 67.5 23.5t23.5 67.5v111q0 59 -21.5 83t-69.5 24z" />
    <glyph glyph-name="e" unicode="e" horiz-adv-x="398" 
d="M365 395h-192v-81h175v-113h-175v-85h192v-116h-321v511h321v-116z" />
    <glyph glyph-name="f" unicode="f" horiz-adv-x="387" 
d="M365 395h-192v-81h137v-112h-137v-202h-129v511h321v-116z" />
    <glyph glyph-name="g" unicode="g" horiz-adv-x="453" 
d="M229 523q63 0 161 -17l-2 -112q-92 17 -153 17q-37 0 -52 -13t-15 -42v-200q0 -54 61 -54q25 0 53 4v103h-53v100h182v-292q-94 -29 -182 -29q-102 0 -146 41t-44 130v194q0 89 44 129.5t146 40.5z" />
    <glyph glyph-name="h" unicode="h" horiz-adv-x="470" 
d="M427 0h-129v204h-125v-204h-129v511h129v-192h125v192h129v-511z" />
    <glyph glyph-name="i" unicode="i" horiz-adv-x="216" 
d="M173 0h-129v511h129v-511z" />
    <glyph glyph-name="j" unicode="j" horiz-adv-x="271" 
d="M228 511v-358q0 -85 -36.5 -125t-110.5 -40q-50 0 -82 9v109q26 -5 58 -5q23 0 32.5 10.5t9.5 38.5v361h129z" />
    <glyph glyph-name="k" unicode="k" horiz-adv-x="464" 
d="M281 264l190 -264h-153l-145 205v-205h-129v511h129v-213l148 213h135z" />
    <glyph glyph-name="l" unicode="l" horiz-adv-x="377" 
d="M173 116h192v-116h-321v511h129v-395z" />
    <glyph glyph-name="m" unicode="m" horiz-adv-x="577" 
d="M536 0h-125l-5 297l-61 -236h-115l-62 235l-5 -296h-123l4 511h153l91 -331l92 331h152z" />
    <glyph glyph-name="n" unicode="n" horiz-adv-x="472" 
d="M428 0h-143l-117 290v-290h-124v511h149l112 -286v286h123v-511z" />
    <glyph glyph-name="o" unicode="o" horiz-adv-x="464" 
d="M232 523q194 0 194 -184v-167q0 -184 -194 -184q-193 0 -193 184v167q0 184 193 184zM233 409q-65 0 -65 -61v-181q0 -65 65 -65q64 0 64 62v180q0 65 -64 65z" />
    <glyph glyph-name="p" unicode="p" horiz-adv-x="425" 
d="M203 522q103 0 154.5 -41.5t51.5 -116.5v-19q0 -79 -47 -122t-133 -43q-31 0 -56 5v-185h-129v517q4 0 65.5 2.5t93.5 2.5zM206 412q-22 0 -33 -1v-119q21 -3 37 -3q69 0 69 60v10q0 53 -73 53z" />
    <glyph glyph-name="q" unicode="q" horiz-adv-x="464" 
d="M232 523q194 0 194 -184v-167q0 -104 -78 -148l77 -15l1 -89h-30l-171 68h-9q-177 14 -177 184v167q0 184 193 184zM233 409q-65 0 -65 -61v-183q0 -65 65 -65q64 0 64 62v182q0 65 -64 65z" />
    <glyph glyph-name="r" unicode="r" horiz-adv-x="451" 
d="M204 522q102 0 152 -39.5t50 -110.5v-13q0 -43 -21.5 -79t-60.5 -56l133 -224h-144l-107 193q-22 0 -33 1v-194h-129v517q110 5 160 5zM210 412q-17 0 -37 -2v-110q13 -2 35 -2q69 0 69 54v10q0 50 -67 50z" />
    <glyph glyph-name="s" unicode="s" horiz-adv-x="390" 
d="M201 523q57 0 135 -13l-1 -116q-84 15 -129 15q-53 0 -53 -36v-11q0 -14 7.5 -22t29.5 -14l69 -22q62 -20 87.5 -52.5t25.5 -93.5v-18q0 -75 -45 -113.5t-142 -38.5q-58 0 -146 18l1 117q86 -19 131 -19q71 0 71 38v14q0 27 -32 37l-72 22q-63 20 -88.5 53t-25.5 93v10
q0 152 177 152z" />
    <glyph glyph-name="t" unicode="t" horiz-adv-x="441" 
d="M425 395h-140v-395h-129v395h-140v116h409v-116z" />
    <glyph glyph-name="u" unicode="u" horiz-adv-x="468" 
d="M424 511v-342q0 -88 -47.5 -134.5t-142.5 -46.5t-142.5 46.5t-47.5 134.5v342h129v-346q0 -30 16 -46.5t45 -16.5t45 16.5t16 46.5v346h129z" />
    <glyph glyph-name="v" unicode="v" horiz-adv-x="464" 
d="M306 0h-147l-155 511h136l92 -405l92 405h136z" />
    <glyph glyph-name="w" unicode="w" horiz-adv-x="690" 
d="M570 0h-150l-75 382l-73 -382h-152l-110 511h135l55 -387l75 387h139l76 -385l55 385h135z" />
    <glyph glyph-name="x" unicode="x" horiz-adv-x="451" 
d="M298 261l157 -261h-149l-79 161l-81 -161h-148l157 261l-149 250h148l73 -151l73 151h147z" />
    <glyph glyph-name="y" unicode="y" horiz-adv-x="451" 
d="M290 177v-177h-129v177l-157 334h144l78 -221l79 221h142z" />
    <glyph glyph-name="z" unicode="z" horiz-adv-x="408" 
d="M380 415l-201 -299h201v-116h-359v95l201 300h-195v116h353v-96z" />
    <glyph glyph-name="braceleft" unicode="{" horiz-adv-x="290" 
d="M310 790v-113q-54 1 -71 -13.5t-17 -58.5v-171q0 -91 -75 -106q75 -17 75 -107v-171q0 -44 17 -58.5t71 -13.5v-113q-125 -2 -175 43t-50 163v154q0 23 -8.5 33t-28.5 10h-43v120h43q20 0 28.5 9.5t8.5 32.5v154q0 118 50.5 163t174.5 43z" />
    <glyph glyph-name="bar" unicode="|" horiz-adv-x="221" 
d="M178 -153h-136v960h136v-960z" />
    <glyph glyph-name="braceright" unicode="}" horiz-adv-x="290" 
d="M-20 677v113q125 2 175 -43t50 -163v-154q0 -42 37 -42h43v-120h-43q-37 0 -37 -43v-154q0 -118 -50 -163t-175 -43v113q54 -1 71.5 13.5t17.5 58.5v171q0 90 74 107q-36 7 -55 35t-19 71v171q0 43 -17.5 58t-71.5 14z" />
    <glyph glyph-name="asciitilde" unicode="~" horiz-adv-x="418" 
d="M140 368q32 0 72 -12.5t68 -12.5q19 0 48 7.5t48 15.5l20 7v-120q-57 -33 -118 -33q-32 0 -72.5 13t-69.5 13q-19 0 -47.5 -8t-48.5 -16l-19 -7v121q58 32 119 32z" />
    <glyph glyph-name="uni00A0" unicode="&#xa0;" horiz-adv-x="111" 
 />
    <glyph glyph-name="exclamdown" unicode="&#xa1;" horiz-adv-x="211" 
d="M105 358q-79 0 -79 70v25q0 33 20.5 51t58.5 18q39 0 60 -18t21 -51v-25q0 -70 -81 -70zM32 -185l7 495h132l7 -495h-146z" />
    <glyph glyph-name="cent" unicode="&#xa2;" horiz-adv-x="364" 
d="M276 576v-80q16 -1 64 -8l-2 -122q-66 11 -93 11q-43 0 -60.5 -17.5t-17.5 -60.5v-111q0 -42 17.5 -59t60.5 -17q33 0 92 11l3 -123q-41 -7 -64 -9v-79h-128v86q-117 31 -117 180v132q0 149 117 180v86h128z" />
    <glyph glyph-name="sterling" unicode="&#xa3;" horiz-adv-x="412" 
d="M248 613q58 0 122 -16v-117q-59 13 -90 13q-41 0 -57 -14.5t-16 -48.5v-45h80v-114h-80v-53q0 -62 -37 -95h239v-123h-374v94q35 40 35 103v74h-58v114h58v57q0 84 45.5 127.5t132.5 43.5z" />
    <glyph glyph-name="currency" unicode="&#xa4;" horiz-adv-x="489" 
d="M476 441l-60 -60q10 -29 10 -68v-18q0 -45 -13 -74l63 -62l-92 -92l-60 63q-36 -15 -81 -15q-47 0 -79 14l-60 -61l-91 91l61 60q-16 33 -16 76v18q0 42 12 71l-57 57l91 90l54 -54q35 16 85 16q49 0 86 -17l55 56zM242 371q-50 0 -50 -56v-22q0 -56 50 -56t50 56v22
q0 56 -50 56z" />
    <glyph glyph-name="yen" unicode="&#xa5;" horiz-adv-x="467" 
d="M335 287h58v-92h-88v-32h88v-93h-88v-70h-141v70h-88v93h88v32h-88v92h57l-158 314h157l103 -295l103 295h155z" />
    <glyph glyph-name="brokenbar" unicode="&#xa6;" horiz-adv-x="221" 
d="M178 395h-136v412h136v-412zM178 -152h-136v412h136v-412z" />
    <glyph glyph-name="section" unicode="&#xa7;" horiz-adv-x="420" 
d="M225 695q55 0 120 -13l-2 -120q-72 16 -108 16q-55 0 -55 -35v-22q0 -23 27 -37l108 -52q51 -24 73 -53.5t22 -70.5v-32q0 -39 -22 -70t-65 -48q25 -13 40 -40t15 -58v-33q-3 -146 -189 -146q-46 0 -126 16l3 122q74 -18 115 -18q60 0 60 34v19q0 29 -26 41l-108 49
q-50 22 -73 52.5t-23 74.5v29q0 41 23.5 73t65.5 47q-26 14 -41 41.5t-15 57.5v31q0 145 181 145zM242 336l-26 9q-69 -3 -69 -50v-18q0 -23 32 -35l29 -10q66 3 66 49v18q0 27 -32 37z" />
    <glyph glyph-name="dieresis" unicode="&#xa8;" horiz-adv-x="414" 
d="M104 724q75 0 75 -65v-24q0 -31 -19.5 -48t-55.5 -17q-35 0 -54.5 17t-19.5 48v24q0 31 19.5 48t54.5 17zM309 724q75 0 75 -65v-24q0 -31 -19.5 -48t-55.5 -17q-35 0 -54.5 17t-19.5 48v24q0 31 19.5 48t54.5 17z" />
    <glyph glyph-name="copyright" unicode="&#xa9;" horiz-adv-x="604" 
d="M302 616q135 0 201 -57t66 -160v-195q0 -103 -66 -160t-201 -57t-201 57t-66 160v195q0 103 66 160t201 57zM303 519q-82 0 -123.5 -31t-41.5 -86v-200q0 -55 42 -86.5t123 -31.5t122.5 31.5t41.5 86.5v201q0 55 -41.5 85.5t-122.5 30.5zM313 471q36 0 80 -7l-2 -100
q-21 3 -53 3q-36 0 -36 -44v-37q0 -46 36 -46q29 0 54 4l2 -100q-46 -8 -81 -8q-126 0 -126 145v46q0 144 126 144z" />
    <glyph glyph-name="ordfeminine" unicode="&#xaa;" horiz-adv-x="439" 
d="M217 667q102 0 141 -39t39 -143v-259h-126v58q-49 -70 -119 -70q-53 0 -84.5 36t-31.5 102v15q0 61 39 96t113 35q28 0 73 -9v19q0 27 -13 37t-48 10q-54 0 -129 -17v112q96 17 146 17zM219 418q-46 0 -46 -46v-12q0 -42 29 -42q31 0 59 44v51q-25 5 -42 5zM397 0h-361
v122h361v-122z" />
    <glyph glyph-name="guillemotleft" unicode="&#xab;" horiz-adv-x="525" 
d="M187 266l99 -180h-146l-106 180l106 179h146zM393 266l98 -180h-146l-106 180l106 179h146z" />
    <glyph glyph-name="logicalnot" unicode="&#xac;" horiz-adv-x="418" 
d="M399 98h-129v135h-252v119h381v-254z" />
    <glyph glyph-name="uni00AD" unicode="&#xad;" horiz-adv-x="308" 
d="M275 237h-241v116h241v-116z" />
    <glyph glyph-name="registered" unicode="&#xae;" horiz-adv-x="491" 
d="M245 695q197 0 197 -187v-30q0 -188 -197 -188q-196 0 -196 188v30q0 92 47 139.5t149 47.5zM245 629q-124 0 -124 -104v-64q0 -104 124 -104q65 0 94.5 25.5t29.5 78.5v64q0 53 -29.5 78.5t-94.5 25.5zM243 591q79 0 79 -58v-7q0 -33 -32 -50l43 -73h-50l-36 66h-18v-66
h-46v187q31 1 60 1zM249 551l-20 -1v-40h22q24 0 24 16v6q0 19 -26 19z" />
    <glyph glyph-name="macron" unicode="&#xaf;" horiz-adv-x="296" 
d="M266 570h-236v103h236v-103z" />
    <glyph glyph-name="degree" unicode="&#xb0;" horiz-adv-x="400" 
d="M201 695q174 0 174 -179v-20q0 -88 -44 -134.5t-130 -46.5q-87 0 -131.5 46.5t-44.5 134.5v20q0 87 44.5 133t131.5 46zM201 581q-48 0 -48 -61v-29q0 -61 48 -61q46 0 46 61v29q0 61 -46 61z" />
    <glyph glyph-name="plusminus" unicode="&#xb1;" horiz-adv-x="397" 
d="M263 382h123v-120h-123v-100h-129v100h-124v120h124v135h129v-135zM386 0h-376v120h376v-120z" />
    <glyph glyph-name="twosuperior" unicode="&#xb2;" horiz-adv-x="400" 
d="M186 760q153 0 153 -129v-14q0 -65 -61 -123l-55 -55h115v-108h-277v86l134 148q21 24 21 47v9q0 33 -47 33q-41 0 -96 -14v105q66 15 113 15z" />
    <glyph glyph-name="threesuperior" unicode="&#xb3;" horiz-adv-x="400" 
d="M188 760q68 0 106.5 -30t38.5 -79v-12q0 -29 -18.5 -54t-50.5 -35q34 -9 55.5 -36t21.5 -60v-10q0 -53 -40.5 -87t-110.5 -34q-46 0 -114 9v103q51 -8 99 -8q23 0 32 7.5t9 24.5v7q0 34 -40 34h-77v93h74q35 0 35 32v7q0 26 -35 26q-29 0 -97 -9v102q68 9 112 9z" />
    <glyph glyph-name="acute" unicode="&#xb4;" horiz-adv-x="269" 
d="M132 554h-102l75 137h134z" />
    <glyph glyph-name="mu" unicode="&#xb5;" horiz-adv-x="577" 
d="M536 0h-125l-5 297l-61 -236h-115l-62 235l-5 -296h-123l4 511h153l91 -331l92 331h152z" />
    <glyph glyph-name="paragraph" unicode="&#xb6;" horiz-adv-x="570" 
d="M310 -185h-136v481h-23q-68 0 -104.5 35t-36.5 101v113q0 66 36 102t105 36h159v-868zM527 -185h-136v868h136v-868zM185 603h-31q-22 0 -31.5 -14.5t-9.5 -50.5v-77q0 -36 9.5 -50.5t31.5 -14.5h31v207z" />
    <glyph glyph-name="periodcentered" unicode="&#xb7;" horiz-adv-x="214" 
d="M107 352q80 0 80 -70v-25q0 -69 -80 -69t-80 69v25q0 70 80 70z" />
    <glyph glyph-name="cedilla" unicode="&#xb8;" horiz-adv-x="248" 
d="M148 -31h10q25 0 42.5 -18t17.5 -44v-17q0 -87 -125 -87q-27 0 -63 6v76q21 -3 36 -3q41 0 41 21v7q0 22 -34 22h-27v18l32 99h97z" />
    <glyph glyph-name="onesuperior" unicode="&#xb9;" horiz-adv-x="398" 
d="M271 439h73v-108h-273v108h83v192h-2l-76 -31l-25 101l138 51h82v-313z" />
    <glyph glyph-name="ordmasculine" unicode="&#xba;" horiz-adv-x="457" 
d="M228 667q187 0 187 -190v-78q0 -93 -47.5 -141.5t-139.5 -48.5t-139 48.5t-47 141.5v78q0 93 46.5 141.5t139.5 48.5zM229 547q-50 0 -50 -61v-95q0 -61 50 -61t50 61v96q0 60 -50 60zM411 0h-364v122h364v-122z" />
    <glyph glyph-name="guillemotright" unicode="&#xbb;" horiz-adv-x="525" 
d="M286 266l-106 -180h-145l98 180l-99 179h146zM491 266l-105 -180h-146l98 180l-99 179h147z" />
    <glyph glyph-name="onequarter" unicode="&#xbc;" horiz-adv-x="1000" 
d="M253 289h73v-108h-273v108h83v192h-2l-76 -31l-25 101l138 51h82v-313zM404 0h-137l305 601h137zM747 175h73v36l7 75h107v-111h39v-103h-39v-72h-114v72h-167l-28 59l97 290h104z" />
    <glyph glyph-name="onehalf" unicode="&#xbd;" horiz-adv-x="1000" 
d="M266 289h73v-108h-273v108h83v192h-2l-76 -31l-25 101l138 51h82v-313zM419 0h-137l305 601h137zM802 429q153 0 153 -129v-14q0 -65 -61 -123l-55 -55h115v-108h-277v86l134 148q21 24 21 47v9q0 33 -47 33q-41 0 -96 -14v105q66 15 113 15z" />
    <glyph glyph-name="threequarters" unicode="&#xbe;" horiz-adv-x="1000" 
d="M156 610q68 0 106.5 -30t38.5 -79v-12q0 -29 -18.5 -54t-50.5 -35q34 -9 55.5 -36t21.5 -60v-10q0 -53 -40.5 -87t-110.5 -34q-46 0 -114 9v103q51 -8 99 -8q23 0 32 7.5t9 24.5v7q0 34 -40 34h-77v93h74q35 0 35 32v7q0 26 -35 26q-29 0 -97 -9v102q68 9 112 9zM383 0
h-137l305 601h137zM730 175h73v36l7 75h107v-111h39v-103h-39v-72h-114v72h-167l-28 59l97 290h104z" />
    <glyph glyph-name="questiondown" unicode="&#xbf;" horiz-adv-x="378" 
d="M221 346q-81 0 -81 70v25q0 33 21 51t60 18q38 0 58.5 -18t20.5 -51v-25q0 -70 -79 -70zM216 -197q-100 0 -145.5 38t-45.5 116v15q0 87 74 166l33 36q14 14 18.5 25.5t4.5 34.5v57h133v-50q0 -51 -7 -73t-35 -54l-52 -59q-20 -23 -26 -38t-6 -39v-10q0 -25 16 -36
t56 -11q53 0 131 20v-121q-83 -17 -149 -17z" />
    <glyph glyph-name="Agrave" unicode="&#xc0;" horiz-adv-x="539" 
d="M543 0h-151l-30 128h-188l-30 -128h-146l190 655h165zM198 246h138l-69 295zM326 707h-109l-111 147h139z" />
    <glyph glyph-name="Aacute" unicode="&#xc1;" horiz-adv-x="539" 
d="M543 0h-151l-30 128h-188l-30 -128h-146l190 655h165zM198 246h138l-69 295zM302 707h-109l81 147h139z" />
    <glyph glyph-name="Acircumflex" unicode="&#xc2;" horiz-adv-x="539" 
d="M543 0h-151l-30 128h-188l-30 -128h-146l190 655h165zM198 246h138l-69 295zM418 814v-100l-149 56l-149 -56v100l149 70z" />
    <glyph glyph-name="Atilde" unicode="&#xc3;" horiz-adv-x="539" 
d="M543 0h-151l-30 128h-188l-30 -128h-146l190 655h165zM198 246h138l-69 295zM418 851v-99q-40 -36 -89 -36q-23 0 -63 15t-59 15q-16 0 -38 -7.5t-35 -14.5l-14 -8v99q40 36 89 36q30 0 68 -15.5t54 -15.5t37.5 8t35.5 16z" />
    <glyph glyph-name="Adieresis" unicode="&#xc4;" horiz-adv-x="539" 
d="M543 0h-151l-30 128h-188l-30 -128h-146l190 655h165zM198 246h138l-69 295zM165 861q75 0 75 -65v-24q0 -30 -19.5 -47.5t-55.5 -17.5q-34 0 -54 17.5t-20 47.5v24q0 65 74 65zM370 861q75 0 75 -65v-24q0 -30 -19.5 -47.5t-55.5 -17.5q-34 0 -54 17.5t-20 47.5v24
q0 32 20 48.5t54 16.5z" />
    <glyph glyph-name="Aring" unicode="&#xc5;" horiz-adv-x="539" 
d="M271 835q63 0 97.5 -30.5t34.5 -87.5q0 -63 -41 -93l181 -624h-151l-30 128h-188l-30 -128h-146l181 626q-40 29 -40 91q0 57 34.5 87.5t97.5 30.5zM270 754q-31 0 -31 -35q0 -34 31 -34q32 0 32 34q0 35 -32 35zM198 246h137l-68 296z" />
    <glyph glyph-name="AE" unicode="&#xc6;" horiz-adv-x="756" 
d="M723 525h-236v-128h216v-129h-216v-138h236v-130h-377v137h-147l-50 -137h-151l257 655h468v-130zM243 267h102v275z" />
    <glyph glyph-name="Ccedilla" unicode="&#xc7;" horiz-adv-x="450" 
d="M264 667q48 0 158 -18l-2 -126q-98 16 -135 16q-61 0 -83 -21.5t-22 -79.5v-220q0 -58 22.5 -79t82.5 -21q44 0 135 19l2 -130q-76 -14 -127 -18l-6 -20h10q25 0 42.5 -18t17.5 -44v-17q0 -87 -125 -87q-27 0 -63 6v76q21 -3 36 -3q41 0 41 21v7q-1 22 -34 22h-28v18
l15 42q-87 12 -124.5 63.5t-37.5 146.5v251q0 111 52 162.5t173 51.5z" />
    <glyph glyph-name="Egrave" unicode="&#xc8;" horiz-adv-x="455" 
d="M422 525h-237v-128h217v-129h-217v-138h237v-130h-378v655h378v-130zM288 707h-109l-111 147h139z" />
    <glyph glyph-name="Eacute" unicode="&#xc9;" horiz-adv-x="455" 
d="M422 525h-237v-128h217v-129h-217v-138h237v-130h-378v655h378v-130zM264 707h-109l81 147h139z" />
    <glyph glyph-name="Ecircumflex" unicode="&#xca;" horiz-adv-x="455" 
d="M422 525h-237v-128h217v-129h-217v-138h237v-130h-378v655h378v-130zM380 814v-100l-149 56l-149 -56v100l149 70z" />
    <glyph glyph-name="Edieresis" unicode="&#xcb;" horiz-adv-x="455" 
d="M422 525h-237v-128h217v-129h-217v-138h237v-130h-378v655h378v-130zM127 861q75 0 75 -65v-24q0 -30 -19.5 -47.5t-55.5 -17.5q-34 0 -54 17.5t-20 47.5v24q0 65 74 65zM332 861q75 0 75 -65v-24q0 -30 -19.5 -47.5t-55.5 -17.5q-34 0 -54 17.5t-20 47.5v24
q0 32 20 48.5t54 16.5z" />
    <glyph glyph-name="Igrave" unicode="&#xcc;" horiz-adv-x="229" 
d="M185 0h-141v655h141v-655zM172 707h-109l-111 147h139z" />
    <glyph glyph-name="Iacute" unicode="&#xcd;" horiz-adv-x="229" 
d="M185 0h-141v655h141v-655zM148 707h-109l81 147h139z" />
    <glyph glyph-name="Icircumflex" unicode="&#xce;" horiz-adv-x="229" 
d="M185 0h-141v655h141v-655zM264 814v-100l-149 56l-149 -56v100l149 70z" />
    <glyph glyph-name="Idieresis" unicode="&#xcf;" horiz-adv-x="229" 
d="M185 0h-141v655h141v-655zM11 861q75 0 75 -65v-24q0 -30 -19.5 -47.5t-55.5 -17.5q-34 0 -54 17.5t-20 47.5v24q0 65 74 65zM216 861q75 0 75 -65v-24q0 -30 -19.5 -47.5t-55.5 -17.5q-34 0 -54 17.5t-20 47.5v24q0 32 20 48.5t54 16.5z" />
    <glyph glyph-name="Eth" unicode="&#xd0;" horiz-adv-x="556" 
d="M265 667q125 0 191 -70t66 -198v-151q0 -125 -66.5 -192.5t-201.5 -67.5q-89 0 -187 7v289h-67v114h67v265q108 4 198 4zM260 542q-17 0 -53 -2v-142h104v-114h-104v-167q33 -3 53 -3q58 0 89.5 32.5t31.5 95.5v162q0 138 -121 138z" />
    <glyph glyph-name="Ntilde" unicode="&#xd1;" horiz-adv-x="545" 
d="M179 407v-407h-135v655h180l142 -407v407h135v-655h-176zM423 851v-99q-40 -36 -89 -36q-22 0 -62 15t-60 15q-16 0 -38 -7.5t-36 -14.5l-13 -8v99q40 36 89 36q30 0 68 -15.5t54 -15.5t37.5 8t35.5 16z" />
    <glyph glyph-name="Ograve" unicode="&#xd2;" horiz-adv-x="538" 
d="M269 667q230 0 230 -225v-229q0 -225 -230 -225t-230 225v229q0 225 230 225zM269 539q-89 0 -89 -88v-245q0 -90 89 -90t89 90v244q0 89 -89 89zM326 707h-109l-111 147h139z" />
    <glyph glyph-name="Oacute" unicode="&#xd3;" horiz-adv-x="538" 
d="M269 667q230 0 230 -225v-229q0 -225 -230 -225t-230 225v229q0 225 230 225zM269 539q-89 0 -89 -88v-245q0 -90 89 -90t89 90v244q0 89 -89 89zM302 707h-109l81 147h139z" />
    <glyph glyph-name="Ocircumflex" unicode="&#xd4;" horiz-adv-x="538" 
d="M269 667q230 0 230 -225v-229q0 -225 -230 -225t-230 225v229q0 225 230 225zM269 539q-89 0 -89 -88v-245q0 -90 89 -90t89 90v244q0 89 -89 89zM418 814v-100l-149 56l-149 -56v100l149 70z" />
    <glyph glyph-name="Otilde" unicode="&#xd5;" horiz-adv-x="538" 
d="M269 667q230 0 230 -225v-229q0 -225 -230 -225t-230 225v229q0 225 230 225zM269 539q-89 0 -89 -88v-245q0 -90 89 -90t89 90v244q0 89 -89 89zM418 851v-99q-40 -36 -89 -36q-23 0 -63 15t-59 15q-16 0 -38 -7.5t-35 -14.5l-14 -8v99q40 36 89 36q30 0 68 -15.5
t54 -15.5t37.5 8t35.5 16z" />
    <glyph glyph-name="Odieresis" unicode="&#xd6;" horiz-adv-x="538" 
d="M269 667q230 0 230 -225v-229q0 -225 -230 -225t-230 225v229q0 225 230 225zM269 539q-89 0 -89 -88v-245q0 -90 89 -90t89 90v244q0 89 -89 89zM165 861q75 0 75 -65v-24q0 -30 -19.5 -47.5t-55.5 -17.5q-34 0 -54 17.5t-20 47.5v24q0 65 74 65zM370 861q75 0 75 -65
v-24q0 -30 -19.5 -47.5t-55.5 -17.5q-34 0 -54 17.5t-20 47.5v24q0 32 20 48.5t54 16.5z" />
    <glyph glyph-name="multiply" unicode="&#xd7;" horiz-adv-x="418" 
d="M389 389l-94 -95l96 -96l-90 -87l-95 94l-93 -93l-86 86l94 93l-95 96l87 90l97 -97l93 94z" />
    <glyph glyph-name="Oslash" unicode="&#xd8;" horiz-adv-x="538" 
d="M541 705l-72 -131q30 -52 30 -132v-229q0 -225 -230 -225q-65 0 -112 19l-33 -57h-131l75 133q-29 51 -29 130v229q0 225 230 225q63 0 110 -19l32 57h130zM269 539q-89 0 -89 -88v-171q0 -16 1 -23l146 265q-22 17 -58 17zM357 398l-147 -266q20 -16 59 -16q89 0 89 90
v170q0 15 -1 22z" />
    <glyph glyph-name="Ugrave" unicode="&#xd9;" horiz-adv-x="539" 
d="M496 655v-441q0 -109 -56 -167.5t-171 -58.5q-113 0 -169 58t-56 167v442h141v-449q0 -44 22 -67t62 -23q85 0 85 90v449h142zM327 707h-109l-111 147h139z" />
    <glyph glyph-name="Uacute" unicode="&#xda;" horiz-adv-x="539" 
d="M496 655v-441q0 -109 -56 -167.5t-171 -58.5q-113 0 -169 58t-56 167v442h141v-449q0 -44 22 -67t62 -23q85 0 85 90v449h142zM303 707h-109l81 147h139z" />
    <glyph glyph-name="Ucircumflex" unicode="&#xdb;" horiz-adv-x="539" 
d="M496 655v-441q0 -109 -56 -167.5t-171 -58.5q-113 0 -169 58t-56 167v442h141v-449q0 -44 22 -67t62 -23q85 0 85 90v449h142zM419 814v-100l-149 56l-149 -56v100l149 70z" />
    <glyph glyph-name="Udieresis" unicode="&#xdc;" horiz-adv-x="539" 
d="M496 655v-441q0 -109 -56 -167.5t-171 -58.5q-113 0 -169 58t-56 167v442h141v-449q0 -44 22 -67t62 -23q85 0 85 90v449h142zM166 861q75 0 75 -65v-24q0 -30 -19.5 -47.5t-55.5 -17.5q-34 0 -54 17.5t-20 47.5v24q0 65 74 65zM371 861q75 0 75 -65v-24
q0 -30 -19.5 -47.5t-55.5 -17.5q-34 0 -54 17.5t-20 47.5v24q0 32 20 48.5t54 16.5z" />
    <glyph glyph-name="Yacute" unicode="&#xdd;" horiz-adv-x="526" 
d="M334 227v-227h-141v227l-189 428h158l102 -296l103 296h155zM296 707h-109l81 147h139z" />
    <glyph glyph-name="Thorn" unicode="&#xde;" horiz-adv-x="489" 
d="M185 655v-108q23 2 47 2q121 0 182.5 -51.5t61.5 -144.5v-21q0 -98 -58.5 -153t-169.5 -55q-29 0 -63 5v-129h-141v655h141zM233 426q-18 0 -48 -3v-169q33 -3 52 -3q97 0 97 85v14q0 76 -101 76z" />
    <glyph glyph-name="germandbls" unicode="&#xdf;" horiz-adv-x="774" 
d="M201 523q57 0 135 -13l-1 -116q-84 15 -129 15q-53 0 -53 -36v-11q0 -14 7.5 -22t29.5 -14l69 -22q62 -20 87.5 -52.5t25.5 -93.5v-18q0 -75 -45 -113.5t-142 -38.5q-58 0 -146 18l1 117q86 -19 131 -19q71 0 71 38v14q0 27 -32 37l-72 22q-63 20 -88.5 53t-25.5 93v10
q0 152 177 152zM585 523q57 0 135 -13l-1 -116q-84 15 -129 15q-53 0 -53 -36v-11q0 -14 7.5 -22t29.5 -14l69 -22q62 -20 87.5 -52.5t25.5 -93.5v-18q0 -75 -45 -113.5t-142 -38.5q-58 0 -146 18l1 117q86 -19 131 -19q71 0 71 38v14q0 27 -32 37l-72 22q-63 20 -88.5 53
t-25.5 93v10q0 152 177 152z" />
    <glyph glyph-name="agrave" unicode="&#xe0;" horiz-adv-x="454" 
d="M458 0h-137l-22 94h-145l-22 -94h-134l155 511h150zM174 197h101l-50 215zM287 554h-99l-106 137h130z" />
    <glyph glyph-name="aacute" unicode="&#xe1;" horiz-adv-x="454" 
d="M458 0h-137l-22 94h-145l-22 -94h-134l155 511h150zM174 197h101l-50 215zM265 554h-102l75 137h134z" />
    <glyph glyph-name="acircumflex" unicode="&#xe2;" horiz-adv-x="454" 
d="M458 0h-137l-22 94h-145l-22 -94h-134l155 511h150zM174 197h101l-50 215zM358 655v-95l-130 49l-129 -49v95l129 62z" />
    <glyph glyph-name="atilde" unicode="&#xe3;" horiz-adv-x="454" 
d="M458 0h-137l-22 94h-145l-22 -94h-134l155 511h150zM174 197h101l-50 215zM363 699v-94q-30 -30 -78 -30q-20 0 -52.5 12t-49.5 12q-16 0 -35 -6t-30 -12l-12 -6v94q31 29 79 29q26 0 56.5 -12t45.5 -12t34 6t31 12z" />
    <glyph glyph-name="adieresis" unicode="&#xe4;" horiz-adv-x="454" 
d="M458 0h-137l-22 94h-145l-22 -94h-134l155 511h150zM174 197h101l-50 215zM124 724q75 0 75 -65v-24q0 -31 -19.5 -48t-55.5 -17q-35 0 -54.5 17t-19.5 48v24q0 31 19.5 48t54.5 17zM329 724q75 0 75 -65v-24q0 -31 -19.5 -48t-55.5 -17q-35 0 -54.5 17t-19.5 48v24
q0 31 19.5 48t54.5 17z" />
    <glyph glyph-name="aring" unicode="&#xe5;" horiz-adv-x="454" 
d="M227 705q59 0 93 -28.5t34 -83.5q0 -67 -48 -93l152 -500h-137l-22 94h-145l-22 -94h-134l152 499q-50 27 -50 94q0 56 34 84t93 28zM227 626q-28 0 -28 -30q0 -31 28 -31q27 0 27 31q0 30 -27 30zM174 197h101l-50 215z" />
    <glyph glyph-name="ae" unicode="&#xe6;" horiz-adv-x="640" 
d="M607 395h-192v-81h175v-113h-175v-85h192v-116h-321v94h-115l-34 -94h-139l205 511h404v-116zM206 197h79v216z" />
    <glyph glyph-name="ccedilla" unicode="&#xe7;" horiz-adv-x="392" 
d="M229 523q45 0 135 -15l-2 -112q-82 13 -112 13q-48 0 -65 -16t-17 -60v-154q0 -43 17.5 -59t64.5 -16q41 0 112 15l2 -116q-59 -10 -102 -14l-7 -20h10q25 0 42.5 -18t17.5 -44v-17q0 -87 -126 -87q-26 0 -62 6v76q21 -3 36 -3q41 0 41 21v7q-1 22 -34 22h-28v18l15 43
q-67 12 -97.5 53t-30.5 116v187q0 91 45 132.5t145 41.5z" />
    <glyph glyph-name="egrave" unicode="&#xe8;" horiz-adv-x="398" 
d="M365 395h-192v-81h175v-113h-175v-85h192v-116h-321v511h321v-116zM261 554h-99l-106 137h130z" />
    <glyph glyph-name="eacute" unicode="&#xe9;" horiz-adv-x="398" 
d="M365 395h-192v-81h175v-113h-175v-85h192v-116h-321v511h321v-116zM239 554h-102l75 137h134z" />
    <glyph glyph-name="ecircumflex" unicode="&#xea;" horiz-adv-x="398" 
d="M365 395h-192v-81h175v-113h-175v-85h192v-116h-321v511h321v-116zM332 655v-95l-130 49l-129 -49v95l129 62z" />
    <glyph glyph-name="edieresis" unicode="&#xeb;" horiz-adv-x="398" 
d="M365 395h-192v-81h175v-113h-175v-85h192v-116h-321v511h321v-116zM98 724q75 0 75 -65v-24q0 -31 -19.5 -48t-55.5 -17q-35 0 -54.5 17t-19.5 48v24q0 31 19.5 48t54.5 17zM303 724q75 0 75 -65v-24q0 -31 -19.5 -48t-55.5 -17q-35 0 -54.5 17t-19.5 48v24q0 31 19.5 48
t54.5 17z" />
    <glyph glyph-name="igrave" unicode="&#xec;" horiz-adv-x="216" 
d="M173 0h-129v511h129v-511zM167 554h-99l-106 137h130z" />
    <glyph glyph-name="iacute" unicode="&#xed;" horiz-adv-x="216" 
d="M173 0h-129v511h129v-511zM145 554h-102l75 137h134z" />
    <glyph glyph-name="icircumflex" unicode="&#xee;" horiz-adv-x="216" 
d="M173 0h-129v511h129v-511zM238 655v-95l-130 49l-129 -49v95l129 62z" />
    <glyph glyph-name="idieresis" unicode="&#xef;" horiz-adv-x="216" 
d="M173 0h-129v511h129v-511zM4 724q75 0 75 -65v-24q0 -31 -19.5 -48t-55.5 -17q-35 0 -54.5 17t-19.5 48v24q0 31 19.5 48t54.5 17zM209 724q75 0 75 -65v-24q0 -31 -19.5 -48t-55.5 -17q-35 0 -54.5 17t-19.5 48v24q0 31 19.5 48t54.5 17z" />
    <glyph glyph-name="eth" unicode="&#xf0;" horiz-adv-x="467" 
d="M214 523q105 0 162 -56t57 -161v-106q0 -102 -58 -157t-169 -55q-81 0 -158 5v212h-47v96h47v219q72 3 166 3zM213 411q-25 0 -36 -1v-109h61v-96h-61v-102q14 -2 36 -2q44 0 67.5 23.5t23.5 67.5v111q0 60 -21.5 84t-69.5 24z" />
    <glyph glyph-name="ntilde" unicode="&#xf1;" horiz-adv-x="472" 
d="M428 0h-143l-117 290v-290h-124v511h149l112 -286v286h123v-511zM373 699v-94q-30 -30 -78 -30q-20 0 -52.5 12t-49.5 12q-16 0 -35 -6t-30 -12l-12 -6v94q31 29 79 29q26 0 56.5 -12t45.5 -12t34 6t31 12z" />
    <glyph glyph-name="ograve" unicode="&#xf2;" horiz-adv-x="464" 
d="M232 523q194 0 194 -184v-167q0 -184 -194 -184q-193 0 -193 184v167q0 184 193 184zM233 409q-65 0 -65 -61v-181q0 -65 65 -65q64 0 64 62v180q0 65 -64 65zM291 554h-99l-106 137h130z" />
    <glyph glyph-name="oacute" unicode="&#xf3;" horiz-adv-x="464" 
d="M232 523q194 0 194 -184v-167q0 -184 -194 -184q-193 0 -193 184v167q0 184 193 184zM233 409q-65 0 -65 -61v-181q0 -65 65 -65q64 0 64 62v180q0 65 -64 65zM269 554h-102l75 137h134z" />
    <glyph glyph-name="ocircumflex" unicode="&#xf4;" horiz-adv-x="464" 
d="M232 523q194 0 194 -184v-167q0 -184 -194 -184q-193 0 -193 184v167q0 184 193 184zM233 409q-65 0 -65 -61v-181q0 -65 65 -65q64 0 64 62v180q0 65 -64 65zM362 655v-95l-130 49l-129 -49v95l129 62z" />
    <glyph glyph-name="otilde" unicode="&#xf5;" horiz-adv-x="464" 
d="M232 523q194 0 194 -184v-167q0 -184 -194 -184q-193 0 -193 184v167q0 184 193 184zM233 409q-65 0 -65 -61v-181q0 -65 65 -65q64 0 64 62v180q0 65 -64 65zM367 699v-94q-30 -30 -78 -30q-20 0 -52.5 12t-49.5 12q-16 0 -35 -6t-30 -12l-12 -6v94q31 29 79 29
q26 0 56.5 -12t45.5 -12t34 6t31 12z" />
    <glyph glyph-name="odieresis" unicode="&#xf6;" horiz-adv-x="464" 
d="M232 523q194 0 194 -184v-167q0 -184 -194 -184q-193 0 -193 184v167q0 184 193 184zM233 409q-65 0 -65 -61v-181q0 -65 65 -65q64 0 64 62v180q0 65 -64 65zM128 724q75 0 75 -65v-24q0 -31 -19.5 -48t-55.5 -17q-35 0 -54.5 17t-19.5 48v24q0 31 19.5 48t54.5 17z
M333 724q75 0 75 -65v-24q0 -31 -19.5 -48t-55.5 -17q-35 0 -54.5 17t-19.5 48v24q0 31 19.5 48t54.5 17z" />
    <glyph glyph-name="divide" unicode="&#xf7;" horiz-adv-x="418" 
d="M209 531q74 0 74 -69v-15q0 -30 -19 -48t-55 -18t-54.5 18t-18.5 48v15q0 69 73 69zM395 233h-374v119h374v-119zM209 205q74 0 74 -68v-15q0 -31 -19 -49t-55 -18t-54.5 18t-18.5 49v15q0 68 73 68z" />
    <glyph glyph-name="oslash" unicode="&#xf8;" horiz-adv-x="464" 
d="M487 558l-80 -124q19 -41 19 -95v-167q0 -184 -193 -184q-51 0 -88 14l-31 -49h-135l79 123q-19 39 -19 96v167q0 184 194 184q49 0 88 -14l31 49h135zM233 409q-65 0 -65 -61v-127v-14l109 188q-17 14 -44 14zM297 301l-109 -186q16 -13 44 -13q31 0 48 16.5t17 45.5
v125v12z" />
    <glyph glyph-name="ugrave" unicode="&#xf9;" horiz-adv-x="468" 
d="M424 511v-342q0 -88 -47.5 -134.5t-142.5 -46.5t-142.5 46.5t-47.5 134.5v342h129v-346q0 -30 16 -46.5t45 -16.5t45 16.5t16 46.5v346h129zM293 554h-99l-106 137h130z" />
    <glyph glyph-name="uacute" unicode="&#xfa;" horiz-adv-x="468" 
d="M424 511v-342q0 -88 -47.5 -134.5t-142.5 -46.5t-142.5 46.5t-47.5 134.5v342h129v-346q0 -30 16 -46.5t45 -16.5t45 16.5t16 46.5v346h129zM271 554h-102l75 137h134z" />
    <glyph glyph-name="ucircumflex" unicode="&#xfb;" horiz-adv-x="468" 
d="M424 511v-342q0 -88 -47.5 -134.5t-142.5 -46.5t-142.5 46.5t-47.5 134.5v342h129v-346q0 -30 16 -46.5t45 -16.5t45 16.5t16 46.5v346h129zM364 655v-95l-130 49l-129 -49v95l129 62z" />
    <glyph glyph-name="udieresis" unicode="&#xfc;" horiz-adv-x="468" 
d="M424 511v-342q0 -88 -47.5 -134.5t-142.5 -46.5t-142.5 46.5t-47.5 134.5v342h129v-346q0 -30 16 -46.5t45 -16.5t45 16.5t16 46.5v346h129zM130 724q75 0 75 -65v-24q0 -31 -19.5 -48t-55.5 -17q-35 0 -54.5 17t-19.5 48v24q0 31 19.5 48t54.5 17zM335 724q75 0 75 -65
v-24q0 -31 -19.5 -48t-55.5 -17q-35 0 -54.5 17t-19.5 48v24q0 31 19.5 48t54.5 17z" />
    <glyph glyph-name="yacute" unicode="&#xfd;" horiz-adv-x="451" 
d="M290 177v-177h-129v177l-157 334h144l78 -221l79 221h142zM262 554h-102l75 137h134z" />
    <glyph glyph-name="thorn" unicode="&#xfe;" horiz-adv-x="422" 
d="M173 511v-77q10 1 30 1q103 0 154.5 -42t51.5 -117v-19q0 -79 -47.5 -122.5t-132.5 -43.5q-23 0 -56 5v-96h-129v511h129zM206 325q-22 0 -33 -1v-120q14 -3 37 -3q69 0 69 59v10q0 55 -73 55z" />
    <glyph glyph-name="ydieresis" unicode="&#xff;" horiz-adv-x="451" 
d="M290 177v-177h-129v177l-157 334h144l78 -221l79 221h142zM121 724q75 0 75 -65v-24q0 -31 -19.5 -48t-55.5 -17q-35 0 -54.5 17t-19.5 48v24q0 31 19.5 48t54.5 17zM326 724q75 0 75 -65v-24q0 -31 -19.5 -48t-55.5 -17q-35 0 -54.5 17t-19.5 48v24q0 31 19.5 48
t54.5 17z" />
    <glyph glyph-name="Amacron" unicode="&#x100;" horiz-adv-x="539" 
d="M543 0h-151l-30 128h-188l-30 -128h-146l190 655h165zM198 246h138l-69 295zM404 709h-271v107h271v-107z" />
    <glyph glyph-name="amacron" unicode="&#x101;" horiz-adv-x="454" 
d="M458 0h-137l-22 94h-145l-22 -94h-134l155 511h150zM174 197h101l-50 215zM346 570h-236v103h236v-103z" />
    <glyph glyph-name="Abreve" unicode="&#x102;" horiz-adv-x="539" 
d="M543 0h-151l-30 128h-188l-30 -128h-146l190 655h165zM198 246h138l-69 295zM418 875v-111q-7 -7 -19.5 -17t-51.5 -26.5t-78 -16.5t-76.5 15t-54.5 30l-18 15v111q8 -8 21 -19t52.5 -30t75.5 -19t73.5 17t56.5 34z" />
    <glyph glyph-name="abreve" unicode="&#x103;" horiz-adv-x="454" 
d="M458 0h-137l-22 94h-145l-22 -94h-134l155 511h150zM174 197h101l-50 215zM356 714v-107q-6 -5 -17 -13.5t-44.5 -22t-66.5 -13.5t-65 12t-48 24l-16 13v107q8 -6 20.5 -15.5t46.5 -25.5t62 -16t60 14.5t50 28.5z" />
    <glyph glyph-name="Aogonek" unicode="&#x104;" horiz-adv-x="539" 
d="M543 0h-62q-47 -18 -47 -54v-6q0 -28 34 -28q16 0 39 6v-104q-45 -11 -71 -11q-55 0 -85 24t-30 63v10q0 60 71 101l-30 127h-188l-30 -128h-146l190 655h165zM198 246h138l-69 295z" />
    <glyph glyph-name="aogonek" unicode="&#x105;" horiz-adv-x="456" 
d="M458 0h-51q-43 -18 -43 -52v-6q0 -27 34 -27q16 0 39 6l1 -105q-45 -11 -72 -11q-55 0 -85 24t-30 64v10q0 60 69 99l-21 92h-145l-22 -94h-134l155 511h150zM174 197h101l-50 215z" />
    <glyph glyph-name="Cacute" unicode="&#x106;" horiz-adv-x="450" 
d="M264 667q48 0 158 -18l-2 -126q-98 16 -135 16q-61 0 -83 -21.5t-22 -79.5v-220q0 -58 22.5 -79t82.5 -21q44 0 135 19l2 -130q-104 -19 -158 -19q-122 0 -173.5 52t-51.5 162v251q0 111 52 162.5t173 51.5zM286 707h-109l81 147h139z" />
    <glyph glyph-name="cacute" unicode="&#x107;" horiz-adv-x="392" 
d="M229 523q45 0 135 -15l-2 -112q-82 13 -112 13q-48 0 -65 -16t-17 -60v-154q0 -43 17.5 -59t64.5 -16q41 0 112 15l2 -116q-92 -15 -135 -15q-101 0 -145.5 42t-44.5 132v187q0 91 45 132.5t145 41.5zM256 554h-102l75 137h134z" />
    <glyph glyph-name="Ccircumflex" unicode="&#x108;" horiz-adv-x="450" 
d="M264 667q48 0 158 -18l-2 -126q-98 16 -135 16q-61 0 -83 -21.5t-22 -79.5v-220q0 -58 22.5 -79t82.5 -21q44 0 135 19l2 -130q-104 -19 -158 -19q-122 0 -173.5 52t-51.5 162v251q0 111 52 162.5t173 51.5zM402 814v-100l-149 56l-149 -56v100l149 70z" />
    <glyph glyph-name="ccircumflex" unicode="&#x109;" horiz-adv-x="392" 
d="M229 523q45 0 135 -15l-2 -112q-82 13 -112 13q-48 0 -65 -16t-17 -60v-154q0 -43 17.5 -59t64.5 -16q41 0 112 15l2 -116q-92 -15 -135 -15q-101 0 -145.5 42t-44.5 132v187q0 91 45 132.5t145 41.5zM349 655v-95l-130 49l-129 -49v95l129 62z" />
    <glyph glyph-name="Cdotaccent" unicode="&#x10a;" horiz-adv-x="450" 
d="M264 667q48 0 158 -18l-2 -126q-98 16 -135 16q-61 0 -83 -21.5t-22 -79.5v-220q0 -58 22.5 -79t82.5 -21q44 0 135 19l2 -130q-104 -19 -158 -19q-122 0 -173.5 52t-51.5 162v251q0 111 52 162.5t173 51.5zM253 868q78 0 78 -69v-25q0 -68 -78 -68q-37 0 -58 18t-21 50
v25q0 69 79 69z" />
    <glyph glyph-name="cdotaccent" unicode="&#x10b;" horiz-adv-x="392" 
d="M229 523q45 0 135 -15l-2 -112q-82 13 -112 13q-48 0 -65 -16t-17 -60v-154q0 -43 17.5 -59t64.5 -16q41 0 112 15l2 -116q-92 -15 -135 -15q-101 0 -145.5 42t-44.5 132v187q0 91 45 132.5t145 41.5zM219 729q78 0 78 -69v-25q0 -68 -78 -68q-37 0 -58 18t-21 50v25
q0 69 79 69z" />
    <glyph glyph-name="Ccaron" unicode="&#x10c;" horiz-adv-x="450" 
d="M264 667q48 0 158 -18l-2 -126q-98 16 -135 16q-61 0 -83 -21.5t-22 -79.5v-220q0 -58 22.5 -79t82.5 -21q44 0 135 19l2 -130q-104 -19 -158 -19q-122 0 -173.5 52t-51.5 162v251q0 111 52 162.5t173 51.5zM402 780l-149 -69l-149 69v100l149 -56l149 56v-100z" />
    <glyph glyph-name="ccaron" unicode="&#x10d;" horiz-adv-x="392" 
d="M229 523q45 0 135 -15l-2 -112q-82 13 -112 13q-48 0 -65 -16t-17 -60v-154q0 -43 17.5 -59t64.5 -16q41 0 112 15l2 -116q-92 -15 -135 -15q-101 0 -145.5 42t-44.5 132v187q0 91 45 132.5t145 41.5zM349 617l-130 -62l-129 62v95l129 -49l130 49v-95z" />
    <glyph glyph-name="Dcaron" unicode="&#x10e;" horiz-adv-x="534" 
d="M242 666q126 0 192 -70t66 -197v-151q0 -125 -66.5 -192.5t-202.5 -67.5q-89 0 -187 7v666q138 5 198 5zM238 540q-35 0 -53 -1v-422q33 -3 53 -3q58 0 89.5 32.5t31.5 95.5v162q0 136 -121 136zM390 780l-149 -69l-149 69v100l149 -56l149 56v-100z" />
    <glyph glyph-name="dcaron" unicode="&#x10f;" horiz-adv-x="462" 
d="M210 522q104 0 161 -56t57 -160v-106q0 -102 -57.5 -157t-169.5 -55q-80 0 -157 5v524q118 5 166 5zM208 410q-12 0 -36 -2v-305q14 -2 36 -2q44 0 67.5 23.5t23.5 67.5v111q0 59 -21.5 83t-69.5 24zM345 617l-130 -62l-129 62v95l129 -49l130 49v-95z" />
    <glyph glyph-name="Dcroat" unicode="&#x110;" horiz-adv-x="556" 
d="M265 667q125 0 191 -70t66 -198v-151q0 -125 -66.5 -192.5t-201.5 -67.5q-89 0 -187 7v289h-67v114h67v265q108 4 198 4zM260 542q-17 0 -53 -2v-142h104v-114h-104v-167q33 -3 53 -3q58 0 89.5 32.5t31.5 95.5v162q0 138 -121 138z" />
    <glyph glyph-name="dcroat" unicode="&#x111;" horiz-adv-x="467" 
d="M214 523q105 0 162 -56t57 -161v-106q0 -102 -58 -157t-169 -55q-81 0 -158 5v212h-47v96h47v219q72 3 166 3zM213 411q-25 0 -36 -1v-109h61v-96h-61v-102q14 -2 36 -2q44 0 67.5 23.5t23.5 67.5v111q0 60 -21.5 84t-69.5 24z" />
    <glyph glyph-name="Emacron" unicode="&#x112;" horiz-adv-x="455" 
d="M422 525h-237v-128h217v-129h-217v-138h237v-130h-378v655h378v-130zM366 709h-271v107h271v-107z" />
    <glyph glyph-name="emacron" unicode="&#x113;" horiz-adv-x="398" 
d="M365 395h-192v-81h175v-113h-175v-85h192v-116h-321v511h321v-116zM320 570h-236v103h236v-103z" />
    <glyph glyph-name="Ebreve" unicode="&#x114;" horiz-adv-x="455" 
d="M422 525h-237v-128h217v-129h-217v-138h237v-130h-378v655h378v-130zM380 875v-111q-7 -7 -19.5 -17t-51.5 -26.5t-78 -16.5t-76.5 15t-54.5 30l-18 15v111q8 -8 21 -19t52.5 -30t75.5 -19t73.5 17t56.5 34z" />
    <glyph glyph-name="ebreve" unicode="&#x115;" horiz-adv-x="398" 
d="M365 395h-192v-81h175v-113h-175v-85h192v-116h-321v511h321v-116zM330 714v-107q-6 -5 -17 -13.5t-44.5 -22t-66.5 -13.5t-65 12t-48 24l-16 13v107q8 -6 20.5 -15.5t46.5 -25.5t62 -16t60 14.5t50 28.5z" />
    <glyph glyph-name="Edotaccent" unicode="&#x116;" horiz-adv-x="455" 
d="M422 525h-237v-128h217v-129h-217v-138h237v-130h-378v655h378v-130zM231 868q78 0 78 -69v-25q0 -68 -78 -68q-37 0 -58 18t-21 50v25q0 69 79 69z" />
    <glyph glyph-name="edotaccent" unicode="&#x117;" horiz-adv-x="398" 
d="M365 395h-192v-81h175v-113h-175v-85h192v-116h-321v511h321v-116zM202 729q78 0 78 -69v-25q0 -68 -78 -68q-37 0 -58 18t-21 50v25q0 69 79 69z" />
    <glyph glyph-name="Eogonek" unicode="&#x118;" horiz-adv-x="455" 
d="M422 525h-237v-128h217v-129h-217v-138h237v-130h-75q-47 -18 -47 -54v-6q0 -28 34 -28q16 0 39 6v-104q-45 -11 -71 -11q-55 0 -85 24t-30 63v10q0 61 69 100h-212v655h378v-130z" />
    <glyph glyph-name="eogonek" unicode="&#x119;" horiz-adv-x="398" 
d="M365 395h-192v-81h175v-113h-175v-85h192v-116h-65q-46 -18 -46 -54v-6q0 -28 34 -28q16 0 40 6v-104q-45 -11 -72 -11q-55 0 -85 24t-30 63v10q0 61 70 100h-167v511h321v-116z" />
    <glyph glyph-name="Ecaron" unicode="&#x11a;" horiz-adv-x="455" 
d="M422 525h-237v-128h217v-129h-217v-138h237v-130h-378v655h378v-130zM380 780l-149 -69l-149 69v100l149 -56l149 56v-100z" />
    <glyph glyph-name="ecaron" unicode="&#x11b;" horiz-adv-x="398" 
d="M365 395h-192v-81h175v-113h-175v-85h192v-116h-321v511h321v-116zM332 617l-130 -62l-129 62v95l129 -49l130 49v-95z" />
    <glyph glyph-name="Gcircumflex" unicode="&#x11c;" horiz-adv-x="522" 
d="M264 667q86 0 190 -20l-2 -127q-98 20 -181 20q-50 0 -70.5 -19.5t-20.5 -65.5v-252q0 -47 20 -67t67 -20q27 0 72 7v147h-79v126h220v-365q-121 -43 -219 -43q-120 0 -171 52t-51 162v251q0 112 52 163t173 51zM409 814v-100l-149 56l-149 -56v100l149 70z" />
    <glyph glyph-name="gcircumflex" unicode="&#x11d;" horiz-adv-x="453" 
d="M229 523q63 0 161 -17l-2 -112q-92 17 -153 17q-37 0 -52 -13t-15 -42v-200q0 -54 61 -54q25 0 53 4v103h-53v100h182v-292q-94 -29 -182 -29q-102 0 -146 41t-44 130v194q0 89 44 129.5t146 40.5zM356 655v-95l-130 49l-129 -49v95l129 62z" />
    <glyph glyph-name="Gbreve" unicode="&#x11e;" horiz-adv-x="522" 
d="M264 667q86 0 190 -20l-2 -127q-98 20 -181 20q-50 0 -70.5 -19.5t-20.5 -65.5v-252q0 -47 20 -67t67 -20q27 0 72 7v147h-79v126h220v-365q-121 -43 -219 -43q-120 0 -171 52t-51 162v251q0 112 52 163t173 51zM409 875v-111q-7 -7 -19.5 -17t-51.5 -26.5t-78 -16.5
t-76.5 15t-55.5 30l-17 15v111q8 -8 21 -19t52.5 -30t75.5 -19t73.5 17t56.5 34z" />
    <glyph glyph-name="gbreve" unicode="&#x11f;" horiz-adv-x="453" 
d="M229 523q63 0 161 -17l-2 -112q-92 17 -153 17q-37 0 -52 -13t-15 -42v-200q0 -54 61 -54q25 0 53 4v103h-53v100h182v-292q-94 -29 -182 -29q-102 0 -146 41t-44 130v194q0 89 44 129.5t146 40.5zM354 714v-107q-6 -5 -17 -13.5t-44.5 -22t-66.5 -13.5t-65 12t-48 24
l-16 13v107q8 -6 20.5 -15.5t46.5 -25.5t62 -16t60 14.5t50 28.5z" />
    <glyph glyph-name="Gdotaccent" unicode="&#x120;" horiz-adv-x="522" 
d="M264 667q86 0 190 -20l-2 -127q-98 20 -181 20q-50 0 -70.5 -19.5t-20.5 -65.5v-252q0 -47 20 -67t67 -20q27 0 72 7v147h-79v126h220v-365q-121 -43 -219 -43q-120 0 -171 52t-51 162v251q0 112 52 163t173 51zM260 868q78 0 78 -69v-25q0 -68 -78 -68q-37 0 -58 18
t-21 50v25q0 69 79 69z" />
    <glyph glyph-name="gdotaccent" unicode="&#x121;" horiz-adv-x="453" 
d="M229 523q63 0 161 -17l-2 -112q-92 17 -153 17q-37 0 -52 -13t-15 -42v-200q0 -54 61 -54q25 0 53 4v103h-53v100h182v-292q-94 -29 -182 -29q-102 0 -146 41t-44 130v194q0 89 44 129.5t146 40.5zM226 729q78 0 78 -69v-25q0 -68 -78 -68q-37 0 -58 18t-21 50v25
q0 69 79 69z" />
    <glyph glyph-name="Gcommaaccent" unicode="&#x122;" horiz-adv-x="522" 
d="M264 667q86 0 190 -20l-2 -127q-98 20 -181 20q-50 0 -70.5 -19.5t-20.5 -65.5v-252q0 -47 20 -67t67 -20q27 0 72 7v147h-79v126h220v-365q-121 -43 -219 -43q-120 0 -171 52t-51 162v251q0 112 52 163t173 51zM264 -56q69 0 69 -59v-22q0 -23 -9 -54l-27 -80h-83l14 83
q-31 11 -31 52v21q0 28 17.5 43.5t49.5 15.5z" />
    <glyph glyph-name="gcommaaccent" unicode="&#x123;" horiz-adv-x="453" 
d="M229 523q63 0 161 -17l-2 -112q-92 17 -153 17q-37 0 -52 -13t-15 -42v-200q0 -54 61 -54q25 0 53 4v103h-53v100h182v-292q-94 -29 -182 -29q-102 0 -146 41t-44 130v194q0 89 44 129.5t146 40.5zM232 -56q69 0 69 -59v-22q0 -23 -9 -54l-27 -80h-83l14 83
q-31 11 -31 52v21q0 28 17.5 43.5t49.5 15.5z" />
    <glyph glyph-name="Hcircumflex" unicode="&#x124;" horiz-adv-x="543" 
d="M499 0h-141v272h-173v-272h-141v655h141v-254h173v254h141v-655zM420 814v-100l-149 56l-149 -56v100l149 70z" />
    <glyph glyph-name="hcircumflex" unicode="&#x125;" horiz-adv-x="470" 
d="M427 0h-129v204h-125v-204h-129v511h129v-192h125v192h129v-511zM365 655v-95l-130 49l-129 -49v95l129 62z" />
    <glyph glyph-name="Hbar" unicode="&#x126;" horiz-adv-x="553" 
d="M503 599h45v-114h-45v-485h-141v272h-172v-272h-142v485h-44v114h44v56h142v-56h172v56h141v-56zM190 485v-84h173v84h-173z" />
    <glyph glyph-name="hbar" unicode="&#x127;" horiz-adv-x="473" 
d="M428 473h40v-94h-40v-379h-129v204h-125v-204h-129v379h-40v94h40v38h129v-38h125v38h129v-38zM174 379v-60h125v60h-125z" />
    <glyph glyph-name="Itilde" unicode="&#x128;" horiz-adv-x="229" 
d="M185 0h-141v655h141v-655zM264 851v-99q-40 -36 -89 -36q-23 0 -63 15t-59 15q-16 0 -38 -7.5t-35 -14.5l-14 -8v99q40 36 89 36q30 0 68 -15.5t54 -15.5t37.5 8t35.5 16z" />
    <glyph glyph-name="itilde" unicode="&#x129;" horiz-adv-x="216" 
d="M173 0h-129v511h129v-511zM244 699v-94q-30 -30 -78 -30q-20 0 -52.5 12t-49.5 12q-16 0 -35 -6t-31 -12l-11 -6v94q31 29 79 29q26 0 56.5 -12t45.5 -12t34 6t30 12z" />
    <glyph glyph-name="Imacron" unicode="&#x12a;" horiz-adv-x="229" 
d="M185 0h-141v655h141v-655zM250 709h-271v107h271v-107z" />
    <glyph glyph-name="imacron" unicode="&#x12b;" horiz-adv-x="216" 
d="M173 0h-129v511h129v-511zM226 570h-236v103h236v-103z" />
    <glyph glyph-name="Ibreve" unicode="&#x12c;" horiz-adv-x="229" 
d="M185 0h-141v655h141v-655zM264 875v-111q-7 -7 -19.5 -17t-51.5 -26.5t-78 -16.5t-76.5 15t-54.5 30l-18 15v111q8 -8 21 -19t52.5 -30t75.5 -19t73.5 17t56.5 34z" />
    <glyph glyph-name="ibreve" unicode="&#x12d;" horiz-adv-x="216" 
d="M173 0h-129v511h129v-511zM236 714v-107q-6 -5 -17 -13.5t-44.5 -22t-66.5 -13.5t-65 12t-48 24l-16 13v107q8 -6 20.5 -15.5t46.5 -25.5t62 -16t60 14.5t50 28.5z" />
    <glyph glyph-name="Iogonek" unicode="&#x12e;" horiz-adv-x="229" 
d="M186 0h-56q-46 -18 -46 -54v-6q0 -28 34 -28q16 0 40 6v-104q-46 -11 -72 -11q-55 0 -85 24t-30 63v10q0 64 74 102v653h141v-655z" />
    <glyph glyph-name="iogonek" unicode="&#x12f;" horiz-adv-x="216" 
d="M173 0h-42q-46 -18 -46 -54v-6q0 -28 34 -28q16 0 40 6v-104q-46 -11 -72 -11q-55 0 -85 24t-30 63v10q0 62 72 101v510h129v-511z" />
    <glyph glyph-name="Idotaccent" unicode="&#x130;" horiz-adv-x="216" 
d="M173 0h-129v511h129v-511zM108 729q78 0 78 -69v-25q0 -68 -78 -68q-37 0 -58 18t-21 50v25q0 69 79 69z" />
    <glyph glyph-name="dotlessi" unicode="&#x131;" horiz-adv-x="216" 
d="M173 0h-129v511h129v-511z" />
    <glyph glyph-name="IJ" unicode="&#x132;" horiz-adv-x="535" 
d="M185 0h-141v655h141v-655zM492 655v-472q0 -195 -174 -195q-59 0 -90 11v122q40 -7 73 -7q26 0 38 14.5t12 48.5v478h141z" />
    <glyph glyph-name="ij" unicode="&#x133;" horiz-adv-x="487" 
d="M173 0h-129v511h129v-511zM444 511v-358q0 -85 -36.5 -125t-110.5 -40q-50 0 -82 9v109q26 -5 58 -5q23 0 32.5 10.5t9.5 38.5v361h129z" />
    <glyph glyph-name="Jcircumflex" unicode="&#x134;" horiz-adv-x="306" 
d="M263 655v-472q0 -195 -174 -195q-59 0 -90 11v122q40 -7 73 -7q26 0 38 14.5t12 48.5v478h141zM340 814v-100l-149 56l-149 -56v100l149 70z" />
    <glyph glyph-name="jcircumflex" unicode="&#x135;" horiz-adv-x="271" 
d="M228 511v-358q0 -85 -36.5 -125t-110.5 -40q-50 0 -82 9v109q26 -5 58 -5q23 0 32.5 10.5t9.5 38.5v361h129zM293 655v-95l-130 49l-129 -49v95l129 62z" />
    <glyph glyph-name="Kcommaaccent" unicode="&#x136;" horiz-adv-x="538" 
d="M296 334l248 -334h-168l-191 270v-270h-141v655h141v-281l193 281h147zM273 -56q69 0 69 -59v-22q0 -23 -9 -54l-27 -80h-83l14 83q-31 11 -31 52v21q0 28 17.5 43.5t49.5 15.5z" />
    <glyph glyph-name="kcommaaccent" unicode="&#x137;" horiz-adv-x="464" 
d="M281 264l190 -264h-153l-145 205v-205h-129v511h129v-213l148 213h135zM239 -56q69 0 69 -59v-22q0 -23 -9 -54l-27 -80h-83l14 83q-31 11 -31 52v21q0 28 17.5 43.5t49.5 15.5z" />
    <glyph glyph-name="kgreenlandic" unicode="&#x138;" horiz-adv-x="464" 
d="M281 264l190 -264h-153l-145 205v-205h-129v511h129v-213l148 213h135z" />
    <glyph glyph-name="Lacute" unicode="&#x139;" horiz-adv-x="434" 
d="M185 129h237v-129h-378v655h141v-526zM156 707h-109l81 147h139z" />
    <glyph glyph-name="lacute" unicode="&#x13a;" horiz-adv-x="377" 
d="M173 116h192v-116h-321v511h129v-395zM162 554h-102l75 137h134z" />
    <glyph glyph-name="Lcommaaccent" unicode="&#x13b;" horiz-adv-x="434" 
d="M185 129h237v-129h-378v655h141v-526zM225 -56q69 0 69 -59v-22q0 -23 -9 -54l-27 -80h-83l14 83q-31 11 -31 52v21q0 28 17.5 43.5t49.5 15.5z" />
    <glyph glyph-name="lcommaaccent" unicode="&#x13c;" horiz-adv-x="377" 
d="M173 116h192v-116h-321v511h129v-395zM197 -56q69 0 69 -59v-22q0 -23 -9 -54l-27 -80h-83l14 83q-31 11 -31 52v21q0 28 17.5 43.5t49.5 15.5z" />
    <glyph glyph-name="Lcaron" unicode="&#x13d;" horiz-adv-x="434" 
d="M185 129h237v-129h-378v655h141v-526zM296 667q69 0 69 -59v-22q0 -22 -9 -54l-27 -80h-83l14 83q-31 11 -31 52v21q0 28 17.5 43.5t49.5 15.5z" />
    <glyph glyph-name="lcaron" unicode="&#x13e;" horiz-adv-x="383" 
d="M173 116h192v-116h-321v511h129v-395zM279 523q69 0 69 -59v-22q0 -22 -9 -54l-27 -80h-83l14 83q-31 11 -31 52v21q0 28 17.5 43.5t49.5 15.5z" />
    <glyph glyph-name="Ldot" unicode="&#x13f;" horiz-adv-x="434" 
d="M185 129h237v-129h-378v655h141v-526zM326 462q78 0 78 -69v-25q0 -68 -78 -68q-37 0 -58 18t-21 50v25q0 69 79 69z" />
    <glyph glyph-name="ldot" unicode="&#x140;" horiz-adv-x="394" 
d="M173 116h192v-116h-321v511h129v-395zM302 387q78 0 78 -69v-25q0 -68 -78 -68q-37 0 -58 18t-21 50v25q0 69 79 69z" />
    <glyph glyph-name="Lslash" unicode="&#x141;" horiz-adv-x="456" 
d="M208 416l110 32v-118l-110 -31v-170h236v-129h-378v260l-64 -18v117l64 18v278h142v-239z" />
    <glyph glyph-name="lslash" unicode="&#x142;" horiz-adv-x="382" 
d="M178 337l61 16v-86l-61 -16v-135h191v-116h-320v216l-45 -11v86l45 12v208h129v-174z" />
    <glyph glyph-name="Nacute" unicode="&#x143;" horiz-adv-x="545" 
d="M179 407v-407h-135v655h180l142 -407v407h135v-655h-176zM307 707h-109l81 147h139z" />
    <glyph glyph-name="nacute" unicode="&#x144;" horiz-adv-x="472" 
d="M428 0h-143l-117 290v-290h-124v511h149l112 -286v286h123v-511zM274 554h-102l75 137h134z" />
    <glyph glyph-name="Ncommaaccent" unicode="&#x145;" horiz-adv-x="545" 
d="M179 407v-407h-135v655h180l142 -407v407h135v-655h-176zM275 -56q69 0 69 -59v-22q0 -23 -9 -54l-27 -80h-83l14 83q-31 11 -31 52v21q0 28 17.5 43.5t49.5 15.5z" />
    <glyph glyph-name="ncommaaccent" unicode="&#x146;" horiz-adv-x="472" 
d="M428 0h-143l-117 290v-290h-124v511h149l112 -286v286h123v-511zM236 -56q69 0 69 -59v-22q0 -23 -9 -54l-27 -80h-83l14 83q-31 11 -31 52v21q0 28 17.5 43.5t49.5 15.5z" />
    <glyph glyph-name="Ncaron" unicode="&#x147;" horiz-adv-x="545" 
d="M179 407v-407h-135v655h180l142 -407v407h135v-655h-176zM423 780l-149 -69l-149 69v100l149 -56l149 56v-100z" />
    <glyph glyph-name="ncaron" unicode="&#x148;" horiz-adv-x="472" 
d="M428 0h-143l-117 290v-290h-124v511h149l112 -286v286h123v-511zM367 617l-130 -62l-129 62v95l129 -49l130 49v-95z" />
    <glyph glyph-name="napostrophe" unicode="&#x149;" horiz-adv-x="472" 
d="M428 0h-143l-117 290v-290h-124v511h149l112 -286v286h123v-511z" />
    <glyph glyph-name="Eng" unicode="&#x14a;" horiz-adv-x="545" 
d="M501 655v-645q0 -194 -172 -194q-61 0 -92 11v121q35 -6 75 -6q54 0 54 50v8h-41l-146 407v-407h-135v655h180l142 -409v409h135z" />
    <glyph glyph-name="eng" unicode="&#x14b;" horiz-adv-x="472" 
d="M428 511v-523q0 -165 -144 -165q-51 0 -81 10v109q31 -6 58 -6q25 0 35.5 11t10.5 39v14h-22l-117 290v-290h-124v511h149l112 -286v286h123z" />
    <glyph glyph-name="Omacron" unicode="&#x14c;" horiz-adv-x="538" 
d="M269 667q230 0 230 -225v-229q0 -225 -230 -225t-230 225v229q0 225 230 225zM269 539q-89 0 -89 -88v-245q0 -90 89 -90t89 90v244q0 89 -89 89zM404 709h-271v107h271v-107z" />
    <glyph glyph-name="omacron" unicode="&#x14d;" horiz-adv-x="464" 
d="M232 523q194 0 194 -184v-167q0 -184 -194 -184q-193 0 -193 184v167q0 184 193 184zM233 409q-65 0 -65 -61v-181q0 -65 65 -65q64 0 64 62v180q0 65 -64 65zM350 570h-236v103h236v-103z" />
    <glyph glyph-name="Obreve" unicode="&#x14e;" horiz-adv-x="538" 
d="M269 667q230 0 230 -225v-229q0 -225 -230 -225t-230 225v229q0 225 230 225zM269 539q-89 0 -89 -88v-245q0 -90 89 -90t89 90v244q0 89 -89 89zM418 875v-111q-7 -7 -19.5 -17t-51.5 -26.5t-78 -16.5t-76.5 15t-54.5 30l-18 15v111q8 -8 21 -19t52.5 -30t75.5 -19
t73.5 17t56.5 34z" />
    <glyph glyph-name="obreve" unicode="&#x14f;" horiz-adv-x="464" 
d="M232 523q194 0 194 -184v-167q0 -184 -194 -184q-193 0 -193 184v167q0 184 193 184zM233 409q-65 0 -65 -61v-181q0 -65 65 -65q64 0 64 62v180q0 65 -64 65zM360 714v-107q-6 -5 -17 -13.5t-44.5 -22t-66.5 -13.5t-65 12t-48 24l-16 13v107q8 -6 20.5 -15.5t46.5 -25.5
t62 -16t60 14.5t50 28.5z" />
    <glyph glyph-name="Ohungarumlaut" unicode="&#x150;" horiz-adv-x="538" 
d="M269 667q230 0 230 -225v-229q0 -225 -230 -225t-230 225v229q0 225 230 225zM269 539q-89 0 -89 -88v-245q0 -90 89 -90t89 90v244q0 89 -89 89zM228 707h-112l69 159h132zM409 707h-113l70 159h132z" />
    <glyph glyph-name="ohungarumlaut" unicode="&#x151;" horiz-adv-x="464" 
d="M232 523q194 0 194 -184v-167q0 -184 -194 -184q-193 0 -193 184v167q0 184 193 184zM233 409q-65 0 -65 -61v-181q0 -65 65 -65q64 0 64 62v180q0 65 -64 65zM193 554h-102l70 144h122zM360 554h-102l70 144h122z" />
    <glyph glyph-name="OE" unicode="&#x152;" horiz-adv-x="741" 
d="M255 667q43 0 91 -12h361v-130h-232v-128h212v-129h-212v-138h232v-130h-367q-39 -12 -80 -12q-109 0 -165 57.5t-56 167.5v229q0 110 56 167.5t160 57.5zM268 541q-88 0 -88 -88v-249q0 -90 84 -90q42 0 71 12v401q-31 14 -67 14z" />
    <glyph glyph-name="oe" unicode="&#x153;" horiz-adv-x="634" 
d="M229 523q40 0 88 -12h283v-116h-192v-81h175v-113h-175v-85h192v-116h-294q-39 -12 -74 -12q-193 0 -193 184v167q0 184 190 184zM231 409q-30 0 -46.5 -16t-16.5 -45v-181q0 -65 65 -65q30 0 46 6v290q-20 11 -48 11z" />
    <glyph glyph-name="Racute" unicode="&#x154;" horiz-adv-x="523" 
d="M233 666q241 0 241 -189v-22q0 -52 -27 -95.5t-76 -68.5l158 -291h-156l-132 251q-26 -2 -56 1v-252h-141v661q148 5 189 5zM235 542q-27 0 -50 -3v-163q31 -3 49 -3q98 0 98 81v14q0 74 -97 74zM275 707h-109l81 147h139z" />
    <glyph glyph-name="racute" unicode="&#x155;" horiz-adv-x="451" 
d="M204 522q102 0 152 -39.5t50 -110.5v-13q0 -43 -21.5 -79t-60.5 -56l133 -224h-144l-107 193q-22 0 -33 1v-194h-129v517q110 5 160 5zM210 412q-17 0 -37 -2v-110q13 -2 35 -2q69 0 69 54v10q0 50 -67 50zM240 554h-102l75 137h134z" />
    <glyph glyph-name="Rcommaaccent" unicode="&#x156;" horiz-adv-x="523" 
d="M233 666q241 0 241 -189v-22q0 -52 -27 -95.5t-76 -68.5l158 -291h-156l-132 251q-26 -2 -56 1v-252h-141v661q148 5 189 5zM235 542q-27 0 -50 -3v-163q31 -3 49 -3q98 0 98 81v14q0 74 -97 74zM265 -56q69 0 69 -59v-22q0 -23 -9 -54l-27 -80h-83l14 83q-31 11 -31 52
v21q0 28 17.5 43.5t49.5 15.5z" />
    <glyph glyph-name="rcommaaccent" unicode="&#x157;" horiz-adv-x="451" 
d="M204 522q102 0 152 -39.5t50 -110.5v-13q0 -43 -21.5 -79t-60.5 -56l133 -224h-144l-107 193q-22 0 -33 1v-194h-129v517q110 5 160 5zM210 412q-17 0 -37 -2v-110q13 -2 35 -2q69 0 69 54v10q0 50 -67 50zM244 -56q69 0 69 -59v-22q0 -23 -9 -54l-27 -80h-83l14 83
q-31 11 -31 52v21q0 28 17.5 43.5t49.5 15.5z" />
    <glyph glyph-name="Rcaron" unicode="&#x158;" horiz-adv-x="523" 
d="M233 666q241 0 241 -189v-22q0 -52 -27 -95.5t-76 -68.5l158 -291h-156l-132 251q-26 -2 -56 1v-252h-141v661q148 5 189 5zM235 542q-27 0 -50 -3v-163q31 -3 49 -3q98 0 98 81v14q0 74 -97 74zM391 780l-149 -69l-149 69v100l149 -56l149 56v-100z" />
    <glyph glyph-name="rcaron" unicode="&#x159;" horiz-adv-x="451" 
d="M204 522q102 0 152 -39.5t50 -110.5v-13q0 -43 -21.5 -79t-60.5 -56l133 -224h-144l-107 193q-22 0 -33 1v-194h-129v517q110 5 160 5zM210 412q-17 0 -37 -2v-110q13 -2 35 -2q69 0 69 54v10q0 50 -67 50zM333 617l-130 -62l-129 62v95l129 -49l130 49v-95z" />
    <glyph glyph-name="Sacute" unicode="&#x15a;" horiz-adv-x="458" 
d="M235 667q64 0 159 -17l-2 -129q-106 18 -153 18q-72 0 -72 -57v-17q0 -22 10.5 -33.5t41.5 -21.5l85 -28q72 -23 102.5 -64.5t30.5 -119.5v-19q0 -96 -55 -143.5t-178 -47.5q-54 0 -160 22l1 132q108 -24 154 -24q97 0 97 59v22q0 40 -42 54l-93 31q-76 26 -105.5 65.5
t-29.5 117.5v10q0 190 209 190zM263 707h-109l81 147h139z" />
    <glyph glyph-name="sacute" unicode="&#x15b;" horiz-adv-x="390" 
d="M201 523q57 0 135 -13l-1 -116q-84 15 -129 15q-53 0 -53 -36v-11q0 -14 7.5 -22t29.5 -14l69 -22q62 -20 87.5 -52.5t25.5 -93.5v-18q0 -75 -45 -113.5t-142 -38.5q-58 0 -146 18l1 117q86 -19 131 -19q71 0 71 38v14q0 27 -32 37l-72 22q-63 20 -88.5 53t-25.5 93v10
q0 152 177 152zM222 554h-102l75 137h134z" />
    <glyph glyph-name="Scircumflex" unicode="&#x15c;" horiz-adv-x="458" 
d="M235 667q64 0 159 -17l-2 -129q-106 18 -153 18q-72 0 -72 -57v-17q0 -22 10.5 -33.5t41.5 -21.5l85 -28q72 -23 102.5 -64.5t30.5 -119.5v-19q0 -96 -55 -143.5t-178 -47.5q-54 0 -160 22l1 132q108 -24 154 -24q97 0 97 59v22q0 40 -42 54l-93 31q-76 26 -105.5 65.5
t-29.5 117.5v10q0 190 209 190zM379 814v-100l-149 56l-149 -56v100l149 70z" />
    <glyph glyph-name="scircumflex" unicode="&#x15d;" horiz-adv-x="390" 
d="M201 523q57 0 135 -13l-1 -116q-84 15 -129 15q-53 0 -53 -36v-11q0 -14 7.5 -22t29.5 -14l69 -22q62 -20 87.5 -52.5t25.5 -93.5v-18q0 -75 -45 -113.5t-142 -38.5q-58 0 -146 18l1 117q86 -19 131 -19q71 0 71 38v14q0 27 -32 37l-72 22q-63 20 -88.5 53t-25.5 93v10
q0 152 177 152zM315 655v-95l-130 49l-129 -49v95l129 62z" />
    <glyph glyph-name="Scedilla" unicode="&#x15e;" horiz-adv-x="458" 
d="M235 667q64 0 159 -17l-2 -129q-106 18 -153 18q-72 0 -72 -57v-17q0 -22 10.5 -33.5t41.5 -21.5l85 -28q72 -23 102.5 -64.5t30.5 -119.5v-19q0 -80 -38.5 -126t-120.5 -59l-8 -25h10q25 0 42.5 -18t17.5 -44v-17q0 -87 -125 -87q-27 0 -63 6v76q21 -3 36 -3q41 0 41 21
v7q0 22 -34 22h-27v18l13 39q-67 5 -137 21l1 132q108 -24 154 -24q97 0 97 59v22q0 40 -42 54l-93 31q-76 26 -105.5 65.5t-29.5 117.5v10q0 190 209 190z" />
    <glyph glyph-name="scedilla" unicode="&#x15f;" horiz-adv-x="390" 
d="M201 523q58 0 134 -13v-116q-84 15 -129 15q-53 0 -53 -36v-11q0 -14 7.5 -22t29.5 -14l69 -22q62 -20 87.5 -52.5t25.5 -93.5v-18q0 -132 -136 -149l-7 -22h10q25 0 42.5 -18t17.5 -44v-17q0 -87 -125 -87q-27 0 -63 6v76q21 -3 36 -3q41 0 41 21v7q-1 22 -34 22h-28v18
l14 41q-44 4 -100 15v117q86 -19 131 -19q71 0 71 38v14q0 27 -32 37l-72 22q-63 20 -88.5 53t-25.5 93v10q0 152 177 152z" />
    <glyph glyph-name="Scaron" unicode="&#x160;" horiz-adv-x="458" 
d="M235 667q64 0 159 -17l-2 -129q-106 18 -153 18q-72 0 -72 -57v-17q0 -22 10.5 -33.5t41.5 -21.5l85 -28q72 -23 102.5 -64.5t30.5 -119.5v-19q0 -96 -55 -143.5t-178 -47.5q-54 0 -160 22l1 132q108 -24 154 -24q97 0 97 59v22q0 40 -42 54l-93 31q-76 26 -105.5 65.5
t-29.5 117.5v10q0 190 209 190zM379 780l-149 -69l-149 69v100l149 -56l149 56v-100z" />
    <glyph glyph-name="scaron" unicode="&#x161;" horiz-adv-x="390" 
d="M201 523q57 0 135 -13l-1 -116q-84 15 -129 15q-53 0 -53 -36v-11q0 -14 7.5 -22t29.5 -14l69 -22q62 -20 87.5 -52.5t25.5 -93.5v-18q0 -75 -45 -113.5t-142 -38.5q-58 0 -146 18l1 117q86 -19 131 -19q71 0 71 38v14q0 27 -32 37l-72 22q-63 20 -88.5 53t-25.5 93v10
q0 152 177 152zM315 617l-130 -62l-129 62v95l129 -49l130 49v-95z" />
    <glyph glyph-name="Tcedilla" unicode="&#x162;" horiz-adv-x="520" 
d="M504 525h-173v-525h-56l-10 -31h10q26 0 43.5 -18t17.5 -44v-17q0 -87 -126 -87q-27 0 -63 6v76q21 -3 36 -3q41 0 41 21v7q0 22 -34 22h-27v18l26 80v495h-173v130h488v-130z" />
    <glyph glyph-name="tcedilla" unicode="&#x163;" horiz-adv-x="441" 
d="M425 395h-140v-395h-43l-10 -31h10q25 0 42.5 -18t17.5 -44v-17q0 -87 -126 -87q-26 0 -62 6v76q21 -3 36 -3q41 0 41 21v7q-1 22 -34 22h-28v18l27 83v362h-140v116h409v-116z" />
    <glyph glyph-name="Tcaron" unicode="&#x164;" horiz-adv-x="520" 
d="M504 525h-173v-525h-142v525h-173v130h488v-130zM409 780l-149 -69l-149 69v100l149 -56l149 56v-100z" />
    <glyph glyph-name="tcaron" unicode="&#x165;" horiz-adv-x="441" 
d="M425 395h-140v-395h-129v395h-140v116h409v-116zM349 617l-130 -62l-129 62v95l129 -49l130 49v-95z" />
    <glyph glyph-name="Tbar" unicode="&#x166;" horiz-adv-x="519" 
d="M503 525h-172v-128h91v-115h-91v-282h-142v282h-91v115h91v128h-173v130h487v-130z" />
    <glyph glyph-name="tbar" unicode="&#x167;" horiz-adv-x="441" 
d="M425 395h-140v-94h67v-95h-67v-206h-129v206h-66v95h66v94h-140v116h409v-116z" />
    <glyph glyph-name="Utilde" unicode="&#x168;" horiz-adv-x="539" 
d="M496 655v-441q0 -109 -56 -167.5t-171 -58.5q-113 0 -169 58t-56 167v442h141v-449q0 -44 22 -67t62 -23q85 0 85 90v449h142zM419 851v-99q-40 -36 -89 -36q-22 0 -62 15t-60 15q-16 0 -38 -7.5t-36 -14.5l-13 -8v99q40 36 89 36q30 0 68 -15.5t54 -15.5t37.5 8t35.5 16
z" />
    <glyph glyph-name="utilde" unicode="&#x169;" horiz-adv-x="468" 
d="M424 511v-342q0 -88 -47.5 -134.5t-142.5 -46.5t-142.5 46.5t-47.5 134.5v342h129v-346q0 -30 16 -46.5t45 -16.5t45 16.5t16 46.5v346h129zM369 699v-94q-30 -30 -78 -30q-20 0 -52.5 12t-49.5 12q-16 0 -35 -6t-30 -12l-12 -6v94q31 29 79 29q26 0 56.5 -12t45.5 -12
t34 6t31 12z" />
    <glyph glyph-name="Umacron" unicode="&#x16a;" horiz-adv-x="539" 
d="M496 655v-441q0 -109 -56 -167.5t-171 -58.5q-113 0 -169 58t-56 167v442h141v-449q0 -44 22 -67t62 -23q85 0 85 90v449h142zM405 709h-271v107h271v-107z" />
    <glyph glyph-name="umacron" unicode="&#x16b;" horiz-adv-x="468" 
d="M424 511v-342q0 -88 -47.5 -134.5t-142.5 -46.5t-142.5 46.5t-47.5 134.5v342h129v-346q0 -30 16 -46.5t45 -16.5t45 16.5t16 46.5v346h129zM352 570h-236v103h236v-103z" />
    <glyph glyph-name="Ubreve" unicode="&#x16c;" horiz-adv-x="539" 
d="M496 655v-441q0 -109 -56 -167.5t-171 -58.5q-113 0 -169 58t-56 167v442h141v-449q0 -44 22 -67t62 -23q85 0 85 90v449h142zM419 875v-111q-7 -7 -19.5 -17t-51.5 -26.5t-78 -16.5t-76.5 15t-55.5 30l-17 15v111q8 -8 21 -19t52.5 -30t75.5 -19t73.5 17t56.5 34z" />
    <glyph glyph-name="ubreve" unicode="&#x16d;" horiz-adv-x="468" 
d="M424 511v-342q0 -88 -47.5 -134.5t-142.5 -46.5t-142.5 46.5t-47.5 134.5v342h129v-346q0 -30 16 -46.5t45 -16.5t45 16.5t16 46.5v346h129zM362 714v-107q-6 -5 -17 -13.5t-44.5 -22t-66.5 -13.5t-65 12t-48 24l-16 13v107q8 -6 20.5 -15.5t46.5 -25.5t62 -16t60 14.5
t50 28.5z" />
    <glyph glyph-name="Uring" unicode="&#x16e;" horiz-adv-x="539" 
d="M496 655v-441q0 -109 -56 -167.5t-171 -58.5q-113 0 -169 58t-56 167v442h141v-449q0 -44 22 -67t62 -23q85 0 85 90v449h142zM270 910q63 0 98 -30t35 -87t-34.5 -87.5t-98.5 -30.5q-63 0 -97.5 30.5t-34.5 87.5t34 87t98 30zM270 829q-31 0 -31 -34q0 -35 31 -35
q32 0 32 35q0 34 -32 34z" />
    <glyph glyph-name="uring" unicode="&#x16f;" horiz-adv-x="468" 
d="M424 511v-342q0 -88 -47.5 -134.5t-142.5 -46.5t-142.5 46.5t-47.5 134.5v342h129v-346q0 -30 16 -46.5t45 -16.5t45 16.5t16 46.5v346h129zM234 760q60 0 94 -28.5t34 -83.5q0 -56 -34 -84t-94 -28q-59 0 -93 28.5t-34 83.5q0 56 34 84t93 28zM235 681q-28 0 -28 -31
q0 -30 28 -30q27 0 27 30q0 31 -27 31z" />
    <glyph glyph-name="Uhungarumlaut" unicode="&#x170;" horiz-adv-x="539" 
d="M496 655v-441q0 -109 -56 -167.5t-171 -58.5q-113 0 -169 58t-56 167v442h141v-449q0 -44 22 -67t62 -23q85 0 85 90v449h142zM229 707h-112l69 159h132zM410 707h-113l70 159h132z" />
    <glyph glyph-name="uhungarumlaut" unicode="&#x171;" horiz-adv-x="468" 
d="M424 511v-342q0 -88 -47.5 -134.5t-142.5 -46.5t-142.5 46.5t-47.5 134.5v342h129v-346q0 -30 16 -46.5t45 -16.5t45 16.5t16 46.5v346h129zM195 554h-102l70 144h122zM362 554h-102l70 144h122z" />
    <glyph glyph-name="Uogonek" unicode="&#x172;" horiz-adv-x="539" 
d="M496 655v-441q0 -75 -28.5 -129t-80.5 -74q-70 -26 -70 -65v-6q0 -28 34 -28q16 0 40 6v-104q-46 -11 -72 -11q-55 0 -85 24t-30 63v10q0 50 52 89q-212 7 -212 224v442h141v-449q0 -44 22 -67t62 -23q85 0 85 90v449h142z" />
    <glyph glyph-name="uogonek" unicode="&#x173;" horiz-adv-x="468" 
d="M424 511v-342q0 -63 -24 -105t-69 -57q-64 -23 -64 -61v-6q0 -28 33 -28q17 0 40 6v-104q-45 -11 -71 -11q-56 0 -85.5 23.5t-29.5 63.5v10q0 53 52 89q-162 15 -162 180v342h129v-346q0 -30 16 -46.5t45 -16.5t45 16.5t16 46.5v346h129z" />
    <glyph glyph-name="Wcircumflex" unicode="&#x174;" horiz-adv-x="822" 
d="M676 0h-167l-97 507l-96 -507h-169l-137 655h148l78 -513l97 513h156l98 -511l78 511h148zM561 814v-100l-149 56l-149 -56v100l149 70z" />
    <glyph glyph-name="wcircumflex" unicode="&#x175;" horiz-adv-x="690" 
d="M570 0h-150l-75 382l-73 -382h-152l-110 511h135l55 -387l75 387h139l76 -385l55 385h135zM475 655v-95l-130 49l-129 -49v95l129 62z" />
    <glyph glyph-name="Ycircumflex" unicode="&#x176;" horiz-adv-x="526" 
d="M334 227v-227h-141v227l-189 428h158l102 -296l103 296h155zM412 814v-100l-149 56l-149 -56v100l149 70z" />
    <glyph glyph-name="ycircumflex" unicode="&#x177;" horiz-adv-x="451" 
d="M290 177v-177h-129v177l-157 334h144l78 -221l79 221h142zM355 655v-95l-130 49l-129 -49v95l129 62z" />
    <glyph glyph-name="Ydieresis" unicode="&#x178;" horiz-adv-x="526" 
d="M334 227v-227h-141v227l-189 428h158l102 -296l103 296h155zM159 861q75 0 75 -65v-24q0 -30 -19.5 -47.5t-55.5 -17.5q-34 0 -54 17.5t-20 47.5v24q0 65 74 65zM364 861q75 0 75 -65v-24q0 -30 -19.5 -47.5t-55.5 -17.5q-34 0 -54 17.5t-20 47.5v24q0 32 20 48.5
t54 16.5z" />
    <glyph glyph-name="Zacute" unicode="&#x179;" horiz-adv-x="474" 
d="M446 548l-255 -419h255v-129h-425v107l255 419h-248v129h418v-107zM270 707h-109l81 147h139z" />
    <glyph glyph-name="zacute" unicode="&#x17a;" horiz-adv-x="408" 
d="M380 415l-201 -299h201v-116h-359v95l201 300h-195v116h353v-96zM239 554h-102l75 137h134z" />
    <glyph glyph-name="Zdotaccent" unicode="&#x17b;" horiz-adv-x="474" 
d="M446 548l-255 -419h255v-129h-425v107l255 419h-248v129h418v-107zM237 868q78 0 78 -69v-25q0 -68 -78 -68q-37 0 -58 18t-21 50v25q0 69 79 69z" />
    <glyph glyph-name="zdotaccent" unicode="&#x17c;" horiz-adv-x="408" 
d="M380 415l-201 -299h201v-116h-359v95l201 300h-195v116h353v-96zM202 729q78 0 78 -69v-25q0 -68 -78 -68q-37 0 -58 18t-21 50v25q0 69 79 69z" />
    <glyph glyph-name="Zcaron" unicode="&#x17d;" horiz-adv-x="474" 
d="M446 548l-255 -419h255v-129h-425v107l255 419h-248v129h418v-107zM386 780l-149 -69l-149 69v100l149 -56l149 56v-100z" />
    <glyph glyph-name="zcaron" unicode="&#x17e;" horiz-adv-x="408" 
d="M380 415l-201 -299h201v-116h-359v95l201 300h-195v116h353v-96zM332 617l-130 -62l-129 62v95l129 -49l130 49v-95z" />
    <glyph glyph-name="longs" unicode="&#x17f;" horiz-adv-x="390" 
d="M201 523q57 0 135 -13l-1 -116q-84 15 -129 15q-53 0 -53 -36v-11q0 -14 7.5 -22t29.5 -14l69 -22q62 -20 87.5 -52.5t25.5 -93.5v-18q0 -75 -45 -113.5t-142 -38.5q-58 0 -146 18l1 117q86 -19 131 -19q71 0 71 38v14q0 27 -32 37l-72 22q-63 20 -88.5 53t-25.5 93v10
q0 152 177 152z" />
    <glyph glyph-name="florin" unicode="&#x192;" horiz-adv-x="330" 
d="M237 612q51 0 87 -9v-116q-40 6 -65 6q-28 0 -40.5 -14t-12.5 -48v-26h86v-120h-86v-470h-136v470h-60v120h60v36q0 83 42.5 127t124.5 44z" />
    <glyph glyph-name="AEacute" unicode="&#x1fc;" horiz-adv-x="756" 
d="M723 525h-236v-128h216v-129h-216v-138h236v-130h-377v137h-147l-50 -137h-151l257 655h468v-130zM243 267h102v275zM552 707h-109l81 147h139z" />
    <glyph glyph-name="aeacute" unicode="&#x1fd;" horiz-adv-x="640" 
d="M607 395h-192v-81h175v-113h-175v-85h192v-116h-321v94h-115l-34 -94h-139l205 511h404v-116zM206 197h79v216zM454 554h-102l75 137h134z" />
    <glyph glyph-name="Oslashacute" unicode="&#x1fe;" horiz-adv-x="538" 
d="M541 705l-72 -131q30 -52 30 -132v-229q0 -225 -230 -225q-65 0 -112 19l-33 -57h-131l75 133q-29 51 -29 130v229q0 225 230 225q63 0 110 -19l32 57h130zM269 539q-89 0 -89 -88v-171q0 -16 1 -23l146 265q-22 17 -58 17zM357 398l-147 -266q20 -16 59 -16q89 0 89 90
v170q0 15 -1 22zM301 707h-109l81 147h139z" />
    <glyph glyph-name="oslashacute" unicode="&#x1ff;" horiz-adv-x="464" 
d="M487 558l-80 -124q19 -41 19 -95v-167q0 -184 -193 -184q-51 0 -88 14l-31 -49h-135l79 123q-19 39 -19 96v167q0 184 194 184q49 0 88 -14l31 49h135zM269 554h-102l75 137h134zM233 409q-65 0 -65 -61v-141l109 188q-17 14 -44 14zM297 301l-109 -186q16 -13 44 -13
q31 0 48 16.5t17 45.5v137z" />
    <glyph glyph-name="Scommaaccent" unicode="&#x218;" horiz-adv-x="458" 
d="M235 667q64 0 159 -17l-2 -129q-106 18 -153 18q-72 0 -72 -57v-17q0 -22 10.5 -33.5t41.5 -21.5l85 -28q72 -23 102.5 -64.5t30.5 -119.5v-19q0 -96 -55 -143.5t-178 -47.5q-54 0 -160 22l1 132q108 -24 154 -24q97 0 97 59v22q0 40 -42 54l-93 31q-76 26 -105.5 65.5
t-29.5 117.5v10q0 190 209 190zM230 -56q69 0 69 -59v-22q0 -23 -9 -54l-27 -80h-83l14 83q-31 11 -31 52v21q0 28 17.5 43.5t49.5 15.5z" />
    <glyph glyph-name="scommaaccent" unicode="&#x219;" horiz-adv-x="390" 
d="M201 523q57 0 135 -13l-1 -116q-84 15 -129 15q-53 0 -53 -36v-11q0 -14 7.5 -22t29.5 -14l69 -22q62 -20 87.5 -52.5t25.5 -93.5v-18q0 -75 -45 -113.5t-142 -38.5q-58 0 -146 18l1 117q86 -19 131 -19q71 0 71 38v14q0 27 -32 37l-72 22q-63 20 -88.5 53t-25.5 93v10
q0 152 177 152zM213 -56q69 0 69 -59v-22q0 -23 -9 -54l-27 -80h-83l14 83q-31 11 -31 52v21q0 28 17.5 43.5t49.5 15.5z" />
    <glyph glyph-name="uni021A" unicode="&#x21a;" horiz-adv-x="520" 
d="M504 525h-173v-525h-142v525h-173v130h488v-130zM259 -56q69 0 69 -59v-22q0 -23 -9 -54l-27 -80h-83l14 83q-31 11 -31 52v21q0 28 17.5 43.5t49.5 15.5z" />
    <glyph glyph-name="uni021B" unicode="&#x21b;" horiz-adv-x="441" 
d="M425 395h-140v-395h-129v395h-140v116h409v-116zM220 -56q69 0 69 -59v-22q0 -23 -9 -54l-27 -80h-83l14 83q-31 11 -31 52v21q0 28 17.5 43.5t49.5 15.5z" />
    <glyph glyph-name="dotlessj" unicode="&#x237;" horiz-adv-x="271" 
d="M228 511v-358q0 -85 -36.5 -125t-110.5 -40q-50 0 -82 9v109q26 -5 58 -5q23 0 32.5 10.5t9.5 38.5v361h129z" />
    <glyph glyph-name="uni02BC" unicode="&#x2bc;" horiz-adv-x="205" 
d="M106 695q69 0 69 -59v-22q0 -22 -9 -54l-27 -80h-83l14 83q-31 11 -31 52v21q0 28 17.5 43.5t49.5 15.5z" />
    <glyph glyph-name="circumflex" unicode="&#x2c6;" horiz-adv-x="319" 
d="M289 655v-95l-130 49l-129 -49v95l129 62z" />
    <glyph glyph-name="caron" unicode="&#x2c7;" horiz-adv-x="319" 
d="M289 617l-130 -62l-129 62v95l129 -49l130 49v-95z" />
    <glyph glyph-name="uni02C9" unicode="&#x2c9;" horiz-adv-x="311" 
d="M281 583h-251v108h251v-108z" />
    <glyph glyph-name="breve" unicode="&#x2d8;" horiz-adv-x="317" 
d="M287 714v-107q-6 -5 -17 -13.5t-44.5 -22t-66.5 -13.5t-65 12t-48 24l-16 13v107q8 -6 20.5 -15.5t46.5 -25.5t62 -16t60 14.5t50 28.5z" />
    <glyph glyph-name="dotaccent" unicode="&#x2d9;" horiz-adv-x="217" 
d="M109 729q78 0 78 -69v-25q0 -68 -78 -68q-37 0 -58 18t-21 50v25q0 69 79 69z" />
    <glyph glyph-name="ring" unicode="&#x2da;" horiz-adv-x="315" 
d="M157 760q60 0 94 -28.5t34 -83.5q0 -56 -34 -84t-94 -28q-59 0 -93 28.5t-34 83.5q0 56 34 84t93 28zM158 681q-28 0 -28 -31q0 -30 28 -30q27 0 27 30q0 31 -27 31z" />
    <glyph glyph-name="ogonek" unicode="&#x2db;" horiz-adv-x="247" 
d="M185 28l31 -20q-73 -17 -73 -62v-6q0 -28 34 -28q16 0 40 6v-104q-46 -11 -72 -11q-55 0 -85 24t-30 63v10q0 46 44 82t111 46z" />
    <glyph glyph-name="tilde" unicode="&#x2dc;" horiz-adv-x="317" 
d="M287 699v-94q-30 -30 -78 -30q-20 0 -52.5 12t-49.5 12q-16 0 -35 -6t-30 -12l-12 -6v94q31 29 79 29q26 0 56.5 -12t45.5 -12t34 6t31 12z" />
    <glyph glyph-name="hungarumlaut" unicode="&#x2dd;" horiz-adv-x="415" 
d="M132 554h-102l70 144h122zM299 554h-102l70 144h122z" />
    <glyph glyph-name="uni0312" unicode="&#x312;" horiz-adv-x="0" 
d="M149 771l-14 -82q31 -13 31 -53v-21q0 -28 -17.5 -43.5t-49.5 -15.5q-69 0 -69 59v23q0 22 9 53l27 80h83z" />
    <glyph glyph-name="uni0313" unicode="&#x313;" horiz-adv-x="0" 
d="M97 695q69 0 69 -59v-22q0 -22 -9 -54l-27 -80h-83l14 83q-31 11 -31 52v21q0 28 17.5 43.5t49.5 15.5z" />
    <glyph glyph-name="uni0326" unicode="&#x326;" horiz-adv-x="196" 
d="M97 -56q69 0 69 -59v-22q0 -23 -9 -54l-27 -80h-83l14 83q-31 11 -31 52v21q0 28 17.5 43.5t49.5 15.5z" />
    <glyph glyph-name="uni037E" unicode="&#x37e;" horiz-adv-x="214" 
d="M107 480q80 0 80 -70v-25q0 -69 -80 -69t-80 69v25q0 70 80 70zM106 152q80 0 80 -68v-28q0 -31 -7 -53l-54 -164h-97l41 156q-41 14 -41 63v26q0 68 78 68z" />
    <glyph glyph-name="tonos" unicode="&#x384;" horiz-adv-x="263" 
d="M145 544h-115l48 174h155z" />
    <glyph glyph-name="dieresistonos" unicode="&#x385;" horiz-adv-x="432" 
d="M271 757h-115l46 163h155zM103 725q32 0 53 -18.5t21 -48.5v-20q0 -30 -21.5 -49t-52.5 -19q-30 0 -51.5 19t-21.5 49v20q0 30 21.5 48.5t51.5 18.5zM328 725q31 0 52.5 -18.5t21.5 -48.5v-20q0 -30 -21.5 -49t-52.5 -19t-52 19t-21 49v20q0 30 21 48.5t52 18.5z" />
    <glyph glyph-name="Alphatonos" unicode="&#x386;" horiz-adv-x="614" 
d="M618 0h-151l-30 128h-188l-30 -128h-146l190 655h165zM273 246h138l-69 295zM130 481h-115l48 174h155z" />
    <glyph glyph-name="anoteleia" unicode="&#x387;" horiz-adv-x="214" 
d="M107 352q80 0 80 -70v-25q0 -69 -80 -69t-80 69v25q0 70 80 70z" />
    <glyph glyph-name="Epsilontonos" unicode="&#x388;" horiz-adv-x="617" 
d="M584 525h-237v-128h217v-129h-217v-138h237v-130h-378v655h378v-130zM91 481h-115l48 174h155z" />
    <glyph glyph-name="Etatonos" unicode="&#x389;" horiz-adv-x="543" 
d="M499 0h-141v272h-173v-272h-141v655h141v-254h173v254h141v-655zM-74 481h-115l48 174h155z" />
    <glyph glyph-name="Iotatonos" unicode="&#x38a;" horiz-adv-x="390" 
d="M347 0h-141v655h141v-655zM91 481h-115l48 174h155z" />
    <glyph glyph-name="Omicrontonos" unicode="&#x38c;" horiz-adv-x="662" 
d="M393 667q230 0 230 -225v-229q0 -225 -230 -225t-230 225v229q0 225 230 225zM393 539q-89 0 -89 -88v-245q0 -90 89 -90t89 90v244q0 89 -89 89zM102 481h-115l48 174h155z" />
    <glyph glyph-name="Upsilontonos" unicode="&#x38e;" horiz-adv-x="753" 
d="M115 481h-115l48 174h155zM560 227v-227h-141v227l-189 428h158l102 -296l103 296h155z" />
    <glyph glyph-name="Omegatonos" unicode="&#x38f;" horiz-adv-x="660" 
d="M389 667q115 0 173 -57.5t58 -164.5v-171q0 -97 -62 -145h71v-129h-209v122h3q26 0 41 22.5t15 65.5v243q0 87 -90 87q-89 0 -89 -87v-243q0 -42 15.5 -65t40.5 -23h4v-122h-210v129h72q-63 48 -63 145v171q0 107 58 164.5t172 57.5zM102 481h-115l48 174h155z" />
    <glyph glyph-name="iotadieresistonos" unicode="&#x390;" horiz-adv-x="216" 
d="M173 0h-129v511h129v-511zM162 757h-115l46 163h155zM-6 725q32 0 53 -18.5t21 -48.5v-20q0 -30 -21.5 -49t-52.5 -19q-30 0 -51.5 19t-21.5 49v20q0 30 21.5 48.5t51.5 18.5zM219 725q31 0 52.5 -18.5t21.5 -48.5v-20q0 -30 -21.5 -49t-52.5 -19t-52 19t-21 49v20
q0 30 21 48.5t52 18.5z" />
    <glyph glyph-name="Alpha" unicode="&#x391;" horiz-adv-x="539" 
d="M543 0h-151l-30 128h-188l-30 -128h-146l190 655h165zM198 246h138l-69 295z" />
    <glyph glyph-name="Beta" unicode="&#x392;" horiz-adv-x="503" 
d="M234 666q110 0 169.5 -45.5t59.5 -117.5v-16q0 -106 -103 -144q59 -11 93.5 -51t34.5 -98v-18q0 -87 -60.5 -137.5t-188.5 -50.5q-107 0 -195 5v668q130 5 190 5zM229 544q-26 0 -44 -2v-151h57q39 0 59.5 19.5t20.5 54.5v14q0 65 -93 65zM185 272v-157q27 -2 57 -2
q104 0 104 73v17q0 69 -99 69h-62z" />
    <glyph glyph-name="Gamma" unicode="&#x393;" horiz-adv-x="433" 
d="M417 525h-232v-525h-141v655h373v-130z" />
    <glyph glyph-name="uni0394" unicode="&#x394;" horiz-adv-x="526" 
d="M513 85v-85h-501v85l169 570h162zM159 125h201l-98 417z" />
    <glyph glyph-name="Epsilon" unicode="&#x395;" horiz-adv-x="455" 
d="M422 525h-237v-128h217v-129h-217v-138h237v-130h-378v655h378v-130z" />
    <glyph glyph-name="Zeta" unicode="&#x396;" horiz-adv-x="474" 
d="M446 548l-255 -419h255v-129h-425v107l255 419h-248v129h418v-107z" />
    <glyph glyph-name="Eta" unicode="&#x397;" horiz-adv-x="543" 
d="M499 0h-141v272h-173v-272h-141v655h141v-254h173v254h141v-655z" />
    <glyph glyph-name="Theta" unicode="&#x398;" horiz-adv-x="538" 
d="M269 667q230 0 230 -225v-229q0 -225 -230 -225t-230 225v229q0 225 230 225zM269 539q-89 0 -89 -88v-245q0 -90 89 -90t89 90v244q0 89 -89 89zM324 279h-110v106h110v-106z" />
    <glyph glyph-name="Iota" unicode="&#x399;" horiz-adv-x="229" 
d="M185 0h-141v655h141v-655z" />
    <glyph glyph-name="Kappa" unicode="&#x39a;" horiz-adv-x="538" 
d="M296 334l248 -334h-168l-191 270v-270h-141v655h141v-281l193 281h147z" />
    <glyph glyph-name="Lambda" unicode="&#x39b;" horiz-adv-x="532" 
d="M536 0h-151l-120 541l-121 -541h-146l186 655h165z" />
    <glyph glyph-name="Mu" unicode="&#x39c;" horiz-adv-x="668" 
d="M488 404l-82 -329h-145l-82 329l-6 -404h-133l6 655h173l116 -437l115 437h171l6 -655h-132z" />
    <glyph glyph-name="Nu" unicode="&#x39d;" horiz-adv-x="545" 
d="M179 407v-407h-135v655h180l142 -407v407h135v-655h-176z" />
    <glyph glyph-name="Xi" unicode="&#x39e;" horiz-adv-x="469" 
d="M442 521h-414v134h414v-134zM380 266h-291v132h291v-132zM442 0h-414v134h414v-134z" />
    <glyph glyph-name="Omicron" unicode="&#x39f;" horiz-adv-x="538" 
d="M269 667q230 0 230 -225v-229q0 -225 -230 -225t-230 225v229q0 225 230 225zM269 539q-89 0 -89 -88v-245q0 -90 89 -90t89 90v244q0 89 -89 89z" />
    <glyph glyph-name="Pi" unicode="&#x3a0;" horiz-adv-x="543" 
d="M499 0h-141v525h-173v-525h-141v655h455v-655z" />
    <glyph glyph-name="Rho" unicode="&#x3a1;" horiz-adv-x="492" 
d="M232 666q122 1 183 -51t61 -144v-21q0 -98 -58.5 -153t-169.5 -55q-29 0 -63 5v-247h-141v660q100 6 188 6zM233 543q-34 0 -48 -2v-169q44 -4 52 -4q98 0 98 86v14q0 75 -102 75z" />
    <glyph glyph-name="Sigma" unicode="&#x3a3;" horiz-adv-x="457" 
d="M439 525h-247l128 -169v-50l-132 -176h251v-130h-417v108l158 223l-158 216v108h417v-130z" />
    <glyph glyph-name="Tau" unicode="&#x3a4;" horiz-adv-x="520" 
d="M504 525h-173v-525h-142v525h-173v130h488v-130z" />
    <glyph glyph-name="Upsilon" unicode="&#x3a5;" horiz-adv-x="526" 
d="M334 227v-227h-141v227l-189 428h158l102 -296l103 296h155z" />
    <glyph glyph-name="Phi" unicode="&#x3a6;" horiz-adv-x="709" 
d="M425 695v-75q18 2 28 2q121 0 173.5 -51.5t52.5 -162.5v-132q0 -112 -52.5 -163t-171.5 -51q-17 0 -30 2v-76h-141v76q-14 -2 -32 -2q-116 0 -169.5 50t-53.5 164v132q0 110 52 162t173 52q10 0 30 -2v75h141zM255 496q-45 0 -64.5 -18.5t-19.5 -60.5v-151
q0 -43 19.5 -61.5t64.5 -18.5h29v309q-9 1 -29 1zM454 496q-20 0 -29 -1v-309h29q45 0 64.5 18.5t19.5 61.5v151q0 43 -19.5 61t-64.5 18z" />
    <glyph glyph-name="Chi" unicode="&#x3a7;" horiz-adv-x="539" 
d="M352 335l191 -335h-166l-108 221l-109 -221h-162l192 335l-182 320h164l101 -206l101 206h160z" />
    <glyph glyph-name="Psi" unicode="&#x3a8;" horiz-adv-x="686" 
d="M646 655v-307q0 -194 -189 -194h-42v-154h-141v154h-44q-189 0 -189 194v307h141v-317q0 -58 48 -58h44v375h141v-375h42q48 0 48 58v317h141z" />
    <glyph glyph-name="uni03A9" unicode="&#x3a9;" horiz-adv-x="538" 
d="M268 667q115 0 173 -57.5t58 -164.5v-171q0 -97 -62 -145h71v-129h-209v122h3q26 0 41 22.5t15 65.5v243q0 87 -90 87q-89 0 -89 -87v-243q0 -42 15.5 -65t40.5 -23h4v-122h-210v129h72q-63 48 -63 145v171q0 107 58 164.5t172 57.5z" />
    <glyph glyph-name="Iotadieresis" unicode="&#x3aa;" horiz-adv-x="229" 
d="M185 0h-141v655h141v-655zM11 861q75 0 75 -65v-24q0 -30 -19.5 -47.5t-55.5 -17.5q-34 0 -54 17.5t-20 47.5v24q0 65 74 65zM216 861q75 0 75 -65v-24q0 -30 -19.5 -47.5t-55.5 -17.5q-34 0 -54 17.5t-20 47.5v24q0 32 20 48.5t54 16.5z" />
    <glyph glyph-name="Upsilondieresis" unicode="&#x3ab;" horiz-adv-x="526" 
d="M159 861q75 0 75 -65v-24q0 -30 -19.5 -47.5t-55.5 -17.5q-34 0 -54 17.5t-20 47.5v24q0 65 74 65zM364 861q75 0 75 -65v-24q0 -30 -19.5 -47.5t-55.5 -17.5q-34 0 -54 17.5t-20 47.5v24q0 32 20 48.5t54 16.5zM334 227v-227h-141v227l-189 428h158l102 -296l103 296
h155z" />
    <glyph glyph-name="alphatonos" unicode="&#x3ac;" horiz-adv-x="454" 
d="M458 0h-137l-22 94h-145l-22 -94h-134l155 511h150zM174 197h101l-50 215z" />
    <glyph glyph-name="epsilontonos" unicode="&#x3ad;" horiz-adv-x="398" 
d="M365 395h-192v-81h175v-113h-175v-85h192v-116h-321v511h321v-116z" />
    <glyph glyph-name="etatonos" unicode="&#x3ae;" horiz-adv-x="470" 
d="M427 0h-129v204h-125v-204h-129v511h129v-192h125v192h129v-511z" />
    <glyph glyph-name="iotatonos" unicode="&#x3af;" horiz-adv-x="216" 
d="M173 0h-129v511h129v-511z" />
    <glyph glyph-name="upsilondieresistonos" unicode="&#x3b0;" horiz-adv-x="451" 
d="M279 757h-115l46 163h155zM111 725q32 0 53 -18.5t21 -48.5v-20q0 -30 -21.5 -49t-52.5 -19q-30 0 -51.5 19t-21.5 49v20q0 30 21.5 48.5t51.5 18.5zM336 725q31 0 52.5 -18.5t21.5 -48.5v-20q0 -30 -21.5 -49t-52.5 -19t-52 19t-21 49v20q0 30 21 48.5t52 18.5zM290 177
v-177h-129v177l-157 334h144l78 -221l79 221h142z" />
    <glyph glyph-name="alpha" unicode="&#x3b1;" horiz-adv-x="454" 
d="M458 0h-137l-22 94h-145l-22 -94h-134l155 511h150zM174 197h101l-50 215z" />
    <glyph glyph-name="beta" unicode="&#x3b2;" horiz-adv-x="436" 
d="M208 522q91 0 140.5 -35.5t49.5 -90.5v-15q0 -87 -84 -112q49 -10 76 -41.5t27 -78.5v-12q0 -149 -208 -149q-76 0 -165 5v524q102 5 164 5zM206 414q-1 0 -33 -2v-103h41q56 0 56 48v13q0 44 -64 44zM173 208v-108q16 -2 41 -2q75 0 75 50v12q0 48 -69 48h-47z" />
    <glyph glyph-name="gamma" unicode="&#x3b3;" horiz-adv-x="375" 
d="M359 395h-186v-395h-129v511h315v-116z" />
    <glyph glyph-name="delta" unicode="&#x3b4;" horiz-adv-x="446" 
d="M436 74v-74h-426v73l139 438h148zM144 111h154l-76 302z" />
    <glyph glyph-name="epsilon" unicode="&#x3b5;" horiz-adv-x="398" 
d="M365 395h-192v-81h175v-113h-175v-85h192v-116h-321v511h321v-116z" />
    <glyph glyph-name="zeta" unicode="&#x3b6;" horiz-adv-x="408" 
d="M380 415l-201 -299h201v-116h-359v95l201 300h-195v116h353v-96z" />
    <glyph glyph-name="eta" unicode="&#x3b7;" horiz-adv-x="470" 
d="M427 0h-129v204h-125v-204h-129v511h129v-192h125v192h129v-511z" />
    <glyph glyph-name="theta" unicode="&#x3b8;" horiz-adv-x="464" 
d="M232 523q194 0 194 -184v-167q0 -184 -194 -184q-193 0 -193 184v167q0 184 193 184zM233 409q-65 0 -65 -61v-181q0 -65 65 -65q64 0 64 62v180q0 65 -64 65zM270 225h-77v69h77v-69z" />
    <glyph glyph-name="iota" unicode="&#x3b9;" horiz-adv-x="216" 
d="M173 0h-129v511h129v-511z" />
    <glyph glyph-name="kappa" unicode="&#x3ba;" horiz-adv-x="464" 
d="M281 264l190 -264h-153l-145 205v-205h-129v511h129v-213l148 213h135z" />
    <glyph glyph-name="lambda" unicode="&#x3bb;" horiz-adv-x="454" 
d="M458 0h-138l-93 411l-95 -411h-134l154 511h150z" />
    <glyph glyph-name="uni03BC" unicode="&#x3bc;" horiz-adv-x="577" 
d="M536 0h-125l-5 297l-61 -236h-115l-62 235l-5 -296h-123l4 511h153l91 -331l92 331h152z" />
    <glyph glyph-name="nu" unicode="&#x3bd;" horiz-adv-x="472" 
d="M428 0h-143l-117 290v-290h-124v511h149l112 -286v286h123v-511z" />
    <glyph glyph-name="xi" unicode="&#x3be;" horiz-adv-x="405" 
d="M378 391h-350v120h350v-120zM328 199h-250v119h250v-119zM378 0h-350v120h350v-120z" />
    <glyph glyph-name="omicron" unicode="&#x3bf;" horiz-adv-x="464" 
d="M232 523q194 0 194 -184v-167q0 -184 -194 -184q-193 0 -193 184v167q0 184 193 184zM233 409q-65 0 -65 -61v-181q0 -65 65 -65q64 0 64 62v180q0 65 -64 65z" />
    <glyph glyph-name="pi" unicode="&#x3c0;" horiz-adv-x="470" 
d="M427 0h-129v395h-125v-395h-129v511h383v-511z" />
    <glyph glyph-name="rho" unicode="&#x3c1;" horiz-adv-x="425" 
d="M203 522q103 0 154.5 -41.5t51.5 -116.5v-19q0 -79 -47 -122t-133 -43q-31 0 -56 5v-185h-129v517q4 0 65.5 2.5t93.5 2.5zM206 412q-22 0 -33 -1v-119q21 -3 37 -3q69 0 69 60v10q0 53 -73 53z" />
    <glyph glyph-name="sigma1" unicode="&#x3c2;" horiz-adv-x="392" 
d="M374 395h-195l97 -115v-43l-101 -121h199v-116h-352v95l123 163l-123 158v95h352v-116z" />
    <glyph glyph-name="sigma" unicode="&#x3c3;" horiz-adv-x="392" 
d="M374 395h-195l97 -115v-43l-101 -121h199v-116h-352v95l123 163l-123 158v95h352v-116z" />
    <glyph glyph-name="tau" unicode="&#x3c4;" horiz-adv-x="441" 
d="M425 395h-140v-395h-129v395h-140v116h409v-116z" />
    <glyph glyph-name="upsilon" unicode="&#x3c5;" horiz-adv-x="451" 
d="M290 177v-177h-129v177l-157 334h144l78 -221l79 221h142z" />
    <glyph glyph-name="phi" unicode="&#x3c6;" horiz-adv-x="605" 
d="M366 540v-56q4 0 10 0.5t9 0.5q101 0 145.5 -41t44.5 -129v-101q0 -89 -45 -129t-145 -40h-19v-57h-128v56h-19q-100 0 -145 40.5t-45 129.5v101q0 88 44.5 129t145.5 41q3 0 9.5 -0.5t9.5 -0.5v56h128zM219 373q-33 0 -47 -11.5t-14 -39.5v-116q0 -28 15 -40t52 -12h16
v218q-4 0 -11.5 0.5t-10.5 0.5zM386 373q-4 0 -11.5 -0.5t-11.5 -0.5v-218h16q37 0 52 12t15 40v116q0 28 -13.5 39.5t-46.5 11.5z" />
    <glyph glyph-name="chi" unicode="&#x3c7;" horiz-adv-x="451" 
d="M298 261l157 -261h-149l-79 161l-81 -161h-148l157 261l-149 250h148l73 -151l73 151h147z" />
    <glyph glyph-name="psi" unicode="&#x3c8;" horiz-adv-x="589" 
d="M548 511v-239q0 -155 -159 -155h-30v-117h-127v117h-31q-160 0 -160 155v239h127v-247q0 -35 32 -35h32v282h127v-282h31q31 0 31 35v247h127z" />
    <glyph glyph-name="omega" unicode="&#x3c9;" horiz-adv-x="465" 
d="M232 523q96 0 145 -46.5t49 -131.5v-111q0 -38 -14 -70t-37 -49h58v-115h-176v108h3q36 0 36 56v184q0 29 -17 45t-47 16t-47 -16t-17 -45v-184q0 -56 36 -56h4v-108h-177v115h58q-23 17 -37 49t-14 70v111q0 86 48.5 132t145.5 46z" />
    <glyph glyph-name="iotadieresis" unicode="&#x3ca;" horiz-adv-x="216" 
d="M173 0h-129v511h129v-511zM4 724q75 0 75 -65v-24q0 -31 -19.5 -48t-55.5 -17q-35 0 -54.5 17t-19.5 48v24q0 31 19.5 48t54.5 17zM209 724q75 0 75 -65v-24q0 -31 -19.5 -48t-55.5 -17q-35 0 -54.5 17t-19.5 48v24q0 31 19.5 48t54.5 17z" />
    <glyph glyph-name="upsilondieresis" unicode="&#x3cb;" horiz-adv-x="451" 
d="M121 724q75 0 75 -65v-24q0 -31 -19.5 -48t-55.5 -17q-35 0 -54.5 17t-19.5 48v24q0 31 19.5 48t54.5 17zM326 724q75 0 75 -65v-24q0 -31 -19.5 -48t-55.5 -17q-35 0 -54.5 17t-19.5 48v24q0 31 19.5 48t54.5 17zM290 177v-177h-129v177l-157 334h144l78 -221l79 221
h142z" />
    <glyph glyph-name="omicrontonos" unicode="&#x3cc;" horiz-adv-x="464" 
d="M232 523q194 0 194 -184v-167q0 -184 -194 -184q-193 0 -193 184v167q0 184 193 184zM233 409q-65 0 -65 -61v-181q0 -65 65 -65q64 0 64 62v180q0 65 -64 65z" />
    <glyph glyph-name="upsilontonos" unicode="&#x3cd;" horiz-adv-x="451" 
d="M290 177v-177h-129v177l-157 334h144l78 -221l79 221h142z" />
    <glyph glyph-name="omegatonos" unicode="&#x3ce;" horiz-adv-x="465" 
d="M232 523q96 0 145 -46.5t49 -131.5v-111q0 -38 -14 -70t-37 -49h58v-115h-176v108h3q36 0 36 56v184q0 29 -17 45t-47 16t-47 -16t-17 -45v-184q0 -56 36 -56h4v-108h-177v115h58q-23 17 -37 49t-14 70v111q0 86 48.5 132t145.5 46z" />
    <glyph glyph-name="uni0401" unicode="&#x401;" horiz-adv-x="455" 
d="M422 525h-237v-128h217v-129h-217v-138h237v-130h-378v655h378v-130zM127 861q75 0 75 -65v-24q0 -30 -19.5 -47.5t-55.5 -17.5q-34 0 -54 17.5t-20 47.5v24q0 65 74 65zM332 861q75 0 75 -65v-24q0 -30 -19.5 -47.5t-55.5 -17.5q-34 0 -54 17.5t-20 47.5v24
q0 32 20 48.5t54 16.5z" />
    <glyph glyph-name="uni0402" unicode="&#x402;" horiz-adv-x="670" 
d="M503 525h-172v-91q47 7 86 7q224 0 224 -223v-35q0 -195 -174 -195q-47 0 -76 8v123q27 -5 59 -5q26 0 38 13.5t12 44.5v55q0 89 -85 89q-52 0 -84 -6v-310h-142v525h-173v130h487v-130z" />
    <glyph glyph-name="uni0403" unicode="&#x403;" horiz-adv-x="433" 
d="M417 525h-232v-525h-141v655h373v-130zM256 707h-109l81 147h139z" />
    <glyph glyph-name="uni0404" unicode="&#x404;" horiz-adv-x="454" 
d="M264 667q48 0 158 -18l-2 -126q-98 16 -135 16q-61 0 -83 -21.5t-22 -79.5v-41h198v-130h-198v-49q0 -58 22.5 -79t82.5 -21q44 0 135 19l2 -130q-104 -19 -158 -19q-122 0 -173.5 52t-51.5 162v251q0 111 52 162.5t173 51.5z" />
    <glyph glyph-name="uni0405" unicode="&#x405;" horiz-adv-x="458" 
d="M235 667q64 0 159 -17l-2 -129q-106 18 -153 18q-72 0 -72 -57v-17q0 -22 10.5 -33.5t41.5 -21.5l85 -28q72 -23 102.5 -64.5t30.5 -119.5v-19q0 -96 -55 -143.5t-178 -47.5q-54 0 -160 22l1 132q108 -24 154 -24q97 0 97 59v22q0 40 -42 54l-93 31q-76 26 -105.5 65.5
t-29.5 117.5v10q0 190 209 190z" />
    <glyph glyph-name="uni0406" unicode="&#x406;" horiz-adv-x="229" 
d="M185 0h-141v655h141v-655z" />
    <glyph glyph-name="uni0407" unicode="&#x407;" horiz-adv-x="229" 
d="M185 0h-141v655h141v-655zM11 861q75 0 75 -65v-24q0 -30 -19.5 -47.5t-55.5 -17.5q-34 0 -54 17.5t-20 47.5v24q0 65 74 65zM216 861q75 0 75 -65v-24q0 -30 -19.5 -47.5t-55.5 -17.5q-34 0 -54 17.5t-20 47.5v24q0 32 20 48.5t54 16.5z" />
    <glyph glyph-name="uni0408" unicode="&#x408;" horiz-adv-x="306" 
d="M263 655v-472q0 -195 -174 -195q-59 0 -90 11v122q40 -7 73 -7q26 0 38 14.5t12 48.5v478h141z" />
    <glyph glyph-name="uni0409" unicode="&#x409;" horiz-adv-x="821" 
d="M306 667q91 0 201 -10v-251q43 6 72 6q107 0 166 -51t59 -148v-24q0 -95 -61 -148t-180 -53q-78 0 -197 9v543q-30 3 -58 3q-84 0 -85 -90l-3 -247q-3 -218 -161 -218q-31 0 -65 10v119q8 0 22 -1.5t20 -1.5q42 0 43 75l3 256q3 222 224 222zM559 286q-8 0 -53 -3v-167
q32 -3 52 -3q104 0 104 79v20q0 74 -103 74z" />
    <glyph glyph-name="uni040A" unicode="&#x40a;" horiz-adv-x="813" 
d="M499 655v-249q43 6 73 6q107 0 165.5 -51t58.5 -148v-24q0 -95 -60.5 -148t-180.5 -53q-78 0 -197 9v275h-173v-272h-141v655h141v-254h173v254h141zM552 286q-8 0 -53 -3v-167q31 -3 52 -3q104 0 104 79v20q0 74 -103 74z" />
    <glyph glyph-name="uni040B" unicode="&#x40b;" horiz-adv-x="668" 
d="M504 525h-173v-83q52 6 84 6q224 0 224 -223v-225h-142v234q0 89 -84 89q-50 0 -82 -6v-317h-142v525h-173v130h488v-130z" />
    <glyph glyph-name="uni040C" unicode="&#x40c;" horiz-adv-x="555" 
d="M340 350l224 -350h-166l-171 276h-42v-276h-141v655h141v-264h40l164 264h148zM308 707h-109l81 147h139z" />
    <glyph glyph-name="uni040E" unicode="&#x40e;" horiz-adv-x="514" 
d="M230 0h-147l104 234l-186 421h160l97 -284l109 284h152zM408 875v-111q-7 -7 -19.5 -17t-51.5 -26.5t-78 -16.5t-76.5 15t-54.5 30l-18 15v111q8 -8 21 -19t52.5 -30t75.5 -19t73.5 17t56.5 34z" />
    <glyph glyph-name="uni040F" unicode="&#x40f;" horiz-adv-x="543" 
d="M499 0h-162v-130h-131v130h-162v655h141v-525h173v525h141v-655z" />
    <glyph glyph-name="uni0410" unicode="&#x410;" horiz-adv-x="539" 
d="M543 0h-151l-30 128h-188l-30 -128h-146l190 655h165zM198 246h138l-69 295z" />
    <glyph glyph-name="uni0411" unicode="&#x411;" horiz-adv-x="500" 
d="M417 525h-232v-119q43 6 73 6q107 0 165.5 -51t58.5 -148v-24q0 -95 -60.5 -148t-180.5 -53q-78 0 -197 9v658h373v-130zM238 286q-8 0 -53 -3v-167q31 -3 52 -3q104 0 104 79v20q0 74 -103 74z" />
    <glyph glyph-name="uni0412" unicode="&#x412;" horiz-adv-x="503" 
d="M234 666q110 0 169.5 -45.5t59.5 -117.5v-16q0 -106 -103 -144q59 -11 93.5 -51t34.5 -98v-18q0 -87 -60.5 -137.5t-188.5 -50.5q-107 0 -195 5v668q130 5 190 5zM229 544q-26 0 -44 -2v-151h57q39 0 59.5 19.5t20.5 54.5v14q0 65 -93 65zM185 272v-157q27 -2 57 -2
q104 0 104 73v17q0 69 -99 69h-62z" />
    <glyph glyph-name="uni0413" unicode="&#x413;" horiz-adv-x="433" 
d="M417 525h-232v-525h-141v655h373v-130z" />
    <glyph glyph-name="uni0414" unicode="&#x414;" horiz-adv-x="575" 
d="M308 667q117 0 203 -11v-526h62v-260h-131v130h-308v-130h-131v260h62v311q0 116 58 171t185 55zM303 544q-50 0 -73.5 -22.5t-23.5 -68.5v-323h163v410q-48 4 -66 4z" />
    <glyph glyph-name="uni0415" unicode="&#x415;" horiz-adv-x="455" 
d="M422 525h-237v-128h217v-129h-217v-138h237v-130h-378v655h378v-130z" />
    <glyph glyph-name="uni0416" unicode="&#x416;" horiz-adv-x="802" 
d="M636 341l161 -341h-157l-121 276h-48v-276h-141v275l-48 1l-121 -276h-157l162 340l-154 315h148l123 -264h47v264h141v-264h49l123 264h147z" />
    <glyph glyph-name="uni0417" unicode="&#x417;" horiz-adv-x="449" 
d="M180 667q232 0 232 -168v-16q0 -97 -101 -138q56 -16 87 -56.5t31 -95.5v-22q0 -87 -60.5 -135t-188.5 -48q-66 0 -159 17l2 125q89 -17 155 -17q60 0 85 16.5t25 50.5v24q0 70 -100 70h-104v125h104q83 0 83 67v16q0 60 -95 60q-65 0 -153 -15l-2 124q100 16 159 16z
" />
    <glyph glyph-name="uni0418" unicode="&#x418;" horiz-adv-x="543" 
d="M499 0h-141v388l-185 -388h-129v655h141v-390l185 390h129v-655z" />
    <glyph glyph-name="uni0419" unicode="&#x419;" horiz-adv-x="543" 
d="M499 0h-141v388l-185 -388h-129v655h141v-390l185 390h129v-655zM420 875v-111q-7 -7 -19.5 -17t-51.5 -26.5t-78 -16.5t-76.5 15t-54.5 30l-18 15v111q8 -8 21 -19t52.5 -30t75.5 -19t73.5 17t56.5 34z" />
    <glyph glyph-name="uni041A" unicode="&#x41a;" horiz-adv-x="555" 
d="M340 350l224 -350h-166l-171 276h-42v-276h-141v655h141v-264h40l164 264h148z" />
    <glyph glyph-name="uni041B" unicode="&#x41b;" horiz-adv-x="550" 
d="M306 667q91 0 201 -10v-657h-141v540q-30 3 -58 3q-84 0 -85 -90l-3 -247q-3 -218 -161 -218q-31 0 -65 10v119q8 0 22 -1.5t20 -1.5q42 0 43 75l3 256q3 222 224 222z" />
    <glyph glyph-name="uni041C" unicode="&#x41c;" horiz-adv-x="668" 
d="M488 404l-82 -329h-145l-82 329l-6 -404h-133l6 655h173l116 -437l115 437h171l6 -655h-132z" />
    <glyph glyph-name="uni041D" unicode="&#x41d;" horiz-adv-x="543" 
d="M499 0h-141v272h-173v-272h-141v655h141v-254h173v254h141v-655z" />
    <glyph glyph-name="uni041E" unicode="&#x41e;" horiz-adv-x="538" 
d="M269 667q230 0 230 -225v-229q0 -225 -230 -225t-230 225v229q0 225 230 225zM269 539q-89 0 -89 -88v-245q0 -90 89 -90t89 90v244q0 89 -89 89z" />
    <glyph glyph-name="uni041F" unicode="&#x41f;" horiz-adv-x="543" 
d="M499 0h-141v525h-173v-525h-141v655h455v-655z" />
    <glyph glyph-name="uni0420" unicode="&#x420;" horiz-adv-x="492" 
d="M232 666q122 1 183 -51t61 -144v-21q0 -98 -58.5 -153t-169.5 -55q-29 0 -63 5v-247h-141v660q100 6 188 6zM233 543q-34 0 -48 -2v-169q44 -4 52 -4q98 0 98 86v14q0 75 -102 75z" />
    <glyph glyph-name="uni0421" unicode="&#x421;" horiz-adv-x="450" 
d="M264 667q48 0 158 -18l-2 -126q-98 16 -135 16q-61 0 -83 -21.5t-22 -79.5v-220q0 -58 22.5 -79t82.5 -21q44 0 135 19l2 -130q-104 -19 -158 -19q-122 0 -173.5 52t-51.5 162v251q0 111 52 162.5t173 51.5z" />
    <glyph glyph-name="uni0422" unicode="&#x422;" horiz-adv-x="520" 
d="M504 525h-173v-525h-142v525h-173v130h488v-130z" />
    <glyph glyph-name="uni0423" unicode="&#x423;" horiz-adv-x="514" 
d="M230 0h-147l104 234l-186 421h160l97 -284l109 284h152z" />
    <glyph glyph-name="uni0424" unicode="&#x424;" horiz-adv-x="723" 
d="M433 695v-51q8 1 24 1q122 0 175 -54t53 -174v-180q0 -120 -53 -174.5t-175 -54.5q-4 0 -12 0.5t-12 0.5v-50h-141v50q-4 0 -12.5 -0.5t-12.5 -0.5q-122 0 -175 54t-53 175v180q0 120 53.5 174t174.5 54q17 0 25 -1v51h141zM267 520q-46 0 -66 -20.5t-20 -72.5v-200
q0 -52 20 -73.5t66 -21.5q4 0 12.5 0.5t12.5 0.5v386q-8 1 -25 1zM457 520q-16 0 -24 -1v-386q8 -1 24 -1q46 0 66 21.5t20 73.5v200q0 52 -20 72.5t-66 20.5z" />
    <glyph glyph-name="uni0425" unicode="&#x425;" horiz-adv-x="539" 
d="M352 335l191 -335h-166l-108 221l-109 -221h-162l192 335l-182 320h164l101 -206l101 206h160z" />
    <glyph glyph-name="uni0426" unicode="&#x426;" horiz-adv-x="555" 
d="M491 130h61v-260h-130v130h-378v655h141v-525h165v525h141v-525z" />
    <glyph glyph-name="uni0427" unicode="&#x427;" horiz-adv-x="520" 
d="M476 0h-141v213q-43 -6 -83 -6q-220 0 -220 216v232h141v-235q0 -89 87 -89q37 0 75 5v319h141v-655z" />
    <glyph glyph-name="uni0428" unicode="&#x428;" horiz-adv-x="717" 
d="M673 0h-629v655h140v-525h104v525h141v-525h104v525h140v-655z" />
    <glyph glyph-name="uni0429" unicode="&#x429;" horiz-adv-x="737" 
d="M673 130h62v-260h-130v130h-561v655h140v-525h104v525h141v-525h104v525h140v-525z" />
    <glyph glyph-name="uni042A" unicode="&#x42a;" horiz-adv-x="649" 
d="M334 655v-249q44 6 73 6q107 0 165.5 -51t58.5 -148v-24q0 -95 -60.5 -148t-180.5 -53q-78 0 -197 9v527h-180v131h321zM387 286q-8 0 -53 -3v-167q32 -3 52 -3q104 0 104 79v20q0 74 -103 74z" />
    <glyph glyph-name="uni042B" unicode="&#x42b;" horiz-adv-x="711" 
d="M185 655v-249q43 6 73 6q107 0 165.5 -51t58.5 -148v-24q0 -95 -60.5 -148t-180.5 -53q-78 0 -197 9v658h141zM667 0h-141v655h141v-655zM238 286q-8 0 -53 -3v-167q31 -3 52 -3q104 0 104 79v20q0 74 -103 74z" />
    <glyph glyph-name="uni042C" unicode="&#x42c;" horiz-adv-x="500" 
d="M185 655v-249q43 6 73 6q107 0 165.5 -51t58.5 -148v-24q0 -95 -60.5 -148t-180.5 -53q-78 0 -197 9v658h141zM238 286q-8 0 -53 -3v-167q31 -3 52 -3q104 0 104 79v20q0 74 -103 74z" />
    <glyph glyph-name="uni042D" unicode="&#x42d;" horiz-adv-x="454" 
d="M189 667q120 0 173 -50.5t53 -163.5v-251q0 -111 -52 -162.5t-174 -51.5q-53 0 -157 19l2 128q91 -19 135 -19q61 0 83 21.5t22 78.5v51h-215v130h215v43q0 58 -21.5 79t-83.5 21q-37 0 -135 -16l-2 125q110 18 157 18z" />
    <glyph glyph-name="uni042E" unicode="&#x42e;" horiz-adv-x="734" 
d="M479 667q106 0 161 -56t55 -166v-234q0 -109 -54.5 -166t-161.5 -57t-161.5 57t-54.5 166v60h-79v-271h-140v655h140v-255h79v45q0 109 54.5 165.5t161.5 56.5zM478 543q-74 0 -74 -85v-260q0 -85 74 -85q75 0 75 85v259q0 86 -75 86z" />
    <glyph glyph-name="uni042F" unicode="&#x42f;" horiz-adv-x="513" 
d="M266 667q96 0 203 -8v-659h-141v253q-25 -2 -67 -2l-111 -251h-152l133 276q-100 47 -100 176v15q0 200 235 200zM266 543q-94 0 -94 -73v-19q0 -75 94 -75q38 0 62 2v163q-24 2 -62 2z" />
    <glyph glyph-name="uni0430" unicode="&#x430;" horiz-adv-x="454" 
d="M458 0h-137l-22 94h-145l-22 -94h-134l155 511h150zM174 197h101l-50 215z" />
    <glyph glyph-name="uni0431" unicode="&#x431;" horiz-adv-x="431" 
d="M359 395h-186v-69q30 3 50 3q191 0 191 -158v-23q0 -74 -51 -117t-152 -43q-75 0 -167 8v515h315v-116zM210 220q-13 0 -37 -2v-118q16 -2 35 -2q76 0 76 52v15q0 55 -74 55z" />
    <glyph glyph-name="uni0432" unicode="&#x432;" horiz-adv-x="436" 
d="M208 522q91 0 140.5 -35.5t49.5 -90.5v-15q0 -87 -84 -112q49 -10 76 -41.5t27 -78.5v-12q0 -149 -208 -149q-76 0 -165 5v524q102 5 164 5zM206 414q-1 0 -33 -2v-103h41q56 0 56 48v13q0 44 -64 44zM173 208v-108q16 -2 41 -2q75 0 75 50v12q0 48 -69 48h-47z" />
    <glyph glyph-name="uni0433" unicode="&#x433;" horiz-adv-x="375" 
d="M359 395h-186v-395h-129v511h315v-116z" />
    <glyph glyph-name="uni0434" unicode="&#x434;" horiz-adv-x="492" 
d="M262 523q82 0 172 -10v-398h52v-245h-119v130h-242v-130h-119v245h52v225q0 93 48.5 138t155.5 45zM258 412q-71 0 -71 -63v-234h117v295q-18 2 -46 2z" />
    <glyph glyph-name="uni0435" unicode="&#x435;" horiz-adv-x="398" 
d="M365 395h-192v-81h175v-113h-175v-85h192v-116h-321v511h321v-116z" />
    <glyph glyph-name="uni0436" unicode="&#x436;" horiz-adv-x="670" 
d="M534 269l132 -269h-134l-103 215h-34v-215h-120v215h-36l-102 -215h-133l133 267l-125 244h127l102 -202h34v202h120v-202h32l104 202h126z" />
    <glyph glyph-name="uni0437" unicode="&#x437;" horiz-adv-x="388" 
d="M158 523q194 0 194 -131v-13q0 -79 -85 -110q47 -13 73 -45.5t26 -77.5v-13q0 -145 -210 -145q-55 0 -135 13l2 112q77 -15 133 -15q81 0 81 46v13q0 49 -75 49h-91v111h92q61 0 61 44v11q0 41 -72 41q-55 0 -129 -13l-2 111q79 12 137 12z" />
    <glyph glyph-name="uni0438" unicode="&#x438;" horiz-adv-x="470" 
d="M427 0h-129v273l-137 -273h-117v511h129v-277l137 277h117v-511z" />
    <glyph glyph-name="uni0439" unicode="&#x439;" horiz-adv-x="470" 
d="M427 0h-129v273l-137 -273h-117v511h129v-277l137 277h117v-511zM363 714v-107q-6 -5 -17 -13.5t-44.5 -22t-66.5 -13.5t-65 12t-48 24l-16 13v107q8 -6 20.5 -15.5t46.5 -25.5t62 -16t60 14.5t50 28.5z" />
    <glyph glyph-name="uni043A" unicode="&#x43a;" horiz-adv-x="482" 
d="M309 272l182 -272h-151l-138 210h-29v-210h-129v511h129v-200h28l130 200h137z" />
    <glyph glyph-name="uni043B" unicode="&#x43b;" horiz-adv-x="467" 
d="M254 523q73 0 170 -10v-513h-130v410q-24 2 -39 2q-28 0 -44 -16.5t-17 -46.5l-4 -188q-4 -173 -135 -173q-31 0 -61 8v107q16 -2 35 -2q32 0 33 51l3 191q5 180 189 180z" />
    <glyph glyph-name="uni043C" unicode="&#x43c;" horiz-adv-x="577" 
d="M536 0h-125l-5 297l-61 -236h-115l-62 235l-5 -296h-123l4 511h153l91 -331l92 331h152z" />
    <glyph glyph-name="uni043D" unicode="&#x43d;" horiz-adv-x="470" 
d="M427 0h-129v204h-125v-204h-129v511h129v-192h125v192h129v-511z" />
    <glyph glyph-name="uni043E" unicode="&#x43e;" horiz-adv-x="464" 
d="M232 523q194 0 194 -184v-167q0 -184 -194 -184q-193 0 -193 184v167q0 184 193 184zM233 409q-65 0 -65 -61v-181q0 -65 65 -65q64 0 64 62v180q0 65 -64 65z" />
    <glyph glyph-name="uni043F" unicode="&#x43f;" horiz-adv-x="470" 
d="M427 0h-129v395h-125v-395h-129v511h383v-511z" />
    <glyph glyph-name="uni0440" unicode="&#x440;" horiz-adv-x="425" 
d="M203 522q103 0 154.5 -41.5t51.5 -116.5v-19q0 -79 -47 -122t-133 -43q-31 0 -56 5v-185h-129v517q4 0 65.5 2.5t93.5 2.5zM206 412q-22 0 -33 -1v-119q21 -3 37 -3q69 0 69 60v10q0 53 -73 53z" />
    <glyph glyph-name="uni0441" unicode="&#x441;" horiz-adv-x="392" 
d="M229 523q45 0 135 -15l-2 -112q-82 13 -112 13q-48 0 -65 -16t-17 -60v-154q0 -43 17.5 -59t64.5 -16q41 0 112 15l2 -116q-92 -15 -135 -15q-101 0 -145.5 42t-44.5 132v187q0 91 45 132.5t145 41.5z" />
    <glyph glyph-name="uni0442" unicode="&#x442;" horiz-adv-x="441" 
d="M425 395h-140v-395h-129v395h-140v116h409v-116z" />
    <glyph glyph-name="uni0443" unicode="&#x443;" horiz-adv-x="437" 
d="M203 0h-135l87 182l-154 329h146l72 -209l86 209h139z" />
    <glyph glyph-name="uni0444" unicode="&#x444;" horiz-adv-x="619" 
d="M374 543v-38q2 0 7 0.5t8 0.5q106 0 148.5 -46.5t42.5 -158.5v-96q0 -110 -42 -156.5t-149 -46.5q-3 0 -8 0.5t-7 0.5v-38h-129v38q-3 0 -8 -0.5t-7 -0.5q-107 0 -149 46.5t-42 158.5v94q0 112 42 158.5t149 46.5q2 0 7 -0.5t8 -0.5v38h129zM233 394q-36 0 -50.5 -13
t-14.5 -45v-159q0 -36 14 -49.5t51 -13.5h15v279q-5 1 -15 1zM385 394q-10 0 -15 -1v-279h15q37 0 51 13.5t14 46.5v162q0 32 -14.5 45t-50.5 13z" />
    <glyph glyph-name="uni0445" unicode="&#x445;" horiz-adv-x="451" 
d="M298 261l157 -261h-149l-79 161l-81 -161h-148l157 261l-149 250h148l73 -151l73 151h147z" />
    <glyph glyph-name="uni0446" unicode="&#x446;" horiz-adv-x="477" 
d="M419 115h52v-245h-118v130h-309v511h129v-396h117v396h129v-396z" />
    <glyph glyph-name="uni0447" unicode="&#x447;" horiz-adv-x="447" 
d="M404 0h-129v161q-33 -6 -63 -6q-181 0 -181 179v177h129v-182q0 -63 60 -63q29 0 55 4v241h129v-511z" />
    <glyph glyph-name="uni0448" unicode="&#x448;" horiz-adv-x="615" 
d="M572 0h-528v511h128v-396h71v396h129v-396h71v396h129v-511z" />
    <glyph glyph-name="uni0449" unicode="&#x449;" horiz-adv-x="629" 
d="M572 115h51v-245h-118v130h-461v511h128v-396h71v396h129v-396h71v396h129v-396z" />
    <glyph glyph-name="uni044A" unicode="&#x44a;" horiz-adv-x="551" 
d="M293 511v-185q30 3 50 3q190 0 190 -158v-23q0 -75 -50.5 -117.5t-151.5 -42.5q-75 0 -167 8v396h-151v119h280zM330 220q-13 0 -37 -2v-118q16 -2 35 -2q76 0 76 52v15q0 55 -74 55z" />
    <glyph glyph-name="uni044B" unicode="&#x44b;" horiz-adv-x="618" 
d="M173 511v-185q30 3 50 3q191 0 191 -158v-23q0 -74 -51 -117t-152 -43q-75 0 -167 8v515h129zM574 0h-130v511h130v-511zM210 220q-13 0 -37 -2v-118q16 -2 35 -2q76 0 76 52v15q0 55 -74 55z" />
    <glyph glyph-name="uni044C" unicode="&#x44c;" horiz-adv-x="431" 
d="M173 511v-185q30 3 50 3q191 0 191 -158v-23q0 -74 -51 -117t-152 -43q-75 0 -167 8v515h129zM210 220q-13 0 -37 -2v-118q16 -2 35 -2q76 0 76 52v15q0 55 -74 55z" />
    <glyph glyph-name="uni044D" unicode="&#x44d;" horiz-adv-x="396" 
d="M167 523q100 0 145 -42t45 -133v-185q0 -90 -44.5 -132.5t-145.5 -42.5q-45 0 -135 15l2 115q71 -15 111 -15q46 0 64 16t18 56v26h-173v113h173v24q0 41 -18 56t-64 15t-111 -12l-2 112q93 14 135 14z" />
    <glyph glyph-name="uni044E" unicode="&#x44e;" horiz-adv-x="628" 
d="M407 523q89 0 135.5 -46t46.5 -135v-172q0 -89 -46 -135.5t-136 -46.5q-89 0 -135 46.5t-46 135.5v34h-54v-204h-128v511h128v-192h54v23q0 88 46.5 134.5t134.5 46.5zM407 412q-24 0 -38 -15t-14 -42v-198q0 -57 52 -57q54 0 54 57v197q0 58 -54 58z" />
    <glyph glyph-name="uni044F" unicode="&#x44f;" horiz-adv-x="454" 
d="M232 522q40 0 178 -6v-516h-127v194q-14 -2 -41 -2h-11l-92 -192h-141l112 216q-81 39 -81 134v15q0 75 50 116t153 41zM231 422q-37 0 -56.5 -15t-19.5 -40v-14q0 -28 20 -44t56 -16q28 0 52 2v125q-21 2 -52 2z" />
    <glyph glyph-name="uni0451" unicode="&#x451;" horiz-adv-x="398" 
d="M365 395h-192v-81h175v-113h-175v-85h192v-116h-321v511h321v-116zM98 724q75 0 75 -65v-24q0 -31 -19.5 -48t-55.5 -17q-35 0 -54.5 17t-19.5 48v24q0 31 19.5 48t54.5 17zM303 724q75 0 75 -65v-24q0 -31 -19.5 -48t-55.5 -17q-35 0 -54.5 17t-19.5 48v24q0 31 19.5 48
t54.5 17z" />
    <glyph glyph-name="uni0452" unicode="&#x452;" horiz-adv-x="564" 
d="M425 395h-140v-73q27 4 63 4q186 0 189 -169v-19q0 -73 -36.5 -111.5t-108.5 -38.5q-31 0 -57 7v109q17 -3 34 -3q38 0 38 38v21q0 55 -58 55q-40 0 -64 -4v-211h-129v395h-140v116h409v-116z" />
    <glyph glyph-name="uni0453" unicode="&#x453;" horiz-adv-x="375" 
d="M359 395h-186v-395h-129v511h315v-116zM227 554h-102l75 137h134z" />
    <glyph glyph-name="uni0454" unicode="&#x454;" horiz-adv-x="396" 
d="M229 523q45 0 135 -15l-2 -112q-71 13 -112 13q-47 0 -64.5 -16t-17.5 -58v-21h156v-113h-156v-23q0 -42 17.5 -58t64.5 -16q41 0 112 15l2 -116q-92 -15 -135 -15q-102 0 -146 43t-44 132v185q0 90 44.5 132.5t145.5 42.5z" />
    <glyph glyph-name="uni0455" unicode="&#x455;" horiz-adv-x="390" 
d="M201 523q57 0 135 -13l-1 -116q-84 15 -129 15q-53 0 -53 -36v-11q0 -14 7.5 -22t29.5 -14l69 -22q62 -20 87.5 -52.5t25.5 -93.5v-18q0 -75 -45 -113.5t-142 -38.5q-58 0 -146 18l1 117q86 -19 131 -19q71 0 71 38v14q0 27 -32 37l-72 22q-63 20 -88.5 53t-25.5 93v10
q0 152 177 152z" />
    <glyph glyph-name="uni0456" unicode="&#x456;" horiz-adv-x="216" 
d="M173 0h-129v511h129v-511z" />
    <glyph glyph-name="uni0457" unicode="&#x457;" horiz-adv-x="216" 
d="M173 0h-129v511h129v-511zM4 724q75 0 75 -65v-24q0 -31 -19.5 -48t-55.5 -17q-35 0 -54.5 17t-19.5 48v24q0 31 19.5 48t54.5 17zM209 724q75 0 75 -65v-24q0 -31 -19.5 -48t-55.5 -17q-35 0 -54.5 17t-19.5 48v24q0 31 19.5 48t54.5 17z" />
    <glyph glyph-name="uni0458" unicode="&#x458;" horiz-adv-x="271" 
d="M228 511v-358q0 -85 -36.5 -125t-110.5 -40q-50 0 -82 9v109q26 -5 58 -5q23 0 32.5 10.5t9.5 38.5v361h129z" />
    <glyph glyph-name="uni0459" unicode="&#x459;" horiz-adv-x="681" 
d="M254 523q73 0 170 -10v-187q34 3 50 3q190 0 190 -158v-23q0 -75 -51 -117.5t-152 -42.5q-73 0 -167 8v414q-24 2 -39 2q-28 0 -44 -16.5t-17 -46.5l-4 -188q-4 -173 -135 -173q-31 0 -61 8v107q16 -2 35 -2q17 0 24.5 11t8.5 40l3 191q5 180 189 180zM459 220
q-12 0 -36 -2v-118q16 -2 34 -2q77 0 77 52v15q0 55 -75 55z" />
    <glyph glyph-name="uni045A" unicode="&#x45a;" horiz-adv-x="685" 
d="M427 511v-185q30 3 50 3q191 0 191 -158v-23q0 -74 -51 -117t-152 -43q-75 0 -167 8v208h-125v-204h-129v511h129v-192h125v192h129zM464 220q-13 0 -37 -2v-118q16 -2 35 -2q76 0 76 52v15q0 55 -74 55z" />
    <glyph glyph-name="uni045B" unicode="&#x45b;" horiz-adv-x="564" 
d="M425 395h-140v-73q37 5 68 5q90 0 137 -45.5t47 -131.5v-150h-129v157q0 58 -61 58q-36 0 -62 -4v-211h-129v395h-140v116h409v-116z" />
    <glyph glyph-name="uni045C" unicode="&#x45c;" horiz-adv-x="482" 
d="M309 272l182 -272h-151l-138 210h-29v-210h-129v511h129v-200h28l130 200h137zM278 554h-102l75 137h134z" />
    <glyph glyph-name="uni045E" unicode="&#x45e;" horiz-adv-x="437" 
d="M203 0h-135l87 182l-154 329h146l72 -209l86 209h139zM349 714v-107q-6 -5 -17 -13.5t-44.5 -22t-66.5 -13.5t-65 12t-48 24l-16 13v107q8 -6 20.5 -15.5t46.5 -25.5t62 -16t60 14.5t50 28.5z" />
    <glyph glyph-name="uni045F" unicode="&#x45f;" horiz-adv-x="463" 
d="M419 0h-128v-130h-119v130h-128v511h129v-396h117v396h129v-511z" />
    <glyph glyph-name="uni0462" unicode="&#x462;" horiz-adv-x="645" 
d="M504 525h-173v-119q42 6 72 6q107 0 165.5 -51t58.5 -148v-24q0 -95 -60.5 -148t-180.5 -53q-76 0 -197 9v528h-173v130h488v-130zM384 286q-8 0 -53 -3v-167q31 -3 52 -3q104 0 104 79v20q0 74 -103 74z" />
    <glyph glyph-name="uni0463" unicode="&#x463;" horiz-adv-x="544" 
d="M425 395h-140v-69q31 3 51 3q190 0 190 -158v-23q0 -75 -51 -117.5t-152 -42.5q-73 0 -167 8v399h-140v116h409v-116zM322 220q-13 0 -37 -2v-118q16 -2 35 -2q76 0 76 52v15q0 55 -74 55z" />
    <glyph glyph-name="uni0472" unicode="&#x472;" horiz-adv-x="538" 
d="M269 667q230 0 230 -225v-229q0 -225 -230 -225t-230 225v229q0 225 230 225zM269 539q-89 0 -89 -88v-60h178v59q0 89 -89 89zM180 276v-70q0 -90 89 -90t89 90v70h-178z" />
    <glyph glyph-name="uni0473" unicode="&#x473;" horiz-adv-x="464" 
d="M232 523q194 0 194 -184v-167q0 -184 -194 -184q-193 0 -193 184v167q0 184 193 184zM233 409q-65 0 -65 -61v-37h129v33q0 65 -64 65zM168 210v-43q0 -65 65 -65q64 0 64 62v46h-129z" />
    <glyph glyph-name="uni0474" unicode="&#x474;" horiz-adv-x="591" 
d="M515 667q37 0 84 -10v-116q-50 5 -58 5q-21 0 -30 -9.5t-19 -41.5l-137 -495h-163l-188 655h149l120 -534l80 361q23 109 58 147t104 38z" />
    <glyph glyph-name="uni0475" unicode="&#x475;" horiz-adv-x="495" 
d="M428 523q36 0 75 -9v-108q-30 6 -49 6q-16 0 -25 -8t-16 -29l-107 -375h-148l-154 511h136l92 -406l57 265q18 88 48 120.5t91 32.5z" />
    <glyph glyph-name="uni0490" unicode="&#x490;" horiz-adv-x="433" 
d="M417 525h-232v-525h-141v655h243v130h130v-260z" />
    <glyph glyph-name="uni0491" unicode="&#x491;" horiz-adv-x="375" 
d="M359 395h-186v-395h-129v511h196v129h119v-245z" />
    <glyph glyph-name="uni0492" unicode="&#x492;" horiz-adv-x="456" 
d="M440 525h-232v-128h115v-116h-115v-281h-141v281h-67v116h67v258h373v-130z" />
    <glyph glyph-name="uni0493" unicode="&#x493;" horiz-adv-x="386" 
d="M370 395h-186v-85h88v-101h-88v-209h-129v209h-53v101h53v201h315v-116z" />
    <glyph glyph-name="uni0496" unicode="&#x496;" horiz-adv-x="812" 
d="M636 341l97 -211h77v-260h-131v130h-40l-120 276h-48v-276h-141v275l-48 1l-121 -276h-157l162 340l-154 315h148l122 -264h48v264h141v-264h49l123 264h147z" />
    <glyph glyph-name="uni0497" unicode="&#x497;" horiz-adv-x="667" 
d="M534 269l76 -154h55v-245h-118v130h-15l-103 215h-34v-215h-120v215h-36l-102 -215h-133l133 267l-125 244h127l102 -202h34v202h120v-202h32l104 202h126z" />
    <glyph glyph-name="uni0498" unicode="&#x498;" horiz-adv-x="449" 
d="M180 667q232 0 232 -168v-16q0 -97 -101 -138q56 -16 87 -56.5t31 -95.5v-22q0 -152 -174 -178l-8 -24h10q26 0 43.5 -18t17.5 -44v-17q0 -87 -126 -87q-27 0 -63 6v76q21 -3 36 -3q41 0 41 21v7q0 22 -34 22h-27v18l13 39q-54 1 -137 16l2 125q89 -17 155 -17
q60 0 85 16.5t25 50.5v24q0 70 -100 70h-104v125h104q83 0 83 67v16q0 60 -95 60q-65 0 -153 -15l-2 124q100 16 159 16z" />
    <glyph glyph-name="uni0499" unicode="&#x499;" horiz-adv-x="388" 
d="M158 523q194 0 194 -131v-13q0 -79 -85 -110q47 -12 73 -45.5t26 -77.5v-13q0 -122 -148 -141l-7 -23h10q26 0 43.5 -18t17.5 -44v-17q0 -87 -126 -87q-27 0 -63 6v76q21 -3 36 -3q41 0 41 21v7q0 22 -34 22h-27v18l13 39q-23 1 -101 12l2 112q77 -15 133 -15q81 0 81 46
v13q0 49 -75 49h-91v111h92q61 0 61 44v11q0 41 -72 41q-55 0 -129 -13l-2 111q79 12 137 12z" />
    <glyph glyph-name="uni049A" unicode="&#x49a;" horiz-adv-x="562" 
d="M340 350l141 -220h82v-260h-131v130h-34l-171 276h-42v-276h-141v655h141v-264h40l164 264h148z" />
    <glyph glyph-name="uni049B" unicode="&#x49b;" horiz-adv-x="488" 
d="M309 272l105 -157h78v-245h-118v130h-34l-138 210h-29v-210h-129v511h129v-200h28l130 200h137z" />
    <glyph glyph-name="uni049C" unicode="&#x49c;" horiz-adv-x="601" 
d="M404 342l205 -342h-165l-155 267h-14v-150h-71v150h-19v-267h-141v655h141v-258h19v131h71v-131h8l151 258h154z" />
    <glyph glyph-name="uni049D" unicode="&#x49d;" horiz-adv-x="524" 
d="M354 274l179 -274h-152l-130 209h-12v-139h-45v139h-21v-209h-129v511h129v-200h21v110h45v-110h10l125 200h136z" />
    <glyph glyph-name="uni04A0" unicode="&#x4a0;" horiz-adv-x="705" 
d="M489 350l224 -350h-166l-171 276h-42v-276h-141v524h-180v131h321v-264h40l164 264h148z" />
    <glyph glyph-name="uni04A1" unicode="&#x4a1;" horiz-adv-x="601" 
d="M428 272l182 -272h-151l-138 210h-29v-210h-129v392h-150v119h279v-200h28l130 200h137z" />
    <glyph glyph-name="uni04A2" unicode="&#x4a2;" horiz-adv-x="563" 
d="M499 130h61v-260h-130v130h-72v272h-173v-272h-141v655h141v-254h173v254h141v-525z" />
    <glyph glyph-name="uni04A3" unicode="&#x4a3;" horiz-adv-x="484" 
d="M427 115h51v-245h-118v130h-62v204h-125v-204h-129v511h129v-192h125v192h129v-396z" />
    <glyph glyph-name="uni04AA" unicode="&#x4aa;" horiz-adv-x="451" 
d="M264 667q48 0 158 -18l-2 -126q-98 16 -135 16q-61 0 -83 -21.5t-22 -79.5v-220q0 -58 22.5 -79t82.5 -21q44 0 135 19l2 -130q-73 -16 -73 -61v-6q0 -28 33 -28q16 0 40 6v-104q-45 -11 -71 -11q-56 0 -85.5 23.5t-29.5 63.5v10q0 52 50 89q-7 -1 -22 -1
q-122 0 -173.5 52t-51.5 162v251q0 111 52 162.5t173 51.5z" />
    <glyph glyph-name="uni04AB" unicode="&#x4ab;" horiz-adv-x="393" 
d="M229 523q45 0 135 -15l-2 -112q-82 13 -112 13q-48 0 -65 -16t-17 -60v-154q0 -43 17.5 -59t64.5 -16q41 0 112 15l2 -116q-14 -2 -48 -7q-36 -19 -36 -50v-6q0 -28 34 -28q16 0 40 6v-104q-45 -11 -72 -11q-55 0 -85 24t-30 63v10q0 51 51 89q-97 3 -138 44.5t-41 128.5
v187q0 91 45 132.5t145 41.5z" />
    <glyph glyph-name="uni04AE" unicode="&#x4ae;" horiz-adv-x="526" 
d="M334 227v-227h-141v227l-189 428h158l102 -296l103 296h155z" />
    <glyph glyph-name="uni04AF" unicode="&#x4af;" horiz-adv-x="451" 
d="M290 177v-177h-129v177l-157 334h144l78 -221l79 221h142z" />
    <glyph glyph-name="uni04B0" unicode="&#x4b0;" horiz-adv-x="526" 
d="M358 288h67v-130h-91v-158h-141v158h-91v130h65l-163 367h158l102 -296l103 296h155z" />
    <glyph glyph-name="uni04B1" unicode="&#x4b1;" horiz-adv-x="451" 
d="M315 235h49v-96h-74v-139h-129v139h-73v96h48l-132 276h144l78 -221l79 221h142z" />
    <glyph glyph-name="uni04B2" unicode="&#x4b2;" horiz-adv-x="561" 
d="M352 335l116 -205h99v-260h-131v130h-59l-108 221l-109 -221h-162l192 335l-182 320h164l101 -206l101 206h160z" />
    <glyph glyph-name="uni04B3" unicode="&#x4b3;" horiz-adv-x="476" 
d="M298 261l87 -146h97v-245h-119v130h-57l-79 161l-81 -161h-148l157 261l-149 250h148l73 -151l73 151h147z" />
    <glyph glyph-name="uni04B8" unicode="&#x4b8;" horiz-adv-x="520" 
d="M476 0h-141v213q-27 -4 -43 -5v-121h-71v120q-189 15 -189 216v232h141v-235q0 -69 48 -82v161h71v-168q19 1 43 5v319h141v-655z" />
    <glyph glyph-name="uni04B9" unicode="&#x4b9;" horiz-adv-x="447" 
d="M404 0h-129v161q-11 -3 -35 -5v-88h-45v88q-164 8 -164 178v177h129v-182q0 -48 35 -60v164h45v-167q15 0 35 4v241h129v-511z" />
    <glyph glyph-name="uni04BA" unicode="&#x4ba;" horiz-adv-x="523" 
d="M185 655v-213q52 6 84 6q109 0 167 -55t58 -168v-225h-142v234q0 89 -85 89q-48 0 -82 -6v-317h-141v655h141z" />
    <glyph glyph-name="uni04BB" unicode="&#x4bb;" horiz-adv-x="452" 
d="M173 511v-161q37 5 68 5q90 0 136.5 -45.5t46.5 -131.5v-178h-129v185q0 58 -61 58q-41 0 -61 -5v-238h-129v511h129z" />
    <glyph glyph-name="uni04C0" unicode="&#x4c0;" horiz-adv-x="229" 
d="M185 0h-141v655h141v-655z" />
    <glyph glyph-name="uni04CB" unicode="&#x4cb;" horiz-adv-x="541" 
d="M476 130h62v-260h-131v130h-72v213q-43 -6 -83 -6q-220 0 -220 216v232h141v-235q0 -89 87 -89q37 0 75 5v319h141v-525z" />
    <glyph glyph-name="uni04CC" unicode="&#x4cc;" horiz-adv-x="459" 
d="M404 115h51v-245h-118v130h-62v161q-33 -6 -63 -6q-181 0 -181 179v177h129v-182q0 -63 60 -63q29 0 55 4v241h129v-396z" />
    <glyph glyph-name="uni04CF" unicode="&#x4cf;" horiz-adv-x="216" 
d="M173 0h-129v511h129v-511z" />
    <glyph glyph-name="uni04D8" unicode="&#x4d8;" horiz-adv-x="529" 
d="M246 667q136 0 190.5 -48t54.5 -166v-240q0 -110 -56.5 -167.5t-169.5 -57.5t-169.5 58t-56.5 167v184h310v62q0 49 -22 66.5t-85 17.5q-59 0 -157 -18l-2 125q99 17 163 17zM180 267v-61q0 -90 85 -90q84 0 84 90v61h-169z" />
    <glyph glyph-name="uni04D9" unicode="&#x4d9;" horiz-adv-x="458" 
d="M215 523q114 0 159 -39.5t45 -135.5v-180q0 -86 -46.5 -133t-142.5 -47q-191 0 -191 179v150h251v35q0 34 -16.5 47t-61.5 13q-47 0 -133 -12l-1 111q82 12 137 12zM168 215v-53q0 -60 62 -60q29 0 45 15.5t16 44.5v53h-123z" />
    <glyph glyph-name="uni04E2" unicode="&#x4e2;" horiz-adv-x="543" 
d="M499 0h-141v388l-185 -388h-129v655h141v-390l185 390h129v-655zM406 709h-271v107h271v-107z" />
    <glyph glyph-name="uni04E3" unicode="&#x4e3;" horiz-adv-x="470" 
d="M427 0h-129v273l-137 -273h-117v511h129v-277l137 277h117v-511zM353 570h-236v103h236v-103z" />
    <glyph glyph-name="uni04E8" unicode="&#x4e8;" horiz-adv-x="538" 
d="M269 667q230 0 230 -225v-229q0 -225 -230 -225t-230 225v229q0 225 230 225zM269 539q-89 0 -89 -88v-60h178v59q0 89 -89 89zM180 276v-70q0 -90 89 -90t89 90v70h-178z" />
    <glyph glyph-name="uni04E9" unicode="&#x4e9;" horiz-adv-x="464" 
d="M232 523q194 0 194 -184v-167q0 -184 -194 -184q-193 0 -193 184v167q0 184 193 184zM233 409q-65 0 -65 -61v-37h129v33q0 65 -64 65zM168 210v-43q0 -65 65 -65q64 0 64 62v46h-129z" />
    <glyph glyph-name="uni04EE" unicode="&#x4ee;" horiz-adv-x="514" 
d="M230 0h-147l104 234l-186 421h160l97 -284l109 284h152zM394 709h-271v107h271v-107z" />
    <glyph glyph-name="uni04EF" unicode="&#x4ef;" horiz-adv-x="437" 
d="M203 0h-135l87 182l-154 329h146l72 -209l86 209h139zM339 570h-236v103h236v-103z" />
    <glyph glyph-name="Wgrave" unicode="&#x1e80;" horiz-adv-x="822" 
d="M676 0h-167l-97 507l-96 -507h-169l-137 655h148l78 -513l97 513h156l98 -511l78 511h148zM469 707h-109l-111 147h139z" />
    <glyph glyph-name="wgrave" unicode="&#x1e81;" horiz-adv-x="690" 
d="M570 0h-150l-75 382l-73 -382h-152l-110 511h135l55 -387l75 387h139l76 -385l55 385h135zM404 554h-99l-106 137h130z" />
    <glyph glyph-name="Wacute" unicode="&#x1e82;" horiz-adv-x="822" 
d="M676 0h-167l-97 507l-96 -507h-169l-137 655h148l78 -513l97 513h156l98 -511l78 511h148zM445 707h-109l81 147h139z" />
    <glyph glyph-name="wacute" unicode="&#x1e83;" horiz-adv-x="690" 
d="M570 0h-150l-75 382l-73 -382h-152l-110 511h135l55 -387l75 387h139l76 -385l55 385h135zM382 554h-102l75 137h134z" />
    <glyph glyph-name="Wdieresis" unicode="&#x1e84;" horiz-adv-x="822" 
d="M676 0h-167l-97 507l-96 -507h-169l-137 655h148l78 -513l97 513h156l98 -511l78 511h148zM308 861q75 0 75 -65v-24q0 -30 -19.5 -47.5t-55.5 -17.5q-34 0 -54 17.5t-20 47.5v24q0 65 74 65zM513 861q75 0 75 -65v-24q0 -30 -19.5 -47.5t-55.5 -17.5q-34 0 -54 17.5
t-20 47.5v24q0 32 20 48.5t54 16.5z" />
    <glyph glyph-name="wdieresis" unicode="&#x1e85;" horiz-adv-x="690" 
d="M570 0h-150l-75 382l-73 -382h-152l-110 511h135l55 -387l75 387h139l76 -385l55 385h135zM241 724q75 0 75 -65v-24q0 -31 -19.5 -48t-55.5 -17q-35 0 -54.5 17t-19.5 48v24q0 31 19.5 48t54.5 17zM446 724q75 0 75 -65v-24q0 -31 -19.5 -48t-55.5 -17q-35 0 -54.5 17
t-19.5 48v24q0 31 19.5 48t54.5 17z" />
    <glyph glyph-name="Ygrave" unicode="&#x1ef2;" horiz-adv-x="526" 
d="M334 227v-227h-141v227l-189 428h158l102 -296l103 296h155zM320 707h-109l-111 147h139z" />
    <glyph glyph-name="ygrave" unicode="&#x1ef3;" horiz-adv-x="451" 
d="M290 177v-177h-129v177l-157 334h144l78 -221l79 221h142zM284 554h-99l-106 137h130z" />
    <glyph glyph-name="uni2007" unicode="&#x2007;" horiz-adv-x="510" 
 />
    <glyph glyph-name="uni2008" unicode="&#x2008;" horiz-adv-x="223" 
 />
    <glyph glyph-name="uni200B" unicode="&#x200b;" horiz-adv-x="0" 
 />
    <glyph glyph-name="endash" unicode="&#x2013;" horiz-adv-x="568" 
d="M535 237h-501v116h501v-116z" />
    <glyph glyph-name="emdash" unicode="&#x2014;" horiz-adv-x="668" 
d="M635 237h-601v116h601v-116z" />
    <glyph glyph-name="afii00208" unicode="&#x2015;" horiz-adv-x="568" 
d="M535 237h-501v116h501v-116z" />
    <glyph glyph-name="quoteleft" unicode="&#x2018;" horiz-adv-x="211" 
d="M169 695l-21 -105q35 -13 35 -59v-25q0 -68 -78 -68t-78 68v27q0 31 10 59l35 103h97z" />
    <glyph glyph-name="quoteright" unicode="&#x2019;" horiz-adv-x="211" 
d="M105 695q78 0 78 -68v-27q0 -31 -10 -60l-34 -102h-98l21 105q-35 13 -35 59v25q0 68 78 68z" />
    <glyph glyph-name="quotesinglbase" unicode="&#x201a;" horiz-adv-x="211" 
d="M105 149q78 0 78 -68v-26q0 -33 -10 -60l-34 -103h-98l21 105q-35 13 -35 60v24q0 68 78 68z" />
    <glyph glyph-name="quotedblleft" unicode="&#x201c;" horiz-adv-x="401" 
d="M169 695l-21 -105q35 -13 35 -60v-24q0 -68 -78 -68t-78 68v26q0 32 10 60l35 103h97zM359 695l-21 -105q35 -13 35 -60v-24q0 -68 -78 -68t-78 68v26q0 32 10 60l35 103h97z" />
    <glyph glyph-name="quotedblright" unicode="&#x201d;" horiz-adv-x="401" 
d="M105 695q78 0 78 -68v-27q0 -31 -10 -60l-34 -102h-98l21 105q-35 13 -35 59v25q0 68 78 68zM295 695q78 0 78 -68v-27q0 -31 -10 -60l-34 -102h-98l21 105q-35 13 -35 59v25q0 68 78 68z" />
    <glyph glyph-name="quotedblbase" unicode="&#x201e;" horiz-adv-x="401" 
d="M105 149q78 0 78 -68v-26q0 -33 -10 -60l-34 -103h-98l21 105q-35 13 -35 60v24q0 68 78 68zM295 149q78 0 78 -68v-26q0 -33 -10 -60l-34 -103h-98l21 105q-35 13 -35 60v24q0 68 78 68z" />
    <glyph glyph-name="dagger" unicode="&#x2020;" horiz-adv-x="441" 
d="M288 488h134v-129h-134v-359h-136v359h-134v129h134v167h136v-167z" />
    <glyph glyph-name="daggerdbl" unicode="&#x2021;" horiz-adv-x="447" 
d="M292 488h134v-129h-134v-85h134v-128h-134v-146h-136v146h-134v128h134v85h-134v129h134v167h136v-167z" />
    <glyph glyph-name="bullet" unicode="&#x2022;" horiz-adv-x="227" 
d="M113 352q42 0 64 -19.5t22 -54.5v-28q0 -35 -22 -54.5t-64 -19.5q-41 0 -63.5 19.5t-22.5 54.5v28q0 35 22.5 54.5t63.5 19.5z" />
    <glyph glyph-name="ellipsis" unicode="&#x2026;" horiz-adv-x="622" 
d="M311 152q80 0 80 -70v-25q0 -69 -80 -69t-80 69v25q0 70 80 70zM107 152q80 0 80 -70v-25q0 -69 -80 -69t-80 69v25q0 70 80 70zM515 152q80 0 80 -70v-25q0 -69 -80 -69t-80 69v25q0 70 80 70z" />
    <glyph glyph-name="perthousand" unicode="&#x2030;" horiz-adv-x="1261" 
d="M198 625q84 0 127 -43.5t43 -126.5v-27q0 -83 -42.5 -126.5t-127.5 -43.5q-82 0 -126 43.5t-44 126.5v27q0 83 43.5 126.5t126.5 43.5zM352 0h-151l335 613h151zM198 508q-38 0 -38 -49v-36q0 -48 38 -48t38 48v36q0 49 -38 49zM690 355q84 0 127 -43.5t43 -126.5v-27
q0 -83 -42.5 -126.5t-127.5 -43.5q-82 0 -126 43.5t-44 126.5v27q0 83 43.5 126.5t126.5 43.5zM1068 355q84 0 127 -43.5t43 -126.5v-27q0 -83 -42.5 -126.5t-127.5 -43.5q-82 0 -126 43.5t-44 126.5v27q0 83 43.5 126.5t126.5 43.5zM690 238q-38 0 -38 -48v-36
q0 -49 38 -49t38 49v36q0 48 -38 48zM1069 238q-38 0 -38 -48v-36q0 -49 38 -49t38 49v36q0 48 -38 48z" />
    <glyph glyph-name="guilsinglleft" unicode="&#x2039;" horiz-adv-x="319" 
d="M187 266l99 -180h-146l-106 180l106 179h146z" />
    <glyph glyph-name="guilsinglright" unicode="&#x203a;" horiz-adv-x="320" 
d="M286 266l-106 -180h-146l99 180l-98 179h145z" />
    <glyph glyph-name="fraction" unicode="&#x2044;" horiz-adv-x="380" 
d="M106 0h-137l305 601h137z" />
    <glyph glyph-name="uni2070" unicode="&#x2070;" horiz-adv-x="400" 
d="M199 760q74 0 113 -37t39 -109v-144q0 -147 -152 -147t-152 147v144q0 72 39 109t113 37zM200 651q-34 0 -34 -38v-143q0 -39 34 -39q33 0 33 39v143q0 38 -33 38z" />
    <glyph glyph-name="uni2074" unicode="&#x2074;" horiz-adv-x="400" 
d="M148 506h73v36l7 75h107v-111h39v-103h-39v-72h-114v72h-167l-28 59l97 290h104z" />
    <glyph glyph-name="uni2075" unicode="&#x2075;" horiz-adv-x="400" 
d="M313 651h-151v-81q32 35 88 35q95 0 95 -123v-14q0 -74 -37 -109.5t-118 -35.5q-75 0 -129 14v100q62 -12 114 -12t52 41v12q0 34 -31 34q-32 0 -55 -27h-87v268h259v-102z" />
    <glyph glyph-name="uni2076" unicode="&#x2076;" horiz-adv-x="400" 
d="M318 751v-92q-89 -4 -120.5 -22t-31.5 -59v-15q36 36 84 36q100 0 100 -123v-18q0 -135 -152 -135q-72 0 -110 36t-38 104v91q0 99 62.5 148t205.5 49zM209 506q-19 0 -43 -22v-31q0 -33 36 -33q14 0 22.5 8t8.5 22v29q0 27 -24 27z" />
    <glyph glyph-name="uni2077" unicode="&#x2077;" horiz-adv-x="400" 
d="M348 677l-153 -346h-126l143 319h-160v102h296v-75z" />
    <glyph glyph-name="uni2078" unicode="&#x2078;" horiz-adv-x="400" 
d="M201 760q68 0 104 -28t36 -80v-9q0 -28 -14 -50t-38 -31q32 -11 50 -36.5t18 -56.5v-16q0 -63 -39.5 -96.5t-116.5 -33.5q-78 0 -118 33.5t-40 96.5v16q0 30 18.5 56.5t49.5 36.5q-51 19 -51 81v9q0 52 35.5 80t105.5 28zM200 674q-30 0 -30 -24v-26q0 -13 6.5 -18.5
t23.5 -5.5q29 0 29 24v26q0 24 -29 24zM200 510q-17 0 -27 -9t-10 -23v-30q0 -13 10 -21.5t27 -8.5t27 8.5t10 21.5v30q0 14 -10 23t-27 9z" />
    <glyph glyph-name="uni2079" unicode="&#x2079;" horiz-adv-x="400" 
d="M201 760q72 0 110.5 -36.5t38.5 -105.5v-134q0 -161 -162 -161q-56 0 -112 9v101q46 -8 96 -8q34 0 48 12t14 39v34q-36 -36 -84 -36q-47 0 -73.5 31.5t-26.5 94.5v22q0 67 39 102.5t112 35.5zM198 659q-32 0 -32 -32v-28q0 -28 24 -28q21 0 43 22v34q0 32 -35 32z" />
    <glyph glyph-name="uni207A" unicode="&#x207a;" horiz-adv-x="400" 
d="M257 584h89v-103h-89v-85h-113v85h-90v103h90v92h113v-92z" />
    <glyph glyph-name="uni207B" unicode="&#x207b;" horiz-adv-x="400" 
d="M345 481h-291v102h291v-102z" />
    <glyph glyph-name="uni207C" unicode="&#x207c;" horiz-adv-x="400" 
d="M346 557h-291v103h291v-103zM346 422h-291v102h291v-102z" />
    <glyph glyph-name="uni207D" unicode="&#x207d;" horiz-adv-x="400" 
d="M292 874v-104q-33 -1 -46 -14t-13 -43v-330q0 -30 13 -42.5t46 -13.5v-104q-97 0 -141 40t-44 135v300q0 95 43.5 136.5t141.5 39.5z" />
    <glyph glyph-name="uni207E" unicode="&#x207e;" horiz-adv-x="400" 
d="M107 770v104q98 2 141.5 -39.5t43.5 -136.5v-300q0 -95 -44 -135t-141 -40v104q33 1 46 14t13 42v330q0 30 -13 43t-46 14z" />
    <glyph glyph-name="uni2080" unicode="&#x2080;" horiz-adv-x="400" 
d="M199 279q74 0 113 -37t39 -109v-144q0 -147 -152 -147t-152 147v144q0 72 39 109t113 37zM200 170q-34 0 -34 -38v-143q0 -39 34 -39q33 0 33 39v143q0 38 -33 38z" />
    <glyph glyph-name="uni2081" unicode="&#x2081;" horiz-adv-x="398" 
d="M271 -42h73v-108h-273v108h83v192h-2l-76 -31l-25 101l138 51h82v-313z" />
    <glyph glyph-name="uni2082" unicode="&#x2082;" horiz-adv-x="400" 
d="M186 279q153 0 153 -129v-14q0 -65 -61 -123l-55 -55h115v-108h-277v86l134 148q21 24 21 47v9q0 33 -47 33q-41 0 -96 -14v105q66 15 113 15z" />
    <glyph glyph-name="uni2083" unicode="&#x2083;" horiz-adv-x="400" 
d="M188 279q68 0 106.5 -30t38.5 -79v-12q0 -29 -18.5 -54t-50.5 -35q34 -9 55.5 -36t21.5 -60v-10q0 -53 -40.5 -87t-110.5 -34q-46 0 -114 9v103q51 -8 99 -8q23 0 32 7.5t9 24.5v7q0 34 -40 34h-77v93h74q35 0 35 32v7q0 26 -35 26q-29 0 -97 -9v102q68 9 112 9z" />
    <glyph glyph-name="uni2084" unicode="&#x2084;" horiz-adv-x="400" 
d="M148 25h73v36l7 75h107v-111h39v-103h-39v-72h-114v72h-167l-28 59l97 290h104z" />
    <glyph glyph-name="uni2085" unicode="&#x2085;" horiz-adv-x="400" 
d="M313 170h-151v-81q32 35 88 35q95 0 95 -123v-14q0 -74 -37 -109.5t-118 -35.5q-75 0 -129 14v100q62 -12 114 -12t52 41v12q0 34 -31 34q-32 0 -55 -27h-87v268h259v-102z" />
    <glyph glyph-name="uni2086" unicode="&#x2086;" horiz-adv-x="400" 
d="M318 270v-92q-89 -4 -120.5 -22t-31.5 -59v-15q36 36 84 36q100 0 100 -123v-18q0 -135 -152 -135q-72 0 -110 36t-38 104v91q0 99 62.5 148t205.5 49zM209 25q-19 0 -43 -22v-31q0 -33 36 -33q14 0 22.5 8t8.5 22v29q0 27 -24 27z" />
    <glyph glyph-name="uni2087" unicode="&#x2087;" horiz-adv-x="400" 
d="M348 196l-153 -346h-126l143 319h-160v102h296v-75z" />
    <glyph glyph-name="uni2088" unicode="&#x2088;" horiz-adv-x="400" 
d="M201 279q68 0 104 -28t36 -80v-9q0 -28 -14 -50t-38 -31q32 -11 50 -36.5t18 -56.5v-16q0 -63 -39.5 -96.5t-116.5 -33.5q-78 0 -118 33.5t-40 96.5v16q0 30 18.5 56.5t49.5 36.5q-51 19 -51 81v9q0 52 35.5 80t105.5 28zM200 193q-30 0 -30 -24v-26q0 -13 6.5 -18.5
t23.5 -5.5q29 0 29 24v26q0 24 -29 24zM200 29q-17 0 -27 -9t-10 -23v-30q0 -13 10 -21.5t27 -8.5t27 8.5t10 21.5v30q0 14 -10 23t-27 9z" />
    <glyph glyph-name="uni2089" unicode="&#x2089;" horiz-adv-x="400" 
d="M201 279q72 0 110.5 -36.5t38.5 -105.5v-134q0 -161 -162 -161q-56 0 -112 9v101q46 -8 96 -8q34 0 48 12t14 39v34q-36 -36 -84 -36q-47 0 -73.5 31.5t-26.5 94.5v22q0 67 39 102.5t112 35.5zM198 178q-32 0 -32 -32v-28q0 -28 24 -28q21 0 43 22v34q0 32 -35 32z" />
    <glyph glyph-name="uni208A" unicode="&#x208a;" horiz-adv-x="400" 
d="M257 103h89v-103h-89v-85h-113v85h-90v103h90v92h113v-92z" />
    <glyph glyph-name="uni208B" unicode="&#x208b;" horiz-adv-x="400" 
d="M345 0h-291v102h291v-102z" />
    <glyph glyph-name="uni208C" unicode="&#x208c;" horiz-adv-x="400" 
d="M346 76h-291v103h291v-103zM346 -59h-291v102h291v-102z" />
    <glyph glyph-name="uni208D" unicode="&#x208d;" horiz-adv-x="400" 
d="M292 393v-104q-33 -1 -46 -14t-13 -43v-330q0 -30 13 -42.5t46 -13.5v-104q-97 0 -141 40t-44 135v300q0 95 43.5 136.5t141.5 39.5z" />
    <glyph glyph-name="uni208E" unicode="&#x208e;" horiz-adv-x="400" 
d="M107 289v104q98 2 141.5 -39.5t43.5 -136.5v-300q0 -95 -44 -135t-141 -40v104q33 1 46 14t13 42v330q0 30 -13 43t-46 14z" />
    <glyph glyph-name="Euro" unicode="&#x20ac;" horiz-adv-x="457" 
d="M287 613q73 0 152 -15l-2 -118q-76 16 -130 16q-50 0 -69.5 -17t-20.5 -61v-9h180l-20 -92h-160v-38h148l-19 -92h-129v-4q0 -74 84 -74q46 0 136 18l2 -122q-90 -17 -152 -17q-206 0 -206 197v2h-78l20 92h58v38h-69l20 92h49v5q0 199 206 199z" />
    <glyph glyph-name="uni2116" unicode="&#x2116;" horiz-adv-x="1013" 
d="M179 407v-407h-135v655h180l142 -407v407h135v-655h-176zM771 667q187 0 187 -190v-78q0 -93 -47.5 -141.5t-139.5 -48.5t-139 48.5t-47 141.5v78q0 93 46.5 141.5t139.5 48.5zM772 547q-50 0 -50 -61v-95q0 -61 50 -61t50 61v96q0 60 -50 60zM954 0h-364v122h364v-122z
" />
    <glyph glyph-name="trademark" unicode="&#x2122;" horiz-adv-x="727" 
d="M336 585h-88v-235h-118v235h-102v98h308v-98zM699 350h-114v138l-39 -109h-50l-39 109l-1 -138h-115l3 333h122l57 -138l56 138h119z" />
    <glyph glyph-name="Omega" unicode="&#x2126;" horiz-adv-x="538" 
d="M268 667q115 0 173 -57.5t58 -164.5v-171q0 -97 -62 -145h71v-129h-209v122h3q26 0 41 22.5t15 65.5v243q0 87 -90 87q-89 0 -89 -87v-243q0 -42 15.5 -65t40.5 -23h4v-122h-210v129h72q-63 48 -63 145v171q0 107 58 164.5t172 57.5z" />
    <glyph glyph-name="estimated" unicode="&#x212e;" horiz-adv-x="955" 
d="M477 703q165 0 284 -106.5t119 -269.5h-657v-218q30 -45 104.5 -71t150.5 -26q75 0 147.5 25.5t112.5 72.5h58q-118 -137 -319 -137q-172 0 -287 102.5t-115 259.5q0 156 117.5 262t284.5 106zM478 664q-172 0 -255 -101v-196h509v195q-94 102 -254 102z" />
    <glyph glyph-name="onethird" unicode="&#x2153;" horiz-adv-x="1000" 
d="M261 289h73v-108h-273v108h83v192h-2l-76 -31l-25 101l138 51h82v-313zM414 0h-137l305 601h137zM806 429q68 0 106.5 -30t38.5 -79v-12q0 -29 -18.5 -54t-50.5 -35q34 -9 55.5 -36t21.5 -60v-10q0 -53 -40.5 -87t-110.5 -34q-46 0 -114 9v103q51 -8 99 -8q23 0 32 7.5
t9 24.5v7q0 34 -40 34h-77v93h74q35 0 35 32v7q0 26 -35 26q-29 0 -97 -9v102q68 9 112 9z" />
    <glyph glyph-name="twothirds" unicode="&#x2154;" horiz-adv-x="1000" 
d="M173 610q153 0 153 -129v-14q0 -65 -61 -123l-55 -55h115v-108h-277v86l134 148q21 24 21 47v9q0 33 -47 33q-41 0 -96 -14v105q66 15 113 15zM409 0h-137l305 601h137zM799 429q68 0 106.5 -30t38.5 -79v-12q0 -29 -18.5 -54t-50.5 -35q34 -9 55.5 -36t21.5 -60v-10
q0 -53 -40.5 -87t-110.5 -34q-47 0 -114 9v103q51 -8 99 -8q23 0 32 7.5t9 24.5v7q0 34 -40 34h-77v93h74q35 0 35 32v7q0 26 -35 26q-29 0 -97 -9v102q67 9 112 9z" />
    <glyph glyph-name="arrowleft" unicode="&#x2190;" horiz-adv-x="900" 
d="M442 563l-188 -180h272v-122h-272l188 -180l-86 -86l-317 327l317 327zM709 261h-135v122h135v-122zM861 261h-105v122h105v-122z" />
    <glyph glyph-name="arrowup" unicode="&#x2191;" horiz-adv-x="900" 
d="M776 379l-85 -87l-177 187v-271h-128v271l-177 -187l-85 87l326 316zM513 25h-127v135h127v-135zM513 -127h-127v105h127v-105z" />
    <glyph glyph-name="arrowright" unicode="&#x2192;" horiz-adv-x="900" 
d="M861 322l-317 -327l-87 86l189 180h-272v122h272l-189 180l87 86zM144 261h-105v122h105v-122zM326 261h-135v122h135v-122z" />
    <glyph glyph-name="arrowdown" unicode="&#x2193;" horiz-adv-x="900" 
d="M513 591h-127v105h127v-105zM513 409h-127v135h127v-135zM514 90l177 188l85 -87l-326 -316l-326 316l85 87l177 -188v272h128v-272z" />
    <glyph glyph-name="arrowboth" unicode="&#x2194;" horiz-adv-x="1292" 
d="M442 563l-188 -180h181v-122h-181l188 -180l-86 -86l-317 327l317 327zM1252 322l-317 -327l-86 86l189 180h-182v122h182l-189 180l86 86zM568 261h-85v122h85v-122zM677 261h-62v122h62v-122zM809 261h-85v122h85v-122z" />
    <glyph glyph-name="arrowupdn" unicode="&#x2195;" horiz-adv-x="900" 
d="M776 540l-85 -86l-177 187v-181h-128v181l-177 -187l-85 86l326 316zM511 328h-123v85h123v-85zM511 219h-123v61h123v-61zM511 86h-123v85h123v-85zM776 -41l-326 -316l-326 316l85 86l177 -187v181h128v-181l177 187z" />
    <glyph glyph-name="uni2196" unicode="&#x2196;" horiz-adv-x="900" 
d="M591 523l-261 5l193 -192l-86 -86l-192 191l8 -259h-124l7 455l455 7v-121zM653 207l-87 -87l-95 96l86 86zM760 100l-87 -87l-74 74l87 87z" />
    <glyph glyph-name="uni2197" unicode="&#x2197;" horiz-adv-x="900" 
d="M752 637l7 -455h-123l7 259l-192 -191l-86 86l193 192l-261 -5v121zM418 216l-95 -96l-87 87l96 95zM290 87l-74 -74l-87 87l74 74z" />
    <glyph glyph-name="uni2198" unicode="&#x2198;" horiz-adv-x="900" 
d="M290 577l-87 -87l-74 74l87 87zM418 448l-86 -86l-96 95l87 87zM752 27l-455 -7v121l261 -5l-193 192l86 86l192 -192l-7 260h123z" />
    <glyph glyph-name="uni2199" unicode="&#x2199;" horiz-adv-x="900" 
d="M760 564l-74 -74l-87 87l74 74zM653 457l-96 -95l-86 86l95 96zM245 222l192 192l86 -86l-193 -192l261 5v-121l-455 7l-7 455h124z" />
    <glyph glyph-name="partialdiff" unicode="&#x2202;" horiz-adv-x="433" 
d="M66 585v110q161 0 246.5 -91.5t85.5 -266.5v-159q0 -90 -46 -140t-138 -50q-99 0 -141 42t-42 136v96q0 84 34.5 130.5t92.5 46.5q28 0 57.5 -16t49.5 -45v18q0 92 -52 140.5t-147 48.5zM201 314q-33 0 -33 -62v-94q0 -50 47 -50q48 0 48 50v108q-29 48 -62 48z" />
    <glyph glyph-name="Delta" unicode="&#x2206;" horiz-adv-x="526" 
d="M513 85v-85h-501v85l169 570h162zM159 125h201l-98 417z" />
    <glyph glyph-name="product" unicode="&#x220f;" horiz-adv-x="589" 
d="M591 526h-87v-711h-136v711h-146v-711h-136v711h-87v129h592v-129z" />
    <glyph glyph-name="summation" unicode="&#x2211;" horiz-adv-x="423" 
d="M414 529h-241l153 -248v-78l-159 -262h247v-126h-406v104l188 318l-188 314v104h406v-126z" />
    <glyph glyph-name="minus" unicode="&#x2212;" horiz-adv-x="418" 
d="M396 233h-375v119h375v-119z" />
    <glyph glyph-name="uni2219" unicode="&#x2219;" horiz-adv-x="214" 
d="M107 352q80 0 80 -70v-25q0 -69 -80 -69t-80 69v25q0 70 80 70z" />
    <glyph glyph-name="radical" unicode="&#x221a;" horiz-adv-x="529" 
d="M581 571h-107l-170 -571h-162l-136 488h144l77 -384l141 579h213v-112z" />
    <glyph glyph-name="infinity" unicode="&#x221e;" horiz-adv-x="538" 
d="M374 438q146 0 146 -144v-9q0 -144 -146 -144q-69 0 -105 51q-36 -51 -105 -51q-146 0 -146 144v9q0 73 36 108.5t110 35.5q30 0 59 -13.5t46 -36.5q17 23 46 36.5t59 13.5zM174 332q-35 0 -35 -33v-20q0 -31 35 -31q36 0 36 32v19q0 33 -36 33zM365 332q-36 0 -36 -33
v-19q0 -32 36 -32q35 0 35 31v20q0 33 -35 33z" />
    <glyph glyph-name="integral" unicode="&#x222b;" horiz-adv-x="324" 
d="M255 695q46 0 87 -9v-116q-40 6 -65 6q-27 0 -40 -14t-13 -49v-534q0 -84 -43 -130t-124 -46q-46 0 -87 9v116q43 -5 65 -5q27 0 40 14t13 48v534q0 84 43.5 130t123.5 46z" />
    <glyph glyph-name="approxequal" unicode="&#x2248;" horiz-adv-x="418" 
d="M140 469q32 0 72 -12.5t68 -12.5q19 0 48 7.5t48 15.5l20 8v-121q-57 -32 -118 -32q-32 0 -72.5 12.5t-69.5 12.5q-19 0 -47.5 -7.5t-48.5 -15.5l-19 -7v120q58 32 119 32zM140 292q32 0 72 -13t68 -13q19 0 48 7.5t48 15.5l20 8v-121q-57 -32 -118 -32q-32 0 -72.5 12.5
t-69.5 12.5q-19 0 -48 -7.5t-48 -15.5l-19 -7v120q58 33 119 33z" />
    <glyph glyph-name="notequal" unicode="&#x2260;" horiz-adv-x="418" 
d="M353 449h42v-119h-116l-37 -59h153v-119h-227l-27 -44h-106l27 44h-41v119h116l36 59h-152v119h226l27 43h106z" />
    <glyph glyph-name="lessequal" unicode="&#x2264;" horiz-adv-x="418" 
d="M398 443l-199 -82l199 -83v-138l-380 169v103l380 169v-138zM398 0h-380v120h380v-120z" />
    <glyph glyph-name="greaterequal" unicode="&#x2265;" horiz-adv-x="418" 
d="M398 412v-103l-380 -169v138l199 83l-199 82v138zM398 0h-380v120h380v-120z" />
    <glyph glyph-name="dotmath" unicode="&#x22c5;" horiz-adv-x="214" 
d="M107 352q80 0 80 -70v-25q0 -69 -80 -69t-80 69v25q0 70 80 70z" />
    <glyph glyph-name="uni25AF" unicode="&#x25af;" horiz-adv-x="452" 
d="M42 0v655h368v-655h-368zM157 115h138v425h-138v-425z" />
    <glyph glyph-name="lozenge" unicode="&#x25ca;" horiz-adv-x="550" 
d="M545 343l-209 -343h-122l-209 343l209 340h122zM153 343l121 -220l122 220l-122 219z" />
    <glyph glyph-name="uniFB00" unicode="&#xfb00;" horiz-adv-x="774" 
d="M365 395h-192v-81h137v-112h-137v-202h-129v511h321v-116zM752 395h-192v-81h137v-112h-137v-202h-129v511h321v-116z" />
    <glyph glyph-name="fi" unicode="&#xfb01;" horiz-adv-x="603" 
d="M365 395h-192v-81h137v-112h-137v-202h-129v511h321v-116zM560 0h-129v511h129v-511z" />
    <glyph glyph-name="fl" unicode="&#xfb02;" horiz-adv-x="764" 
d="M365 395h-192v-81h137v-112h-137v-202h-129v511h321v-116zM560 116h192v-116h-321v511h129v-395z" />
    <glyph glyph-name="uniFB03" unicode="&#xfb03;" horiz-adv-x="990" 
d="M365 395h-192v-81h137v-112h-137v-202h-129v511h321v-116zM752 395h-192v-81h137v-112h-137v-202h-129v511h321v-116zM947 0h-129v511h129v-511z" />
    <glyph glyph-name="uniFB04" unicode="&#xfb04;" horiz-adv-x="1151" 
d="M365 395h-192v-81h137v-112h-137v-202h-129v511h321v-116zM752 395h-192v-81h137v-112h-137v-202h-129v511h321v-116zM947 116h192v-116h-321v511h129v-395z" />
    <glyph glyph-name="uniFB06" unicode="&#xfb06;" horiz-adv-x="814" 
d="M201 523q57 0 135 -13l-1 -116q-84 15 -129 15q-53 0 -53 -36v-11q0 -14 7.5 -22t29.5 -14l69 -22q62 -20 87.5 -52.5t25.5 -93.5v-18q0 -75 -45 -113.5t-142 -38.5q-58 0 -146 18l1 117q86 -19 131 -19q71 0 71 38v14q0 27 -32 37l-72 22q-63 20 -88.5 53t-25.5 93v10
q0 152 177 152zM798 395h-140v-395h-129v395h-140v116h409v-116z" />
    <glyph glyph-name="uniFEFF" unicode="&#xfeff;" horiz-adv-x="0" 
 />
    <glyph glyph-name="Ldot.latn_CAT" horiz-adv-x="434" 
d="M185 129h237v-129h-378v655h141v-526zM326 462q78 0 78 -69v-25q0 -68 -78 -68q-37 0 -58 18t-21 50v25q0 69 79 69z" />
    <glyph glyph-name="parenleft.numr" horiz-adv-x="400" 
d="M292 724v-104q-33 -1 -46 -14t-13 -43v-330q0 -30 13 -42.5t46 -13.5v-104q-97 0 -141 40t-44 135v300q0 95 43.5 136.5t141.5 39.5z" />
    <glyph glyph-name="parenright.numr" horiz-adv-x="400" 
d="M107 620v104q98 2 141.5 -39.5t43.5 -136.5v-300q0 -95 -44 -135t-141 -40v104q33 1 46 14t13 42v330q0 30 -13 43t-46 14z" />
    <glyph glyph-name="plus.numr" horiz-adv-x="400" 
d="M257 434h89v-103h-89v-85h-113v85h-90v103h90v92h113v-92z" />
    <glyph glyph-name="zero.numr" horiz-adv-x="400" 
d="M199 610q74 0 113 -37t39 -109v-144q0 -147 -152 -147t-152 147v144q0 72 39 109t113 37zM200 501q-34 0 -34 -38v-143q0 -39 34 -39q33 0 33 39v143q0 38 -33 38z" />
    <glyph glyph-name="one.numr" horiz-adv-x="400" 
d="M271 289h73v-108h-273v108h83v192h-2l-76 -31l-25 101l138 51h82v-313z" />
    <glyph glyph-name="two.numr" horiz-adv-x="400" 
d="M186 610q153 0 153 -129v-14q0 -65 -61 -123l-55 -55h115v-108h-277v86l134 148q21 24 21 47v9q0 33 -47 33q-41 0 -96 -14v105q66 15 113 15z" />
    <glyph glyph-name="three.numr" horiz-adv-x="400" 
d="M188 610q68 0 106.5 -30t38.5 -79v-12q0 -29 -18.5 -54t-50.5 -35q34 -9 55.5 -36t21.5 -60v-10q0 -53 -40.5 -87t-110.5 -34q-46 0 -114 9v103q51 -8 99 -8q23 0 32 7.5t9 24.5v7q0 34 -40 34h-77v93h74q35 0 35 32v7q0 26 -35 26q-29 0 -97 -9v102q68 9 112 9z" />
    <glyph glyph-name="four.numr" horiz-adv-x="400" 
d="M148 356h73v36l7 75h107v-111h39v-103h-39v-72h-114v72h-167l-28 59l97 290h104z" />
    <glyph glyph-name="five.numr" horiz-adv-x="400" 
d="M313 501h-151v-81q32 35 88 35q95 0 95 -123v-14q0 -74 -37 -109.5t-118 -35.5q-75 0 -129 14v100q62 -12 114 -12t52 41v12q0 34 -31 34q-32 0 -55 -27h-87v268h259v-102z" />
    <glyph glyph-name="six.numr" horiz-adv-x="400" 
d="M318 601v-92q-89 -4 -120.5 -22t-31.5 -59v-15q36 36 84 36q100 0 100 -123v-18q0 -135 -152 -135q-72 0 -110 36t-38 104v91q0 99 62.5 148t205.5 49zM209 356q-19 0 -43 -22v-31q0 -33 36 -33q14 0 22.5 8t8.5 22v29q0 27 -24 27z" />
    <glyph glyph-name="seven.numr" horiz-adv-x="400" 
d="M348 527l-153 -346h-126l143 319h-160v102h296v-75z" />
    <glyph glyph-name="eight.numr" horiz-adv-x="400" 
d="M201 610q68 0 104 -28t36 -80v-9q0 -28 -14 -50t-38 -31q32 -11 50 -36.5t18 -56.5v-16q0 -63 -39.5 -96.5t-116.5 -33.5q-78 0 -118 33.5t-40 96.5v16q0 30 18.5 56.5t49.5 36.5q-51 19 -51 81v9q0 52 35.5 80t105.5 28zM200 524q-30 0 -30 -24v-26q0 -13 6.5 -18.5
t23.5 -5.5q29 0 29 24v26q0 24 -29 24zM200 360q-17 0 -27 -9t-10 -23v-30q0 -13 10 -21.5t27 -8.5t27 8.5t10 21.5v30q0 14 -10 23t-27 9z" />
    <glyph glyph-name="nine.numr" horiz-adv-x="400" 
d="M201 610q72 0 110.5 -36.5t38.5 -105.5v-134q0 -161 -162 -161q-56 0 -112 9v101q46 -8 96 -8q34 0 48 12t14 39v34q-36 -36 -84 -36q-47 0 -73.5 31.5t-26.5 94.5v22q0 67 39 102.5t112 35.5zM198 509q-32 0 -32 -32v-28q0 -28 24 -28q21 0 43 22v34q0 32 -35 32z" />
    <glyph glyph-name="equal.numr" horiz-adv-x="400" 
d="M346 407h-291v103h291v-103zM346 272h-291v102h291v-102z" />
    <glyph glyph-name="minus.numr" horiz-adv-x="400" 
d="M345 331h-291v102h291v-102z" />
    <glyph glyph-name="parenleft.dnom" horiz-adv-x="400" 
d="M292 543v-104q-33 -1 -46 -14t-13 -43v-330q0 -30 13 -42.5t46 -13.5v-104q-97 0 -141 40t-44 135v300q0 95 43.5 136.5t141.5 39.5z" />
    <glyph glyph-name="parenright.dnom" horiz-adv-x="400" 
d="M107 439v104q98 2 141.5 -39.5t43.5 -136.5v-300q0 -95 -44 -135t-141 -40v104q33 1 46 14t13 42v330q0 30 -13 43t-46 14z" />
    <glyph glyph-name="plus.dnom" horiz-adv-x="400" 
d="M257 253h89v-103h-89v-85h-113v85h-90v103h90v92h113v-92z" />
    <glyph glyph-name="zero.dnom" horiz-adv-x="400" 
d="M199 429q74 0 113 -37t39 -109v-144q0 -147 -152 -147t-152 147v144q0 72 39 109t113 37zM200 320q-34 0 -34 -38v-143q0 -39 34 -39q33 0 33 39v143q0 38 -33 38z" />
    <glyph glyph-name="one.dnom" horiz-adv-x="398" 
d="M271 108h73v-108h-273v108h83v192h-2l-76 -31l-25 101l138 51h82v-313z" />
    <glyph glyph-name="two.dnom" horiz-adv-x="400" 
d="M186 429q153 0 153 -129v-14q0 -65 -61 -123l-55 -55h115v-108h-277v86l134 148q21 24 21 47v9q0 33 -47 33q-41 0 -96 -14v105q66 15 113 15z" />
    <glyph glyph-name="three.dnom" horiz-adv-x="400" 
d="M188 429q68 0 106.5 -30t38.5 -79v-12q0 -29 -18.5 -54t-50.5 -35q34 -9 55.5 -36t21.5 -60v-10q0 -53 -40.5 -87t-110.5 -34q-46 0 -114 9v103q51 -8 99 -8q23 0 32 7.5t9 24.5v7q0 34 -40 34h-77v93h74q35 0 35 32v7q0 26 -35 26q-29 0 -97 -9v102q68 9 112 9z" />
    <glyph glyph-name="four.dnom" horiz-adv-x="400" 
d="M148 175h73v36l7 75h107v-111h39v-103h-39v-72h-114v72h-167l-28 59l97 290h104z" />
    <glyph glyph-name="five.dnom" horiz-adv-x="400" 
d="M313 320h-151v-81q32 35 88 35q95 0 95 -123v-14q0 -74 -37 -109.5t-118 -35.5q-75 0 -129 14v100q62 -12 114 -12t52 41v12q0 34 -31 34q-32 0 -55 -27h-87v268h259v-102z" />
    <glyph glyph-name="six.dnom" horiz-adv-x="400" 
d="M318 420v-92q-89 -4 -120.5 -22t-31.5 -59v-15q36 36 84 36q100 0 100 -123v-18q0 -135 -152 -135q-72 0 -110 36t-38 104v91q0 99 62.5 148t205.5 49zM209 175q-19 0 -43 -22v-31q0 -33 36 -33q14 0 22.5 8t8.5 22v29q0 27 -24 27z" />
    <glyph glyph-name="seven.dnom" horiz-adv-x="400" 
d="M348 346l-153 -346h-126l143 319h-160v102h296v-75z" />
    <glyph glyph-name="eight.dnom" horiz-adv-x="400" 
d="M201 429q68 0 104 -28t36 -80v-9q0 -28 -14 -50t-38 -31q32 -11 50 -36.5t18 -56.5v-16q0 -63 -39.5 -96.5t-116.5 -33.5q-78 0 -118 33.5t-40 96.5v16q0 30 18.5 56.5t49.5 36.5q-51 19 -51 81v9q0 52 35.5 80t105.5 28zM200 343q-30 0 -30 -24v-26q0 -13 6.5 -18.5
t23.5 -5.5q29 0 29 24v26q0 24 -29 24zM200 179q-17 0 -27 -9t-10 -23v-30q0 -13 10 -21.5t27 -8.5t27 8.5t10 21.5v30q0 14 -10 23t-27 9z" />
    <glyph glyph-name="nine.dnom" horiz-adv-x="400" 
d="M201 429q72 0 110.5 -36.5t38.5 -105.5v-134q0 -161 -162 -161q-56 0 -112 9v101q46 -8 96 -8q34 0 48 12t14 39v34q-36 -36 -84 -36q-47 0 -73.5 31.5t-26.5 94.5v22q0 67 39 102.5t112 35.5zM198 328q-32 0 -32 -32v-28q0 -28 24 -28q21 0 43 22v34q0 32 -35 32z" />
    <glyph glyph-name="equal.dnom" horiz-adv-x="400" 
d="M346 226h-291v103h291v-103zM346 91h-291v102h291v-102z" />
    <glyph glyph-name="minus.dnom" horiz-adv-x="400" 
d="M345 150h-291v102h291v-102z" />
    <glyph glyph-name="space.frac" horiz-adv-x="60" 
 />
    <glyph glyph-name="quotedbl.osf" horiz-adv-x="376" 
d="M167 401h-136v282h136v-282zM345 401h-136v282h136v-282z" />
    <glyph glyph-name="numbersign.osf" horiz-adv-x="574" 
d="M467 439h68v-120h-68v-115h68v-120h-68v-84h-135v84h-90v-84h-135v84h-69v120h69v115h-69v120h69v84h135v-84h90v84h135v-84zM242 319v-115h90v115h-90z" />
    <glyph glyph-name="dollar.osf" horiz-adv-x="393" 
d="M266 605v-85q18 -1 78 -11l-1 -116q-80 16 -136 16q-59 0 -59 -36v-11q0 -25 43 -36l69 -22q64 -20 92 -53t28 -93v-18q0 -118 -114 -144v-89h-127v84q-46 4 -105 15l2 118q88 -20 136 -20q78 0 78 38v14q0 24 -39 37l-71 22q-66 21 -93.5 54t-27.5 92v10q0 123 120 146
v88h127z" />
    <glyph glyph-name="percent.osf" horiz-adv-x="883" 
d="M198 625q84 0 127 -43.5t43 -126.5v-27q0 -83 -42.5 -126.5t-127.5 -43.5q-82 0 -126 43.5t-44 126.5v27q0 83 43.5 126.5t126.5 43.5zM352 0h-151l335 613h151zM198 508q-38 0 -38 -49v-36q0 -48 38 -48t38 48v36q0 49 -38 49zM690 355q84 0 127 -43.5t43 -126.5v-27
q0 -83 -42.5 -126.5t-127.5 -43.5q-82 0 -126 43.5t-44 126.5v27q0 83 43.5 126.5t126.5 43.5zM690 238q-38 0 -38 -48v-36q0 -49 38 -49t38 49v36q0 48 -38 48z" />
    <glyph glyph-name="quotesingle.osf" horiz-adv-x="199" 
d="M167 401h-136v282h136v-282z" />
    <glyph glyph-name="plus.osf" horiz-adv-x="418" 
d="M273 313h123v-120h-123v-135h-129v135h-124v120h124v135h129v-135z" />
    <glyph glyph-name="zero.osf" horiz-adv-x="455" 
d="M227 523q96 0 146 -52t50 -154v-121q0 -103 -50.5 -155.5t-145.5 -52.5q-96 0 -146 52.5t-50 155.5v121q0 102 50 154t146 52zM227 402q-59 0 -59 -75v-142q0 -76 59 -76t59 76v142q0 75 -59 75z" />
    <glyph glyph-name="one.osf" horiz-adv-x="313" 
d="M273 0h-136v369h-2l-109 -49l-27 121l172 70h102v-511z" />
    <glyph glyph-name="two.osf" horiz-adv-x="386" 
d="M163 523q102 0 150 -40.5t48 -121.5v-16q0 -92 -75 -155l-83 -69h168v-121h-359v98l162 143q30 26 40 46t10 47v9q0 31 -19.5 45.5t-63.5 14.5q-50 0 -126 -23v121q83 22 148 22z" />
    <glyph glyph-name="three.osf" horiz-adv-x="362" 
d="M154 523q87 0 136.5 -43t49.5 -112v-17q0 -41 -22.5 -77t-61.5 -52q43 -15 69.5 -53.5t26.5 -84.5v-17q0 -200 -340 -201v117q120 4 162 26t42 72v13q0 67 -71 67h-102v116h99q62 0 62 64v14q0 51 -64 51q-44 0 -128 -15v118q84 14 142 14z" />
    <glyph glyph-name="four.osf" horiz-adv-x="444" 
d="M385 121h60v-121h-60v-115h-135v115h-255v90l215 421h175v-390zM144 121h106v225z" />
    <glyph glyph-name="five.osf" horiz-adv-x="420" 
d="M363 390h-199v-131q40 42 113 42q130 0 130 -171v-28q0 -117 -82.5 -176t-273.5 -60v116q130 4 175 29.5t45 84.5v24q0 60 -49 60q-47 0 -88 -47h-103v378h332v-121z" />
    <glyph glyph-name="six.osf" horiz-adv-x="442" 
d="M372 606v-117q-116 -4 -160 -29.5t-44 -79.5v-32q52 52 112 52q66 0 103 -46t37 -139v-34q0 -95 -50 -144t-145 -49t-144.5 51t-49.5 146v182q0 236 341 239zM240 277q-31 0 -72 -41v-58q0 -69 57 -69q58 0 58 65v44q0 59 -43 59z" />
    <glyph glyph-name="seven.osf" horiz-adv-x="405" 
d="M400 426l-220 -540h-143l207 504v2h-244v119h400v-85z" />
    <glyph glyph-name="eight.osf" horiz-adv-x="439" 
d="M219 613q86 0 133 -39.5t47 -115.5v-11q0 -37 -18 -71t-49 -49q42 -17 66 -54t24 -81v-21q0 -88 -52.5 -135.5t-150.5 -47.5t-150.5 47.5t-52.5 135.5v21q0 43 25 80.5t65 54.5q-31 15 -49 49t-18 71v11q0 75 47 115t133 40zM220 503q-48 0 -48 -48v-25q0 -26 11 -37.5
t37 -11.5q25 0 36 11.5t11 37.5v25q0 48 -47 48zM220 268q-32 0 -49.5 -17.5t-17.5 -48.5v-43q0 -26 17.5 -41.5t49.5 -15.5t49 15.5t17 41.5v43q0 31 -17.5 48.5t-48.5 17.5z" />
    <glyph glyph-name="nine.osf" horiz-adv-x="446" 
d="M221 523q95 0 144.5 -50.5t49.5 -146.5v-223q0 -117 -52.5 -173t-159.5 -56q-71 0 -141 14v120q73 -15 127 -15q89 0 89 95v55q-52 -51 -113 -51q-66 0 -102.5 46t-36.5 139v53q0 95 49.5 144t145.5 49zM221 402q-59 0 -59 -65v-63q0 -59 44 -59q32 0 71 41v77
q0 69 -56 69z" />
    <glyph glyph-name="less.osf" horiz-adv-x="418" 
d="M398 332l-199 -82l199 -83v-138l-380 169v104l380 168v-138z" />
    <glyph glyph-name="equal.osf" horiz-adv-x="419" 
d="M396 290h-374v119h374v-119zM396 112h-374v119h374v-119z" />
    <glyph glyph-name="greater.osf" horiz-adv-x="418" 
d="M398 302v-104l-380 -169v138l199 83l-199 82v138z" />
    <glyph glyph-name="asciitilde.osf" horiz-adv-x="419" 
d="M141 328q31 0 71 -12.5t69 -12.5q19 0 48 7.5t49 15.5l19 7v-120q-57 -33 -118 -33q-32 0 -72.5 13t-69.5 13q-19 0 -47.5 -8t-47.5 -16l-20 -7v121q58 32 119 32z" />
    <glyph glyph-name="cent.osf" horiz-adv-x="364" 
d="M276 576v-80q16 -1 64 -8l-2 -122q-66 11 -93 11q-43 0 -60.5 -17.5t-17.5 -60.5v-111q0 -42 17.5 -59t60.5 -17q33 0 92 11l3 -123q-41 -7 -64 -9v-79h-128v86q-117 31 -117 180v132q0 149 117 180v86h128z" />
    <glyph glyph-name="sterling.osf" horiz-adv-x="407" 
d="M248 523q58 0 122 -16v-111q-59 13 -90 13q-42 0 -57.5 -12t-15.5 -42v-21h80v-107h-80v-24q0 -53 -40 -83h242v-120h-374v88q35 40 35 109v30h-58v107h58v25q0 164 178 164z" />
    <glyph glyph-name="currency.osf" horiz-adv-x="489" 
d="M476 401l-60 -60q10 -29 10 -68v-18q0 -45 -13 -74l63 -62l-92 -92l-60 63q-36 -15 -81 -15q-47 0 -79 14l-60 -61l-91 91l61 60q-16 33 -16 76v18q0 42 12 71l-57 57l91 90l54 -54q35 16 85 16q49 0 86 -17l55 56zM242 331q-50 0 -50 -56v-22q0 -56 50 -56t50 56v22
q0 56 -50 56z" />
    <glyph glyph-name="yen.osf" horiz-adv-x="404" 
d="M308 280h47v-92h-88v-31h88v-92h-88v-65h-129v65h-88v92h88v31h-88v92h47l-116 231h144l78 -227l79 227h142z" />
    <glyph glyph-name="section.osf" horiz-adv-x="420" 
d="M225 695q55 0 120 -13l-2 -120q-72 16 -108 16q-55 0 -55 -35v-22q0 -23 27 -37l108 -52q51 -24 73 -53.5t22 -70.5v-32q0 -39 -22 -70t-65 -48q25 -13 40 -40t15 -58v-33q-3 -146 -189 -146q-46 0 -126 16l3 122q74 -18 115 -18q60 0 60 34v19q0 29 -26 41l-108 49
q-50 22 -73 52.5t-23 74.5v29q0 41 23.5 73t65.5 47q-26 14 -41 41.5t-15 57.5v31q0 145 181 145zM242 336l-26 9q-69 -3 -69 -50v-18q0 -23 32 -35l29 -10q66 3 66 49v18q0 27 -32 37z" />
    <glyph glyph-name="logicalnot.osf" horiz-adv-x="418" 
d="M399 58h-129v135h-252v119h381v-254z" />
    <glyph glyph-name="degree.osf" horiz-adv-x="400" 
d="M201 695q174 0 174 -179v-20q0 -88 -44 -134.5t-130 -46.5q-87 0 -131.5 46.5t-44.5 134.5v20q0 87 44.5 133t131.5 46zM201 581q-48 0 -48 -61v-29q0 -61 48 -61q46 0 46 61v29q0 61 -46 61z" />
    <glyph glyph-name="plusminus.osf" horiz-adv-x="420" 
d="M275 349h123v-120h-123v-74h-129v74h-124v120h124v127h129v-127zM397 0h-376v120h376v-120z" />
    <glyph glyph-name="mu.osf" horiz-adv-x="447" 
d="M405 0h-125v63q-32 -45 -67 -56q-18 -8 -37 -6v-186h-134v673h137v-315q0 -57 30 -57q31 0 60 44v328h136v-488z" />
    <glyph glyph-name="multiply.osf" horiz-adv-x="418" 
d="M389 349l-94 -95l96 -96l-90 -87l-95 94l-93 -93l-86 86l94 93l-95 96l87 90l97 -97l93 94z" />
    <glyph glyph-name="divide.osf" horiz-adv-x="419" 
d="M210 491q74 0 74 -69v-15q0 -30 -19 -48t-55 -18t-54.5 18t-18.5 48v15q0 69 73 69zM396 193h-374v119h374v-119zM210 165q74 0 74 -68v-15q0 -31 -19 -49t-55 -18t-54.5 18t-18.5 49v15q0 68 73 68z" />
    <glyph glyph-name="florin.osf" horiz-adv-x="323" 
d="M245 612q51 0 87 -9v-116q-40 6 -65 6q-28 0 -40.5 -14t-12.5 -48v-26h86v-120h-86v-470h-136v470h-60v120h60v36q0 83 42.5 127t124.5 44z" />
    <glyph glyph-name="dagger.osf" horiz-adv-x="415" 
d="M275 398h121v-129h-121v-269h-136v269h-121v129h121v126h136v-126z" />
    <glyph glyph-name="daggerdbl.osf" horiz-adv-x="421" 
d="M279 414h121v-121h-121v-49h107v-122h-107v-122h-136v122h-107v122h107v49h-121v121h121v110h136v-110z" />
    <glyph glyph-name="perthousand.osf" horiz-adv-x="1261" 
d="M198 625q84 0 127 -43.5t43 -126.5v-27q0 -83 -42.5 -126.5t-127.5 -43.5q-82 0 -126 43.5t-44 126.5v27q0 83 43.5 126.5t126.5 43.5zM352 0h-151l335 613h151zM198 508q-38 0 -38 -49v-36q0 -48 38 -48t38 48v36q0 49 -38 49zM690 355q84 0 127 -43.5t43 -126.5v-27
q0 -83 -42.5 -126.5t-127.5 -43.5q-82 0 -126 43.5t-44 126.5v27q0 83 43.5 126.5t126.5 43.5zM1068 355q84 0 127 -43.5t43 -126.5v-27q0 -83 -42.5 -126.5t-127.5 -43.5q-82 0 -126 43.5t-44 126.5v27q0 83 43.5 126.5t126.5 43.5zM690 238q-38 0 -38 -48v-36
q0 -49 38 -49t38 49v36q0 48 -38 48zM1069 238q-38 0 -38 -48v-36q0 -49 38 -49t38 49v36q0 48 -38 48z" />
    <glyph glyph-name="Euro.osf" horiz-adv-x="405" 
d="M257 523q45 0 135 -15l-1 -110q-82 13 -114 13q-45 0 -62.5 -13.5t-19.5 -47.5v-6h168l-15 -71h-153v-39h141l-16 -71h-124v-2q3 -33 21.5 -46t61.5 -13q42 0 113 15l1 -114q-90 -15 -135 -15q-98 0 -144.5 43t-46.5 130v2h-67l16 71h51v39h-58l15 71h43v6q0 173 190 173
z" />
    <glyph glyph-name="Omega.osf" horiz-adv-x="538" 
d="M268 667q115 0 173 -57.5t58 -164.5v-171q0 -97 -62 -145h71v-129h-209v122h3q26 0 41 22.5t15 65.5v243q0 87 -90 87q-89 0 -89 -87v-243q0 -42 15.5 -65t40.5 -23h4v-122h-210v129h72q-63 48 -63 145v171q0 107 58 164.5t172 57.5z" />
    <glyph glyph-name="partialdiff.osf" horiz-adv-x="433" 
d="M66 585v110q161 0 246.5 -91.5t85.5 -266.5v-159q0 -90 -46 -140t-138 -50q-99 0 -141 42t-42 136v96q0 84 34.5 130.5t92.5 46.5q28 0 57.5 -16t49.5 -45v18q0 92 -52 140.5t-147 48.5zM201 314q-33 0 -33 -62v-94q0 -50 47 -50q48 0 48 50v108q-29 48 -62 48z" />
    <glyph glyph-name="Delta.osf" horiz-adv-x="526" 
d="M513 85v-85h-501v85l169 570h162zM159 125h201l-98 417z" />
    <glyph glyph-name="product.osf" horiz-adv-x="589" 
d="M591 526h-87v-711h-136v711h-146v-711h-136v711h-87v129h592v-129z" />
    <glyph glyph-name="summation.osf" horiz-adv-x="423" 
d="M414 529h-241l153 -248v-78l-159 -262h247v-126h-406v104l188 318l-188 314v104h406v-126z" />
    <glyph glyph-name="minus.osf" horiz-adv-x="419" 
d="M397 193h-375v119h375v-119z" />
    <glyph glyph-name="radical.osf" horiz-adv-x="529" 
d="M581 571h-107l-170 -571h-162l-136 488h144l77 -384l141 579h213v-112z" />
    <glyph glyph-name="infinity.osf" horiz-adv-x="538" 
d="M374 398q146 0 146 -144v-9q0 -144 -146 -144q-69 0 -105 51q-36 -51 -105 -51q-146 0 -146 144v9q0 73 36 108.5t110 35.5q30 0 59 -13.5t46 -36.5q17 23 46 36.5t59 13.5zM174 292q-35 0 -35 -33v-20q0 -31 35 -31q36 0 36 32v19q0 33 -36 33zM365 292q-36 0 -36 -33
v-19q0 -32 36 -32q35 0 35 31v20q0 33 -35 33z" />
    <glyph glyph-name="integral.osf" horiz-adv-x="324" 
d="M255 695q46 0 87 -9v-116q-40 6 -65 6q-27 0 -40 -14t-13 -49v-534q0 -84 -43 -130t-124 -46q-46 0 -87 9v116q43 -5 65 -5q27 0 40 14t13 48v534q0 84 43.5 130t123.5 46z" />
    <glyph glyph-name="approxequal.osf" horiz-adv-x="419" 
d="M141 429q31 0 71 -12.5t69 -12.5q19 0 48 7.5t49 15.5l19 8v-121q-57 -32 -118 -32q-32 0 -72.5 12.5t-69.5 12.5q-19 0 -47.5 -7.5t-47.5 -15.5l-20 -7v120q58 32 119 32zM141 252q31 0 71 -13t69 -13q19 0 48 8t49 16l19 7v-121q-57 -32 -118 -32q-32 0 -72.5 12.5
t-69.5 12.5q-19 0 -48 -7.5t-48 -15.5l-19 -7v120q58 33 119 33z" />
    <glyph glyph-name="notequal.osf" horiz-adv-x="419" 
d="M353 409h42v-119h-116l-37 -59h153v-119h-227l-27 -44h-106l27 44h-41v119h116l36 59h-152v119h226l27 43h106z" />
    <glyph glyph-name="lessequal.osf" horiz-adv-x="418" 
d="M398 410l-220 -62l220 -63v-138l-380 149v103l380 149v-138zM398 0h-380v120h380v-120z" />
    <glyph glyph-name="greaterequal.osf" horiz-adv-x="418" 
d="M398 399v-103l-380 -149v138l220 63l-220 62v138zM398 0h-380v120h380v-120z" />
    <glyph glyph-name="lozenge.osf" horiz-adv-x="550" 
d="M545 343l-209 -343h-122l-209 343l209 340h122zM153 343l121 -220l122 220l-122 219z" />
    <glyph glyph-name="quotedbl.tf" 
d="M175 401h-136v282h136v-282zM353 401h-136v282h136v-282z" />
    <glyph glyph-name="numbersign.tf" 
d="M462 545h69v-120h-69v-195h69v-120h-69v-110h-135v110h-93v-110h-135v110h-69v120h69v195h-69v120h69v110h135v-110h93v110h135v-110zM234 425v-195h93v195h-93z" />
    <glyph glyph-name="dollar.tf" 
d="M348 750v-87q41 -4 93 -14l-2 -129q-101 19 -152 19q-70 0 -70 -57v-17q0 -21 10.5 -33t40.5 -22l84 -28q72 -23 102 -65t30 -119v-19q0 -150 -136 -181v-91h-128v83q-46 4 -126 20l1 132q100 -24 152 -24q96 0 96 59v22q0 41 -40 54l-94 32q-75 25 -104 64t-29 118v10
q0 158 144 184v89h128z" />
    <glyph glyph-name="percent.tf" horiz-adv-x="883" 
d="M210 667q84 0 127 -43.5t43 -126.5v-27q0 -83 -42.5 -126.5t-127.5 -43.5q-82 0 -126 43.5t-44 126.5v27q0 83 43.5 126.5t126.5 43.5zM340 0h-151l359 655h151zM210 550q-38 0 -38 -49v-36q0 -48 38 -48t38 48v36q0 49 -38 49zM678 355q84 0 127 -43.5t43 -126.5v-27
q0 -83 -42.5 -126.5t-127.5 -43.5q-82 0 -126 43.5t-44 126.5v27q0 83 43.5 126.5t126.5 43.5zM678 238q-38 0 -38 -48v-36q0 -49 38 -49t38 49v36q0 48 -38 48z" />
    <glyph glyph-name="quotesingle.tf" 
d="M175 401h-136v282h136v-282z" />
    <glyph glyph-name="plus.tf" 
d="M345 373h123v-120h-123v-135h-129v135h-124v120h124v135h129v-135z" />
    <glyph glyph-name="zero.tf" 
d="M281 667q96 0 149 -51.5t53 -154.5v-265q0 -103 -52.5 -155.5t-149.5 -52.5t-150 52.5t-53 155.5v265q0 103 53 154.5t150 51.5zM281 546q-66 0 -66 -75v-286q0 -76 66 -76q65 0 65 76v286q0 75 -65 75z" />
    <glyph glyph-name="one.tf" horiz-adv-x="546" 
d="M379 121h112v-121h-369v121h120v391h-2l-116 -50l-27 123l180 70h102v-534z" />
    <glyph glyph-name="two.tf" 
d="M248 667q207 0 207 -173v-21q0 -88 -81 -193l-127 -159h214v-121h-380v96l199 270q36 50 36 100v15q0 65 -86 65q-54 0 -133 -25v121q96 25 151 25z" />
    <glyph glyph-name="three.tf" 
d="M256 667q92 0 140 -43t48 -117v-26q0 -105 -90 -141q46 -14 74 -53.5t28 -92.5v-30q0 -78 -52.5 -127t-148.5 -49q-55 0 -150 14v118q81 -14 136 -14q36 0 57 20t21 56v22q0 75 -74 75h-109v116h105q67 0 67 66v28q0 60 -69 60q-44 0 -134 -16v118q96 16 151 16z" />
    <glyph glyph-name="four.tf" 
d="M197 231h112v54l16 170h117v-224h66v-119h-66v-112h-134v112h-225l-32 67l133 476h122z" />
    <glyph glyph-name="five.tf" 
d="M439 534h-207v-148q18 18 49.5 30t62.5 12q139 0 139 -186v-47q0 -207 -212 -207q-77 0 -166 24v118q105 -21 160 -21q81 0 81 80v53q0 31 -15 48t-41 17q-50 0 -91 -47h-103v395h343v-121z" />
    <glyph glyph-name="six.tf" 
d="M432 660v-116q-117 -4 -165.5 -34.5t-48.5 -86.5v-43q53 52 122 52q67 0 103.5 -46.5t36.5 -141.5v-62q0 -95 -51 -144.5t-149 -49.5t-148.5 51.5t-50.5 146.5v221q0 119 87.5 185.5t263.5 67.5zM295 308q-37 0 -77 -40v-89q0 -70 62 -70q63 0 63 66v72q0 61 -48 61z" />
    <glyph glyph-name="seven.tf" 
d="M478 570l-215 -570h-146l204 533v2h-238v120h395v-85z" />
    <glyph glyph-name="eight.tf" 
d="M281 667q89 0 137 -40t48 -117v-32q0 -38 -19 -72t-50 -50q42 -16 66.5 -54t24.5 -83v-46q0 -89 -53 -137t-154 -48t-155 48t-54 137v46q0 44 25.5 82.5t66.5 54.5q-32 16 -50.5 49.5t-18.5 72.5v33q0 76 48.5 116t137.5 40zM281 557q-28 0 -40.5 -12t-12.5 -39v-45
q0 -51 53 -51q52 0 52 51v45q0 27 -12.5 39t-39.5 12zM280 297q-34 0 -53 -17.5t-19 -48.5v-70q0 -59 72 -59q35 0 53.5 16t18.5 43v70q0 32 -19 49t-53 17z" />
    <glyph glyph-name="nine.tf" 
d="M280 667q97 0 148 -51.5t51 -146.5v-258q0 -115 -52 -169t-162 -54q-79 0 -149 16v120q78 -16 135 -16q91 0 91 88v80q-52 -52 -122 -52q-140 0 -140 188v61q0 95 51 144.5t149 49.5zM280 546q-64 0 -64 -66v-71q0 -62 48 -62q38 0 77 41v88q0 70 -61 70z" />
    <glyph glyph-name="less.tf" 
d="M469 372l-199 -82l199 -83v-138l-380 169v104l380 168v-138z" />
    <glyph glyph-name="equal.tf" 
d="M467 350h-374v119h374v-119zM467 172h-374v119h374v-119z" />
    <glyph glyph-name="greater.tf" 
d="M469 362v-104l-380 -169v138l199 83l-199 82v138z" />
    <glyph glyph-name="asciitilde.tf" 
d="M211 408q31 0 71 -12.5t69 -12.5q19 0 48 7.5t49 15.5l19 7v-120q-57 -33 -118 -33q-32 0 -72.5 13t-69.5 13q-19 0 -47.5 -7.5t-47.5 -15.5l-20 -8v121q58 32 119 32z" />
    <glyph glyph-name="cent.tf" 
d="M361 576v-80q16 -1 64 -8l-2 -122q-66 11 -93 11q-43 0 -60.5 -17.5t-17.5 -60.5v-111q0 -42 18 -59t60 -17q33 0 92 11l3 -123q-41 -7 -64 -9v-79h-128v86q-117 31 -117 180v132q0 149 117 180v86h128z" />
    <glyph glyph-name="sterling.tf" 
d="M328 667q56 0 124 -17v-116q-59 13 -92 13q-47 0 -63 -14.5t-16 -51.5v-66h91v-114h-91v-80q0 -65 -37 -98h248v-123h-382v94q35 42 35 106v101h-62v114h62v78q0 174 183 174z" />
    <glyph glyph-name="currency.tf" 
d="M516 471l-60 -60q10 -29 10 -68v-18q0 -45 -13 -74l63 -62l-92 -92l-60 63q-36 -15 -81 -15q-47 0 -79 14l-60 -61l-91 91l61 60q-16 33 -16 76v18q0 42 12 71l-57 57l91 90l54 -54q35 16 85 16q49 0 86 -17l55 56zM282 401q-50 0 -50 -56v-22q0 -56 50 -56t50 56v22
q0 56 -50 56z" />
    <glyph glyph-name="yen.tf" 
d="M379 297h61v-92h-89v-32h89v-93h-89v-80h-141v80h-90v93h90v32h-90v92h61l-160 358h158l102 -306l103 306h155z" />
    <glyph glyph-name="section.tf" 
d="M293 695q55 0 120 -13l-2 -120q-72 16 -108 16q-55 0 -55 -35v-22q0 -23 27 -37l108 -52q51 -24 73 -53.5t22 -70.5v-32q0 -39 -22 -70t-65 -48q25 -13 40 -40t15 -58v-33q-3 -146 -189 -146q-46 0 -126 16l3 122q74 -18 115 -18q60 0 60 34v19q0 29 -26 41l-108 49
q-50 22 -73 52.5t-23 74.5v29q0 41 23.5 73t65.5 47q-26 14 -41 41.5t-15 57.5v31q0 145 181 145zM310 336l-26 9q-69 -3 -69 -50v-18q0 -23 32 -35l29 -10q66 3 66 49v18q0 27 -32 37z" />
    <glyph glyph-name="logicalnot.tf" 
d="M470 118h-129v135h-252v119h381v-254z" />
    <glyph glyph-name="degree.tf" 
d="M201 695q174 0 174 -179v-20q0 -88 -44 -134.5t-130 -46.5q-87 0 -131.5 46.5t-44.5 134.5v20q0 87 44.5 133t131.5 46zM201 581q-48 0 -48 -61v-29q0 -61 48 -61q46 0 46 61v29q0 61 -46 61z" />
    <glyph glyph-name="plusminus.tf" 
d="M345 380h123v-120h-123v-92h-129v92h-124v120h124v128h129v-128zM468 0h-376v120h376v-120z" />
    <glyph glyph-name="mu.tf" 
d="M462 0h-125v63q-32 -45 -67 -56q-18 -8 -37 -6v-186h-134v673h137v-315q0 -57 30 -57q31 0 60 44v328h136v-488z" />
    <glyph glyph-name="multiply.tf" 
d="M460 409l-94 -95l96 -96l-90 -87l-95 94l-93 -93l-86 86l94 93l-95 96l87 90l97 -97l93 94z" />
    <glyph glyph-name="divide.tf" 
d="M280 551q74 0 74 -69v-15q0 -30 -19 -48t-55 -18t-54.5 18t-18.5 48v15q0 69 73 69zM466 253h-374v119h374v-119zM280 225q74 0 74 -68v-15q0 -31 -19 -49t-55 -18t-54.5 18t-18.5 49v15q0 68 73 68z" />
    <glyph glyph-name="florin.tf" 
d="M350 667q42 0 87 -9v-116q-41 6 -65 6q-28 0 -40.5 -14.5t-12.5 -48.5v-25h86v-120h-86v-525h-136v525h-60v120h60v36q0 83 42.5 127t124.5 44z" />
    <glyph glyph-name="uni2007.tf" 
 />
    <glyph glyph-name="dagger.tf" 
d="M347 488h134v-129h-134v-359h-136v359h-134v129h134v167h136v-167z" />
    <glyph glyph-name="daggerdbl.tf" 
d="M310 488h134v-129h-134v-85h134v-128h-134v-146h-136v146h-134v128h134v85h-134v129h134v167h136v-167z" />
    <glyph glyph-name="perthousand.tf" horiz-adv-x="1261" 
d="M210 667q84 0 127 -43.5t43 -126.5v-27q0 -83 -42.5 -126.5t-127.5 -43.5q-82 0 -126 43.5t-44 126.5v27q0 83 43.5 126.5t126.5 43.5zM340 0h-151l359 655h151zM210 550q-38 0 -38 -49v-36q0 -48 38 -48t38 48v36q0 49 -38 49zM678 355q84 0 127 -43.5t43 -126.5v-27
q0 -83 -42.5 -126.5t-127.5 -43.5q-82 0 -126 43.5t-44 126.5v27q0 83 43.5 126.5t126.5 43.5zM1056 355q84 0 127 -43.5t43 -126.5v-27q0 -83 -42.5 -126.5t-127.5 -43.5q-82 0 -126 43.5t-44 126.5v27q0 83 43.5 126.5t126.5 43.5zM678 238q-38 0 -38 -48v-36
q0 -49 38 -49t38 49v36q0 48 -38 48zM1057 238q-38 0 -38 -48v-36q0 -49 38 -49t38 49v36q0 48 -38 48z" />
    <glyph glyph-name="Euro.tf" 
d="M352 667q58 0 158 -18l-2 -122q-86 16 -135 16q-60 0 -84 -20.5t-24 -75.5v-13h215l-19 -92h-196v-40h184l-20 -92h-163v-13q4 -47 28.5 -64t78.5 -17q38 0 135 18l2 -127q-106 -19 -158 -19q-117 0 -170.5 51.5t-53.5 159.5v11h-78l20 92h58v40h-69l20 92h49v11
q0 118 51 170t173 52z" />
    <glyph glyph-name="partialdiff.tf" 
d="M130 585v110q161 0 246.5 -91.5t85.5 -266.5v-159q0 -90 -46 -140t-138 -50q-99 0 -141 42t-42 136v96q0 84 34.5 130.5t92.5 46.5q28 0 57.5 -16t49.5 -45v18q0 92 -52 140.5t-147 48.5zM265 314q-33 0 -33 -62v-94q0 -50 47 -50q48 0 48 50v108q-29 48 -62 48z" />
    <glyph glyph-name="product.tf" 
d="M576 526h-87v-711h-136v711h-146v-711h-136v711h-87v129h592v-129z" />
    <glyph glyph-name="summation.tf" 
d="M482 529h-241l153 -248v-78l-159 -262h247v-126h-406v104l188 318l-188 314v104h406v-126z" />
    <glyph glyph-name="minus.tf" 
d="M467 253h-375v119h375v-119z" />
    <glyph glyph-name="radical.tf" 
d="M603 631h-106l-188 -631h-162l-150 542h145l90 -438l159 639h212v-112z" />
    <glyph glyph-name="infinity.tf" 
d="M385 458q146 0 146 -144v-9q0 -144 -146 -144q-69 0 -105 51q-36 -51 -105 -51q-146 0 -146 144v9q0 73 36 108.5t110 35.5q30 0 59 -13.5t46 -36.5q17 23 46 36.5t59 13.5zM185 352q-35 0 -35 -33v-20q0 -31 35 -31q36 0 36 32v19q0 33 -36 33zM376 352q-36 0 -36 -33
v-19q0 -32 36 -32q35 0 35 31v20q0 33 -35 33z" />
    <glyph glyph-name="integral.tf" 
d="M380 750q46 0 87 -9v-116q-41 6 -65 6q-27 0 -40 -14t-13 -49v-589q0 -84 -43 -130t-124 -46q-46 0 -87 9v116q43 -5 65 -5q27 0 40 14t13 48v589q0 84 43.5 130t123.5 46z" />
    <glyph glyph-name="approxequal.tf" 
d="M211 489q31 0 71 -12.5t69 -12.5q19 0 48 7.5t49 15.5l19 8v-121q-57 -32 -118 -32q-32 0 -72.5 12.5t-69.5 12.5q-19 0 -47.5 -7.5t-47.5 -15.5l-20 -7v120q58 32 119 32zM211 312q31 0 71 -13t69 -13q19 0 48 7.5t49 15.5l19 8v-121q-57 -32 -118 -32q-32 0 -72.5 12.5
t-69.5 12.5q-19 0 -48 -7.5t-48 -15.5l-19 -7v120q58 33 119 33z" />
    <glyph glyph-name="notequal.tf" 
d="M424 469h42v-119h-116l-37 -59h153v-119h-227l-27 -44h-106l27 44h-41v119h116l36 59h-152v119h226l27 43h106z" />
    <glyph glyph-name="lessequal.tf" 
d="M470 449l-199 -82l199 -83v-138l-380 169v103l380 169v-138zM470 0h-380v120h380v-120z" />
    <glyph glyph-name="greaterequal.tf" 
d="M470 418v-103l-380 -169v138l199 83l-199 82v138zM470 0h-380v120h380v-120z" />
    <glyph glyph-name="lozenge.tf" 
d="M550 343l-209 -343h-122l-209 343l209 340h122zM159 343l121 -220l122 220l-122 219z" />
    <glyph glyph-name="quotedbl.tosf" 
d="M175 401h-136v282h136v-282zM353 401h-136v282h136v-282z" />
    <glyph glyph-name="numbersign.tosf" 
d="M461 439h68v-120h-68v-115h68v-120h-68v-84h-135v84h-90v-84h-135v84h-69v120h69v115h-69v120h69v84h135v-84h90v84h135v-84zM235 319v-115h90v115h-90z" />
    <glyph glyph-name="dollar.tosf" 
d="M348 605v-85q18 -1 78 -11l-1 -116q-80 16 -136 16q-59 0 -59 -36v-11q0 -24 43 -36l69 -22q64 -20 92 -53t28 -93v-18q0 -118 -114 -144v-89h-127v84q-46 4 -105 15l2 118q88 -20 136 -20q78 0 78 38v14q0 24 -39 37l-71 22q-66 21 -93.5 54t-27.5 92v10q0 123 120 146
v88h127z" />
    <glyph glyph-name="percent.tosf" horiz-adv-x="907" 
d="M207 625q84 0 127 -43.5t43 -126.5v-27q0 -83 -42.5 -126.5t-127.5 -43.5q-82 0 -126 43.5t-44 126.5v27q0 83 43.5 126.5t126.5 43.5zM361 0h-151l335 613h151zM207 508q-38 0 -38 -49v-36q0 -48 38 -48t38 48v36q0 49 -38 49zM699 355q84 0 127 -43.5t43 -126.5v-27
q0 -83 -42.5 -126.5t-127.5 -43.5q-82 0 -126 43.5t-44 126.5v27q0 83 43.5 126.5t126.5 43.5zM699 238q-38 0 -38 -48v-36q0 -49 38 -49t38 49v36q0 48 -38 48z" />
    <glyph glyph-name="quotesingle.tosf" 
d="M175 401h-136v282h136v-282z" />
    <glyph glyph-name="plus.tosf" 
d="M344 313h123v-120h-123v-135h-129v135h-124v120h124v135h129v-135z" />
    <glyph glyph-name="zero.tosf" 
d="M280 523q96 0 146 -52t50 -154v-121q0 -103 -50.5 -155.5t-145.5 -52.5q-96 0 -146 52.5t-50 155.5v121q0 102 50 154t146 52zM280 402q-59 0 -59 -75v-142q0 -76 59 -76t59 76v142q0 75 -59 75z" />
    <glyph glyph-name="one.tosf" 
d="M377 120h100v-120h-349v120h112v248h-2l-108 -43l-27 123l172 63h102v-391z" />
    <glyph glyph-name="two.tosf" 
d="M255 523q102 0 150 -40.5t48 -121.5v-16q0 -92 -75 -155l-83 -69h168v-121h-359v98l162 143q30 26 40 46t10 47v9q0 31 -19.5 45.5t-63.5 14.5q-50 0 -126 -23v121q83 22 148 22z" />
    <glyph glyph-name="three.tosf" 
d="M254 523q87 0 136.5 -43t49.5 -112v-17q0 -41 -22.5 -77t-61.5 -52q43 -15 69.5 -53.5t26.5 -84.5v-17q0 -200 -340 -201v117q120 4 162 26t42 72v13q0 67 -71 67h-102v116h99q62 0 62 64v14q0 51 -64 51q-44 0 -128 -15v118q84 14 142 14z" />
    <glyph glyph-name="four.tosf" 
d="M318 492l-109 -374h106v27l9 104h124v-131h66v-118h-66v-115h-134v115h-219l-32 66l143 457z" />
    <glyph glyph-name="five.tosf" 
d="M429 390h-199v-131q40 42 113 42q130 0 130 -171v-28q0 -117 -82.5 -176t-273.5 -60v116q130 4 175 29.5t45 84.5v24q0 60 -49 60q-47 0 -88 -47h-103v378h332v-121z" />
    <glyph glyph-name="six.tosf" 
d="M427 606v-117q-116 -4 -160 -29.5t-44 -79.5v-32q52 52 112 52q66 0 103 -46t37 -139v-34q0 -95 -50 -144t-145 -49t-144.5 51t-49.5 146v182q0 236 341 239zM295 277q-31 0 -72 -41v-58q0 -69 57 -69q58 0 58 65v44q0 59 -43 59z" />
    <glyph glyph-name="seven.tosf" 
d="M484 426l-220 -540h-143l207 504v2h-244v119h400v-85z" />
    <glyph glyph-name="eight.tosf" 
d="M280 613q86 0 133 -39.5t47 -115.5v-11q0 -37 -18 -71t-49 -49q42 -17 66 -54t24 -81v-21q0 -88 -52.5 -135.5t-150.5 -47.5t-150.5 47.5t-52.5 135.5v21q0 43 25 80.5t65 54.5q-31 15 -49 49t-18 71v11q0 75 47 115t133 40zM281 503q-48 0 -48 -48v-25q0 -26 11 -37.5
t37 -11.5q25 0 36 11.5t11 37.5v25q0 48 -47 48zM281 268q-32 0 -49.5 -17.5t-17.5 -48.5v-43q0 -26 17.5 -41.5t49.5 -15.5t49 15.5t17 41.5v43q0 31 -17.5 48.5t-48.5 17.5z" />
    <glyph glyph-name="nine.tosf" 
d="M278 523q95 0 144.5 -50.5t49.5 -146.5v-223q0 -117 -52.5 -173t-159.5 -56q-71 0 -141 14v120q73 -15 127 -15q89 0 89 95v55q-53 -51 -113 -51q-66 0 -102.5 46t-36.5 139v53q0 95 49.5 144t145.5 49zM278 402q-59 0 -59 -65v-63q0 -59 44 -59q32 0 71 41v77
q0 69 -56 69z" />
    <glyph glyph-name="less.tosf" 
d="M469 332l-199 -82l199 -83v-138l-380 169v104l380 168v-138z" />
    <glyph glyph-name="equal.tosf" 
d="M467 290h-374v119h374v-119zM467 112h-374v119h374v-119z" />
    <glyph glyph-name="greater.tosf" 
d="M469 302v-104l-380 -169v138l199 83l-199 82v138z" />
    <glyph glyph-name="asciitilde.tosf" 
d="M212 328q32 0 72 -12.5t68 -12.5q19 0 48 7.5t48 15.5l20 7v-120q-57 -33 -118 -33q-32 0 -72.5 13t-69.5 13q-19 0 -47.5 -8t-48.5 -16l-19 -7v121q58 32 119 32z" />
    <glyph glyph-name="cent.tosf" 
d="M361 576v-80q16 -1 64 -8l-2 -122q-66 11 -93 11q-43 0 -60.5 -17.5t-17.5 -60.5v-111q0 -42 18 -59t60 -17q33 0 92 11l3 -123q-41 -7 -64 -9v-79h-128v86q-117 31 -117 180v132q0 149 117 180v86h128z" />
    <glyph glyph-name="sterling.tosf" 
d="M323 523q58 0 122 -16v-111q-59 13 -90 13q-42 0 -57.5 -12t-15.5 -42v-21h80v-107h-80v-24q0 -53 -40 -83h242v-120h-374v88q35 40 35 109v30h-58v107h58v25q0 164 178 164z" />
    <glyph glyph-name="currency.tosf" 
d="M516 401l-60 -60q10 -29 10 -68v-18q0 -45 -13 -74l63 -62l-92 -92l-60 63q-36 -15 -81 -15q-47 0 -79 14l-60 -61l-91 91l61 60q-16 33 -16 76v18q0 42 12 71l-57 57l91 90l54 -54q35 16 85 16q49 0 86 -17l55 56zM282 331q-50 0 -50 -56v-22q0 -56 50 -56t50 56v22
q0 56 -50 56z" />
    <glyph glyph-name="yen.tosf" 
d="M386 280h47v-92h-88v-31h88v-92h-88v-65h-129v65h-88v92h88v31h-88v92h47l-116 231h144l78 -227l79 227h142z" />
    <glyph glyph-name="section.tosf" 
d="M293 695q55 0 120 -13l-2 -120q-72 16 -108 16q-55 0 -55 -35v-22q0 -23 27 -37l108 -52q51 -24 73 -53.5t22 -70.5v-32q0 -39 -22 -70t-65 -48q25 -13 40 -40t15 -58v-33q-3 -146 -189 -146q-46 0 -126 16l3 122q74 -18 115 -18q60 0 60 34v19q0 29 -26 41l-108 49
q-50 22 -73 52.5t-23 74.5v29q0 41 23.5 73t65.5 47q-26 14 -41 41.5t-15 57.5v31q0 145 181 145zM310 336l-26 9q-69 -3 -69 -50v-18q0 -23 32 -35l29 -10q66 3 66 49v18q0 27 -32 37z" />
    <glyph glyph-name="logicalnot.tosf" 
d="M470 58h-129v135h-252v119h381v-254z" />
    <glyph glyph-name="degree.tosf" 
d="M201 695q174 0 174 -179v-20q0 -88 -44 -134.5t-130 -46.5q-87 0 -131.5 46.5t-44.5 134.5v20q0 87 44.5 133t131.5 46zM201 581q-48 0 -48 -61v-29q0 -61 48 -61q46 0 46 61v29q0 61 -46 61z" />
    <glyph glyph-name="plusminus.tosf" 
d="M345 349h123v-120h-123v-74h-129v74h-124v120h124v127h129v-127zM467 0h-376v120h376v-120z" />
    <glyph glyph-name="mu.tosf" 
d="M462 0h-125v63q-32 -45 -67 -56q-18 -8 -37 -6v-186h-134v673h137v-315q0 -57 30 -57q31 0 60 44v328h136v-488z" />
    <glyph glyph-name="multiply.tosf" 
d="M460 349l-94 -95l96 -96l-90 -87l-95 94l-93 -93l-86 86l94 93l-95 96l87 90l97 -97l93 94z" />
    <glyph glyph-name="divide.tosf" horiz-adv-x="572" 
d="M287 491q74 0 74 -69v-15q0 -30 -19 -48t-55 -18t-54.5 18t-18.5 48v15q0 69 73 69zM473 193h-374v119h374v-119zM287 165q74 0 74 -68v-15q0 -31 -19 -49t-55 -18t-54.5 18t-18.5 49v15q0 68 73 68z" />
    <glyph glyph-name="florin.tosf" 
d="M332 612q51 0 87 -9v-116q-41 6 -65 6q-28 0 -40.5 -14t-12.5 -48v-26h86v-120h-86v-470h-136v470h-60v120h60v36q0 83 42.5 127t124.5 44z" />
    <glyph glyph-name="uni2007.tosf" 
 />
    <glyph glyph-name="dagger.tosf" 
d="M347 398h121v-129h-121v-269h-136v269h-121v129h121v126h136v-126z" />
    <glyph glyph-name="daggerdbl.tosf" 
d="M348 414h121v-121h-121v-49h107v-122h-107v-122h-136v122h-107v122h107v49h-121v121h121v110h136v-110z" />
    <glyph glyph-name="perthousand.tosf" horiz-adv-x="1285" 
d="M207 625q84 0 127 -43.5t43 -126.5v-27q0 -83 -42.5 -126.5t-127.5 -43.5q-82 0 -126 43.5t-44 126.5v27q0 83 43.5 126.5t126.5 43.5zM361 0h-151l335 613h151zM207 508q-38 0 -38 -49v-36q0 -48 38 -48t38 48v36q0 49 -38 49zM699 355q84 0 127 -43.5t43 -126.5v-27
q0 -83 -42.5 -126.5t-127.5 -43.5q-82 0 -126 43.5t-44 126.5v27q0 83 43.5 126.5t126.5 43.5zM1077 355q84 0 127 -43.5t43 -126.5v-27q0 -83 -42.5 -126.5t-127.5 -43.5q-82 0 -126 43.5t-44 126.5v27q0 83 43.5 126.5t126.5 43.5zM699 238q-38 0 -38 -48v-36
q0 -49 38 -49t38 49v36q0 48 -38 48zM1078 238q-38 0 -38 -48v-36q0 -49 38 -49t38 49v36q0 48 -38 48z" />
    <glyph glyph-name="Euro.tosf" 
d="M341 523q45 0 135 -15l-1 -110q-82 13 -114 13q-45 0 -62.5 -13.5t-19.5 -47.5v-6h168l-15 -71h-153v-39h141l-16 -71h-124v-2q3 -33 21.5 -46t61.5 -13q42 0 113 15l1 -114q-90 -15 -135 -15q-98 0 -144.5 43t-46.5 130v2h-67l16 71h51v39h-58l15 71h43v6q0 173 190 173
z" />
    <glyph glyph-name="partialdiff.tosf" 
d="M130 585v110q161 0 246.5 -91.5t85.5 -266.5v-159q0 -90 -46 -140t-138 -50q-99 0 -141 42t-42 136v96q0 84 34.5 130.5t92.5 46.5q28 0 57.5 -16t49.5 -45v18q0 92 -52 140.5t-147 48.5zM265 314q-33 0 -33 -62v-94q0 -50 47 -50q48 0 48 50v108q-29 48 -62 48z" />
    <glyph glyph-name="product.tosf" 
d="M576 526h-87v-711h-136v711h-146v-711h-136v711h-87v129h592v-129z" />
    <glyph glyph-name="summation.tosf" 
d="M482 529h-241l153 -248v-78l-159 -262h247v-126h-406v104l188 318l-188 314v104h406v-126z" />
    <glyph glyph-name="minus.tosf" 
d="M468 193h-375v119h375v-119z" />
    <glyph glyph-name="radical.tosf" 
d="M568 571h-107l-170 -571h-162l-136 488h144l77 -384l141 579h213v-112z" />
    <glyph glyph-name="infinity.tosf" 
d="M385 398q146 0 146 -144v-9q0 -144 -146 -144q-69 0 -105 51q-36 -51 -105 -51q-146 0 -146 144v9q0 73 36 108.5t110 35.5q30 0 59 -13.5t46 -36.5q17 23 46 36.5t59 13.5zM185 292q-35 0 -35 -33v-20q0 -31 35 -31q36 0 36 32v19q0 33 -36 33zM376 292q-36 0 -36 -33
v-19q0 -32 36 -32q35 0 35 31v20q0 33 -35 33z" />
    <glyph glyph-name="integral.tosf" horiz-adv-x="466" 
d="M332 695q46 0 87 -9v-116q-41 6 -65 6q-27 0 -40 -14t-13 -49v-534q0 -84 -43 -130t-124 -46q-46 0 -87 9v116q43 -5 65 -5q27 0 40 14t13 48v534q0 84 43.5 130t123.5 46z" />
    <glyph glyph-name="approxequal.tosf" 
d="M211 429q31 0 71 -12.5t69 -12.5q19 0 48 7.5t49 15.5l19 8v-121q-57 -32 -118 -32q-32 0 -72.5 12.5t-69.5 12.5q-19 0 -47.5 -7.5t-47.5 -15.5l-20 -7v120q58 32 119 32zM211 252q31 0 71 -13t69 -13q19 0 48 8t49 16l19 7v-121q-57 -32 -118 -32q-32 0 -72.5 12.5
t-69.5 12.5q-19 0 -48 -7.5t-48 -15.5l-19 -7v120q58 33 119 33z" />
    <glyph glyph-name="notequal.tosf" 
d="M424 409h42v-119h-116l-37 -59h153v-119h-227l-27 -44h-106l27 44h-41v119h116l36 59h-152v119h226l27 43h106z" />
    <glyph glyph-name="lessequal.tosf" 
d="M469 410l-220 -62l220 -63v-138l-380 149v103l380 149v-138zM469 0h-380v120h380v-120z" />
    <glyph glyph-name="greaterequal.tosf" 
d="M469 399v-103l-380 -149v138l220 63l-220 62v138zM469 0h-380v120h380v-120z" />
    <glyph glyph-name="lozenge.tosf" 
d="M550 343l-209 -343h-122l-209 343l209 340h122zM159 343l121 -220l122 220l-122 219z" />
    <glyph glyph-name="c_h" horiz-adv-x="862" 
d="M229 523q45 0 135 -15l-2 -112q-82 13 -112 13q-48 0 -65 -16t-17 -60v-154q0 -43 17.5 -59t64.5 -16q41 0 112 15l2 -116q-92 -15 -135 -15q-101 0 -145.5 42t-44.5 132v187q0 91 45 132.5t145 41.5zM819 0h-129v204h-125v-204h-129v511h129v-192h125v192h129v-511z" />
    <glyph glyph-name="c_k" horiz-adv-x="856" 
d="M229 523q45 0 135 -15l-2 -112q-82 13 -112 13q-48 0 -65 -16t-17 -60v-154q0 -43 17.5 -59t64.5 -16q41 0 112 15l2 -116q-92 -15 -135 -15q-101 0 -145.5 42t-44.5 132v187q0 91 45 132.5t145 41.5zM673 264l190 -264h-153l-145 205v-205h-129v511h129v-213l148 213
h135z" />
    <glyph glyph-name="s_t" horiz-adv-x="814" 
d="M201 523q57 0 135 -13l-1 -116q-84 15 -129 15q-53 0 -53 -36v-11q0 -14 7.5 -22t29.5 -14l69 -22q62 -20 87.5 -52.5t25.5 -93.5v-18q0 -75 -45 -113.5t-142 -38.5q-58 0 -146 18l1 117q86 -19 131 -19q71 0 71 38v14q0 27 -32 37l-72 22q-63 20 -88.5 53t-25.5 93v10
q0 152 177 152zM798 395h-140v-395h-129v395h-140v116h409v-116z" />
    <glyph glyph-name="i.latn_TRK" horiz-adv-x="216" 
d="M108 729q78 0 78 -69v-25q0 -68 -78 -68q-37 0 -58 18t-21 50v25q0 69 79 69zM173 0h-129v511h129v-511z" />
    <glyph glyph-name="ldot.latn_CAT" horiz-adv-x="394" 
d="M173 116h192v-116h-321v511h129v-395zM302 387q78 0 78 -69v-25q0 -68 -78 -68q-37 0 -58 18t-21 50v25q0 69 79 69z" />
    <glyph glyph-name="parenleft.case" horiz-adv-x="247" 
d="M267 789v-113q-54 -2 -71.5 -17.5t-17.5 -58.5v-551q0 -41 17.5 -56.5t71.5 -17.5v-113q-127 0 -176 48t-49 163v505q0 115 49 163t176 48z" />
    <glyph glyph-name="parenright.case" horiz-adv-x="247" 
d="M-20 676v113q127 0 176 -47.5t49 -163.5v-505q0 -116 -49 -163.5t-176 -47.5v113q54 2 71.5 17.5t17.5 56.5v551q0 43 -17.5 58.5t-71.5 17.5z" />
    <glyph glyph-name="plus.case" horiz-adv-x="421" 
d="M275 383h123v-120h-123v-135h-129v135h-124v120h124v135h129v-135z" />
    <glyph glyph-name="hyphen.case" horiz-adv-x="308" 
d="M275 268h-241v116h241v-116z" />
    <glyph glyph-name="slash.case" horiz-adv-x="312" 
d="M123 0h-138l205 683h138z" />
    <glyph glyph-name="less.case" horiz-adv-x="421" 
d="M400 402l-199 -82l199 -83v-138l-380 169v104l380 168v-138z" />
    <glyph glyph-name="equal.case" horiz-adv-x="427" 
d="M400 360h-374v119h374v-119zM400 182h-374v119h374v-119z" />
    <glyph glyph-name="greater.case" horiz-adv-x="421" 
d="M400 372v-104l-380 -169v138l199 83l-199 82v138z" />
    <glyph glyph-name="bracketleft.case" horiz-adv-x="263" 
d="M284 675h-106v-699h106v-113h-242v924h242v-112z" />
    <glyph glyph-name="backslash.case" horiz-adv-x="312" 
d="M328 0h-138l-205 683h138z" />
    <glyph glyph-name="bracketright.case" horiz-adv-x="263" 
d="M221 -137h-242v113h106v699h-106v113h242v-925z" />
    <glyph glyph-name="grave.case" horiz-adv-x="280" 
d="M250 707h-109l-111 147h139z" />
    <glyph glyph-name="braceleft.case" horiz-adv-x="290" 
d="M310 788v-113q-54 1 -71 -13.5t-17 -58.5v-171q0 -91 -75 -106q75 -17 75 -107v-171q0 -44 17 -58.5t71 -13.5v-113q-125 -2 -175 43t-50 163v154q0 23 -8.5 33t-28.5 10h-43v120h43q20 0 28.5 9.5t8.5 32.5v154q0 118 50.5 163t174.5 43z" />
    <glyph glyph-name="braceright.case" horiz-adv-x="290" 
d="M-20 675v113q125 2 175 -43t50 -163v-154q0 -42 37 -42h43v-120h-43q-37 0 -37 -43v-154q0 -118 -50 -163t-175 -43v113q54 -1 71.5 13.5t17.5 58.5v171q0 90 74 107q-36 7 -55 35t-19 71v171q0 43 -17.5 58t-71.5 14z" />
    <glyph glyph-name="asciitilde.case" horiz-adv-x="418" 
d="M140 398q32 0 72 -12.5t68 -12.5q19 0 48 7.5t48 15.5l20 7v-120q-57 -33 -118 -33q-32 0 -72.5 13t-69.5 13q-19 0 -47.5 -8t-48.5 -16l-19 -7v121q58 32 119 32z" />
    <glyph glyph-name="dieresis.case" horiz-adv-x="415" 
d="M104 861q75 0 75 -65v-24q0 -30 -19.5 -47.5t-55.5 -17.5q-34 0 -54 17.5t-20 47.5v24q0 65 74 65zM309 861q75 0 75 -65v-24q0 -30 -19.5 -47.5t-55.5 -17.5q-34 0 -54 17.5t-20 47.5v24q0 32 20 48.5t54 16.5z" />
    <glyph glyph-name="guillemotleft.case" horiz-adv-x="525" 
d="M187 296l99 -180h-146l-106 180l106 179h146zM393 296l98 -180h-146l-106 180l106 179h146z" />
    <glyph glyph-name="uni00AD.case" horiz-adv-x="308" 
d="M275 267h-241v116h241v-116z" />
    <glyph glyph-name="macron.case" horiz-adv-x="331" 
d="M301 709h-271v107h271v-107z" />
    <glyph glyph-name="acute.case" horiz-adv-x="280" 
d="M139 707h-109l81 147h139z" />
    <glyph glyph-name="periodcentered.case" horiz-adv-x="214" 
d="M107 382q80 0 80 -70v-25q0 -69 -80 -69t-80 69v25q0 70 80 70z" />
    <glyph glyph-name="guillemotright.case" horiz-adv-x="525" 
d="M286 296l-106 -180h-145l98 180l-99 179h146zM491 296l-105 -180h-146l98 180l-99 179h147z" />
    <glyph glyph-name="multiply.case" horiz-adv-x="421" 
d="M391 419l-94 -95l96 -96l-90 -87l-95 94l-93 -93l-86 86l94 93l-95 96l87 90l97 -97l93 94z" />
    <glyph glyph-name="circumflex.case" horiz-adv-x="358" 
d="M328 814v-100l-149 56l-149 -56v100l149 70z" />
    <glyph glyph-name="caron.case" horiz-adv-x="358" 
d="M328 780l-149 -69l-149 69v100l149 -56l149 56v-100z" />
    <glyph glyph-name="breve.case" horiz-adv-x="358" 
d="M328 875v-111q-7 -7 -19.5 -17t-51.5 -26.5t-78 -16.5t-76.5 15t-54.5 30l-18 15v111q8 -8 21 -19t52.5 -30t75.5 -19t73.5 17t56.5 34z" />
    <glyph glyph-name="dotaccent.case" horiz-adv-x="217" 
d="M109 868q78 0 78 -69v-25q0 -68 -78 -68q-37 0 -58 18t-21 50v25q0 69 79 69z" />
    <glyph glyph-name="ring.case" horiz-adv-x="325" 
d="M162 910q63 0 98 -30t35 -87t-34.5 -87.5t-98.5 -30.5q-63 0 -97.5 30.5t-34.5 87.5t34 87t98 30zM162 829q-31 0 -31 -34q0 -35 31 -35q32 0 32 35q0 34 -32 34z" />
    <glyph glyph-name="tilde.case" horiz-adv-x="358" 
d="M328 851v-99q-40 -36 -89 -36q-23 0 -63 15t-59 15q-16 0 -38 -7.5t-35 -14.5l-14 -8v99q40 36 89 36q30 0 68 -15.5t54 -15.5t37.5 8t35.5 16z" />
    <glyph glyph-name="hungarumlaut.case" horiz-adv-x="442" 
d="M142 707h-112l69 159h132zM323 707h-113l70 159h132z" />
    <glyph glyph-name="uni0326.case" horiz-adv-x="0" 
d="M97 -56q69 0 69 -59v-22q0 -23 -9 -54l-27 -80h-83l14 83q-31 11 -31 52v21q0 28 17.5 43.5t49.5 15.5z" />
    <glyph glyph-name="tonos.case" horiz-adv-x="242" 
d="M124 481h-115l48 174h155z" />
    <glyph glyph-name="endash.case" horiz-adv-x="568" 
d="M535 268h-501v116h501v-116z" />
    <glyph glyph-name="emdash.case" horiz-adv-x="668" 
d="M635 268h-601v116h601v-116z" />
    <glyph glyph-name="bullet.case" horiz-adv-x="227" 
d="M113 382q42 0 64 -19.5t22 -54.5v-28q0 -35 -22 -54.5t-64 -19.5q-41 0 -63.5 19.5t-22.5 54.5v28q0 35 22.5 54.5t63.5 19.5z" />
    <glyph glyph-name="guilsinglleft.case" horiz-adv-x="319" 
d="M187 296l99 -180h-146l-106 180l106 179h146z" />
    <glyph glyph-name="guilsinglright.case" horiz-adv-x="320" 
d="M286 296l-106 -180h-146l99 180l-98 179h145z" />
    <glyph glyph-name="minus.case" horiz-adv-x="421" 
d="M398 233h-375v119h375v-119z" />
    <glyph glyph-name="infinity.case" horiz-adv-x="542" 
d="M376 468q146 0 146 -144v-9q0 -144 -146 -144q-69 0 -105 51q-36 -51 -105 -51q-146 0 -146 144v9q0 73 36 108.5t110 35.5q30 0 59 -13.5t46 -36.5q17 23 46 36.5t59 13.5zM176 362q-35 0 -35 -33v-20q0 -31 35 -31q36 0 36 32v19q0 33 -36 33zM367 362q-36 0 -36 -33
v-19q0 -32 36 -32q35 0 35 31v20q0 33 -35 33z" />
    <glyph glyph-name="approxequal.case" horiz-adv-x="418" 
d="M140 499q32 0 72 -12.5t68 -12.5q19 0 48 7.5t48 15.5l20 8v-121q-57 -32 -118 -32q-32 0 -72.5 12.5t-69.5 12.5q-19 0 -47.5 -7.5t-48.5 -15.5l-19 -7v120q58 32 119 32zM140 322q32 0 72 -13t68 -13q19 0 48 7.5t48 15.5l20 8v-121q-57 -32 -118 -32q-32 0 -72.5 12.5
t-69.5 12.5q-19 0 -48 -7.5t-48 -15.5l-19 -7v120q58 33 119 33z" />
    <glyph glyph-name="notequal.case" horiz-adv-x="421" 
d="M355 479h42v-119h-116l-37 -59h153v-119h-227l-27 -44h-106l27 44h-41v119h116l36 59h-152v119h226l27 43h106z" />
    <glyph glyph-name="zero.zero" horiz-adv-x="459" 
d="M230 613q94 0 144 -51.5t50 -154.5v-211q0 -103 -49.5 -155.5t-144.5 -52.5q-195 0 -195 208v211q0 206 195 206zM230 492q-30 0 -44 -17.5t-14 -57.5v-146q0 -23 3 -43l77 260q-14 4 -22 4zM284 383l-80 -269q12 -5 26 -5q58 0 58 76v153q0 17 -4 45z" />
    <glyph glyph-name="zero.osf.zero" horiz-adv-x="455" 
d="M227 523q96 0 146 -52t50 -154v-121q0 -103 -50.5 -155.5t-145.5 -52.5q-96 0 -146 52.5t-50 155.5v121q0 102 50 154t146 52zM227 402q-59 0 -59 -75v-123q0 -23 7 -34l68 230q-10 2 -16 2zM279 332l-66 -222q5 -1 14 -1q60 0 60 76v113q0 21 -8 34z" />
    <glyph glyph-name="zero.tf.zero" 
d="M281 667q96 0 149 -51.5t53 -154.5v-265q0 -103 -52.5 -155.5t-149.5 -52.5t-150 52.5t-53 155.5v265q0 103 53 154.5t150 51.5zM281 546q-66 0 -66 -75v-235q0 -16 3 -27l98 328q-14 9 -35 9zM343 417l-90 -304q16 -4 27 -4q66 0 66 76v205q0 15 -3 27z" />
    <glyph glyph-name="zero.tosf.zero" 
d="M280 523q96 0 146 -52t50 -154v-121q0 -103 -50.5 -155.5t-145.5 -52.5q-96 0 -146 52.5t-50 155.5v121q0 102 50 154t146 52zM280 402q-59 0 -59 -75v-123q0 -23 7 -34l68 230q-10 2 -16 2zM332 332l-66 -222q5 -1 14 -1q60 0 60 76v113q0 21 -8 34z" />
    <glyph glyph-name="uni0432.ss01" horiz-adv-x="421" 
d="M205 500q90 0 137 -35.5t47 -89.5v-6q0 -88 -84 -112q48 -10 74.5 -41.5t26.5 -77.5v-4q0 -146 -200 -146q-69 0 -164 4v505q62 3 163 3zM203 394q-16 0 -32 -1v-99h40q24 0 37 13.5t13 35.5v4q0 47 -58 47zM171 200v-102q32 -2 40 -2q66 0 66 51v4q0 49 -60 49h-46z" />
    <glyph glyph-name="uni0433.ss01" horiz-adv-x="357" 
d="M345 368h-167v-368h-136v488h303v-120z" />
    <glyph glyph-name="uni0434.ss01" horiz-adv-x="486" 
d="M258 500q79 0 169 -10v-372h60v-238h-127v120h-232v-120h-128v238h61v199q0 94 45.5 138.5t151.5 44.5zM251 391q-30 0 -43 -15t-13 -48v-210h97v271q-36 2 -41 2z" />
    <glyph glyph-name="uni0436.ss01" horiz-adv-x="642" 
d="M517 263l128 -263h-135l-97 199h-25v-199h-134v199h-26l-96 -199h-135l128 263l-121 225h137l91 -171h22v170h134v-170h22l92 171h137z" />
    <glyph glyph-name="uni043A.ss01" horiz-adv-x="458" 
d="M314 273l147 -273h-156l-100 199h-27v-199h-136v488h136v-171h26l104 171h145z" />
    <glyph glyph-name="uni044E.ss01" horiz-adv-x="613" 
d="M403 500q90 0 133.5 -46t43.5 -142v-136q0 -95 -43 -141.5t-134 -46.5t-133.5 46t-43.5 139v16h-49v-189h-135v488h135v-179h49v11q0 180 177 180zM403 379q-44 0 -44 -60v-151q0 -60 44 -60q43 0 43 60v152q0 59 -43 59z" />
    <glyph glyph-name="z.ss02" horiz-adv-x="372" 
d="M343 389l-119 -155l3 -1q133 -30 133 -171v-56q0 -107 -45 -155t-144 -48q-63 0 -151 14v122q79 -14 131 -14q43 0 58 14t15 55v68q-3 60 -60 60h-97v82l116 160h-169v124h329v-99z" />
    <glyph glyph-name="germandbls.ss02" horiz-adv-x="503" 
d="M238 695q51 0 87 -9v-116q-37 6 -65 6q-26 0 -38 -14t-13 -46v-28h262v-98l-86 -156q118 -22 118 -171v-61q0 -104 -41.5 -151.5t-124.5 -47.5q-48 0 -110 11v122q54 -11 82 -11q31 0 44.5 15t13.5 54v67q0 61 -56 61h-63v81l86 165h-125v-368h-136v368h-60v120h60v36
q0 83 42.5 127t122.5 44z" />
    <glyph glyph-name="ampersand.ss03" horiz-adv-x="582" 
d="M230 667q62 0 125 -9l-2 -118q-61 9 -103 9q-79 0 -79 -68v-15q0 -35 20 -54.5t54 -19.5h21v-119h-22q-46 0 -70 -19.5t-24 -54.5v-20q0 -70 91 -70q42 0 67.5 19t27.5 57v169l28 106h106v-68h81v-119h-81v-116q0 -26 8.5 -36.5t31.5 -10.5q27 0 64 7v-120q-38 -9 -81 -9
q-103 0 -136 60q-57 -60 -143 -60q-95 0 -147.5 47.5t-52.5 132.5v22q0 53 32 94.5t87 58.5q-97 38 -97 139v17q0 74 51.5 121t142.5 47z" />
    <glyph glyph-name="caron.alt" horiz-adv-x="182" 
d="M97 695q69 0 69 -59v-22q0 -22 -9 -54l-27 -80h-83l14 83q-31 11 -31 52v21q0 28 17.5 43.5t49.5 15.5z" />
    </font>
</defs>
</svg>
